<?xml version="1.0" encoding="UTF-8"?>
<svg id="Capa_1" xmlns="http://www.w3.org/2000/svg" version="1.1" viewBox="0 0 849.18 484.94">
  <!-- Generator: Adobe Illustrator 30.2.1, SVG Export Plug-In . SVG Version: 2.1.1 Build 1)  -->
  <defs>
    <style>
      .st0 {
        fill: #fafafa;
      }

      .st1 {
        fill: #edebec;
      }

      .st2 {
        fill: #dee1e2;
      }

      .st3 {
        fill: #eae8e8;
      }

      .st4 {
        fill: #263238;
      }

      .st5 {
        fill: #c6ced3;
      }

      .st6 {
        fill: #fff;
      }

      .st7 {
        fill: #e0e0e0;
      }

      .st8 {
        fill: #455a64;
      }

      .st9 {
        fill: #bd0043;
      }

      .st10 {
        fill: #ebebeb;
      }

      .st11 {
        fill: #f5f5f5;
      }

      .st12 {
        fill: #d5d9dc;
      }
    </style>
  </defs>
  <path class="st12" d="M536.7,458.75h-163.28v-51.17h163.28c47.53,0,91.38-21.69,120.3-59.51l40.65,31.08c-38.68,50.58-97.34,79.59-160.94,79.59Z"/>
  <g>
    <path class="st9" d="M418.52,302.98l-46.16-45.34,46.16-45.34,43.37,42.6c1.54,1.51,1.54,3.97,0,5.48l-43.37,42.6Z"/>
    <polygon class="st9" points="395.44 280.31 372.36 257.64 395.44 234.97 418.52 257.64 395.44 280.31"/>
    <path class="st9" d="M441.6,280.31l20.29-19.93c1.54-1.51,1.54-3.97,0-5.48l-20.29-19.93-23.08,22.67,23.08,22.67Z"/>
    <path class="st9" d="M295.97,302.98l46.16-45.34-46.16-45.34-43.37,42.6c-1.54,1.51-1.54,3.97,0,5.48l43.37,42.6Z"/>
    <polygon class="st9" points="319.05 280.31 342.13 257.64 319.05 234.97 295.97 257.64 319.05 280.31"/>
    <path class="st9" d="M272.89,280.31l-20.29-19.93c-1.54-1.51-1.54-3.97,0-5.48l20.29-19.93,23.08,22.67-23.08,22.67Z"/>
    <path class="st9" d="M402.59,318.91l-45.34-46.16-45.34,46.16,42.6,43.37c1.51,1.54,3.97,1.54,5.48,0l42.6-43.37Z"/>
    <polygon class="st9" points="379.92 295.83 357.24 272.75 334.57 295.83 357.24 318.91 379.92 295.83"/>
    <path class="st9" d="M379.92,341.99l-19.93,20.29c-1.51,1.54-3.97,1.54-5.48,0l-19.93-20.29,22.67-23.08,22.67,23.08Z"/>
    <path class="st12" d="M311.9,196.36l45.34,46.16,45.34-46.16-42.6-43.37c-1.51-1.54-3.97-1.54-5.48,0l-42.6,43.37Z"/>
    <polygon class="st5" points="334.57 219.44 357.24 242.52 379.92 219.44 357.24 196.36 334.57 219.44"/>
    <path class="st2" d="M334.57,173.28l19.93-20.29c1.51-1.54,3.97-1.54,5.48,0l19.93,20.29-22.67,23.08-22.67-23.08Z"/>
  </g>
  <g>
    <path class="st1" d="M555.95,187.14c3.16-1.91,6.53-3.36,10-4.35l2.06-9.9,16.73-.29,2.41,9.82c3.51.86,6.92,2.19,10.15,3.99l8.46-5.54,12.04,11.62-5.24,8.64c1.91,3.16,3.36,6.53,4.35,10.01l9.9,2.06.29,16.73-9.82,2.41c-.86,3.51-2.19,6.92-3.99,10.15l5.54,8.46-11.62,12.04-8.64-5.24c-3.16,1.91-6.53,3.36-10.01,4.35l-2.06,9.9-16.73.29-2.41-9.82c-3.51-.86-6.92-2.19-10.15-3.99l-8.46,5.54-12.04-11.62,5.24-8.64c-1.91-3.16-3.36-6.53-4.35-10.01l-9.9-2.06-.29-16.73,9.82-2.41c.86-3.51,2.2-6.92,3.99-10.15l-5.54-8.46,11.62-12.04,8.65,5.24h0ZM564.87,209.43c-6.89,7.13-6.69,18.5.45,25.38,7.13,6.89,18.5,6.69,25.38-.45,6.89-7.13,6.69-18.5-.45-25.38-7.13-6.89-18.5-6.69-25.38.45Z"/>
    <path class="st1" d="M564.87,209.43s.94-1.32,3.34-2.93c2.36-1.57,6.48-3.32,11.71-2.77,2.57.29,5.39,1.13,7.96,2.83,2.54,1.7,4.94,4.11,6.44,7.25.79,1.54,1.34,3.25,1.63,5.04.32,1.78.37,3.66.1,5.53-.45,3.75-2.23,7.45-4.98,10.35-2.81,2.86-6.44,4.76-10.17,5.35-1.86.33-3.73.35-5.53.09-1.8-.23-3.53-.72-5.09-1.46-3.19-1.39-5.69-3.7-7.48-6.18-1.79-2.51-2.73-5.29-3.1-7.86-.73-5.21.87-9.39,2.36-11.8,1.52-2.46,2.81-3.44,2.81-3.44.1.08-1.08,1.18-2.47,3.64-1.35,2.42-2.78,6.51-1.98,11.49.41,2.45,1.35,5.1,3.08,7.47,1.73,2.34,4.13,4.52,7.17,5.81,1.49.69,3.13,1.14,4.84,1.35,1.7.24,3.48.21,5.23-.11,3.53-.57,6.95-2.37,9.6-5.07,2.6-2.75,4.28-6.22,4.72-9.77.26-1.76.23-3.54-.07-5.23-.27-1.69-.78-3.32-1.52-4.78-1.39-2.99-3.65-5.31-6.05-6.96-2.43-1.65-5.11-2.49-7.57-2.82-5.01-.62-9.04.95-11.42,2.39-2.41,1.47-3.47,2.69-3.55,2.59Z"/>
    <path class="st1" d="M555.95,187.14s-.19-.08-.56-.29c-.41-.24-.95-.55-1.66-.96-1.51-.89-3.69-2.18-6.52-3.85l.2-.03c-2.96,3.1-6.85,7.18-11.55,12.11l.03-.32c1.69,2.56,3.57,5.4,5.58,8.43l.1.15-.09.16c-1.64,2.98-3.02,6.36-3.93,10.08l-.05.2-.2.05c-3.06.76-6.37,1.58-9.82,2.44l.28-.36c.1,5.27.22,10.86.33,16.73l-.32-.39c3.07.63,6.44,1.33,9.91,2.04l.25.05.07.25c.92,3.23,2.36,6.66,4.32,9.89l.14.23-.14.23c-1.62,2.68-3.41,5.64-5.23,8.65l-.07-.57c3.79,3.65,7.87,7.58,12.05,11.61l-.6-.06c2.63-1.73,5.52-3.63,8.45-5.55l.25-.16.26.14c2.95,1.65,6.4,3.05,10.03,3.94l.29.07.07.29c.76,3.08,1.58,6.43,2.41,9.82l-.5-.38c5.3-.1,10.98-.2,16.73-.3l-.49.41c.65-3.13,1.35-6.5,2.06-9.9l.06-.31.3-.08c3.29-.93,6.71-2.37,9.87-4.29h0s.27-.16.27-.16l.26.16c2.9,1.76,5.79,3.51,8.64,5.24l-.64.08c3.93-4.07,7.8-8.08,11.63-12.04l-.06.63c-1.86-2.85-3.71-5.67-5.54-8.46l-.17-.26.15-.27c1.78-3.18,3.1-6.57,3.95-10.02l.07-.29.29-.07c3.32-.81,6.59-1.61,9.83-2.4l-.37.48c-.09-5.71-.19-11.29-.28-16.73l.38.45c-3.36-.7-6.66-1.39-9.9-2.07l-.27-.06-.08-.27c-1-3.55-2.47-6.88-4.28-9.9l-.14-.23.14-.23c1.8-2.96,3.55-5.83,5.26-8.63l.07.53c-4.23-4.1-8.22-7.97-12.01-11.65l.49.05c-2.98,1.94-5.77,3.76-8.47,5.52l-.19.12-.19-.11c-3.37-1.89-6.75-3.16-10.05-3.99l-.2-.05-.05-.2c-.86-3.57-1.64-6.79-2.38-9.83l.3.23c-6.48.09-12,.16-16.73.22l.22-.18c-.85,3.95-1.54,7.19-2.12,9.89l-.02.1-.1.03c-3.54.99-6.03,2.14-7.65,2.94-.77.4-1.37.71-1.8.94-.41.22-.6.32-.6.31,0-.01.19-.14.56-.38.38-.24.96-.59,1.76-1.02,1.6-.85,4.08-2.06,7.64-3.11l-.12.13c.54-2.71,1.2-5.95,2-9.92l.04-.18h.19c4.73-.11,10.25-.23,16.73-.37h.24s.06.23.06.23c.75,3.03,1.55,6.25,2.44,9.81l-.25-.25c3.36.82,6.81,2.1,10.25,4h-.38c2.69-1.76,5.47-3.59,8.44-5.55l.26-.17.23.22c3.81,3.67,7.82,7.52,12.06,11.6l.25.24-.18.29c-1.7,2.81-3.43,5.69-5.23,8.65v-.46c1.87,3.08,3.38,6.49,4.41,10.11l-.35-.33c3.24.67,6.54,1.35,9.9,2.05l.37.08v.38c.11,5.44.21,11.02.32,16.73v.39s-.37.09-.37.09c-3.23.79-6.5,1.6-9.82,2.42l.36-.36c-.87,3.54-2.22,7.01-4.04,10.28l-.02-.52c1.83,2.79,3.68,5.61,5.55,8.45l.22.34-.28.29c-3.82,3.96-7.69,7.97-11.62,12.04l-.29.3-.35-.21c-2.86-1.73-5.74-3.48-8.65-5.24h.53s0,0,0,0c-3.24,1.97-6.74,3.44-10.12,4.4l.36-.39c-.71,3.4-1.41,6.77-2.06,9.9l-.08.4h-.41c-5.76.11-11.43.2-16.73.29h-.4s-.1-.38-.1-.38c-.83-3.39-1.65-6.75-2.4-9.83l.36.36c-3.72-.91-7.25-2.36-10.27-4.05l.51-.02c-2.93,1.92-5.83,3.81-8.46,5.53l-.32.21-.27-.27c-4.17-4.04-8.25-7.98-12.02-11.64l-.26-.26.19-.31c1.83-3.01,3.63-5.96,5.25-8.64v.46c-2-3.31-3.45-6.82-4.38-10.12l.32.3c-3.46-.73-6.83-1.44-9.9-2.08l-.32-.07v-.32c-.1-5.87-.18-11.46-.26-16.73v-.29s.28-.07.28-.07c3.45-.84,6.77-1.64,9.83-2.38l-.25.25c.94-3.78,2.37-7.21,4.06-10.22v.31c-1.97-3.05-3.83-5.91-5.5-8.48l-.11-.18.15-.15c4.76-4.88,8.7-8.91,11.69-11.97l.09-.1.11.07c2.76,1.72,4.89,3.04,6.37,3.96.7.44,1.24.78,1.64,1.04.37.24.55.37.55.38Z"/>
  </g>
  <g>
    <path class="st11" d="M580.75,89.27c2.29-1.39,4.73-2.44,7.25-3.15l1.49-7.18,12.12-.21,1.75,7.12c2.54.63,5.02,1.59,7.36,2.89l6.13-4.02,8.72,8.42-3.8,6.26c1.39,2.29,2.44,4.73,3.15,7.25l7.18,1.49.21,12.12-7.12,1.75c-.63,2.54-1.59,5.02-2.89,7.36l4.02,6.13-8.42,8.72-6.26-3.8c-2.29,1.39-4.73,2.44-7.25,3.15l-1.49,7.18-12.12.21-1.75-7.12c-2.54-.63-5.02-1.59-7.36-2.89l-6.13,4.02-8.72-8.42,3.8-6.26c-1.39-2.29-2.44-4.73-3.15-7.25l-7.18-1.49-.21-12.12,7.12-1.75c.63-2.54,1.59-5.02,2.89-7.36l-4.02-6.13,8.42-8.72,6.27,3.8h0ZM587.21,105.43c-4.99,5.17-4.85,13.4.32,18.39,5.17,4.99,13.4,4.84,18.39-.32,4.99-5.17,4.85-13.4-.32-18.39-5.17-4.99-13.4-4.84-18.39.32Z"/>
    <path class="st11" d="M587.21,105.43s.68-.96,2.42-2.13c1.71-1.14,4.7-2.41,8.49-2.01,1.87.21,3.91.82,5.77,2.05,1.84,1.23,3.58,2.98,4.66,5.26.57,1.12.97,2.36,1.18,3.65.23,1.29.27,2.65.07,4-.33,2.72-1.61,5.4-3.61,7.5-2.03,2.07-4.66,3.45-7.37,3.87-1.35.24-2.71.26-4.01.07-1.3-.17-2.56-.52-3.69-1.05-2.31-1.01-4.12-2.68-5.42-4.48-1.3-1.82-1.98-3.84-2.25-5.69-.53-3.77.63-6.8,1.71-8.55,1.1-1.78,2.04-2.5,2.04-2.5.07.06-.79.85-1.79,2.64-.98,1.75-2.02,4.71-1.44,8.33.3,1.78.98,3.7,2.23,5.41,1.26,1.7,2.99,3.27,5.19,4.21,1.08.5,2.27.82,3.5.98,1.23.17,2.52.15,3.79-.08,2.56-.41,5.03-1.72,6.96-3.67,1.89-1.99,3.1-4.51,3.42-7.08.19-1.28.16-2.56-.05-3.79-.2-1.23-.56-2.4-1.1-3.47-1.01-2.16-2.65-3.85-4.39-5.04-1.76-1.2-3.7-1.81-5.49-2.04-3.63-.45-6.55.69-8.27,1.73-1.75,1.06-2.51,1.95-2.58,1.88Z"/>
    <path class="st11" d="M580.75,89.27s-.14-.06-.4-.21c-.29-.17-.69-.4-1.2-.69-1.1-.65-2.67-1.58-4.72-2.79l.15-.02c-2.14,2.25-4.96,5.2-8.37,8.77l.02-.24c1.22,1.85,2.59,3.91,4.04,6.11l.07.11-.06.12c-1.19,2.16-2.19,4.61-2.85,7.31l-.03.14-.14.04c-2.22.55-4.62,1.15-7.11,1.77l.2-.26c.08,3.82.16,7.87.24,12.12l-.23-.28c2.22.46,4.67.96,7.18,1.48l.18.04.05.18c.67,2.34,1.71,4.83,3.13,7.17l.1.17-.1.17c-1.17,1.94-2.47,4.09-3.79,6.27l-.05-.41c2.74,2.64,5.7,5.49,8.73,8.41l-.43-.04c1.91-1.25,4-2.63,6.12-4.02l.18-.12.19.1c2.14,1.19,4.64,2.21,7.27,2.85l.21.05.05.21c.55,2.23,1.15,4.66,1.75,7.12l-.36-.28c3.84-.07,7.95-.14,12.12-.22l-.36.3c.47-2.27.98-4.71,1.49-7.18l.05-.22.22-.06c2.39-.68,4.86-1.72,7.15-3.11h0s.2-.12.2-.12l.19.12c2.1,1.28,4.19,2.54,6.26,3.8l-.46.06c2.85-2.95,5.66-5.86,8.42-8.72l-.04.46c-1.35-2.06-2.69-4.11-4.01-6.13l-.12-.19.11-.19c1.29-2.31,2.24-4.76,2.86-7.26l.05-.21.21-.05c2.41-.59,4.78-1.17,7.12-1.74l-.27.35c-.07-4.14-.14-8.18-.2-12.12l.27.33c-2.43-.51-4.82-1.01-7.17-1.5l-.2-.04-.05-.19c-.73-2.57-1.79-4.99-3.11-7.18l-.1-.17.1-.17c1.31-2.15,2.57-4.23,3.81-6.26l.05.38c-3.06-2.97-5.95-5.77-8.71-8.44l.35.03c-2.16,1.41-4.18,2.73-6.14,4l-.14.09-.14-.08c-2.44-1.37-4.89-2.29-7.28-2.89l-.14-.04-.03-.14c-.63-2.59-1.19-4.92-1.72-7.12l.22.17c-4.7.06-8.7.11-12.12.16l.16-.13c-.61,2.86-1.12,5.21-1.54,7.17l-.02.07-.07.02c-2.57.72-4.37,1.55-5.54,2.13-.56.29-.99.52-1.3.68-.3.16-.43.23-.43.22,0,0,.14-.1.4-.28.28-.17.7-.43,1.28-.74,1.16-.62,2.96-1.5,5.54-2.25l-.08.09c.39-1.96.87-4.32,1.45-7.19l.03-.13h.13c3.43-.08,7.43-.17,12.12-.27h.18s.04.17.04.17c.55,2.2,1.13,4.53,1.77,7.11l-.18-.18c2.44.59,4.93,1.52,7.43,2.9h-.28c1.95-1.27,3.97-2.6,6.12-4.02l.19-.13.16.16c2.76,2.66,5.67,5.45,8.74,8.4l.18.17-.13.21c-1.23,2.04-2.49,4.12-3.79,6.27v-.33c1.35,2.23,2.45,4.7,3.2,7.33l-.25-.24c2.35.49,4.74.98,7.18,1.48l.27.06v.27c.08,3.94.15,7.98.23,12.12v.28s-.27.07-.27.07c-2.34.58-4.71,1.16-7.12,1.75l.26-.26c-.63,2.57-1.61,5.08-2.92,7.45v-.38c1.31,2.02,2.65,4.06,4.01,6.13l.16.25-.2.21c-2.77,2.87-5.57,5.78-8.42,8.73l-.21.21-.25-.15c-2.07-1.26-4.16-2.52-6.26-3.8h.39s0,0,0,0c-2.35,1.42-4.89,2.49-7.34,3.19l.26-.28c-.51,2.46-1.02,4.91-1.49,7.18l-.06.29h-.3c-4.17.08-8.29.15-12.12.21h-.29s-.07-.28-.07-.28c-.6-2.46-1.2-4.89-1.74-7.12l.26.26c-2.7-.66-5.25-1.71-7.44-2.93h.37c-2.12,1.38-4.22,2.75-6.13,4l-.23.15-.2-.19c-3.03-2.93-5.98-5.78-8.71-8.43l-.19-.18.14-.23c1.33-2.18,2.63-4.32,3.81-6.26v.33c-1.45-2.4-2.5-4.94-3.17-7.33l.23.22c-2.51-.53-4.95-1.04-7.17-1.51l-.23-.05v-.23c-.07-4.25-.13-8.31-.19-12.12v-.21s.2-.05.2-.05c2.5-.61,4.9-1.19,7.12-1.73l-.18.18c.68-2.74,1.72-5.22,2.94-7.4v.23c-1.43-2.21-2.77-4.28-3.98-6.14l-.08-.13.11-.11c3.45-3.53,6.3-6.45,8.47-8.67l.07-.07.08.05c2,1.25,3.54,2.21,4.62,2.87.51.32.9.57,1.19.75.27.17.4.26.4.27Z"/>
  </g>
  <g>
    <path class="st7" d="M207.88,61.56c2.29-1.39,4.73-2.44,7.25-3.15l1.49-7.18,12.12-.21,1.75,7.12c2.54.63,5.02,1.59,7.36,2.89l6.13-4.02,8.72,8.42-3.8,6.26c1.39,2.29,2.44,4.73,3.15,7.25l7.18,1.49.21,12.12-7.12,1.75c-.63,2.54-1.59,5.02-2.89,7.36l4.02,6.13-8.42,8.72-6.26-3.8c-2.29,1.39-4.73,2.44-7.25,3.15l-1.49,7.18-12.12.21-1.75-7.12c-2.54-.63-5.02-1.59-7.36-2.89l-6.13,4.02-8.72-8.42,3.8-6.26c-1.39-2.29-2.44-4.73-3.15-7.25l-7.18-1.49-.21-12.12,7.12-1.75c.63-2.54,1.59-5.02,2.89-7.36l-4.02-6.13,8.42-8.72,6.27,3.8h0ZM214.35,77.71c-4.99,5.17-4.85,13.4.32,18.39,5.17,4.99,13.4,4.84,18.39-.32,4.99-5.17,4.85-13.4-.32-18.39-5.17-4.99-13.4-4.84-18.39.32Z"/>
    <path class="st7" d="M214.35,77.71s.68-.96,2.42-2.13c1.71-1.14,4.7-2.41,8.49-2.01,1.87.21,3.91.82,5.77,2.05,1.84,1.23,3.58,2.98,4.66,5.26.57,1.12.97,2.36,1.18,3.65.23,1.29.27,2.65.07,4-.33,2.72-1.61,5.4-3.61,7.5-2.03,2.07-4.66,3.45-7.37,3.87-1.35.24-2.71.26-4.01.07-1.3-.17-2.56-.52-3.69-1.05-2.31-1.01-4.12-2.68-5.42-4.48-1.3-1.82-1.98-3.84-2.25-5.69-.53-3.77.63-6.8,1.71-8.55,1.1-1.78,2.04-2.49,2.04-2.49.07.06-.79.85-1.79,2.64-.98,1.75-2.02,4.71-1.44,8.33.3,1.78.98,3.7,2.23,5.41,1.26,1.7,2.99,3.27,5.19,4.21,1.08.5,2.27.82,3.5.98,1.23.17,2.52.15,3.79-.08,2.56-.41,5.03-1.72,6.96-3.67,1.89-1.99,3.1-4.51,3.42-7.08.19-1.28.16-2.56-.05-3.79-.2-1.23-.56-2.4-1.1-3.47-1.01-2.16-2.65-3.85-4.39-5.04-1.76-1.2-3.7-1.81-5.49-2.04-3.63-.45-6.55.69-8.27,1.73-1.75,1.06-2.51,1.95-2.58,1.88Z"/>
    <path class="st7" d="M207.88,61.56s-.14-.06-.4-.21c-.29-.17-.69-.4-1.2-.69-1.1-.65-2.67-1.58-4.72-2.79l.15-.02c-2.14,2.25-4.96,5.2-8.37,8.77l.02-.24c1.22,1.85,2.59,3.91,4.04,6.11l.07.11-.06.12c-1.19,2.16-2.19,4.61-2.85,7.31l-.03.14-.14.04c-2.22.55-4.62,1.15-7.11,1.77l.2-.26c.08,3.82.16,7.87.24,12.12l-.23-.28c2.22.46,4.67.96,7.18,1.48l.18.04.05.18c.67,2.34,1.71,4.83,3.13,7.17l.1.17-.1.17c-1.17,1.94-2.47,4.09-3.79,6.27l-.05-.41c2.74,2.64,5.7,5.49,8.73,8.41l-.43-.04c1.91-1.25,4-2.63,6.12-4.02l.18-.12.19.1c2.14,1.19,4.64,2.21,7.27,2.85l.21.05.05.21c.55,2.23,1.15,4.66,1.75,7.12l-.36-.28c3.84-.07,7.95-.14,12.12-.22l-.36.29c.47-2.27.98-4.71,1.49-7.18l.05-.22.22-.06c2.39-.68,4.86-1.72,7.15-3.11h0s.2-.12.2-.12l.19.12c2.1,1.28,4.19,2.54,6.26,3.8l-.46.06c2.85-2.95,5.66-5.86,8.42-8.72l-.04.46c-1.35-2.06-2.69-4.11-4.01-6.13l-.12-.19.11-.19c1.29-2.31,2.24-4.76,2.86-7.26l.05-.21.21-.05c2.41-.59,4.78-1.17,7.12-1.74l-.27.35c-.07-4.14-.14-8.18-.2-12.12l.27.33c-2.43-.51-4.82-1.01-7.17-1.5l-.2-.04-.05-.19c-.73-2.57-1.79-4.99-3.11-7.18l-.1-.17.1-.17c1.31-2.15,2.57-4.23,3.81-6.26l.05.38c-3.06-2.97-5.95-5.77-8.71-8.44l.35.03c-2.16,1.41-4.18,2.73-6.14,4l-.14.09-.14-.08c-2.44-1.37-4.89-2.29-7.28-2.89l-.14-.04-.03-.14c-.63-2.59-1.19-4.92-1.72-7.12l.22.17c-4.7.06-8.7.11-12.13.16l.16-.13c-.61,2.86-1.12,5.21-1.54,7.17l-.02.07-.07.02c-2.57.72-4.37,1.55-5.54,2.13-.56.29-.99.52-1.3.68-.3.16-.43.23-.43.22,0,0,.14-.1.4-.28.28-.17.7-.43,1.28-.74,1.16-.62,2.96-1.5,5.54-2.25l-.08.09c.39-1.96.87-4.32,1.45-7.19l.03-.13h.13c3.43-.08,7.43-.17,12.12-.27h.18s.04.17.04.17c.55,2.2,1.13,4.53,1.77,7.11l-.18-.18c2.44.59,4.93,1.52,7.43,2.9h-.28c1.95-1.27,3.97-2.6,6.12-4.02l.19-.12.16.16c2.76,2.66,5.67,5.45,8.74,8.4l.18.17-.13.21c-1.23,2.04-2.49,4.12-3.79,6.27v-.33c1.35,2.23,2.45,4.7,3.2,7.33l-.25-.24c2.35.49,4.74.98,7.18,1.48l.27.06v.27c.08,3.94.15,7.98.23,12.12v.28s-.27.07-.27.07c-2.34.58-4.71,1.16-7.12,1.75l.26-.26c-.63,2.57-1.61,5.08-2.92,7.45v-.38c1.31,2.02,2.65,4.06,4.01,6.13l.16.25-.2.21c-2.77,2.87-5.57,5.78-8.42,8.73l-.21.21-.25-.15c-2.07-1.26-4.16-2.52-6.26-3.8h.39s0,0,0,0c-2.35,1.42-4.89,2.49-7.34,3.19l.26-.28c-.51,2.46-1.02,4.91-1.49,7.18l-.06.29h-.3c-4.17.08-8.29.15-12.12.21h-.29s-.07-.28-.07-.28c-.6-2.46-1.2-4.89-1.74-7.12l.26.26c-2.7-.66-5.25-1.71-7.44-2.93h.37c-2.12,1.38-4.22,2.75-6.13,4l-.23.15-.2-.19c-3.03-2.93-5.98-5.78-8.71-8.43l-.19-.18.14-.23c1.33-2.18,2.63-4.32,3.81-6.26v.33c-1.45-2.4-2.5-4.94-3.17-7.33l.23.22c-2.51-.53-4.95-1.04-7.17-1.51l-.23-.05v-.23c-.07-4.25-.13-8.31-.19-12.12v-.21s.2-.05.2-.05c2.5-.61,4.9-1.19,7.12-1.73l-.18.18c.68-2.74,1.72-5.22,2.94-7.4v.23c-1.43-2.21-2.77-4.28-3.98-6.14l-.08-.13.11-.11c3.45-3.53,6.3-6.45,8.47-8.67l.07-.07.08.05c2,1.25,3.54,2.21,4.61,2.87.51.32.9.57,1.19.75.27.17.4.26.4.27Z"/>
  </g>
  <g>
    <path class="st7" d="M513.87,96.4v-.03s-1.32-5.36-1.32-5.36c-1.93-.48-3.79-1.21-5.53-2.17l-4.63,3.04-.02-.02-6.61-6.38v-.02s2.87-4.71,2.87-4.71c-1.03-1.7-1.82-3.53-2.37-5.45l-5.43-1.13v-.03s-.16-9.19-.16-9.19h.03s5.36-1.32,5.36-1.32c.48-1.93,1.21-3.79,2.17-5.53l-3.04-4.64.02-.02,6.38-6.61h.02s4.72,2.87,4.72,2.87c1.7-1.03,3.53-1.82,5.45-2.37l1.13-5.43h.03s9.19-.16,9.19-.16v.03s1.32,5.36,1.32,5.36c1.93.48,3.79,1.21,5.53,2.17l4.63-3.04.02.02,6.61,6.38v.02s-2.87,4.71-2.87,4.71c1.02,1.7,1.82,3.53,2.37,5.45l5.43,1.13v.03s.16,9.19.16,9.19h-.03s-5.36,1.32-5.36,1.32c-.48,1.93-1.21,3.79-2.17,5.53l3.04,4.64-.02.02-6.38,6.61h-.02s-4.72-2.87-4.72-2.87c-1.7,1.02-3.53,1.82-5.45,2.37l-1.13,5.43h-.03s-9.19.16-9.19.16ZM507.02,88.76h.02c1.74.98,3.61,1.72,5.55,2.19h.02s0,.03,0,.03l1.31,5.35,9.1-.16,1.13-5.42h.02c1.92-.55,3.76-1.35,5.47-2.38h.02s.02,0,.02,0l4.71,2.86,6.32-6.55-3.03-4.62v-.02c.98-1.74,1.72-3.61,2.19-5.55v-.02s.03,0,.03,0l5.35-1.31-.16-9.11-5.41-1.13v-.02c-.55-1.93-1.35-3.77-2.38-5.47v-.02s0-.02,0-.02l2.86-4.71-6.55-6.33-4.62,3.03h-.02c-1.74-.98-3.61-1.72-5.55-2.19h-.02s0-.03,0-.03l-1.31-5.35-9.1.16-1.13,5.42h-.02c-1.92.55-3.76,1.35-5.47,2.38h-.02s-.02,0-.02,0l-4.71-2.86-6.32,6.55,3.03,4.62v.02c-.98,1.74-1.71,3.61-2.19,5.55v.02s-.03,0-.03,0l-5.35,1.31.16,9.1,5.41,1.13v.02c.55,1.92,1.35,3.76,2.38,5.47v.02s0,.02,0,.02l-2.86,4.71,6.55,6.33,4.62-3.03ZM518.29,78.63c-2.47,0-4.94-.92-6.85-2.76-1.89-1.83-2.96-4.29-3.01-6.92-.05-2.63.94-5.13,2.77-7.02h0c3.78-3.91,10.04-4.02,13.95-.25,3.91,3.78,4.02,10.03.24,13.95-1.93,2-4.51,3.01-7.1,3.01ZM518.29,58.98c-2.57,0-5.13,1-7.05,2.99h0c-1.82,1.88-2.79,4.36-2.75,6.97s1.11,5.06,2.99,6.87c3.89,3.75,10.1,3.64,13.85-.24,3.75-3.89,3.64-10.1-.24-13.85-1.9-1.83-4.35-2.74-6.8-2.74Z"/>
    <path class="st10" d="M511.22,61.95s.51-.72,1.83-1.61c1.29-.86,3.55-1.82,6.41-1.52,1.41.16,2.95.62,4.36,1.55,1.39.93,2.7,2.25,3.52,3.97.43.84.73,1.78.89,2.76.18.98.2,2,.06,3.03-.25,2.05-1.22,4.08-2.73,5.67-1.54,1.56-3.52,2.61-5.57,2.93-1.02.18-2.04.19-3.03.05-.98-.13-1.93-.39-2.79-.8-1.75-.76-3.11-2.03-4.09-3.38-.98-1.37-1.49-2.9-1.7-4.3-.4-2.85.48-5.14,1.29-6.46.83-1.35,1.54-1.88,1.54-1.88.05.04-.59.64-1.35,1.99-.74,1.33-1.52,3.56-1.09,6.29.22,1.34.74,2.79,1.69,4.09.95,1.28,2.26,2.47,3.92,3.18.82.38,1.72.62,2.65.74.93.13,1.9.12,2.86-.06,1.93-.31,3.8-1.3,5.26-2.77,1.42-1.5,2.34-3.41,2.59-5.35.14-.97.12-1.94-.04-2.86-.15-.93-.43-1.82-.83-2.62-.76-1.63-2-2.91-3.31-3.81-1.33-.9-2.8-1.36-4.15-1.54-2.74-.34-4.95.52-6.25,1.31-1.32.8-1.9,1.47-1.95,1.42Z"/>
    <path class="st10" d="M506.34,49.74s-.1-.05-.31-.16c-.22-.13-.52-.3-.91-.52-.83-.49-2.02-1.19-3.57-2.11h.11c-1.62,1.68-3.75,3.91-6.33,6.61l.02-.18c.92,1.4,1.95,2.95,3.05,4.62l.06.08-.05.09c-.9,1.63-1.66,3.48-2.15,5.52l-.03.11-.11.03c-1.68.42-3.49.87-5.37,1.33l.15-.2c.06,2.88.12,5.95.18,9.16l-.18-.21c1.68.35,3.53.73,5.42,1.12l.14.03.04.14c.5,1.77,1.29,3.65,2.36,5.42l.08.13-.08.13c-.89,1.47-1.87,3.09-2.86,4.74l-.04-.31c2.07,2,4.31,4.15,6.6,6.36l-.33-.03c1.44-.95,3.02-1.99,4.63-3.04l.14-.09.14.08c1.62.9,3.5,1.67,5.49,2.16l.16.04.04.16c.41,1.68.87,3.52,1.32,5.38l-.27-.21c2.9-.05,6.01-.11,9.16-.16l-.27.22c.36-1.71.74-3.56,1.13-5.42l.03-.17.16-.05c1.8-.51,3.67-1.3,5.4-2.35h0s.15-.09.15-.09l.14.09c1.59.96,3.17,1.92,4.73,2.87l-.35.05c2.15-2.23,4.27-4.42,6.37-6.59l-.03.35c-1.02-1.56-2.03-3.1-3.03-4.63l-.09-.14.08-.15c.97-1.74,1.7-3.6,2.16-5.49l.04-.16.16-.04c1.82-.44,3.61-.88,5.38-1.31l-.2.27c-.05-3.13-.1-6.18-.15-9.16l.21.25c-1.84-.38-3.65-.76-5.42-1.14l-.15-.03-.04-.15c-.55-1.94-1.35-3.77-2.35-5.42l-.08-.13.08-.13c.99-1.62,1.94-3.19,2.88-4.73l.04.29c-2.31-2.24-4.5-4.36-6.58-6.38l.27.03c-1.63,1.06-3.16,2.06-4.64,3.02l-.1.07-.11-.06c-1.85-1.03-3.69-1.73-5.5-2.18l-.11-.03-.03-.11c-.47-1.96-.9-3.72-1.3-5.38l.16.13c-3.55.05-6.57.09-9.16.12l.12-.1c-.46,2.16-.85,3.94-1.16,5.41v.05s-.06.01-.06.01c-1.94.54-3.3,1.17-4.19,1.61-.42.22-.75.39-.99.51-.22.12-.33.17-.33.17,0,0,.1-.08.31-.21.21-.13.53-.32.97-.56.88-.47,2.24-1.13,4.18-1.7l-.06.07c.3-1.48.66-3.26,1.09-5.43l.02-.1h.1c2.59-.06,5.61-.13,9.16-.2h.13s.03.13.03.13c.41,1.66.85,3.42,1.34,5.37l-.14-.14c1.84.45,3.73,1.15,5.61,2.19h-.21c1.47-.96,3-1.97,4.62-3.04l.14-.09.12.12c2.09,2.01,4.28,4.12,6.6,6.35l.13.13-.1.16c-.93,1.54-1.88,3.11-2.86,4.74v-.25c1.02,1.69,1.85,3.55,2.41,5.54l-.19-.18c1.78.37,3.58.74,5.42,1.12l.2.04v.21c.06,2.98.12,6.03.17,9.16v.21s-.2.05-.2.05c-1.77.44-3.56.88-5.38,1.32l.2-.2c-.48,1.94-1.21,3.84-2.21,5.63v-.29c.99,1.53,2,3.07,3.03,4.63l.12.19-.15.16c-2.09,2.17-4.21,4.36-6.36,6.59l-.16.16-.19-.12c-1.56-.95-3.14-1.91-4.73-2.87h.29s0,0,0,0c-1.78,1.08-3.69,1.88-5.54,2.41l.2-.21c-.39,1.86-.77,3.71-1.13,5.42l-.05.22h-.22c-3.15.06-6.26.11-9.16.16h-.22s-.05-.21-.05-.21c-.45-1.86-.9-3.69-1.32-5.38l.2.2c-2.04-.5-3.97-1.29-5.62-2.22h.28c-1.61,1.04-3.19,2.08-4.63,3.02l-.18.12-.15-.15c-2.29-2.21-4.52-4.37-6.58-6.37l-.14-.14.1-.17c1-1.65,1.98-3.26,2.88-4.73v.25c-1.09-1.81-1.89-3.73-2.4-5.54l.18.16c-1.89-.4-3.74-.79-5.42-1.14l-.17-.04v-.18c-.05-3.21-.1-6.28-.14-9.16v-.16s.15-.04.15-.04c1.89-.46,3.7-.9,5.38-1.3l-.14.14c.52-2.07,1.3-3.95,2.22-5.59v.17c-1.08-1.67-2.1-3.24-3.01-4.64l-.06-.1.08-.08c2.61-2.67,4.76-4.88,6.4-6.55l.05-.05.06.04c1.51.94,2.68,1.67,3.49,2.17.38.24.68.43.9.57.2.13.3.2.3.21Z"/>
  </g>
  <path class="st12" d="M157.27,272.28c2.08,28.56,9.67,56.45,23.99,82.16,19.73,35.43,50.11,64.59,86.34,82.82,28.06,14.12,59.31,21.48,90.72,21.48v-51.17c-83.44,0-151.32-67.88-151.32-151.32-.92.69,3.32-42.04,8.4-52.62l-49.4-23s-5.38,31.06-5.51,31.78c-3.45,19.94-4.66,40.06-3.22,59.86Z"/>
  <polygon class="st9" points="252.56 175.83 151.98 148.24 184.52 226.74 252.56 175.83"/>
  <path class="st9" d="M223.38,180.64c31.71-52.9,97.94-88.33,161.97-76.14l9.57-50.26c-86-16.37-177.26,31.59-219.53,102.89l47.99,23.52Z"/>
  <polygon class="st5" points="449.04 29.65 439.28 67.69 426.43 117.76 418.62 148.24 387.58 106.58 365.55 77 359.63 69.06 365.55 66.45 390.73 55.35 449.04 29.65"/>
  <path class="st5" d="M518.03,123.03l-38.51,33.69c-14.8-16.93-32.98-30.15-53.09-38.95-12.33-5.45-25.4-9.22-38.86-11.19l-22.03-29.58v-10.55l25.18-11.09c16.73,2.09,33.02,6.25,48.55,12.34,29.98,11.71,57.08,30.55,78.75,55.34Z"/>
  <path class="st5" d="M545.1,349.55l-46.33-21.72c9.44-20.13,18.09-49.14,18.09-71.57,0-24.03-5.46-47-16.23-68.26-1.87-3.69-19.26-28.21-21.12-31.29l38.52-33.68c15.72,18.88,25.97,37.35,28.25,41.84,14.43,28.5,21.75,59.24,21.75,91.38,0,29.99-10.28,66.31-22.93,93.29Z"/>
  <g>
    <path class="st9" d="M365.54,458.75h-163.28v-51.17h163.28c47.53,0,91.38-21.69,120.3-59.51l40.65,31.08c-38.68,50.58-97.34,79.59-160.94,79.59Z"/>
    <polygon class="st9" points="459.98 335.28 546.79 393.08 540.57 308.33 459.98 335.28"/>
  </g>
  <rect class="st9" x="17.32" y="407.59" width="215.67" height="51.17"/>
  <g>
    <path class="st3" d="M684.87,281.29l58.72,52.11c8.67,21.82-10.59,39.51-26.88,42.62,7.38,8.3,8.65,21.46,3,31.02-5.65,9.56-17.79,14.79-28.63,12.33,2.61,13.02-7.96,27.1-21.19,28.23-13.23,1.12-26.03-10.98-25.65-24.25.25-8.76,5.33-17.13,4.16-25.81-1.1-8.15-7.37-14.45-11.72-21.43-10.78-17.34-9.47-40.61.7-58.32,10.17-17.7,28.11-30.08,47.49-36.5Z"/>
    <g>
      <path class="st8" d="M721.94,314.9c-.16,7.84-1.93,15.63-5.11,22.79-2.08,4.68-8.96,3.94-10.06-1.06l-.03-.13c-3.4,8.99-7.39,17.76-11.93,26.24-2.9,5.41-10.96,4.28-12.22-1.73-4.93-23.55-1.18-48.94,10.8-69.85l28.56,23.74Z"/>
      <g>
        <path class="st9" d="M688.31,204.02c-.07.02-.24.07-.49.14-28.78,8.36-52.19,29.39-63.68,57.07l-7.21,17.36,44.43-9.64,26.95-64.93Z"/>
        <path class="st9" d="M786.8,244.9c.04.06.12.21.25.44,14.2,25.93,15.82,56.92,4.48,84.23l-7.11,17.13-24.21-37.75,26.59-64.05Z"/>
        <path class="st0" d="M808.14,54.43c7.8,3.24,13.76,29.34,13.1,68.53-.65,38.59-11.98,67.83-11.98,67.83l-60.15,144.9-38.18-15.85-22.13-9.19-38.18-15.85,54.58-131.49c5.33-12.85,11.83-25.19,19.51-36.79,6.6-9.97,15.32-21.86,25.64-32.99,26.55-28.63,49.99-42.34,57.78-39.11"/>
      </g>
      <g>
        <line class="st11" x1="758.65" y1="312.73" x2="661.39" y2="271.69"/>
        <path class="st7" d="M661.39,271.69c-.06.14,21.67,9.45,48.52,20.78,26.86,11.34,48.68,20.41,48.74,20.26.06-.14-21.66-9.44-48.52-20.78-26.85-11.33-48.68-20.4-48.74-20.26Z"/>
      </g>
      <g>
        <line class="st11" x1="757.26" y1="317.31" x2="660" y2="276.26"/>
        <path class="st7" d="M660,276.26c-.06.14,21.67,9.45,48.52,20.78,26.86,11.34,48.68,20.41,48.74,20.26.06-.14-21.66-9.44-48.52-20.78-26.85-11.33-48.68-20.4-48.74-20.26Z"/>
      </g>
      <g>
        <line class="st11" x1="755.26" y1="321.91" x2="658" y2="280.87"/>
        <path class="st7" d="M658,280.87c-.06.14,21.67,9.45,48.52,20.78,26.86,11.34,48.68,20.41,48.74,20.26.06-.14-21.66-9.44-48.52-20.78-26.85-11.33-48.68-20.4-48.74-20.26Z"/>
      </g>
      <g>
        <line class="st11" x1="753.26" y1="326.51" x2="656" y2="285.47"/>
        <path class="st7" d="M656,285.47c-.06.14,21.67,9.45,48.52,20.78,26.86,11.34,48.68,20.41,48.74,20.26.06-.14-21.66-9.44-48.52-20.78-26.85-11.33-48.68-20.4-48.74-20.26Z"/>
      </g>
      <g>
        <line class="st11" x1="751.26" y1="331.11" x2="654" y2="290.07"/>
        <path class="st7" d="M654,290.07c-.06.14,21.67,9.45,48.52,20.78,26.86,11.34,48.68,20.41,48.74,20.26.06-.14-21.66-9.44-48.52-20.78-26.85-11.33-48.68-20.4-48.74-20.26Z"/>
      </g>
      <path class="st7" d="M737.32,224.49s-.15.2-.39.63c-.26.43-.53,1.08-.93,1.92-.77,1.68-1.84,4.13-3.13,7.17-2.58,6.08-6.04,14.51-9.81,23.85-3.77,9.34-7.13,17.82-9.54,23.97-1.17,3.03-2.13,5.51-2.82,7.29-.3.82-.55,1.48-.74,1.99-.16.46-.24.7-.22.71.02,0,.13-.22.33-.67.21-.5.49-1.15.84-1.95.73-1.77,1.74-4.22,2.98-7.23,2.5-6.17,5.92-14.59,9.69-23.9,3.76-9.31,7.17-17.74,9.66-23.91,1.23-3.01,2.24-5.46,2.96-7.23.37-.84.61-1.53.83-1.95.2-.44.31-.67.29-.69Z"/>
      <path class="st7" d="M688.31,204.02c-.06.14,21.75,9.35,48.7,20.56,26.96,11.22,48.86,20.19,48.92,20.05.06-.14-21.74-9.35-48.71-20.56-26.95-11.21-48.86-20.19-48.91-20.05Z"/>
      <path class="st7" d="M709.59,268.99s-.07-.29-.42-.68c-.35-.38-1.01-.84-1.96-.99-.91-.16-2.22.1-3.03,1.15-.8.98-1.13,2.58-.39,3.94.78,1.33,2.32,1.87,3.58,1.7,1.31-.16,2.21-1.14,2.55-2,.36-.89.31-1.69.16-2.18-.15-.5-.34-.73-.36-.71-.04.02.08.28.15.76.07.47.06,1.21-.31,1.98-.35.76-1.14,1.55-2.25,1.65-1.07.13-2.4-.37-3.02-1.46-.61-1.1-.35-2.49.31-3.34.66-.9,1.74-1.16,2.58-1.07.85.08,1.49.45,1.85.75.37.31.53.55.57.52Z"/>
      <path class="st7" d="M720.7,240.77s-.07-.29-.42-.68c-.35-.38-1.01-.84-1.96-.99-.91-.16-2.22.1-3.03,1.15-.8.98-1.13,2.58-.39,3.94.78,1.33,2.32,1.87,3.58,1.7,1.31-.16,2.21-1.14,2.55-2,.36-.88.31-1.69.16-2.18-.15-.5-.34-.73-.36-.71-.04.02.08.28.15.76.07.47.06,1.21-.31,1.98-.35.76-1.14,1.55-2.25,1.65-1.07.13-2.4-.37-3.02-1.46-.61-1.1-.36-2.49.31-3.34.66-.9,1.74-1.16,2.58-1.07.85.08,1.49.45,1.86.75.37.31.53.55.57.52Z"/>
      <path class="st8" d="M672.53,373.28c1.69,2.42,1.06,6.15-1.33,7.88-2.39,1.73-6.13,1.17-7.9-1.19-1.78-2.36-1.28-6.1,1.04-7.92,2.32-1.82,6.08-1.4,7.94.89"/>
    </g>
    <path class="st9" d="M808.14,54.43c7.8,3.24,13.76,29.34,13.1,68.53l-70.89-29.43c26.55-28.63,49.99-42.34,57.78-39.11"/>
    <path class="st4" d="M808.14,54.43s-.47-.16-1.44-.42c-.98-.14-2.47-.14-4.38.23-3.81.79-9.08,3.17-15.33,7.08-12.44,7.9-28.93,21.94-46.06,42.42-8.41,10.35-17.08,22.25-24.86,36.04-3.86,6.9-7.51,14.26-10.8,22.06-3.25,7.8-6.6,15.83-10.04,24.1-13.75,33.06-28.98,69.7-45.17,108.63l-.24.57.57.24c15.81,6.56,32.37,13.44,49.23,20.45,16.87,7,33.44,13.88,49.25,20.44l.57.24.24-.57c16.15-38.96,31.34-75.63,45.05-108.71,3.42-8.27,6.75-16.32,9.98-24.12,1.61-3.9,3.2-7.74,4.76-11.52,1.49-3.85,2.65-7.7,3.74-11.51,4.28-15.24,6.6-29.79,7.73-43.09.98-13.32.81-25.36.24-35.87-.62-10.51-1.72-19.5-3.29-26.71-1.56-7.2-3.51-12.65-5.57-15.94-.58-.77-1.02-1.52-1.53-2.04-.54-.5-.94-.98-1.36-1.25-.86-.5-1.31-.73-1.31-.73,0,0,.41.3,1.24.82.4.28.78.77,1.3,1.27.49.53.91,1.28,1.47,2.05,1.98,3.29,3.84,8.73,5.33,15.91,1.49,7.19,2.52,16.17,3.08,26.66.51,10.49.61,22.51-.42,35.77-1.18,13.24-3.54,27.73-7.84,42.89-1.09,3.78-2.27,7.63-3.74,11.4-1.57,3.77-3.17,7.61-4.79,11.51-3.25,7.8-6.59,15.83-10.03,24.1-13.75,33.06-28.99,69.71-45.18,108.65l.81-.33c-15.81-6.56-32.38-13.45-49.25-20.45-16.87-7-33.43-13.87-49.24-20.43l.33.81c16.14-38.95,31.33-75.61,45.04-108.68,3.42-8.27,6.76-16.31,9.99-24.11,3.26-7.77,6.87-15.1,10.7-21.99,7.7-13.74,16.31-25.65,24.65-36,16.99-20.48,33.36-34.59,45.67-42.56,6.18-3.95,11.39-6.38,15.14-7.23,1.88-.4,3.34-.45,4.31-.34.95.22,1.45.3,1.45.3Z"/>
    <g>
      <g>
        <path class="st6" d="M766.64,119.83c-7.11,4.77-9.01,14.4-4.24,21.51,4.77,7.11,14.4,9.01,21.51,4.24,7.11-4.77,9.01-14.4,4.24-21.51-4.77-7.11-14.4-9.01-21.51-4.24Z"/>
        <path class="st7" d="M766.64,119.83c.05.08,1.15-.77,3.46-1.58,2.27-.8,5.97-1.41,10.11.03,2.04.72,4.16,1.92,5.92,3.77,1.74,1.84,3.24,4.22,3.88,7.01.36,1.38.49,2.85.42,4.34-.06,1.49-.35,3.01-.89,4.46-1.02,2.93-3.09,5.58-5.81,7.44-2.75,1.81-5.99,2.71-9.09,2.55-1.55-.05-3.07-.35-4.47-.86-1.41-.49-2.72-1.18-3.86-2.03-2.34-1.65-3.98-3.94-5.02-6.25-1.04-2.33-1.34-4.75-1.24-6.91.24-4.37,2.22-7.57,3.81-9.36,1.63-1.83,2.84-2.52,2.78-2.6-.01-.02-.3.17-.83.54-.27.18-.6.42-.95.74-.36.31-.78.67-1.19,1.14-1.68,1.77-3.78,5-4.09,9.51-.14,2.22.15,4.73,1.2,7.16,1.05,2.4,2.74,4.79,5.16,6.53,1.18.9,2.55,1.62,4.01,2.14,1.46.54,3.04.86,4.65.92,3.24.18,6.62-.76,9.49-2.65,2.84-1.94,4.99-4.71,6.05-7.78.56-1.52.86-3.1.92-4.65.08-1.55-.07-3.09-.46-4.52-.69-2.9-2.26-5.37-4.08-7.26-1.85-1.89-4.06-3.11-6.17-3.83-4.29-1.42-8.08-.71-10.35.17-.59.19-1.08.45-1.51.67-.43.2-.78.41-1.05.6-.55.35-.83.55-.81.57Z"/>
      </g>
      <g>
        <path class="st7" d="M764.41,136.76c.03.08,1.17-.29,2.96-1.02,1.79-.73,4.22-1.82,6.87-3.09,2.53-1.22,4.82-2.32,6.78-3.26,1.73-.84,2.8-1.36,2.77-1.45-.03-.08-1.17.29-2.96,1.02-1.79.73-4.22,1.82-6.87,3.09-2.53,1.22-4.82,2.32-6.78,3.26-1.73.84-2.8,1.36-2.77,1.45Z"/>
        <path class="st7" d="M768.62,138.53c.07.17,2.93-.91,6.4-2.41,3.47-1.51,6.21-2.86,6.13-3.03-.08-.17-2.94.91-6.4,2.41-3.45,1.5-6.2,2.86-6.13,3.03Z"/>
      </g>
    </g>
    <g>
      <path class="st9" d="M764.03,202.27l-6.66-15.66,15.78-6.38,6.26,14.71c.22.52-.02,1.12-.55,1.33l-14.82,6Z"/>
      <polygon class="st9" points="760.69 194.44 757.36 186.61 765.25 183.41 768.58 191.25 760.69 194.44"/>
      <path class="st9" d="M771.92,199.08l6.94-2.81c.53-.21.77-.81.55-1.33l-2.93-6.88-7.89,3.19,3.33,7.83Z"/>
      <path class="st9" d="M734.24,189.95l15.78-6.38-6.66-15.66-14.82,6c-.53.21-.77.81-.55,1.33l6.26,14.71Z"/>
      <polygon class="st9" points="742.13 186.76 750.02 183.57 746.68 175.74 738.8 178.93 742.13 186.76"/>
      <path class="st9" d="M730.91,182.12l-2.93-6.88c-.22-.52.02-1.12.55-1.33l6.94-2.81,3.33,7.83-7.89,3.19Z"/>
      <path class="st9" d="M758.55,204.54l-6.38-15.78-15.66,6.66,6,14.82c.21.53.81.77,1.33.55l14.71-6.26Z"/>
      <polygon class="st9" points="755.36 196.65 752.17 188.76 744.34 192.09 747.53 199.98 755.36 196.65"/>
      <path class="st9" d="M750.72,207.87l-6.88,2.93c-.52.22-1.12-.02-1.33-.55l-2.81-6.94,7.83-3.33,3.19,7.89Z"/>
      <path class="st12" d="M748.83,165.63l6.38,15.78,15.66-6.66-6-14.82c-.21-.53-.81-.77-1.33-.55l-14.71,6.26Z"/>
      <polygon class="st5" points="752.02 173.52 755.21 181.41 763.04 178.08 759.85 170.19 752.02 173.52"/>
      <path class="st2" d="M756.66,162.3l6.88-2.93c.52-.22,1.12.02,1.33.55l2.81,6.94-7.83,3.33-3.19-7.89Z"/>
    </g>
  </g>
  <g>
    <path class="st7" d="M117.09,348.98v-24.47c13.43,0,24.47,11.05,24.47,24.47s-11.05,24.47-24.47,24.47-24.16-10.7-24.47-23.91l24.47-.57Z"/>
    <path class="st11" d="M111.12,342.38l-24.47.55c0-6.37,2.49-13.05,6.93-17.62,4.44-4.57,10.79-7.22,17.16-7.4l.38,24.47Z"/>
  </g>
  <g>
    <path class="st12" d="M498.23,58.09l18.35-2.8c1.54,10.06-5.48,19.61-15.54,21.15-10.06,1.54-19.61-5.48-21.15-15.54-1.54-10.06,5.48-19.61,15.54-21.15,1.6-.24,3.23-.28,4.84-.1l-2.04,18.45Z"/>
    <path class="st7" d="M504.18,39.71l-2.23,14.22,13.96-2.62s-2.05-7.97-11.73-11.6Z"/>
  </g>
  <g>
    <rect class="st7" x="567.96" y="103.33" width="10.16" height="40.6"/>
    <rect class="st7" x="582.91" y="112.19" width="10.16" height="31.74"/>
    <rect class="st7" x="598.08" y="119.44" width="10.16" height="24.49"/>
    <rect class="st7" x="612.13" y="129.39" width="10.16" height="14.54"/>
  </g>
</svg>
