<?xml version="1.0" encoding="UTF-8"?>
<svg id="Capa_1" xmlns="http://www.w3.org/2000/svg" version="1.1" viewBox="0 0 716.88 839.59">
  <!-- Generator: Adobe Illustrator 30.2.1, SVG Export Plug-In . SVG Version: 2.1.1 Build 1)  -->
  <defs>
    <style>
      .st0 {
        fill: #111;
      }

      .st1 {
        fill: #fafafa;
      }

      .st2 {
        fill: #dee1e2;
      }

      .st3 {
        fill: #eae8e8;
      }

      .st4 {
        fill: #263238;
      }

      .st5 {
        fill: #c6ced3;
      }

      .st6 {
        fill: #fff;
      }

      .st7 {
        fill: #a4242e;
      }

      .st8 {
        fill: #e0e0e0;
      }

      .st9 {
        fill: #455a64;
      }

      .st10 {
        fill: #ab0039;
      }

      .st11 {
        opacity: .23;
      }

      .st12 {
        fill: #bd1c38;
      }

      .st13 {
        fill: #cd143c;
      }

      .st14 {
        fill: #f5f5f5;
      }

      .st15 {
        fill: #d5d9dc;
      }
    </style>
  </defs>
  <g>
    <path class="st3" d="M570.7,329.79c-2.73-50.69-.26-18.65-22.44-34.74l-6.44,5.49c-2.2,1.88-1.89,5.38.62,6.81,21.13,12.05-14.92-3.05-13.24,7.63,2.75,17.44-11.24,39.94-28.83,41.54-13.81,1.26-36.84-10.99-45.61-.25-22.15-19.73-59.98-18.1-80.35,3.46-15.67-5.61-33.86-3.65-47.97,5.16-14.12,8.81-23.86,24.29-25.71,40.83l81.56,47.35s34,30.46,57.17,11.69c7.91-6.41,10.93-15.62,11.67-24.49,1.55.18,3.13.09,4.62-.3,5.89-1.57,10.25-6.85,12.17-12.63.25-.74.45-1.5.62-2.27,19.81,4.34,46.82-.58,62.75-10.53,23.16-14.46,40.87-57.51,39.4-84.77Z"/>
    <path class="st4" d="M460.54,366.08s-.11-.13-.3-.4c-.21-.3-.47-.7-.81-1.2-.35-.54-.78-1.19-1.36-1.93-.57-.74-1.18-1.62-1.99-2.53-3.1-3.68-8.17-8.72-15.85-12.75-3.81-2.02-8.26-3.74-13.23-4.79-4.95-1.06-10.43-1.45-16.08-.72-11.27,1.34-23.38,6.89-32.19,16.73-1.22,1.32-2.29,2.74-3.3,4.06l-.2.26-.28-.14c-11.29-5.61-23.88-6.32-34.34-3.81-2.64.59-5.12,1.48-7.5,2.4-2.33,1.03-4.58,2.1-6.64,3.33-4.17,2.37-7.74,5.09-10.66,7.91-5.89,5.64-9.06,11.58-10.65,15.79-.44,1.05-.73,2.01-.99,2.84-.28.83-.47,1.54-.61,2.12-.14.55-.26.98-.34,1.31-.08.29-.13.44-.14.44-.01,0,.01-.16.07-.46.07-.34.16-.78.27-1.33.11-.59.28-1.31.54-2.15.24-.84.52-1.82.93-2.88,1.51-4.27,4.65-10.32,10.56-16.07,2.93-2.87,6.53-5.64,10.72-8.06,2.07-1.25,4.33-2.34,6.7-3.4,2.4-.95,4.92-1.86,7.59-2.47,10.59-2.58,23.36-1.9,34.84,3.8l-.48.12c1.02-1.34,2.11-2.79,3.35-4.13,8.94-9.98,21.24-15.59,32.67-16.91,5.74-.72,11.29-.3,16.3.8,5.02,1.09,9.51,2.87,13.34,4.94,7.72,4.13,12.78,9.28,15.83,13.03.8.92,1.4,1.82,1.95,2.58.56.75.98,1.42,1.3,1.98.31.52.56.93.75,1.25.17.28.24.43.23.44Z"/>
    <path class="st4" d="M476.3,355.49c-.08.12-1.14-.66-3.07-1.38-.96-.37-2.15-.66-3.49-.85-1.35-.15-2.84-.18-4.39.02-1.55.23-2.98.65-4.24,1.16-1.24.54-2.31,1.14-3.14,1.76-1.67,1.21-2.47,2.24-2.58,2.15-.04-.03.13-.31.49-.78.34-.49.95-1.11,1.76-1.79.81-.7,1.9-1.37,3.18-1.98,1.3-.57,2.8-1.04,4.42-1.27,1.62-.21,3.19-.16,4.59.04,1.4.24,2.63.6,3.6,1.05.97.44,1.72.88,2.18,1.25.47.36.71.58.68.62Z"/>
    <path class="st4" d="M499.34,386.32c-.03.06-.83-.41-2.4-.97-1.56-.55-3.95-1.15-6.95-.99-2.97.16-6.59,1.16-9.69,3.74-3.08,2.52-5.62,6.54-6.16,11.23l-.07.6-.51-.33c-1.61-1.04-3.43-1.94-5.36-2.63-5.13-1.86-10.53-1.98-15.12-.95-4.61,1.07-8.39,3.27-11.13,5.56-2.75,2.3-4.52,4.66-5.62,6.34-1.08,1.7-1.55,2.72-1.62,2.69-.02-.01.08-.27.29-.76.2-.49.57-1.2,1.07-2.08,1.03-1.75,2.76-4.19,5.52-6.59,2.74-2.39,6.59-4.7,11.32-5.84,4.71-1.1,10.25-1,15.53.91,1.99.71,3.86,1.64,5.52,2.72l-.58.27c.58-4.92,3.26-9.08,6.49-11.66,3.25-2.65,7.03-3.63,10.09-3.72,3.09-.1,5.52.6,7.07,1.23.78.32,1.37.62,1.74.85.38.23.57.35.56.38Z"/>
    <path class="st4" d="M562.53,300.19s.23.34.59,1.02c.35.69.92,1.69,1.54,3.02,1.21,2.68,2.83,6.65,4.1,11.77,1.27,5.12,2.15,11.38,2.21,18.35.02,3.49-.13,7.15-.55,10.92-.38,3.77-1.02,7.66-1.87,11.59-3.42,15.75-9.67,29.14-15.31,38.02-2.8,4.47-5.47,7.81-7.46,9.99-1.02,1.07-1.81,1.89-2.4,2.4-.57.52-.88.78-.9.76s.26-.32.8-.87c.55-.54,1.31-1.39,2.29-2.48,1.91-2.22,4.5-5.59,7.23-10.07,5.49-8.9,11.62-22.25,15.02-37.89.85-3.9,1.49-7.76,1.88-11.5.43-3.74.59-7.38.59-10.84-.03-6.92-.84-13.14-2.04-18.23-1.19-5.1-2.72-9.07-3.84-11.78-.58-1.35-1.1-2.36-1.4-3.07-.32-.7-.48-1.08-.45-1.09Z"/>
    <path class="st4" d="M524.03,301.94s.5.49,1.23,1.52c.73,1.02,1.69,2.58,2.64,4.63,1.9,4.05,3.54,10.33,2.72,17.23-.83,6.9-3.91,12.61-6.72,16.1-1.4,1.77-2.7,3.05-3.66,3.87-.95.82-1.52,1.22-1.55,1.18-.11-.12,2.12-1.82,4.78-5.38,2.66-3.52,5.58-9.13,6.39-15.87.81-6.73-.7-12.88-2.45-16.93-1.74-4.09-3.5-6.28-3.37-6.36Z"/>
  </g>
  <g>
    <g class="st11">
      <path class="st0" d="M599.41,273.46l-77.54-7.29c-21.69,8.49-21.47,34.43-12.7,48.35-11.02.27-21.42,8.26-24.52,18.83-3.11,10.58,1.32,22.92,10.45,29.1-11.21,6.92-14.26,24.12-6.11,34.48,8.15,10.35,25.58,11.44,34.95,2.17,6.18-6.11,8.81-15.46,15.9-20.49,6.65-4.72,15.47-4.44,23.47-6.02,19.87-3.92,35.86-20.63,41.81-39.99,5.95-19.36,2.78-40.75-5.69-59.14Z"/>
    </g>
    <g>
      <path class="st9" d="M549.95,269.33c-5.57,5.42-10.02,11.98-13.06,19.14-1.99,4.68,3.21,9.17,7.58,6.58l.12-.07c-4.22,8.55-7.88,17.38-10.94,26.41-1.96,5.77,4.32,10.85,9.53,7.69,20.42-12.37,36.28-32.28,43.33-55.12l-36.55-4.63Z"/>
      <g>
        <path class="st10" d="M653.11,218.64c.04.07.12.22.23.45,13.43,26.53,14.03,57.74,1.74,84.81l-7.71,16.98-23.09-38.74,28.82-63.51Z"/>
        <path class="st10" d="M556.78,174.92c-.07.02-.24.06-.49.12-28.42,7.26-51.98,27.07-64.1,53.78l-7.6,16.75,43.76-8.01,28.43-62.64Z"/>
        <path class="st1" d="M680.42,30.48c-7.62-3.46-30.59,9.89-58.56,36.9-27.54,26.6-41.06,54.61-41.06,54.61l-64.32,141.72,37.34,16.95,21.64,9.82,37.34,16.95,58.37-128.6c5.7-12.57,10.25-25.63,13.46-39.05,2.76-11.54,5.48-25.91,6.56-40.93,2.78-38.63-3.15-64.91-10.77-68.37"/>
      </g>
      <g>
        <line class="st14" x1="526.67" y1="241.26" x2="622.28" y2="283.98"/>
        <path class="st8" d="M622.28,283.98c-.06.14-21.52-9.31-47.92-21.11-26.41-11.8-47.76-21.48-47.69-21.62.06-.14,21.51,9.31,47.92,21.11,26.4,11.8,47.75,21.47,47.69,21.61Z"/>
      </g>
      <g>
        <line class="st14" x1="524.29" y1="245.36" x2="619.9" y2="288.08"/>
        <path class="st8" d="M619.9,288.08c-.06.14-21.52-9.31-47.92-21.11-26.41-11.8-47.76-21.48-47.69-21.62.06-.14,21.51,9.31,47.92,21.11,26.4,11.8,47.75,21.47,47.69,21.61Z"/>
      </g>
      <g>
        <line class="st14" x1="522.31" y1="249.93" x2="617.92" y2="292.65"/>
        <path class="st8" d="M617.92,292.65c-.06.14-21.52-9.31-47.92-21.11-26.41-11.8-47.76-21.48-47.69-21.62.06-.14,21.51,9.31,47.92,21.11,26.4,11.8,47.75,21.47,47.69,21.61Z"/>
      </g>
      <g>
        <line class="st14" x1="520.33" y1="254.5" x2="615.94" y2="297.22"/>
        <path class="st8" d="M615.94,297.22c-.06.14-21.52-9.31-47.92-21.11-26.41-11.8-47.76-21.48-47.69-21.62.06-.14,21.51,9.31,47.92,21.11,26.4,11.8,47.75,21.47,47.69,21.61Z"/>
      </g>
      <g>
        <line class="st14" x1="518.34" y1="259.06" x2="613.95" y2="301.79"/>
        <path class="st8" d="M613.95,301.79c-.06.14-21.52-9.31-47.92-21.11-26.41-11.8-47.76-21.48-47.69-21.62.06-.14,21.51,9.31,47.92,21.11,26.4,11.8,47.75,21.47,47.69,21.61Z"/>
      </g>
      <path class="st8" d="M605.09,196.97s-.05.24-.19.71c-.13.48-.42,1.12-.76,1.97-.69,1.7-1.75,4.13-3.08,7.12-2.66,5.98-6.43,14.21-10.65,23.27-4.22,9.06-8.09,17.24-10.92,23.14-1.41,2.9-2.55,5.27-3.38,6.98-.39.78-.7,1.4-.94,1.89-.22.43-.35.65-.36.64-.02,0,.07-.25.26-.69.22-.49.5-1.13.85-1.93.79-1.73,1.88-4.12,3.22-7.06,2.78-5.99,6.57-14.17,10.77-23.21,4.2-9.03,8.01-17.2,10.79-23.19,1.35-2.93,2.45-5.32,3.24-7.04.36-.84.69-1.48.85-1.92.18-.44.28-.68.3-.68Z"/>
      <path class="st8" d="M653.11,218.64c-.06.14-21.5-9.44-47.88-21.38-26.39-11.95-47.72-21.75-47.66-21.89.06-.14,21.5,9.43,47.89,21.39,26.38,11.95,47.72,21.75,47.65,21.89Z"/>
      <path class="st8" d="M591.59,247.21s.26-.15.78-.15c.51,0,1.29.16,2.04.75.74.55,1.43,1.68,1.22,2.97-.17,1.25-1.11,2.57-2.59,2.95-1.49.34-2.93-.41-3.65-1.44-.78-1.06-.67-2.38-.27-3.2.4-.86,1.02-1.37,1.47-1.6.46-.23.76-.25.76-.22.01.05-.25.13-.65.4-.39.27-.91.78-1.22,1.57-.31.77-.35,1.87.32,2.75.63.87,1.89,1.49,3.11,1.2,1.21-.3,2.05-1.43,2.21-2.49.2-1.09-.34-2.05-.97-2.59-.64-.56-1.33-.78-1.8-.83-.48-.06-.76-.02-.76-.06Z"/>
      <path class="st8" d="M604.53,220.05s.26-.15.78-.15c.51,0,1.29.16,2.04.75.74.55,1.43,1.68,1.22,2.97-.17,1.25-1.11,2.57-2.59,2.95-1.49.34-2.93-.41-3.65-1.44-.78-1.06-.67-2.38-.27-3.2.4-.86,1.02-1.37,1.47-1.6.46-.23.76-.25.76-.22.01.05-.25.13-.65.4-.39.27-.91.78-1.22,1.57-.31.77-.35,1.87.32,2.75.63.87,1.89,1.49,3.11,1.2,1.21-.3,2.05-1.43,2.21-2.49.2-1.09-.34-2.05-.97-2.59-.64-.56-1.33-.78-1.8-.84-.48-.06-.76-.02-.76-.06Z"/>
      <path class="st9" d="M541.08,344.69c-2.9.42-5.17,3.4-4.81,6.3.36,2.91,3.3,5.24,6.21,4.93,2.91-.31,5.3-3.2,5.04-6.12-.25-2.92-3.1-5.35-6.03-5.15"/>
    </g>
    <path class="st10" d="M680.42,30.48c-7.62-3.46-30.59,9.89-58.56,36.9l69.33,31.47c2.78-38.63-3.15-64.91-10.77-68.37"/>
    <path class="st4" d="M680.42,30.48s.44.24,1.27.76c.77.61,1.78,1.7,2.8,3.33,2,3.29,3.85,8.73,5.24,15.91,2.7,14.37,3.68,35.82.44,62.12-1.81,13.11-4.57,27.45-9.29,42.43-2.39,7.48-5.25,15.1-8.68,22.77-3.45,7.63-7.01,15.51-10.67,23.6-14.66,32.35-30.91,68.21-48.17,106.3l-.25.56-.56-.25c-15.46-7.01-31.66-14.37-48.16-21.85-16.5-7.49-32.7-14.85-48.17-21.87l-.56-.25.25-.56c17.32-38.09,33.61-73.93,48.31-106.27,3.68-8.08,7.26-15.94,10.73-23.57,1.74-3.81,3.44-7.56,5.13-11.25,1.78-3.69,3.79-7.14,5.81-10.5,8.15-13.42,17.13-24.96,26.01-34.78,9-9.73,17.84-17.76,25.85-24.47,8.04-6.66,15.3-11.96,21.59-15.71,6.28-3.74,11.54-6.02,15.33-6.75.96-.1,1.79-.29,2.52-.27.73.05,1.35.02,1.83.13.95.29,1.41.46,1.41.46,0,0-.5-.1-1.43-.34-.47-.1-1.09-.04-1.8-.08-.72,0-1.54.21-2.48.32-3.73.8-8.93,3.12-15.14,6.91-6.23,3.79-13.43,9.12-21.41,15.82-7.95,6.73-16.74,14.8-25.65,24.52-8.8,9.82-17.71,21.34-25.79,34.73-2,3.35-4,6.81-5.73,10.43-1.67,3.69-3.37,7.45-5.1,11.27-3.45,7.63-7.02,15.5-10.68,23.59-14.66,32.36-30.91,68.21-48.18,106.32l-.3-.81c15.46,7.02,31.67,14.37,48.17,21.86,16.49,7.49,32.7,14.84,48.15,21.86l-.81.3c17.31-38.08,33.6-73.91,48.3-106.24,3.68-8.08,7.25-15.94,10.72-23.57,3.42-7.62,6.3-15.21,8.7-22.64,4.75-14.89,7.55-29.19,9.41-42.24,3.34-26.19,2.49-47.6-.06-61.93-1.32-7.16-3.09-12.58-5.01-15.87-.98-1.63-1.94-2.72-2.67-3.36-.8-.54-1.2-.85-1.2-.85Z"/>
    <g>
      <g>
        <path class="st6" d="M661.11,104.85c1.36,8.38-4.34,16.28-12.72,17.64-8.38,1.36-16.28-4.34-17.64-12.72-1.36-8.38,4.34-16.28,12.72-17.64,8.38-1.36,16.28,4.34,17.64,12.72Z"/>
        <path class="st8" d="M661.11,104.85c-.09.02-.22-1.35-1.19-3.58-.96-2.18-3.02-5.28-6.87-7.31-1.9-.99-4.21-1.71-6.74-1.74-2.51-.02-5.25.51-7.71,1.94-1.24.67-2.4,1.57-3.43,2.64-1.04,1.05-1.94,2.29-2.63,3.67-1.43,2.73-1.96,6.02-1.46,9.25.55,3.22,2.09,6.18,4.31,8.32,1.08,1.09,2.33,1.98,3.65,2.65,1.31.69,2.69,1.18,4.09,1.42,2.78.58,5.55.21,7.93-.6,2.39-.83,4.35-2.24,5.85-3.78,3.01-3.14,3.99-6.73,4.21-9.1.22-2.42-.09-3.76,0-3.77.02,0,.08.33.17.97.05.32.1.72.1,1.19.02.47.05,1.02-.02,1.63-.14,2.42-1.07,6.13-4.12,9.41-1.52,1.61-3.53,3.1-6,3.98-2.46.86-5.33,1.26-8.23.68-1.45-.25-2.9-.75-4.27-1.46-1.38-.69-2.68-1.62-3.82-2.75-2.32-2.22-3.94-5.32-4.51-8.68-.52-3.37.04-6.81,1.54-9.65.72-1.44,1.66-2.72,2.75-3.82,1.07-1.11,2.29-2.04,3.59-2.73,2.57-1.47,5.42-2,8.02-1.95,2.62.06,5,.83,6.95,1.88,3.93,2.15,5.98,5.37,6.88,7.62.26.56.4,1.09.54,1.54.15.45.23.84.28,1.16.11.64.16.97.14.97Z"/>
      </g>
      <g>
        <path class="st8" d="M650.34,117.93c-.08.03-.59-1.04-1.27-2.83-.68-1.79-1.53-4.29-2.41-7.07-.83-2.66-1.58-5.06-2.22-7.12-.56-1.82-.91-2.95-.82-2.99.08-.03.59,1.04,1.27,2.83.68,1.79,1.53,4.29,2.41,7.07.83,2.66,1.58,5.06,2.22,7.12.56,1.82.91,2.95.82,2.99Z"/>
        <path class="st8" d="M646.21,116.08c-.17.07-1.33-2.74-2.58-6.27-1.26-3.53-2.13-6.44-1.95-6.5.18-.06,1.33,2.75,2.58,6.27,1.25,3.52,2.13,6.43,1.95,6.5Z"/>
      </g>
    </g>
    <g>
      <path class="st12" d="M603.11,162.56l15.87-5.77-6.06-15.76-14.91,5.43c-.53.19-.8.78-.59,1.3l5.69,14.81Z"/>
      <polygon class="st7" points="611.04 159.68 618.98 156.79 615.95 148.91 608.01 151.8 611.04 159.68"/>
      <path class="st13" d="M600.08,154.68l-2.66-6.93c-.2-.53.06-1.11.59-1.3l6.97-2.54,3.03,7.88-7.93,2.89Z"/>
      <path class="st12" d="M632.21,175.82l-6.06-15.76,15.87-5.77,5.69,14.81c.2.53-.06,1.11-.59,1.3l-14.91,5.43Z"/>
      <polygon class="st7" points="629.18 167.94 626.15 160.06 634.09 157.17 637.12 165.05 629.18 167.94"/>
      <path class="st13" d="M640.14,172.93l6.97-2.54c.53-.19.8-.78.59-1.3l-2.66-6.93-7.93,2.89,3.03,7.88Z"/>
      <path class="st12" d="M605.17,168.07l15.76-6.06,5.77,15.87-14.81,5.69c-.53.2-1.11-.06-1.3-.59l-5.43-14.91Z"/>
      <polygon class="st7" points="613.05 165.04 620.93 162.01 623.82 169.95 615.94 172.97 613.05 165.04"/>
      <path class="st13" d="M608.06,176l2.54,6.97c.19.53.78.8,1.3.59l6.93-2.66-2.89-7.93-7.88,3.03Z"/>
      <path class="st15" d="M639.96,148.78l-15.76,6.06-5.77-15.87,14.81-5.69c.53-.2,1.11.06,1.3.59l5.43,14.91Z"/>
      <polygon class="st5" points="632.08 151.81 624.2 154.83 621.31 146.9 629.19 143.87 632.08 151.81"/>
      <path class="st2" d="M637.07,140.84l-2.54-6.97c-.19-.53-.78-.8-1.3-.59l-6.93,2.66,2.89,7.93,7.88-3.03Z"/>
    </g>
  </g>
  <ellipse class="st3" cx="377.39" cy="492.7" rx="61.13" ry="40.93" transform="translate(-238 573.18) rotate(-60)"/>
  <ellipse class="st3" cx="334.28" cy="544.98" rx="23.84" ry="40.93" transform="translate(-304.83 561.99) rotate(-60)"/>
  <circle class="st3" cx="351.42" cy="631.18" r="62.24"/>
  <circle class="st3" cx="392.11" cy="729.78" r="80.74"/>
  <circle class="st3" cx="285.5" cy="694.17" r="80.74"/>
  <circle class="st3" cx="192.63" cy="701.96" r="80.74"/>
  <circle class="st3" cx="116.49" cy="658" r="80.74"/>
  <circle class="st3" cx="174.92" cy="631.18" r="80.74"/>
  <circle class="st3" cx="296.63" cy="735.86" r="80.74"/>
  <circle class="st3" cx="267.05" cy="596.23" r="80.74"/>
  <circle class="st3" cx="308.57" cy="458.39" r="65.04"/>
  <circle class="st3" cx="267.05" cy="506.17" r="45.86"/>
  <path class="st4" d="M401.58,528.61c-9.31,8.54-19.49,16.81-31.82,20.5,0,0,.38-.74.38-.74,1.4,4.21,2.47,8.75,1.6,13.17-.33,1.39-.95,3.02-2.02,3.89.97-1.11,1.49-2.52,1.72-3.95.63-4.54-.87-9.12-2.53-13.29,0,0,.6-.15.6-.15,12.17-3.25,22.67-11.28,32.08-19.44h0Z"/>
  <path class="st4" d="M323.75,602.28c-.79-8.8-5.33-18.31-14.09-21.44-8.64-3.07-18.05-.35-26.21,3.03,0,0-.91.37-.91.37l.17-.98c1.32-8.04,1.43-16.49-.38-24.47-1.74-7.9-6.49-15.48-14.21-18.59-5.68-2.32-12.03-2.68-18.1-2.36-10.32.48-20.54,6.59-22.98,17.15,1.49-8.32,8.62-14.92,16.72-16.96,6.09-1.66,12.51-1.54,18.72-.62,16.7,2.66,22.55,18.42,22.41,33.57-.02,4.19-.35,8.35-1.12,12.49l-.74-.61c4.25-1.7,8.66-3.1,13.21-3.76,9.38-1.56,19.04,1.4,23.8,10.13,2.26,4,3.52,8.5,3.87,13.05h-.16Z"/>
  <path class="st4" d="M463.22,689.33c-9.46-17.21-26.41-30.17-45.47-34.85-19.18-4.71-39.41-1.37-57.69,5.43,0,0-.56.21-.56.21,0,0-.15-.59-.15-.59-4.78-17.75-18.01-35.15-38.32-32.34,0,0-.06-.44-.06-.44,9.34-1.42,19.02,1.75,25.72,8.42,6.7,6.58,11.14,15.13,13.72,24.11,0,0-.72-.38-.72-.38,18.47-6.68,38.91-9.86,58.2-4.94,19.09,4.88,36.1,18.04,45.34,35.39h0Z"/>
</svg>
