<?xml version="1.0" encoding="UTF-8"?>
<svg id="Capa_1" xmlns="http://www.w3.org/2000/svg" version="1.1" viewBox="0 0 627.55 880.04">
  <!-- Generator: Adobe Illustrator 30.2.1, SVG Export Plug-In . SVG Version: 2.1.1 Build 1)  -->
  <defs>
    <style>
      .st0 {
        fill: #bf654e;
      }

      .st1 {
        fill: #fd7741;
      }

      .st2 {
        fill: none;
        stroke: #fff;
        stroke-miterlimit: 10;
        stroke-width: .2px;
      }

      .st3 {
        fill: #263238;
      }

      .st4 {
        fill: #455a64;
      }

      .st5 {
        fill: #d2d7da;
      }

      .st6 {
        fill: #c78976;
      }

      .st7 {
        opacity: .2;
      }

      .st8 {
        fill: #a2242d;
      }
    </style>
  </defs>
  <g>
    <path class="st3" d="M381.28,359.71c.07,0,.03.73-.12,2.09-.11,1.38-.46,3.37-1,5.93-1.13,5.1-3.56,12.39-8.42,20.45-4.92,7.96-12.44,16.67-23.08,23.25-10.55,6.66-24.29,10.55-38.69,10.18-14.4-.45-27.9-5.11-38.06-12.36-10.25-7.18-17.27-16.3-21.73-24.53-4.4-8.32-6.41-15.74-7.25-20.89-.4-2.59-.64-4.6-.66-5.98-.07-1.37-.08-2.09,0-2.1.22-.02.38,2.86,1.47,7.92,1.07,5.04,3.27,12.27,7.74,20.33,4.53,7.97,11.51,16.77,21.53,23.66,9.92,6.95,23.03,11.41,37.03,11.85,14,.35,27.33-3.36,37.63-9.74,10.39-6.31,17.86-14.7,22.83-22.4,4.92-7.79,7.53-14.89,8.88-19.86,1.37-4.99,1.69-7.86,1.91-7.83Z"/>
    <path class="st3" d="M136.95,518.17c.58,0,1.06,27.65,1.07,61.75.02,34.11-.44,61.76-1.01,61.76-.58,0-1.06-27.64-1.07-61.76-.02-34.1.44-61.75,1.01-61.75Z"/>
    <path class="st2" d="M136.54,794.28"/>
    <g>
      <path class="st3" d="M255.12,348.63l118.88.05s107.48,38.19,142.42,64.98c34.94,26.79,88.52,215.48,88.52,215.48l-107.34-3.17-8.99,236.99c-144.42,4.08-167.64,9.57-339.17.45l-11.66-224.77s-59.2-1.74-89.42-2.63c-30.22-.89-31.63-9.2-31.63-9.2,0,0,68.72-180.54,89.69-215.48,18.27-30.45,124.52-57.65,148.7-62.7"/>
      <g class="st7">
        <path d="M134.05,763.77c24.13,1.88,45.62-14.32,63.53-30.6,17.91-16.28,36.64-34.41,60.59-37.85,25.11-3.6,50.62,10,75.5,5.02,11.19-2.24,21.63-8.18,33.04-8.63,18.8-.74,34.57,13.25,48.1,26.32,17.59,17.01,35.19,34.01,52.78,51.02,5.39,5.21,15.66,13,22.41,9.76l1.31-26.31c-8.43-47.34-17.59-96.01-54.05-127.35-27.06-23.26-63.89-31.26-99.35-35.3-42.96-4.89-89.44-4.33-125.51,19.52-24.05,15.91-41.02,40.83-52.13,67.43-11.12,26.6-16.88,55.08-22.58,83.34"/>
      </g>
    </g>
    <g>
      <path class="st6" d="M596.17,628.88c1.04,6.24,18.35,106.22,15.23,125.98-3.12,19.76-8.32,45.77-31.2,55.13-22.88,9.36-56.17-3.12-74.89-35.37-18.72-32.25-99.86-145.62-99.86-145.62l-60.33-7.28v-100.9l115.46,73.5,53.05,48.14-4.06-16.14,86.6,2.56Z"/>
      <rect class="st4" x="266.54" y="467.2" width="118.15" height="191.39" rx="5.3" ry="5.3"/>
      <path class="st0" d="M455.5,591.76c.38-.43,25.48,21.26,56.05,48.45,30.58,27.19,55.05,49.58,54.67,50.01-.38.43-25.47-21.26-56.05-48.45-30.57-27.18-55.05-49.58-54.66-50.01Z"/>
      <g>
        <path class="st6" d="M32.44,634.54s-14.4,124.29-14.4,138.45,12.74,48.14,48.14,50.97c35.4,2.83,80.71-76.46,80.71-76.46l73.63-111.86-32.57-60.88-63.67,63.49-91.84-3.71Z"/>
        <path class="st6" d="M361.18,542l-95.35-2.64-77.88,35.4,32.57,60.88,56.98-8.3s33.34-5.43,35.4-7.48c3.84-3.82,7.18-15.64,9.48-25.9,2.34-10.45,1.17-21.37-3.36-31.07l-2.14-1.82s31.38-6.55,36.59-8.85c12.5-5.51,7.72-10.22,7.72-10.22Z"/>
        <path class="st0" d="M187.95,574.76c.1.1-1.22,1.7-3.71,4.52-2.48,2.82-6.17,6.82-10.78,11.71-9.22,9.78-22.27,22.97-36.84,37.38-14.41,14.29-27.45,27.21-37.26,36.93-4.54,4.53-8.31,8.31-11.25,11.24-2.67,2.64-4.19,4.06-4.3,3.96-.1-.1,1.22-1.7,3.71-4.52,2.48-2.82,6.17-6.82,10.78-11.71,9.22-9.78,22.27-22.98,36.85-37.38,14.41-14.28,27.44-27.2,37.25-36.92,4.54-4.53,8.32-8.31,11.25-11.24,2.67-2.64,4.19-4.06,4.3-3.96Z"/>
        <path class="st0" d="M281.91,570.3c-.38-.35,6.82-6.29,17.81-8.41,10.97-2.24,19.89.5,19.67.97-.09.64-8.81-1.07-19.27,1.08-10.49,2.01-17.88,6.93-18.22,6.37Z"/>
        <path class="st0" d="M324.79,580.93c-.2.61-7.65-2.35-17.15-1.41-9.52.78-16.32,5.03-16.62,4.46-.4-.35,6.3-5.68,16.44-6.54,10.12-.97,17.67,3.07,17.34,3.48Z"/>
        <path class="st1" d="M318.79,598.49c-.22.25-1.26-.46-3.06-1.11-1.79-.66-4.41-1.14-7.28-.76-2.87.4-5.27,1.55-6.82,2.66-1.56,1.1-2.39,2.06-2.66,1.88-.21-.12.19-1.43,1.7-3,1.48-1.56,4.2-3.16,7.5-3.61,3.3-.44,6.34.38,8.19,1.49,1.87,1.11,2.61,2.27,2.44,2.44Z"/>
      </g>
    </g>
    <g>
      <g>
        <g>
          <path class="st6" d="M318.08,408.48h0c31.61-1.82,56.21-28.15,55.92-59.8-.17-19.02-.39-35.32-.39-35.32,0,0,48.22-7.5,48.81-55.7.59-48.21-7.76-158.9-7.76-158.9h0c-55.8-23.98-120.22-15.89-168.35,21.16l-7.14,5.5,16.3,228.05c2.31,32.37,30.21,56.88,62.61,55.01Z"/>
          <path class="st0" d="M373.69,312.67s-30.47,2.48-62.85-17.86c0,0,14.86,34.69,62.96,30.35l-.11-12.49Z"/>
        </g>
        <g>
          <path class="st6" d="M245.11,175.35c-.82-.36-33.12-9.8-32.07,23.16,1.05,32.96,33.92,25.1,33.95,24.15.03-.95-1.88-47.32-1.88-47.32Z"/>
          <path class="st0" d="M236.52,210.5c-.15-.1-.56.42-1.52.9-.93.46-2.55.81-4.29.23-3.52-1.17-6.63-6.6-6.98-12.54-.18-3,.36-5.87,1.34-8.27.93-2.44,2.43-4.18,4.18-4.55,1.73-.46,3.01.55,3.44,1.47.47.91.28,1.57.46,1.62.1.08.69-.57.38-1.93-.16-.65-.57-1.42-1.36-2.02-.81-.62-1.99-.91-3.2-.74-2.54.26-4.75,2.67-5.83,5.3-1.23,2.65-1.9,5.88-1.7,9.25.42,6.63,4.02,12.74,8.83,13.97,2.34.53,4.25-.23,5.22-1.04.99-.85,1.14-1.59,1.03-1.64Z"/>
        </g>
        <g>
          <g>
            <g>
              <path class="st3" d="M398.85,180.06c.13,3.63-2.84,6.74-6.64,6.95-3.79.2-6.97-2.57-7.1-6.21-.13-3.63,2.84-6.75,6.63-6.95,3.79-.2,6.97,2.58,7.1,6.21Z"/>
              <path class="st3" d="M405.53,166.57c-.85.9-6.07-2.96-13.48-2.94-7.4-.09-12.84,3.72-13.64,2.82-.39-.4.48-2.02,2.84-3.75,2.33-1.72,6.3-3.39,10.92-3.37,4.61.03,8.5,1.72,10.73,3.46,2.28,1.75,3.05,3.37,2.63,3.77Z"/>
            </g>
            <g>
              <path class="st3" d="M324.61,180.9c.13,3.63-2.84,6.74-6.64,6.95-3.79.2-6.97-2.57-7.1-6.21-.13-3.63,2.84-6.75,6.63-6.95,3.79-.2,6.97,2.58,7.1,6.21Z"/>
              <path class="st3" d="M332.72,167.95c-.85.9-6.08-2.96-13.48-2.94-7.4-.09-12.84,3.72-13.64,2.82-.39-.4.47-2.02,2.84-3.74,2.33-1.72,6.3-3.39,10.92-3.37,4.62.03,8.5,1.72,10.73,3.46,2.27,1.75,3.05,3.37,2.63,3.77Z"/>
            </g>
            <path class="st3" d="M359.6,222.89c-.03-.42,4.57-1.22,12.03-2.17,1.89-.2,3.68-.57,4-1.86.45-1.37-.35-3.41-1.26-5.61-1.78-4.58-3.64-9.38-5.59-14.4-7.77-20.51-13.39-37.37-12.56-37.68.83-.31,7.8,16.07,15.57,36.58,1.87,5.06,3.66,9.88,5.36,14.49.72,2.15,1.95,4.59.98,7.42-.51,1.41-1.9,2.44-3.11,2.77-1.21.37-2.28.39-3.21.45-7.51.4-12.17.44-12.2.02Z"/>
            <path class="st3" d="M337.8,228.02c1.2-.07,1.22,7.97,8.1,13.68,6.87,5.73,15.44,4.82,15.51,5.95.11.5-1.91,1.56-5.53,1.66-3.55.12-8.73-1.02-12.94-4.51-4.2-3.5-6-8.17-6.28-11.47-.31-3.36.59-5.35,1.14-5.31Z"/>
          </g>
          <path class="st3" d="M334.63,138.92c-.73,2.01-8.13,1.06-16.82,2.11-8.71.87-15.72,3.42-16.87,1.61-.51-.86.71-2.76,3.54-4.71,2.81-1.95,7.29-3.8,12.51-4.38,5.22-.57,9.99.26,13.16,1.55,3.19,1.29,4.8,2.87,4.48,3.82Z"/>
          <path class="st3" d="M402.81,145.13c-1.3,1.68-6.41-.06-12.54-.15-6.13-.3-11.33,1.13-12.53-.63-.52-.85.29-2.54,2.57-4.13,2.24-1.59,5.98-2.88,10.2-2.76,4.22.13,7.87,1.66,10.01,3.38,2.17,1.73,2.88,3.46,2.31,4.28Z"/>
        </g>
      </g>
      <path class="st3" d="M438.14,68.32c.52-5.97-1.71-12.39-6.57-15.9-4.86-3.51-12.4-3.29-16.35,1.22,2.26-8.05-4.32-17.33-12.66-17.86-7.86-.5-14.57,5.44-22.16,7.52-7.42,2.03-15.37.27-22.51-2.6-7.13-2.87-13.8-6.84-21.02-9.48-15.06-5.5-32.29-4.81-46.87,1.88-14.58,6.69-26.33,19.3-31.98,34.32-10.54-3.29-22.52,2.06-29.02,10.99-6.5,8.93-8.17,20.66-6.87,31.63.87,7.41,3.02,14.58,5.51,21.63,0,.62-.06,1.23-.05,1.85.5,26.51,3.5,57.64,14.8,57.81,19.71.3,15.01-36.84,15.01-36.84,24.19-9.35,15.18-45.59,21.23-51.09,6.05-5.5,18.7-18.27,69.35,7.61,19.67,10.05,45.82,9.74,60.09,6.5.42-.09.84-.15,1.26-.26.09-.02.2-.04.29-.06.16-.04.27-.12.42-.17,4.55-1.19,8.94-2.95,12.99-5.51,4.59-2.9,8.76-6.83,10.7-11.9,1.94-5.07,1.21-11.4-2.76-15.09,3.74-4.69,6.66-10.24,7.18-16.22Z"/>
    </g>
  </g>
  <g>
    <path class="st8" d="M439.82,542.43l14.14-14.19-14.44-13.88-13.28,13.33c-.47.47-.46,1.23.02,1.7l13.57,13.04Z"/>
    <path class="st8" d="M477.77,542.02l-14.44-13.88,14.14-14.19,13.57,13.04c.48.46.49,1.22.02,1.7l-13.28,13.33Z"/>
    <path class="st8" d="M444.81,547.31l13.88-14.44,14.19,14.14-13.04,13.57c-.46.48-1.22.49-1.7.02l-13.33-13.28Z"/>
    <path class="st5" d="M472.48,509.06l-13.88,14.44-14.19-14.14,13.04-13.57c.46-.48,1.22-.49,1.7-.02l13.33,13.28Z"/>
  </g>
</svg>
