<?xml version="1.0" encoding="UTF-8"?>
<svg id="Capa_1" xmlns="http://www.w3.org/2000/svg" version="1.1" viewBox="0 0 341.65 674.82">
  <!-- Generator: Adobe Illustrator 30.2.1, SVG Export Plug-In . SVG Version: 2.1.1 Build 1)  -->
  <defs>
    <style>
      .st0 {
        opacity: .6;
      }

      .st1 {
        fill: #263238;
      }

      .st2 {
        fill: #c27460;
      }

      .st3 {
        fill: #fff;
      }

      .st4 {
        fill: #e0e0e0;
      }

      .st5 {
        fill: #455a64;
      }

      .st6 {
        fill: #bd1c38;
      }

      .st7 {
        fill: #7c4235;
      }

      .st8 {
        fill: #bd0043;
      }

      .st9 {
        fill: #f5f5f5;
      }
    </style>
  </defs>
  <g>
    <path class="st2" d="M286.72,130.54s-2.12,6.59-4.04,9.44c-1.93,2.85-4.08,3.54-5.01,8.38-.93,4.84-2.16,10-2.16,10,0,0-9.19,8.52-8.72,8.66.47.14,10.24,14.57,10.24,14.57l15.46-16.48,20.33-14.46,7.55-16.22-.81-1.22.68-3.13s-1.97-3.35-4.52-.48c0,0,.02-4.22-4.07-.97-4.09,3.25-11.28,11.39-11.89,11.56-.62.17-8.25,3.99-8.25,3.99l-3.88-.03s2.72-2.26,3.24-5.38c.52-3.12,2.32-5.19.38-7.46-1.93-2.27-4.53-.79-4.53-.79Z"/>
    <path class="st7" d="M287.61,154.76s.44-.23,1.19-.66c.77-.4,1.93-.91,3.44-1.36,3.02-.89,7.42-1.58,12.4-1.77h.12s.09-.08.09-.08c.7-.58,1.44-1.19,2.19-1.81.37-.3.73-.6,1.09-.9l.09-.07.02-.1c.43-1.87.84-3.68,1.23-5.38.17-.81.5-1.55,1.05-1.99.54-.45,1.32-.49,1.92-.3l-.18-.24c.53,5.32,1.2,8.77,1.41,8.72.05-.02-.12-.86-.26-2.39-.16-1.53-.36-3.72-.58-6.38v-.18s-.18-.06-.18-.06c-.79-.27-1.75-.23-2.5.35-.74.57-1.12,1.46-1.31,2.34-.4,1.7-.82,3.49-1.26,5.35l.11-.18c-.36.3-.72.6-1.09.9-.75.62-1.49,1.23-2.19,1.81l.21-.08c-5.05.22-9.47,1-12.52,2.03-1.52.51-2.68,1.11-3.43,1.58-.73.51-1.08.85-1.06.87Z"/>
    <path class="st7" d="M303.82,143.02c.15.12,2.86-2.83,6.07-6.59,3.21-3.76,5.69-6.91,5.54-7.04-.15-.12-2.86,2.83-6.07,6.59-3.21,3.76-5.69,6.91-5.54,7.04Z"/>
    <path class="st7" d="M313.56,139.89c.09.03.36-.46.74-1.26.39-.8.9-1.91,1.69-2.96.79-1.04,1.76-1.76,2.53-2.11.77-.36,1.33-.42,1.32-.53,0-.08-.59-.21-1.5.07-.9.26-2.05,1-2.91,2.15-.86,1.14-1.31,2.34-1.59,3.19-.27.86-.38,1.41-.29,1.44Z"/>
    <path class="st7" d="M298.49,142.17c-.04.21,2.2.46,4.3,2.1,2.13,1.59,2.97,3.69,3.16,3.6.08-.03-.01-.59-.43-1.42-.41-.82-1.19-1.87-2.31-2.73-1.13-.86-2.34-1.33-3.24-1.51-.9-.18-1.47-.12-1.48-.04Z"/>
  </g>
  <g>
    <g>
      <path class="st1" d="M155.35,581.23l-1.72,31.39s31.33,12.29,31.57,18.12l-60.98-1.15.67-49.01,30.45.66Z"/>
      <path class="st4" d="M134.83,609.62c-1.19.3-2.03,1.61-1.78,2.81.25,1.2,1.58,2.06,2.77,1.78,1.19-.28,2.25-1.82,1.86-2.98-.38-1.16-2-2.09-3.09-1.54"/>
      <path class="st5" d="M124.23,629.58l.26-4.94,58.37,2.95s2.69,1.23,2.35,3.14l-60.98-1.15Z"/>
      <path class="st3" d="M154.62,612.32c-.02.3-1.51.4-2.99,1.33-1.51.89-2.29,2.17-2.56,2.04-.27-.06.2-1.83,2.02-2.93,1.81-1.11,3.6-.72,3.53-.45Z"/>
      <path class="st3" d="M160.97,615.09c.06.29-1.24.77-2.27,2.01-1.07,1.21-1.35,2.57-1.65,2.55-.28.04-.45-1.71.86-3.22,1.3-1.53,3.06-1.62,3.06-1.34Z"/>
      <path class="st3" d="M164.46,622.81c-.27.06-.66-1.44.14-3.05.78-1.62,2.2-2.24,2.32-1.99.16.25-.76,1.11-1.39,2.44-.66,1.32-.77,2.58-1.07,2.6Z"/>
      <path class="st3" d="M154.22,605.13c-.13.27-1.49-.17-3.17-.08-1.69.05-3.01.59-3.16.33-.17-.22,1.13-1.3,3.12-1.37,1.98-.08,3.36.89,3.21,1.12Z"/>
    </g>
    <g>
      <path class="st1" d="M81.53,578.13l-3.3,37.89,6.03,30.72c.43,2.21-1.1,4.33-3.33,4.62h0c-1.25.16-2.5-.29-3.35-1.22-5.44-5.93-25.32-27.83-24.92-30.58.46-3.2.83-40.19.83-40.19l28.05-1.22Z"/>
      <path class="st5" d="M80.92,651.36l-28.11-34.37-.1,1.61c-.09,1.39.31,2.77,1.14,3.88,2.23,2.99,8.56,11.1,23.6,27.65.88.96,2.18,1.43,3.47,1.23h0Z"/>
      <g class="st0">
        <path class="st3" d="M61.38,605.24c.91.72,1.13,2.18.45,3.11-.68.94-2.16,1.17-3.08.47-.92-.7-1.24-2.44-.46-3.3.78-.86,2.54-1.04,3.26-.13"/>
      </g>
      <path class="st3" d="M73.31,634.22c.21.12,1.19-1.81,3.52-2.74,2.3-.99,4.36-.32,4.42-.56.04-.09-.42-.42-1.3-.6-.87-.19-2.16-.14-3.44.38-1.27.53-2.22,1.42-2.7,2.16-.49.75-.59,1.31-.5,1.35Z"/>
      <path class="st3" d="M75.68,639.47c.17.18,1.47-.98,3.47-1.42,1.99-.48,3.66,0,3.74-.24.12-.19-1.65-1.11-3.92-.57-2.28.51-3.47,2.12-3.28,2.23Z"/>
      <path class="st3" d="M68.69,627.38c.17.19,2.15-1.6,5.2-2.55,3.03-1,5.69-.7,5.71-.95.07-.2-2.71-.91-5.97.16-3.27,1.03-5.12,3.22-4.95,3.34Z"/>
      <path class="st3" d="M68.73,615.78c.09.23,2.24-.51,4.97-.43,2.74.04,4.86.87,4.95.64.12-.18-1.99-1.43-4.93-1.48-2.94-.07-5.1,1.08-4.99,1.27Z"/>
      <path class="st3" d="M69.42,604.63c.1.23,2.29-.9,5.17-.59,2.88.25,4.81,1.79,4.95,1.59.07-.07-.32-.58-1.16-1.14-.84-.56-2.16-1.12-3.71-1.28-1.55-.15-2.96.14-3.89.53-.94.39-1.41.8-1.36.89Z"/>
      <path class="st3" d="M74.66,601.92s.17-.5.14-1.43c-.03-.92-.2-2.29-.9-3.83-.36-.73-.73-1.67-1.76-2.23-.51-.29-1.3-.24-1.78.23-.48.46-.66,1.07-.71,1.68-.11,2.41,1.8,4.87,4.49,5.39,2.7.47,5.27-.92,6.48-2.93.27-.52.48-1.17.22-1.83-.25-.67-1-.97-1.55-.91-1.14.1-1.89.7-2.58,1.14-1.38.97-2.26,2.02-2.78,2.78-.53.77-.71,1.25-.67,1.27.13.11,1.08-1.8,3.77-3.57.68-.4,1.46-.91,2.28-.94.4-.01.73.17.85.49.13.32.02.79-.22,1.2-1.02,1.64-3.37,2.91-5.64,2.48-2.27-.42-3.95-2.58-3.88-4.52.02-.47.18-.93.45-1.19.26-.26.64-.31.98-.14.72.34,1.16,1.17,1.53,1.86,1.42,2.89,1.12,5.04,1.29,5.01Z"/>
    </g>
    <g>
      <path class="st1" d="M185.56,317.62s4.62,17.9,2.95,39.71c-.65,8.44-29.13,241.93-29.13,241.93h-38.45l10.81-219.45-3.15.68s-20.99,93.59-22.7,108.75c-1.54,13.62-19.24,112.57-19.24,112.57l-35.16.4,11.23-130.89,13.07-125.59,4.92-36.56,104.87,8.43Z"/>
      <path class="st1" d="M125.67,357.43s.54.38,1.6.9c1.07.5,2.63,1.27,4.76,1.67,1.06.19,2.27.25,3.54.03,1.26-.22,2.61-.76,3.7-1.78,1.09-1.02,1.8-2.45,2.25-3.93.45-1.49.71-3.05,1.03-4.63,1.23-6.33,2.06-12.12,2.54-16.31.24-2.1.4-3.8.49-4.98.09-1.18.1-1.83.05-1.84-.06,0-.18.64-.36,1.8-.2,1.34-.45,2.99-.75,4.94-.63,4.17-1.55,9.92-2.77,16.24-.62,3.12-1.04,6.3-2.99,8.16-1.95,1.83-4.66,2.02-6.64,1.73-2.05-.31-3.63-.98-4.73-1.39-1.1-.43-1.71-.67-1.73-.61Z"/>
      <path class="st1" d="M137.24,327.66s-.25-.2-.79-.23c-.54-.04-1.35.12-2.15.69-.77.57-1.59,1.58-1.62,2.97-.06,1.4,1.03,2.79,2.46,3.3,1.42.55,3.15.23,4.03-.87.89-1.07.94-2.37.73-3.3-.23-.96-.74-1.61-1.17-1.94-.43-.33-.74-.38-.75-.34-.11.11,1.08.65,1.35,2.39.12.82-.02,1.91-.73,2.7-.69.81-2,1.04-3.18.6-1.18-.44-2.01-1.48-2-2.54-.02-1.06.6-1.97,1.22-2.51,1.35-1.14,2.6-.76,2.59-.91Z"/>
      <path class="st1" d="M76.3,343.49c0,.06.46.13,1.31.2.85.09,2.08.11,3.61.04,3.04-.14,7.26-.87,11.58-2.68,4.31-1.82,7.79-4.33,10.01-6.41,1.12-1.04,1.96-1.94,2.49-2.61.54-.66.81-1.04.77-1.08-.11-.1-1.34,1.32-3.64,3.26-2.29,1.94-5.73,4.31-9.95,6.09-4.22,1.77-8.32,2.58-11.31,2.86-2.99.29-4.86.18-4.87.33Z"/>
    </g>
  </g>
  <g>
    <path class="st1" d="M117.83,54.5c1.34-2.72,4.56-4.38,7.56-3.89,3.45-2.85,8.92-2.86,12.37-.02,2.61-1.62,6.08-1.76,8.81-.35,2.73,1.41,4.63,4.31,4.82,7.38,3.06-.55,6.39,1.04,7.88,3.78,1.49,2.73,1.02,6.4-1.1,8.67,3.37,1.02,5.64,4.79,4.97,8.24-.67,3.45-4.2,6.1-7.7,5.77l-36.09-21.21c-2.21-2.08-2.85-5.64-1.51-8.36Z"/>
    <g>
      <g>
        <path class="st2" d="M156.5,85.07c-1.6-15.79-15.06-27.7-30.93-27.37l-1.58.03c-16.98,1.34-25.32,16.51-23.51,33.45l3.63,56.56,2.48,7.07,29.25,36.65,7.37-33.02.14-15.33s16.29-2.88,16.16-19.22c-.07-7.89-1.52-24.14-3.01-38.82Z"/>
        <path class="st7" d="M143.33,143.13s-10.27.79-21.38-5.88c0,0,5.25,11.69,21.37,9.93l.02-4.05Z"/>
        <path class="st1" d="M152.08,100.3c.07,1.23-.92,2.3-2.2,2.4-1.28.1-2.38-.82-2.45-2.05-.07-1.23.92-2.31,2.2-2.4,1.28-.1,2.38.82,2.45,2.06Z"/>
        <path class="st1" d="M153.35,93.96c-.28.31-2.08-.96-4.59-.9-2.51.02-4.33,1.35-4.6,1.05-.14-.13.15-.69.94-1.29.78-.6,2.11-1.19,3.68-1.22,1.56-.02,2.89.53,3.66,1.1.78.58,1.06,1.12.92,1.26Z"/>
        <path class="st1" d="M130.58,101.81c.07,1.23-.92,2.3-2.2,2.4-1.28.1-2.38-.82-2.45-2.05-.07-1.23.92-2.31,2.2-2.4,1.28-.1,2.38.82,2.45,2.06Z"/>
        <path class="st1" d="M129.32,94.1c-.28.31-2.08-.96-4.59-.9-2.51.02-4.32,1.35-4.6,1.05-.14-.13.14-.69.94-1.29.78-.6,2.11-1.19,3.68-1.22,1.56-.02,2.89.53,3.66,1.1.78.58,1.06,1.12.92,1.26Z"/>
        <path class="st1" d="M137.98,112.54c-.01-.14,1.54-.44,4.06-.82.64-.08,1.24-.22,1.34-.66.14-.47-.14-1.15-.47-1.89-.63-1.54-1.3-3.15-2-4.84-2.78-6.9-4.8-12.57-4.52-12.68.28-.11,2.76,5.39,5.53,12.29.67,1.7,1.31,3.32,1.92,4.87.26.72.69,1.54.38,2.51-.16.48-.63.84-1.03.96-.41.13-.77.15-1.09.17-2.54.19-4.12.23-4.13.09Z"/>
        <path class="st1" d="M129.21,86.93c-.29.66-2.46.12-5.09.21-2.63.04-4.8.69-5.09.05-.12-.31.3-.91,1.21-1.48.9-.57,2.3-1.07,3.88-1.11,1.58-.04,2.97.38,3.87.91.91.53,1.34,1.11,1.21,1.42Z"/>
        <path class="st1" d="M152.64,87.08c-.38.61-2.16.2-4.23.39-2.08.11-3.78.78-4.25.22-.21-.27.01-.87.72-1.48.7-.61,1.92-1.18,3.34-1.28,1.43-.1,2.71.29,3.49.79.79.51,1.09,1.07.93,1.36Z"/>
        <path class="st1" d="M154.77,77.6s-4.52-10.14-9.5-12.43c-6.03-2.77-8.47,3.84-14.19,2.37-5.73-1.47-11.48-4.13-17.21.39-6.27,4.95-3.22,8.27-3.46,15.52-.99,29.43-6.19,37.85-8,24.04-.2-1.51-4.43-2.63-5.19-9.03-.98-8.29-1.51-18.38.23-24.31,1.46-5,4.22-8.5,9.23-12.39,7.9-6.14,18.92-6.5,26.42-5.9,7.5.6,22.1,8.91,21.69,21.74Z"/>
        <path class="st2" d="M103.44,107.03c-.15-2.52-2.37-4.47-4.88-4.18-3.04.35-6.4,2.15-6.07,8.45.59,11.16,11.67,8.27,11.68,7.95,0-.22-.45-7.55-.73-12.22Z"/>
        <path class="st7" d="M101.52,115.17c-.05-.03-.19.15-.51.31-.31.16-.86.29-1.45.11-1.2-.37-2.29-2.19-2.45-4.2-.08-1.01.08-1.99.4-2.81.3-.83.8-1.43,1.38-1.57.58-.17,1.02.17,1.18.47.17.3.11.53.17.55.03.03.23-.2.12-.66-.06-.22-.2-.48-.48-.68-.28-.2-.68-.29-1.09-.23-.86.1-1.59.94-1.94,1.84-.4.91-.6,2.01-.51,3.15.19,2.25,1.45,4.29,3.09,4.67.8.16,1.44-.11,1.76-.39.33-.29.38-.55.34-.57Z"/>
      </g>
      <path class="st1" d="M103.21,85.38c1.47.96,3.02,1.95,4.78,2.09,1.75.14,3.73-.91,3.99-2.65.12-.78-.09-1.68.41-2.29.6-.73,1.73-.53,2.66-.45,3.25.28,6.53-2.09,7.3-5.26.85,1.22,2.79,1.13,4.02.3,1.24-.83,2.02-2.17,2.97-3.32.96-1.14,2.31-2.18,3.79-2,.83.1,1.61.58,2.44.48,1.46-.16,2.15-1.89,2.34-3.35.19-1.46.33-3.16,1.56-3.98,1.14-.76,2.64-.36,3.99-.19,1.35.17,3.09-.18,3.41-1.51.17-.7-.15-1.42-.54-2.02-1.8-2.7-5.61-3.84-8.6-2.56-1.17-3.67-4.68-6.47-8.52-6.8-3.84-.33-7.77,1.85-9.54,5.27-2.41-2.09-5.85-2.92-8.95-2.15-3.09.77-5.75,3.13-6.89,6.1-2.73-.66-5.81.46-7.48,2.71-1.68,2.26-1.85,5.52-.43,7.95-1.98,1.19-3.66,3.22-3.66,5.53,0,2.31,2.31,4.57,4.52,3.92-.86,1.82-.08,4.25,1.68,5.22s4.24.33,5.31-1.38"/>
    </g>
    <path class="st7" d="M131.84,116.67c-.23-.11-.5-.22-.74-.13-.22.09-.34.31-.43.52-.73,1.74-.49,3.86.63,5.39.01.02.02.03.03.05,1.66,2.21,5.15,1.69,6.31-.81l.87-1.88c-1.53-.72-5.15-2.43-6.68-3.15Z"/>
    <path class="st1" d="M137.04,122.62c.09.03-.74,1.15-2.77,1.39-.48.06-1.12-.02-1.64-.27-.53-.22-1.13-.56-1.55-1.12-.82-1.11-1.14-2.59-1.11-4.08.01-.38.02-.72.09-1.13.08-.38.2-.83.66-1.12.48-.29,1-.08,1.29.06.29.15.58.29.86.44,1.04.54,2.03,1.06,2.95,1.54,1.67.89,2.68,1.49,2.63,1.58-.04.09-1.14-.34-2.86-1.12-.94-.44-1.95-.9-3.02-1.4-.54-.23-1.26-.7-1.49-.49-.32.18-.38.97-.39,1.64-.03,1.38.27,2.73.92,3.66.32.45.78.75,1.26.97.48.25.9.32,1.36.31,1.83-.09,2.74-.97,2.8-.88Z"/>
    <path class="st5" d="M95.97,81.2s-.19.94.74,2.13c.46.56,1.23,1.14,2.27,1.29,1.01.15,2.24-.12,3.17-.99l-.47-.06c.57.95,1.32,1.91,2.29,2.74.62.53,1.31.97,2.06,1.22.74.28,1.57.29,2.25.16,1.41-.19,2.63-.97,3.19-1.92.58-.92.75-1.78.86-2.34.1-.57.11-.9.07-.9-.05,0-.14.3-.31.84-.18.54-.42,1.34-.99,2.15-1.03,1.62-4.46,2.51-6.71.3-.9-.77-1.62-1.68-2.18-2.57l-.2-.32-.27.26c-.75.73-1.8,1.01-2.68.91-.89-.09-1.59-.55-2.04-1.02-.92-1-.93-1.91-1.03-1.88Z"/>
    <path class="st5" d="M116.56,55.25s.29.07.8.27c.49.2,1.22.61,1.77,1.44l.14.21.15-.21c1.02-1.42,2.73-3.26,5.31-4.48,1.28-.6,2.78-1.03,4.38-1.06,1.59-.04,3.27.38,4.76,1.25,1.16.67,2.14,1.58,2.87,2.61.71,1.04,1.16,2.2,1.3,3.34l.04.35.34-.1c1.67-.5,3.39-.2,4.65.47,1.29.67,2.12,1.73,2.6,2.67.94,1.95.65,3.31.76,3.29.03,0,.11-.31.12-.92,0-.6-.09-1.5-.56-2.53-.45-1.02-1.31-2.18-2.68-2.95-1.35-.76-3.21-1.12-5.06-.6l.38.25c-.13-1.25-.61-2.51-1.37-3.64-.78-1.11-1.83-2.09-3.07-2.81-1.59-.93-3.4-1.38-5.1-1.32-1.7.05-3.28.52-4.61,1.17-2.68,1.33-4.39,3.29-5.36,4.8h.29c-.65-.89-1.46-1.26-1.99-1.42-.55-.15-.86-.12-.86-.1Z"/>
  </g>
  <path class="st9" d="M103.87,143.17l20.77,14.52,11.06,16.41,2.96-16.84,4.78-12.15,5.31,5.26,13.45,28.64,15.13,138.44s-26.39,7.73-40.06,8.67c-13.67.94-35.45-2.81-35.45-2.81v-72.84l-7.76-72.14,9.36-27.64.45-7.53Z"/>
  <path class="st1" d="M143.25,325.21s-.02-.13-.04-.39c-.01-.29-.03-.66-.06-1.14-.04-1.04-.09-2.51-.16-4.39-.13-3.84-.32-9.35-.54-16.13-.47-13.62-1.22-32.43-2.29-53.2-1.08-20.77-2.27-39.57-3.21-53.16-.47-6.77-.86-12.27-1.12-16.1-.13-1.87-.22-3.34-.29-4.38-.03-.48-.05-.85-.06-1.14-.01-.26-.01-.39,0-.39,0,0,.03.13.06.39.03.28.07.66.12,1.14.09,1.03.23,2.5.4,4.37.34,3.8.79,9.29,1.3,16.09,1.04,13.59,2.3,32.38,3.38,53.16,1.07,20.77,1.76,39.59,2.13,53.22.19,6.81.31,12.33.36,16.14.02,1.88.04,3.35.05,4.39,0,.48,0,.86,0,1.14,0,.26,0,.39-.02.39Z"/>
  <path class="st8" d="M99.98,153.01l-4.51,6.21-28.47,12.8c-6.51,7.74-10.46,15.82-11.7,24.27l26.63,58.51,3.04,16.42-20.21,85.99s27.1,9.21,29.31,6.44c.93-1.16,4.12-13.05,6.17-19.87,4.68-15.5,7.26-21.29,8.79-35.39,1.54-14.21,2.95-32.32,1.92-44.58-1.94-22.96-4.98-60.85-5.26-70.81-.28-9.96-2.07-45.63-2.07-45.63l-3.65,5.64Z"/>
  <path class="st8" d="M148.75,150.39l10.76,5.24,27.35,3.07,2.46,38.15,3.28,77.01,18.19,76.53s-21.71,11.72-26.97,9.78c-5.26-1.94-9.38-22.06-10.15-29.22-.92-8.56-15.16-75.18-15.16-75.18l-8.2-92.22-1.56-13.17Z"/>
  <path class="st8" d="M186.34,158.57l53.28,31.48h0l34.15-33.51,20.56,15.91-41.18,47.17c-5.26,5.06-16.38,4.81-22.1,2.79l-44.07-16.05-4.21-13.12,3.58-34.69Z"/>
  <path class="st8" d="M43.44,191.15s3.49,36.91,4.62,47.11c1.79,16.12,3.99,22.68,6.5,33.93,2.79,12.56,20.14,12.15,26.03,6.11,9.21-9.45,6.28-30.17,6.28-30.17l-16.93-59.54-26.49,2.57Z"/>
  <path class="st1" d="M135.24,173.52s-.39-.31-1.04-.94c-.7-.7-1.62-1.61-2.74-2.73-2.37-2.42-5.59-5.71-9.26-9.46h.4c-1.16,1.34-1.99,3.14-2.39,5.07-.21,1.01-.28,2.02-.23,2.97l.04.64-.49-.4c-4.69-3.8-8.48-7.52-11.32-10.07-1.41-1.28-2.55-2.3-3.34-3-.79-.7-1.23-1.08-1.2-1.11.02-.03.5.3,1.33.95.84.65,2.02,1.62,3.46,2.87,2.91,2.47,6.76,6.15,11.42,9.91l-.46.24c-.06-1.01.01-2.07.23-3.13.42-2.02,1.28-3.89,2.53-5.33l.2-.23.2.22c3.62,3.81,6.79,7.14,9.12,9.6,1.07,1.16,1.95,2.11,2.63,2.84.61.67.93,1.05.9,1.07Z"/>
  <path class="st1" d="M147.64,152.83s.05.31.04.87c0,.57-.03,1.39-.11,2.43-.16,2.07-.54,5.01-1.37,8.35l-.17.69-.32-.63c-.87-1.69-2.07-3.41-3.59-4.95-.41-.42-.83-.81-1.25-1.17l.46-.15c-1,4.47-2.29,8.34-3.35,11.06-.53,1.36-1,2.44-1.34,3.18-.34.73-.55,1.13-.58,1.11-.03-.02.11-.44.39-1.19.31-.86.71-1.94,1.17-3.23.97-2.75,2.18-6.61,3.16-11.05l.1-.46.36.31c.43.36.86.77,1.28,1.2,1.57,1.59,2.79,3.37,3.66,5.11l-.5.05c.87-3.3,1.31-6.2,1.56-8.25.25-2.06.33-3.27.39-3.27Z"/>
  <path class="st1" d="M241.6,205.62c-.24-.04.46-3.72-.15-8.21-.56-4.5-2.18-7.88-1.95-7.98.16-.11,2.15,3.21,2.74,7.88.62,4.66-.46,8.39-.64,8.32Z"/>
  <g>
    <g>
      <g>
        <rect class="st5" x="62.63" y="109.33" width="33.68" height="69.03" rx="5.11" ry="5.11" transform="translate(-31.82 22.92) rotate(-13.7)"/>
        <path class="st3" d="M75.7,177.83c-1.92.47-3.86-.71-4.32-2.63l-13.6-55.77c-.47-1.92.71-3.86,2.63-4.33l3.87-.94,1.55-.38,12.91-3.14,4.42-1.08c1.92-.47,3.86.71,4.32,2.63l13.6,55.77c.47,1.92-.71,3.86-2.63,4.33"/>
      </g>
      <path class="st5" d="M57.54,122.2h.47c.22,0,.39.18.39.39v6.85c0,.22-.18.39-.39.39h-.47c-.22,0-.39-.18-.39-.39v-6.85c0-.22.18-.39.39-.39Z" transform="translate(-28.33 17.37) rotate(-13.77)"/>
      <path class="st5" d="M59.68,130.97h.47c.22,0,.39.18.39.39v6.85c0,.22-.18.39-.39.39h-.47c-.22,0-.39-.18-.39-.39v-6.85c0-.22.18-.39.39-.39Z" transform="translate(-30.06 17.91) rotate(-13.62)"/>
      <rect class="st5" x="92.01" y="120.2" width="1.26" height="13.2" rx=".39" ry=".39" transform="translate(-27.49 25.66) rotate(-13.75)"/>
    </g>
    <path class="st2" d="M75.62,164.53l-4.71-6.68-6.87-4.51s-2.6-1.87-3.86-2.13c-1.26-.26-12.21,5.23-12.21,5.23-3.21.58-3.89,3.54-3.89,3.54-3.78,3.62-.85,7.59-.85,7.59l1.16,5.51,4.14,14.35.38,3.1,16.36-1.59-1.23-4.93c3.29-3.46,3.43-11.06,3.43-11.06,2.31-2.21,1.18-4.76,1.18-4.76,1.21-1.07.49-3.65.49-3.65,2.17,2.1,4.73,1.67,6.08,1.21.5-.17.71-.77.4-1.2Z"/>
    <path class="st7" d="M49.44,167.82s.19-.06.55-.12c.4-.08.92-.19,1.57-.32,1.36-.29,3.31-.78,5.71-1.45.3-.08.61-.17.92-.26.31-.08.65-.19,1.01-.21.72-.05,1.48.17,2.09.66,1.11.97,2.29,2,3.53,3.09.31.28.62.55.93.85.08.08.15.15.23.24.03.03.09.12.12.17l.07.16c.1.2.16.42.22.64.21.9.06,1.83-.19,2.71-.26.88-.64,1.72-1.02,2.57-.2.43-.41.87-.78,1.24-.37.38-.97.57-1.5.4-.43-.12-.77-.42-.99-.78-.21-.37-.31-.77-.32-1.17-.02-.81.26-1.53.52-2.21l.1.26c-1.34-.69-2.51-1.59-3.47-2.62h.28c-1.14,1.08-2.75,1.45-4.12,1.14l.15-.32c.6.47.85,1.26.68,1.95-.18.69-.74,1.21-1.38,1.37v-.32c1.65.28,3.01,1.1,3.95,2.04.95.94,1.49,2.01,1.77,2.9.29.9.34,1.64.34,2.13,0,.25-.01.44-.03.56-.01.13-.03.19-.03.19-.07,0,.14-1.08-.45-2.83-.3-.86-.84-1.88-1.78-2.77-.92-.89-2.25-1.65-3.83-1.9l-.79-.13.78-.2c.52-.13.98-.58,1.12-1.13.14-.55-.08-1.21-.56-1.57l-.67-.51.83.18c1.25.28,2.74-.07,3.76-1.05l.14-.14.14.15c.93.99,2.07,1.87,3.37,2.53l.16.08-.07.17c-.26.67-.51,1.35-.49,2.05.01.68.36,1.39,1.01,1.57.39.12.81,0,1.1-.3.3-.3.51-.7.7-1.11.38-.84.76-1.67,1.01-2.51.25-.84.38-1.7.2-2.5-.05-.2-.1-.39-.19-.57l-.06-.14s-.03-.04-.07-.09c-.06-.07-.14-.15-.21-.22-.29-.29-.6-.57-.91-.85-1.23-1.09-2.39-2.13-3.48-3.11-.54-.44-1.22-.64-1.86-.61-.32,0-.62.1-.95.18-.32.08-.62.16-.93.24-2.41.64-4.38,1.09-5.76,1.33-.69.12-1.23.2-1.59.24-.37.04-.56.06-.56.04Z"/>
    <path class="st7" d="M68.62,168.74c-.06.04-.71-.99-1.6-2.72-.46-.85-1-1.88-1.8-2.85-.79-.96-1.89-1.91-3.28-2.26-1.39-.34-2.8-.01-4.04.26-1.23.28-2.35.53-3.33.75-.95.21-1.72.37-2.26.47s-.83.15-.84.12c0-.03.28-.12.8-.28.52-.15,1.28-.36,2.22-.6.98-.25,2.09-.53,3.31-.84,1.24-.29,2.7-.66,4.23-.29,1.52.38,2.67,1.41,3.48,2.42.82,1.03,1.34,2.09,1.77,2.96.39.81.72,1.5.99,2.08.24.49.37.76.35.77Z"/>
    <path class="st7" d="M69.33,165.35c-.07.03-.47-1.36-1.58-3.37-.55-1.01-1.29-2.16-2.26-3.32-.49-.58-1.01-1.19-1.61-1.72-.6-.54-1.34-.91-2.19-.89-.84,0-1.69.21-2.5.34-.81.15-1.6.31-2.34.48-1.49.33-2.82.67-3.93.97-1.11.3-2.01.57-2.62.76-.62.18-.96.28-.97.25,0-.03.32-.17.92-.4.6-.23,1.49-.54,2.59-.88,1.11-.34,2.43-.71,3.92-1.07.75-.18,1.53-.34,2.35-.5.82-.14,1.66-.35,2.58-.36.46,0,.93.08,1.35.27.42.18.78.45,1.11.73.64.57,1.15,1.19,1.64,1.79.96,1.2,1.7,2.39,2.22,3.43.53,1.03.86,1.92,1.06,2.53.2.62.27.97.25.98Z"/>
  </g>
  <path class="st1" d="M71.75,282.31c-.03-.14,1.89,0,4.87-1.35,1.45-.73,3.1-1.9,4.58-3.68,1.5-1.76,2.79-4.1,3.76-6.85.91-2.75,1.69-5.95,1.22-9.32-.49-3.42-1.04-7.08-1.73-10.91-1.34-7.67-3.05-16.05-5.04-24.82-3.13-13.83-6.43-26.54-9.2-36.76l.34.23c-8.17.74-14.93,1.34-19.72,1.78-2.3.19-4.13.33-5.46.44-.58.04-1.06.07-1.43.09-.32.02-.49.02-.49,0,0-.02.16-.05.48-.1.38-.05.85-.11,1.43-.19,1.33-.15,3.15-.36,5.45-.62,4.79-.5,11.53-1.2,19.69-2.05l.27-.03.07.26c2.87,10.2,6.22,22.91,9.36,36.76,1.99,8.77,3.69,17.18,4.99,24.87.66,3.84,1.19,7.51,1.66,10.95.46,3.54-.38,6.81-1.34,9.6-1.02,2.79-2.38,5.17-3.95,6.95-1.55,1.8-3.28,2.97-4.79,3.67-1.54.65-2.81.93-3.68,1-.87.07-1.32.1-1.33.07Z"/>
  <rect class="st8" x="76.26" y="149.67" width="11.68" height="3.41" rx=".97" ry=".97" transform="translate(-33.55 23.79) rotate(-13.72)"/>
  <g>
    <rect class="st3" x="160.86" y="197.54" width="21.74" height="9.11" transform="translate(-12.35 11.19) rotate(-3.6)"/>
    <path class="st1" d="M182.87,205.96s-.14-.94-.29-2.52c-.15-1.69-.34-3.9-.57-6.56l.3.26c-5.56.42-13.22.95-21.69,1.48-.33.38.45-.51.37-.42h0s0,0,0,0h0s0,.03,0,.03v.04s0,.07,0,.07v.15s.03.3.03.3l.04.59.07,1.18c.05.78.1,1.55.14,2.31.09,1.52.18,3,.26,4.42l-.4-.35c6.22-.37,11.59-.62,15.45-.79,1.84-.07,3.36-.13,4.56-.18,1.08-.03,1.68-.04,1.71-.01s-.5.09-1.53.19c-1.17.1-2.65.23-4.46.39-3.83.32-9.31.74-15.69,1.17l-.38.03-.02-.38c-.09-1.42-.19-2.89-.29-4.41-.05-.76-.1-1.53-.15-2.31l-.07-1.18-.04-.59-.02-.3v-.15s-.01-.07-.01-.07v-.04s0-.02,0-.02h0s0-.01,0-.01h0c-.08.09.7-.8.37-.42,8.47-.53,16.14-.97,21.7-1.25h.28s.01.26.01.26c.15,2.88.22,5.19.27,6.75.05,1.57.06,2.4.02,2.36Z"/>
  </g>
  <path class="st1" d="M187.8,179.11s.07.3.13.89c.05.67.12,1.52.21,2.56.15,2.33.36,5.53.61,9.43.44,8.06,1.05,19.02,1.71,31.12.58,12.11,1.1,23.08,1.48,31.14.15,3.91.27,7.1.36,9.44.02,1.04.04,1.89.06,2.57,0,.59,0,.9-.03.9-.03,0-.07-.31-.13-.89-.05-.67-.12-1.52-.21-2.56-.15-2.33-.36-5.53-.61-9.43-.44-8.06-1.05-19.02-1.71-31.12-.58-12.11-1.1-23.07-1.48-31.13-.15-3.91-.27-7.11-.36-9.44-.02-1.05-.04-1.9-.06-2.57,0-.59,0-.9.03-.9Z"/>
  <path class="st1" d="M79.74,196.63c.05,0,.2.87.42,2.45.22,1.72.5,3.99.85,6.72.68,5.68,1.57,13.54,2.5,22.22.93,8.69,1.73,16.55,2.27,22.25.24,2.75.44,5.02.6,6.75.12,1.6.17,2.48.11,2.49-.05,0-.2-.87-.42-2.46-.22-1.72-.5-3.99-.85-6.73-.68-5.68-1.57-13.54-2.5-22.22-.93-8.68-1.73-16.54-2.27-22.24-.24-2.75-.44-5.02-.6-6.75-.12-1.6-.17-2.48-.11-2.49Z"/>
  <g>
    <path class="st6" d="M71.68,121.98h6.88v7.16h-7.16v-6.88c0-.16.13-.28.28-.28Z" transform="translate(73.17 -20.67) rotate(30.14)"/>
    <path class="st6" d="M65.95,131.36h7.16v7.16h-6.88c-.16,0-.28-.13-.28-.28v-6.88h0Z" transform="translate(77.15 -16.67) rotate(30.14)"/>
    <path class="st6" d="M80.77,127.42h6.88c.16,0,.28.13.28.28v6.88h-7.16v-7.16h0Z" transform="translate(77.17 -24.64) rotate(30.14)"/>
    <path class="st6" d="M75.33,136.8h7.16v6.88c0,.16-.13.28-.28.28h-6.88v-7.16h0Z" transform="translate(81.15 -20.64) rotate(30.14)"/>
  </g>
</svg>
