<?xml version="1.0" encoding="UTF-8"?>
<svg id="Capa_1" xmlns="http://www.w3.org/2000/svg" version="1.1" viewBox="0 0 900 539.22">
  <!-- Generator: Adobe Illustrator 30.2.1, SVG Export Plug-In . SVG Version: 2.1.1 Build 1)  -->
  <defs>
    <style>
      .st0, .st1 {
        fill: #fff;
      }

      .st0, .st2 {
        opacity: .2;
      }

      .st3 {
        fill: #9f548b;
      }

      .st4 {
        fill: #ffae66;
      }

      .st5 {
        fill: #2d488b;
      }

      .st6 {
        fill: #37bffa;
      }

      .st7 {
        fill: #19d3bb;
      }

      .st8 {
        fill: #974782;
      }

      .st9 {
        fill: #3ec1fa;
      }

      .st10 {
        stroke: #f74f4c;
      }

      .st10, .st11, .st12, .st13, .st14 {
        fill: none;
      }

      .st10, .st11, .st14 {
        stroke-linecap: round;
        stroke-linejoin: round;
      }

      .st10, .st14 {
        stroke-width: 1.3px;
      }

      .st15 {
        opacity: .4;
      }

      .st11 {
        stroke: #ff8037;
        stroke-width: .97px;
      }

      .st16 {
        fill: #39c0fa;
      }

      .st17 {
        fill: #166f67;
      }

      .st18 {
        fill: #294388;
      }

      .st19 {
        fill: #12d2b8;
      }

      .st12 {
        stroke-width: .18px;
      }

      .st12, .st13 {
        stroke: #974782;
        stroke-miterlimit: 10;
      }

      .st20 {
        fill: #ff8273;
      }

      .st21 {
        fill: #3d5593;
      }

      .st22 {
        fill: #ffbdb6;
      }

      .st23 {
        fill: #ccc;
      }

      .st24 {
        fill: #cd7a63;
      }

      .st25 {
        opacity: .1;
      }

      .st26 {
        fill: #b94d3c;
      }

      .st13 {
        stroke-width: .18px;
      }

      .st27 {
        fill: #fcbb49;
      }

      .st14 {
        stroke: #ff4f4d;
      }

      .st28 {
        fill: #38c0fa;
      }
    </style>
  </defs>
  <g>
    <path class="st23" d="M610.41,207.28c-.48-1.4-1.51-3.81-3.7-6.12-1.9-2.01-3.9-3.12-5.18-3.71-55.43.06-110.87.12-166.3.19-1.34.37-4.76,1.51-7.41,4.82-1.56,1.96-2.26,3.93-2.59,5.19-.78,99.97-1.07,163.13-.19,165.85.74,2.26,1.9,3.88,3.15,5.19,2.69,2.84,5.92,3.87,7.59,4.27,77.16.42,163.55.5,165.01,0,2.85-.98,4.67-2.68,5.56-3.52,0,0,2.89-2.29,4.08-5.75.24-.69.04-87.11,0-166.41ZM608.01,371.4c-1.16,3.37-3.97,5.59-3.97,5.59-.87.83-2.64,2.47-5.41,3.43-1.42.49-85.59.41-160.76,0-1.63-.39-4.78-1.38-7.4-4.15-1.21-1.28-2.35-2.85-3.07-5.05-.86-2.65-.58-64.07.18-161.3.32-1.23,1-3.15,2.53-5.05,2.58-3.23,5.91-4.33,7.22-4.69,54.01-.06,108.01-.12,162.02-.18,1.25.57,3.2,1.66,5.05,3.61,2.13,2.25,3.14,4.59,3.61,5.96.03,77.12.23,161.17,0,161.84Z"/>
    <path class="st1" d="M608.01,371.4c-1.16,3.37-3.97,5.59-3.97,5.59-.87.83-2.64,2.47-5.41,3.43-1.42.49-85.59.41-160.76,0-1.63-.39-4.78-1.38-7.4-4.15-1.21-1.28-2.35-2.85-3.07-5.05-.86-2.65-.58-64.07.18-161.3.32-1.23,1-3.15,2.53-5.05,2.58-3.23,5.91-4.33,7.22-4.69,54.01-.06,108.01-.12,162.02-.18,1.25.57,3.2,1.66,5.05,3.61,2.13,2.25,3.14,4.59,3.61,5.96.03,77.12.23,161.17,0,161.84Z"/>
    <path class="st16" d="M576.72,320.82c-11.06,21.5-33.46,36.2-59.3,36.2s-49.57-16.7-59.95-37.49c-1.65-3.31-2.7-6.2-3.34-8.16-.45-1.49-1.33-5.24.54-8.67.48-.88,1.45-1.98,3.09-3.33,8.68-7.13,22.35-3.56,33.28-.55,7.26,2,10.53,3.72,22.37,8.91,1.69.74,3.32,1.45,4.9,2.13h0c30.09,12.96,40.05,14.87,50.2,13.15,3.23-.55,6-1.38,8.2-2.2Z"/>
    <path class="st17" d="M517.38,270.59c-30.51,13.48-55.04,17.14-61.6,7.88-1.27-1.8-2.2-4.54-1.64-8.91.48-1.53,1.06-3.15,1.76-4.85.92-2.24,1.91-4.26,2.89-6.04,3.72-.57,9.03-1.13,15.35-.93,16.64.53,25.83,5.89,43.24,12.85Z"/>
    <path class="st7" d="M560.33,284.83c-4.56.06-8.48-.75-39.1-12.73-3.22-1.26-2.56-.99-3.86-1.51-17.41-6.96-26.6-12.32-43.24-12.85-6.32-.2-11.63.36-15.35.93,8.2-15.13,22.09-26.73,38.8-31.93,3.22-1,10.43-3.03,19.83-3,20.86.05,35.55,10.04,40.55,13.82,3.99,3.01,12.7,10.29,18.55,22.37,2.82,5.83,5.87,12.1,3.27,17.28-3.73,7.44-16.61,7.6-19.46,7.64Z"/>
    <path class="st13" d="M577.25,327.02"/>
    <path class="st18" d="M581.36,309.22h0c-1.19,4.04-2.75,7.92-4.64,11.6-2.2.81-4.97,1.65-8.2,2.2-10.16,1.72-20.12-.19-50.2-13.15,5.81-3.86,14.65-8.67,26.2-11.22,6.7-1.48,29.82-6.58,35.64,3.46,1.23,2.11,1.5,4.58,1.21,7.12Z"/>
  </g>
  <g>
    <g>
      <path class="st23" d="M780.91,212.97c-.79-1.29-2.34-3.47-5.03-5.3-2.34-1.59-4.57-2.26-5.98-2.57-55.3,12.16-110.59,24.32-165.89,36.49-1.25.66-4.42,2.54-6.34,6.43-1.13,2.29-1.4,4.42-1.45,5.75,21.04,99.91,34.54,162.99,36.02,165.51,1.23,2.09,2.75,3.45,4.28,4.49,3.31,2.25,6.75,2.57,8.51,2.6,77.07-16.43,163.28-35.2,164.63-36.02,2.63-1.6,4.07-3.69,4.77-4.73,0,0,2.38-2.91,2.81-6.63.09-.74-18.98-86.92-36.32-166.03ZM814.35,377.24c-.42,3.61-2.74,6.45-2.74,6.45-.69,1.01-2.09,3.05-4.65,4.6-1.31.8-85.3,19.09-160.39,35.09-1.71-.03-5.07-.34-8.29-2.53-1.49-1.01-2.97-2.33-4.16-4.37-1.44-2.45-14.57-63.8-35.03-160.97.05-1.29.31-3.36,1.42-5.59,1.87-3.78,4.95-5.61,6.18-6.26,53.87-11.85,107.74-23.7,161.61-35.55,1.38.3,3.55.95,5.83,2.5,2.62,1.78,4.13,3.89,4.9,5.15,16.87,76.93,35.41,160.76,35.33,161.47Z"/>
      <path class="st1" d="M814.35,377.24c-.42,3.61-2.74,6.45-2.74,6.45-.69,1.01-2.09,3.05-4.65,4.6-1.31.8-85.3,19.09-160.39,35.09-1.71-.03-5.07-.34-8.29-2.53-1.49-1.01-2.97-2.33-4.16-4.37-1.44-2.45-14.57-63.8-35.03-160.97.05-1.29.31-3.36,1.42-5.59,1.87-3.78,4.95-5.61,6.18-6.26,53.87-11.85,107.74-23.7,161.61-35.55,1.38.3,3.55.95,5.83,2.5,2.62,1.78,4.13,3.89,4.9,5.15,16.87,76.93,35.41,160.76,35.33,161.47Z"/>
    </g>
    <g>
      <polygon class="st5" points="734.61 251.61 707.36 356.22 702.58 374.59 671.95 352.81 671.29 352.34 734.61 251.61"/>
      <path class="st28" d="M671.29,352.34l.66.47c-7.71-.76-15.54-1.55-23.31-2.36-2.8.11-5.37-1.55-6.41-4.11-.99-2.44-.41-5.28,1.47-7.17,27.81-28.71,55.63-57.42,83.44-86.13.26-.21,3.49-2.7,7.48-1.45l-63.32,100.74Z"/>
      <path class="st8" d="M739.61,256.21l21.71,99.25c.33,3.08-.78,4.15-1.12,4.43-.75.62-2.28.58-5.31.5-1.82-.05-21.38-1.73-47.53-4.17l27.25-104.61c3.47,1.09,4.82,4.17,5,4.61Z"/>
    </g>
  </g>
  <g>
    <path class="st15" d="M749.59,380.65l-2.37-28.07c-.98-9.77-2.69-16.12,3.91-15.63s12.21,7.82,14.66,17.1l2.97,26.6"/>
    <path class="st15" d="M778.35,380.65c-.32-8,1.11-50.78,1.11-50.78,0-10.5-5.62-40.79-4.4-55.45,1.22-14.66,5.13-22.23,10.75-21.74,5.62.49,8.06,12.21,8.06,12.21,0,0,3.42-.98,6.35,5.13,2.93,6.11,9.28,21.25,9.28,21.25,0,0,10.11,45.5,8.93,89.38h-40.09Z"/>
    <g>
      <path class="st24" d="M805.2,529.21s-4.24-64.51-12.44-69.36c-1.43-.85-26.49-22.75-33.57-46.2-7.08-23.45-4.15-51.3-5.13-61.07-.98-9.77-2.69-16.12,3.91-15.63s12.21,7.82,14.66,17.1c2.44,9.28.73,29.8,3.91,33.71,3.18,3.91,5.37,1.47,5.37.73s4.4-48.12,4.4-58.62-5.62-40.79-4.4-55.45c1.22-14.66,5.13-22.23,10.75-21.74,5.62.49,8.06,12.21,8.06,12.21,0,0,3.42-.98,6.35,5.13,2.93,6.11,9.28,21.25,9.28,21.25,0,0,.73-11.72,5.86-12.21,5.13-.49,7.82,5.37,9.77,12.46,1.95,7.08,5.13,18.08,6.84,26.62,1.71,8.55,3.42,22.47,3.42,22.47,0,0,1.71-23.2,3.42-27.11,1.71-3.91,7.82-7.33,9.53-3.91,1.71,3.42-1.71,42.26-1.71,49.59s-7.82,64-4.89,76.7c2.93,12.7,31.01,93.34,31.01,93.34h-74.4Z"/>
      <path class="st26" d="M810.54,354.19c.89-12.58,1.76-25.26.07-37.82-1.47-10.93-4.55-21.6-6.54-32.44-1.21-6.6-2.03-13.25-2.31-19.95-.05-1.25-2-1.26-1.95,0,.47,11.43,2.68,22.6,5.14,33.74,1.19,5.4,2.43,10.81,3.35,16.27,1.04,6.21,1.36,12.52,1.33,18.81-.03,7.14-.53,14.26-1.03,21.38-.09,1.25,1.86,1.25,1.95,0h0Z"/>
      <path class="st26" d="M815.83,290.81c3.7,7.89,7.37,16.03,9.72,24.44,1.11,3.97,1.14,8.03,1.22,12.12.11,5.52.09,11.04.05,16.57-.03,3.42-.07,6.84-.14,10.26-.02,1.25,1.92,1.25,1.95,0,.16-8.4.24-16.81.12-25.22-.06-4.19.06-8.57-.91-12.67-1.26-5.35-3.42-10.53-5.53-15.59-1.53-3.66-3.11-7.3-4.79-10.89-.53-1.13-2.21-.15-1.68.98h0Z"/>
      <path class="st26" d="M841.43,337.29c-.72,8.09-.09,16.27-.08,24.38,0,1.25,1.95,1.26,1.95,0,0-8.11-.64-16.28.08-24.38.11-1.25-1.84-1.24-1.95,0h0Z"/>
    </g>
  </g>
  <g>
    <path class="st15" d="M459.67,242.4s7.07,5.92,12.88-.59c0,0,15.32,11.24,24.6,6.58,0,0,18.43,5.41,25.7-1.54l2.73-5.05s11.71,1.58,14.34-9.25c1.47-6.05-5.71-16.45-10.05-20.73,0,0,2.92-6.74,2.52-6.74-.91,0-74.99.88-74.99.88l2.27,36.43Z"/>
    <path class="st20" d="M567.59,143.71c-1.91.96-73.25-9.2-86.65-2.5-13.4,6.7-36.17,43.46-36.65,54.94-.48,11.48,10.81,43.62,11.29,45.53.48,1.91,9.9,2.15,12.44-10.53.48-2.39.96-9.09.96-9.09,0,0,16.75,32.06,32.53,17.7,0,0,7.64,8.83,13.63,3.7,5.99-5.13,4.55-7.53,4.55-7.53,0,0,11.48,3.35,11.96-6.22.48-9.57-7.66-16.75-7.66-16.75l8.61-12.92s45.22,7.97,57.41-.48c8.97-6.21,9.09-9.57,9.09-9.57L693.84,10.68h-79.4l-46.85,133.03Z"/>
    <path class="st14" d="M519.45,234.73c-3.54-2.25-7.11-4.53-10.06-7.5-2.96-2.97-7.49-9.97-7.98-14.13-.86-7.41,8-18.73,11.43-24.16"/>
    <path class="st14" d="M503.66,241.81c-4.85-3.93-7.43-6.84-11.87-12.1-2.75-3.26-5.84-7.55-8.32-11.67-3.02-5.02-4.82-10.8-2.5-16.19,2.32-5.38,14.28-26.49,14.28-26.49"/>
    <path class="st14" d="M475.98,232.56c-5.28-6.26-10.68-17.49-13.44-26.1-1.94-6.05,9.92-28.42,15.29-37.37"/>
    <path class="st14" d="M532.39,200.96c3.17-2.14,5.78-5.09,7.53-8.49"/>
  </g>
  <g>
    <g>
      <path class="st23" d="M278.19,159.41c-.74-1.34-2.23-3.62-4.88-5.58-2.3-1.71-4.54-2.49-5.96-2.86-56.57,9.98-113.13,19.96-169.7,29.94-1.3.61-4.59,2.39-6.7,6.25-1.24,2.28-1.6,4.42-1.72,5.76,17.09,102.17,28.09,166.69,29.48,169.3,1.16,2.18,2.64,3.62,4.14,4.74,3.26,2.42,6.74,2.89,8.51,3,78.82-13.38,167.01-28.74,168.41-29.52,2.73-1.51,4.28-3.57,5.04-4.59,0,0,2.54-2.85,3.13-6.6.12-.75-15.55-88.92-29.77-169.84ZM305.11,327.35c-.58,3.64-3.05,6.42-3.05,6.42-.74,1-2.25,3-4.91,4.47-1.36.75-87.28,15.72-164.07,28.76-1.73-.1-5.12-.56-8.29-2.91-1.47-1.09-2.91-2.49-4.03-4.61-1.35-2.55-12.05-65.29-28.67-164.66.11-1.31.46-3.39,1.67-5.61,2.05-3.75,5.26-5.48,6.53-6.08,55.11-9.72,110.22-19.45,165.33-29.17,1.38.36,3.56,1.12,5.8,2.78,2.58,1.91,4.02,4.12,4.75,5.43,13.83,78.7,29.07,164.46,28.95,165.18Z"/>
      <path class="st1" d="M305.11,327.35c-.58,3.64-3.05,6.42-3.05,6.42-.74,1-2.25,3-4.91,4.47-1.36.75-87.28,15.72-164.07,28.76-1.73-.1-5.12-.56-8.29-2.91-1.47-1.09-2.91-2.49-4.03-4.61-1.35-2.55-12.05-65.29-28.67-164.66.11-1.31.46-3.39,1.67-5.61,2.05-3.75,5.26-5.48,6.53-6.08,55.11-9.72,110.22-19.45,165.33-29.17,1.38.36,3.56,1.12,5.8,2.78,2.58,1.91,4.02,4.12,4.75,5.43,13.83,78.7,29.07,164.46,28.95,165.18Z"/>
      <g>
        <path class="st3" d="M193.26,207.39l18.77,107.09c-.15.32-1.47,3.09-4.6,3.77-2.57.56-4.82-.62-6.06-1.81-.45-.44-1.19-3.34-2.18-8.23-3.15-15.62-8.81-51.54-15.57-92.16-.38-2.31-.77-4.63-1.16-6.97.15-2.61,2.09-4.78,4.63-5.21,2.6-.45,5.2,1.02,6.16,3.51Z"/>
        <path class="st27" d="M183.63,216.06l-54.23,9.51c-.71.23-3.19,1.11-4.89,3.73-1.71,2.63-1.51,5.28-1.43,6.01l13.46,76.82c.37.83,1.15,2.3,2.72,3.54,2.57,2.03,5.44,2,6.27,1.96l53.66-9.41c-3.15-15.62-8.81-51.54-15.57-92.16ZM181.99,283.3c-2.26,2.26-5.31,1.57-5.47,1.53-9.34-3.46-18.69-6.93-28.03-10.39-.2-.1-2.67-1.38-3.04-4.25-.35-2.7,1.47-4.5,1.66-4.69,7.35-6.45,14.7-12.91,22.05-19.36.19-.13,2.97-1.97,6-.67,2.26.97,3.12,3.02,3.28,3.44l5.07,28.95c.04.17.7,3.19-1.53,5.43Z"/>
        <path class="st19" d="M271.46,287.37l-13.31-75.96c-.09-.51-.74-3.72-3.86-5.64-3.07-1.89-6.19-1.07-6.69-.93l-53.16,9.32,16.14,92.06,55.03-9.65c.65-.15,2.87-.76,4.47-2.89,2.06-2.74,1.48-5.83,1.38-6.32ZM247.44,257.29c-7.61,6.44-15.22,12.87-22.82,19.3-.14.09-2.78,1.78-5.67.42-2.87-1.35-3.27-4.41-3.29-4.59l-5.07-28.95c.01-.45.12-2.67,1.92-4.35,2.41-2.26,5.65-1.47,5.87-1.41,9.11,3.57,18.21,7.14,27.32,10.71.25.11,2.57,1.19,3.16,3.85.63,2.82-1.26,4.87-1.41,5.03Z"/>
        <path class="st1" d="M247.44,257.29c-7.61,6.44-15.22,12.87-22.82,19.3-.14.09-2.78,1.78-5.67.42-2.87-1.35-3.27-4.41-3.29-4.59l-5.07-28.95c.01-.45.12-2.67,1.92-4.35,2.41-2.26,5.65-1.47,5.87-1.41,9.11,3.57,18.21,7.14,27.32,10.71.25.11,2.57,1.19,3.16,3.85.63,2.82-1.26,4.87-1.41,5.03Z"/>
        <path class="st1" d="M181.99,283.3c-2.26,2.26-5.31,1.57-5.47,1.53-9.34-3.46-18.69-6.93-28.03-10.39-.2-.1-2.67-1.38-3.04-4.25-.35-2.7,1.47-4.5,1.66-4.69,7.35-6.45,14.7-12.91,22.05-19.36.19-.13,2.97-1.97,6-.67,2.26.97,3.12,3.02,3.28,3.44l5.07,28.95c.04.17.7,3.19-1.53,5.43Z"/>
      </g>
    </g>
    <path class="st25" d="M109.06,257.47s5.9-.31,8.09,9.41c2.2,9.72-7.55,34.53-7.55,34.53l-3.52-21.14,2.98-22.8Z"/>
    <path class="st25" d="M141.47,321.67s10.98.71,14.52,12.06l1.19,5.24,3.52,24.11-19.38,3.52-5.52-29.61,5.67-15.32Z"/>
    <g>
      <path class="st22" d="M80.19,412.27s-10.61-75.37-11.85-94c-1.24-18.63,32.71-61.95,36.86-63.19,4.14-1.24,9.94,3.31,8.28,13.25-1.66,9.94-16.56,36.69-16.56,36.69l2.48,17.39s16.98-8.7,31.89-4.97c14.91,3.73,18.63,12.01,17.39,21.53,0,0,8.28,7.45,8.7,14.91.41,7.45-3.73,13.25-3.73,13.25,0,0,3.31,11.59.41,16.15-2.9,4.56-20.71,11.59-20.71,11.59,0,0,6.47,32.19-9.77,43.14,0,0-24.62,89.53-24.08,89.44H20.68s47.16-92.18,50.48-98.81c3.31-6.63,9.03-16.37,9.03-16.37Z"/>
      <g class="st2">
        <path d="M134.92,381.88c-.48-1.56-.88-3.17-1.69-4.59-.81-1.42-2.11-2.66-3.71-2.96l4.39,20.3c1.15-2.43,2.33-4.99,2.22-7.68-.07-1.74-.69-3.4-1.2-5.07Z"/>
      </g>
      <path class="st10" d="M133.91,398.91c-1.21-7.15-2.42-14.29-3.63-21.44-.12-.71-.25-1.44-.64-2.04-.39-.6-1.13-1.05-1.82-.88"/>
      <path class="st10" d="M105.32,337.68c15.29-9.41,33.82-9.33,43.36,1.29"/>
      <path class="st10" d="M153.65,367.13c-2.46-6.08-4.63-11.36-10.86-13.39-6.24-2.03-17-.08-22.57,3.39"/>
      <path class="st10" d="M131.52,380.64c2.59-2.42,5.99-3.97,9.52-4.33"/>
      <path class="st10" d="M95.52,325.48c6.89-6.05,21.68-8.39,27.1-8.96"/>
    </g>
    <path class="st0" d="M247.01,318.46s-47.14,36.16-44.75,60.34h25.89s-21.11-1.16-10.36-18.77c10.76-17.6,39.04-41.64,39.06-40.9,0,.2-8.26-.34-9.84-.67Z"/>
  </g>
  <g>
    <g>
      <path class="st23" d="M434.62,216.16c-.49-1.41-1.53-3.84-3.73-6.17-1.92-2.02-3.93-3.14-5.22-3.74-55.84.06-111.67.12-167.51.19-1.35.37-4.8,1.52-7.46,4.86-1.57,1.97-2.28,3.96-2.61,5.23-.79,100.69-1.08,164.31-.19,167.05.74,2.28,1.92,3.91,3.17,5.23,2.71,2.86,5.96,3.9,7.65,4.3,77.72.42,164.73.51,166.2,0,2.87-.99,4.7-2.7,5.6-3.55,0,0,2.91-2.3,4.1-5.79.24-.7.04-87.75,0-167.61ZM432.21,381.47c-1.16,3.39-4,5.63-4,5.63-.87.83-2.66,2.49-5.45,3.45-1.43.49-86.21.41-161.93,0-1.64-.39-4.81-1.39-7.45-4.18-1.22-1.29-2.37-2.87-3.09-5.09-.87-2.67-.58-64.54.18-162.47.32-1.24,1.01-3.17,2.54-5.09,2.6-3.25,5.96-4.36,7.27-4.73,54.4-.06,108.8-.12,163.2-.18,1.26.58,3.22,1.67,5.09,3.63,2.15,2.26,3.16,4.62,3.64,6,.03,77.68.23,162.34,0,163.02Z"/>
      <path class="st1" d="M432.21,381.47c-1.16,3.39-4,5.63-4,5.63-.87.83-2.66,2.49-5.45,3.45-1.43.49-86.21.41-161.93,0-1.64-.39-4.81-1.39-7.45-4.18-1.22-1.29-2.37-2.87-3.09-5.09-.87-2.67-.58-64.54.18-162.47.32-1.24,1.01-3.17,2.54-5.09,2.6-3.25,5.96-4.36,7.27-4.73,54.4-.06,108.8-.12,163.2-.18,1.26.58,3.22,1.67,5.09,3.63,2.15,2.26,3.16,4.62,3.64,6,.03,77.68.23,162.34,0,163.02Z"/>
      <path class="st12" d="M401.22,336.77"/>
    </g>
    <g>
      <path class="st9" d="M321.73,267.77v5.37c-1.63-.44-2.84-1.01-3.11-2.16-.24-1.02.38-2.06.92-2.56.59-.55,1.39-.69,2.2-.64Z"/>
      <path class="st9" d="M326.49,280.31c.63,1.27.36,3.12-.55,3.85-.41.34-.73.23-2.77.19v-5.67c1.55.21,2.8.57,3.32,1.63Z"/>
      <path class="st9" d="M322.55,249.91c-14.42,0-26.1,11.69-26.1,26.1s11.69,26.1,26.1,26.1,26.1-11.69,26.1-26.1-11.69-26.1-26.1-26.1ZM333.08,282.33c-.29,1.83-1.4,3.02-1.83,3.48-1.8,1.94-4.9,3.03-8.08,3.17v2.96h-1.44v-2.96c-3.06-.14-6.05-1.16-7.88-3.17-1.18-1.29-2.26-3.48-1.65-4.21.16-.2,5.35-.09,5.68.18.8.67.32,1.5,1.1,2.2.47.42.92.36,2.75.36v-5.82c-2.61-.25-5.66-.52-7.69-2.79-1.51-1.69-2.1-4.15-1.65-6.23.77-3.52,4.35-5.08,5.31-5.5,1.28-.56,2.65-.85,4.03-.9v-2.4h1.44v2.43c2.74.23,5.34,1.38,6.98,3.25.17.19,2.64,2.99,1.58,4.4-.36.48-4.62.59-5.06,0-.22-.29-.12-.47-.37-.92-.34-.61-.9-.9-1.28-1.1-.14-.07-.9-.46-1.86-.74v5.45c3.2.71,7.19,1.38,9,4.45.21.36,1.27,2.17.92,4.4Z"/>
      <circle class="st21" cx="374.85" cy="297.17" r="12.82"/>
      <path class="st6" d="M362.01,349.82h-49.93c-2.63-.84-17.51-5.89-23.51-20.6-2.2-5.39-2.52-10.4-2.38-13.92h47.45c7.34,2.04,17.16,6.57,23.25,16.67,4.09,6.78,4.99,13.54,5.11,17.85Z"/>
      <path class="st21" d="M395.91,325.37v15.2c-.14,1-.63,3.41-2.56,5.68-2.12,2.49-4.71,3.31-5.68,3.56h-25.66c-.12-4.31-1.02-11.07-5.11-17.85-6.09-10.09-15.91-14.63-23.25-16.67h52.52c.9.11,4.17.63,6.81,3.48,2.45,2.64,2.84,5.65,2.93,6.59Z"/>
      <path class="st1" d="M332.17,277.93c-1.81-3.07-5.8-3.75-9-4.45v-5.45c.95.28,1.72.67,1.86.74.38.2.94.49,1.28,1.1.25.44.14.62.37.92.45.59,4.7.48,5.06,0,1.05-1.4-1.42-4.2-1.58-4.4-1.64-1.87-4.24-3.03-6.98-3.25v-2.43h-1.44v2.4c-1.38.05-2.75.34-4.03.9-.96.42-4.54,1.98-5.31,5.5-.46,2.08.14,4.54,1.65,6.23,2.03,2.26,5.09,2.53,7.69,2.79v5.82c-1.83,0-2.28.05-2.75-.36-.78-.7-.29-1.53-1.1-2.2-.33-.27-5.52-.38-5.68-.18-.61.74.47,2.92,1.65,4.21,1.83,2.01,4.81,3.03,7.88,3.17v2.96h1.44v-2.96c3.19-.14,6.28-1.23,8.08-3.17.43-.46,1.54-1.65,1.83-3.48.36-2.23-.71-4.04-.92-4.4ZM318.61,270.97c-.24-1.02.38-2.06.92-2.56.59-.55,1.39-.69,2.2-.64v5.37c-1.63-.44-2.84-1.01-3.11-2.16ZM325.94,284.16c-.41.34-.73.23-2.77.19v-5.67c1.55.21,2.8.57,3.32,1.63.63,1.27.36,3.12-.55,3.85Z"/>
    </g>
  </g>
  <g>
    <path class="st4" d="M262.73,533.99c.15-3.38,23.62-102.31,23.62-102.31,13.24-12.64,38.6-11.41,50.45-13.09,28.18-4.01,27.65-12.31,27.65-12.31,0,0,15.76,1.26,22.67-8.76,3.57-5.18,26.68-66.55,26.68-66.55,0,0-4.34-5.17-15.09,5.16-10.75,10.33-18.12,35.45-18.12,35.45,0,0,7.8-34.58,7.94-40.7.14-6.12-11.92-4.31-15.76,5.68-3.83,9.99-16.61,42.38-16.61,42.38-3.39,5.4-7.55,9.05-13.01,9.69,0,0,4.52-50.06,4.5-55.53-.02-5.47-10.47-4.64-14.95,5.19-4.48,9.83-10.55,36.99-10.55,36.99,0,0-49.6-2.46-58.13,3-16.42,10.53-71.22,155.7-71.22,155.7h69.93Z"/>
    <path class="st4" d="M376.21,401.02c.65.54,7.72,6.79,16.68,3.09,8.95-3.69,19.74-9.84,31.68-15.25,11.94-5.41,12.98-5.86,5.63-9.91-7.36-4.05-19.1.86-27.06,3.5-7.96,2.64-15.48,4.88-15.48,4.88l-11.44,13.68Z"/>
    <path class="st11" d="M364.63,406.5c8.05-6.89,16.78-30.96,23.89-75.61"/>
    <path class="st11" d="M327.24,402.86c5.55-.53,9.24-1.61,12-3.92,4.93-4.11,8.41-65.85,8.41-65.85"/>
    <path class="st11" d="M377.83,404.37c5.16-1.81,9.95-8.52,12.53-13.34,2.58-4.81,21.66-53.9,23.43-60.06"/>
  </g>
</svg>
