<?xml version="1.0" encoding="UTF-8"?>
<svg id="Capa_1" xmlns="http://www.w3.org/2000/svg" version="1.1" viewBox="0 0 900 559.06">
  <!-- Generator: Adobe Illustrator 30.2.1, SVG Export Plug-In . SVG Version: 2.1.1 Build 1)  -->
  <defs>
    <style>
      .st0 {
        fill: #fafafa;
      }

      .st1 {
        opacity: .3;
      }

      .st2 {
        fill: #c27460;
      }

      .st3 {
        fill: #fff;
      }

      .st4 {
        fill: #375a64;
      }

      .st5 {
        fill: #ffbf9d;
      }

      .st6 {
        fill: #1a2e35;
      }

      .st7 {
        fill: #7c4235;
      }

      .st8 {
        fill: #bd0043;
      }

      .st9 {
        fill: #ff9a6c;
      }

      .st10 {
        fill: #f5f5f5;
      }

      .st11 {
        fill: #e1e1e1;
      }
    </style>
  </defs>
  <g>
    <g>
      <path class="st3" d="M793.78,118.64l5.67-12.37c-3.22-8.11-4.07-17.3-1.81-26.56,5.1-20.88,25.14-35.14,46.53-33.08,26.87,2.59,44.97,28.4,38.23,54.54-5.4,20.97-25.89,34.96-47.39,32.41-10.99-1.3-20.45-6.51-27.26-14.01v.02s-13.98-.96-13.98-.96Z"/>
      <path class="st11" d="M793.57,118.7s.34,0,.95.03c.65.03,1.55.08,2.71.14,2.4.14,5.86.33,10.35.59l-.19.3v-.02c-.06-.1-.03-.22.07-.27.08-.04.19-.02.25.04,3.79,4.09,9.61,8.84,17.82,11.68,4.07,1.45,8.72,2.28,13.67,2.35,4.95.07,10.24-.7,15.44-2.61,5.19-1.89,10.27-4.91,14.68-9.02,4.41-4.1,8.13-9.3,10.59-15.26,4.95-11.87,4.36-27.03-3.24-39.09l-1.43-2.25-1.62-2.1c-1.02-1.45-2.35-2.62-3.51-3.92-2.55-2.38-5.25-4.58-8.23-6.27-5.89-3.48-12.44-5.46-18.91-5.96-6.47-.45-12.82.59-18.47,2.75-5.66,2.15-10.62,5.4-14.63,9.24-8.05,7.72-12.09,17.54-13.08,26.09-1.06,8.62.63,15.95,2.64,21.11,0,.06,0,.1,0,.16-1.86,3.94-3.3,6.98-4.3,9.08-.48,1.01-.86,1.8-1.14,2.37-.26.54-.41.83-.41.83-.02,0,.09-.25.32-.78.25-.57.59-1.35,1.03-2.36.96-2.16,2.34-5.28,4.14-9.32v.16c-2.11-5.18-3.9-12.57-2.89-21.33.93-8.67,4.99-18.69,13.15-26.59,4.06-3.93,9.11-7.26,14.87-9.47,5.75-2.22,12.23-3.29,18.84-2.85,6.6.49,13.3,2.5,19.32,6.05,3.05,1.72,5.81,3.97,8.41,6.4,1.18,1.33,2.55,2.53,3.59,4.01l1.66,2.14,1.46,2.3c7.77,12.32,8.36,27.82,3.27,39.93-2.52,6.09-6.33,11.39-10.84,15.55-4.51,4.18-9.7,7.23-15,9.13-5.3,1.92-10.69,2.68-15.72,2.57-5.04-.1-9.75-.97-13.87-2.47-8.3-2.95-14.15-7.82-17.91-12l.33-.23v.02c.06.1.03.22-.07.27-.03.02-.08.03-.11.02-4.54-.37-8.05-.65-10.48-.84-1.13-.1-2-.17-2.64-.23-.59-.05-.88-.08-.86-.09Z"/>
    </g>
    <path class="st11" d="M829.93,90.62c0,2.85-2.31,5.16-5.16,5.16s-5.16-2.31-5.16-5.16,2.31-5.16,5.16-5.16,5.16,2.31,5.16,5.16Z"/>
    <path class="st11" d="M846.18,90.62c0,2.85-2.31,5.16-5.16,5.16s-5.16-2.31-5.16-5.16,2.31-5.16,5.16-5.16,5.16,2.31,5.16,5.16Z"/>
    <circle class="st11" cx="857.28" cy="90.62" r="5.16"/>
  </g>
  <g>
    <g>
      <path class="st3" d="M449.94,524.55l7.52-14.49c-4.27-9.51-5.39-20.27-2.39-31.11,6.76-24.46,33.32-41.16,61.67-38.75,35.62,3.03,59.59,33.27,50.67,63.89-7.16,24.56-34.31,40.95-62.8,37.97-14.57-1.52-27.1-7.63-36.13-16.42v.03s-18.53-1.13-18.53-1.13Z"/>
      <path class="st11" d="M449.66,524.63s.45,0,1.26.04c.87.04,2.06.09,3.59.16,3.18.16,7.77.39,13.72.69l-.26.35v-.03c-.08-.12-.03-.26.1-.32.11-.05.25-.03.33.05,5.02,4.79,12.74,10.36,23.61,13.69,5.39,1.7,11.55,2.67,18.12,2.75,6.56.09,13.57-.82,20.46-3.05,6.88-2.22,13.62-5.75,19.46-10.56,5.84-4.8,10.77-10.89,14.03-17.88,6.56-13.9,5.78-31.66-4.29-45.78l-1.9-2.63-2.15-2.46c-1.35-1.7-3.12-3.07-4.65-4.6-3.38-2.79-6.95-5.37-10.9-7.34-7.8-4.08-16.49-6.4-25.06-6.98-8.58-.53-16.99.69-24.48,3.22-7.5,2.52-14.08,6.33-19.38,10.83-10.67,9.05-16.03,20.55-17.34,30.56-1.4,10.1.84,18.68,3.5,24.73,0,.06,0,.12-.01.19-2.47,4.61-4.38,8.17-5.7,10.64-.64,1.18-1.14,2.1-1.51,2.78-.34.63-.55.97-.55.97-.02.01.12-.29.42-.91.33-.67.78-1.58,1.37-2.76,1.27-2.53,3.11-6.19,5.48-10.91v.18c-2.8-6.07-5.17-14.73-3.84-24.99,1.24-10.16,6.61-21.89,17.42-31.15,5.38-4.6,12.07-8.51,19.71-11.1,7.63-2.6,16.21-3.86,24.97-3.34,8.75.58,17.63,2.93,25.61,7.09,4.04,2.01,7.69,4.65,11.15,7.5,1.57,1.56,3.37,2.96,4.75,4.7l2.2,2.51,1.94,2.69c10.29,14.43,11.07,32.59,4.34,46.78-3.34,7.13-8.39,13.34-14.37,18.22-5.98,4.89-12.86,8.47-19.88,10.7-7.02,2.24-14.17,3.14-20.84,3.02-6.68-.12-12.92-1.14-18.38-2.9-11-3.45-18.75-9.16-23.74-14.06l.44-.27v.03c.08.12.03.26-.1.32-.04.02-.1.03-.15.03-6.02-.43-10.67-.76-13.89-.99-1.5-.11-2.66-.2-3.5-.27-.78-.06-1.16-.1-1.14-.11Z"/>
    </g>
    <path class="st11" d="M497.85,491.72c0,3.34-3.06,6.04-6.83,6.04s-6.83-2.7-6.83-6.04,3.06-6.04,6.83-6.04,6.83,2.7,6.83,6.04Z"/>
    <path class="st11" d="M519.39,491.72c0,3.34-3.06,6.04-6.83,6.04s-6.83-2.7-6.83-6.04,3.06-6.04,6.83-6.04,6.83,2.7,6.83,6.04Z"/>
    <path class="st11" d="M540.93,491.72c0,3.34-3.06,6.04-6.83,6.04s-6.83-2.7-6.83-6.04,3.06-6.04,6.83-6.04,6.83,2.7,6.83,6.04Z"/>
  </g>
  <g>
    <g>
      <path class="st3" d="M156.98,128.13l-14.76,4.5c-4.45,8.84-11.61,16.47-21.16,21.52-21.54,11.39-48.72,5.13-63.08-14.56-18.03-24.74-9.77-59.51,17.47-73.48,21.84-11.2,49.13-4.36,63.15,15.78,7.17,10.3,9.87,22.24,8.64,33.67v-.03s9.73,12.59,9.73,12.59Z"/>
      <path class="st11" d="M157.19,128.27s-.25-.29-.69-.83c-.46-.58-1.1-1.38-1.92-2.4-1.69-2.14-4.13-5.22-7.3-9.22l.4-.06v.03c-.05.12-.19.18-.31.13-.1-.04-.16-.14-.15-.24.62-6.29.26-14.81-3.5-23.9-1.83-4.54-4.63-9.11-8.3-13.36-3.66-4.25-8.31-8.16-13.83-11.13-5.51-2.98-11.89-5.02-18.7-5.66-6.79-.65-14,.11-20.91,2.51-13.79,4.74-26.2,16.65-30.7,32.17l-.83,2.9-.55,2.96c-.46,1.95-.45,3.96-.69,5.93-.1,3.95.06,7.9.88,11.7,1.48,7.61,4.74,14.66,9.18,20.51,4.49,5.83,10.15,10.43,16.23,13.59,6.09,3.18,12.58,4.94,18.85,5.44,12.61,1.01,23.98-2.95,31.97-8.55,8.11-5.6,13.05-12.54,15.91-18.13.05-.04.09-.07.14-.11,4.74-1.38,8.4-2.45,10.94-3.19,1.22-.35,2.17-.62,2.87-.82.65-.18,1.01-.27,1.01-.27.02,0-.28.11-.9.31-.67.22-1.59.52-2.78.9-2.55.81-6.24,1.99-11.01,3.51l.14-.12c-2.81,5.69-7.73,12.77-15.91,18.51-8.06,5.74-19.6,9.84-32.45,8.87-6.38-.49-13.01-2.26-19.23-5.48-6.21-3.21-12-7.89-16.6-13.83-4.55-5.97-7.89-13.16-9.41-20.94-.84-3.88-1-7.91-.91-11.95.24-2.01.23-4.06.7-6.06l.57-3.02.84-2.97c4.6-15.86,17.3-28.03,31.4-32.83,7.06-2.45,14.42-3.2,21.35-2.51,6.94.68,13.43,2.78,19.03,5.84,5.61,3.05,10.32,7.05,14.02,11.4,3.71,4.35,6.51,9,8.34,13.62,3.75,9.26,4.02,17.88,3.3,24.22l-.44-.11v-.03c.05-.12.19-.18.3-.13.04.01.08.04.1.08,3.11,4.13,5.51,7.32,7.17,9.52.77,1.03,1.36,1.83,1.8,2.41.4.54.59.8.57.8Z"/>
    </g>
    <path class="st11" d="M87.33,110.09c0,3.23-2.62,5.85-5.85,5.85s-5.85-2.62-5.85-5.85,2.62-5.85,5.85-5.85,5.85,2.62,5.85,5.85Z"/>
    <circle class="st11" cx="99.91" cy="110.09" r="5.85"/>
    <circle class="st11" cx="118.34" cy="110.09" r="5.85"/>
  </g>
  <g>
    <g>
      <path class="st3" d="M345.05,138.75l8.31-18.11c-4.72-11.88-5.96-25.34-2.65-38.89,7.47-30.57,36.81-51.45,68.13-48.43,39.35,3.79,65.84,41.58,55.98,79.86-7.91,30.7-37.9,51.18-69.38,47.46-16.1-1.9-29.94-9.54-39.92-20.52l.02.03-20.49-1.41Z"/>
      <path class="st6" d="M344.74,138.84s.49,0,1.39.05c.96.05,2.27.12,3.96.21,3.51.2,8.58.49,15.16.86l-.28.43-.02-.03c-.08-.15-.02-.33.13-.4.12-.06.27-.03.36.06,5.54,5.99,14.08,12.95,26.08,17.11,5.96,2.12,12.76,3.33,20.02,3.44,7.25.11,15-1.03,22.6-3.82,7.6-2.77,15.04-7.18,21.5-13.2,6.45-6,11.9-13.61,15.5-22.35,7.25-17.38,6.38-39.58-4.74-57.23l-2.1-3.29-2.38-3.07c-1.49-2.12-3.44-3.83-5.14-5.75-3.74-3.48-7.68-6.71-12.05-9.18-8.62-5.09-18.22-7.99-27.68-8.72-9.48-.66-18.77.86-27.04,4.02-8.29,3.15-15.55,7.91-21.41,13.53-11.78,11.31-17.71,25.69-19.15,38.2-1.54,12.63.92,23.35,3.87,30.91,0,.08,0,.15-.01.23-2.73,5.76-4.84,10.22-6.3,13.3-.71,1.48-1.26,2.63-1.67,3.47-.38.79-.61,1.21-.61,1.21-.02.01.14-.37.47-1.14.37-.84.87-1.98,1.51-3.45,1.4-3.16,3.43-7.73,6.06-13.64v.23c-3.09-7.59-5.71-18.41-4.24-31.23,1.37-12.7,7.3-27.36,19.25-38.93,5.94-5.75,13.33-10.63,21.77-13.87,8.43-3.25,17.91-4.82,27.59-4.17,9.66.72,19.47,3.67,28.29,8.86,4.46,2.52,8.5,5.81,12.32,9.37,1.73,1.95,3.73,3.7,5.25,5.87l2.43,3.14,2.14,3.36c11.37,18.04,12.23,40.74,4.79,58.47-3.69,8.91-9.27,16.67-15.87,22.77-6.6,6.12-14.2,10.59-21.96,13.37-7.76,2.8-15.65,3.92-23.02,3.77-7.38-.15-14.28-1.43-20.31-3.62-12.15-4.31-20.72-11.45-26.22-17.58l.48-.34.02.03c.08.14.02.32-.12.4-.05.03-.11.04-.16.03-6.65-.54-11.79-.95-15.34-1.24-1.65-.14-2.93-.25-3.87-.33-.86-.08-1.28-.12-1.26-.13Z"/>
    </g>
    <path class="st6" d="M397.98,97.72c0,4.17-3.38,7.55-7.55,7.55s-7.55-3.38-7.55-7.55,3.38-7.55,7.55-7.55,7.55,3.38,7.55,7.55Z"/>
    <path class="st6" d="M421.77,97.72c0,4.17-3.38,7.55-7.55,7.55s-7.55-3.38-7.55-7.55,3.38-7.55,7.55-7.55,7.55,3.38,7.55,7.55Z"/>
    <path class="st6" d="M445.57,97.72c0,4.17-3.38,7.55-7.55,7.55s-7.55-3.38-7.55-7.55,3.38-7.55,7.55-7.55,7.55,3.38,7.55,7.55Z"/>
  </g>
  <g>
    <g>
      <path class="st11" d="M263.33,153.4c-104.45,0-189.13,84.68-189.13,189.13,0,50.96,20.2,97.19,52.97,131.2l-20.82,59.52s40.5-15.67,65.1-25.4c27.21,15.16,58.53,23.82,91.88,23.82,104.45,0,189.13-84.68,189.13-189.13s-84.68-189.13-189.13-189.13Z"/>
      <path class="st6" d="M263.33,153.01s1.11-.02,3.27.01c2.16.09,5.38-.05,9.58.33,8.4.48,20.87,1.73,36.36,5.89,7.76,2.02,16.21,4.91,25.22,8.64,8.98,3.82,18.42,8.72,28.01,14.86,19.14,12.26,38.88,29.92,55,53.72,7.98,11.92,15.01,25.31,20.51,39.98,5.38,14.7,9.22,30.68,10.85,47.48,3.26,33.53-2.43,70.61-19.8,104.47-4.29,8.46-9.27,16.72-15,24.57-5.71,7.86-11.98,15.47-18.99,22.52-14,14.08-30.42,26.45-48.87,35.77-36.69,18.96-81.4,25.69-124.38,16.81-19.11-3.9-37.35-10.8-53.96-20.02l.57.04c-22.16,8.64-43.9,17.12-65.11,25.4l-1.33.52.47-1.35c7.13-20.37,14.09-40.23,20.84-59.51l.14.66c-22.3-23.28-37.93-51.23-45.9-79.88-8.16-28.65-8.94-57.74-4.35-84.14,4.56-26.46,14.54-50.2,27.24-69.89,12.73-19.71,27.95-35.58,43.54-47.5,7.79-5.97,15.54-11.19,23.26-15.41,1.89-1.13,3.81-2.12,5.72-3.07,1.9-.95,3.75-1.95,5.62-2.83,3.78-1.66,7.36-3.43,10.97-4.75,14.31-5.7,27.17-8.84,37.7-10.63,1.32-.23,2.6-.45,3.84-.67,1.25-.16,2.46-.31,3.64-.46,2.35-.28,4.54-.59,6.57-.78,4.09-.26,7.53-.6,10.31-.67,2.77-.05,4.87-.08,6.32-.11,1.42-.02,2.14,0,2.14,0,0,0-.72.06-2.14.11-1.44.05-3.55.12-6.31.21-2.78.1-6.21.47-10.29.77-2.03.21-4.21.54-6.55.83-1.17.16-2.38.32-3.62.48-1.24.23-2.51.46-3.83.7-10.5,1.86-23.3,5.05-37.54,10.78-3.6,1.33-7.16,3.11-10.92,4.78-1.86.88-3.69,1.88-5.59,2.84-1.9.95-3.81,1.95-5.68,3.08-7.67,4.22-15.37,9.45-23.12,15.42-15.49,11.92-30.6,27.75-43.23,47.38-12.59,19.61-22.47,43.24-26.97,69.56-4.53,26.25-3.71,55.17,4.43,83.62,7.95,28.46,23.5,56.21,45.67,79.32l.27.29-.13.37c-6.74,19.28-13.68,39.15-20.8,59.52l-.86-.83c21.2-8.28,42.93-16.76,65.09-25.41l.3-.12.28.15c16.49,9.15,34.61,16.01,53.58,19.88,42.67,8.81,87.07,2.15,123.51-16.67,18.33-9.24,34.64-21.52,48.56-35.49,6.97-6.99,13.2-14.55,18.88-22.35,5.7-7.79,10.65-15.99,14.92-24.39,17.29-33.62,22.99-70.46,19.8-103.8-1.6-16.7-5.39-32.59-10.71-47.22-5.45-14.6-12.41-27.94-20.33-39.81-15.99-23.72-35.59-41.35-54.62-53.62-9.54-6.15-18.92-11.06-27.85-14.9-8.97-3.75-17.38-6.67-25.1-8.73-15.43-4.23-27.86-5.55-36.25-6.12-4.19-.43-7.41-.33-9.57-.47-2.16-.08-3.26-.15-3.26-.15Z"/>
    </g>
    <g>
      <g>
        <g>
          <g>
            <path class="st5" d="M242.91,96.65l2.51-.28c25.26-2.82,48.45,14.22,53.3,39.17,4.51,23.2,9.19,48.88,10.44,61.45,2.59,26.04-22.97,33-22.97,33l1.5,10.56c2.48,17.44-9.7,33.58-27.15,35.97h0c-17.23,2.36-33.17-9.56-35.76-26.76l-14.51-96.36c-5.35-26.74,5.75-52.15,32.63-56.76Z"/>
            <path class="st9" d="M286.41,229.94s-16.5,2.86-35.19-6.16c0,0,10.11,17.82,35.8,12.57l-.6-6.41Z"/>
            <path class="st6" d="M294.41,160.18c.29,1.95-1.13,3.81-3.16,4.15-2.03.34-3.91-.97-4.2-2.92-.29-1.95,1.13-3.81,3.16-4.15,2.04-.34,3.92.97,4.21,2.92Z"/>
            <path class="st6" d="M294.55,148.88c-.41.54-3.45-1.23-7.45-.77-4,.4-6.7,2.79-7.19,2.34-.24-.19.13-1.12,1.31-2.19,1.15-1.07,3.2-2.21,5.69-2.48,2.49-.26,4.69.42,6,1.22,1.33.81,1.85,1.63,1.65,1.88Z"/>
            <path class="st6" d="M258.19,164.91c.29,1.95-1.13,3.81-3.16,4.15-2.03.34-3.91-.97-4.2-2.92-.29-1.95,1.13-3.81,3.16-4.15,2.03-.34,3.92.97,4.21,2.92Z"/>
            <path class="st6" d="M255.35,154.02c-.41.54-3.46-1.23-7.45-.77-4,.4-6.7,2.78-7.19,2.34-.24-.19.13-1.12,1.31-2.19,1.15-1.07,3.2-2.21,5.69-2.48,2.49-.26,4.69.42,6,1.22,1.33.81,1.85,1.63,1.65,1.88Z"/>
            <path class="st6" d="M273.18,182.04c-.04-.23,2.39-.93,6.36-1.9,1.01-.22,1.95-.53,2.05-1.25.16-.76-.39-1.82-1.02-2.95-1.24-2.36-2.53-4.84-3.89-7.43-5.43-10.6-9.48-19.35-9.05-19.57.43-.21,5.18,8.2,10.61,18.79,1.31,2.62,2.57,5.11,3.77,7.49.52,1.12,1.33,2.36.98,3.95-.19.79-.88,1.43-1.51,1.68-.63.27-1.21.35-1.71.44-4.03.67-6.54.97-6.58.75Z"/>
            <path class="st6" d="M254.63,138.24c-.27,1.13-4.32,1.06-8.95,2.15-4.65,1-8.28,2.79-9.01,1.89-.33-.44.22-1.53,1.63-2.75,1.4-1.22,3.7-2.49,6.48-3.12,2.78-.62,5.41-.46,7.19.04,1.8.5,2.76,1.26,2.65,1.79Z"/>
            <path class="st6" d="M291.79,137.48c-.6.99-3.46.35-6.78.68-3.33.21-6.05,1.29-6.8.42-.33-.43,0-1.39,1.13-2.38,1.11-.99,3.05-1.92,5.33-2.1,2.28-.18,4.35.42,5.6,1.22,1.27.8,1.76,1.69,1.5,2.17Z"/>
            <path class="st6" d="M294.88,123.88s-8.68-15.52-16.96-18.44c-10.02-3.54-12.95,7.36-22.29,5.84-9.34-1.52-18.92-4.92-27.39,3.12-9.28,8.8-3.93,13.65-3.26,25.26,2.7,47.07-4.36,61.26-9.26,39.49-.54-2.38-7.45-3.55-9.59-13.64-2.77-13.08-5.07-29.09-3.17-38.8,1.6-8.19,5.5-14.16,12.92-21.09,11.7-10.94,29.22-13.11,41.27-13.25,12.05-.14,36.55,11,37.74,31.52Z"/>
            <path class="st5" d="M217.3,178.26c-.61-4-4.43-6.78-8.38-5.95-4.8,1-9.89,4.36-8.45,14.35,2.56,17.72,19.82,11.49,19.78,10.98-.03-.35-1.81-11.98-2.95-19.38Z"/>
            <path class="st9" d="M215.42,191.53c-.09-.04-.28.26-.76.58-.47.31-1.33.59-2.3.38-1.97-.42-3.98-3.16-4.52-6.34-.28-1.6-.16-3.19.23-4.54.35-1.37,1.06-2.4,1.98-2.7.91-.35,1.66.12,1.94.58.31.46.25.83.35.85.06.04.34-.35.09-1.06-.13-.34-.39-.73-.86-1.01-.48-.28-1.13-.37-1.77-.2-1.35.29-2.4,1.73-2.83,3.21-.5,1.5-.67,3.29-.36,5.09.63,3.55,2.94,6.63,5.61,7,1.29.15,2.28-.38,2.76-.88.49-.52.52-.93.46-.95Z"/>
          </g>
          <path class="st6" d="M297.62,104.37c-2.85-1.91-6.64-2-9.47-3.94-5.16-3.53-5.84-12.15-11.78-14.09-3.52-1.15-7.31.71-11.01.52-5.98-.29-8.53-4.67-17.57-4.2-11.75.6-15.04,9.56-15.04,9.56,0,0-6.65-3.15-13.45,2-5.12,3.88-5.08,11.11-5.08,11.11,0,0-1.91-.84-7.31,3.92-3.43,3.03-6.03,9.3-7.1,13.75-1.59,6.63,1.62,13.37,4.74,19.43,1.69,3.28,3.75,6.89,7.31,7.87,4.34,1.2,8.84-2.38,10.28-6.64,1.44-4.27,3.84-8.61,5.65-12.73,3.13-7.16,6.37-13.85,3.18-18.15,3.99-1.53,8.42-1.87,12.54-.75,4.16,1.13,7.87,3.56,12.01,4.78,4.14,1.22,9.28.85,11.87-2.6,2.31,4.84,9.83,6.05,13.54,2.18,3.47,5.09,11.13,7.1,16.22,3.64,5.09-3.46,5.6-12.23.49-15.66Z"/>
          <path class="st4" d="M202.53,138.34c.16-.09.96,1.52,2.29,3.97.69,1.19,1.62,2.6,3.13,3.45,1.51.85,3.54.83,5.56.34,2.02-.49,3.82-1.42,5.22-2.55,1.39-1.14,2.45-2.45,3.3-3.55,1.68-2.24,2.65-3.72,2.79-3.63.11.07-.62,1.66-2.18,4.07-.8,1.19-1.82,2.58-3.29,3.87-1.48,1.26-3.41,2.3-5.6,2.83-2.14.52-4.51.55-6.29-.52-1.77-1.07-2.68-2.68-3.31-3.95-1.19-2.62-1.72-4.26-1.62-4.32Z"/>
          <path class="st4" d="M203.94,152.06c.12-.15,1.22,1.13,3.63,1.76,1.19.31,2.68.43,4.28.14,1.59-.29,3.26-1.03,4.8-2.13,3.1-2.23,4.99-5.27,6.32-7.43,1.31-2.19,2.11-3.58,2.25-3.51.12.06-.43,1.56-1.59,3.87-1.18,2.27-3.04,5.53-6.36,7.93-1.65,1.18-3.49,1.97-5.25,2.23-1.77.27-3.39.05-4.66-.38-2.58-.9-3.51-2.45-3.41-2.48Z"/>
        </g>
        <g>
          <path class="st9" d="M262.15,189.21c-.68,2.01-.55,3.93-.69,6.05-.14,2.12.84,3.55,2.23,5.15,1.44,1.66,3.73,2.43,5.92,2.35.02,0,.04,0,.07,0,4.1-.17,7.41-3.45,7.83-7.53l.47-4.46c-4.25-.91-15.5-1.29-15.83-1.57Z"/>
          <path class="st6" d="M273.8,201.27c-.03-.08-.52.05-1.42.23-.89.17-2.2.4-3.77.23-1.56-.16-3.37-.88-4.73-2.43-1.36-1.5-2.16-3.79-2.14-6.17,0-1.31.28-2.58.76-3.67l-.54.3c4.04.39,7.57.68,10.1.84,2.52.16,4.04.2,4.05.07.01-.13-1.48-.4-3.99-.75-2.51-.35-6.02-.78-10.06-1.22l-.38-.04-.16.35c-.57,1.24-.88,2.66-.89,4.11-.02,2.63.89,5.16,2.5,6.86,1.58,1.71,3.71,2.45,5.41,2.51,1.72.08,3.06-.29,3.94-.59.88-.31,1.33-.58,1.31-.64Z"/>
        </g>
      </g>
      <g>
        <path class="st4" d="M162.65,271.14c-1.48,0-22.58,8.44-28.13,29.18-5.55,20.74-20.73,96.67-20.73,96.67l-16.09,22.28s5.21,40.71,34.82,32.98c0,0,19.76,3.45,26.05-16.59,6.29-20.04,18.51-79.79,18.51-79.79l-14.44-84.72Z"/>
        <path class="st4" d="M224.26,236.38l-11.18,16.92-50.43,17.84,14.44,146.23-5.4,76.64c-.72,10.19,7.76,18.21,11.3,18.51h161.4c3.97-.11,9.35-9.82,10.01-15.23.59-4.86.07-9.79-1.27-14.5l-8.35-29.32c1.24,18.25-4.22-108.81-4.44-113.44l12.22-65.38-57.38-23.2-8.88-13.71-25.82,19.64-36.21-21.01Z"/>
        <path class="st4" d="M352.55,274.66s11.55,10.14,13.48,17.86c1.94,7.72,43.41,97.64,43.41,97.64l20.62,5.56,5.5,11.42c6.51,13.53,2.98,30.02-8.98,39.1-.75.57-1.49,1.08-2.21,1.5-11.14,6.62-31.16,6.36-42.83-7.41-11.05-13.03-43.39-59.93-43.39-59.93v-57.36l14.4-48.38Z"/>
        <path class="st6" d="M410.73,390.19c0,.28-2.51.06-6.23,1.25-3.7,1.14-8.48,3.98-12.32,8.53-3.84,4.57-6.19,9.57-7.84,13.16-1.63,3.62-2.6,5.9-2.81,5.82-.18-.07.42-2.47,1.81-6.23,1.41-3.73,3.65-8.94,7.67-13.73,4.03-4.79,9.21-7.66,13.19-8.59,4.01-.98,6.57-.35,6.53-.21Z"/>
        <path class="st5" d="M123.73,402.36l-27.71-23.01-15.92,17.89,1.95,8.76,34.65,32.63s7.49-3.63,10.88-13.29c3.45-9.82-3.85-22.97-3.85-22.97Z"/>
        <path class="st5" d="M95.7,391.23c.34-.51,3.98-12.77-4.58-22.04-8.56-9.28-16.79-13.14-21.69-16.05-4.9-2.92-14.58-13.15-16.74-11.2-2.16,1.95-3.36,5.12-1.1,9.38,2.26,4.26,13.03,9.25,12.65,14.72-.28,3.96-4.34,3.76-4.34,3.76,0,0-18.91-.98-26.71-2.58-7.81-1.61-15.05-.94-14.96,1.83s1.41,4.44,7.87,5.75c6.46,1.31,17.12,2.15,17.49,3.71.37,1.56-1.92,2.26-5.69,1.54-3.78-.72-21.72-2.83-23.19-.93-1.46,1.9-.88,5.13,1.49,6.1l4.04,1.99s-2.85,3.11-1.03,5.26c1.82,2.14,6.52,2.01,6.52,2.01l23.88,2.11s1.19,1.59.4,2.5c-.8.9-19.26-2.64-19.64-.62-.38,2.02-2.12,2.78,3.3,4.8,5.42,2.01,19.42,3.66,24.61,2.89,5.19-.77,26.38.75,26.38.75l11.07-15.66Z"/>
        <path class="st6" d="M293.75,255.64c.14.17-1.82,2.08-4.98,5.18-3.16,3.1-7.48,7.41-12.06,12.35-.96,1.05-1.91,2.08-2.82,3.08l-.61.66-.55-.7c-3.55-4.55-6.62-8.6-8.76-11.53-2.14-2.94-3.36-4.76-3.22-4.88.15-.12,1.64,1.5,3.99,4.27s5.57,6.7,9.17,11.21l-1.15-.04c.91-1.01,1.86-2.05,2.82-3.11,4.61-4.98,9.09-9.2,12.45-12.11,3.36-2.91,5.58-4.54,5.71-4.39Z"/>
        <path class="st6" d="M165.93,309.92c.1-.02.39,1.08.82,3.1.44,2.01.97,4.94,1.55,8.57,1.17,7.26,2.41,17.35,3.44,28.52,1.03,11.17,1.79,21.28,2.36,28.6.24,3.4.45,6.29.63,8.67.13,2.05.15,3.19.04,3.2-.11.01-.33-1.11-.64-3.14-.31-2.03-.69-4.98-1.11-8.63-.84-7.3-1.77-17.41-2.8-28.56-1.03-11.15-2.1-21.23-2.99-28.51-.42-3.38-.77-6.26-1.07-8.63-.25-2.04-.33-3.18-.23-3.19Z"/>
        <path class="st6" d="M341.26,304.82c.11,0,.29,1.38.54,3.89.25,2.52.52,6.16.76,10.68.5,9.02.76,21.51.79,35.28,0,13.62,0,25.93,0,35.27,0,4.28,0,7.86,0,10.69,0,2.52-.07,3.92-.17,3.93-.11,0-.25-1.39-.42-3.91-.18-2.52-.35-6.17-.5-10.69-.3-9.03-.42-21.51-.45-35.28-.03-13.77-.12-26.23-.34-35.25-.11-4.28-.2-7.86-.27-10.68-.07-2.52-.05-3.92.05-3.93Z"/>
        <path class="st6" d="M143.17,434.12c-.23.02-.63-2.98-1.55-7.76-.94-4.75-2.44-11.38-5.98-17.82-3.55-6.43-8.72-10.95-12.96-13.14-4.25-2.27-7.34-2.54-7.28-2.83.01-.09.78-.11,2.15.09,1.37.2,3.34.72,5.61,1.77,4.55,2.04,10.11,6.66,13.81,13.37,3.68,6.7,5.04,13.54,5.71,18.38.65,4.88.67,7.92.48,7.94Z"/>
        <path class="st6" d="M150.38,403.85c-.32.36-4.78-4.23-12.03-6.65-7.21-2.53-13.55-1.63-13.58-2.11-.17-.35,6.44-2,14.08.66,7.67,2.57,11.88,7.92,11.54,8.09Z"/>
        <path class="st6" d="M264.09,507.98c-.05,0-.11-.86-.16-2.51-.04-1.78-.1-4.17-.17-7.18-.13-6.39-.3-15.37-.52-26.42-.53-22.43-1.25-53.18-2.04-87.15-.78-34.05-1.24-64.88-1.2-87.19,0-11.16.11-20.19.26-26.43.09-3.01.16-5.4.21-7.18.07-1.64.13-2.5.18-2.5.05,0,.1.86.13,2.51.02,1.78.04,4.17.07,7.18.06,6.39.13,15.37.23,26.42.24,22.31.87,53.12,1.65,87.16.78,34.03,1.42,64.85,1.6,87.17.11,11.16.1,20.19.04,26.43-.05,3.01-.09,5.41-.12,7.19-.04,1.64-.09,2.51-.14,2.51Z"/>
        <path class="st6" d="M122.38,401.4c.12-.16,2.19,1.52,4.05,5.22.93,1.84,1.84,4.14,2.36,6.84.51,2.72.52,5.75.12,8.88-.43,3.11-1.22,6.07-2.6,8.52-1.36,2.43-3.15,4.25-4.85,5.46-3.48,2.44-6.26,2.39-6.22,2.25-.08-.27,2.51-.62,5.57-3.11,1.51-1.23,3.08-3,4.27-5.27,1.19-2.26,1.91-5.07,2.32-8.05.39-2.98.41-5.89,0-8.43-.42-2.56-1.18-4.81-1.95-6.63-1.54-3.67-3.23-5.52-3.07-5.68Z"/>
        <path class="st6" d="M315.23,372.1c.05.09-1.32.89-3.83,2.24-2.51,1.36-6.19,3.25-10.76,5.53-9.14,4.55-21.92,10.54-36.27,16.62-14.36,6.07-27.56,11.08-37.19,14.48-4.81,1.7-8.73,3.02-11.45,3.88-2.72.86-4.24,1.29-4.28,1.19-.03-.1,1.42-.72,4.08-1.75,2.92-1.12,6.72-2.58,11.28-4.33,9.52-3.65,22.63-8.81,36.97-14.87,14.32-6.07,27.15-11.89,36.4-16.19,4.43-2.06,8.12-3.77,10.96-5.08,2.59-1.19,4.05-1.81,4.1-1.71Z"/>
        <path class="st9" d="M53.24,388.9c0,.41-7.47.8-16.67.36-9.21-.43-16.61-1.53-16.57-1.94.04-.43,7.48-.02,16.64.41,9.16.44,16.6.73,16.6,1.17Z"/>
        <path class="st9" d="M70.21,387.64c-.04.16-1.78-.13-3.89-1.92-2.06-1.71-4.37-5.22-4.22-9.57.09-2.13.66-3.99,1.04-5.65.41-1.65.61-3.12.57-4.36-.05-2.51-1.12-3.8-.93-3.94.09-.17,1.64,1.03,2.01,3.85.2,1.36.08,3.03-.26,4.75-.32,1.72-.81,3.54-.89,5.41-.14,3.76,1.73,6.96,3.43,8.72,1.73,1.82,3.25,2.47,3.14,2.7Z"/>
        <path class="st6" d="M258.94,258.34c.19.09-1.11,3.4-3.38,8.68-.59,1.36-1.21,2.8-1.87,4.31-.75,1.56-1.25,3.15-2.36,4.99-.54.88-1.82,1.8-3.16,1.53-1.28-.23-2.13-.98-2.97-1.52-1.71-1.17-3.47-2.38-5.28-3.62-7.22-4.98-13.7-9.55-18.36-12.93-4.65-3.38-7.47-5.55-7.35-5.72.12-.17,3.15,1.69,7.96,4.83,4.81,3.15,11.39,7.58,18.61,12.56,1.8,1.25,3.55,2.46,5.26,3.64.86.6,1.64,1.2,2.36,1.31.69.13,1.29-.23,1.77-.91,1.7-3.09,3.11-6.43,4.39-8.93,2.52-5.17,4.17-8.32,4.36-8.23Z"/>
        <g>
          <path class="st5" d="M415.47,400.08l29.65-17.5,14.28,17.5-2.95,8.47-38.22,28.37s-7.17-5.26-8.86-15.37c-1.79-10.63,6.11-21.47,6.11-21.47Z"/>
          <path class="st5" d="M444.61,392.29c-.27-.55-2.46-13.14,7.12-21.36,9.58-8.21,18.21-11.09,23.41-13.42,5.2-2.33,16.02-11.36,17.94-9.17,1.92,2.19,2.74,5.48,0,9.45-2.74,3.97-18.42,9.94-16.23,14.97.9,2.06,5.83,2.42,5.83,2.42,0,0,18.89,1.23,26.83.55,7.94-.68,15.06.82,14.65,3.56-.41,2.74-1.92,4.24-8.49,4.79-6.57.55-17.25.14-17.8,1.64-.55,1.51,1.64,2.46,5.48,2.19,3.83-.27,21.91-.27,23.14,1.78,1.23,2.05.27,5.2-2.19,5.89l-4.24,1.51s2.46,3.42.41,5.34c-2.05,1.92-6.71,1.23-6.71,1.23l-23.96-.68s-1.37,1.44-.68,2.43c.68.99,19.44-.38,19.58,1.67.14,2.05,1.78,3.01-3.83,4.38-5.61,1.37-19.71,1.37-24.78,0-5.07-1.37-26.29-2.33-26.29-2.33l-9.17-16.84Z"/>
          <path class="st6" d="M423.78,440.1c-.04.09-.71-.07-1.85-.55-1.15-.48-2.74-1.35-4.51-2.71-3.52-2.67-7.69-7.8-9.03-14.64-1.31-6.85.65-13.17,2.93-16.96,1.14-1.93,2.29-3.33,3.18-4.2.88-.87,1.45-1.27,1.51-1.2.2.19-1.8,2.08-3.74,5.92-1.95,3.76-3.6,9.75-2.38,16.15,1.25,6.39,5.01,11.33,8.22,14.1,3.23,2.84,5.79,3.85,5.67,4.1Z"/>
          <path class="st9" d="M480.67,366.18c.18.18-1.11,1.42-2.76,3.59-.8,1.1-1.57,2.48-1.89,4.21-.36,1.72-.33,3.75-.63,5.96-.59,4.55-3.38,7.97-5.72,9.64-2.39,1.72-4.24,1.98-4.27,1.83-.1-.24,1.56-.87,3.59-2.67,2-1.78,4.36-4.93,4.88-9.01.28-2.04.3-4.14.77-6.05.44-1.94,1.46-3.51,2.42-4.57,1.98-2.13,3.48-3.03,3.6-2.91Z"/>
          <path class="st9" d="M484.94,393.78c.03-.42,7.99-.1,17.77.71,9.78.81,17.68,1.82,17.64,2.24-.03.42-7.99.1-17.77-.71-9.78-.81-17.68-1.81-17.64-2.24Z"/>
        </g>
      </g>
      <path class="st6" d="M181.7,512.53s33.51,20.42,85.28,18.7c51.77-1.72,77.4-18.7,77.4-18.7h-162.68Z"/>
    </g>
  </g>
  <g>
    <g>
      <path class="st0" d="M749.3,360.61c32.39-34.77,52.24-81.38,52.24-132.65,0-107.53-87.17-194.7-194.71-194.7s-194.7,87.17-194.7,194.7,87.17,194.71,194.7,194.71c33.24,0,64.52-8.35,91.89-23.03,23.45,9.37,74.4,29.09,74.4,29.09l-23.83-68.11Z"/>
      <path class="st6" d="M749.3,360.61s.58,1.52,1.64,4.47c1.06,2.97,2.62,7.36,4.67,13.11,4.07,11.53,10.07,28.51,17.81,50.43l.22.63-.62-.24c-20.25-7.88-45.4-17.67-74.45-28.98l.36-.02c-13.01,6.99-27.74,13-43.93,17.13-16.18,4.11-33.83,6.39-52.29,5.94-18.45-.32-37.74-3.35-56.8-9.6-9.56-3.05-19-7.05-28.24-11.8-9.23-4.77-18.31-10.26-26.93-16.68-17.23-12.82-32.97-28.85-45.77-47.68-12.73-18.85-22.49-40.46-28.06-63.65-2.79-11.59-4.55-23.56-5.19-35.72-.59-12.15-.07-24.48,1.61-36.75,3.35-24.54,11.53-48.87,24.35-70.97,22.68-39.46,58.86-69.28,98.84-84.55,40.01-15.6,83.38-16.58,121.28-6.3,38.1,10.24,70.53,31.72,93.9,57.65,11.64,13.05,21.33,27.05,28.68,41.53,7.45,14.43,12.81,29.17,16.2,43.65,6.89,28.98,6.47,56.44,2.35,79.63-4.13,23.28-11.84,42.38-19.64,57-7.85,14.65-15.64,25.02-21.18,31.76-2.72,3.43-4.99,5.83-6.49,7.49-1.51,1.65-2.31,2.5-2.31,2.5,0,0,.72-.87,2.19-2.55,1.46-1.69,3.73-4.17,6.41-7.61,5.46-6.78,13.16-17.18,20.92-31.84,7.71-14.62,15.32-33.69,19.36-56.89,4.03-23.11,4.38-50.46-2.53-79.28-3.4-14.4-8.76-29.06-16.19-43.4-7.33-14.39-16.99-28.29-28.58-41.26-23.28-25.76-55.54-47.07-93.4-57.2-37.66-10.19-80.75-9.18-120.48,6.33-39.7,15.18-75.63,44.8-98.15,83.99-25.62,43.95-31.97,96.49-20.66,142.46,5.52,23.04,15.2,44.51,27.83,63.25,12.7,18.72,28.33,34.65,45.44,47.41,8.56,6.39,17.58,11.86,26.75,16.61,9.18,4.73,18.56,8.72,28.06,11.76,18.94,6.24,38.11,9.28,56.47,9.63,18.36.47,35.92-1.76,52.03-5.82,16.12-4.08,30.79-10.03,43.76-16.96l.18-.09.19.07c29.02,11.4,54.13,21.26,74.36,29.2l-.4.38c-7.63-22.02-13.54-39.07-17.55-50.65-1.98-5.75-3.48-10.14-4.51-13.11-1.01-2.95-1.48-4.45-1.48-4.45Z"/>
    </g>
    <g>
      <g>
        <path class="st6" d="M720.97,95.98c4.31-4.08,7.47-9.82,6.95-15.73-.52-5.91-5.62-11.52-11.55-11.23,1.92-5.48.16-12.06-4.24-15.85-4.4-3.79-11.17-4.55-16.3-1.83.77-2.79-1.09-6.19-4.3-8.03-2.51-1.43-12.39-1.72-15.57,3.88l-14.5,47.11c-6.03,5.41-9.79,13.29-10.2,21.38-.41,8.09,2.52,16.31,7.97,22.31-3.66,4.85-4,11.97-.82,17.15,3.18,5.18,9.68,8.09,15.66,7.02.66,8.26,9.63,14.81,17.7,12.9,8.07-1.91,13.17-11.77,10.06-19.46,6.79,2.74,14.87-2.39,17.32-9.29,2.45-6.9.49-14.65-2.89-21.15,6.05-1.53,10.95-6.88,11.95-13.04,1-6.16-1.97-12.78-7.23-16.14Z"/>
        <g>
          <path class="st8" d="M684.16,55.45c6.49,2.6,7.48,8.06,8.55,12.64,2.31,9.84-2,23.87-7.97,32.02-5.97,8.15-12.18,12.07-22.26,12.83.72-15.32,1.44-30.63,2.16-45.95l19.52-11.54Z"/>
          <g>
            <path class="st6" d="M686.11,82.05c4.93-5.57,4.92-14.86-.02-20.42,3.15-3.45,2.49-9.15-.21-12.96-2.7-3.81-6.95-6.18-11.05-8.43-1.59-10.83-13.06-19.16-23.86-17.32-4.98-8.51-16.67-10.59-26.31-8.48-2.35.51-4.72,1.23-7.12,1.05-1.76-.13-3.45-.73-5.18-1.08-9.52-1.95-19.51,4.16-23.87,12.85-.7,1.39-1.29,2.86-2.32,4.02-1.36,1.52-3.31,2.34-5.01,3.47-3.67,2.45-6.17,6.56-6.65,10.94-.41,3.72.51,7.76-1.3,11.04-.9,1.64-2.42,2.92-3.15,4.65-2.13,5,3.2,10.63,1.78,15.88-.29,1.07-.85,2.05-1.22,3.09-.76,2.14-.72,4.55.12,6.66.65,1.63,1.77,3.15,1.76,4.9-.01,1.33-.69,2.55-1.04,3.83-.87,3.13,5.15,15.85,7.78,17.76l81.97,6.33c6.29-.84,11.73-6.12,12.76-12.39.17-1.04.26-2.18.97-2.96.6-.67,1.52-.93,2.34-1.3,5.47-2.48,6.61-9.68,6.46-15.69-.02-.84-.05-1.7.22-2.5.39-1.16,1.33-2.03,2.15-2.94Z"/>
            <path class="st2" d="M662.6,80.56c1.23-14.5-6.73-31.8-20.67-39.88-8.78-5.1-15.87-5.61-20.61-6.49-10.62-1.98-19.62,2.74-19.62,2.74-4.59.75-22.2,14.79-24.18,31.19-2.2,18.22-4.18,40.56-2.79,54.33,2.78,27.69,23.61,32.39,23.61,32.39,0-.04-5.07,45.37-5.07,45.37l38.2,35.92,19.35-51.59,11.79-103.97Z"/>
            <path class="st6" d="M583.79,92.42c-.17,1.86,1.26,3.53,3.19,3.75,1.93.22,3.64-1.11,3.81-2.96.17-1.85-1.26-3.53-3.19-3.75-1.93-.22-3.64,1.11-3.81,2.97Z"/>
            <path class="st6" d="M583.21,79.01c.41.48,3.19-1.33,6.98-1.11,3.79.17,6.45,2.28,6.89,1.84.21-.19-.18-1.05-1.34-2-1.14-.95-3.12-1.92-5.48-2.04-2.36-.12-4.39.63-5.58,1.45-1.22.83-1.66,1.63-1.46,1.85Z"/>
            <path class="st6" d="M603.65,110.18c.03-.21-2.3-.76-6.09-1.46-.96-.16-1.87-.4-1.99-1.07-.19-.71.28-1.73.81-2.83,1.04-2.29,2.14-4.69,3.28-7.2,4.57-10.25,7.94-18.71,7.53-18.89-.41-.18-4.46,7.98-9.03,18.24-1.1,2.53-2.16,4.94-3.16,7.25-.43,1.08-1.13,2.29-.72,3.77.22.74.9,1.3,1.51,1.51.61.22,1.15.27,1.63.32,3.83.43,6.21.58,6.23.37Z"/>
            <path class="st7" d="M598.34,154.83s18.51,2.27,37.43-7.68c0,0-10.9,18.78-38.21,14.63l.78-6.95Z"/>
            <path class="st6" d="M586.57,64.01c.58.96,3.52.51,6.89.99,3.39.37,6.13,1.53,6.92.74.35-.39.04-1.31-1.08-2.31-1.1-.99-3.05-1.96-5.38-2.26-2.32-.29-4.45.17-5.75.87-1.32.69-1.85,1.51-1.6,1.97Z"/>
            <path class="st6" d="M624.61,96.33c-.11,1.86-1.78,3.3-3.72,3.22-1.94-.08-3.43-1.65-3.32-3.51.11-1.86,1.78-3.3,3.72-3.22,1.94.08,3.43,1.65,3.32,3.51Z"/>
            <path class="st6" d="M634.94,83.47c-.48.42-2.95-1.8-6.73-2.15-3.77-.4-6.72,1.28-7.09.77-.18-.22.34-1.01,1.63-1.77,1.27-.76,3.38-1.42,5.73-1.19,2.35.24,4.25,1.29,5.3,2.29,1.08,1,1.39,1.87,1.16,2.05Z"/>
            <path class="st6" d="M635.96,68.64c-.83.79-3.65-.38-7.15-.76-3.49-.48-6.52-.04-7.12-1-.26-.46.29-1.28,1.66-1.97,1.35-.69,3.55-1.15,5.95-.85,2.4.3,4.41,1.27,5.55,2.27,1.15,1,1.48,1.92,1.11,2.31Z"/>
            <path class="st2" d="M656.69,106.31c.12-2.04,2.76-6.73,4.8-6.92,5.44-.53,15.13.46,14.43,14.15-.95,18.71-19.55,13.9-19.55,13.36,0-.42-.1-13.53.33-20.59Z"/>
            <path class="st7" d="M661.88,120.32c.08-.06.31.25.85.53.53.27,1.44.49,2.44.17,2.01-.62,3.84-3.68,4.1-7.05.13-1.7-.14-3.34-.67-4.72-.5-1.4-1.34-2.4-2.33-2.63-.98-.28-1.71.28-1.97.79-.28.51-.18.89-.28.92-.05.04-.39-.33-.2-1.1.1-.37.34-.8.8-1.14.47-.34,1.14-.49,1.83-.38,1.44.17,2.67,1.57,3.26,3.08.67,1.52,1.02,3.36.86,5.27-.31,3.77-2.42,7.2-5.17,7.84-1.33.28-2.41-.18-2.96-.65-.56-.49-.63-.91-.57-.95Z"/>
            <path class="st6" d="M573.35,68.13c3.92-2.14,6.52-5.22,6.54-9.68,2.46.89,5.19-2.19,6.78-4.27,1.59-2.08,3.44-3.07,3.48-5.69,0-.52,0-1.07.28-1.51.42-.7,1.32-.88,2.11-1.07,4.06-1.01,7.5-4.24,8.76-8.23,3.91,1.99,8.31,2.98,12.7,2.86,1.77,2.92,5.11,4.83,8.53,4.88,3.42.05,6.81-1.76,8.66-4.63,1,2.41,3.34,4.05,5.82,4.84,2.48.79,5.13.83,7.73.87-1.41,4.96,1.52,10.76,6.36,12.56.65.24,1.41.49,1.68,1.13.28.67-.11,1.41-.41,2.07-1.88,4.18.64,9.74,5.03,11.08-3.2,2.19-3.2,7.7,0,9.9.66.45,1.52,1,1.36,1.78-.06.3-.26.54-.46.77-1.5,1.77-3.01,3.71-3.31,6.01-.3,2.3,1.11,4.98,3.41,5.22-1.28,1.01-2.49,2.33-2.62,3.96-.12,1.62,1.43,3.38,2.98,2.88.66-.21,10.08-1.5,10.52-2.03,5.71-6.88-.48-15.2-.49-24.14,0-8.94-2.61-17.75-6.62-25.74-1.68-3.35-3.62-6.61-6.12-9.4-2.85-3.19-6.35-5.71-9.84-8.17-4.56-3.22-9.25-6.43-14.59-8.03-9.96-2.97-20.66.09-30.33,3.89-3.68,1.45-7.35,3.03-10.51,5.4-3.78,2.84-6.66,6.7-9.21,10.68-3.68,5.75-6.83,12.01-7.89,18.76"/>
            <path class="st4" d="M570.07,61.38s.23-.76,1.13-1.95c.43-.6,1.04-1.29,1.62-2.19.57-.9,1.06-2.06,1.26-3.43.23-1.37.21-2.93.19-4.63-.02-1.7-.03-3.59.48-5.55.49-1.95,1.41-3.94,2.81-5.75.7-.9,1.52-1.75,2.46-2.51.93-.77,2.01-1.4,3.09-2.02,1.07-.63,2.15-1.32,2.99-2.28.84-.97,1.39-2.18,1.98-3.42,1.19-2.49,2.84-4.89,4.97-6.96,2.12-2.07,4.65-3.92,7.58-5.14,1.44-.67,3.01-1.08,4.6-1.42,1.61-.25,3.27-.42,4.95-.26.84.04,1.67.21,2.51.35.83.18,1.64.41,2.46.6,1.63.43,3.3.57,5,.3,1.69-.23,3.37-.74,5.13-1.06,1.75-.37,3.54-.54,5.36-.62,1.82-.08,3.65.05,5.49.28,1.83.26,3.65.71,5.43,1.34,3.51,1.3,6.87,3.52,9.05,6.78.21.32.43.64.64.96l-.29-.14c5.74-.97,11.55.91,15.91,4.22,4.4,3.3,7.5,8.16,8.26,13.34l-.14-.2c2.2,1.21,4.37,2.42,6.35,3.85,1.98,1.43,3.77,3.11,5.07,5.11,1.28,2.01,2,4.31,2.05,6.6.06,2.28-.66,4.58-2.17,6.22v-.31c2.51,2.84,3.65,6.48,3.73,9.86.09,3.4-.82,6.65-2.5,9.18-.39.65-.89,1.21-1.35,1.78-.49.54-.99,1.04-1.39,1.59-.4.55-.68,1.15-.78,1.79-.1.64-.07,1.3-.06,1.94.04,2.59-.16,4.98-.62,7.09-.47,2.1-1.2,3.92-2.16,5.29-.95,1.39-2.09,2.3-3.09,2.86-1,.58-1.87.78-2.37,1.09-.51.29-.7.54-.71.52,0,0,.17-.27.68-.59.49-.34,1.36-.57,2.33-1.15.98-.57,2.08-1.48,2.99-2.86.93-1.36,1.63-3.16,2.07-5.23.44-2.08.62-4.45.56-7.02-.01-.64-.05-1.31.05-2,.09-.69.41-1.37.83-1.95.42-.58.92-1.1,1.4-1.63.44-.56.93-1.1,1.31-1.74,1.63-2.47,2.49-5.64,2.39-8.96-.1-3.3-1.22-6.83-3.65-9.56l-.14-.16.14-.16c1.41-1.54,2.08-3.71,2.02-5.89-.05-2.19-.75-4.41-1.99-6.34-1.26-1.92-3-3.56-4.95-4.96-1.95-1.41-4.1-2.61-6.3-3.81l-.12-.06-.02-.13c-.74-5.03-3.77-9.76-8.06-12.98-4.26-3.22-9.93-5.04-15.48-4.1l-.18.03-.11-.17c-.2-.31-.41-.62-.62-.93-2.1-3.14-5.35-5.29-8.77-6.57-1.73-.61-3.51-1.05-5.31-1.31-1.8-.23-3.6-.35-5.39-.28-1.78.08-3.55.24-5.27.6-1.72.32-3.41.83-5.16,1.06-.87.12-1.75.17-2.63.11-.88-.06-1.73-.24-2.56-.44-.83-.2-1.64-.43-2.45-.6-.81-.13-1.62-.3-2.44-.35-1.63-.16-3.25,0-4.82.25-1.55.34-3.09.73-4.5,1.38-2.87,1.19-5.36,2.99-7.45,5.02-2.1,2.03-3.73,4.38-4.91,6.82-.59,1.22-1.17,2.47-2.06,3.5-.89,1.03-2.02,1.72-3.1,2.35-1.09.63-2.14,1.23-3.05,1.97-.92.73-1.72,1.56-2.41,2.44-1.38,1.75-2.29,3.7-2.79,5.6-.51,1.91-.52,3.77-.51,5.47,0,1.7,0,3.28-.25,4.67-.22,1.4-.73,2.58-1.33,3.49-.61.9-1.22,1.58-1.67,2.16-.46.58-.76,1.05-.94,1.38-.19.33-.26.51-.27.5Z"/>
            <path class="st4" d="M642.44,18.28s-.48-.31-1.36-.81c-.88-.49-2.23-1.12-4.01-1.44-1.76-.32-3.98-.3-6.2.52-2.21.82-4.41,2.44-5.9,4.73-.43.66-.8,1.36-1.06,2.06-.24.69-.32,1.44.02,1.98l.42.66-.74-.26c-2.04-.71-4.2-.44-5.83.34-1.66.78-2.75,2.08-3.38,3.27-.64,1.2-.84,2.3-.92,3.04-.07.75-.04,1.16-.08,1.17-.02,0-.04-.1-.07-.3-.03-.2-.05-.49-.04-.88.02-.76.17-1.91.79-3.19.61-1.26,1.74-2.68,3.49-3.54,1.72-.86,4.01-1.18,6.22-.43l-.32.4c-.48-.76-.34-1.7-.08-2.45.28-.77.66-1.49,1.11-2.19,1.56-2.4,3.87-4.08,6.2-4.91,2.34-.84,4.65-.81,6.46-.43,1.83.37,3.18,1.08,4.05,1.64.43.28.75.53.95.71.2.18.3.28.29.29Z"/>
            <path class="st4" d="M671.49,41.59s-.22.26-.69.63c-.48.36-1.21.87-2.2,1.34-.99.46-2.29.9-3.8.89-1.49,0-3.23-.44-4.56-1.68l.42-.04c-.19.24-.39.49-.59.73-.22.24-.45.46-.68.7-1.46,1.34-3.19,2.21-4.85,2.63-1.65.43-3.22.47-4.49.29-1.28-.18-2.26-.55-2.91-.85-.64-.33-.96-.55-.94-.58.05-.11,1.41.77,3.9,1.03,1.23.12,2.73.04,4.31-.4,1.58-.42,3.22-1.27,4.6-2.54.22-.22.44-.43.65-.66.19-.23.38-.47.56-.69l.2-.24.22.21c1.19,1.12,2.79,1.56,4.18,1.59,1.41.03,2.66-.34,3.64-.74,1.97-.85,2.99-1.72,3.05-1.63Z"/>
            <path class="st4" d="M680.33,59.53s0,.12-.07.34c-.08.21-.2.53-.47.88-.5.7-1.58,1.53-3.13,1.82-1.56.31-3.45-.12-5.31-.9-.93-.4-1.9-.8-2.88-1.34-.95-.54-1.98-1.3-2.44-2.51-.03-.11-.07-.21-.1-.31l.43.16c-1.89,1.3-3.82,2.41-5.75,3-1.92.61-3.82.61-5.29.23-1.48-.37-2.55-1.08-3.15-1.67-.31-.29-.51-.55-.64-.73-.12-.18-.18-.29-.16-.3.04-.03.31.35.94.87.62.52,1.67,1.14,3.09,1.44,1.42.32,3.2.28,5.04-.33,1.85-.59,3.72-1.68,5.58-2.97l.31-.22.12.38c.03.08.05.17.08.26.37,1,1.27,1.7,2.19,2.22.92.52,1.9.94,2.81,1.34,1.81.8,3.58,1.23,5.04.99,1.46-.22,2.5-.94,3.03-1.57.55-.63.65-1.11.71-1.08Z"/>
          </g>
        </g>
        <g>
          <path class="st7" d="M619.78,115.1c-3.89.88-9.07,2.59-12.53,4.51-.33,1.91,2.81,6.13,4.59,6.9,1.78.77,4.48.47,6.04-.69,1.56-1.15,2.53-3.18,2.88-5.09.35-1.91-.43-3.78-.98-5.64Z"/>
          <path class="st6" d="M612.38,126.75c0-.2,1.77.27,4.2-.8,1.17-.54,2.48-1.49,3.3-2.96.84-1.45,1.13-3.41.67-5.3-.22-.86-.59-1.65-1.07-2.32l.62.19c-6.67,2.24-11.77,3.75-11.86,3.49-.09-.26,4.87-2.2,11.5-4.53l.38-.13.24.33c.58.78,1.02,1.71,1.28,2.7.54,2.18.16,4.44-.86,6.1-1.02,1.69-2.56,2.68-3.9,3.17-2.78.97-4.58.15-4.5.07Z"/>
        </g>
        <circle class="st4" cx="660.25" cy="128" r="6"/>
      </g>
      <g>
        <path class="st2" d="M443.69,255.31s-13.33-15.93-16.71-21.6c-3.38-5.66-5.57-7.75-10.64-11.52-5.07-3.77-18.99-12.71-23.86-11.91-3.72.61-17.81-4.54-24.16-6.07-1.95-.47-3.05,1.18-3.05,1.18h0c-1.11,3.55,4.89,8.34,9.38,10.14l5.86,2.34,3.24,13.98s-3.7,16.15-.14,19.57c3.57,3.42,3.06,2.62,8,4,4.95,1.38,23.35,1.66,23.65,2.17.29.51,11.41,16.37,11.41,16.37l17.02-18.64Z"/>
        <path class="st2" d="M356.09,205.35s3.86-1.68,7.18,3.47c3.32,5.15,5.28,9.16,5.28,9.16.4.2,3.68.64,3.68.64l5.12,6.55-1.28,4.35s-9.99-1.39-11.99-4.19c-2-2.8-8.14-15.29-8.49-17.39-.35-2.1.5-2.58.5-2.58Z"/>
        <g>
          <path class="st2" d="M390.66,243.32l-2.13-3.54,3.27-3.76s6.99,2.39,9.51-.84c2.52-3.24,1.76-3.52,1.76-3.52l-9.19-2.79,5.55-1.32s7.55,2.67,9.07-1.76l-.39-2.64s-7.09-1.99-10.4-2.15-13.61,1.28-13.61,1.28h0l9.43-2.88s3.4.46,6.06-.45c1.65-.56,2.32-2.54,1.43-4.04h0c-.31-.53-.78-.93-1.35-1.16-1.59-.65-4.98-1.87-7.54-1.93-3.36-.08-14.5,1.84-17.25,4.36-2.75,2.52-3.14,3.7-2.21,6.62.94,2.93,4.33,7.92,4.33,7.92,0,0,.08,4.03,1.8,6.39,0,0-1.65,6.7,4.82,14.31"/>
          <path class="st7" d="M383.61,251.42s-.27-.24-.73-.77c-.46-.52-1.1-1.34-1.81-2.48-.72-1.13-1.48-2.62-2.07-4.48-.54-1.87-.99-4.1-.55-6.66l.05.28c-1.25-1.76-1.77-4.09-1.92-6.58l.07.21c-.99-1.46-1.98-3.01-2.92-4.71-.9-1.7-1.9-3.53-2.01-5.81-.03-1.19.61-2.32,1.35-3.13.74-.82,1.5-1.64,2.57-2.25,2.04-1.12,4.26-1.73,6.55-2.31,2.29-.55,4.67-1,7.14-1.29,1.23-.13,2.51-.27,3.83-.11,1.3.16,2.55.47,3.8.85.62.19,1.24.4,1.85.63.58.25,1.26.39,1.91.92,1.25.98,1.61,2.89.79,4.28-.38.7-1.07,1.25-1.82,1.49-.68.23-1.37.37-2.07.46-1.4.17-2.77.17-4.2,0l.24-.02c-1.22.37-2.53.77-3.84,1.17-1.88.57-3.74,1.14-5.58,1.71l-.25-1.11c4.26-.56,8.4-1.11,12.52-1.28,2.13-.08,4.13.39,6.06.78,1.94.43,3.81.9,5.65,1.42l.33.09.05.34c.13.89.26,1.77.38,2.64l.02.13-.04.12c-.34.95-1.05,1.79-1.93,2.24-.87.46-1.82.63-2.71.65-1.8.04-3.48-.31-5.08-.83h.28c-1.92.46-3.77.89-5.56,1.31l.03-.89c2.4.74,4.68,1.45,6.85,2.13.54.17,1.07.33,1.6.5l.39.12.2.06.1.03.06.02c.15.07.15.09.2.14.36.67.06.88.01,1.18-.47,1.07-1.12,1.88-1.73,2.69-.66.87-1.64,1.41-2.58,1.64-.95.25-1.88.28-2.75.25-1.75-.11-3.28-.46-4.64-.91l.28-.08c-1.32,1.46-2.43,2.69-3.34,3.7l.02-.2c.65,1.15,1.15,2.03,1.54,2.72.33.6.47.9.45.91-.03.02-.22-.25-.6-.82-.42-.66-.97-1.52-1.68-2.63l-.07-.1.08-.1c.88-1.04,1.94-2.3,3.21-3.81l.11-.13.17.05c1.3.39,2.83.71,4.49.77,1.61.02,3.6-.2,4.72-1.7.58-.78,1.21-1.63,1.58-2.52.04-.11.07-.22.09-.31.02-.12-.06-.07.21-.21l.03-.03.02-.02c.14-.24-.19.31-.14.26l.05.02h-.04s-.1-.04-.1-.04l-.2-.06-.39-.12c-.53-.16-1.06-.31-1.6-.48-2.17-.65-4.46-1.33-6.86-2.04l-1.63-.48,1.66-.4c1.79-.43,3.63-.88,5.54-1.35l.13-.03.14.05c1.47.47,3.12.79,4.72.74,1.61-.02,3.19-.71,3.69-2.21l-.02.25c-.13-.87-.26-1.74-.4-2.64l.38.43c-1.81-.49-3.69-.96-5.6-1.37-1.91-.38-3.86-.82-5.8-.73-4,.18-8.17.73-12.39,1.29l-.25-1.11c1.84-.56,3.7-1.13,5.58-1.71,1.32-.4,2.62-.8,3.84-1.17l.11-.03h.13c1.28.16,2.63.17,3.9,0,.64-.08,1.26-.21,1.85-.4.52-.17.93-.51,1.2-.97.54-.92.31-2.2-.52-2.85-.36-.32-.99-.49-1.59-.74-.6-.22-1.19-.43-1.79-.61-1.2-.37-2.41-.68-3.6-.83-1.17-.16-2.38-.03-3.59.09-2.41.27-4.76.7-7.01,1.22-2.24.54-4.45,1.15-6.3,2.15-.88.47-1.64,1.26-2.33,2.02-.69.76-1.15,1.6-1.15,2.51.06,1.89.97,3.74,1.84,5.39.9,1.67,1.86,3.23,2.81,4.68l.06.1v.12c.11,2.34.6,4.63,1.68,6.2l.08.12-.03.16c-.44,2.31-.08,4.55.4,6.35.52,1.82,1.21,3.31,1.87,4.45,1.32,2.29,2.31,3.36,2.22,3.43Z"/>
        </g>
        <path class="st7" d="M393.35,244.97c-.08-.11,1.1-1.18,3.29-2.51,2.19-1.33,5.44-2.84,9.24-3.81,3.81-.96,7.39-1.16,9.95-1.03,2.56.13,4.11.51,4.09.65-.02.37-6.32-.43-13.75,1.49-7.45,1.83-12.62,5.52-12.81,5.21Z"/>
        <path class="st7" d="M394.68,228.85c-.06.19-1.13-.15-2.84-.24-1.71-.07-4.05.44-6.19,1.98-2.13,1.52-3.75,3.38-4.95,4.68-1.19,1.32-1.97,2.12-2.1,2.02-.12-.1.43-1.06,1.47-2.53,1.05-1.45,2.61-3.46,4.92-5.11,2.32-1.69,5.09-2.16,6.92-1.85,1.85.31,2.82.95,2.77,1.05Z"/>
        <path class="st7" d="M384.51,222.2c.05.3-2.44.96-4.46,3.33-2.07,2.28-3.03,4.7-3.35,4.59-.29-.05.22-2.83,2.5-5.36,1.12-1.25,2.46-2.09,3.53-2.42,1.06-.35,1.77-.28,1.78-.14Z"/>
      </g>
      <g>
        <path class="st8" d="M696.63,198.2s18.24,4.85,18.79,28.87c.48,21.25,10.39,80.99,10.67,102.55.27,21.57-2.19,37.81-29.5,42.4-22.06,3.71-45.44-45.86-45.44-45.86l22.45-19.45-9.36-38.97s-6.22-13.38,8.52-41.49c14.74-28.12,23.88-28.05,23.88-28.05Z"/>
        <path class="st8" d="M595.13,161.32l-10.55,13.93-33.55,7.21s-24.7,52.54-23.55,76.69c1.15,24.15,3.76,36.15,3.76,36.15l-.22,27.65s-10.42,23-5.78,32.97c4.63,9.97,17.67,19.17,17.67,19.17l121.77,1.53s8.68,4.98,13.23-8.05c4.56-13.04-2.69-108.12-2.69-108.12l23.73-61.16-38.4-20.94-7.02-18.54-45.95,11.72-12.45-10.21Z"/>
        <g>
          <path class="st2" d="M682.45,312.51l-5.07-7.44-26.24,11.35,2.46,8.5s8.95,10.06,17.78,6.71c8.83-3.35,10.4-13.31,10.4-13.31l.67-5.81Z"/>
          <g>
            <path class="st2" d="M659.75,292.61s3.67-4.82,6.41-5.88c2.74-1.07,3.96-1.37,3.96-1.37,0,0-1.37-5.02,3.81-5.48,0,0,1.98,1.67,3.65,1.67s2.89.46,3.35,2.44c.46,1.98,1.67,7.46,0,10.05-1.67,2.59-4.72,5.18-3.35,12.18,0,0-1.83,7.76-5.78,9.74-3.96,1.98-5.94,1.83-5.94,1.83,0,0-3.65,4.41-6.7,3.81-3.04-.61-4.41-.76-4.41-.76,0,0-2.44,3.77-7.76.82,0,0-2.88,2.05-5.94.4-1.42-.77-8.37-7.76-8.68-13.09-.3-5.33-.1-8.99,1.22-10.96,1.95-2.93,4.79-.28,4.79-.28,0,0,.69-5.05,2.67-7.03,1.98-1.98,3.5-1.67,3.5-1.67,0,0-.61-6.09,4.11-6.55,4.72-.46,4.26,5.18,4.41,8.22l.15,3.04s1.9-4.47,6.53-1.12Z"/>
            <path class="st7" d="M659.75,292.61c.02.09-.6-.4-1.8-.85-.6-.21-1.42-.36-2.3-.08-.86.28-1.72,1.06-2.21,2.14l-.4.87-.06-.95c-.08-1.3-.2-2.75-.25-4.37-.08-1.58-.09-3.39-.87-4.98-.69-1.7-3.06-1.97-4.75-1.05-1.73.96-2.28,3.42-2.13,5.62l.03.49-.55-.02c-1.38-.06-3.14,1.23-3.93,2.75-.86,1.63-1.35,3.61-1.67,5.59l-.14.89-.68-.6c-.94-.82-2.38-1.35-3.33-.57-.99.77-1.46,2.23-1.68,3.68-.23,1.47-.26,3.02-.24,4.59.06,1.56.01,3.23.4,4.68.87,3,2.89,5.78,5.13,8.29.57.63,1.16,1.24,1.78,1.82.31.28.63.56.95.8.27.19.66.38,1.02.5,1.47.53,3.25.16,4.57-.69l.31-.2.3.16c1.42.77,3.15,1.33,4.75.89.9-.22,1.75-.84,2.26-1.52l.23-.31.31.05c1.06.18,2.11.36,3.16.55.5.08,1.1.21,1.52.24.42.07.87-.03,1.31-.15,1.78-.61,3.35-2.04,4.62-3.47l.18-.2h.3c1.32-.03,2.86-.54,4.2-1.1,1.43-.58,2.59-1.22,3.46-2.39,1.76-2.23,2.79-5.01,3.51-7.65v.22c-.65-3.12-.44-6.53,1.16-9.18.74-1.32,1.74-2.45,2.41-3.56.6-1.09.7-2.48.68-3.77-.02-1.31-.2-2.6-.42-3.84-.27-1.23-.37-2.57-1.06-3.29-.34-.36-.82-.57-1.35-.65-.5-.11-1.11,0-1.76-.19-1.21-.33-2.16-.97-3.04-1.67l.27.09c-1.38.11-2.63.67-3.21,1.71-.56,1.03-.56,2.29-.34,3.32l.06.28-.28.09c-.97.32-1.9.63-2.77.92-.89.28-1.67.53-2.31.99-1.31.87-2.28,1.84-3.05,2.6-.77.78-1.33,1.41-1.71,1.83-.38.42-.58.64-.6.62-.02-.02.13-.26.47-.72.34-.45.86-1.12,1.6-1.94.75-.81,1.68-1.83,3.03-2.77.67-.5,1.53-.81,2.4-1.11.88-.32,1.81-.65,2.8-1l-.22.37c-.27-1.17-.32-2.52.33-3.8.68-1.31,2.23-2,3.73-2.13h.15s.13.09.13.09c.79.62,1.74,1.22,2.75,1.47.86.19,2.49-.1,3.53,1.03.5.52.76,1.19.91,1.83.14.61.28,1.23.41,1.87.24,1.27.44,2.6.48,3.98.02,1.37-.02,2.85-.76,4.26-.77,1.3-1.7,2.34-2.38,3.59-1.44,2.44-1.62,5.49-1,8.49l.02.12-.03.11c-.75,2.79-1.75,5.61-3.68,8.1-.49.61-1.07,1.18-1.75,1.65-.72.48-1.4.74-2.12,1.07-1.47.59-2.9,1.16-4.72,1.19l.48-.2c-1.41,1.57-2.97,3.06-5.15,3.84-.55.16-1.15.29-1.78.2-.62-.07-1.05-.17-1.59-.25-1.03-.18-2.06-.35-3.09-.53l.54-.26c-.75,1.02-1.75,1.68-2.91,2-2.04.55-4.06-.15-5.61-.99l.61-.03c-1.66,1.07-3.72,1.48-5.6.83-.47-.16-.88-.35-1.33-.66-.38-.29-.72-.59-1.05-.89-.65-.61-1.26-1.24-1.85-1.89-2.3-2.62-4.38-5.44-5.35-8.77-.44-1.73-.36-3.34-.42-4.95-.01-1.61.03-3.2.28-4.77.27-1.54.72-3.22,2.11-4.32.7-.53,1.7-.71,2.51-.48.82.21,1.48.61,2.1,1.14l-.82.29c.35-2.1.85-4.1,1.83-5.91.49-.91,1.23-1.69,2.04-2.25.83-.56,1.72-1.02,2.88-.91l-.52.47c-.08-1.27.05-2.47.44-3.62.36-1.14,1.13-2.2,2.17-2.77,1.05-.57,2.2-.68,3.29-.5,1.12.17,2.05,1,2.47,1.92.85,1.85.79,3.68.84,5.28.02,1.59.1,3.06.14,4.36l-.46-.08c.59-1.2,1.55-2.01,2.54-2.3,1-.27,1.88-.06,2.49.2,1.25.54,1.66,1.06,1.72,1.08Z"/>
          </g>
          <path class="st7" d="M675.79,291.3c-.02.15-.56.26-1.41.06-.84-.19-1.98-.75-2.87-1.77-.89-1.03-1.29-2.23-1.36-3.09-.08-.87.11-1.39.25-1.38.32-.01.46,2.01,1.97,3.72,1.48,1.73,3.47,2.15,3.41,2.47Z"/>
          <path class="st7" d="M668.95,306.72c-.33.12-1.7-3.45-4.21-7.37-2.48-3.94-5.23-6.58-5.01-6.83.17-.24,3.39,2.12,5.97,6.21,2.6,4.07,3.52,7.91,3.24,7.98Z"/>
          <path class="st7" d="M653.35,292.52c.19.03-.1,1.47.39,3.68.44,2.23,1.86,5.04,3.65,8.11.87,1.55,1.67,3.09,2.2,4.58.57,1.49.72,2.93,1.02,3.99.56,2.22,2.03,2.79,1.95,2.91-.01.06-.42.07-1.02-.31-.59-.37-1.29-1.19-1.7-2.34-.44-1.16-.66-2.49-1.24-3.87-.56-1.39-1.34-2.86-2.21-4.4-1.78-3.04-3.2-6.12-3.45-8.53-.31-2.41.3-3.86.41-3.81Z"/>
          <path class="st7" d="M650.83,313.31c-.09.1-1.34-.75-3.06-2.51-.84-.89-1.8-2.07-2.46-3.63-.68-1.57-.89-3.4-1.06-5.23-.7-7.43.13-13.45.42-13.41.34.02.03,6,.72,13.3.17,1.83.34,3.54.9,4.95.54,1.41,1.36,2.57,2.1,3.49,1.51,1.84,2.58,2.92,2.45,3.05Z"/>
          <path class="st7" d="M642.36,314.73c-.16.06-.66-.89-1.86-2.16-.58-.66-1.33-1.42-2.03-2.44-.72-1.02-1.2-2.4-1.32-3.82-.22-2.87.5-5.28.72-7,.29-1.73.27-2.81.44-2.83.15-.03.45,1.09.37,2.91-.03,1.81-.59,4.25-.39,6.82.12,2.62,1.79,4.39,2.84,5.86,1.09,1.46,1.37,2.63,1.22,2.67Z"/>
        </g>
        <path class="st6" d="M714.64,332.15c-.19.1-.88-2.11-3.48-4.49-1.28-1.18-3.02-2.38-5.11-3.39-2.09-1.01-4.54-1.82-7.15-2.61-2.61-.79-5.13-1.53-7.35-2.47-2.22-.93-4.12-2.03-5.56-3.16-1.44-1.13-2.42-2.27-2.99-3.11-.57-.85-.77-1.38-.71-1.41.17-.12,1.28,1.87,4.19,3.87,1.44,1,3.3,1.99,5.47,2.83,2.17.85,4.66,1.56,7.29,2.35,2.62.79,5.13,1.65,7.28,2.76,2.15,1.1,3.92,2.43,5.2,3.75,1.28,1.33,2.06,2.61,2.47,3.55.41.94.5,1.5.44,1.52Z"/>
        <path class="st8" d="M435.76,240.11l8.55,8.24s3.75.26,10.82,2.31c7.07,2.05,21.88,20.75,21.88,20.75l37.78-55.78s18.56-31.25,36.25-33.18l-14.06,88.04s-37.56,49.64-55.67,55.86c-18.11,6.22-57.18-42.44-58.83-51.29l-11.5-13.84,24.79-21.11Z"/>
        <path class="st6" d="M690.99,372.98c-.03.07-.86-.22-2.35-.82-1.47-.63-3.55-1.67-5.98-3.22-4.86-3.07-10.78-8.49-16.22-15.32-2.74-3.4-5.17-6.77-7.33-9.86-2.11-3.1-4.21-5.82-5.35-8.54-1.18-2.7-1.15-5.23-.7-6.79.22-.79.51-1.36.75-1.72.23-.36.4-.52.43-.5.1.05-.45.79-.74,2.32-.3,1.51-.2,3.85,1,6.36,1.16,2.52,3.3,5.18,5.47,8.26,2.2,3.05,4.64,6.38,7.36,9.75,5.39,6.77,11.11,12.17,15.78,15.37,4.65,3.23,7.97,4.5,7.87,4.71Z"/>
        <path class="st6" d="M668.93,249.68c.33.02.19,6.88.55,15.32.34,8.44,1.04,15.27.71,15.31-.15.02-.52-1.67-.91-4.43-.39-2.76-.77-6.59-.95-10.84-.17-4.25-.11-8.1.05-10.88.16-2.78.39-4.49.54-4.49Z"/>
        <path class="st6" d="M696.37,200.79c.02.27-2.71.12-6.58,1.76-3.9,1.55-8.53,5.34-12.22,10.62-3.72,5.27-5.91,10.78-7.12,14.83-1.21,4.06-1.49,6.7-1.7,6.68-.08,0-.06-.67.03-1.87.03-.6.13-1.33.29-2.17.15-.84.3-1.81.59-2.85,1.03-4.17,3.14-9.86,6.96-15.27,1.93-2.68,4.03-5.06,6.28-6.87,2.25-1.78,4.5-3.16,6.57-3.84.51-.18.99-.38,1.46-.52.47-.1.92-.19,1.36-.28.84-.2,1.58-.3,2.19-.28,1.21-.03,1.87,0,1.87.07Z"/>
        <path class="st6" d="M546.14,200.79s-.09.35-.37.96c-.34.73-.75,1.61-1.25,2.66-.57,1.14-1.24,2.54-1.94,4.21-.71,1.66-1.6,3.52-2.39,5.66-1.72,4.21-3.48,9.34-5.13,15.12-1.58,5.8-3.01,12.25-4.01,19.12-.94,6.87-1.34,13.48-1.42,19.49,0,6.01.27,11.42.77,15.95.17,2.27.51,4.3.74,6.09.21,1.8.48,3.33.71,4.58.19,1.15.34,2.1.47,2.9.09.67.13,1.02.09,1.03-.04,0-.15-.33-.31-.98-.19-.79-.41-1.73-.68-2.86-.3-1.24-.63-2.77-.9-4.57-.29-1.79-.69-3.83-.91-6.1-.6-4.54-.96-9.98-1.02-16.04.02-6.05.39-12.71,1.34-19.64,1-6.92,2.48-13.42,4.13-19.25,1.72-5.8,3.57-10.94,5.4-15.14.84-2.13,1.79-3.97,2.56-5.62.76-1.65,1.5-3.03,2.13-4.14.57-1.02,1.05-1.86,1.44-2.56.34-.58.54-.88.57-.86Z"/>
        <path class="st6" d="M660.56,178.34s-.29.2-.89.48c-.6.28-1.48.69-2.64,1.18-2.31.99-5.69,2.35-9.94,3.89-8.49,3.1-20.5,6.83-34.18,9.93l-.55.13-.13-.56c-.25-1.06-.53-2.2-.85-3.34-1.64-5.96-3.62-11.6-4.85-17.03l.95.22c-4.81,5.86-9.14,11.06-13.02,15.09l-.3.31-.29-.31c-1.72-1.87-2.91-3.77-4.01-5.4-1.05-1.6-1.98-3-2.77-4.2-1.53-2.3-2.56-3.42-2.49-3.48.02-.02.33.22.83.75.51.53,1.19,1.36,2.03,2.47.84,1.11,1.81,2.49,2.94,4.1,1.14,1.58,2.4,3.46,4.06,5.2h-.59c3.74-4.06,8.02-9.33,12.77-15.21l.7-.86.25,1.08c1.25,5.33,3.25,10.96,4.9,16.97.32,1.15.61,2.3.86,3.39l-.68-.43c13.64-3.07,25.64-6.66,34.17-9.56,4.27-1.44,7.69-2.68,10.04-3.55,2.35-.87,3.65-1.34,3.69-1.26Z"/>
        <path class="st6" d="M593.21,381.43s-.18-.06-.5-.24c-.31-.19-.8-.43-1.39-.84-1.15-.84-2.79-2.24-4.28-4.53-1.48-2.29-2.81-5.41-3.57-9.2-.81-3.78-1.16-8.18-1.19-13.01-.02-19.29-.28-45.98,1.79-75.38,1.05-14.7,2.71-28.66,4.89-41.25,2.1-12.61,4.97-23.77,7.66-33.04,5.57-18.52,10.96-29.24,10.96-29.24.02,0-.03.19-.16.53-.15.41-.33.9-.56,1.52-.55,1.41-1.3,3.34-2.25,5.78-1.05,2.48-2.06,5.62-3.32,9.24-1.33,3.59-2.51,7.79-3.89,12.4-2.59,9.27-5.37,20.42-7.4,33-2.11,12.56-3.74,26.48-4.79,41.15-2.07,29.34-1.93,56.01-2.12,75.29-.01,4.81.28,9.15,1.01,12.89.69,3.74,1.93,6.82,3.32,9.09,2.87,4.57,5.95,5.69,5.79,5.86Z"/>
        <path class="st6" d="M627.5,339.94c-.01.08-1.14-.03-3.16-.3-2.02-.26-4.94-.74-8.52-1.44-7.16-1.39-16.98-3.83-27.51-7.51-10.52-3.7-19.72-7.92-26.18-11.31-3.23-1.69-5.81-3.13-7.56-4.19-1.75-1.05-2.7-1.67-2.66-1.73.04-.07,1.06.41,2.87,1.34,1.8.94,4.43,2.27,7.7,3.86,6.54,3.19,15.73,7.27,26.2,10.95,10.47,3.66,20.2,6.21,27.29,7.8,3.55.8,6.43,1.4,8.43,1.8,2,.4,3.1.67,3.08.74Z"/>
        <g class="st1">
          <path d="M687.41,316.09s.03,0,.04,0c-.09-.07-.19-.13-.27-.2l.23.19Z"/>
          <path d="M720.24,326.03c-.71-3.84-3.93-6.86-7.57-8.3-3.64-1.43-7.65-1.52-11.56-1.35-3.89.17-9.79.21-13.66-.29,3.86,3.06,10.59,4.37,15.85,6.58,2.96,1.25,6,2.54,8.3,4.79.94.92,1.75,2,2.8,2.8,1.05.8,2.45,1.31,3.7.87,1.9-.66,2.51-3.13,2.15-5.11Z"/>
        </g>
        <g class="st1">
          <path d="M535.36,226.47c-6.59,7.34-11.33,16.41-12.25,26.23-.92,9.82,1.38,19.91,6.49,28.35l.09-.35c-2.15-18.87-.68-36.34,5.68-54.23Z"/>
        </g>
      </g>
    </g>
    <path class="st6" d="M528.58,407.34l14.34-32.26,132.88-2.05,18.56,32.2s-75.7,34.71-165.77,2.1Z"/>
  </g>
  <path class="st10" d="M310.05,317.06l-7.27-7.14,7.27-7.14,6.83,6.71c.24.24.24.63,0,.86l-6.83,6.71Z"/>
  <path class="st10" d="M290.74,317.06l7.27-7.14-7.27-7.14-6.83,6.71c-.24.24-.24.63,0,.86l6.83,6.71Z"/>
  <path class="st10" d="M307.54,319.57l-7.14-7.27-7.14,7.27,6.71,6.83c.24.24.63.24.86,0l6.71-6.83Z"/>
  <path class="st10" d="M293.25,300.27l7.14,7.27,7.14-7.27-6.71-6.83c-.24-.24-.63-.24-.86,0l-6.71,6.83Z"/>
  <path class="st10" d="M644.8,241.44l-6.31-8.01,8.12-6.17,5.93,7.52c.21.27.16.65-.11.86l-7.63,5.79Z"/>
  <path class="st10" d="M625.65,239l8.12-6.17-6.31-8-7.63,5.79c-.27.21-.32.59-.11.86l5.93,7.52Z"/>
  <path class="st10" d="M641.99,243.62l-6.17-8.12-8,6.31,5.79,7.63c.21.27.59.32.86.11l7.52-5.93Z"/>
  <path class="st10" d="M630.26,222.66l6.17,8.12,8-6.31-5.79-7.63c-.21-.27-.59-.32-.86-.11l-7.52,5.93Z"/>
</svg>
