<?xml version="1.0" encoding="UTF-8"?>
<svg xmlns="http://www.w3.org/2000/svg" version="1.1" viewBox="0 0 900 512.24">
  <!-- Generator: Adobe Illustrator 30.2.1, SVG Export Plug-In . SVG Version: 2.1.1 Build 1)  -->
  <defs>
    <style>
      .st0 {
        fill: #fafafa;
      }

      .st1 {
        fill: #2bd6c0;
      }

      .st1, .st2, .st3, .st4, .st5 {
        mix-blend-mode: multiply;
      }

      .st6 {
        stroke: #974782;
      }

      .st6, .st7 {
        fill: none;
        stroke-miterlimit: 10;
        stroke-width: .05px;
      }

      .st8 {
        fill: #128af4;
      }

      .st2 {
        fill: #fd8e92;
      }

      .st9 {
        fill: #37bffa;
      }

      .st10 {
        fill: #263238;
      }

      .st11 {
        fill: #19d3bb;
      }

      .st12 {
        fill: #fbb842;
      }

      .st13 {
        opacity: .3;
      }

      .st14 {
        fill: #fa494d;
      }

      .st15 {
        fill: #a35c90;
      }

      .st16 {
        fill: #fff;
      }

      .st17 {
        fill: #fc888d;
      }

      .st18 {
        fill: #3ec1fa;
      }

      .st19 {
        fill: #f8871f;
      }

      .st20 {
        fill: #e0e0e0;
      }

      .st21 {
        fill: #455a64;
      }

      .st3 {
        fill: #2dd7c1;
      }

      .st7 {
        stroke: #fd9094;
      }

      .st22 {
        fill: #9a4d86;
      }

      .st23 {
        fill: #1fac8a;
      }

      .st24 {
        fill: #c9003f;
      }

      .st25 {
        isolation: isolate;
      }

      .st26 {
        fill: #a0568c;
      }

      .st4 {
        fill: #fd9094;
      }

      .st27 {
        fill: #f88b26;
      }

      .st28 {
        fill: #fa5256;
      }

      .st29 {
        fill: #fc7a80;
      }

      .st30 {
        fill: #fbba48;
      }

      .st31 {
        fill: #9e538a;
      }

      .st32 {
        fill: #fcbc4d;
      }

      .st33 {
        fill: #ebebeb;
      }

      .st34 {
        fill: #3d5593;
      }

      .st35 {
        fill: #ff9a6c;
      }

      .st36 {
        fill: #ccc;
      }

      .st37 {
        fill: #b3b3b3;
      }

      .st38 {
        fill: #2fbdfa;
      }

      .st39 {
        fill: #ffc09d;
      }

      .st40 {
        fill: #9f558c;
      }

      .st5 {
        fill: #28d6bf;
      }

      .st41 {
        fill: #c17560;
      }

      .st42 {
        fill: #2191f4;
      }
    </style>
  </defs>
  <g class="st25">
    <g id="Capa_1">
      <g>
        <path class="st10" d="M604.07,239.02s.21-.02.62-.05c.41-.03,1.03-.11,1.82-.34,1.52-.44,3.92-1.64,5.41-4.5.38-.7.63-1.51.8-2.38.18-.87.15-1.81.15-2.8,0-1.98-.01-4.14-.02-6.49-.01-4.69-.02-10.1-.04-16.19-.03-24.37-.07-59.61-.13-103.15,0-10.89-.02-22.29-.03-34.18,0-5.94,0-12.01-.01-18.18,0-3.09,0-6.21,0-9.35-.01-1.56.02-3.17-.03-4.72-.06-1.53-.59-3.03-1.43-4.31-.87-1.27-2.07-2.33-3.49-2.98-1.41-.71-2.96-.85-4.59-.81-3.25,0-6.54,0-9.84,0-6.62,0-13.34,0-20.16,0-13.64,0-27.68.01-42.07.02-57.58,0-120.89.02-187.33.03-1.99,0-3.95.71-5.47,1.98-1.52,1.27-2.56,3.08-2.91,5.02-.19.96-.13,1.97-.14,3.01v3.09c0,2.06,0,4.11,0,6.16,0,8.21,0,16.36,0,24.45,0,16.18,0,32.13,0,47.8,0,31.34-.02,61.56-.02,90.36,0,3.6,0,7.18,0,10.73,0,1.78,0,3.55,0,5.31.04,1.75-.12,3.57.16,5.2.61,3.33,3.38,6.09,6.66,6.72,1.61.29,3.38.13,5.09.18,1.72,0,3.43,0,5.13,0,13.64,0,26.88.01,39.69.02,25.61.02,49.46.03,71.24.05,43.54.05,78.78.1,103.15.13,12.17.03,21.62.06,28.04.08,3.2.02,5.64.03,7.29.04,1.64.01,2.48.04,2.48.04,0,0-.84.03-2.48.04-1.66,0-4.1.02-7.29.04-6.42.02-15.87.04-28.04.08-24.37.03-59.6.07-103.15.13-21.78.02-45.63.03-71.24.05-12.8,0-26.05.01-39.69.02-1.71,0-3.42,0-5.13,0-1.72-.05-3.42.13-5.23-.19-3.56-.68-6.56-3.67-7.23-7.29-.31-1.84-.13-3.57-.18-5.34,0-1.77,0-3.54,0-5.31,0-3.55,0-7.13,0-10.73,0-28.79-.02-59.02-.02-90.36,0-15.67,0-31.61,0-47.8,0-8.09,0-16.24,0-24.45,0-2.05,0-4.11,0-6.16v-3.09c.01-1.01-.06-2.08.15-3.16.38-2.12,1.52-4.11,3.19-5.5,1.66-1.39,3.82-2.16,5.99-2.17,66.45.01,129.75.02,187.33.03,14.4,0,28.43.01,42.07.02,6.82,0,13.54,0,20.16,0,3.31,0,6.59,0,9.84,0,1.61-.04,3.39.12,4.88.88,1.53.7,2.82,1.85,3.75,3.21.91,1.39,1.48,3,1.54,4.65.05,1.62.01,3.18.02,4.76,0,3.15,0,6.26,0,9.35,0,6.18,0,12.24-.01,18.18,0,11.89-.02,23.29-.03,34.18-.05,43.54-.1,78.78-.13,103.15-.01,6.09-.03,11.5-.04,16.19,0,2.34-.01,4.51-.02,6.49,0,.98.02,1.95-.17,2.84-.19.88-.45,1.71-.84,2.42-1.54,2.91-3.99,4.09-5.53,4.51-.8.22-1.42.28-1.84.3-.42.01-.63.01-.63.01Z"/>
        <g>
          <path class="st20" d="M362.14,48.31c0,2.04-1.74,3.7-3.88,3.7s-3.88-1.66-3.88-3.7,1.74-3.7,3.88-3.7,3.88,1.66,3.88,3.7Z"/>
          <path class="st20" d="M373.89,48.31c0,2.04-1.74,3.7-3.88,3.7s-3.88-1.66-3.88-3.7,1.74-3.7,3.88-3.7,3.88,1.66,3.88,3.7Z"/>
          <path class="st20" d="M385.64,48.31c0,2.04-1.74,3.7-3.88,3.7s-3.88-1.66-3.88-3.7,1.74-3.7,3.88-3.7,3.88,1.66,3.88,3.7Z"/>
        </g>
      </g>
      <g>
        <g>
          <g>
            <rect class="st0" x="769.33" y="210.6" width="123.89" height="116.43" rx="6.94" ry="6.94"/>
            <path class="st20" d="M769.33,217.54s-.06-.41.07-1.21c.12-.79.45-1.99,1.44-3.24.97-1.21,2.71-2.47,5.07-2.59,2.29-.05,4.92-.04,7.89-.06,11.88-.03,29.04-.08,50.22-.13,10.6-.02,22.22-.03,34.68-.05,3.12,0,6.29,0,9.51-.01,1.61,0,3.23,0,4.87,0,.82,0,1.64,0,2.46,0,.8-.01,1.71,0,2.55.23,1.7.43,3.24,1.49,4.23,2.96.5.73.86,1.56,1.07,2.43.21.87.2,1.79.2,2.62,0,3.41,0,6.88,0,10.38.01,28.04.02,58.86.03,91.21.01,2.15-.99,4.26-2.62,5.63-.81.69-1.78,1.19-2.8,1.47-1.03.3-2.12.27-3.09.26-3.99,0-7.96,0-11.9,0-7.88,0-15.64,0-23.27,0-15.26,0-29.97-.02-44-.02-7.01,0-13.85-.01-20.49-.02-3.33-.02-6.56.03-9.84-.04-1.69-.15-3.3-.91-4.48-2.08-1.18-1.18-1.93-2.75-2.11-4.37-.08-12.54,0-24.1,0-34.72.06-21.19.1-38.34.13-50.22.03-5.91.06-10.51.08-13.65.02-1.54.03-2.73.04-3.55.01-.8.04-1.21.04-1.21,0,0,.03.41.04,1.21,0,.83.02,2.01.04,3.55.02,3.15.04,7.74.08,13.65.03,11.88.08,29.03.13,50.22.03,10.59.06,22.19.09,34.64.16,1.47.85,2.89,1.92,3.95,1.07,1.06,2.52,1.73,4.05,1.87,3.16.06,6.48,0,9.78.02,6.64,0,13.48-.01,20.49-.02,14.02,0,28.74-.02,44-.02,7.63,0,15.39,0,23.27,0,3.94,0,7.91,0,11.9,0,1.02,0,1.96.03,2.87-.24.91-.25,1.77-.68,2.49-1.3,1.45-1.22,2.33-3.09,2.32-5,.01-32.35.02-63.17.03-91.21,0-3.5,0-6.97,0-10.38.08-1.71-.2-3.3-1.13-4.64-.89-1.32-2.28-2.29-3.8-2.67-.77-.2-1.53-.23-2.37-.22-.82,0-1.65,0-2.46,0-1.64,0-3.26,0-4.87,0-3.22,0-6.39,0-9.51-.01-12.47-.02-24.08-.04-34.68-.05-21.19-.06-38.34-.1-50.22-.13-2.96,0-5.59-.01-7.87-.02-2.27.09-3.98,1.28-4.95,2.45-.98,1.2-1.34,2.37-1.48,3.15-.15.78-.12,1.2-.15,1.2Z"/>
          </g>
          <g>
            <path class="st20" d="M862.35,309.89c0,.2-14.16.36-31.63.36s-31.63-.16-31.63-.36,14.16-.36,31.63-.36,31.63.16,31.63.36Z"/>
            <path class="st20" d="M848.26,315.7c0,.2-7.85.36-17.54.36s-17.54-.16-17.54-.36,7.85-.36,17.54-.36,17.54.16,17.54.36Z"/>
          </g>
        </g>
        <g>
          <path class="st33" d="M833.21,264.71l31.45.43c-.24,16.76-14.36,30.42-31.45,30.42-.06,0-.12,0-.18,0l.18-30.85Z"/>
          <path class="st20" d="M828.23,260.24l-.44,30.85c-17.08-.24-31.01-14.09-31.01-30.85s14.2-30.85,31.45-30.85,31.45,13.93,31.45,30.85h-31.45Z"/>
        </g>
      </g>
      <g>
        <g>
          <path class="st20" d="M608.74,440.93s-4.74-32.6-4.35-51.57c.4-18.97-.02-40.3-.02-40.3h2.18s-1.48,37.65.13,60.35c1.61,22.69,5.85,31.52,5.85,31.52h-3.79"/>
          <path class="st20" d="M622.87,312.38c-.44-1.11-.98-2.27-1.99-2.91-1.39-.88-3.2-.51-4.75.03-6.6,2.33-12.45,14.64-15.12,21.12l8.76,29.53c15.82-14.68,18.56-33.93,13.1-47.77Z"/>
          <path class="st33" d="M620.36,310.66s-.03.14-.13.39c-.11.28-.25.64-.43,1.08-.38.93-.92,2.28-1.57,3.96-1.29,3.35-2.94,8.04-4.41,13.32-1.46,5.29-2.47,10.15-3.09,13.69-.31,1.77-.55,3.21-.7,4.2-.08.46-.14.84-.19,1.14-.05.26-.08.4-.09.4-.01,0,0-.14.02-.4.03-.3.07-.68.12-1.15.11-1,.3-2.44.58-4.22.56-3.56,1.53-8.44,3-13.74,1.47-5.3,3.16-9.99,4.52-13.32.68-1.67,1.25-3.01,1.68-3.92.2-.43.36-.77.49-1.05.12-.24.18-.36.19-.36Z"/>
          <path class="st33" d="M605.87,367.23c-8.22-4.54-13.06-13.08-13.51-22.45-.32-6.55,1.7-12.98,3.98-19.14.2-.53.43-1.11.93-1.39.69-.39,1.55-.04,2.24.35,5.97,3.4,9.59,9.88,11.51,16.47,1.28,4.39,1.94,9.02,1.35,13.55-.59,4.53-3.18,9.46-6.5,12.61"/>
          <path class="st20" d="M605.87,367.23s-.02-.14-.03-.4c0-.3-.01-.67-.02-1.13,0-.98-.04-2.41-.12-4.16-.16-3.51-.62-8.35-1.52-13.64-.91-5.29-2.02-10.03-2.83-13.45-.4-1.68-.73-3.05-.97-4.05-.1-.45-.19-.81-.25-1.11-.05-.25-.08-.39-.06-.39.01,0,.06.13.13.37.08.29.19.65.32,1.09.27.95.64,2.32,1.08,4.03.88,3.41,2.03,8.15,2.94,13.45.91,5.3,1.33,10.17,1.42,13.69.05,1.76.05,3.19,0,4.17-.02.46-.03.83-.05,1.13-.01.26-.03.39-.04.39Z"/>
          <path class="st33" d="M615.14,417.11c8.09,1.78,14.74,7.48,22.54,10.25,5.16,1.83,11,2.48,15.12,6.09-.99-2.5-3.33-4.16-5.61-5.58-6.42-4.01-13.28-7.29-20.43-9.75-3.67-1.27-7.65-2.33-11.39-1.28"/>
          <path class="st33" d="M603.45,424.31c-10.13-.16-20.79-8.78-30.87-9.3,10.55-3.41,25.65-.62,30.87,9.3"/>
          <path class="st33" d="M607.41,400.02c5.14-1.85,10.79-1.94,16.19-1.1,5.4.84,10.62,2.57,15.8,4.3-.52-3.51-3.36-6.15-6.04-8.49-2.01-1.76-4.04-3.53-6.35-4.88-2.31-1.35-4.94-2.26-7.61-2.15-3.22.14-6.29,1.8-8.4,4.23-2.11,2.44-3.25,4.89-3.6,8.09"/>
          <path class="st21" d="M586.62,388.84c-6.37-5.44-16.03-4.91-24.41-4.72,12.88,6.16,26.76,14.6,37.85,23.59.34-5.92-5.39-11.99-13.45-18.87Z"/>
          <path class="st33" d="M586.62,388.84c-6.37-5.44-16.03-4.91-24.41-4.72,12.88,6.16,26.76,14.6,37.85,23.59.34-5.92-5.39-11.99-13.45-18.87Z"/>
          <path class="st33" d="M610.27,381.33c3.21-2.14,6.45-4.17,9.8-5.7,3.35-1.52,6.49-3.95,9.73-5.71,4.2-2.28,7.84-5.44,11.7-8.26,3.86-2.82,8.09-5.37,12.81-6.11-3.85-.79-7.87-.36-11.66.67-3.79,1.04-7.39,2.66-10.97,4.27-4.97,2.24-10.03,4.54-14.1,8.17-4.06,3.64-7.74,7.22-7.31,12.66"/>
          <path class="st20" d="M637.5,424.31s-.12-.04-.32-.14c-.24-.12-.53-.27-.88-.46-.76-.41-1.86-1.01-3.24-1.7-.68-.36-1.44-.74-2.26-1.12-.81-.4-1.69-.8-2.63-1.21-1.87-.8-3.96-1.63-6.23-2.17-2.27-.56-4.53-.68-6.5-.16-.99.24-1.92.48-2.75.82-.83.34-1.58.73-2.22,1.14-1.3.82-2.2,1.68-2.79,2.31-.59.63-.87,1.01-.9.99-.01,0,.05-.11.18-.3.13-.19.33-.46.61-.79.56-.66,1.45-1.57,2.76-2.43.65-.43,1.4-.85,2.25-1.2.84-.37,1.8-.62,2.79-.87,2.01-.55,4.36-.43,6.66.14,2.31.55,4.41,1.4,6.29,2.22.94.41,1.82.82,2.63,1.24.82.4,1.57.79,2.25,1.16,1.37.72,2.44,1.36,3.19,1.8.34.21.62.38.85.52.19.12.29.19.28.2Z"/>
          <path class="st20" d="M595.9,419.29s.23.04.63.19c.4.14.97.38,1.65.72,1.36.67,3.16,1.82,4.84,3.43,1.68,1.62,2.9,3.36,3.62,4.7.37.67.63,1.22.78,1.62.16.39.23.62.21.63-.06.03-.44-.83-1.21-2.12-.77-1.29-2-2.97-3.65-4.56-1.65-1.58-3.39-2.74-4.71-3.47-1.32-.73-2.19-1.07-2.16-1.13Z"/>
          <path class="st20" d="M573.49,388.33s.15.03.43.13c.31.11.72.25,1.22.43.54.2,1.18.44,1.92.71.75.28,1.56.69,2.48,1.09,3.65,1.66,8.5,4.44,13.18,8.4,2.31,2.01,4.4,4.06,6.15,6.05,1.74,2,3.21,3.88,4.36,5.53,1.16,1.64,2.03,3,2.63,3.95.28.45.51.81.69,1.09.16.25.23.38.22.39-.01,0-.11-.11-.28-.35-.18-.24-.43-.59-.75-1.05-.64-.92-1.54-2.26-2.72-3.87-1.17-1.62-2.66-3.48-4.4-5.46-1.75-1.98-3.84-4-6.13-6-4.66-3.93-9.45-6.74-13.06-8.44-.91-.42-1.71-.84-2.44-1.14-.73-.29-1.36-.55-1.89-.76-.49-.2-.88-.37-1.19-.5-.27-.12-.41-.18-.41-.2Z"/>
          <path class="st20" d="M622.6,394.33s-.29-.01-.81-.1c-.28-.05-.59-.11-.93-.17-.36-.07-.78-.07-1.24-.12-1.82-.13-4.47.02-6.96,1.37-1.25.63-2.31,1.49-3.17,2.35-.87.85-1.54,1.74-2.04,2.52-1.02,1.56-1.33,2.68-1.39,2.66-.02,0,.04-.29.21-.79.19-.49.47-1.2.97-2,.48-.81,1.13-1.73,2.02-2.62.87-.89,1.94-1.78,3.23-2.44,2.56-1.4,5.31-1.51,7.15-1.31.47.06.89.08,1.26.17.34.09.65.16.93.23.51.13.78.22.78.24Z"/>
          <path class="st20" d="M632.78,362.76s-.13.09-.38.24c-.29.16-.67.36-1.13.61-.98.53-2.4,1.31-4.11,2.32-1.71,1.03-3.72,2.28-5.87,3.82-2.14,1.53-4.43,3.32-6.55,5.49-1.04,1.09-2.01,2.23-2.68,3.47-.66,1.27-1.3,2.5-1.88,3.69-1.17,2.36-2.12,4.54-2.81,6.4-.69,1.87-1.11,3.43-1.37,4.51-.26,1.08-.35,1.69-.39,1.69-.01,0,0-.16.04-.45.04-.29.1-.72.21-1.27.21-1.1.61-2.68,1.27-4.57.66-1.89,1.6-4.09,2.75-6.46.58-1.19,1.21-2.43,1.86-3.7.7-1.3,1.67-2.45,2.73-3.56,2.14-2.19,4.46-3.98,6.62-5.51,2.16-1.52,4.2-2.77,5.93-3.77,1.74-.99,3.17-1.74,4.18-2.23.48-.23.86-.41,1.16-.55.27-.12.41-.18.42-.17Z"/>
          <path class="st20" d="M604.38,393.42s-.09-.3-.2-.85c-.12-.62-.27-1.41-.44-2.34-.39-1.97-.98-4.69-1.91-7.6-.93-2.92-2.06-5.45-2.89-7.28-.39-.86-.72-1.59-.99-2.17-.23-.51-.35-.8-.32-.81.02-.01.18.26.45.75.27.5.65,1.22,1.09,2.12.89,1.81,2.07,4.34,3,7.28.95,2.93,1.5,5.68,1.82,7.66.16,1,.27,1.8.33,2.36.06.56.09.87.06.87Z"/>
          <path class="st20" d="M603.65,370.38c-.25-3.83-1.5-7.54-3.29-10.93-4.91-9.29-14.15-16.18-24.46-18.24,7.55,11.25,15.1,22.5,22.65,33.75l2.92,6.02c2-3.27,2.44-6.78,2.18-10.6Z"/>
        </g>
        <g>
          <rect class="st33" x="583.48" y="436.9" width="52.66" height="9.33"/>
          <polygon class="st33" points="587.41 444.38 591.89 473.34 626.85 473.34 632.2 444.38 587.41 444.38"/>
          <path class="st20" d="M636.1,446.24c0,.1-11.88.19-26.53.19s-26.53-.08-26.53-.19,11.87-.19,26.53-.19,26.53.08,26.53.19Z"/>
        </g>
      </g>
      <g>
        <g>
          <g>
            <path d="M428.76,140.94h2.57v.48h-2v1.4h1.69v.48h-1.69v1.62h2.07v.48h-2.63v-4.45Z"/>
            <path d="M432.69,143.67l-1-1.58h.61l.44.72c.1.18.21.37.32.55h.03c.1-.18.2-.37.3-.55l.4-.72h.58l-1,1.64,1.08,1.66h-.61l-.49-.77c-.11-.2-.24-.4-.36-.59h-.03c-.11.19-.22.39-.33.59l-.45.77h-.58l1.08-1.72Z"/>
            <path d="M435.1,142.09h.46l.05.38h.02c.3-.25.67-.46,1.05-.46.85,0,1.31.66,1.31,1.68,0,1.12-.67,1.78-1.43,1.78-.3,0-.61-.14-.91-.38v.58s.01,1.12.01,1.12h-.56v-4.69ZM437.41,143.7c0-.73-.25-1.22-.87-1.22-.28,0-.56.15-.88.45v1.73c.3.25.59.34.8.34.55,0,.95-.49.95-1.31Z"/>
            <path d="M438.62,143.75c0-1.07.72-1.73,1.48-1.73.84,0,1.32.6,1.32,1.55,0,.12-.01.24-.03.32h-2.22c.04.7.47,1.15,1.1,1.15.32,0,.58-.1.82-.26l.2.37c-.29.19-.64.34-1.09.34-.88,0-1.58-.64-1.58-1.73ZM440.92,143.48c0-.66-.3-1.02-.81-1.02-.46,0-.88.37-.95,1.02h1.76Z"/>
            <path d="M442.23,142.09h.46l.05.48h.02c.31-.31.65-.56,1.11-.56.69,0,1.01.45,1.01,1.29v2.09h-.56v-2.02c0-.61-.19-.88-.62-.88-.34,0-.57.17-.9.51v2.39h-.56v-3.3Z"/>
            <path d="M445.57,145.02l.28-.37c.29.23.58.39.97.39.43,0,.65-.23.65-.51,0-.34-.39-.49-.75-.63-.46-.17-.98-.4-.98-.95,0-.53.42-.94,1.14-.94.41,0,.77.17,1.03.37l-.27.36c-.23-.17-.46-.29-.75-.29-.42,0-.61.22-.61.47,0,.31.36.43.73.57.48.18,1.01.37,1.01,1,0,.53-.42.98-1.2.98-.47,0-.92-.2-1.23-.46Z"/>
            <path d="M448.54,143.75c0-1.07.72-1.73,1.48-1.73.84,0,1.32.6,1.32,1.55,0,.12,0,.24-.03.32h-2.22c.04.7.47,1.15,1.1,1.15.32,0,.58-.1.82-.26l.2.37c-.29.19-.64.34-1.09.34-.88,0-1.58-.64-1.58-1.73ZM450.84,143.48c0-.66-.3-1.02-.81-1.02-.46,0-.88.37-.95,1.02h1.76Z"/>
            <path d="M451.78,145.02l.28-.37c.29.23.58.39.97.39.43,0,.65-.23.65-.51,0-.34-.39-.49-.75-.63-.46-.17-.98-.4-.98-.95,0-.53.42-.94,1.14-.94.41,0,.77.17,1.03.37l-.27.36c-.23-.17-.46-.29-.75-.29-.42,0-.61.22-.61.47,0,.31.36.43.73.57.48.18,1.01.37,1.01,1,0,.53-.42.98-1.2.98-.47,0-.92-.2-1.23-.46Z"/>
          </g>
          <g>
            <path d="M366.58,141.42h-1.35v-.48h3.26v.48h-1.35v3.97h-.57v-3.97Z"/>
            <path d="M369.14,141.06c0-.22.17-.36.39-.36s.39.14.39.36-.17.36-.39.36-.39-.15-.39-.36ZM369.24,142.09h.56v3.3h-.56v-3.3Z"/>
            <path d="M370.91,142.09h.46l.05.48h.02c.29-.31.63-.56,1.03-.56.5,0,.77.24.91.63.34-.37.69-.63,1.09-.63.68,0,1,.45,1,1.29v2.09h-.56v-2.02c0-.61-.19-.88-.61-.88-.26,0-.52.17-.83.51v2.39h-.56v-2.02c0-.61-.19-.88-.61-.88-.25,0-.52.17-.83.51v2.39h-.56v-3.3Z"/>
            <path d="M376.29,143.75c0-1.07.72-1.73,1.48-1.73.84,0,1.32.6,1.32,1.55,0,.12,0,.24-.03.32h-2.22c.04.7.47,1.15,1.1,1.15.32,0,.58-.1.82-.26l.2.37c-.29.19-.64.34-1.09.34-.88,0-1.58-.64-1.58-1.73ZM378.59,143.48c0-.66-.3-1.02-.81-1.02-.46,0-.88.37-.95,1.02h1.76Z"/>
            <path d="M381.05,143.15c0-1.43.78-2.29,1.9-2.29s1.9.87,1.9,2.29-.78,2.32-1.9,2.32-1.9-.9-1.9-2.32ZM384.27,143.15c0-1.11-.52-1.79-1.32-1.79s-1.32.68-1.32,1.79.52,1.83,1.32,1.83,1.32-.72,1.32-1.83Z"/>
            <path d="M385.4,142.13l.47-.03h3.17v.45h-3.64v-.42ZM385.85,141.66c0-.68.34-1.11,1.03-1.11.22,0,.44.05.6.12l-.12.43c-.14-.07-.28-.09-.44-.09-.33,0-.52.24-.52.67v3.72h-.56v-3.73ZM387.79,141.57c0-.67.3-1.1.97-1.1.2,0,.4.05.55.11l-.12.43c-.13-.06-.26-.08-.37-.08-.31,0-.46.22-.46.64v3.82h-.56v-3.82Z"/>
          </g>
          <g>
            <g>
              <path class="st36" d="M402.27,93.2c-.12-.36-.39-.98-.95-1.58-.49-.52-1-.8-1.33-.95-14.26.02-28.53.03-42.79.05-.34.09-1.23.39-1.91,1.24-.4.5-.58,1.01-.67,1.34-.2,25.72-.28,41.98-.05,42.68.19.58.49,1,.81,1.34.69.73,1.52,1,1.95,1.1,19.85.11,42.08.13,42.46,0,.73-.25,1.2-.69,1.43-.91,0,0,.74-.59,1.05-1.48.06-.18,0-22.42,0-42.82ZM401.65,135.43c-.3.87-1.02,1.44-1.02,1.44-.22.21-.68.64-1.39.88-.37.13-22.02.1-41.37,0-.42-.1-1.23-.36-1.9-1.07-.31-.33-.6-.73-.79-1.3-.22-.68-.15-16.49.05-41.51.08-.32.26-.81.65-1.3.66-.83,1.52-1.12,1.86-1.21,13.9-.02,27.79-.03,41.69-.05.32.15.82.43,1.3.93.55.58.81,1.18.93,1.53,0,19.84.06,41.47,0,41.64Z"/>
              <path class="st16" d="M401.65,135.43c-.3.87-1.02,1.44-1.02,1.44-.22.21-.68.64-1.39.88-.37.13-22.02.1-41.37,0-.42-.1-1.23-.36-1.9-1.07-.31-.33-.6-.73-.79-1.3-.22-.68-.15-16.49.05-41.51.08-.32.26-.81.65-1.3.66-.83,1.52-1.12,1.86-1.21,13.9-.02,27.79-.03,41.69-.05.32.15.82.43,1.3.93.55.58.81,1.18.93,1.53,0,19.84.06,41.47,0,41.64Z"/>
              <path class="st6" d="M393.73,124.02"/>
            </g>
            <g>
              <path class="st32" d="M379.95,100.23l-10.2,10.25-5.83-5.83c4.42-4.24,10.52-5.68,16.02-4.42Z"/>
              <path class="st27" d="M387.96,104.58l-11.98,12.12-6.22-6.22,10.2-10.25c2.96.68,5.74,2.13,8,4.35Z"/>
              <path class="st42" d="M392.29,111.86l-10.44,10.71-5.87-5.87,11.98-12.12s.03.03.05.05c2.07,2.05,3.51,4.55,4.29,7.24Z"/>
              <path class="st38" d="M389.13,127.7c-.49.61-1.12.51-1.12.51-.46-.01-.82-.3-1.03-.51l-5.13-5.13,10.44-10.71c1.53,5.26.54,11.23-3.16,15.83Z"/>
              <path class="st40" d="M376.96,117.68c-1.84,1.87-10.97,11.08-11.42,11.51-.19.18-.42.19-.47.19-.19,0-.34-.1-.47-.19-.18-.12-.69-.75-.75-.84-.19-.55-.11-.93-.05-1.12.04-.11,9.06-9.2,11.28-11.42l1.87,1.87Z"/>
            </g>
          </g>
          <g>
            <g>
              <path class="st36" d="M465.53,93.2c-.12-.36-.39-.98-.95-1.58-.49-.52-1-.8-1.33-.95-14.26.02-28.53.03-42.79.05-.34.09-1.23.39-1.91,1.24-.4.5-.58,1.01-.67,1.34-.2,25.72-.28,41.98-.05,42.68.19.58.49,1,.81,1.34.69.73,1.52,1,1.95,1.1,19.85.11,42.08.13,42.46,0,.73-.25,1.2-.69,1.43-.91,0,0,.74-.59,1.05-1.48.06-.18,0-22.42,0-42.82ZM464.91,135.43c-.3.87-1.02,1.44-1.02,1.44-.22.21-.68.64-1.39.88-.37.13-22.02.1-41.37,0-.42-.1-1.23-.36-1.9-1.07-.31-.33-.6-.73-.79-1.3-.22-.68-.15-16.49.05-41.51.08-.32.26-.81.65-1.3.66-.83,1.52-1.12,1.86-1.21,13.9-.02,27.79-.03,41.69-.05.32.15.82.43,1.3.93.55.58.81,1.18.93,1.53,0,19.84.06,41.47,0,41.64Z"/>
              <path class="st16" d="M464.91,135.43c-.3.87-1.02,1.44-1.02,1.44-.22.21-.68.64-1.39.88-.37.13-22.02.1-41.37,0-.42-.1-1.23-.36-1.9-1.07-.31-.33-.6-.73-.79-1.3-.22-.68-.15-16.49.05-41.51.08-.32.26-.81.65-1.3.66-.83,1.52-1.12,1.86-1.21,13.9-.02,27.79-.03,41.69-.05.32.15.82.43,1.3.93.55.58.81,1.18.93,1.53,0,19.84.06,41.47,0,41.64Z"/>
              <path class="st6" d="M457,124.02"/>
            </g>
            <g>
              <path class="st18" d="M436.69,106.39v1.37c-.42-.11-.73-.26-.8-.55-.06-.26.1-.53.23-.66.15-.14.36-.18.56-.16Z"/>
              <path class="st18" d="M437.91,109.59c.16.32.09.8-.14.98-.11.09-.19.06-.71.05v-1.45c.4.05.71.15.85.42Z"/>
              <path class="st18" d="M436.9,101.83c-3.68,0-6.67,2.99-6.67,6.67s2.99,6.67,6.67,6.67,6.67-2.99,6.67-6.67-2.99-6.67-6.67-6.67ZM439.59,110.11c-.08.47-.36.77-.47.89-.46.49-1.25.77-2.06.81v.76h-.37v-.76c-.78-.04-1.54-.3-2.01-.81-.3-.33-.58-.89-.42-1.08.04-.05,1.37-.02,1.45.05.21.17.08.38.28.56.12.11.23.09.7.09v-1.49c-.67-.06-1.45-.13-1.97-.71-.39-.43-.54-1.06-.42-1.59.2-.9,1.11-1.3,1.36-1.4.33-.14.68-.22,1.03-.23v-.61h.37v.62c.7.06,1.36.35,1.78.83.04.05.67.76.4,1.12-.09.12-1.18.15-1.29,0-.06-.08-.03-.12-.09-.23-.09-.16-.23-.23-.33-.28-.04-.02-.23-.12-.47-.19v1.39c.82.18,1.84.35,2.3,1.14.05.09.33.55.23,1.12Z"/>
              <circle class="st34" cx="450.26" cy="113.9" r="3.28"/>
              <path class="st9" d="M446.98,127.35h-12.75c-.67-.22-4.47-1.5-6-5.26-.56-1.38-.64-2.66-.61-3.56h12.12c1.87.52,4.38,1.68,5.94,4.26,1.04,1.73,1.27,3.46,1.31,4.56Z"/>
              <path class="st34" d="M455.64,121.1v3.88c-.04.26-.16.87-.66,1.45-.54.64-1.2.84-1.45.91h-6.56c-.03-1.1-.26-2.83-1.31-4.56-1.56-2.58-4.06-3.74-5.94-4.26h13.42c.23.03,1.06.16,1.74.89.63.68.73,1.44.75,1.68Z"/>
              <path class="st16" d="M439.36,108.98c-.46-.79-1.48-.96-2.3-1.14v-1.39c.24.07.44.17.47.19.1.05.24.12.33.28.06.11.04.16.09.23.11.15,1.2.12,1.29,0,.27-.36-.36-1.07-.4-1.12-.42-.48-1.08-.77-1.78-.83v-.62h-.37v.61c-.35.01-.7.09-1.03.23-.24.11-1.16.51-1.36,1.4-.12.53.03,1.16.42,1.59.52.58,1.3.65,1.97.71v1.49c-.47,0-.58.01-.7-.09-.2-.18-.08-.39-.28-.56-.08-.07-1.41-.1-1.45-.05-.16.19.12.75.42,1.08.47.51,1.23.77,2.01.81v.76h.37v-.76c.81-.04,1.6-.32,2.06-.81.11-.12.39-.42.47-.89.09-.57-.18-1.03-.23-1.12ZM435.9,107.21c-.06-.26.1-.53.23-.66.15-.14.36-.18.56-.16v1.37c-.42-.11-.73-.26-.8-.55ZM437.77,110.58c-.11.09-.19.06-.71.05v-1.45c.4.05.71.15.85.42.16.32.09.8-.14.98Z"/>
            </g>
          </g>
        </g>
        <g>
          <g>
            <path d="M553.85,140.46h1.27c1,0,1.67.34,1.67,1.31s-.67,1.38-1.64,1.38h-.73v1.77h-.57v-4.45ZM555.08,142.69c.78,0,1.15-.28,1.15-.92s-.39-.85-1.18-.85h-.63v1.77h.66Z"/>
            <path d="M557.59,143.71v-2.09h.56v2.02c0,.61.19.88.62.88.34,0,.57-.17.88-.56v-2.34h.56v3.3h-.46l-.05-.52h-.02c-.31.36-.63.6-1.09.6-.69,0-1.01-.45-1.01-1.29Z"/>
            <path d="M561.33,141.62h.46l.05.6h.02c.23-.42.57-.68.94-.68.15,0,.25.02.35.07l-.1.49c-.11-.04-.19-.05-.32-.05-.28,0-.61.2-.83.76v2.12h-.56v-3.3Z"/>
            <path d="M563.37,143.27c0-1.1.74-1.73,1.59-1.73.43,0,.73.18.96.39l-.29.37c-.19-.17-.4-.29-.65-.29-.6,0-1.04.51-1.04,1.27s.41,1.26,1.02,1.26c.3,0,.57-.15.77-.33l.24.37c-.3.26-.67.42-1.07.42-.88,0-1.55-.63-1.55-1.73Z"/>
            <path d="M566.71,140.08h.56v1.32l-.02.68c.31-.3.64-.55,1.09-.55.69,0,1.01.45,1.01,1.29v2.09h-.56v-2.02c0-.61-.19-.88-.62-.88-.34,0-.57.17-.9.51v2.39h-.56v-4.83Z"/>
            <path d="M570.19,144.06c0-.72.62-1.08,2.03-1.23,0-.42-.14-.83-.68-.83-.38,0-.73.18-.98.35l-.22-.38c.3-.2.77-.43,1.3-.43.8,0,1.15.53,1.15,1.36v2.02h-.46l-.05-.39h-.02c-.31.26-.68.48-1.09.48-.55,0-.97-.34-.97-.94ZM572.22,144.11v-.92c-1.11.13-1.48.4-1.48.83,0,.37.25.53.58.53s.58-.16.9-.44Z"/>
            <path d="M573.45,144.54l.28-.37c.29.23.58.39.97.39.43,0,.65-.23.65-.51,0-.34-.39-.49-.75-.63-.46-.17-.98-.4-.98-.95,0-.53.42-.94,1.14-.94.41,0,.77.17,1.03.37l-.27.36c-.23-.17-.46-.29-.75-.29-.42,0-.61.22-.61.47,0,.31.36.43.73.57.48.18,1.01.37,1.01,1,0,.53-.42.98-1.2.98-.47,0-.92-.2-1.23-.46Z"/>
            <path d="M576.41,143.27c0-1.07.72-1.73,1.48-1.73.84,0,1.32.6,1.32,1.55,0,.12,0,.24-.03.32h-2.22c.04.7.47,1.15,1.1,1.15.32,0,.58-.1.82-.26l.2.37c-.29.19-.64.34-1.09.34-.88,0-1.58-.64-1.58-1.73ZM578.72,143c0-.66-.3-1.02-.81-1.02-.46,0-.88.37-.95,1.02h1.76Z"/>
          </g>
          <g>
            <path d="M493.32,140.37h2.57v.48h-2v1.4h1.69v.48h-1.69v1.62h2.07v.48h-2.63v-4.45Z"/>
            <path d="M496.3,141.52h.58l.62,1.87c.1.32.21.66.3.97h.03c.1-.31.21-.65.3-.97l.62-1.87h.55l-1.17,3.3h-.65l-1.19-3.3Z"/>
            <path d="M499.67,143.17c0-1.07.72-1.73,1.48-1.73.84,0,1.32.6,1.32,1.55,0,.12,0,.24-.03.32h-2.22c.04.7.47,1.15,1.1,1.15.32,0,.58-.1.82-.26l.2.37c-.29.19-.64.34-1.09.34-.88,0-1.58-.64-1.58-1.73ZM501.98,142.9c0-.66-.3-1.02-.81-1.02-.46,0-.88.37-.95,1.02h1.76Z"/>
            <path d="M503.28,141.52h.46l.05.48h.02c.31-.31.65-.56,1.11-.56.69,0,1.01.45,1.01,1.29v2.09h-.56v-2.02c0-.61-.19-.88-.62-.88-.34,0-.57.17-.9.51v2.39h-.56v-3.3Z"/>
            <path d="M507.09,143.8v-1.82h-.49v-.42l.52-.03.07-.92h.47v.92h.89v.45h-.89v1.83c0,.4.13.64.51.64.12,0,.27-.04.38-.09l.11.42c-.18.06-.41.12-.61.12-.7,0-.94-.44-.94-1.1Z"/>
            <path d="M508.85,144.44l.28-.37c.29.23.58.39.97.39.43,0,.65-.23.65-.51,0-.34-.39-.49-.75-.63-.46-.17-.98-.4-.98-.95,0-.53.42-.94,1.14-.94.41,0,.77.17,1.03.37l-.27.36c-.23-.17-.46-.29-.75-.29-.42,0-.61.22-.61.47,0,.31.36.43.73.57.48.18,1.01.37,1.01,1,0,.53-.42.98-1.2.98-.47,0-.92-.2-1.23-.46Z"/>
          </g>
          <g>
            <path class="st36" d="M526.93,92.73c-.12-.36-.39-.98-.95-1.58-.49-.52-1-.8-1.33-.95-14.26.02-28.53.03-42.79.05-.34.09-1.23.39-1.91,1.24-.4.5-.58,1.01-.67,1.34-.2,25.72-.28,41.98-.05,42.68.19.58.49,1,.81,1.34.69.73,1.52,1,1.95,1.1,19.85.11,42.08.13,42.46,0,.73-.25,1.2-.69,1.43-.91,0,0,.74-.59,1.05-1.48.06-.18,0-22.42,0-42.82ZM526.32,134.96c-.3.87-1.02,1.44-1.02,1.44-.22.21-.68.64-1.39.88-.37.13-22.02.1-41.37,0-.42-.1-1.23-.36-1.9-1.07-.31-.33-.6-.73-.79-1.3-.22-.68-.15-16.49.05-41.51.08-.32.26-.81.65-1.3.66-.83,1.52-1.12,1.86-1.21,13.9-.02,27.79-.03,41.69-.05.32.15.82.43,1.3.93.55.58.81,1.18.93,1.53,0,19.84.06,41.47,0,41.64Z"/>
            <path class="st16" d="M526.32,134.96c-.3.87-1.02,1.44-1.02,1.44-.22.21-.68.64-1.39.88-.37.13-22.02.1-41.37,0-.42-.1-1.23-.36-1.9-1.07-.31-.33-.6-.73-.79-1.3-.22-.68-.15-16.49.05-41.51.08-.32.26-.81.65-1.3.66-.83,1.52-1.12,1.86-1.21,13.9-.02,27.79-.03,41.69-.05.32.15.82.43,1.3.93.55.58.81,1.18.93,1.53,0,19.84.06,41.47,0,41.64Z"/>
            <g>
              <path class="st19" d="M501.13,123.61c0,.25-.16.49-.46.72,0,0,0,0,0,0-1.06.8-3.83,1.37-7.09,1.37-4.17,0-7.55-.93-7.55-2.08,0-.09.02-.18.06-.27.1-.21.32-.42.63-.6,1.2-.71,3.81-1.21,6.85-1.21,4.17,0,7.55.93,7.55,2.08Z"/>
              <path class="st30" d="M511.03,105.17c-.45,1.02-4.42,8.42-9.9,18.44,0-1.15-3.4-2.08-7.59-2.08-3.06,0-5.69.5-6.9,1.21,11.53-10.95,19.92-18.86,20.78-19.58.39-.33.78-.44.89-.47.98-.26,1.85.25,1.97.33.26.16.73.45.89.98.06.2.12.58-.14,1.17Z"/>
              <path class="st28" d="M504.92,123.51c0,.25.16.49.46.72,0,0,0,0,0,0,1.06.8,3.83,1.37,7.09,1.37,4.17,0,7.55-.93,7.55-2.08,0-.09-.02-.18-.06-.27-.1-.21-.32-.42-.63-.6-1.2-.71-3.81-1.21-6.85-1.21-4.17,0-7.55.93-7.55,2.08Z"/>
              <path class="st4" d="M495.03,105.08c.45,1.02,4.42,8.42,9.9,18.44,0-1.15,3.4-2.08,7.59-2.08,3.06,0,5.69.5,6.9,1.21-11.53-10.95-19.92-18.86-20.78-19.58-.39-.33-.78-.44-.89-.47-.98-.26-1.85.25-1.97.33-.26.16-.73.45-.89.98-.06.2-.12.58.14,1.17Z"/>
            </g>
          </g>
          <g>
            <path class="st36" d="M590.15,92.73c-.12-.36-.39-.98-.95-1.58-.49-.52-1-.8-1.33-.95-14.26.02-28.53.03-42.79.05-.34.09-1.23.39-1.91,1.24-.4.5-.58,1.01-.67,1.34-.2,25.72-.28,41.98-.05,42.68.19.58.49,1,.81,1.34.69.73,1.52,1,1.95,1.1,19.85.11,42.08.13,42.46,0,.73-.25,1.2-.69,1.43-.91,0,0,.74-.59,1.05-1.48.06-.18,0-22.42,0-42.82ZM589.54,134.96c-.3.87-1.02,1.44-1.02,1.44-.22.21-.68.64-1.39.88-.37.13-22.02.1-41.37,0-.42-.1-1.23-.36-1.9-1.07-.31-.33-.6-.73-.79-1.3-.22-.68-.15-16.49.05-41.51.08-.32.26-.81.65-1.3.66-.83,1.52-1.12,1.86-1.21,13.9-.02,27.79-.03,41.69-.05.32.15.82.43,1.3.93.55.58.81,1.18.93,1.53,0,19.84.06,41.47,0,41.64Z"/>
            <path class="st16" d="M589.54,134.96c-.3.87-1.02,1.44-1.02,1.44-.22.21-.68.64-1.39.88-.37.13-22.02.1-41.37,0-.42-.1-1.23-.36-1.9-1.07-.31-.33-.6-.73-.79-1.3-.22-.68-.15-16.49.05-41.51.08-.32.26-.81.65-1.3.66-.83,1.52-1.12,1.86-1.21,13.9-.02,27.79-.03,41.69-.05.32.15.82.43,1.3.93.55.58.81,1.18.93,1.53,0,19.84.06,41.47,0,41.64Z"/>
            <g>
              <path class="st15" d="M583.18,107.99v15.76c0,.12-.01.89-.66,1.45-.65.58-1.43.48-1.54.47l-31.68-.02v-17.66h33.88Z"/>
              <path class="st7" d="M583.18,111.14v12.6c0,.12-.01.89-.66,1.45-.65.58-1.43.48-1.54.47l-31.68-.02v-14.3s.02.04.02.06c.13.35.33.8.75,1.22.5.49,1.06.7,1.4.8,9.83.01,19.67.03,29.5.04.47-.11,1.21-.37,1.71-1.02.33-.44.45-.92.49-1.31Z"/>
              <path class="st5" d="M583.18,102.51v8.64c-.04.38-.16.87-.49,1.31-.49.66-1.23.91-1.71,1.02-9.83-.01-19.67-.03-29.5-.04-.34-.09-.91-.3-1.4-.8-.42-.42-.62-.87-.75-1.22,0-.02-.02-.04-.02-.06v-6.6c0-.17-.02-.84.47-1.45.57-.71,1.4-.79,1.54-.8h31.87Z"/>
            </g>
          </g>
        </g>
        <g>
          <g>
            <path d="M364.77,213.27c0-1.44.85-2.31,1.98-2.31.54,0,.96.26,1.22.55l-.31.37c-.23-.25-.53-.42-.9-.42-.84,0-1.4.69-1.4,1.8s.53,1.82,1.38,1.82c.42,0,.75-.18,1.03-.5l.31.36c-.35.41-.79.64-1.37.64-1.11,0-1.94-.86-1.94-2.3Z"/>
            <path d="M368.6,213.84c0-1.1.72-1.73,1.53-1.73s1.53.63,1.53,1.73-.72,1.73-1.53,1.73-1.53-.63-1.53-1.73ZM371.08,213.84c0-.76-.38-1.27-.95-1.27s-.95.51-.95,1.27.38,1.26.95,1.26.95-.51.95-1.26Z"/>
            <path d="M372.53,212.19h.46l.05.48h.02c.31-.31.65-.56,1.11-.56.69,0,1.01.45,1.01,1.29v2.09h-.56v-2.02c0-.61-.19-.88-.62-.88-.34,0-.57.17-.9.51v2.39h-.56v-3.3Z"/>
            <path d="M376.33,214.47v-1.82h-.49v-.42l.52-.03.07-.92h.47v.92h.89v.45h-.89v1.83c0,.4.13.64.51.64.12,0,.27-.04.38-.09l.11.42c-.18.06-.41.12-.61.12-.7,0-.94-.44-.94-1.1Z"/>
            <path d="M378.18,214.63c0-.72.62-1.08,2.03-1.23,0-.42-.14-.83-.68-.83-.38,0-.73.18-.98.35l-.22-.38c.3-.2.77-.43,1.3-.43.8,0,1.15.53,1.15,1.36v2.02h-.46l-.05-.39h-.02c-.31.26-.68.48-1.09.48-.55,0-.97-.34-.97-.94ZM380.21,214.68v-.92c-1.11.13-1.48.4-1.48.83,0,.37.25.53.58.53s.58-.16.9-.44Z"/>
            <path d="M381.56,213.84c0-1.1.74-1.73,1.59-1.73.43,0,.73.18.96.39l-.29.37c-.19-.17-.4-.29-.65-.29-.6,0-1.04.51-1.04,1.27s.41,1.26,1.02,1.26c.3,0,.57-.15.77-.33l.24.37c-.3.26-.67.42-1.07.42-.88,0-1.55-.63-1.55-1.73Z"/>
            <path d="M384.93,214.47v-1.82h-.49v-.42l.52-.03.07-.92h.47v.92h.89v.45h-.89v1.83c0,.4.13.64.51.64.12,0,.27-.04.38-.09l.11.42c-.18.06-.41.12-.61.12-.7,0-.94-.44-.94-1.1Z"/>
            <path d="M386.69,215.11l.28-.37c.29.23.58.39.97.39.43,0,.65-.23.65-.51,0-.34-.39-.49-.75-.63-.46-.17-.98-.4-.98-.95,0-.53.42-.94,1.14-.94.41,0,.77.17,1.03.37l-.27.36c-.23-.17-.46-.29-.75-.29-.42,0-.61.22-.61.47,0,.31.36.43.73.57.48.18,1.01.37,1.01,1,0,.53-.42.98-1.2.98-.47,0-.92-.2-1.23-.46Z"/>
          </g>
          <g>
            <path d="M433.3,213.27c0-1.44.85-2.31,1.98-2.31.54,0,.96.26,1.22.55l-.31.37c-.23-.25-.53-.42-.9-.42-.84,0-1.4.69-1.4,1.8s.53,1.82,1.38,1.82c.42,0,.75-.18,1.03-.5l.31.36c-.35.41-.79.64-1.37.64-1.11,0-1.94-.86-1.94-2.3Z"/>
            <path d="M437.43,211.04h1.39c.91,0,1.56.33,1.56,1.25s-.65,1.32-1.56,1.32h-.83v1.88h-.57v-4.45ZM438.74,213.15c.69,0,1.07-.28,1.07-.86s-.38-.79-1.07-.79h-.75v1.65h.75ZM438.71,213.45l.44-.29,1.36,2.33h-.64l-1.16-2.04Z"/>
            <path d="M441.29,211.04h.68l.85,2.38c.11.3.21.62.32.93h.03c.11-.31.2-.62.31-.93l.84-2.38h.68v4.45h-.53v-2.45c0-.39.04-.92.07-1.32h-.03l-.35,1.02-.84,2.3h-.38l-.84-2.3-.35-1.02h-.03c.03.39.07.93.07,1.32v2.45h-.51v-4.45Z"/>
          </g>
          <g>
            <path class="st36" d="M400.79,163.58c-.12-.36-.39-.98-.95-1.58-.49-.52-1-.8-1.33-.95-14.26.02-28.53.03-42.79.05-.34.09-1.23.39-1.91,1.24-.4.5-.58,1.01-.67,1.34-.2,25.72-.28,41.98-.05,42.68.19.58.49,1,.81,1.34.69.73,1.52,1,1.95,1.1,19.85.11,42.08.13,42.46,0,.73-.25,1.2-.69,1.43-.91,0,0,.74-.59,1.05-1.48.06-.18,0-22.42,0-42.82ZM400.18,205.81c-.3.87-1.02,1.44-1.02,1.44-.22.21-.68.64-1.39.88-.37.13-22.02.1-41.37,0-.42-.1-1.23-.36-1.9-1.07-.31-.33-.6-.73-.79-1.3-.22-.68-.15-16.49.05-41.51.08-.32.26-.81.65-1.3.66-.83,1.52-1.12,1.86-1.21,13.9-.02,27.79-.03,41.69-.05.32.15.82.43,1.3.93.55.58.81,1.18.93,1.53,0,19.84.06,41.47,0,41.64Z"/>
            <path class="st16" d="M400.18,205.81c-.3.87-1.02,1.44-1.02,1.44-.22.21-.68.64-1.39.88-.37.13-22.02.1-41.37,0-.42-.1-1.23-.36-1.9-1.07-.31-.33-.6-.73-.79-1.3-.22-.68-.15-16.49.05-41.51.08-.32.26-.81.65-1.3.66-.83,1.52-1.12,1.86-1.21,13.9-.02,27.79-.03,41.69-.05.32.15.82.43,1.3.93.55.58.81,1.18.93,1.53,0,19.84.06,41.47,0,41.64Z"/>
            <path class="st29" d="M367.37,173.52c-.25.05-.72.19-1.17.57-.65.55-.84,1.25-.89,1.49v23.64h21.52c.49-.12,1.77-.5,2.85-1.68,1.15-1.25,1.39-2.64,1.45-3.14v-20.88h-23.77ZM376.16,176.8c2.27,0,4.12,1.84,4.12,4.12s-1.84,4.12-4.12,4.12-4.12-1.84-4.12-4.12,1.84-4.12,4.12-4.12ZM371.34,189.34c1.45-1.87,3.5-2.23,3.94-2.29h7.75c-.02.53-.18,2.61-1.87,4.3-1.28,1.28-2.74,1.66-3.34,1.78h-7.75c0-.53.04-2.21,1.26-3.79Z"/>
            <path class="st1" d="M388.47,173.52v-2.8c-7.24,0-14.47,0-21.71,0-.46.11-1.94.51-3.04,1.92-.8,1.02-1.01,2.07-1.08,2.57,0,7.07,0,14.13,0,21.2.89,0,1.78.01,2.67.02,7,.04,14.01.08,21.01.12.23-.04.96-.19,1.54-.84.42-.47.56-.97.61-1.22,0-6.99,0-13.98,0-20.97ZM380.28,180.92c0,2.27-1.84,4.12-4.12,4.12s-4.12-1.84-4.12-4.12,1.84-4.12,4.12-4.12,4.12,1.84,4.12,4.12ZM381.17,191.35c-1.28,1.28-2.74,1.66-3.34,1.78h-7.75c0-.53.04-2.21,1.26-3.79,1.45-1.87,3.5-2.23,3.94-2.29h7.75c-.02.53-.18,2.61-1.87,4.3Z"/>
            <path class="st16" d="M383.04,187.05c-.02.53-.18,2.61-1.87,4.3-1.28,1.28-2.74,1.66-3.34,1.78h-7.75c0-.53.04-2.21,1.26-3.79,1.45-1.87,3.5-2.23,3.94-2.29h7.75Z"/>
            <circle class="st16" cx="376.16" cy="180.92" r="4.12"/>
          </g>
          <g>
            <path class="st36" d="M464.01,163.53c-.12-.36-.39-.98-.95-1.58-.49-.52-1-.8-1.33-.95-14.26.02-28.53.03-42.79.05-.34.09-1.23.39-1.91,1.24-.4.5-.58,1.01-.67,1.34-.2,25.72-.28,41.98-.05,42.68.19.58.49,1,.81,1.34.69.73,1.52,1,1.95,1.1,19.85.11,42.08.13,42.46,0,.73-.25,1.2-.69,1.43-.91,0,0,.74-.59,1.05-1.48.06-.18,0-22.42,0-42.82ZM463.4,205.77c-.3.87-1.02,1.44-1.02,1.44-.22.21-.68.64-1.39.88-.37.13-22.02.1-41.37,0-.42-.1-1.23-.36-1.9-1.07-.31-.33-.6-.73-.79-1.3-.22-.68-.15-16.49.05-41.51.08-.32.26-.81.65-1.3.66-.83,1.52-1.12,1.86-1.21,13.9-.02,27.79-.03,41.69-.05.32.15.82.43,1.3.93.55.58.81,1.18.93,1.53,0,19.84.06,41.47,0,41.64Z"/>
            <path class="st16" d="M463.4,205.77c-.3.87-1.02,1.44-1.02,1.44-.22.21-.68.64-1.39.88-.37.13-22.02.1-41.37,0-.42-.1-1.23-.36-1.9-1.07-.31-.33-.6-.73-.79-1.3-.22-.68-.15-16.49.05-41.51.08-.32.26-.81.65-1.3.66-.83,1.52-1.12,1.86-1.21,13.9-.02,27.79-.03,41.69-.05.32.15.82.43,1.3.93.55.58.81,1.18.93,1.53,0,19.84.06,41.47,0,41.64Z"/>
            <g>
              <path class="st22" d="M457.1,177.99c-.94,1.04-2.08,2.25-3.42,3.56-.86.84-1.93,1.9-3.01,2.84-1.83-1.85-3.67-3.7-5.5-5.55-1.24-1.25-2.48-2.51-3.72-3.76-.36-.36-.71-.72-1.07-1.08-.03-.03-.06-.06-.09-.1h2s12.23-.02,12.23-.02l.49.02c.35.08,1,.3,1.52.87,1.18,1.29.59,3.15.56,3.23Z"/>
              <path class="st31" d="M440.23,194.96s-.05.05-.07.07c-.26.26-1.13,1.01-2.34.89-.72-.07-1.23-.43-1.45-.61l-6.6-6.74c-.09-.17-.4-.84-.19-1.68.22-.89.88-1.35,1.03-1.45,0,0,.01-.01.02-.02,3.2,3.18,6.4,6.36,9.6,9.54Z"/>
              <path class="st31" d="M440.96,193.67c-.14.64-.51,1.07-.73,1.29-3.2-3.18-6.4-6.36-9.6-9.54.21-.22.52-.5.96-.68.82-.34,1.59-.16,1.68-.14.03,0,.06,0,.09,0,2.46,2.49,4.92,4.97,7.38,7.46h0c.11.35.36.89.2,1.61Z"/>
              <path class="st31" d="M445.18,178.83c-1.32-.29-2.27-.12-2.91.09-2.92.99-3.54,4.08-5.52,3.98-.36-.02-.72-.14-1.04-.33-.67-.4-1.19-1.1-1.3-1.77-.11-.66.16-1.43,2.85-4.02.78-.75,1.82-1.71,3.13-2.78.36.36.71.72,1.07,1.08,1.24,1.25,2.48,2.51,3.72,3.76Z"/>
              <path class="st3" d="M451.63,186.46c0,.53-.17.94-.28,1.17-2.56,2.59-5.12,5.18-7.67,7.77-.14.12-.68.56-1.5.56-.78,0-1.31-.4-1.45-.51-.16-.16-.33-.33-.49-.49-3.2-3.18-6.4-6.36-9.6-9.54-2.49-2.47-4.97-4.95-7.46-7.42-.1-.25-.42-1.12-.09-2.15.42-1.3,1.55-1.84,1.73-1.92,0,0,0,0,0,0l15.39-.02h.08s.06.06.09.1c.36.36.71.72,1.07,1.08,1.24,1.25,2.48,2.51,3.72,3.76,1.83,1.85,3.67,3.7,5.5,5.55.14.15.29.29.43.44.15.22.53.81.51,1.64Z"/>
            </g>
          </g>
        </g>
        <g>
          <g>
            <path d="M549.52,211.19h1.11c1.37,0,2.1.8,2.1,2.21s-.73,2.24-2.08,2.24h-1.14v-4.45ZM550.59,215.18c1.04,0,1.56-.65,1.56-1.78s-.52-1.75-1.56-1.75h-.51v3.52h.51Z"/>
            <path d="M553.43,214.79c0-.72.62-1.08,2.03-1.23,0-.42-.14-.83-.68-.83-.38,0-.73.18-.98.35l-.22-.38c.3-.2.77-.43,1.3-.43.8,0,1.15.53,1.15,1.36v2.02h-.46l-.05-.39h-.02c-.31.26-.68.48-1.09.48-.55,0-.97-.34-.97-.94ZM555.46,214.84v-.92c-1.11.13-1.48.4-1.48.83,0,.37.25.53.58.53s.58-.16.9-.44Z"/>
            <path d="M556.69,215.27l.28-.37c.29.23.58.39.97.39.43,0,.65-.23.65-.51,0-.34-.39-.49-.75-.63-.46-.17-.98-.4-.98-.95,0-.53.42-.94,1.14-.94.41,0,.77.17,1.03.37l-.27.36c-.23-.17-.46-.29-.75-.29-.42,0-.61.22-.61.47,0,.31.36.43.73.57.48.18,1.01.37,1.01,1,0,.53-.42.98-1.2.98-.47,0-.92-.2-1.23-.46Z"/>
            <path d="M559.9,210.81h.56v1.32l-.02.68c.31-.3.64-.55,1.09-.55.69,0,1.01.45,1.01,1.29v2.09h-.56v-2.02c0-.61-.19-.88-.62-.88-.34,0-.57.17-.9.51v2.39h-.56v-4.83Z"/>
            <path d="M564.11,215.3h-.02l-.05.34h-.45v-4.83h.56v1.32l-.02.59c.3-.26.67-.46,1.04-.46.85,0,1.31.66,1.31,1.68,0,1.13-.67,1.78-1.43,1.78-.31,0-.65-.16-.94-.42ZM565.9,213.95c0-.73-.25-1.22-.87-1.22-.28,0-.57.15-.88.45v1.73c.29.25.59.34.8.34.55,0,.95-.49.95-1.31Z"/>
            <path d="M567.1,214c0-1.1.72-1.73,1.53-1.73s1.53.63,1.53,1.73-.72,1.73-1.53,1.73-1.53-.63-1.53-1.73ZM569.57,214c0-.76-.38-1.27-.95-1.27s-.95.51-.95,1.27.38,1.26.95,1.26.95-.51.95-1.26Z"/>
            <path d="M570.72,214.79c0-.72.62-1.08,2.03-1.23,0-.42-.14-.83-.68-.83-.38,0-.73.18-.98.35l-.22-.38c.3-.2.77-.43,1.3-.43.8,0,1.15.53,1.15,1.36v2.02h-.46l-.05-.39h-.02c-.31.26-.68.48-1.09.48-.55,0-.97-.34-.97-.94ZM572.74,214.84v-.92c-1.11.13-1.48.4-1.48.83,0,.37.25.53.58.53s.58-.16.9-.44Z"/>
            <path d="M574.34,212.35h.46l.05.6h.02c.23-.42.57-.68.94-.68.15,0,.25.02.35.07l-.1.49c-.11-.04-.19-.05-.32-.05-.28,0-.61.2-.83.76v2.12h-.56v-3.3Z"/>
            <path d="M576.39,214c0-1.07.67-1.73,1.43-1.73.38,0,.63.14.92.38l-.02-.57v-1.27h.56v4.83h-.46l-.05-.39h-.02c-.26.26-.61.47-1,.47-.82,0-1.36-.63-1.36-1.73ZM578.72,214.8v-1.73c-.28-.25-.54-.34-.8-.34-.53,0-.95.51-.95,1.26,0,.79.33,1.26.91,1.26.31,0,.57-.15.85-.45Z"/>
            <path d="M580.03,215.27l.28-.37c.29.23.58.39.97.39.43,0,.65-.23.65-.51,0-.34-.39-.49-.75-.63-.46-.17-.98-.4-.98-.95,0-.53.42-.94,1.14-.94.41,0,.77.17,1.03.37l-.27.36c-.23-.17-.46-.29-.75-.29-.42,0-.61.22-.61.47,0,.31.36.43.73.57.48.18,1.01.37,1.01,1,0,.53-.42.98-1.2.98-.47,0-.92-.2-1.23-.46Z"/>
          </g>
          <g>
            <path d="M494.42,215.06l.34-.39c.32.33.77.55,1.23.55.58,0,.93-.29.93-.72,0-.45-.32-.6-.74-.78l-.64-.28c-.41-.18-.9-.49-.9-1.15s.59-1.18,1.4-1.18c.53,0,1,.23,1.31.55l-.3.36c-.27-.26-.6-.42-1.01-.42-.5,0-.83.25-.83.65,0,.43.39.59.74.74l.63.27c.52.22.92.53.92,1.19,0,.7-.58,1.27-1.52,1.27-.62,0-1.17-.25-1.56-.66Z"/>
            <path d="M498.11,214.79c0-.72.62-1.08,2.03-1.23,0-.42-.14-.83-.68-.83-.38,0-.73.18-.98.35l-.22-.38c.3-.2.77-.43,1.3-.43.8,0,1.15.53,1.15,1.36v2.02h-.46l-.05-.39h-.02c-.31.26-.68.48-1.09.48-.55,0-.97-.34-.97-.94ZM500.14,214.84v-.92c-1.11.13-1.48.4-1.48.83,0,.37.25.53.58.53s.58-.16.9-.44Z"/>
            <path d="M501.73,214.98v-4.17h.56v4.21c0,.17.07.24.16.24.03,0,.06,0,.12-.01l.08.43c-.08.03-.17.05-.32.05-.42,0-.59-.27-.59-.74Z"/>
            <path d="M503.22,214c0-1.07.72-1.73,1.48-1.73.84,0,1.32.6,1.32,1.55,0,.12,0,.24-.03.32h-2.22c.04.7.47,1.15,1.1,1.15.32,0,.58-.1.82-.26l.2.37c-.29.19-.64.34-1.09.34-.88,0-1.58-.64-1.58-1.73ZM505.52,213.73c0-.66-.3-1.02-.81-1.02-.46,0-.88.37-.95,1.02h1.76Z"/>
            <path d="M506.46,215.27l.28-.37c.29.23.58.39.97.39.43,0,.65-.23.65-.51,0-.34-.39-.49-.75-.63-.46-.17-.98-.4-.98-.95,0-.53.42-.94,1.14-.94.41,0,.77.17,1.03.37l-.27.36c-.23-.17-.46-.29-.75-.29-.42,0-.61.22-.61.47,0,.31.36.43.73.57.48.18,1.01.37,1.01,1,0,.53-.42.98-1.2.98-.47,0-.92-.2-1.23-.46Z"/>
          </g>
          <g>
            <path class="st36" d="M526.35,163.55c-.12-.36-.39-.98-.95-1.58-.49-.52-1-.8-1.33-.95-14.26.02-28.53.03-42.79.05-.34.09-1.23.39-1.91,1.24-.4.5-.58,1.01-.67,1.34-.2,25.72-.28,41.98-.05,42.68.19.58.49,1,.81,1.34.69.73,1.52,1,1.95,1.1,19.85.11,42.08.13,42.46,0,.73-.25,1.2-.69,1.43-.91,0,0,.74-.59,1.05-1.48.06-.18,0-22.42,0-42.82ZM525.73,205.78c-.3.87-1.02,1.44-1.02,1.44-.22.21-.68.64-1.39.88-.37.13-22.02.1-41.37,0-.42-.1-1.23-.36-1.9-1.07-.31-.33-.6-.73-.79-1.3-.22-.68-.15-16.49.05-41.51.08-.32.26-.81.65-1.3.66-.83,1.52-1.12,1.86-1.21,13.9-.02,27.79-.03,41.69-.05.32.15.82.43,1.3.93.55.58.81,1.18.93,1.53,0,19.84.06,41.47,0,41.64Z"/>
            <g>
              <path class="st16" d="M525.73,205.78c-.3.87-1.02,1.44-1.02,1.44-.22.21-.68.64-1.39.88-.37.13-22.02.1-41.37,0-.42-.1-1.23-.36-1.9-1.07-.31-.33-.6-.73-.79-1.3-.22-.68-.15-16.49.05-41.51.08-.32.26-.81.65-1.3.66-.83,1.52-1.12,1.86-1.21,13.9-.02,27.79-.03,41.69-.05.32.15.82.43,1.3.93.55.58.81,1.18.93,1.53,0,19.84.06,41.47,0,41.64Z"/>
              <g>
                <path class="st26" d="M501.67,182.23h-11.49c-.23.04-.8.16-1.31.63-.69.64-.76,1.47-.77,1.66v14.71h11.83c.13-.01.8-.08,1.29-.67.42-.49.44-1.04.44-1.2v-15.14Z"/>
                <path class="st12" d="M516.78,170.62h-11.49c-.23.06-.8.26-1.31,1.06-.69,1.08-.76,2.47-.77,2.8v24.74h11.83c.13-.02.8-.14,1.29-1.12.42-.83.44-1.75.44-2.02v-25.46Z"/>
                <path class="st2" d="M509.23,176.78h-11.49c-.23.05-.8.21-1.31.84-.69.85-.76,1.94-.77,2.2v19.43h11.83c.13-.02.8-.11,1.29-.88.42-.65.44-1.38.44-1.59v-19.99Z"/>
              </g>
            </g>
          </g>
          <g>
            <path class="st36" d="M589.52,163.56c-.12-.36-.39-.98-.95-1.58-.49-.52-1-.8-1.33-.95-14.26.02-28.53.03-42.79.05-.34.09-1.23.39-1.91,1.24-.4.5-.58,1.01-.67,1.34-.2,25.72-.28,41.98-.05,42.68.19.58.49,1,.81,1.34.69.73,1.52,1,1.95,1.1,19.85.11,42.08.13,42.46,0,.73-.25,1.2-.69,1.43-.91,0,0,.74-.59,1.05-1.48.06-.18,0-22.42,0-42.82ZM588.9,205.79c-.3.87-1.02,1.44-1.02,1.44-.22.21-.68.64-1.39.88-.37.13-22.02.1-41.37,0-.42-.1-1.23-.36-1.9-1.07-.31-.33-.6-.73-.79-1.3-.22-.68-.15-16.49.05-41.51.08-.32.26-.81.65-1.3.66-.83,1.52-1.12,1.86-1.21,13.9-.02,27.79-.03,41.69-.05.32.15.82.43,1.3.93.55.58.81,1.18.93,1.53,0,19.84.06,41.47,0,41.64Z"/>
            <path class="st16" d="M588.9,205.79c-.3.87-1.02,1.44-1.02,1.44-.22.21-.68.64-1.39.88-.37.13-22.02.1-41.37,0-.42-.1-1.23-.36-1.9-1.07-.31-.33-.6-.73-.79-1.3-.22-.68-.15-16.49.05-41.51.08-.32.26-.81.65-1.3.66-.83,1.52-1.12,1.86-1.21,13.9-.02,27.79-.03,41.69-.05.32.15.82.43,1.3.93.55.58.81,1.18.93,1.53,0,19.84.06,41.47,0,41.64Z"/>
            <g>
              <path class="st22" d="M565.63,170.65h-12.08c-.24.03-.84.13-1.37.52-.72.53-.8,1.22-.81,1.38v12.19h12.44c.32-.07.89-.23,1.32-.71.44-.5.53-1.11.56-1.5.11-1.33.12-5.82-.05-11.88Z"/>
              <path class="st8" d="M561.52,189.04c-2.76,0-5.52,0-8.28,0-.39.05-1.02.19-1.45.7-.31.36-.38.77-.42,1.03-.15,1-.19,4.14-.07,8.37,2.75,0,5.5,0,8.26,0,.35-.08.99-.28,1.45-.84.39-.48.47-1.01.51-1.36.15-1.26.17-4.14,0-7.9Z"/>
              <path class="st11" d="M571.18,189.04h-3.52c-.21.03-.71.14-1.18.56-.53.48-.68,1.06-.72,1.26v8.39h3.29c.24-.06.83-.23,1.35-.76.54-.55.7-1.16.75-1.4,0-2.68.01-5.37.02-8.05Z"/>
              <path class="st23" d="M579.99,189.04h-3.52c-.21.03-.71.14-1.18.56-.53.48-.68,1.06-.72,1.26v8.39h3.29c.24-.06.83-.23,1.35-.76.54-.55.7-1.16.75-1.4,0-2.68.01-5.37.02-8.05Z"/>
              <path class="st14" d="M579.98,184.87l-.03-3.52c-.03-.21-.15-.71-.57-1.18-.48-.53-1.06-.67-1.26-.7-2.8.02-5.59.05-8.39.07l.03,3.29c.06.24.23.83.77,1.35.55.54,1.17.69,1.41.74,2.68-.02,5.37-.03,8.05-.05Z"/>
              <path class="st17" d="M579.98,176.04l-.03-3.52c-.03-.21-.15-.71-.57-1.18-.48-.53-1.06-.67-1.26-.7-2.8.02-5.59.05-8.39.07l.03,3.29c.06.24.23.83.77,1.35.55.54,1.17.69,1.41.74,2.68-.02,5.37-.03,8.05-.05Z"/>
            </g>
          </g>
        </g>
      </g>
      <g>
        <g>
          <rect class="st16" x="12.86" y="98.87" width="98.4" height="89.59" rx="5.67" ry="5.67"/>
          <path class="st20" d="M16.99,98.87h90.47c2.1,0,3.8,1.7,3.8,3.8v11.44H12.86v-11.12c0-2.28,1.85-4.13,4.13-4.13Z"/>
        </g>
        <g>
          <path class="st16" d="M27.03,107.98c0,1.25-1.08,2.27-2.41,2.27s-2.41-1.02-2.41-2.27,1.08-2.27,2.41-2.27,2.41,1.02,2.41,2.27Z"/>
          <path class="st16" d="M33.6,107.98c0,1.25-1.08,2.27-2.41,2.27s-2.41-1.02-2.41-2.27,1.08-2.27,2.41-2.27,2.41,1.02,2.41,2.27Z"/>
          <path class="st16" d="M40.18,107.98c0,1.25-1.08,2.27-2.41,2.27s-2.41-1.02-2.41-2.27,1.08-2.27,2.41-2.27,2.41,1.02,2.41,2.27Z"/>
        </g>
        <g>
          <path class="st16" d="M23.68,122.16s0,55.31,0,54.8,79.1,0,79.1,0"/>
          <path class="st10" d="M102.78,176.95s-.12.02-.35.02c-.25,0-.59.01-1.01.02-.92,0-2.23.01-3.9.02-3.42,0-8.31,0-14.35,0-12.14,0-28.87-.02-47.34-.03-2.31.01-4.59.03-6.84.04-1.12.02-2.24.03-3.35.05-.55.02-1.11.03-1.64.07l-.19.02s-.03,0-.02,0h0c.57-.02-.44-.29-.35-.22v-.51s0-.82,0-.82c0-4.36,0-8.56.01-12.57.02-8,.04-15.22.05-21.28.03-6.04.06-10.93.08-14.35.02-1.67.04-2.98.05-3.9.01-.43.02-.76.02-1.01,0-.23.02-.35.03-.35s.02.12.03.35c0,.25.01.59.02,1.01.01.92.03,2.23.05,3.9.02,3.42.05,8.31.08,14.35.02,6.07.03,13.28.05,21.28,0,4.01,0,8.21.01,12.57v.82s0,.41,0,.41v.1c.08.09-.9-.22-.32-.24l.05-.02s.06-.01.08-.02l.22-.02c.56-.04,1.11-.05,1.67-.07,1.11-.02,2.23-.04,3.35-.06,2.25-.01,4.54-.03,6.85-.04,18.49-.04,35.23.08,47.34.18,6.04.07,10.93.12,14.35.16,1.67.03,2.98.05,3.9.07.43.01.76.02,1.01.03.23.01.35.02.35.03Z"/>
        </g>
        <rect class="st24" x="31.74" y="148.82" width="16.88" height="21.98"/>
        <rect class="st24" x="54.66" y="137.06" width="16.88" height="33.74"/>
        <rect class="st24" x="77.58" y="127.21" width="16.88" height="43.59"/>
        <path class="st10" d="M105.59,188.46s.32,0,.94-.11c.6-.12,1.53-.36,2.49-1.11.94-.73,1.92-2.02,2.13-3.79.08-1.76,0-3.84.02-6.15-.02-9.28-.05-22.68-.08-39.24,0-8.29-.02-17.36-.03-27.1,0-1.22,0-2.45,0-3.68,0-.62,0-1.24,0-1.86,0-.63.03-1.25-.09-1.84-.39-2.41-2.63-4.42-5.15-4.47-5.19,0-10.52,0-16,0-21.91,0-45.99.01-71.27.02-1.52-.01-3.01.66-4.01,1.78-1.03,1.12-1.51,2.62-1.42,4.16,0,3.12,0,6.22,0,9.3,0,6.16,0,12.22,0,18.18,0,11.92,0,23.42-.01,34.38,0,5.48,0,10.81,0,16,.02,1.25.5,2.46,1.3,3.4.79.95,1.91,1.58,3.1,1.82.59.12,1.2.1,1.83.11.62,0,1.25,0,1.87,0,1.24,0,2.47,0,3.68,0,9.74.01,18.82.02,27.1.03,16.56.03,29.96.06,39.24.08,4.62.02,8.22.04,10.67.05,1.21.01,2.14.02,2.77.02.63,0,.95.03.95.03,0,0-.32.02-.95.03-.64,0-1.56.01-2.77.02-2.45.01-6.04.03-10.67.05-9.28.02-22.68.05-39.24.08-8.29,0-17.36.02-27.1.03-1.22,0-2.45,0-3.68,0-.62,0-1.24,0-1.87,0-.61,0-1.27.02-1.91-.11-1.28-.26-2.49-.94-3.35-1.96-.86-1.01-1.39-2.32-1.4-3.67,0-5.19-.01-10.53-.02-16.01,0-10.96,0-22.45-.01-34.38,0-5.96,0-12.03,0-18.18,0-3.08,0-6.18,0-9.3-.1-1.58.42-3.29,1.55-4.49,1.1-1.22,2.73-1.95,4.38-1.94,25.28,0,49.36.01,71.27.02,5.48,0,10.82.01,16.01.02,2.73.06,5.14,2.23,5.56,4.83.13.65.09,1.3.1,1.91,0,.62,0,1.25,0,1.86,0,1.24,0,2.47,0,3.68-.01,9.74-.02,18.81-.03,27.1-.03,16.56-.06,29.97-.08,39.24-.03,2.32.03,4.37-.07,6.16-.23,1.81-1.24,3.12-2.21,3.85-.98.75-1.93.98-2.54,1.08-.31.05-.55.06-.71.06-.16,0-.24,0-.24,0Z"/>
      </g>
      <g>
        <path class="st16" d="M222.76,132.14c1.44-.05,3.52-.13,6.19-.22,3.07,2.41,7.72,5.15,13.94,6.27,1.55.27,3.19.48,4.9.48.85-.01,1.73.04,2.61-.03.88-.08,1.78-.17,2.69-.26,3.63-.52,7.41-1.74,11.01-3.75,3.59-2.02,6.97-4.85,9.74-8.42,2.75-3.56,4.96-7.84,5.95-12.6,1.02-4.73,1.03-9.86-.23-14.83l-.22-.94-.31-.91-.63-1.83c-.47-1.21-1.06-2.38-1.62-3.55-1.31-2.27-2.75-4.51-4.6-6.45-3.55-3.9-7.99-6.9-12.79-8.56-4.78-1.69-9.82-2.23-14.59-1.68-4.78.51-9.23,2.23-13.03,4.57-3.81,2.35-6.97,5.38-9.35,8.7-2.37,3.33-3.98,6.94-4.9,10.47-.88,3.54-1.17,6.98-.95,10.12.41,6.29,2.61,11.22,4.67,14.58-.2,2.87-.36,5.1-.47,6.64-.05.73-.08,1.29-.11,1.7-.02.38-.02.56-.02.56,0,0,.17,0,.52,0,.38-.01.91-.03,1.59-.05Z"/>
        <path class="st24" d="M237.72,100.41h5.77s0-4.84,5.03-4.93c2.61-.05,3.97,1.67,4.52,2.98.64,1.52.45,3.26-.41,4.67-.98,1.61-3.12,3.08-7.01,2.39v13.01h5.7v-7.62s8-2.07,8-10.88-7.56-10.39-10.8-10.39c-2.48,0-10.91.6-10.8,10.78Z"/>
        <rect class="st24" x="245.61" y="121.21" width="5.79" height="5.41"/>
        <path class="st10" d="M220.64,132.22s0-.18.02-.56c.03-.41.06-.97.11-1.7.11-1.55.27-3.78.47-6.67,0-.07.06-.12.13-.11.03,0,.06.02.08.03,0,0,0,0,.01.01l-.19.15c-2.08-3.36-4.3-8.31-4.71-14.64-.22-3.14.07-6.58.95-10.12.91-3.53,2.52-7.13,4.9-10.47,2.38-3.32,5.54-6.35,9.35-8.7,3.8-2.34,8.25-4.06,13.03-4.57,4.77-.55,9.81,0,14.59,1.68,4.8,1.66,9.23,4.66,12.79,8.56,1.85,1.93,3.29,4.18,4.6,6.45.57,1.18,1.15,2.35,1.62,3.55l.63,1.83.31.91.22.94c1.26,4.97,1.25,10.1.23,14.83-1,4.76-3.2,9.04-5.95,12.6-2.77,3.56-6.15,6.4-9.74,8.42-3.6,2.01-7.38,3.22-11.01,3.75-.91.09-1.81.17-2.69.26-.88.06-1.76.01-2.61.03-1.71,0-3.35-.21-4.9-.48-6.25-1.12-10.91-3.88-13.98-6.29l.08.03c-2.69.1-4.78.17-6.23.22-.68.02-1.21.04-1.59.05-.36,0-.53.01-.52,0,0,0,.2-.02.57-.05.39-.03.93-.06,1.62-.1,1.43-.08,3.5-.2,6.15-.36.03,0,.06,0,.08.03,3.08,2.35,7.72,5.03,13.9,6.1,1.54.26,3.16.45,4.84.44.84-.02,1.7.03,2.57-.04.87-.09,1.75-.18,2.65-.27,3.57-.54,7.29-1.75,10.83-3.74,3.52-2,6.84-4.8,9.55-8.31,2.69-3.51,4.85-7.72,5.82-12.39.99-4.65,1-9.68-.25-14.56l-.21-.92-.31-.9-.62-1.8c-.46-1.18-1.04-2.33-1.6-3.49-1.28-2.22-2.7-4.43-4.52-6.32-3.49-3.83-7.84-6.77-12.54-8.4-4.69-1.66-9.64-2.2-14.32-1.67-4.7.49-9.07,2.17-12.81,4.46-3.75,2.3-6.87,5.27-9.23,8.53-2.35,3.27-3.95,6.81-4.87,10.29-.89,3.49-1.19,6.88-1,9.98.36,6.25,2.51,11.17,4.53,14.53.04.06.02.13-.04.17-.05.03-.11.02-.15-.02,0,0-.01-.01-.01-.01l.21-.08c-.26,2.85-.47,5.06-.61,6.58-.07.74-.13,1.31-.17,1.72-.04.39-.07.6-.07.6Z"/>
      </g>
      <g>
        <g>
          <rect class="st20" x="462.93" y="364.41" width="14.54" height="77.77"/>
          <path class="st10" d="M418.18,351.88c.24,0,44.75,13.97,44.75,13.97h14.54l51.03-13.97h-110.31Z"/>
          <path class="st20" d="M408.67,473.69s6.73-20.54,16-25.51c14.91-7.98,49.25-11.8,49.25-11.8l3.77,9.72s-45.81,1.8-53.02,11.05c-6.66,8.54-11.5,16.55-11.5,16.55h-4.5Z"/>
          <path class="st10" d="M424.01,472.6c1.57,7.1-4.61,13.28-11.71,11.71-3.58-.79-6.46-3.68-7.25-7.26-1.57-7.1,4.61-13.28,11.71-11.71,3.58.79,6.46,3.68,7.26,7.25Z"/>
          <path class="st20" d="M532.84,473.29s-6.73-20.54-16-25.51c-14.91-7.98-49.25-11.8-49.25-11.8l-3.77,9.72s45.81,1.8,53.02,11.05c6.66,8.54,11.5,16.55,11.5,16.55h4.5Z"/>
          <path class="st10" d="M519.93,472.61c-1.57,7.1,4.61,13.28,11.71,11.71,3.58-.79,6.46-3.68,7.25-7.26,1.57-7.1-4.61-13.28-11.71-11.71-3.58.79-6.46,3.68-7.26,7.26Z"/>
          <polyline class="st20" points="465.41 441.59 467.54 468.02 473.55 469.2 473.55 441.59"/>
          <path class="st10" d="M460.94,472.61c-1.57,7.1,4.61,13.28,11.71,11.71,3.58-.79,6.46-3.68,7.25-7.26,1.57-7.1-4.61-13.28-11.71-11.71-3.58.79-6.46,3.68-7.26,7.25Z"/>
          <path class="st10" d="M477.13,366.16c0,.17-3.1.31-6.93.31s-6.93-.14-6.93-.31,3.1-.31,6.93-.31,6.93.14,6.93.31Z"/>
          <path class="st10" d="M477.4,434.11c.1.11-2.85,1.84-6.96,1.93-4.1.13-7.14-1.45-7.05-1.56.06-.19,3.09,1.08,7.03.95,3.94-.08,6.9-1.5,6.97-1.31Z"/>
        </g>
        <path class="st21" d="M457.17,158.95h64.9c10.88,0,19.7,2.99,19.7,16.48v173.33l-104.31-7.4v-165.93c0-13.49,8.82-16.48,19.7-16.48Z"/>
        <rect class="st21" x="390.02" y="337.44" width="151.97" height="18.62" rx="5.9" ry="5.9"/>
        <path class="st10" d="M527.24,337.65c0,.22-25.59.4-57.16.4s-57.16-.18-57.16-.4,25.59-.4,57.16-.4,57.16.18,57.16.4Z"/>
        <path class="st10" d="M527.24,337.44c-.22,0-.4-35.9-.4-80.17s.18-80.17.4-80.17.4,35.89.4,80.17-.18,80.17-.4,80.17Z"/>
      </g>
      <g>
        <g>
          <g>
            <path class="st10" d="M742.83,29.65c-4.61-10.12-12.48-17.32-23.18-20.34-6.04-1.7-8.88-1.11-13.56-1.08-4.68.02-9.24,1.32-12.82,4.33-4.25,3.57-8.15,7.8-10.15,12.99-2.05,5.33-3.05,10.8-3.18,15.5-.15,5.7,1.36,14.89,3.42,20.21l9.01,3.59c7.66,2.31,15.43,4.63,23.43,4.86,8,.23,16.39-1.89,22.17-7.43,8.03-7.69,9.46-22.52,4.85-32.64Z"/>
            <g>
              <path class="st39" d="M730.4,26.27l-16.7-12.35-5.03-.72c-10.98-2.86-21.75,7.24-24.17,16.1-2.69,9.85-5.58,21.98-5.94,29.67-.71,15.46,11.45,19.98,11.45,19.98,0,0-2.32,7.73-3.71,12.62l29.12,5.49,18.58-64.48c.62-2.72-.95-5.47-3.61-6.31Z"/>
              <path class="st35" d="M701.41,61.35c.1-.8-.15-1.59-.57-2.21-.85-1.23-2.42-1.74-3.8-1.24-1.38.5-2.49,1.98-2.68,3.57h0c.42,1.08,1.26,1.95,2.35,2.34.17.06.34.11.52.15.85.2,1.78.14,2.59-.31.81-.45,1.47-1.33,1.59-2.32Z"/>
              <g>
                <path class="st10" d="M685.09,43.32c-.25,1.01.41,2.04,1.45,2.32,1.04.27,2.09-.32,2.34-1.32.25-1.01-.41-2.05-1.45-2.32-1.05-.28-2.09.32-2.34,1.32Z"/>
                <path class="st10" d="M686.54,35.11c.19.3,1.86-.48,3.93-.04,2.07.4,3.37,1.78,3.64,1.57.13-.09-.02-.59-.58-1.21-.55-.61-1.56-1.31-2.85-1.57-1.29-.26-2.47,0-3.19.35-.74.36-1.05.76-.95.9Z"/>
                <path class="st10" d="M695.41,54.55c.03-.12-1.2-.6-3.23-1.3-.52-.16-.99-.37-1.01-.75-.05-.41.29-.93.68-1.49.76-1.17,1.56-2.41,2.39-3.7,3.35-5.27,5.89-9.65,5.67-9.79-.21-.13-3.1,4.03-6.45,9.31-.81,1.3-1.59,2.54-2.33,3.73-.32.56-.81,1.17-.7,2.01.06.42.39.79.71.95.32.17.61.24.87.31,2.07.54,3.37.82,3.4.71Z"/>
                <path class="st35" d="M689.99,78.93s9.94,2.73,21.16-1.21c0,0-7.49,9.28-22.18,4.78l1.02-3.57Z"/>
                <path class="st10" d="M687.62,28.75c.24.58,1.9.57,3.71,1.1,1.83.48,3.25,1.34,3.75.97.23-.18.13-.72-.41-1.36-.53-.64-1.52-1.33-2.78-1.68-1.25-.35-2.46-.26-3.23.01-.78.27-1.14.68-1.04.96Z"/>
                <path class="st10" d="M706.16,48.53c-.21,1.01-1.24,1.67-2.31,1.47-1.06-.2-1.75-1.18-1.54-2.2.21-1.01,1.25-1.67,2.31-1.47,1.06.2,1.75,1.19,1.54,2.2Z"/>
                <path class="st10" d="M714.32,41.61c-.3.19-1.48-1.23-3.53-1.73-2.04-.53-3.8.16-3.96-.15-.08-.14.27-.53,1.04-.84.76-.32,1.97-.51,3.25-.19,1.27.32,2.23,1.06,2.73,1.69.51.64.61,1.14.47,1.22Z"/>
                <path class="st10" d="M712.83,33.81c-.51.37-1.99-.47-3.89-.93-1.89-.52-3.6-.49-3.86-1.06-.11-.27.25-.68,1.06-.97.8-.28,2.04-.38,3.35-.04,1.3.34,2.34,1.02,2.9,1.65.57.63.68,1.17.45,1.35Z"/>
              </g>
              <g>
                <path class="st39" d="M724.91,56.71c.23-1.11,2.06-3.48,3.2-3.42,3.04.15,8.29,1.48,6.79,8.96-2.04,10.22-11.88,6.07-11.84,5.77.03-.23,1.04-7.46,1.85-11.3Z"/>
                <path class="st35" d="M726.63,64.85c.05-.02.15.16.43.36.27.19.75.39,1.33.29,1.16-.18,2.41-1.71,2.83-3.55.21-.93.19-1.85.01-2.65-.16-.81-.54-1.43-1.07-1.63-.52-.23-.97.02-1.15.28-.19.26-.17.48-.23.48-.03.02-.19-.21-.02-.62.08-.2.25-.41.53-.56.28-.15.67-.18,1.04-.06.78.21,1.34,1.08,1.54,1.96.24.89.29,1.93.05,2.97-.48,2.05-1.92,3.76-3.48,3.9-.76.04-1.31-.29-1.57-.6-.27-.32-.27-.55-.24-.57Z"/>
              </g>
            </g>
            <path class="st10" d="M728.52,53.43l-3.26,1.98c-14.51-13.55-26.12-45.67-22.03-43.74,0,0,8.38-1.11,16.22,2.46,7.84,3.57,22.32,11.79,19.52,21.41-2.8,9.62-10.45,17.9-10.45,17.9Z"/>
          </g>
          <path class="st10" d="M740.35,13.19c-4.38,1.64-9.09,7.82-8.2,12.41-1.51,4.38-.6,9.52,2.33,13.12,2.92,3.6,7.76,5.54,12.36,4.96,3.18-.4,6.21-1.97,8.3-4.4,2.48-2.88,3.52-6.8,3.46-10.59-.07-4.68-1.82-9.43-5.25-12.6-3.43-3.18-8.63-4.54-13.01-2.89Z"/>
          <path class="st21" d="M734.22,54.43s-.65-.36-1.73-1.13c-1.08-.77-2.62-1.94-4.45-3.45-3.66-3.02-8.56-7.52-12.87-13.41-4.32-5.89-6.96-12.08-8.11-16.71-.59-2.32-.89-4.23-1.01-5.56-.12-1.33-.12-2.07-.07-2.07.15-.02.31,2.94,1.62,7.48,1.27,4.54,3.95,10.57,8.21,16.39,4.25,5.82,9.04,10.34,12.59,13.45,1.78,1.56,3.26,2.78,4.28,3.63,1.02.85,1.58,1.33,1.54,1.37Z"/>
          <path class="st21" d="M744.5,48.25c-.14-.02.13-1.95.07-5.06-.05-3.11-.57-7.41-2.08-11.91-1.53-4.5-3.74-8.23-5.59-10.73-1.85-2.51-3.23-3.87-3.13-3.98.04-.04.41.27,1.06.88.66.59,1.53,1.53,2.52,2.76,1.99,2.45,4.33,6.22,5.9,10.81,1.55,4.59,1.99,9.01,1.89,12.17-.04,1.58-.16,2.86-.32,3.72-.15.87-.25,1.35-.31,1.34Z"/>
          <path class="st10" d="M729.51,70.21c-.36,2.12-2.38,3.55-4.51,3.19-2.12-.36-3.55-2.38-3.19-4.51.36-2.12,2.38-3.55,4.51-3.19,2.12.36,3.55,2.38,3.19,4.51Z"/>
        </g>
        <g>
          <g>
            <path class="st10" d="M657.66,449.89l2.72,28.36s-30.91,11.55-31.25,17.26l58.44.16-.03-4.27-2.45-14.59-3.61-28.34-23.82,1.42Z"/>
            <path class="st21" d="M687.57,495.67l-.03-4.27-56.06,1.08s-2.66,1.17-2.35,3.04l58.44.16Z"/>
            <path class="st21" d="M659.41,477.95c.01.29,1.47.42,2.91,1.36,1.68,1.03,2,2.25,2.48,2.04.27-.06-.17-1.8-1.93-2.9-1.75-1.12-3.52-.76-3.45-.5Z"/>
            <path class="st21" d="M653.14,480.56c-.07.28,1.2.78,2.19,2.01,1.21,1.42,1.1,2.55,1.58,2.52.27.05.47-1.67-.79-3.17-1.25-1.52-2.97-1.64-2.98-1.36Z"/>
            <path class="st21" d="M649.6,488.07c.27.06.67-1.4-.09-3-.74-1.6-2.12-2.23-2.24-1.99-.23.33.79,1.23,1.32,2.42.63,1.31.72,2.54,1.01,2.57Z"/>
            <path class="st10" d="M657.34,471.13c.12.27,1.46-.14,3.11-.03,1.65.07,2.94.63,3.09.37.17-.21-1.09-1.29-3.03-1.39-1.94-.12-3.31.82-3.17,1.05Z"/>
          </g>
          <g>
            <path class="st10" d="M729.48,450.69l2.5,27.88s-30.44,11.16-30.8,16.77l57.41.51v-4.2s-2.33-14.35-2.33-14.35l-3.38-27.86-23.41,1.25Z"/>
            <path class="st21" d="M758.59,495.85v-4.2s-55.08.72-55.08.72c0,0-2.62,1.13-2.33,2.97l57.41.51Z"/>
            <path class="st21" d="M731.03,478.26c0,.29,1.44.42,2.85,1.35,1.43.89,2.16,2.14,2.42,2.02.26-.05-.16-1.77-1.88-2.87-1.71-1.11-3.45-.77-3.39-.51Z"/>
            <path class="st21" d="M724.86,480.79c-.07.28,1.17.77,2.14,1.99,1.01,1.19,1.25,2.5,1.53,2.49.27.05.47-1.63-.76-3.12-1.22-1.5-2.91-1.63-2.92-1.35Z"/>
            <path class="st21" d="M721.33,488.15c.26.06.67-1.37-.07-2.94-.72-1.58-2.07-2.2-2.19-1.97-.16.24.71,1.08,1.29,2.38.61,1.29.69,2.5.97,2.53Z"/>
            <path class="st10" d="M729.03,471.55c.12.26,1.44-.13,3.06-.01,1.62.08,2.88.63,3.03.39.17-.21-1.06-1.27-2.97-1.38-1.91-.12-3.26.78-3.12,1.01Z"/>
          </g>
          <g>
            <path class="st10" d="M656.39,203.24s-13.85,40.12-14.33,69.96c-.48,29.85,4.87,70.43,11.08,122.78,6.21,52.35,3.25,80.26,3.25,80.26h31.53s3.34-32.78,2.87-62.14c-.48-29.36-2.77-38.65.05-70.94,2.82-32.29,7.28-51.69,11.98-61.47,0,0,13.01-15.47,13.97-36.69.96-21.22-6.55-39.46-6.55-39.46l-53.83-2.31Z"/>
            <path class="st10" d="M684.41,259.53c.52,1.61,7.03,63.7,16.77,91.87,9.4,27.19,11.65,41.53,15.69,64.82,5.05,29.15,8.98,60.04,8.98,60.04h33.57s-4.72-50.17-9.44-89.39c-4.72-39.22-11.54-87.57-10.49-102.08,1.05-14.51,3.67-32.42,0-52.74-3.67-20.32-11.61-25.68-11.61-25.68l-28.48-1.29-14.99,54.46Z"/>
            <path class="st21" d="M716.01,221.9s.2.34.52,1.02c.36.67.7,1.72,1.14,3.09.78,2.76,1.29,6.91,1.11,12.02-.16,5.11-1.01,11.17-2.76,17.7-.89,3.26-2.05,6.64-3.66,9.96-1.61,3.33-3.84,6.46-6.07,9.63-4.56,6.29-6.82,13.45-8.52,19.91-1.66,6.51-2.55,12.51-3.19,17.55-.62,5.05-.99,9.15-1.27,11.99-.14,1.37-.25,2.45-.33,3.26-.08.75-.14,1.14-.16,1.13-.02,0-.02-.4.02-1.15.05-.81.11-1.9.2-3.27.2-2.84.49-6.95,1.05-12.02.58-5.06,1.42-11.09,3.05-17.65.82-3.28,1.85-6.68,3.18-10.11.68-1.71,1.44-3.43,2.34-5.12.91-1.68,1.95-3.32,3.05-4.92,2.24-3.19,4.43-6.26,6.03-9.53,1.6-3.27,2.76-6.6,3.66-9.83,1.77-6.47,2.66-12.48,2.89-17.55.25-5.07-.19-9.18-.88-11.93-.39-1.36-.68-2.42-1-3.1-.28-.69-.41-1.07-.39-1.08Z"/>
          </g>
        </g>
        <path class="st24" d="M720.01,91.26l-29.84-4.02s-27.33,30.9-33.3,60.4c-2.37,11.7-.8,35.69-.8,35.69-4.68,29.23-12.26,63.64-12.26,63.64l70.59-1.32v-15.58l3.84,14.55,23.68-7.26-15.3-48.98c.12.39,9.4-32.35,12.68-45.7,3.16-12.85,3.98-29.8,3.38-37.25-.25-3.07-14.75-12.77-22.68-14.15Z"/>
        <g>
          <path class="st39" d="M592.09,118.52c-.54-2.36-1.3-4.6-2.31-6.05-1.69-2.42-12.83-11.06-21.02-14.97-8.19-3.91-9.57-4.46-10.51-2.11-.94,2.35,2.57,4,6.84,6.46,4.27,2.46,6.18,4,6.18,4,0,0-4.75,1.43-3.58,6.04,0,0-4.52,4.69-.5,8.16,0,0-2.77,1.64.41,5.45l14.77,6.7c.12.1,7.83,12.61,7.83,12.61,0,0,11-10.66,10.94-10.37l-9.04-15.93Z"/>
          <path class="st24" d="M596.91,121.84c.22.52,27.24,24.54,27.24,24.54,0,0,20.13-24.34,26.74-32.94,6.53-8.49,16.64-20.38,24.86-22.97,8.22-2.59,19.44,2.32,19.44,2.32l-13.76,34.38-17.31,23.17s-20.09,25.31-29.23,30.26c-8.33,4.51-18.8-.2-23.19-4.18-4.39-3.98-31.27-39.14-31.27-39.14l16.49-15.44Z"/>
          <path class="st24" d="M738.55,101.17s10.18,7.58,11.18,15.21c.83,6.31,5.64,47.47,7.96,63.57.95,6.57-.65,13.37-4.88,18.49-4.02,4.87-10.1,8.29-18.32,2.53-5.65-3.96-20.1-20.13-20.1-20.13l23.77-74.47"/>
          <path class="st10" d="M721.07,189.22c-.02.1-1.82-.16-4.72-.57-2.9-.41-6.92-.95-11.37-1.42-4.45-.47-8.49-.77-11.41-.98-2.93-.2-4.74-.32-4.74-.43,0-.05.46-.08,1.28-.1.82-.02,2.01-.01,3.48.03,2.94.08,7,.31,11.46.77,4.46.47,8.48,1.09,11.37,1.63,1.45.27,2.61.51,3.41.7.8.19,1.24.31,1.23.36Z"/>
          <path class="st10" d="M732.77,208.84s-.22-.49-.54-1.44c-.34-1.04-.78-2.42-1.33-4.12-1.14-3.67-2.71-8.75-4.6-14.83l-.03-.09.03-.1c1.9-6.78,4.16-14.84,6.59-23.48,3.48-12.11,6.62-23.07,8.93-31.12,1.16-3.9,2.1-7.09,2.79-9.41.33-1.04.59-1.88.8-2.55.19-.58.3-.88.33-.87.03,0-.04.32-.18.92-.17.67-.39,1.53-.66,2.59-.63,2.34-1.49,5.55-2.55,9.47-2.25,8.07-5.32,19.05-8.71,31.18-2.47,8.63-4.77,16.68-6.7,23.45v-.19c1.77,6.11,3.26,11.22,4.33,14.91.48,1.73.87,3.12,1.16,4.18.26.97.38,1.49.34,1.5Z"/>
          <path class="st24" d="M685.08,90.73c.43-.29,5.12-5.05,8.85-5.48,2.28-.26,12.91-.79,20.77-.02,3.53.35,5.02,1.43,5.02,1.43l5.09,7.34-39.73-3.27Z"/>
          <path class="st10" d="M686.74,114.48c-.27.03.14-5.72-2.62-12.03-2.66-6.36-7.1-10.03-6.89-10.21.05-.07,1.22.74,2.79,2.41,1.56,1.66,3.45,4.26,4.83,7.49,1.37,3.23,1.95,6.38,2.07,8.66.13,2.29-.1,3.69-.18,3.68Z"/>
          <path class="st10" d="M723.82,93.6c-.01.11-2.13-.06-5.55-.33-3.63-.27-8.25-.62-13.35-1.01-5.22-.39-9.94-.82-13.35-1.24-1.7-.21-3.08-.4-4.03-.56-.95-.16-1.47-.27-1.46-.32.01-.11,2.13.06,5.54.33,3.63.27,8.25.62,13.36,1.01,5.22.39,9.94.82,13.35,1.24,1.7.21,3.08.4,4.03.56.95.16,1.47.27,1.46.32Z"/>
        </g>
        <path class="st10" d="M693.69,61.7c.1-.36,2.43.47,4.8-.93,2.37-1.4,3-3.97,3.33-3.87.16.02.25.72-.09,1.77-.33,1.04-1.2,2.42-2.65,3.28-1.45.85-2.99.89-3.97.63-1.01-.26-1.49-.73-1.42-.88Z"/>
        <path class="st10" d="M678.14,133.69c.17.14-5.02,6.66-11.6,14.55-6.58,7.89-12.05,14.17-12.22,14.03-.17-.14,5.02-6.66,11.6-14.55,6.58-7.89,12.05-14.17,12.22-14.03Z"/>
      </g>
      <g>
        <g>
          <g>
            <rect class="st20" x="284.95" y="153.1" width="124.43" height="93.97" rx="6.32" ry="6.32"/>
            <path class="st10" d="M403.06,247.07s.38,0,1.09-.13c.7-.13,1.77-.45,2.87-1.34,1.06-.88,2.16-2.43,2.25-4.5.03-2.06,0-4.46-.01-7.16-.02-10.79-.05-26.38-.09-45.64,0-4.82-.01-9.87-.02-15.12,0-2.63,0-5.31,0-8.05,0-1.37,0-2.75,0-4.14-.01-.69.02-1.42-.03-2.08-.06-.67-.23-1.34-.5-1.96-.55-1.25-1.55-2.29-2.78-2.93-.61-.32-1.29-.53-1.98-.61-.68-.08-1.42-.05-2.15-.06-2.93,0-5.9,0-8.92,0-6.04,0-12.25,0-18.62.01-25.48,0-53.49.02-82.89.02-1.76,0-3.48.8-4.6,2.14-.57.66-.97,1.45-1.2,2.29-.24.84-.22,1.71-.22,2.63,0,3.63,0,7.24,0,10.82,0,7.16,0,14.22,0,21.15,0,13.87-.01,27.24-.02,39.98,0,1.59,0,3.18,0,4.75,0,.79,0,1.57,0,2.35,0,.79-.04,1.56.09,2.28.25,1.47,1.06,2.81,2.21,3.72,1.15.93,2.61,1.36,4.09,1.31,6.04,0,11.89.01,17.56.02,11.33.01,21.88.03,31.52.04,19.26.04,34.85.07,45.64.09,5.38.02,9.56.04,12.41.06,1.41.01,2.49.02,3.23.03.73.01,1.1.03,1.1.03,0,0-.37.02-1.1.03-.74,0-1.82.02-3.23.03-2.85.01-7.03.03-12.41.06-10.79.02-26.38.05-45.64.09-9.64.01-20.19.02-31.52.04-5.67,0-11.52,0-17.56.01-1.54.06-3.18-.41-4.42-1.42-1.25-.99-2.14-2.45-2.41-4.05-.15-.81-.09-1.6-.1-2.38,0-.78,0-1.56,0-2.35,0-1.57,0-3.16,0-4.75,0-12.74-.01-26.12-.02-39.98,0-6.93,0-13.99,0-21.15,0-3.58,0-7.19,0-10.82,0-.89-.03-1.86.24-2.79.25-.92.7-1.79,1.32-2.51,1.23-1.46,3.13-2.36,5.06-2.35,29.4,0,57.41.02,82.89.02,6.37,0,12.58,0,18.62.01,3.02,0,5.99,0,8.92,0,.73,0,1.45-.03,2.22.06.75.09,1.48.32,2.14.67,1.33.69,2.41,1.82,3,3.18.3.67.48,1.39.54,2.12.05.74.01,1.41.03,2.12,0,1.39,0,2.77,0,4.14,0,2.73,0,5.42,0,8.05,0,5.26-.01,10.31-.02,15.12-.04,19.26-.07,34.85-.09,45.64-.02,2.7,0,5.08-.04,7.17-.11,2.13-1.26,3.71-2.35,4.59-1.13.9-2.22,1.2-2.94,1.31-.36.06-.64.07-.82.07-.18,0-.28,0-.28,0Z"/>
          </g>
          <g>
            <polygon class="st20" points="357.48 225.59 351.4 264.84 375.01 264.84 375.01 268.1 319.27 268.1 327.55 225.59 357.48 225.59"/>
            <path class="st10" d="M357.48,225.59s-.19.01-.55.02c-.37,0-.89.01-1.56.02-1.39.01-3.39.02-5.97.04-5.18.02-12.64.06-21.85.1l.17-.14c-2.24,11.62-5.07,26.23-8.22,42.53l-.24-.29c7.74,0,16.01,0,24.54,0,10.93,0,21.45,0,31.2.01l-.23.23c0-1.1,0-2.19,0-3.26l.23.23c-8.56-.01-16.48-.02-23.61-.03h-.23s.04-.23.04-.23c1.89-11.9,3.44-21.68,4.53-28.51.55-3.4.98-6.07,1.28-7.91.15-.9.26-1.59.34-2.08.08-.47.13-.73.13-.73,0,0-.02.23-.09.69-.07.48-.17,1.17-.3,2.05-.27,1.83-.67,4.49-1.17,7.87-1.04,6.87-2.53,16.7-4.34,28.67l-.2-.23c7.13,0,15.05-.02,23.61-.03h.23s0,.23,0,.23c0,1.07,0,2.16,0,3.26v.23s-.23,0-.23,0c-9.76,0-20.27,0-31.2.01-8.53,0-16.8,0-24.54,0h-.29l.06-.29c3.2-16.29,6.06-30.89,8.34-42.5l.03-.14h.15c9.27.04,16.77.08,21.97.1,2.56.02,4.55.03,5.93.04.66,0,1.17.01,1.53.02.34,0,.51.02.51.02Z"/>
          </g>
          <g class="st13">
            <polygon points="351.08 268.1 351.4 264.84 375.01 264.84 375.01 268.1 351.08 268.1"/>
          </g>
          <g class="st13">
            <polygon points="357.48 225.59 363.58 247.1 354.15 247.1 357.48 225.59"/>
          </g>
          <path class="st10" d="M405.16,244.17c-.22,0-.4-19.52-.4-43.59s.18-43.6.4-43.6.4,19.51.4,43.6-.18,43.59-.4,43.59Z"/>
        </g>
        <g>
          <g>
            <g>
              <rect class="st20" x="616.04" y="285.27" width="12.05" height="204.39"/>
              <path class="st10" d="M628.09,489.66s-.02-.37-.03-1.07c0-.72-.02-1.75-.03-3.09-.01-2.73-.03-6.71-.06-11.84-.03-10.29-.07-25.15-.12-43.58-.04-36.82-.1-87.86-.17-144.82l.4.4c-3.82,0-7.91,0-12.04,0h-.01l.4-.4c0,95.54-.12,176.61-.28,204.39l-.13-.13c4.03.03,7.03.06,9.04.07.99.01,1.73.02,2.25.03.5,0,.76.02.76.02,0,0-.23.02-.72.02-.52,0-1.25.02-2.22.03-2.03.02-5.04.04-9.11.07h-.13s0-.13,0-.13c-.16-27.78-.28-108.85-.28-204.39v-.4h.41c4.12,0,8.22,0,12.04,0h.4v.4c-.07,57.07-.13,108.21-.17,145.11-.05,18.38-.09,33.22-.12,43.48-.02,5.09-.04,9.04-.06,11.75-.01,1.32-.02,2.33-.03,3.04,0,.68-.03,1.01-.03,1.01Z"/>
            </g>
            <g>
              <rect class="st20" x="508.16" y="285.27" width="12.05" height="204.39"/>
              <path class="st10" d="M520.21,489.66s-.02-.37-.03-1.07c0-.72-.02-1.75-.03-3.09-.01-2.73-.03-6.71-.06-11.84-.03-10.29-.07-25.15-.12-43.58-.04-36.82-.1-87.86-.17-144.82l.4.4c-3.82,0-7.91,0-12.04,0h-.01l.4-.4c0,95.54-.12,176.61-.28,204.39l-.13-.13c4.03.03,7.03.06,9.04.07.99.01,1.73.02,2.25.03.5,0,.76.02.76.02,0,0-.23.02-.72.02-.51,0-1.25.02-2.22.03-2.03.02-5.04.04-9.11.07h-.13s0-.13,0-.13c-.16-27.78-.28-108.85-.28-204.39v-.4h.41c4.12,0,8.22,0,12.04,0h.4v.4c-.07,57.07-.13,108.21-.17,145.11-.05,18.38-.09,33.22-.12,43.48-.02,5.09-.04,9.04-.06,11.75-.01,1.32-.02,2.33-.03,3.04,0,.68-.03,1.01-.03,1.01Z"/>
            </g>
            <g>
              <rect class="st20" x="302.03" y="285.27" width="12.05" height="204.39"/>
              <path class="st10" d="M314.08,489.66s-.02-.37-.03-1.07c0-.72-.02-1.75-.03-3.09-.01-2.73-.03-6.71-.06-11.84-.03-10.29-.07-25.15-.12-43.58-.04-36.82-.1-87.86-.17-144.82l.4.4c-3.82,0-7.91,0-12.04,0h-.01l.4-.4c0,95.54-.12,176.61-.28,204.39l-.13-.13c4.03.03,7.03.06,9.04.07.99.01,1.73.02,2.25.03.5,0,.76.02.76.02,0,0-.23.02-.72.02-.51,0-1.25.02-2.22.03-2.03.02-5.04.04-9.11.07h-.13s0-.13,0-.13c-.16-27.78-.28-108.85-.28-204.39v-.4h.41c4.12,0,8.22,0,12.04,0h.4v.4c-.07,57.07-.13,108.21-.17,145.11-.05,18.38-.09,33.22-.12,43.48-.02,5.09-.04,9.04-.06,11.75-.01,1.32-.02,2.33-.03,3.04,0,.68-.03,1.01-.03,1.01Z"/>
            </g>
            <g>
              <rect class="st20" x="390.42" y="285.27" width="12.05" height="204.39"/>
              <path class="st10" d="M402.47,489.66s-.02-.37-.03-1.07c0-.72-.02-1.75-.03-3.09-.01-2.73-.03-6.71-.06-11.84-.03-10.29-.07-25.15-.12-43.58-.04-36.82-.1-87.86-.17-144.82l.4.4c-3.82,0-7.91,0-12.04,0h-.01l.4-.4c0,95.54-.12,176.61-.28,204.39l-.13-.13c4.03.03,7.03.06,9.04.07.99.01,1.73.02,2.25.03.5,0,.76.02.76.02,0,0-.23.02-.72.02-.51,0-1.25.02-2.22.03-2.03.02-5.04.04-9.11.07h-.13s0-.13,0-.13c-.16-27.78-.28-108.85-.28-204.39v-.4h.41c4.12,0,8.22,0,12.04,0h.4v.4c-.07,57.07-.13,108.21-.17,145.11-.05,18.38-.09,33.22-.12,43.48-.02,5.09-.04,9.04-.06,11.75-.01,1.32-.02,2.33-.03,3.04,0,.68-.03,1.01-.03,1.01Z"/>
            </g>
            <rect class="st41" x="251.56" y="268.35" width="396.88" height="16.92"/>
          </g>
          <g class="st13">
            <rect x="494.01" y="268.33" width="154.44" height="16.94"/>
          </g>
          <path class="st10" d="M494.31,285.69c-.22,0-.4-3.81-.4-8.5s.18-8.5.4-8.5.4,3.81.4,8.5-.18,8.5-.4,8.5Z"/>
        </g>
        <g>
          <g>
            <rect class="st24" x="472.22" y="260.98" width="110.52" height="7.41"/>
            <rect class="st16" x="473.87" y="262.13" width="108.93" height="5.16"/>
            <g class="st13">
              <rect x="516.27" y="260.98" width="66.47" height="7.4" transform="translate(1099.01 529.36) rotate(180)"/>
            </g>
          </g>
          <g>
            <rect class="st24" x="472.22" y="242.33" width="110.52" height="7.41"/>
            <rect class="st16" x="473.87" y="243.48" width="108.93" height="5.16"/>
            <g class="st13">
              <rect x="516.27" y="242.33" width="66.47" height="7.4" transform="translate(1099.01 492.06) rotate(180)"/>
            </g>
          </g>
          <g>
            <rect class="st10" x="475.57" y="250.75" width="110.52" height="10.19"/>
            <rect class="st16" x="477.22" y="252.32" width="108.93" height="7.09"/>
            <g class="st13">
              <rect x="519.62" y="250.75" width="66.47" height="10.17" transform="translate(1105.71 511.66) rotate(180)"/>
            </g>
            <path class="st10" d="M585.84,254.39c0,.22-24.3.4-54.27.4s-54.27-.18-54.27-.4,24.29-.4,54.27-.4,54.27.18,54.27.4Z"/>
            <path class="st10" d="M585.84,257.35c0,.22-24.3.4-54.27.4s-54.27-.18-54.27-.4,24.29-.4,54.27-.4,54.27.18,54.27.4Z"/>
          </g>
        </g>
      </g>
      <g>
        <g>
          <g>
            <path class="st10" d="M156.82,172.7c-3.21-5.42-6.4-10.89-8.63-16.79-2.23-5.89-3.46-12.28-2.61-18.52.13-.95,1.59-7.43,2.53-7.54.68-.08.2,5.77.66,6.27,4.43,4.78,6.78,11.19,7.68,17.64.91,6.45.86,12.45.36,18.94"/>
            <path class="st39" d="M164.94,205.32l-12.72-55.79c-3.95-15.3.41-30.5,15.81-34.02l1.69-.28c14.38-2.42,28.2,6.61,31.76,20.75,3.37,13.34,6.93,28.19,8.06,35.47,2.33,14.98-12.24,19.82-12.24,19.82-.03,0,2.65,10.68,3.57,15.03,0,0-1.36,1.44-15.15,4.52-13.8,3.08-20.79-5.5-20.79-5.5Z"/>
            <path class="st35" d="M197.32,191.26s-9.33,2.14-20.43-2.48c0,0,6.57,10.08,21.27,6.22l-.83-3.74Z"/>
            <path class="st10" d="M199.57,150.8c.23,1.12-.53,2.24-1.7,2.5-1.16.26-2.3-.43-2.52-1.56-.23-1.12.53-2.24,1.69-2.5,1.17-.26,2.3.44,2.53,1.56Z"/>
            <path class="st10" d="M199.26,144.88c-.22.32-2.04-.6-4.33-.21-2.3.36-3.79,1.82-4.08,1.58-.14-.1.04-.65.69-1.31.63-.65,1.78-1.38,3.21-1.61,1.43-.23,2.73.09,3.51.51.8.42,1.12.89,1.01,1.03Z"/>
            <path class="st10" d="M181.38,155.58c.23,1.12-.53,2.24-1.7,2.5-1.16.26-2.29-.43-2.52-1.56-.23-1.12.53-2.24,1.69-2.5,1.17-.26,2.3.44,2.53,1.56Z"/>
            <path class="st10" d="M178.39,149.12c-.22.32-2.04-.6-4.33-.21-2.3.36-3.79,1.82-4.08,1.58-.14-.1.04-.65.69-1.31.63-.65,1.78-1.38,3.21-1.61,1.43-.23,2.73.09,3.51.51.8.42,1.12.89,1.01,1.03Z"/>
            <path class="st10" d="M188.65,165.52c-.03-.13,1.35-.62,3.62-1.3.58-.16,1.11-.37,1.14-.79.07-.45-.28-1.04-.68-1.67-.79-1.33-1.62-2.72-2.49-4.18-3.48-5.96-6.1-10.89-5.86-11.03.24-.14,3.26,4.58,6.74,10.53.84,1.47,1.65,2.87,2.42,4.22.33.63.84,1.32.69,2.25-.08.47-.46.86-.82,1.02-.36.18-.69.24-.97.31-2.31.52-3.75.77-3.78.64Z"/>
            <path class="st10" d="M177.16,140.25c0,.67-2.29,1.18-4.75,2.42-2.48,1.19-4.29,2.69-4.82,2.28-.24-.2-.09-.89.54-1.77.62-.88,1.75-1.9,3.23-2.63,1.48-.73,2.98-.99,4.06-.95,1.08.04,1.73.34,1.73.65Z"/>
            <path class="st10" d="M198.62,136.75c-.32.64-2.26.6-4.43,1.18-2.19.51-3.9,1.45-4.47,1.03-.26-.21-.11-.8.56-1.5.66-.7,1.87-1.46,3.36-1.83,1.5-.37,2.91-.26,3.81.05.91.31,1.3.77,1.17,1.07Z"/>
            <path class="st39" d="M155.28,160.28c-.27-.07-10.78-1.31-8.74,8.85,2.04,10.17,11.83,6.02,11.79,5.72-.04-.3-3.05-14.58-3.05-14.58Z"/>
            <path class="st35" d="M154.29,171.71c-.05-.02-.15.16-.42.36-.26.19-.75.39-1.32.29-1.15-.18-2.4-1.7-2.82-3.52-.21-.92-.2-1.84-.01-2.64.16-.81.54-1.42,1.06-1.63.51-.23.96.01,1.14.28.19.26.17.47.23.48.03.02.18-.21.02-.62-.08-.19-.25-.41-.53-.56-.28-.15-.66-.18-1.03-.06-.77.21-1.33,1.07-1.53,1.95-.24.89-.28,1.92-.04,2.96.48,2.04,1.91,3.74,3.47,3.87.75.04,1.31-.29,1.57-.59.26-.31.27-.55.23-.56Z"/>
            <path class="st10" d="M191.45,120.78c1.45-1.25-4.6-5.53-9.02-6.52-6.68-1.49-16.36-1.23-21.65,1.55-6.37,3.34-11.29,7.9-13.39,14.77-2.1,6.88-1.87,14.33-.2,21.32.51,2.13,1.21,4.33,2.73,5.9,1.89,1.95,4.91,2.79,5.44,5.91.19,1.14.76,2.21,1.71,2.88,2.27,1.59,4.15-.75,4.81-2.83,1.39-4.44.65-9.24-.12-13.84-.54-3.27-1.1-6.6-2.67-9.52-.85-1.59-1.99-3.02-2.75-4.65-.76-1.63-1.12-3.59-.35-5.22.13-.26.35-.61.65-1.01,2.34-3.12,6.21-4.72,10.08-4.21,6.14.82,16.53,1.79,18.68-.69,3.08-3.56,3.57-5.57,3.57-5.57l2.47,1.71Z"/>
            <path class="st10" d="M191.29,171.44c.07.16-.43.59-1.43.91-.99.32-2.48.44-4.04.03-1.56-.42-2.8-1.27-3.49-2.04-.71-.77-.92-1.4-.79-1.5.31-.24,1.92,1.54,4.63,2.22,2.69.76,4.97.01,5.12.38Z"/>
          </g>
          <g>
            <path class="st10" d="M331.33,452.54l-1.14,32.76s32.75,11.48,33.13,17.56l-63.44.75-.32-51.13,31.77.05Z"/>
            <path class="st21" d="M299.88,503.61l-.05-4.04,61.86.86s2.04,1.24,2.22,3.14l-64.04.04Z"/>
            <path class="st21" d="M330.76,485.51c0,.31-1.57.46-3.11,1.46-1.56.97-2.36,2.32-2.64,2.2-.29-.06.18-1.93,2.06-3.12,1.87-1.2,3.76-.83,3.7-.55Z"/>
            <path class="st21" d="M337.49,488.28c.07.3-1.28.84-2.34,2.16-1.1,1.29-1.37,2.72-1.68,2.71-.29.05-.51-1.78.84-3.4,1.34-1.63,3.18-1.77,3.18-1.47Z"/>
            <path class="st21" d="M341.31,496.32c-.28.07-.72-1.5.08-3.21.79-1.72,2.26-2.4,2.4-2.14.18.26-.77,1.18-1.41,2.59-.67,1.4-.76,2.72-1.07,2.75Z"/>
            <path class="st21" d="M330.19,477.96c-.13.28-1.57-.14-3.33-.02-1.77.09-3.15.68-3.31.41-.18-.23,1.16-1.39,3.25-1.5,2.08-.13,3.55.86,3.4,1.11Z"/>
          </g>
          <g>
            <path class="st10" d="M358.75,391.89l13.98,26.17s30.85-5.88,33.91-1.29l-49.32,29.38-23.45-39.88,24.89-14.38Z"/>
            <path class="st21" d="M357.31,446.14l-1.87-3.18,48.44-27.56s2.15.05,3.15,1.47l-49.73,29.26Z"/>
            <path class="st21" d="M373.27,417.95c.13.25-1.03,1.07-1.77,2.56-.79,1.47-.79,2.89-1.07,2.92-.25.08-.74-1.59.2-3.38.92-1.79,2.57-2.36,2.65-2.11Z"/>
            <path class="st21" d="M379.79,417.07c.19.21-.62,1.24-.85,2.76-.27,1.51.17,2.75-.08,2.88-.21.17-1.21-1.16-.89-3.04.3-1.88,1.68-2.82,1.83-2.59Z"/>
            <path class="st21" d="M386.44,421.63c-.19.18-1.24-.84-1.39-2.55-.16-1.7.68-2.9.91-2.76.26.12-.07,1.27.08,2.67.11,1.4.64,2.47.41,2.64Z"/>
            <path class="st21" d="M369.4,412.3c.03.28-1.29.6-2.62,1.5-1.35.87-2.15,1.96-2.4,1.83-.24-.09.28-1.61,1.86-2.65,1.57-1.05,3.17-.94,3.16-.67Z"/>
          </g>
          <g>
            <g>
              <path class="st10" d="M159.18,340.59c.05-.68.09-1.06.09-1.06l-.09,1.06Z"/>
              <path class="st10" d="M158.18,340.6l72.93-27.3s43.09-20.11,58.76-24.43c16.77-4.62,31.55,2.14,40.89,21.7,6.33,13.24,42.52,103.31,42.52,103.31l-28.6,18.84-51.36-99.33-86.5,50.36s-16.15-.32-31.77-.32c-14.11,0-17.37-36.39-16.87-42.83Z"/>
              <polygon class="st10" points="159.18 340.59 159.18 340.6 159.18 340.6 159.18 340.59"/>
            </g>
            <path class="st10" d="M336.35,478.61l-10.15-111.92s-1.81-23.57-15.41-28.28c-13.6-4.71-29.51-2.81-29.51-2.81l-76.24,48.12,78.22,1.34s2.94,16.67,3.86,23.84c1.3,10.07,8.45,73.68,8.45,73.68l40.77-3.97Z"/>
            <path class="st21" d="M219.02,379.71s.1-.08.32-.23c.23-.16.55-.37.96-.65.86-.57,2.11-1.4,3.73-2.47,3.28-2.15,8.04-5.27,14.02-9.2,6-3.92,13.23-8.64,21.42-13.99,4.1-2.67,8.44-5.5,12.98-8.46,2.27-1.48,4.6-3,6.97-4.54,2.4-1.5,4.84-3.02,7.33-4.58l.05-.03h.06c3.03-.11,6.29-.22,9.6-.33h0s0,0,0,0c4.07.22,8.26.66,12.43,1.77,1.04.29,2.08.6,3.1,1.05.97.57,1.95,1.09,2.88,1.73l1.34,1.07.67.54.6.62,1.21,1.25c.39.43.73.92,1.09,1.38,2.55,3.36,4.33,7.29,5.52,11.32,1.21,4.03,1.89,8.18,2.11,12.27.66,8.13,1.3,15.98,1.91,23.46,1.21,14.95,2.3,28.41,3.21,39.72.9,11.3,1.62,20.44,2.12,26.78.24,3.15.43,5.6.55,7.28.06.82.1,1.45.13,1.9.03.43.03.65.03.65,0,0-.03-.22-.08-.64-.04-.45-.1-1.07-.18-1.89-.15-1.68-.37-4.13-.64-7.28-.54-6.34-1.32-15.48-2.28-26.77-.94-11.31-2.07-24.77-3.32-39.72-.62-7.48-1.27-15.32-1.94-23.46-.23-4.06-.9-8.16-2.1-12.14-1.17-3.98-2.93-7.85-5.43-11.14-.36-.45-.69-.93-1.07-1.36l-1.19-1.22-.59-.61-.65-.52-1.3-1.04c-.9-.62-1.88-1.15-2.8-1.69-.98-.43-2.01-.74-3.03-1.03-4.12-1.1-8.29-1.54-12.33-1.77h.02c-3.31.11-6.57.22-9.6.32l.11-.03c-2.49,1.55-4.94,3.07-7.34,4.56-2.37,1.54-4.7,3.05-6.98,4.52-4.55,2.95-8.9,5.76-13,8.42-8.21,5.31-15.45,10-21.47,13.89-6.01,3.87-10.79,6.95-14.09,9.07-1.63,1.04-2.9,1.85-3.77,2.4-.42.26-.74.46-.98.61-.22.13-.34.19-.34.19Z"/>
          </g>
          <g>
            <polygon class="st33" points="228.66 288.87 264.24 298.52 231.31 316.42 226.56 303.74 228.66 288.87"/>
            <g class="st13">
              <polygon points="228.66 288.87 264.24 298.52 231.31 316.42 226.56 303.74 228.66 288.87"/>
            </g>
            <path class="st33" d="M159.3,197.42s-18.12,27.87-14.79,55c3.83,31.31,10.46,74.82,9.4,83.85-.78,6.66,5.27,10.53,5.27,10.53l74.2-34.66-4.25-51.05-25.19-49-2.16-12.17-40.88-10.19-1.6,7.7Z"/>
            <g>
              <g class="st13">
                <path d="M233.12,289.86l.74,7.9c-12.22-5.52-25.14-11.29-37.36-16.81-6.97-3.15-14.04-6.35-19.93-11.22-5.9-4.87-10.59-11.7-11.21-19.32,20.98,15.09,44.21,28.82,67.77,39.45Z"/>
              </g>
              <path class="st33" d="M160.6,227.05c-4.39,18.31,6.95,33.97,22.99,42.1,17.58,8.91,41.41,19.65,47.69,22.39,10.26,4.49,31.4,8.89,44.92,2.02,11.21-5.7,24.26-4.95,24.26-4.95l-8.96-13.68-13.5-3.94-36.65-10.6s-31.92-34.7-40.97-43.93c-10.13-10.32-29.72-9.64-37.79,5.83-.58,1.11-1.68,3.44-1.99,4.75Z"/>
              <path class="st10" d="M160.6,227.05s.03-.18.12-.52c.1-.34.27-.83.53-1.47.26-.64.6-1.42,1.05-2.33.45-.91,1.1-1.89,1.76-3.04,1.53-2.14,3.67-4.68,6.88-6.7,3.19-2.02,7.41-3.47,12.22-3.58,4.78-.04,10.21,1.28,14.9,4.8,2.31,1.8,4.32,4.07,6.5,6.32,2.15,2.27,4.37,4.63,6.67,7.05,9.14,9.74,19.32,20.73,30.3,32.64l-.11-.07c15.44,4.47,32.4,9.38,50.15,14.52l.09.03.05.08c2.66,4.07,5.5,8.4,8.36,12.77.2.31.41.62.59.91l.29.45-.53-.02c-2.98-.11-5.98.09-8.91.47-2.94.38-5.83.98-8.63,1.83-1.4.44-2.77.92-4.11,1.48-1.33.6-2.66,1.2-3.98,1.8-.67.31-1.34.6-2.04.8-.69.22-1.38.47-2.07.66-1.41.32-2.8.7-4.22.87-5.66.9-11.31.63-16.74-.06-5.43-.77-10.68-2-15.62-3.81-2.48-.9-4.82-2-7.16-3.04-2.33-1.05-4.62-2.09-6.89-3.12-4.51-2.09-8.88-4.11-13.12-6.07-8.44-3.96-16.26-7.74-23.34-11.33-3.54-1.82-6.73-3.92-9.52-6.2-1.42-1.12-2.67-2.35-3.89-3.54-1.14-1.27-2.29-2.46-3.23-3.76-1.02-1.23-1.8-2.58-2.63-3.82-.35-.66-.7-1.3-1.04-1.93-.17-.32-.34-.63-.5-.94-.14-.32-.27-.65-.41-.96-.27-.63-.53-1.26-.79-1.86-.2-.63-.4-1.24-.59-1.84-.43-1.19-.62-2.38-.87-3.49-.86-4.48-.52-8.06-.27-10.42.19-1.18.4-2.07.51-2.67.12-.6.2-.9.2-.9,0,0-.04.31-.14.91-.1.6-.28,1.49-.46,2.67-.22,2.36-.52,5.92.37,10.36.26,1.1.45,2.28.89,3.46.19.59.39,1.2.6,1.83.26.6.52,1.22.8,1.84.14.31.27.63.41.95.17.31.33.62.5.93.34.63.69,1.26,1.04,1.91.82,1.23,1.61,2.56,2.63,3.78.94,1.29,2.08,2.47,3.22,3.72,1.22,1.17,2.47,2.39,3.88,3.49,2.78,2.25,5.95,4.33,9.47,6.12,7.08,3.56,14.91,7.33,23.35,11.27,4.23,1.95,8.61,3.96,13.12,6.04,2.26,1.02,4.56,2.05,6.89,3.1,2.34,1.03,4.68,2.13,7.13,3.01,4.9,1.79,10.13,3.01,15.52,3.77,5.39.68,11,.95,16.59.05,1.4-.17,2.78-.54,4.16-.86.68-.19,1.36-.44,2.04-.66.69-.2,1.35-.48,2-.79,1.32-.6,2.65-1.2,3.98-1.8,1.36-.57,2.75-1.06,4.16-1.5,2.83-.86,5.75-1.46,8.71-1.85,2.97-.38,5.97-.58,9.01-.47l-.24.43c-.19-.29-.39-.6-.59-.91-2.86-4.38-5.7-8.71-8.36-12.77l.15.11c-17.74-5.15-34.7-10.07-50.14-14.56l-.07-.02-.05-.05c-10.97-11.93-21.13-22.93-30.24-32.69-2.29-2.43-4.5-4.79-6.64-7.07-2.17-2.25-4.18-4.53-6.44-6.3-4.6-3.49-9.96-4.81-14.68-4.79-4.76.09-8.94,1.5-12.1,3.48-3.2,1.98-5.33,4.48-6.87,6.59-.67,1.13-1.32,2.1-1.78,3-.45.9-.81,1.68-1.08,2.31-.27.63-.45,1.12-.57,1.45-.11.33-.16.5-.16.5Z"/>
            </g>
            <g>
              <path class="st39" d="M233.23,301.12s-1.76,12.72-1.97,14.3c-.21,1.59,1.73,6.9,1.59,9.8-.14,2.9-1.19,5.66,0,6.62,1.18.97,4.22.41,4.98-1.66.76-2.07.62-8.49.62-8.49l1.45,5.8v10.73s.21,1.69,2.14,1.62c1.93-.07,3.11-1.62,3.11-1.62,0,0,2.28.59,3.52-1.9,0,0,3.45,1.1,4.69-4.69,0,0,1.59.55,2.62-.97,1.03-1.52,3.1-5.31,3.1-5.31,0,0,.35-14.15-.48-17.25s-6.05-11.22-6.05-11.22c-5.09-.27-10.77-1.54-16.03-3.26l-3.27,7.49Z"/>
              <path class="st35" d="M245.07,314.19s.16.3.37.87c.22.57.47,1.41.74,2.46.54,2.1,1.02,5.09,1.02,8.42-.01,3.33-.51,6.31-1.06,8.42-.27,1.05-.53,1.89-.75,2.46-.21.57-.34.88-.38.87-.08-.03.33-1.3.78-3.41.46-2.1.89-5.05.9-8.34,0-3.28-.42-6.23-.86-8.34-.44-2.11-.85-3.38-.77-3.41Z"/>
              <path class="st35" d="M251.77,313.92s.1.31.18.89c.08.58.19,1.41.3,2.45.2,2.07.44,4.96.17,8.15-.26,3.19-1.11,6.02-2.05,7.9-.46.94-.91,1.67-1.26,2.14-.34.47-.56.71-.59.69-.07-.05.7-1.09,1.53-2.98.84-1.88,1.61-4.65,1.87-7.8.26-3.14.09-6.01-.02-8.08-.12-2.07-.2-3.36-.12-3.37Z"/>
              <path class="st35" d="M254.57,313.57c.07,0,.14,1.02.31,2.66.16,1.64.48,3.91.52,6.46.05,2.55-.37,4.87-1.01,6.43-.31.78-.64,1.38-.9,1.77-.26.39-.43.58-.46.56-.08-.05.51-.9,1.02-2.45.53-1.54.88-3.8.84-6.3-.05-2.5-.31-4.78-.38-6.44-.08-1.66-.02-2.69.04-2.69Z"/>
            </g>
            <path class="st10" d="M160.37,196.95s.18.04.49.16c.37.15.82.34,1.36.57,1.26.53,2.94,1.24,4.99,2.1,4.23,1.74,10.11,4.04,16.72,6.25,5.35,1.79,10.35,3.25,14.35,4.34l-.24.1c1.61-2.66,2.45-5.09,2.93-6.8.24-.86.39-1.53.49-2,.1-.46.16-.71.18-.7.02,0,0,.25-.05.73-.06.47-.18,1.16-.38,2.04-.41,1.74-1.21,4.23-2.8,6.96l-.08.14-.16-.04c-4.03-1.03-9.05-2.46-14.42-4.25-6.63-2.21-12.5-4.58-16.7-6.41-2.1-.92-3.78-1.7-4.93-2.25-.53-.26-.96-.48-1.32-.66-.3-.16-.45-.25-.44-.26Z"/>
            <path class="st10" d="M285.84,286.57c-.14-.06.54-2.16,1.51-4.69.97-2.54,1.87-4.55,2.01-4.49.14.06-.54,2.16-1.51,4.69-.97,2.54-1.87,4.55-2.01,4.49Z"/>
            <path class="st10" d="M236.34,281.96c-.07-.02.12-.96.45-2.48.37-1.72.8-3.72,1.27-5.92.44-2.21.84-4.22,1.18-5.94.3-1.52.5-2.46.57-2.45.07.01,0,.97-.2,2.52-.2,1.54-.55,3.67-1.03,5.99-.48,2.32-1,4.41-1.43,5.9-.42,1.5-.74,2.4-.81,2.38Z"/>
            <path class="st10" d="M230.07,280.99c-.06,0-.11-.88.07-2.27.18-1.4.62-3.31,1.47-5.28.85-1.97,1.93-3.6,2.82-4.67.89-1.07,1.54-1.63,1.59-1.58.14.12-2.27,2.59-3.92,6.47-1.69,3.86-1.86,7.36-2.03,7.33Z"/>
          </g>
        </g>
        <g>
          <polygon class="st41" points="132.72 504.79 138.92 505.1 160.31 392.92 150.61 391.37 132.72 504.79"/>
          <polygon class="st41" points="251.1 504.79 244.89 505.1 223.51 392.92 233.21 391.37 251.1 504.79"/>
          <path class="st21" d="M142.63,378.72c-.04-.37-.07-.74-.09-1.11-.32-7.07,2.56-13.85,5.32-20.37,7.41-17.48,4.52-35.74,2.43-54.6-2.75-24.94-11.03-45.85-17.57-69.97-.77-2.84-3.38-4.79-6.33-4.79h0c-4.43,0-7.64,4.29-6.28,8.49,7.29,22.56,13.86,42.61,16.47,66.27,2.08,18.86,4.98,37.13-2.43,54.6-2.77,6.52-5.64,13.3-5.32,20.37.31,7.07,4.86,14.5,11.87,15.64h104.22c3.63,0,6.57-2.94,6.57-6.56v-1.42c0-3.62-2.94-6.56-6.57-6.56h-102.29Z"/>
        </g>
      </g>
      <g>
        <path class="st37" d="M565.94,76.27c-6.89,0-12.48-5.59-12.48-12.48s5.59-12.48,12.48-12.48,12.48,5.59,12.48,12.48-5.59,12.48-12.48,12.48ZM565.94,71.11c4.04,0,7.32-3.28,7.32-7.32s-3.28-7.32-7.32-7.32-7.32,3.28-7.32,7.32,3.28,7.32,7.32,7.32ZM539.81,76.27c-6.89,0-12.48-5.59-12.48-12.48s5.59-12.48,12.48-12.48,12.48,5.59,12.48,12.48-5.59,12.48-12.48,12.48ZM539.81,71.11c4.04,0,7.32-3.28,7.32-7.32s-3.28-7.32-7.32-7.32-7.32,3.28-7.32,7.32,3.28,7.32,7.32,7.32ZM526.17,63.63c0,6.98-5.59,12.65-12.48,12.65s-12.48-5.66-12.48-12.63,5.08-12.33,12.48-12.33c2.74,0,5.27.58,7.32,2.09v-7.24c0-1.39,1.21-2.51,2.58-2.51s2.58,1.13,2.58,2.51v17.46ZM513.69,71.11c4.04,0,7.32-3.28,7.32-7.32s-3.28-7.32-7.32-7.32-7.32,3.28-7.32,7.32,3.28,7.32,7.32,7.32Z"/>
        <path class="st37" d="M487.57,76.27c-6.89,0-12.48-5.59-12.48-12.48s5.59-12.48,12.48-12.48,12.48,5.59,12.48,12.48-5.59,12.48-12.48,12.48ZM487.57,71.11c4.04,0,7.32-3.28,7.32-7.32s-3.28-7.32-7.32-7.32-7.32,3.28-7.32,7.32,3.28,7.32,7.32,7.32Z"/>
      </g>
      <g>
        <path class="st10" d="M796.7,101.5c-.06.09-3.98-2.47-8.75-5.73-4.77-3.26-8.58-5.97-8.52-6.07.06-.09,3.98,2.47,8.75,5.73,4.77,3.26,8.58,5.97,8.52,6.07Z"/>
        <g>
          <path class="st10" d="M890.17,155.46c-.05.1-7.2-3.62-15.96-8.31-8.76-4.69-15.82-8.57-15.77-8.67.05-.1,7.2,3.62,15.96,8.31,8.76,4.69,15.82,8.57,15.76,8.67Z"/>
          <path class="st10" d="M858.88,137.23s-.17.12-.53.33c-.37.22-.9.53-1.59.94-1.42.83-3.5,2.04-6.16,3.6-5.38,3.13-13.15,7.64-22.73,13.21l-.08.04-.08-.04c-8.84-5.09-19.43-11.19-31.11-17.91l-.1-.06v-.11c0-11.1,0-23.24-.01-35.89h0v-.12l.1-.06c10.93-6.3,21.41-12.35,31.09-17.94l.1-.06.1.06c11.66,6.75,22.19,12.85,31.07,17.98l.08.04v.09c-.03,11.07-.06,20.06-.07,26.28-.02,3.09-.03,5.49-.04,7.14,0,.8-.02,1.42-.02,1.85,0,.42-.02.62-.02.62,0,0-.01-.22-.02-.65,0-.44-.01-1.06-.02-1.87,0-1.65-.02-4.06-.04-7.16-.02-6.21-.04-15.17-.07-26.22l.08.13c-8.89-5.12-19.43-11.19-31.11-17.91h.19c-9.68,5.59-20.16,11.65-31.08,17.96l.1-.18h0c0,12.66,0,24.8-.01,35.9l-.1-.17c11.66,6.75,22.24,12.88,31.07,17.98h-.15c9.58-5.5,17.36-9.95,22.74-13.05,2.69-1.53,4.79-2.73,6.22-3.55.71-.4,1.25-.7,1.63-.92.37-.21.57-.31.57-.31Z"/>
          <circle class="st21" cx="779.44" cy="89.71" r="3.17"/>
          <path class="st21" d="M801.6,101.5c0,2.71-2.19,4.9-4.9,4.9s-4.9-2.19-4.9-4.9,2.19-4.9,4.9-4.9,4.9,2.19,4.9,4.9Z"/>
          <path class="st21" d="M863.35,101.5c0,2.71-2.19,4.9-4.9,4.9s-4.9-2.19-4.9-4.9,2.19-4.9,4.9-4.9,4.9,2.19,4.9,4.9Z"/>
          <circle class="st21" cx="858.45" cy="138.47" r="4.9"/>
          <path class="st21" d="M893.83,155.46c0,2.02-1.64,3.66-3.66,3.66s-3.66-1.64-3.66-3.66,1.64-3.66,3.66-3.66,3.66,1.64,3.66,3.66Z"/>
          <path class="st21" d="M832.64,155.46c0,2.71-2.19,4.9-4.9,4.9s-4.9-2.19-4.9-4.9,2.19-4.9,4.9-4.9,4.9,2.19,4.9,4.9Z"/>
          <path class="st21" d="M802.26,136.73c0,2.71-2.19,4.9-4.9,4.9s-4.9-2.19-4.9-4.9,2.19-4.9,4.9-4.9,4.9,2.19,4.9,4.9Z"/>
          <path class="st10" d="M827.79,47.73c.11,0,.21,7.76.21,17.34s-.09,17.34-.21,17.34-.21-7.76-.21-17.34.09-17.34.21-17.34Z"/>
          <path class="st21" d="M832.69,83.39c0,2.71-2.19,4.9-4.9,4.9s-4.9-2.19-4.9-4.9,2.19-4.9,4.9-4.9,4.9,2.19,4.9,4.9Z"/>
          <circle class="st21" cx="827.79" cy="46.37" r="3.99"/>
        </g>
      </g>
      <g>
        <path class="st37" d="M6.45,250.85s.08.07.21.21c.14.14.33.37.59.64.53.56,1.34,1.36,2.47,2.28,1.13.92,2.62,1.93,4.48,2.83,1.86.9,4.12,1.65,6.71,1.97,2.59.34,5.45.28,8.53.3,3.08,0,6.41.26,9.76,1.21,3.35.93,6.72,2.44,9.84,4.6,3.11,2.16,5.94,4.98,8.11,8.36,2.18,3.38,3.61,7.11,4.29,10.83.7,3.72.61,7.45-.08,10.85-.66,3.41-1.64,6.56-2.2,9.57-.59,3.01-.66,5.9-.22,8.46.42,2.57,1.26,4.8,2.2,6.64.94,1.85,2,3.3,2.94,4.41.46.57.93,1.01,1.31,1.43.41.38.75.72,1.04.97.29.24.51.43.67.56.15.13.23.2.22.2,0,0-.09-.05-.24-.17-.17-.13-.4-.31-.69-.54-.3-.24-.65-.57-1.07-.94-.39-.41-.88-.84-1.34-1.41-.97-1.1-2.05-2.55-3.01-4.41-.97-1.85-1.83-4.09-2.27-6.69-.47-2.59-.41-5.52.17-8.56.55-3.04,1.52-6.19,2.17-9.58.68-3.38.76-7.05.06-10.73-.68-3.68-2.1-7.36-4.25-10.7-2.14-3.34-4.94-6.13-8.01-8.27-3.08-2.14-6.42-3.64-9.73-4.57-3.32-.95-6.61-1.22-9.67-1.23-3.07-.03-5.95.02-8.56-.34-2.61-.34-4.9-1.12-6.76-2.04-1.87-.93-3.35-1.97-4.48-2.9-1.13-.94-1.92-1.76-2.44-2.33-.26-.28-.44-.52-.57-.67-.13-.15-.19-.23-.18-.24Z"/>
        <path class="st37" d="M27.15,231.32s1.08,1.26,2.7,3.76c.8,1.26,1.74,2.83,2.61,4.77.86,1.93,1.69,4.25,1.88,6.94.05.67.04,1.36,0,2.06-.07.7-.18,1.41-.3,2.13-.25,1.43-.51,2.92-.78,4.47-.55,3.08-1.17,6.38-1.65,9.86-.47,3.47-.4,7.2.39,10.94.79,3.73,2.32,7.46,4.68,10.73,2.36,3.28,5.44,5.91,8.8,7.7,3.36,1.79,7.01,2.75,10.51,2.79,3.51.07,6.83-.45,9.98-.51,1.57-.04,3.1.03,4.54.27,1.44.25,2.8.61,4.05,1.1,2.51.96,4.57,2.29,6.21,3.64,1.64,1.35,2.85,2.76,3.71,3.97.87,1.21,1.42,2.24,1.77,2.95.16.35.28.62.37.82.08.18.11.28.11.28,0,0-.05-.09-.15-.27-.1-.19-.23-.46-.4-.8-.36-.69-.93-1.7-1.81-2.9-.88-1.19-2.09-2.57-3.73-3.9-1.64-1.32-3.69-2.62-6.17-3.56-1.24-.47-2.59-.82-4.01-1.06-1.43-.23-2.94-.29-4.5-.25-3.12.07-6.45.61-9.99.54-3.55-.04-7.26-1-10.67-2.81-3.41-1.81-6.52-4.48-8.92-7.8-2.4-3.32-3.94-7.1-4.73-10.87-.8-3.77-.86-7.55-.38-11.05.5-3.49,1.12-6.79,1.68-9.87.28-1.54.54-3.03.8-4.46.13-.72.24-1.42.31-2.1.05-.69.06-1.36.02-2.02-.18-2.65-.97-4.95-1.81-6.88-.84-1.93-1.76-3.51-2.55-4.78-.79-1.26-1.45-2.21-1.9-2.85-.22-.31-.39-.55-.52-.73-.11-.17-.17-.26-.17-.26Z"/>
        <path class="st37" d="M34.09,249.82c.06.07-2.35,2.29-5.38,4.95-3.04,2.66-5.55,4.76-5.61,4.69-.06-.07,2.35-2.29,5.38-4.95,3.03-2.66,5.55-4.76,5.61-4.69Z"/>
        <path class="st37" d="M33.36,243.13c.06.08-4.03,3.2-9.13,6.98-5.1,3.78-9.28,6.78-9.34,6.7-.06-.08,4.03-3.2,9.13-6.98,5.1-3.78,9.28-6.78,9.34-6.7Z"/>
        <path class="st37" d="M30.7,236.62c.06.08-4.89,3.79-11.05,8.28-6.16,4.5-11.2,8.08-11.26,8-.06-.08,4.89-3.79,11.05-8.28,6.16-4.5,11.2-8.08,11.25-8Z"/>
        <path class="st37" d="M61.74,288.66c.05.08-2.79,1.94-6.34,4.14-3.55,2.21-6.47,3.93-6.52,3.85-.05-.08,2.79-1.93,6.34-4.14,3.55-2.2,6.47-3.93,6.52-3.84Z"/>
        <path class="st37" d="M59.79,279.33s-.23.22-.68.56c-.45.34-1.11.82-1.94,1.41-1.65,1.17-3.96,2.73-6.56,4.39-2.6,1.65-5,3.08-6.76,4.08-.88.5-1.59.89-2.1,1.16-.5.26-.78.4-.79.38s.25-.2.73-.5c.54-.33,1.22-.75,2.04-1.25,1.72-1.05,4.1-2.51,6.7-4.16,2.6-1.65,4.93-3.18,6.61-4.3.8-.53,1.47-.97,2-1.31.47-.31.74-.47.76-.45Z"/>
        <path class="st37" d="M55.76,271.76s-.28.21-.83.53c-.6.35-1.38.8-2.31,1.35-1.95,1.14-4.63,2.73-7.53,4.58-2.91,1.85-5.49,3.59-7.34,4.88-.89.61-1.63,1.12-2.2,1.52-.52.36-.82.55-.83.53-.01-.02.25-.24.75-.64.5-.39,1.23-.94,2.14-1.61,1.82-1.34,4.39-3.12,7.3-4.97,2.91-1.85,5.61-3.42,7.6-4.5.99-.54,1.8-.97,2.37-1.25.56-.28.88-.43.89-.41Z"/>
        <path class="st37" d="M48.04,265.86s-.2.18-.61.46c-.47.31-1.04.7-1.71,1.15-1.45.96-3.45,2.3-5.63,3.82-2.18,1.52-4.13,2.93-5.54,3.95-.66.48-1.22.88-1.67,1.21-.4.28-.62.43-.64.41-.01-.02.18-.2.56-.52.37-.32.92-.76,1.61-1.3,1.37-1.08,3.3-2.52,5.49-4.04,2.18-1.52,4.21-2.83,5.7-3.74.74-.46,1.35-.82,1.78-1.06.42-.24.67-.36.68-.34Z"/>
        <path class="st37" d="M42.08,261.23c.05.08-2.31,1.78-5.29,3.79-2.98,2.01-5.43,3.58-5.48,3.5-.05-.08,2.31-1.78,5.29-3.79,2.97-2.01,5.43-3.58,5.48-3.5Z"/>
        <path class="st37" d="M73.19,297.81s-.18.17-.54.42c-.43.29-.94.64-1.54,1.04-1.38.92-3.14,2.1-5.09,3.41-1.94,1.32-3.69,2.52-5.06,3.45-.6.4-1.11.75-1.54,1.04-.37.24-.58.36-.59.34s.17-.18.51-.45c.34-.27.85-.66,1.48-1.13,1.26-.94,3.03-2.2,5.01-3.54,1.99-1.34,3.81-2.51,5.15-3.33.67-.41,1.22-.73,1.6-.95.38-.22.6-.33.61-.31Z"/>
        <path class="st37" d="M80.92,302.18c.05.08-4.68,3.38-10.56,7.37-5.89,3.99-10.71,7.16-10.76,7.08-.05-.08,4.68-3.38,10.56-7.37,5.89-3.99,10.7-7.16,10.76-7.08Z"/>
        <path class="st37" d="M86.08,306.23c.06.08-5.08,3.87-11.46,8.48-6.39,4.61-11.61,8.28-11.66,8.2-.06-.08,5.07-3.87,11.46-8.48,6.38-4.6,11.61-8.27,11.66-8.2Z"/>
      </g>
    </g>
  </g>
</svg>
