<?xml version="1.0" encoding="UTF-8"?>
<svg id="Capa_1" xmlns="http://www.w3.org/2000/svg" version="1.1" viewBox="0 0 900 900">
  <!-- Generator: Adobe Illustrator 30.2.1, SVG Export Plug-In . SVG Version: 2.1.1 Build 1)  -->
  <defs>
    <style>
      .st0 {
        opacity: .6;
      }

      .st1 {
        fill: #973032;
      }

      .st2 {
        fill: #263238;
      }

      .st3 {
        opacity: .3;
      }

      .st4 {
        fill: #fff;
      }

      .st5 {
        fill: #e0e0e0;
      }

      .st6 {
        fill: #dee0e2;
      }

      .st7 {
        fill: #455a64;
      }

      .st8 {
        fill: #bc2e41;
      }

      .st9 {
        fill: #e0e0e0;
      }

      .st10, .st11 {
        fill: #1f2123;
      }

      .st12 {
        fill: #bd0043;
      }

      .st13 {
        fill: #ae2f3d;
      }

      .st14 {
        fill: #ff9a6c;
      }

      .st15 {
        fill: #f5f5f5;
      }

      .st16 {
        fill: #c8ced3;
      }

      .st17 {
        fill: #ffc09d;
      }

      .st18 {
        fill: #d5d9dc;
      }

      .st11 {
        font-size: 13.09px;
      }
    </style>
  </defs>
  <rect class="st7" x="29.08" y="32.42" width="842.02" height="835.57"/>
  <rect class="st9" x="27.4" y="603.93" width="841.34" height="264.07"/>
  <g>
    <rect class="st12" x="29.32" y="61.5" width="840.95" height="34.97"/>
    <circle class="st4" cx="57.93" cy="80.71" r="10.05"/>
    <path class="st4" d="M271.17,87.73H88.92c-3.88,0-7.02-3.14-7.02-7.02h0c0-3.88,3.14-7.02,7.02-7.02h182.25c3.88,0,7.02,3.14,7.02,7.02h0c0,3.88-3.14,7.02-7.02,7.02Z"/>
    <rect class="st2" x="29.32" y="32.42" width="840.95" height="29.07"/>
    <path class="st2" d="M870.69,867.35c0-4.7-.16-327.81-.41-834.64l.41.57c-234.77.04-526.19.08-841.21.13h-.07l.51-.7c-.02,298.86-.03,582.43-.05,834.64l-.46-.64c497.26.38,837.19.64,841.28.64-4.08,0-344.01.26-841.28.64h-.46s0-.64,0-.64c-.01-252.21-.03-535.78-.05-834.64v-.7h.58c315.02.05,606.44.1,841.21.13h.41v.57c-.25,506.83-.41,829.95-.41,834.64Z"/>
    <circle class="st4" cx="49.19" cy="46.85" r="5.13"/>
    <circle class="st4" cx="66.02" cy="46.85" r="5.13"/>
    <circle class="st4" cx="81.94" cy="46.85" r="5.13"/>
  </g>
  <g>
    <path class="st15" d="M474.4,340.44c-.14-1.43-.3-2.83-.5-4.24-.19-1.49-.41-2.97-.66-4.44.25,1.47.47,2.95.66,4.44.2,1.41.36,2.81.5,4.24Z"/>
    <path class="st15" d="M463.02,358.02c-1.23-2.77-1.51-5.85-2.32-8.76-.44-1.57-1.17-3.23-2.64-3.92-.97-.46-2.12-.4-3.15-.71-3.71-1.11-4.72-6.28-8.23-7.89-1.11-.5-2.34-.59-3.53-.73-4.7-.55-9.55-2.18-12.51-5.87-.97-1.19-1.7-2.6-2.89-3.57-1.21-.97-3.07-1.39-4.24-.4.99,1.98,1.96,3.96,2.93,5.93.89,1.78,1.8,3.63,3.29,4.93,1.51,1.33,3.73,2.02,5.53,1.19.59-.28,1.19-.73,1.86-.65.48.06.89.4,1.21.77,2.56,2.83,1.72,7.53-.77,10.42-2.48,2.87-6.16,4.38-9.71,5.79-1.27.5-2.62,1.01-3.96.77-2.46-.46-3.77-3.13-4.48-5.53-1.61-5.31-2.38-11.08-5.67-15.56-1.05-1.41-2.36-2.7-2.99-4.34-.67-1.78-.52-3.86-1.59-5.43-1.11-1.64-3.47-2.6-3.63-4.58-.1-1.39,1.05-2.62,2.32-3.21,1.27-.61,2.7-.79,4-1.33.52-.22,1.09-.59,1.11-1.15,0-.83-1.15-1.17-1.45-1.94-.32-.87.57-1.68.95-2.54.81-1.94-1.21-3.9-3.17-4.7-1.94-.79-4.3-1.37-5.21-3.27-.42-.87-.46-1.88-.63-2.83-.46-2.4-2.22-4.72-4.64-5.11-2.44-.4-5.13,1.76-4.74,4.18.24,1.33,1.23,2.36,1.76,3.59.55,1.23.4,3.05-.87,3.45-2.08.63-4.08-3.17-5.83-1.86.71,2.44,1.41,4.88,2.12,7.33-2.74,1.39-6.01-1.13-7.17-3.98-1.17-2.83-1.21-6.08-2.6-8.82-1.39-2.75-5.13-4.8-7.51-2.85-.12,3.53,4.54,4.95,6.6,7.81,1.49,2.06,1.27,5.41-.93,6.72-2.18,1.31-5.65-.97-4.82-3.37.3-.83.99-1.53,1.07-2.42.08-1.11-.85-2-1.7-2.71-1.33-1.13-2.66-2.24-3.98-3.35-.85-.71-1.76-1.47-2.83-1.78-2.73-.79-5.47,1.43-6.92,3.86-1.45,2.46-2.26,5.33-4.26,7.37-2.87,2.97-8.32,3.15-11.02.04-2.72-3.11-1.33-8.94,2.66-10.07,1.51-.42,3.41-.38,4.2-1.7,1.39-2.36-2.58-5.37-1.21-7.75,1.05-1.82,3.83-.99,5.85-1.61,2-.61,3.13-2.64,4.32-4.38,1.17-1.72,3.01-3.47,5.07-3.01-.16-1.21-.32-2.52.22-3.61.54-1.11,2.04-1.82,3.03-1.11-1.01,1.66.2,3.98,1.96,4.82,1.76.83,3.83.63,5.77.42,1.94-.24,4.38-.95,4.54-2.89.06-.63-.18-1.31.06-1.9.85-2.32,5.13.87,6.78-.99.95-.97-.1-2.7-1.43-3.01-1.31-.34-2.68.16-4.02.2-1.35.06-2.99-.65-3.05-2-.06-1.33,1.43-2.28,1.59-3.59.26-2.22-3.51-2.79-4.84-.99-1.31,1.8-.85,4.28-.46,6.48.42,2.2.61,4.8-1.01,6.34-.69,1.05-2.5.5-3.09-.61-.61-1.11-.48-2.46-.57-3.71-.1-1.27-.65-2.7-1.88-3.03-.85-.24-1.76.18-2.64.3-3.45.42-5.85-4.04-4.76-7.33,1.07-3.31,4.2-5.43,7.23-7.12,2.22-1.23,4.97-2.38,7.17-1.13,1.03.57,1.74,1.57,2.75,2.16,1.74,1.03,3.9.65,5.91.69,3.15.08,6.26,1.29,8.62,3.35.89.81,1.72,2.16,1.03,3.13-.75,1.03-2.91,1.25-2.54,2.46,2.34.77,5.13-1.03,5.39-3.47,1.15.52,1.98,1.68,2.08,2.93,2.52-2.56,7.35-2.18,9.41.77.55.77.95,1.7,1.74,2.24.79.52,2.18.26,2.28-.67.04-.3-.06-.59-.16-.87-.48-1.35-.97-2.68-1.45-4,1.84-.99,4.02.56,5.27,2.22,4.64,6.2,7.95,2.48,14.49,3.49,4.42.67,6.36,3.51,8.86,6.94,7.65,10.54,17.76,19.18,24.71,30.2.73,1.15,1.41,2.32,2.04,3.51-.12-.3-.22-.59-.34-.89-2.73-7.19-6.12-14.07-10.11-20.55-.85-1.39-1.72-2.75-2.62-4.1-.56-.83-1.13-1.68-1.7-2.5-.73-1.07-1.51-2.1-2.28-3.13-.61-.83-1.23-1.64-1.86-2.44-.44-.55-.89-1.11-1.35-1.66-.48-.63-.99-1.25-1.55-1.86l-1.66-1.92c-.16-.2-.34-.4-.54-.59-.57-.67-1.19-1.33-1.8-1.98-.04-.08-.1-.14-.18-.2-.16-.18-.34-.36-.52-.54-.5-.56-1.03-1.09-1.55-1.63-.85-.87-1.72-1.74-2.62-2.58-.73-.73-1.49-1.43-2.26-2.12-.67-.61-1.35-1.23-2.04-1.82-.67-.59-1.35-1.17-2.04-1.74-.83-.71-1.68-1.41-2.56-2.1h-.02c-2.4-1.92-4.88-3.75-7.41-5.45-.63-.44-1.25-.85-1.88-1.27-.63-.44-1.29-.83-1.92-1.23-.65-.4-1.29-.81-1.94-1.19-.65-.42-1.31-.79-1.96-1.17-.54-.32-1.05-.61-1.59-.89-.28-.18-.53-.32-.81-.46-1.13-.63-2.28-1.25-3.43-1.82-.57-.3-1.15-.59-1.74-.87-.73-.38-1.49-.73-2.24-1.07-.1-.06-.22-.12-.34-.16-.67-.32-1.35-.63-2.04-.93-.97-.42-1.94-.83-2.91-1.23-1.11-.46-2.22-.91-3.35-1.33-1.25-.48-2.5-.93-3.77-1.35-1.27-.44-2.56-.85-3.84-1.25-1.29-.4-2.58-.75-3.88-1.11-2.58-.69-5.19-1.31-7.83-1.84-.04-.02-.1-.02-.14-.04-1.01-.2-2.02-.4-3.03-.55-.08-.02-.14-.04-.2-.04-.44-.08-.89-.16-1.35-.22-1.88-.32-3.79-.57-5.71-.79-.22-.04-.46-.06-.69-.08-.55-.08-1.11-.12-1.68-.18-1.27-.12-2.54-.22-3.83-.3-1.33-.1-2.68-.16-4.02-.2-1.41-.06-2.81-.08-4.22-.08-3.73,0-7.41.16-11.06.5-.87.06-1.72.14-2.58.24-.89.1-1.78.2-2.68.32-.89.12-1.78.24-2.66.38-.89.14-1.76.28-2.66.44-.75.12-1.53.26-2.28.42-1.86.36-3.71.75-5.53,1.19-.85.2-1.7.42-2.56.65-.85.22-1.7.46-2.54.69-1.41.4-2.77.83-4.14,1.27h-.02c-1.11.38-2.24.75-3.33,1.13-.02,0-.06.02-.08.04-1.13.4-2.22.81-3.33,1.25-.06.02-.12.04-.18.06-1.01.4-2.02.81-3.01,1.23-1.25.52-2.48,1.07-3.69,1.63-1.03.48-2.04.95-3.03,1.45-1.07.54-2.14,1.07-3.19,1.63-.04.02-.08.04-.12.06-1.01.53-2.02,1.09-3.01,1.66-1.03.57-2.04,1.17-3.05,1.8h-.02c-.95.57-1.88,1.15-2.81,1.74-.36.22-.69.46-1.05.69-.99.63-1.94,1.29-2.91,1.96-1.19.81-2.34,1.66-3.49,2.52-1.01.75-2,1.53-2.97,2.3-5.61,4.48-10.84,9.41-15.58,14.76-1.68,1.86-3.27,3.77-4.82,5.71-1.31,1.66-2.58,3.35-3.79,5.09-1.09,1.52-2.14,3.06-3.15,4.63,1.01-1.57,2.06-3.12,3.15-4.63.32-.04.63-.08.95-.1,1.78-.14,3.67-.08,5.27-.85,1.49-.73,2.54-2.06,3.88-3.01,3.45-2.46,9.1-2.91,10.03-7.04.32-1.39-.06-2.89.46-4.22.97-2.48,4.28-2.83,6.94-2.79,1.13,0,2.46.16,2.97,1.15.38.69.16,1.57-.12,2.3-1.63,4.64-4.92,8.64-9.1,11.18-3.45,2.1-7.95,3.73-8.9,7.65.48,1.33,2.89,1.23,3.09,2.62.14,1.11-1.29,1.68-1.8,2.68-.75,1.45.97,3.21,2.62,3.13,1.64-.08,3.01-1.27,4.22-2.38,3.61-3.35,7.39-6.96,8.7-11.71.56-1.96.75-4.26,2.34-5.57,1.88-1.55,5.25-.48,5.89,1.88,1.57-.87,4-1.53,4.82.1.28.57.2,1.25.34,1.86.52,2.54,3.98,3.69,4.34,6.24.42,2.95-3.37,4.48-6.32,4.93-2.68.42-5.35.83-8.03,1.27-1.17.18-2.38.38-3.33,1.07-.95.71-1.55,2.06-.99,3.11.32.58.93.95,1.39,1.43,2.22,2.22.4,6.8-2.73,6.9-1.07.04-2.12-.36-3.19-.4-3.17-.14-5.69,2.66-7.19,5.45-1.51,2.79-2.64,5.99-5.17,7.89-4.08,3.07-11.12,2.36-13.1,7.08-.79,1.9-.38,4.04-.06,6.08.32,2.02.46,4.28-.73,5.97-1.17,1.66-4.22,2.02-5.09.16-.38-.81-.26-1.76-.12-2.64.48-2.93.93-5.87,1.39-8.8.34-2.18.63-4.62-.65-6.4-1.8-2.5-5.85-2.26-8.19-.26-2.32,2-3.29,5.13-3.94,8.13-.48,2.22-1.03,5.35-2.26,7.89h0c-.42,2.46-.75,4.96-1.01,7.47-.26,2.58-.44,5.13-.53,7.75.32-.26.65-.57,1.01-.95,1.25-1.29,3.77-6.74,6.02-4.06.57.67.59,1.76.04,2.48-.69.89-2.08,1.09-2.62,2.06-.65,1.15.26,2.58,1.33,3.33,1.07.77,2.38,1.25,3.13,2.34,1.45,2.08.06,5.23,1.47,7.35,1.21,1.82,3.79,1.94,5.99,2.18.26.04.5.08.75.12.61-4.36,2.66-7.91,8.6-9.26,8.2-1.86,18.99,4.93,23.6,11.12,5.15,6.92,7.59,16.71,15.48,20.18,5.65,2.48,13.67,1.59,16.43,7.11,2.46,4.95-1.82,10.52-2.48,16.01-.42,3.63.77,7.23,1.05,10.86.26,3.65-.81,7.89-4.12,9.41-1.84.83-4.16.73-5.65,2.12-2.64,2.5-.48,7.65-3.11,10.15-.93.87-2.22,1.19-3.35,1.76-5.93,2.99-5.77,11.71-3.01,17.76.1.22.2.42.3.63,8.76,5.25,18.19,9.45,28.16,12.43,11.42,3.47,23.52,5.31,36.07,5.31,21.23,0,41.24-5.29,58.76-14.63h.02c3.81-2.04,7.51-4.26,11.08-6.68,5.53-3.71,10.72-7.85,15.56-12.37,3.35-3.13,6.54-6.44,9.51-9.93,2.1-2.42,4.08-4.93,5.99-7.51.97-1.33,1.92-2.66,2.81-4.02,2.73-4,5.23-8.19,7.47-12.51,3.25-6.22,5.97-12.76,8.11-19.54,2.2-6.84,3.81-13.93,4.78-21.23.38-2.81.67-5.67.87-8.54-1.37,1.33-3.15,2.28-5.03,2.24-3.01-.04-5.49-2.56-6.7-5.33Z"/>
    <path class="st15" d="M240.94,385.76c-.4-3.59.79-7.17.85-10.8.04-2.5-.14-5.13-.18-7.65-2.14-.1-4.28-.4-6.36-.89-.44-.1-.91-.24-1.17-.59-.28-.38-.24-.87-.26-1.33-.16-2.81-2.87-4.68-5.31-6.08-1.25-.73-2.52-1.45-3.86-1.9,0,.3,0,.57.02.87.5,13.93,3.27,27.31,7.97,39.74,2.14,5.67,4.7,11.16,7.65,16.41,1.23,2.28,2.58,4.52,3.98,6.72,1.74,2.71,3.57,5.37,5.53,7.93,1.82,2.46,3.77,4.86,5.81,7.15,2.79,3.19,5.75,6.22,8.86,9.12,2.75,2.58,5.63,5.01,8.62,7.33-6.84-18.35-13.28-37.08-24.97-52.7-3.07-4.08-6.6-8.24-7.17-13.32Z"/>
    <path class="st15" d="M224.63,350.58c-.01.76-.04,1.51-.04,2.26,0,.61.02,1.22.03,1.83-.01-.61-.03-1.22-.03-1.83,0-.75.03-1.5.04-2.26Z"/>
    <g class="st0">
      <path class="st15" d="M280.09,456.85c1.05.71,2.12,1.4,3.2,2.08.75.48,1.51.93,2.28,1.39-.77-.46-1.53-.91-2.28-1.39-1.08-.67-2.15-1.37-3.2-2.08Z"/>
    </g>
    <path class="st9" d="M386.16,449c-.79,0-1.57-.08-2.34-.25-2.58-.57-4.55-2.05-5.53-4.19-.79-1.72-.88-3.62-.96-5.45-.06-1.24-.11-2.53-.4-3.73-.51-2.16-1.69-4.02-2.94-5.99-.93-1.46-1.9-2.98-2.55-4.62-1.19-3.01-1.28-6.31-1.37-9.49l-.02-.77c-.66-22.03-6.8-39.91-17.76-51.71-1.52-1.64-3.23-3.23-5.38-3.8-2.5-.66-5.34.31-6.89,2.38-.39.52-.72,1.12-1.04,1.7-.5.91-1.01,1.85-1.81,2.58-1.14,1.04-2.71,1.46-4.41,1.19-2.23-.35-4.39-1.84-5.5-3.79-1.94-3.43-1.59-7.65-1.31-11.04l1.13-13.67c.17-2.11.41-5,2.12-6.98,1.32-1.53,3.23-2.23,5.08-2.91,1.37-.5,2.78-1.02,3.92-1.88,2.19-1.64,3.17-4.24,4.2-6.98.57-1.53,1.17-3.11,1.99-4.52,1.49-2.55,5.01-4.28,7.85-3.86,1.34.2,2.34.87,2.88,1.92,1.35-2.55,3.03-4.08,5.1-4.67,4.53-1.3,10.05,2.28,15.38,5.75,4.87,3.16,9.47,6.15,13.09,5.49.91-.17,1.83-.43,2.73-.68,1.9-.54,3.87-1.09,5.88-.81,5.26.74,7.95,6.44,9.7,11.34l8.56,23.92c1.07,2.98,2.44,6.25,5.27,7.34,1.11.43,2.31.47,3.58.52,1.24.05,2.52.09,3.72.53,2.14.78,3.5,2.45,3.93,4.83.73,3.95-1.25,9.12-4.61,12.02h0c-1.55,1.34-3.31,2.54-5.02,3.7-3.87,2.64-7.53,5.12-9.1,9.21-.84,2.19-.95,4.63-1.05,7-.11,2.53-.22,5.15-1.22,7.53-.86,2.06-2.32,3.77-3.73,5.43-.86,1.01-1.75,2.06-2.49,3.17-2.74,4.13-3.5,9.25-4.23,14.2-.09.63-.19,1.27-.29,1.9-.86,5.52-2.34,11.67-6.81,15.51-1.96,1.68-4.68,2.61-7.36,2.61Z"/>
    <g class="st0">
      <path class="st15" d="M224.7,347.63v-.02h0v.02c-.02.24-.04.46-.04.69-.03.74-.03,1.5-.04,2.26.01-.76,0-1.52.04-2.26,0-.24.02-.46.04-.69Z"/>
    </g>
    <g class="st0">
      <path class="st15" d="M224.62,354.68c0,.61,0,1.23.03,1.83h0c-.02-.6-.02-1.22-.03-1.83Z"/>
    </g>
    <path class="st9" d="M241.83,362.46c-.26-.04-.5-.08-.75-.12-2.2-.24-4.78-.36-5.99-2.18-1.41-2.12-.02-5.27-1.47-7.35-.75-1.09-2.06-1.57-3.13-2.34-1.07-.75-1.98-2.18-1.33-3.33.53-.97,1.92-1.17,2.62-2.06.55-.71.53-1.8-.04-2.48-2.26-2.68-4.78,2.77-6.02,4.06-.36.38-.69.69-1.01.95v.02c-.02.24-.04.46-.04.69-.03.74-.03,1.5-.04,2.26-.01.76-.04,1.51-.04,2.26,0,.61.02,1.22.03,1.83,0,.61,0,1.23.03,1.83,1.35.46,2.62,1.17,3.86,1.9,2.44,1.41,5.15,3.27,5.31,6.08.02.46-.02.95.26,1.33.26.36.73.5,1.17.59,2.08.5,4.22.79,6.36.89"/>
    <path class="st9" d="M241.61,367.31c.04,2.52.22,5.15.18,7.65-.06,3.63-1.25,7.21-.85,10.8.57,5.07,4.1,9.24,7.17,13.32,11.69,15.62,18.13,34.35,24.97,52.7h.02c1.27,1.01,2.56,1.96,3.86,2.89,1.03.74,2.07,1.47,3.12,2.18,1.05.71,2.12,1.4,3.2,2.08.75.48,1.51.93,2.28,1.39-.1-.22-.2-.42-.3-.63-2.76-6.04-2.91-14.76,3.01-17.76,1.13-.57,2.42-.89,3.35-1.76,2.64-2.5.48-7.65,3.11-10.15,1.49-1.39,3.81-1.29,5.65-2.12,3.31-1.53,4.38-5.77,4.12-9.41-.28-3.63-1.47-7.23-1.05-10.86.65-5.49,4.93-11.06,2.48-16.01-2.75-5.53-10.78-4.64-16.43-7.12-7.89-3.47-10.33-13.26-15.48-20.18-4.62-6.18-15.4-12.98-23.6-11.12-5.95,1.35-7.99,4.9-8.6,9.26"/>
    <path class="st9" d="M232.45,316.38c2.34-2,6.38-2.24,8.19.26,1.29,1.78.99,4.22.65,6.4-.46,2.93-.91,5.87-1.39,8.8-.14.87-.26,1.82.12,2.64.87,1.86,3.92,1.51,5.09-.16,1.19-1.68,1.05-3.94.73-5.97-.32-2.04-.73-4.18.06-6.08,1.98-4.72,9.02-4,13.1-7.08,2.54-1.9,3.67-5.09,5.17-7.89,1.51-2.79,4.02-5.59,7.19-5.45,1.07.04,2.12.44,3.19.4,3.13-.1,4.95-4.68,2.73-6.9-.46-.48-1.07-.85-1.39-1.43-.55-1.05.04-2.4.99-3.11.95-.69,2.16-.89,3.33-1.07,2.68-.44,5.35-.85,8.03-1.27,2.95-.46,6.74-1.98,6.32-4.93-.36-2.56-3.82-3.71-4.34-6.24-.14-.61-.06-1.29-.34-1.86-.81-1.63-3.25-.97-4.82-.1-.63-2.36-4-3.43-5.89-1.88-1.59,1.31-1.78,3.61-2.34,5.57-1.31,4.76-5.09,8.36-8.7,11.71-1.21,1.11-2.58,2.3-4.22,2.38-1.65.08-3.37-1.68-2.62-3.13.52-.99,1.94-1.57,1.8-2.68-.2-1.39-2.62-1.29-3.09-2.62.95-3.92,5.45-5.55,8.9-7.65,4.18-2.54,7.47-6.54,9.1-11.18.28-.73.5-1.61.12-2.3-.52-.99-1.84-1.15-2.97-1.15-2.66-.04-5.97.32-6.94,2.79-.52,1.33-.14,2.83-.46,4.22-.93,4.12-6.58,4.58-10.03,7.04-1.35.95-2.4,2.28-3.88,3.01-1.61.77-3.49.71-5.27.85-.32.02-.63.06-.95.1-1.09,1.52-2.14,3.06-3.15,4.63-1.01,1.57-1.99,3.17-2.93,4.78-4.44,7.59-8.09,15.7-10.86,24.22-.97,2.96-1.83,5.98-2.57,9.03-.74,3.06-1.37,6.16-1.89,9.3,1.23-2.54,1.78-5.67,2.26-7.89.65-2.99,1.62-6.12,3.94-8.13Z"/>
    <path class="st9" d="M337.51,258.29c1.18-1.55.84-3.79,1.61-5.58,1.28-2.98,5.24-4.05,6.61-6.99.53-1.13.66-2.51,1.58-3.35.77-.7,1.91-.84,2.73-1.47,1.85-1.41,1.08-4.63-.88-5.88-4.91-3.14-13.95.49-18.2,3.56-5.46,3.95-10.8,8.7-18.06,8.24-2-.13-4.08-.68-5.96.03-1.88.71-3.03,3.52-1.42,4.71.9.66,2.17.48,3.18.95,1.87.87,2.06,3.58,1.14,5.42-.91,1.85-2.56,3.23-3.64,4.99-1.05,1.7-1.53,3.75-1.35,5.74.12,1.39.61,2.82,1.7,3.69,2.26,1.8,5.69.26,7.61-1.91,1.91-2.17,3.23-4.97,5.71-6.45,1.24-.74,2.67-1.08,4.07-1.42,3.16-.75,6.31-1.5,9.47-2.25,1.51-.36,3.13-.79,4.07-2.02Z"/>
    <g class="st0">
      <path class="st15" d="M474.98,351.12c-.01-1.8-.06-3.59-.16-5.37.1,1.78.15,3.57.16,5.37.04.57.04,1.15.04,1.72,0,2.77-.1,5.51-.26,8.24.16-2.74.26-5.47.26-8.24,0-.57,0-1.15-.04-1.72Z"/>
    </g>
    <g class="st0">
      <path class="st15" d="M467.15,309.1c.59,1.59,1.15,3.18,1.68,4.79-.53-1.61-1.09-3.2-1.68-4.79,0,0,.02-.02,0-.02t0,0s0,0,0,0v.02Z"/>
    </g>
    <path class="st9" d="M474.98,351.12c-.01-1.8-.06-3.59-.16-5.37-.1-1.78-.24-3.55-.41-5.31-.14-1.43-.3-2.83-.5-4.24-.19-1.49-.41-2.97-.66-4.44-.74-4.41-1.72-8.75-2.93-13-.47-1.64-.96-3.26-1.49-4.86-.53-1.61-1.09-3.2-1.68-4.79v-.02s0,0,0,0c-.63-1.19-1.31-2.36-2.04-3.51-6.96-11.02-17.06-19.66-24.71-30.2-2.5-3.43-4.44-6.26-8.86-6.94-6.54-1.01-9.85,2.72-14.49-3.49-1.25-1.66-3.43-3.21-5.27-2.22.48,1.33.97,2.66,1.45,4,.1.28.2.58.16.87-.1.93-1.49,1.19-2.28.67-.79-.54-1.19-1.47-1.74-2.24-2.06-2.95-6.9-3.33-9.41-.77-.1-1.25-.93-2.42-2.08-2.93-.26,2.44-3.05,4.24-5.39,3.47-.38-1.21,1.78-1.43,2.54-2.46.69-.97-.14-2.32-1.03-3.13-2.36-2.06-5.47-3.27-8.62-3.35-2-.04-4.16.34-5.91-.69-1.01-.59-1.72-1.59-2.75-2.16-2.2-1.25-4.95-.1-7.17,1.13-3.03,1.68-6.16,3.81-7.23,7.12-1.09,3.29,1.31,7.75,4.76,7.33.87-.12,1.78-.54,2.64-.3,1.23.34,1.78,1.76,1.88,3.03.1,1.25-.04,2.6.57,3.71.59,1.11,2.4,1.66,3.09.61,1.63-1.55,1.43-4.14,1.01-6.34-.4-2.2-.85-4.68.46-6.48,1.33-1.8,5.09-1.23,4.84.99-.16,1.31-1.64,2.26-1.59,3.59.06,1.35,1.7,2.06,3.05,2,1.35-.04,2.71-.54,4.02-.2,1.33.32,2.38,2.04,1.43,3.01-1.65,1.86-5.93-1.33-6.78.99-.24.59,0,1.27-.06,1.9-.16,1.94-2.6,2.66-4.54,2.89-1.94.22-4,.42-5.77-.42-1.76-.83-2.97-3.15-1.96-4.82-.99-.71-2.5,0-3.03,1.11-.54,1.09-.38,2.4-.22,3.61-2.06-.46-3.9,1.29-5.07,3.01-1.19,1.74-2.32,3.77-4.32,4.38-2.02.61-4.8-.22-5.85,1.61-1.37,2.38,2.6,5.39,1.21,7.75-.79,1.33-2.7,1.29-4.2,1.7-3.98,1.13-5.37,6.96-2.66,10.07,2.7,3.11,8.15,2.93,11.02-.04,2-2.04,2.81-4.92,4.26-7.37,1.45-2.44,4.18-4.66,6.92-3.86,1.07.32,1.98,1.07,2.83,1.78,1.33,1.11,2.66,2.22,3.98,3.35.85.71,1.78,1.61,1.7,2.71-.08.89-.77,1.59-1.07,2.42-.83,2.4,2.64,4.68,4.82,3.37,2.2-1.31,2.42-4.66.93-6.72-2.06-2.85-6.72-4.28-6.6-7.81,2.38-1.94,6.12.1,7.51,2.85,1.39,2.73,1.43,5.99,2.6,8.82,1.17,2.85,4.44,5.37,7.17,3.98-.71-2.46-1.41-4.9-2.12-7.33,1.74-1.31,3.75,2.5,5.83,1.86,1.27-.4,1.43-2.22.87-3.45-.53-1.23-1.53-2.26-1.76-3.59-.4-2.42,2.3-4.58,4.74-4.18,2.42.4,4.18,2.72,4.64,5.11.18.95.22,1.96.63,2.83.91,1.9,3.27,2.48,5.21,3.27,1.96.79,3.98,2.75,3.17,4.7-.38.85-1.27,1.66-.95,2.54.3.77,1.45,1.11,1.45,1.94-.02.55-.59.93-1.11,1.15-1.31.54-2.73.71-4,1.33-1.27.59-2.42,1.82-2.32,3.21.16,1.98,2.52,2.93,3.63,4.58,1.07,1.57.91,3.65,1.59,5.43.63,1.64,1.94,2.93,2.99,4.34,3.29,4.48,4.06,10.25,5.67,15.56.71,2.4,2.02,5.07,4.48,5.53,1.35.24,2.7-.28,3.96-.77,3.55-1.41,7.23-2.91,9.71-5.79,2.5-2.89,3.33-7.59.77-10.42-.32-.38-.73-.71-1.21-.77-.67-.08-1.27.38-1.86.65-1.8.83-4.02.14-5.53-1.19-1.49-1.31-2.4-3.15-3.29-4.93-.97-1.96-1.94-3.94-2.93-5.93,1.17-.99,3.03-.58,4.24.4,1.19.97,1.92,2.38,2.89,3.57,2.95,3.69,7.81,5.31,12.51,5.87,1.19.14,2.42.24,3.53.73,3.51,1.61,4.52,6.78,8.23,7.89,1.03.32,2.18.26,3.15.71,1.47.69,2.2,2.36,2.64,3.92.81,2.91,1.09,5.99,2.32,8.76,1.21,2.77,3.69,5.29,6.7,5.33,1.88.04,3.67-.91,5.03-2.24v-.02c.16-2.74.26-5.47.26-8.24,0-.57,0-1.15-.04-1.72Z"/>
    <path class="st9" d="M424.29,403.1c-1.87.37-2.24,1.46-3.25,2.85-1.32,1.8-3.21,3.6-4.41,5.37-2.04,3.01-.2,7.7-2.88,10.24-.55.52-1.25.85-1.74,1.42-1.08,1.25-.67,3.38.64,4.37,1.32,1,3.25.93,4.67.08,1.42-.84,2.37-2.33,2.86-3.91.36-1.14.55-2.42,1.45-3.2,1.53-1.34,3.92-.35,5.93-.63,8.59-1.2,4.9-18.21-3.26-16.6Z"/>
  </g>
  <g>
    <g>
      <g>
        <g>
          <rect class="st4" x="282.89" y="287.04" width="391.57" height="294.23"/>
          <path class="st2" d="M674.47,581.27s-.02-.47-.03-1.38c0-.91-.02-2.25-.03-4.02-.01-3.54-.04-8.79-.06-15.64-.03-13.69-.08-33.79-.14-59.46-.07-51.26-.17-124.76-.29-213.73l.56.56c-110.55.03-245.73.08-391.54.12h-.03l.68-.68c-.02,105.79-.05,205.97-.07,294.23l-.62-.62c115.96.13,213.79.23,282.62.31,34.47.07,61.68.13,80.27.16,9.31.03,16.47.06,21.3.07,2.42.02,4.25.03,5.49.04.62,0,1.08.01,1.4.02.31,0,.48.02.48.02,0,0-.14.01-.45.02-.31,0-.77.01-1.37.02-1.22,0-3.04.02-5.42.04-4.81.02-11.92.04-21.18.07-18.57.04-45.73.09-80.14.16-68.94.07-166.9.18-283.03.31h-.62s0-.62,0-.62c-.02-88.26-.04-188.45-.07-294.23v-.68s.68,0,.68,0h.03c145.81.05,281,.09,391.54.12h.56s0,.56,0,.56c-.12,89.12-.22,162.74-.29,214.08-.06,25.62-.11,45.68-.14,59.34-.03,6.81-.05,12.02-.06,15.54-.01,1.74-.02,3.07-.03,3.96-.01.88-.03,1.32-.03,1.32Z"/>
        </g>
        <path class="st2" d="M672.51,323.07s-.34.05-.99.07c-.68.02-1.64.04-2.9.07-2.57.03-6.33.07-11.17.12-9.7.08-23.73.11-41.07.11-34.68,0-82.59-.26-135.5-.69-52.92-.42-100.82-.81-135.51-1.09-17.33-.14-31.35-.25-41.07-.32-4.83-.06-8.59-.11-11.16-.14-1.26-.03-2.23-.05-2.9-.07-.65-.02-.99-.05-.99-.07s.34-.05.99-.07c.68-.02,1.64-.04,2.9-.07,2.57-.03,6.33-.07,11.17-.12,9.7-.08,23.73-.11,41.07-.11,34.68,0,82.59.26,135.52.69,52.9.42,100.8.81,135.49,1.09,17.33.14,31.35.25,41.07.32,4.83.06,8.59.11,11.17.14,1.26.03,2.23.05,2.9.07.65.02.99.05.99.07Z"/>
        <path class="st2" d="M308.47,301.98c0,2.55-2.06,4.61-4.61,4.61s-4.61-2.06-4.61-4.61,2.06-4.61,4.61-4.61,4.61,2.06,4.61,4.61Z"/>
        <path class="st2" d="M326.92,301.98c0,2.55-2.06,4.61-4.61,4.61s-4.61-2.06-4.61-4.61,2.06-4.61,4.61-4.61,4.61,2.06,4.61,4.61Z"/>
        <circle class="st2" cx="340.75" cy="301.98" r="4.61"/>
      </g>
      <rect class="st9" x="317.94" y="461.68" width="93.9" height="60.24"/>
      <rect class="st9" x="431" y="461.68" width="93.9" height="60.24"/>
      <path class="st15" d="M853.08,478.14c12.2-43.81-25.46-80.63-47.52-91.19l-25.72,15.46c15.58,2.77,45.48,35.78,42.26,51.27-3.23,15.49-20.99,30.68-36.38,27.01-12.09-2.89-28.12-19.89-38.65-13.28-13.15-23.09-45.73-32.55-69.2-20.09-11.7-9.25-27.7-12.8-42.21-9.36-14.51,3.44-27.22,13.79-33.52,27.3,0,0-31.45,105.59,100.86,89.87,9.06-1.08,13.75-10.13,16.92-17.44,1.26.6,2.63.98,4.01,1.07,5.45.36,10.66-2.88,13.95-7.23.42-.56.81-1.15,1.18-1.75,15.57,9.36,39.91,12.92,56.29,9.05,23.8-5.64,51.18-37.11,57.74-60.67Z"/>
      <path class="st2" d="M749.16,477.39s-.06-.14-.14-.42c-.09-.32-.2-.73-.34-1.25-.14-.55-.32-1.24-.6-2.03-.27-.79-.54-1.72-.97-2.71-1.57-4.01-4.44-9.75-9.8-15.36-2.66-2.81-5.94-5.55-9.85-7.86-3.9-2.32-8.43-4.22-13.45-5.22-9.95-2.09-21.83-.85-32.12,4.97-1.41.77-2.73,1.67-3.96,2.5l-.24.16-.2-.2c-7.98-8-18.47-12.21-28.06-13.07-2.41-.26-4.77-.21-7.05-.11-2.27.2-4.49.47-6.59.92-4.22.82-8.03,2.11-11.32,3.66-6.62,3.1-11.01,7.23-13.57,10.35-.67.76-1.2,1.49-1.66,2.13-.48.62-.84,1.17-1.12,1.62-.28.42-.5.76-.67,1.02-.15.23-.24.34-.25.34,0,0,.05-.13.19-.37.16-.27.36-.62.61-1.05.26-.47.61-1.03,1.07-1.67.44-.65.96-1.4,1.62-2.18,2.51-3.19,6.9-7.43,13.57-10.62,3.31-1.6,7.16-2.92,11.41-3.77,2.12-.47,4.35-.75,6.66-.97,2.31-.12,4.71-.17,7.15.08,9.73.84,20.38,5.08,28.49,13.21l-.44-.04c1.25-.85,2.59-1.76,4.02-2.55,10.45-5.91,22.5-7.15,32.58-5,5.08,1.03,9.67,2.98,13.61,5.35,3.95,2.36,7.25,5.16,9.91,8.01,5.37,5.72,8.19,11.54,9.7,15.6.41,1.01.66,1.95.91,2.75.26.8.42,1.49.54,2.05.12.53.21.95.28,1.27.06.29.08.44.07.44Z"/>
      <path class="st2" d="M765.58,472.91c-.1.08-.78-.88-2.21-2.05-.71-.59-1.64-1.18-2.72-1.73-1.1-.51-2.36-.97-3.74-1.24-1.38-.25-2.72-.3-3.93-.23-1.21.11-2.29.31-3.17.6-1.76.55-2.74,1.2-2.81,1.09-.03-.04.2-.22.64-.52.43-.31,1.12-.67,2.01-1.02.89-.36,2.01-.62,3.27-.77,1.26-.11,2.67-.08,4.11.19,1.44.29,2.76.78,3.89,1.35,1.12.6,2.06,1.26,2.75,1.92.7.65,1.21,1.24,1.49,1.69.3.44.44.7.4.72Z"/>
      <path class="st2" d="M776.31,505.68s-.59-.59-1.76-1.51c-1.17-.91-3.02-2.11-5.62-2.83-2.57-.72-5.93-.91-9.3.4-3.34,1.26-6.65,3.94-8.45,7.77l-.23.49-.34-.43c-1.07-1.35-2.36-2.63-3.8-3.77-3.83-3.05-8.37-4.7-12.56-5.14-4.22-.41-8.06.37-11.04,1.53-3,1.17-5.17,2.66-6.58,3.77-1.41,1.13-2.09,1.86-2.14,1.82-.02-.02.14-.21.47-.56.32-.36.82-.85,1.51-1.46,1.37-1.19,3.54-2.77,6.58-4.01,3.02-1.24,6.94-2.1,11.28-1.71,4.31.41,8.99,2.09,12.93,5.23,1.48,1.17,2.8,2.5,3.9,3.89l-.57.07c1.9-4.01,5.37-6.77,8.85-8.04,3.52-1.32,7.01-1.06,9.63-.27,2.65.8,4.51,2.09,5.65,3.07.57.49.98.92,1.23,1.22.26.3.38.46.37.48Z"/>
      <path class="st2" d="M854.63,450.67s.09.35.21,1.04c.1.69.3,1.69.44,3.01.26,2.62.5,6.45.1,11.17-.38,4.71-1.44,10.28-3.38,16.22-.98,2.96-2.16,6.03-3.6,9.11-1.4,3.1-3.06,6.21-4.91,9.3-7.42,12.39-16.56,21.97-23.89,27.89-3.65,2.99-6.88,5.06-9.2,6.34-1.17.62-2.08,1.09-2.73,1.35-.64.28-.98.41-.98.39s.31-.2.93-.51c.62-.3,1.51-.8,2.65-1.45,2.26-1.34,5.43-3.46,9.02-6.48,7.21-5.98,16.24-15.55,23.61-27.87,1.84-3.07,3.49-6.16,4.89-9.23,1.44-3.05,2.62-6.09,3.61-9.03,1.96-5.88,3.05-11.39,3.5-16.06.45-4.67.29-8.48.11-11.1-.1-1.31-.25-2.32-.31-3.01-.07-.69-.1-1.05-.07-1.06Z"/>
      <path class="st2" d="M819.71,440.75s.33.53.75,1.58c.42,1.04.93,2.6,1.32,4.59.8,3.93.9,9.74-1.28,15.58-2.18,5.84-6.07,10.16-9.25,12.6-1.6,1.24-3,2.09-4,2.6-1,.51-1.58.74-1.6.7-.07-.12,2.23-1.14,5.3-3.68,3.06-2.5,6.79-6.77,8.92-12.46,2.12-5.69,2.11-11.36,1.44-15.26-.65-3.93-1.72-6.21-1.59-6.25Z"/>
      <rect class="st9" x="541.24" y="461.68" width="93.9" height="60.24"/>
      <g>
        <g>
          <path class="st12" d="M781.64,392.97c1.52,5.92,4.26,11.53,7.95,16.4,2.41,3.19,7.51,1.4,7.45-2.6v-.11c4.18,6.23,8.78,12.18,13.74,17.8,3.17,3.59,9.09,1.29,8.98-3.5-.46-18.77-7.84-37.38-20.67-51.13l-17.46,23.13Z"/>
          <g class="st3">
            <path d="M788.6,395.98c.27,1.01.56,2.05,1.19,2.87.64.83,1.73,1.4,2.73,1.11,1.5-.42,2.14-2.46,3.66-2.8,1.62-.37,2.88,1.34,3.65,2.81.82,1.55,1.63,3.11,2.45,4.66.6,1.14,1.48,2.45,2.77,2.37,1.42-.09,2.09-1.8,2.26-3.22.81-6.56-1.87-13.46-6.89-17.75l-11.82,9.95Z"/>
          </g>
          <path class="st12" d="M826.43,441.71c-.85,2.14.29,4.86,2.42,5.75,2.12.89,4.86-.2,5.79-2.31.93-2.11-.11-4.87-2.2-5.83-2.09-.97-4.87.02-5.87,2.1"/>
        </g>
        <g>
          <path class="st15" d="M648.64,214.74c-5.33,4.27-4.11,25.91,5.22,56.24,9.18,29.86,24.56,50.05,24.56,50.05l79.35,99.16,26.13-20.91,15.14-12.12,26.13-20.91-72-89.98c-7.04-8.79-14.86-16.93-23.44-24.22-7.38-6.27-16.83-13.56-27.35-19.89-27.08-16.3-48.39-21.69-53.73-17.42"/>
          <g>
            <g>
              <g>
                <path class="st12" d="M775.44,304.13c.06,0,.2,0,.42,0,24.26.03,47.19,11.12,62.35,30.06l9.51,11.88-36.72,2.49-35.56-44.44Z"/>
                <path class="st2" d="M775.44,304.13s.07.08.19.22c.13.16.3.36.52.63.46.57,1.13,1.39,1.98,2.45,1.73,2.14,4.24,5.25,7.4,9.16,6.3,7.83,15.2,18.88,25.64,31.84l-.18-.08c10.3-.7,21.62-1.48,33.47-2.29,1.11-.08,2.22-.15,3.25-.22l-.16.37c-1.89-2.37-3.76-4.7-5.6-7.01-1.85-2.29-3.62-4.6-5.48-6.75-3.68-4.33-7.69-8.1-11.79-11.31-4.09-3.23-8.33-5.83-12.43-7.95-2.03-1.11-4.1-1.96-6.05-2.85-2.01-.76-3.9-1.57-5.79-2.12-7.47-2.45-13.8-3.35-18.16-3.72-2.18-.25-3.88-.22-5.03-.3-1.02-.05-1.49-.07-1.76-.08,0,0,.14-.02.45-.02.31,0,.75,0,1.31.02,1.15.04,2.86-.01,5.05.21,4.37.31,10.73,1.17,18.24,3.59,1.9.55,3.8,1.35,5.82,2.1,1.96.88,4.05,1.72,6.09,2.84,4.13,2.12,8.4,4.72,12.52,7.96,4.13,3.22,8.17,7,11.87,11.35,1.88,2.16,3.64,4.46,5.5,6.75,1.84,2.3,3.71,4.64,5.61,7l.27.34-.43.03c-1.03.07-2.14.14-3.25.22-11.85.8-23.17,1.56-33.47,2.25h-.11s-.07-.08-.07-.08c-10.4-13.08-19.28-24.24-25.56-32.14-3.11-3.92-5.57-7.03-7.27-9.17-.83-1.05-1.47-1.86-1.92-2.43-.21-.26-.37-.47-.49-.62-.11-.14-.16-.21-.15-.21Z"/>
              </g>
              <g>
                <path class="st12" d="M708.05,358.06c-.02.06-.05.19-.09.4-5.22,23.36.5,47.82,15.45,66.51l9.38,11.72,10.34-34.8-35.07-43.83Z"/>
                <path class="st2" d="M708.05,358.06s.05.06.16.19c.12.15.28.35.49.6.45.55,1.09,1.35,1.92,2.37,1.7,2.1,4.16,5.15,7.25,8.98,6.25,7.76,15.06,18.71,25.4,31.55l.07.09-.03.11c-2.9,9.77-6.08,20.49-9.41,31.73-.31,1.05-.63,2.1-.91,3.08l-.12.41-.27-.34c-1.87-2.34-3.71-4.64-5.53-6.91-1.8-2.28-3.64-4.47-5.31-6.75-3.38-4.51-6.16-9.21-8.36-13.88-2.23-4.67-3.8-9.33-4.95-13.77-.63-2.21-.99-4.39-1.41-6.47-.29-2.11-.65-4.11-.77-6.06-.71-7.75-.16-14.06.49-18.33.26-2.15.68-3.78.89-4.9.11-.54.2-.96.27-1.27.08-.3.12-.42.12-.42-.05.26-.13.72-.3,1.71-.18,1.12-.57,2.76-.8,4.91-.59,4.27-1.09,10.56-.35,18.28.13,1.93.5,3.93.79,6.03.43,2.07.8,4.25,1.43,6.44,1.15,4.41,2.74,9.05,4.96,13.69,2.2,4.64,4.97,9.31,8.34,13.79,1.66,2.26,3.51,4.45,5.31,6.73,1.82,2.27,3.66,4.57,5.53,6.91l-.39.08c.29-.97.6-2.02.91-3.08,3.34-11.23,6.53-21.95,9.44-31.72l.04.19c-10.22-12.85-18.93-23.8-25.1-31.56-3.08-3.89-5.53-6.97-7.22-9.1-.83-1.05-1.48-1.87-1.93-2.44-.21-.27-.38-.48-.5-.64-.11-.14-.17-.22-.17-.23Z"/>
              </g>
              <path class="st12" d="M648.64,214.74c-4.25,3.14-4.33,16.99.11,37.06l39.64-27.51c-18.78-9.03-34.29-13.6-39.75-9.56Z"/>
            </g>
            <g>
              <line class="st15" x1="745.19" y1="404.48" x2="811.6" y2="350.7"/>
              <path class="st2" d="M811.6,350.7c.08.1-14.72,12.22-33.06,27.07-18.34,14.85-33.27,26.81-33.35,26.72s14.72-12.21,33.06-27.07c18.34-14.85,33.27-26.81,33.34-26.71Z"/>
            </g>
            <g>
              <line class="st15" x1="747.3" y1="407.73" x2="813.7" y2="353.94"/>
              <path class="st2" d="M813.7,353.94c.08.1-14.72,12.22-33.06,27.06-18.34,14.85-33.27,26.81-33.35,26.72-.08-.1,14.72-12.21,33.06-27.07,18.34-14.85,33.27-26.81,33.34-26.71Z"/>
            </g>
            <g>
              <line class="st15" x1="749.89" y1="410.86" x2="816.29" y2="357.07"/>
              <path class="st2" d="M816.29,357.07c.08.1-14.72,12.22-33.06,27.07-18.34,14.85-33.27,26.81-33.35,26.72-.08-.1,14.72-12.21,33.06-27.07,18.34-14.85,33.27-26.81,33.34-26.71Z"/>
            </g>
            <g>
              <line class="st15" x1="752.48" y1="413.98" x2="818.88" y2="360.2"/>
              <path class="st2" d="M818.88,360.2c.08.1-14.72,12.22-33.06,27.07-18.34,14.85-33.27,26.81-33.35,26.72-.08-.1,14.72-12.21,33.06-27.07,18.34-14.85,33.27-26.81,33.34-26.71Z"/>
            </g>
            <g>
              <line class="st15" x1="755.07" y1="417.11" x2="821.48" y2="363.33"/>
              <path class="st2" d="M821.48,363.33c.08.1-14.72,12.22-33.06,27.07-18.34,14.85-33.27,26.81-33.35,26.72-.08-.1,14.72-12.21,33.06-27.07,18.34-14.85,33.27-26.81,33.34-26.71Z"/>
            </g>
            <path class="st2" d="M741.94,331.06s.16.12.44.4c.3.27.66.72,1.16,1.28.98,1.13,2.36,2.8,4.04,4.87,3.37,4.15,7.96,9.93,12.99,16.34,5.03,6.42,9.55,12.25,12.81,16.49,1.59,2.09,2.89,3.8,3.83,5.04.42.57.76,1.03,1.02,1.38.23.32.34.49.33.5s-.15-.14-.4-.45c-.28-.34-.64-.78-1.09-1.33-.96-1.21-2.3-2.89-3.94-4.95-3.33-4.24-7.88-10.02-12.91-16.41-5.02-6.39-9.56-12.18-12.89-16.42-1.63-2.06-2.97-3.75-3.93-4.96-.47-.57-.82-1.05-1.08-1.33-.26-.29-.39-.46-.38-.47Z"/>
            <path class="st2" d="M775.44,304.13c.08.1-14.81,12.16-33.25,26.94-18.45,14.78-33.46,26.69-33.54,26.59-.08-.1,14.81-12.16,33.25-26.94,18.44-14.78,33.45-26.68,33.53-26.59Z"/>
            <path class="st2" d="M773.51,359.44s-.01-.24.18-.62c.19-.37.6-.88,1.3-1.21.67-.33,1.75-.42,2.61.21.84.59,1.46,1.76,1.19,2.97-.3,1.21-1.38,1.98-2.4,2.12-1.06.17-1.98-.39-2.43-.99-.48-.61-.62-1.24-.62-1.66,0-.42.1-.64.12-.64.04,0,0,.23.05.62.05.38.23.95.69,1.47.44.51,1.23.95,2.12.78.86-.14,1.78-.83,2.02-1.82.23-.99-.28-2.02-.99-2.53-.72-.55-1.62-.51-2.25-.25-.64.26-1.06.68-1.27,1-.22.33-.29.54-.33.53Z"/>
            <path class="st2" d="M758.52,339.99s-.01-.24.18-.62c.19-.37.6-.88,1.3-1.21.67-.33,1.75-.42,2.61.21.84.59,1.46,1.76,1.19,2.97-.3,1.21-1.38,1.98-2.4,2.12-1.06.17-1.98-.39-2.43-.99-.48-.61-.62-1.24-.62-1.66,0-.42.1-.64.12-.64.04,0,0,.23.05.62.05.39.23.95.69,1.47.44.51,1.23.95,2.12.78.86-.14,1.78-.83,2.02-1.82.23-.99-.28-2.02-.99-2.53-.72-.55-1.62-.51-2.25-.25-.64.26-1.06.68-1.27,1-.22.33-.29.54-.33.53Z"/>
            <path class="st2" d="M724.31,318.42s-.01-.24.18-.62c.19-.37.6-.88,1.3-1.21.67-.33,1.75-.42,2.61.21.84.59,1.46,1.76,1.19,2.97-.3,1.21-1.38,1.98-2.4,2.12-1.06.17-1.98-.39-2.43-.99-.48-.61-.62-1.24-.62-1.66,0-.42.1-.64.12-.64.04,0,0,.23.05.62.05.39.23.95.69,1.47.44.51,1.23.95,2.12.78.86-.14,1.78-.83,2.02-1.82.23-.99-.28-2.02-.99-2.53-.72-.55-1.62-.51-2.25-.25-.64.26-1.06.68-1.27,1-.22.33-.29.54-.33.53Z"/>
            <path class="st2" d="M709.09,308.79c.11-.07,5.89,6.24,12.91,14.1,7.03,7.86,12.64,14.29,12.53,14.36-.11.07-5.89-6.24-12.92-14.1-7.03-7.86-12.64-14.29-12.53-14.36Z"/>
            <g class="st3">
              <path d="M742.2,400.74s-22.37-29.31-34.16-42.68c2.61,8.96,5.66,19.15,10.87,26.88,5.26,7.82,14.09,13.78,23.29,15.8Z"/>
            </g>
          </g>
          <g>
            <circle class="st4" cx="703.1" cy="283.81" r="25.86" transform="translate(67.15 696.68) rotate(-54.97)"/>
            <path class="st2" d="M727.08,293.46s.02-.14.1-.41c.09-.3.22-.69.37-1.17.18-.51.38-1.15.52-1.92.17-.77.39-1.65.48-2.67.31-2.02.32-4.55-.13-7.41-.46-2.85-1.48-6.05-3.36-9.17-1.88-3.1-4.59-6.17-8.22-8.44-3.62-2.23-8.06-3.87-12.87-3.96-2.4-.11-4.87.17-7.29.82-1.23.27-2.4.76-3.6,1.2-1.15.56-2.33,1.09-3.42,1.81-4.47,2.7-8.12,7.02-10.23,12.14-2.02,5.15-2.38,10.8-1.03,15.85.28,1.28.77,2.48,1.21,3.68.56,1.15,1.07,2.32,1.77,3.37,1.3,2.14,2.88,4.06,4.69,5.64,3.54,3.27,7.87,5.16,12.03,6.06,4.19.89,8.27.54,11.78-.39,3.52-.95,6.47-2.55,8.77-4.29,2.3-1.76,4.05-3.58,5.22-5.26.65-.8,1.1-1.59,1.5-2.26.43-.66.73-1.26.95-1.75.23-.46.41-.82.55-1.1.13-.25.2-.37.21-.37s-.04.14-.14.39c-.12.29-.28.66-.49,1.13-.21.5-.49,1.11-.9,1.79-.39.69-.83,1.5-1.47,2.32-1.15,1.71-2.89,3.59-5.2,5.4-2.32,1.8-5.3,3.46-8.88,4.45-3.56.98-7.72,1.36-12.01.48-4.25-.89-8.7-2.81-12.34-6.14-1.86-1.61-3.49-3.57-4.83-5.77-.72-1.07-1.24-2.27-1.82-3.45-.46-1.23-.96-2.46-1.25-3.77-.64-2.59-1.01-5.33-.79-8.09.19-2.76.8-5.52,1.83-8.17,2.17-5.25,5.92-9.69,10.51-12.45,1.12-.74,2.33-1.28,3.52-1.85,1.23-.45,2.44-.95,3.7-1.23,2.49-.65,5.02-.94,7.48-.82,4.94.11,9.47,1.81,13.15,4.11,3.7,2.34,6.44,5.5,8.33,8.67,1.89,3.19,2.9,6.46,3.32,9.36.41,2.91.37,5.47.01,7.5-.11,1.03-.35,1.92-.55,2.69-.17.78-.39,1.41-.59,1.92-.18.48-.32.86-.43,1.15-.1.26-.16.39-.17.38Z"/>
          </g>
        </g>
        <path class="st2" d="M648.64,214.74s.08-.07.24-.18c.16-.13.42-.29.78-.46.72-.34,1.89-.67,3.45-.78,3.13-.22,7.77.41,13.49,2.08,5.73,1.66,12.57,4.32,20.23,8.07,7.64,3.76,16.17,8.49,25.08,14.61,4.45,3.06,8.99,6.45,13.59,10.17,4.6,3.72,9.26,7.77,13.82,12.27,4.55,4.5,9.04,9.4,13.34,14.72,4.28,5.33,8.69,10.83,13.22,16.49,18.12,22.62,38.2,47.69,59.54,74.34l.21.26-.26.21c-10.82,8.66-22.15,17.73-33.69,26.97-11.55,9.24-22.89,18.31-33.71,26.97l-.26.21-.21-.26c-21.32-26.67-41.39-51.76-59.49-74.4-4.52-5.66-8.92-11.17-13.19-16.51-2.13-2.67-4.23-5.3-6.3-7.88-2.02-2.65-3.79-5.38-5.49-8.09-6.76-10.88-11.83-21.67-15.7-31.75-3.76-10.13-6.35-19.53-8.28-27.82-1.91-8.3-3.05-15.55-3.47-21.5-.44-5.94-.13-10.61.72-13.63.43-1.51.99-2.58,1.48-3.21.25-.32.45-.54.62-.66.15-.13.23-.2.23-.2.03.03-.33.25-.8.9-.47.64-1.01,1.71-1.41,3.21-.81,3.01-1.08,7.66-.6,13.58.46,5.93,1.63,13.16,3.57,21.44,1.96,8.27,4.57,17.66,8.35,27.74,3.89,10.04,8.98,20.79,15.73,31.62,1.7,2.7,3.48,5.43,5.47,8.04,2.07,2.58,4.17,5.21,6.31,7.87,4.28,5.33,8.68,10.84,13.22,16.49,18.12,22.62,38.2,47.7,59.55,74.35l-.47-.05c10.82-8.66,22.16-17.73,33.7-26.97,11.54-9.23,22.88-18.31,33.7-26.96l-.05.47c-21.32-26.66-41.37-51.75-59.47-74.39-4.52-5.66-8.93-11.16-13.19-16.5-4.29-5.31-8.75-10.2-13.28-14.7-4.53-4.5-9.17-8.54-13.75-12.26-4.58-3.72-9.11-7.12-13.54-10.19-8.87-6.12-17.37-10.88-24.99-14.66-7.63-3.77-14.44-6.46-20.14-8.15-5.7-1.71-10.31-2.37-13.42-2.19-1.55.09-2.71.4-3.44.72-.73.31-1.03.62-1.05.58Z"/>
      </g>
    </g>
    <g>
      <path class="st12" d="M169.04,368.17s20.44,5.53,24.28,20.95c6.05,24.38,24.57,96.32,24.57,96.32l19.54,15.82-12.46,20.67s-21.79-7.16-30.89-18.87c-9.11-11.71-18.39-55.43-18.39-55.43l-6.65-79.47Z"/>
      <g>
        <g>
          <g>
            <path class="st2" d="M131.65,258.9c-4.83-5.57-17.08-5.04-20.06-1.52-4.19-2.31-10.13-.49-12.31,3.77-4.36.85-8.72,1.69-13.08,2.54-2.23.43-4.57.91-6.31,2.37-1.74,1.46-2.61,4.23-1.24,6.05-4.61,1.08-6.57,7.86-3.25,11.24-1.92,1.92-1.63,5.55.56,7.15-3.69,4.22-6.66,9.08-8.73,14.29-.87,2.18-1.58,4.62-.81,6.84.76,2.22,3.62,3.8,5.56,2.48-1.34,1.75-1.51,4.31-.42,6.23-2.2,0-2.94,3.39-1.47,5.02,1.47,1.64,3.93,1.86,6.13,1.86,2.2,0,4.59-.06,6.37,1.24-.1.66-.37,1.08-.75,1.38-3.85,2.98-5.05,8.25-2.31,12.28.25.37.49.72.7,1.03,1.23,1.84,4.35,3.57,6.29,4.64,4.92,2.71,7.89,2.29,13.43,3.23-1.6,3.55,7.23,11.7,17.75,4.15,20.48,6.03,35.28,8.48,56.62,9.05,3.04.08,6.71-.24,8.13-2.94,2.45.71,5.15-.37,7.01-2.11,1.87-1.74,3.07-4.07,4.24-6.34,5.31-1.29,9.49-6.28,9.83-11.72,3.64-2.7,6.05-7,6.46-11.51,5.16-1.44,8.15-8.02,5.83-12.86-.95-6.31-2.96-12.46-5.9-18.11,3.51-.67,4.93-5.35,3.58-8.65-1.36-3.3-4.48-5.48-7.45-7.47,2.59.76,4.95-2.47,4.39-5.11-.56-2.64-2.88-4.51-5.16-5.96-3.34-2.12-6.95-3.83-10.7-5.08-1.13-4.62-6.88-10-11.13-12.13-17.16-8.62-29.27-10.99-51.77,4.68"/>
            <path class="st17" d="M114.63,286.07c-.18-3.65,2.47-6.83,6.09-7.32l37.07-10.5c11.92-1.61,20.29,12.89,21.39,24.87,1.22,13.31,2.18,29.61.89,39.6-2.61,20.09-20.49,22.91-20.49,22.91,0-.03.3,14.51.3,14.51l.49,16.88c-5.71-.8-42.32-18.31-42.32-18.31l-3.43-82.65Z"/>
            <path class="st2" d="M159.37,323.18c-.02-.16,1.69-.5,4.46-.94.7-.09,1.37-.25,1.47-.74.15-.51-.16-1.27-.53-2.08-.71-1.69-1.46-3.46-2.24-5.31-3.11-7.56-5.39-13.78-5.08-13.91.31-.12,3.08,5.91,6.19,13.47.75,1.86,1.47,3.64,2.15,5.34.29.79.77,1.69.44,2.76-.17.53-.68.93-1.13,1.06-.45.15-.84.17-1.19.2-2.79.23-4.53.29-4.54.14Z"/>
            <path class="st14" d="M159.59,355.63s-10.81,1.42-24.38-6.22c0,0,3.65,14.81,24.52,13.13l-.14-6.92Z"/>
            <path class="st2" d="M150.37,292.25c-.25.76-3.02.48-6.24.96-3.24.42-5.82,1.44-6.27.78-.2-.32.23-1.04,1.27-1.79,1.03-.76,2.68-1.49,4.62-1.76,1.94-.27,3.73-.01,4.92.44,1.2.45,1.82,1.02,1.71,1.38Z"/>
            <path class="st2" d="M174.64,292.23c-.47.64-2.39.04-4.68.08-2.29-.05-4.21.54-4.68-.1-.2-.31.08-.95.91-1.57.82-.62,2.2-1.14,3.77-1.14,1.57,0,2.95.53,3.76,1.15.83.62,1.11,1.26.9,1.57Z"/>
            <path class="st2" d="M188.01,302.87c-.14-3.14-1.07-6.34-3.18-8.66-1.15-1.27-2.63-2.25-3.65-3.64-2.2-2.99-1.82-7.09-2.71-10.7-1.16-4.65-4.71-8.63-9.19-10.31-3.73-1.4-7.98-1.29-11.47-3.21-2.58-1.42-4.52-3.85-7.18-5.12-5.18-2.47-11.27.11-16.25,2.97-1.04,3.9,1.38,7.32,3.71,10.61,2.33,3.29,6.17,5.46,10.2,5.77,3.12.24,6.78-.41,8.94,1.86,2.27,2.38,1.31,6.5,3.16,9.22,2.65,3.89,8.85,2.52,12.87,4.96,3.11,1.88,4.36,5.66,5.89,8.95,1.53,3.3,4.2,6.75,7.83,6.64.58-3.08,1.17-6.2,1.03-9.34Z"/>
            <path class="st2" d="M142.06,271.45c-9.12-.29-18.3,1.22-26.86,4.4-2.55.95-5.19,2.16-6.67,4.45-1.3,2.01-1.5,4.52-1.51,6.91-.03,7.49,2.84,16.71,5.58,23.68l9.26,5.75c7.23-1.59,4.12-14.08,3.87-20.32,5.06-2.13,8.65-7.37,8.81-12.86,4.16-2.57,7.02-7.14,7.51-12.01Z"/>
            <g>
              <path class="st17" d="M121.78,313.94c-.21-4.29-5.46-5.2-9.18-3.06-2.04,1.18-3.6,3.55-3.41,8.1.5,12.14,12.58,9.13,12.59,8.78,0-.22.25-8.81,0-13.83Z"/>
              <path class="st14" d="M117.89,323.32c-.06-.04-.21.16-.56.34-.34.17-.94.31-1.58.1-1.3-.42-2.47-2.41-2.61-4.59-.08-1.1.11-2.16.47-3.05.33-.9.88-1.55,1.52-1.69.64-.18,1.11.19,1.27.53.18.33.11.58.17.6.04.03.25-.21.13-.71-.06-.24-.21-.52-.51-.74-.3-.23-.73-.33-1.18-.26-.93.1-1.74,1-2.13,1.97-.44.98-.68,2.17-.59,3.41.18,2.44,1.53,4.68,3.3,5.11.86.19,1.56-.1,1.92-.4.36-.32.42-.59.37-.61Z"/>
            </g>
            <path class="st7" d="M116.46,328.4s0,.05-.04.16c-.04.1-.05.28-.17.46-.17.4-.66.89-1.43,1.24-.76.36-1.8.56-3.01.58-.61.01-1.26-.04-1.94-.16-.68-.12-1.41-.31-2.11-.68l.15-.07c-.29,1.65-1.41,3.41-3.28,4.35-1.85.94-4.45.83-6.39-.67l.21-.03c-.36.54-.96.92-1.61,1.04-.65.14-1.33.05-1.96-.2-.63-.25-1.2-.7-1.56-1.31-.36-.6-.55-1.3-.58-2.01-.06-1.42.48-2.87,1.39-4.02.9-1.18,2.07-2.12,3.25-3.06l.02.28c-1.01-.61-1.67-1.73-1.88-2.9-.22-1.18-.08-2.43.4-3.57.49-1.13,1.28-2.12,2.17-2.99.9-.87,1.9-1.63,2.91-2.38l-.02.27c-.89-.91-1.25-2.26-1.14-3.54.1-1.29.6-2.55,1.43-3.58,1.59-1.96,3.87-3.03,5.98-4.03l-.1.21c-.61-2.67.23-5.52,2.03-7.39,1.81-1.88,4.46-2.73,6.88-2.41l-.19.2c-.44-2.18.4-4.37,1.73-5.88,1.34-1.53,3.26-2.47,5.16-2.44l-.15.15c.04-2.22,1.31-4.11,2.84-5.24,1.54-1.16,3.44-1.62,5.09-1.32l-.14.12c.06-1.18.51-2.22,1.03-3.1.54-.88,1.18-1.63,1.88-2.2,1.37-1.19,2.94-1.66,4.18-1.72.16,0,.31-.02.46-.02.15,0,.29.03.43.04.27.04.54.04.77.1.46.14.86.2,1.15.34.28.13.51.23.67.3.15.07.22.11.22.11,0,0-.08-.02-.24-.08-.17-.07-.39-.16-.68-.27-.29-.14-.7-.18-1.15-.31-.23-.06-.49-.05-.76-.08-.14,0-.28-.03-.42-.03-.14.01-.29.02-.45.03-1.21.08-2.73.56-4.06,1.74-.68.56-1.3,1.3-1.81,2.16-.51.86-.93,1.88-.98,2.99v.14s-.14-.02-.14-.02c-1.59-.28-3.4.18-4.89,1.3-1.47,1.1-2.67,2.93-2.7,5.03v.15s-.15,0-.15,0c-1.8-.03-3.64.87-4.91,2.35-1.28,1.45-2.07,3.54-1.64,5.59l.05.24-.24-.03c-2.31-.3-4.85.53-6.57,2.32-1.71,1.78-2.52,4.52-1.93,7.06l.03.14-.13.06c-2.11,1-4.33,2.06-5.85,3.93-.78.97-1.25,2.17-1.35,3.38-.1,1.2.24,2.43,1.04,3.26l.14.15-.17.12c-2,1.48-4.01,3.05-4.97,5.22-.46,1.07-.59,2.26-.39,3.36.2,1.1.8,2.12,1.71,2.68l.21.13-.19.15c-1.18.93-2.33,1.86-3.2,2.99-.88,1.11-1.38,2.47-1.33,3.81.03,1.32.75,2.62,1.94,3.05,1.13.47,2.58.26,3.22-.72l.08-.13.12.1c1.83,1.44,4.33,1.57,6.1.68,1.8-.89,2.9-2.58,3.19-4.17l.02-.14.12.07c.67.36,1.38.55,2.05.68.67.13,1.31.18,1.91.18,1.19,0,2.21-.19,2.97-.52.75-.33,1.24-.78,1.42-1.17.2-.37.23-.6.26-.59Z"/>
            <path class="st7" d="M70.47,314.66s-.19-.23-.44-.74c-.24-.51-.55-1.32-.6-2.41-.05-1.08.15-2.49,1.06-3.79.88-1.29,2.44-2.46,4.44-2.72l-.1.14c-.36-1.86-.02-4.07,1.19-5.97.59-.95,1.41-1.82,2.42-2.48,1.01-.68,2.21-1.02,3.34-1.51.57-.24,1.12-.53,1.6-.92.48-.39.86-.9,1.13-1.47.56-1.15.75-2.53,1.46-3.77,1.4-2.44,4.43-4.05,7.45-3.54l-.21.2c-.35-2.78.59-5.83,2.67-7.98,2.17-2.24,5.36-3.26,8.27-2.86l-.21.2c-.3-3.56,1.75-6.97,4.67-8.4,2.94-1.44,6.39-1,8.73.64l-.2.02c1.27-1.22,2.79-1.99,4.28-2.52,1.49-.51,2.97-.83,4.37-.93,2.8-.27,5.25.1,7.18.6,1.93.53,3.36,1.24,4.24,1.84.46.27.75.57.97.73.21.17.32.27.32.27-.02.03-.45-.35-1.34-.93-.89-.58-2.32-1.25-4.24-1.75-1.92-.48-4.35-.82-7.11-.53-1.38.11-2.83.44-4.3.94-1.45.52-2.94,1.29-4.16,2.47l-.09.09-.1-.07c-2.25-1.57-5.6-1.98-8.4-.59-2.78,1.37-4.76,4.66-4.46,8.06l.02.23-.23-.03c-2.8-.38-5.88.61-7.96,2.76-2,2.06-2.91,5.01-2.58,7.68l.03.24-.24-.04c-2.85-.49-5.76,1.05-7.08,3.36-.67,1.16-.87,2.52-1.45,3.74-.29.61-.7,1.17-1.23,1.58-.52.42-1.1.71-1.69.96-1.16.49-2.34.82-3.3,1.47-.97.63-1.76,1.46-2.34,2.38-1.18,1.83-1.53,3.96-1.2,5.77l.02.13-.13.02c-1.92.23-3.45,1.36-4.31,2.59-.89,1.25-1.11,2.62-1.08,3.67.03,1.07.31,1.87.53,2.39.23.51.4.76.38.77Z"/>
            <path class="st7" d="M186.41,319.88s-.25-.33-.03-1c.11-.32.35-.68.73-.99.37-.33.91-.55,1.51-.73.59-.19,1.29-.34,1.91-.76.62-.41,1.11-1.1,1.4-1.92.3-.82.39-1.77.35-2.77-.03-1-.17-2.06-.15-3.2.02-2.3,1.03-4.62,1.66-7.14.31-1.26.45-2.63.23-3.99-.22-1.34-.9-2.7-2.14-3.45-1.22-.78-2.74-1.03-4.23-1.51-.74-.24-1.5-.55-2.16-1.05-.67-.48-1.16-1.2-1.5-1.94-.69-1.52-.84-3.19-1.2-4.8-.17-.8-.4-1.61-.8-2.31-.39-.71-1.02-1.27-1.76-1.6-1.04-.41-2.2-.37-3.35-.51-.57-.07-1.16-.19-1.69-.45-.54-.26-1-.67-1.32-1.15-.66-.98-.88-2.1-1.22-3.12-.3-1.04-.8-1.97-1.48-2.76-1.34-1.59-3.3-2.55-5.24-2.61-1.94-.08-3.83.61-5.18,1.78l-.16.14-.09-.2c-1.44-3.32-4.33-5.49-7.1-6.34-1.4-.43-2.79-.53-4.05-.42-1.26.1-2.4.42-3.35.87-1.91.91-3,2.25-3.6,3.2-.31.47-.5.87-.62,1.13-.06.12-.11.22-.15.3-.03.07-.05.1-.06.1,0,0,0-.04.04-.11.03-.08.08-.18.13-.31.11-.27.28-.68.58-1.16.57-.97,1.66-2.36,3.6-3.31.96-.47,2.12-.81,3.41-.93,1.28-.13,2.71-.04,4.14.39,2.84.85,5.81,3.04,7.31,6.46l-.25-.06c1.41-1.23,3.37-1.95,5.4-1.88,2.04.06,4.09,1.06,5.5,2.72.71.82,1.24,1.82,1.55,2.88.34,1.04.57,2.13,1.18,3.02.58.92,1.65,1.34,2.76,1.45,1.11.14,2.3.09,3.44.54.82.36,1.52.98,1.94,1.76.43.76.67,1.6.84,2.42.36,1.63.51,3.29,1.17,4.72.33.71.77,1.36,1.39,1.81.61.46,1.32.76,2.05,1,1.45.48,3,.73,4.3,1.56.64.41,1.2.97,1.56,1.62.37.65.6,1.36.72,2.06.22,1.42.07,2.82-.25,4.11-.66,2.56-1.67,4.84-1.7,7.08-.03,1.11.1,2.17.12,3.19.03,1.01-.07,2-.39,2.85-.3.85-.83,1.57-1.49,2-.66.43-1.37.57-1.96.75-.6.17-1.12.37-1.48.68-.37.3-.61.63-.73.93-.23.62,0,.97-.04.97Z"/>
            <path class="st7" d="M210.26,301.49s-.05-.07-.12-.23c-.08-.17-.19-.4-.32-.69-.28-.63-.69-1.52-1.21-2.65-.53-1.15-1.12-2.58-1.98-4.15-.85-1.55-2.03-3.31-3.99-4.42-.97-.55-2.1-.92-3.23-1.44-.56-.26-1.13-.57-1.64-1-.51-.41-.94-.97-1.21-1.6-.55-1.27-.55-2.7-.98-4-.22-.65-.58-1.26-1.14-1.68-.55-.43-1.23-.69-1.93-.93-.7-.25-1.44-.46-2.13-.86-.7-.37-1.28-1.02-1.63-1.74-.7-1.49-.69-3.15-.96-4.72-.14-.79-.34-1.58-.77-2.24-.42-.67-1.12-1.12-1.9-1.3-1.59-.36-3.31.17-5.08-.14-.88-.16-1.71-.63-2.31-1.27-.61-.64-1.05-1.38-1.48-2.11-.42-.73-.82-1.46-1.3-2.11-.47-.65-1.05-1.23-1.76-1.56-1.43-.69-3.08-.36-4.58-.04-1.51.32-3.09.67-4.61.32-1.51-.33-2.79-1.13-3.98-1.89-1.19-.76-2.32-1.57-3.54-2.04-2.46-.93-5.03-.85-7.19-.35-2.19.51-3.99,1.54-5.38,2.66-1.39,1.13-2.3,2.39-3,3.43-.63,1.09-1.08,1.96-1.3,2.59-.12.29-.22.52-.29.7-.07.16-.11.24-.11.23,0,0,.02-.09.08-.25.06-.18.15-.41.26-.71.2-.64.63-1.53,1.25-2.64.69-1.06,1.59-2.36,2.99-3.52,1.39-1.15,3.22-2.22,5.45-2.75,2.21-.52,4.82-.62,7.37.32,1.28.49,2.41,1.3,3.6,2.05,1.18.76,2.44,1.53,3.87,1.83,1.43.33,2.95,0,4.47-.34.77-.16,1.55-.33,2.37-.37.81-.04,1.67.06,2.44.43.78.36,1.4.98,1.9,1.67.5.68.9,1.42,1.32,2.15.42.72.86,1.44,1.42,2.04.57.6,1.3,1.01,2.12,1.17,1.65.3,3.37-.23,5.1.15.86.2,1.66.71,2.12,1.45.48.73.68,1.57.82,2.38.27,1.61.26,3.25.92,4.63.33.67.83,1.24,1.48,1.6.64.37,1.36.59,2.07.84.7.25,1.43.52,2.03.99.62.46,1.01,1.15,1.24,1.83.45,1.38.44,2.8.96,3.99.49,1.21,1.6,1.95,2.69,2.46,1.1.52,2.24.9,3.24,1.47,2.02,1.16,3.2,2.98,4.04,4.55.84,1.6,1.42,3.04,1.93,4.19.49,1.15.87,2.05,1.14,2.68.12.29.22.53.29.7.06.16.09.24.09.24Z"/>
            <path class="st7" d="M197.56,288.58s.07-.02.22-.03c.15,0,.38.01.64.15.52.27,1.1,1.05,1.17,2.17.03.57-.12,1.17-.29,1.81-.16.64-.37,1.34-.35,2.09.02.76.36,1.52.82,2.25.46.74,1.05,1.47,1.52,2.34.48.85.71,2.03.25,3.06-.4,1.03-1.17,1.88-1.55,2.92-.4,1.04-.19,2.24.28,3.34.45,1.12,1.11,2.2,1.55,3.44.22.62.37,1.29.36,1.98-.01.69-.2,1.37-.49,2-.61,1.26-1.55,2.3-2.36,3.42-.81,1.11-1.5,2.41-1.34,3.82.13,1.4.9,2.7,1.4,4.12.25.71.43,1.47.41,2.24-.03.77-.26,1.51-.6,2.17-.71,1.32-1.75,2.34-2.67,3.39-.93,1.04-1.76,2.13-2.18,3.4-.46,1.25-.7,2.57-1.32,3.75-.31.59-.73,1.12-1.26,1.51-.53.4-1.14.61-1.73.8-.59.18-1.17.34-1.69.57-.52.25-1,.56-1.42.93-.83.76-1.46,1.67-2.03,2.56-.57.89-1.1,1.77-1.7,2.56-1.18,1.6-2.78,2.6-4.28,3.04-1.5.46-2.89.48-3.97.31-1.09-.17-1.89-.48-2.41-.75-.51-.27-.75-.45-.75-.45.02-.07,1.02.75,3.18,1.05,1.07.15,2.42.1,3.89-.37,1.46-.45,2.99-1.43,4.13-3,.58-.78,1.1-1.65,1.67-2.56.57-.9,1.2-1.84,2.07-2.64.44-.39.94-.73,1.49-.99.56-.25,1.15-.41,1.72-.59.58-.18,1.15-.39,1.63-.76.48-.36.86-.85,1.15-1.41.58-1.12.83-2.43,1.29-3.72.42-1.32,1.31-2.47,2.24-3.52.93-1.05,1.95-2.07,2.62-3.32.33-.62.54-1.31.56-2.01.02-.7-.15-1.41-.39-2.1-.48-1.38-1.27-2.69-1.42-4.2-.08-.75.06-1.51.33-2.2.28-.68.67-1.3,1.08-1.87.83-1.14,1.76-2.17,2.34-3.36.28-.59.45-1.22.46-1.86.02-.63-.12-1.26-.33-1.86-.42-1.2-1.07-2.28-1.53-3.43-.48-1.13-.7-2.44-.26-3.57.43-1.12,1.2-1.96,1.58-2.92.42-.96.24-2-.22-2.83-.44-.85-1.02-1.58-1.48-2.34-.46-.75-.81-1.56-.82-2.37-.01-.8.21-1.51.38-2.15.17-.64.33-1.23.32-1.76-.04-1.07-.58-1.84-1.06-2.11-.5-.27-.84-.15-.83-.18Z"/>
            <path class="st2" d="M70.78,314.27s-.33.01-.96-.11c-.62-.13-1.54-.42-2.54-1.14-.98-.71-2.06-1.89-2.5-3.61-.45-1.68-.26-3.88,1.08-5.71.67-.9,1.57-1.66,2.46-2.45.89-.8,1.83-1.67,2.31-2.85.51-1.18.33-2.57-.13-3.86-.44-1.31-1.13-2.59-1.56-4.03-.83-2.88-.57-6.28,1.07-9.18,1.62-2.88,4.62-5.15,8.12-5.83l-.11.28c-.54-.78-.89-1.71-1.01-2.67-.11-.96-.03-1.94.22-2.88.26-.94.67-1.85,1.26-2.65.58-.8,1.29-1.51,2.09-2.1,2.4-1.79,5.27-2.61,8.03-3.1,2.78-.48,5.55-.54,8.16-.23l-.2.17c.15-3.26,2.23-6.18,4.99-7.39,1.36-.62,2.85-.86,4.27-.76,1.44.08,2.73.67,3.96,1.11.62.22,1.24.4,1.86.46.62.07,1.24,0,1.83-.16,1.18-.32,2.22-.95,3.23-1.51,1.01-.57,2.03-1.08,3.09-1.36,1.05-.28,2.09-.39,3.07-.36,1.97.05,3.7.65,5.02,1.45,1.32.8,2.26,1.76,2.91,2.61.65.85,1.02,1.6,1.24,2.11.22.51.29.79.29.79-.02,0-.11-.27-.35-.77-.24-.5-.62-1.23-1.28-2.06-.66-.83-1.6-1.76-2.91-2.53-1.3-.77-3-1.34-4.93-1.38-.96-.02-1.98.09-3,.38-1.03.27-2.02.77-3.02,1.35-1.01.56-2.06,1.21-3.29,1.56-.61.17-1.27.25-1.93.18-.66-.06-1.3-.25-1.94-.47-1.26-.45-2.5-1-3.89-1.08-1.37-.09-2.8.14-4.11.74-2.64,1.16-4.63,3.98-4.77,7.1v.19s-.2-.02-.2-.02c-2.58-.3-5.32-.24-8.06.24-2.72.49-5.55,1.31-7.87,3.04-.77.57-1.46,1.26-2.01,2.02-.56.76-.95,1.63-1.2,2.53-.25.9-.32,1.84-.22,2.74.12.9.44,1.77.94,2.5l.16.23-.27.05c-3.4.65-6.31,2.86-7.89,5.65-1.6,2.8-1.86,6.12-1.06,8.92.4,1.4,1.09,2.69,1.54,4.02.46,1.32.65,2.8.1,4.06-.53,1.26-1.51,2.14-2.4,2.94-.91.8-1.79,1.53-2.45,2.4-1.3,1.75-1.51,3.89-1.09,5.52.41,1.67,1.45,2.85,2.4,3.56.96.72,1.87,1.03,2.48,1.18.61.14.95.15.95.17Z"/>
            <path class="st2" d="M201.97,280.31s-.02-.08-.03-.23c-.01-.17-.03-.4-.05-.68-.05-.62-.12-1.5-.2-2.62-.1-1.14-.24-2.53-.52-4.12-.29-1.59-.71-3.4-1.52-5.26-.81-1.85-2.01-3.78-3.78-5.37-.89-.79-1.92-1.47-3.08-1.97-1.16-.49-2.45-.78-3.75-1.15-1.31-.35-2.65-.88-3.8-1.76-1.15-.87-2.13-1.97-3.04-3.12-.92-1.15-1.8-2.36-2.83-3.46-1.02-1.11-2.22-2.06-3.6-2.74-2.76-1.4-5.83-1.84-8.73-2-2.93-.14-5.76-.06-8.44.21-5.37.52-10.08,1.91-13.77,3.61-3.71,1.71-6.34,3.77-8,5.31-.41.4-.79.73-1.09,1.05-.29.32-.54.59-.75.82-.19.21-.35.37-.47.5-.11.11-.16.17-.17.16,0,0,.04-.07.14-.19.11-.13.26-.31.44-.53.2-.24.44-.52.72-.85.3-.32.67-.67,1.07-1.08,1.64-1.58,4.27-3.69,7.99-5.44,3.71-1.74,8.45-3.17,13.85-3.72,2.7-.29,5.55-.37,8.49-.23,2.93.16,6.05.6,8.88,2.03,1.42.7,2.67,1.69,3.7,2.82,1.05,1.12,1.92,2.34,2.84,3.49.91,1.15,1.86,2.23,2.97,3.07,1.11.84,2.39,1.36,3.68,1.71,1.29.37,2.59.67,3.79,1.17,1.19.52,2.25,1.23,3.16,2.04,1.8,1.64,3.01,3.61,3.82,5.5.8,1.9,1.22,3.72,1.49,5.33.27,1.61.38,3,.46,4.15.08,1.14.11,2.03.13,2.63,0,.28.01.51.02.68,0,.15,0,.23,0,.23Z"/>
            <path class="st14" d="M151.19,327.29c2.95,1.14,5.9,2.28,8.86,3.42l.84.32c-.39,1.33-1,3.26-1.76,4.42-.76,1.16-1.95,2.12-3.33,2.27-1.04.11-2.31-.28-3.19-.85-1.53-.99-2.39-2.62-2.7-4.41-.31-1.8.16-3.72,1.27-5.17Z"/>
            <path class="st2" d="M156.33,337.75c.02-.15-1.51.26-3.4-.9-.91-.57-1.8-1.58-2.27-2.93-.49-1.34-.51-2.98,0-4.55.13-.39.28-.77.46-1.14.09-.19.18-.35.26-.43.09-.07.05-.07.19-.04.74.3,1.46.58,2.15.86,1.33.52,2.58,1,3.72,1.45,2.13.8,3.46,1.25,3.5,1.15.04-.1-1.22-.73-3.29-1.66-1.13-.49-2.35-1.03-3.66-1.6-.71-.3-1.38-.6-2.21-.93-.25-.12-.75-.02-.95.22-.22.22-.31.44-.41.63-.2.39-.37.81-.51,1.24-.57,1.72-.53,3.57.06,5.04.57,1.49,1.61,2.58,2.67,3.15,1.05.58,2.04.69,2.69.66.66-.03,1-.19.99-.23Z"/>
          </g>
          <path class="st5" d="M109.32,326.3s-.74.2-1.83,1.02c-1.07.8-2.49,2.38-3.02,4.8-.28,1.19-.31,2.57.03,3.98.36,1.4,1.07,2.82,2.15,4.03,1.07,1.22,2.5,2.25,4.17,2.84,1.67.6,3.59.69,5.41.21,1.82-.48,3.46-1.45,4.67-2.74,1.23-1.29,1.99-2.9,2.28-4.5.58-3.23-.57-6.25-2.25-8.02-.86-.89-1.85-1.44-2.73-1.83-.89-.39-1.71-.58-2.38-.66-.68-.08-1.21-.04-1.56.03-.35.07-.53.15-.52.16,0,.06.74-.22,2.06,0,.65.11,1.45.32,2.3.72.85.4,1.8.95,2.6,1.81,1.58,1.72,2.65,4.63,2.07,7.72-.29,1.53-1.02,3.04-2.19,4.27-1.16,1.23-2.73,2.15-4.46,2.61-1.73.46-3.55.38-5.14-.19-1.6-.56-2.97-1.53-4-2.7-1.05-1.16-1.74-2.51-2.1-3.84-.34-1.34-.33-2.66-.08-3.82.47-2.34,1.8-3.9,2.82-4.72,1.04-.84,1.75-1.11,1.72-1.16Z"/>
          <g>
            <path class="st2" d="M146.3,309.9c.09,1.39-1.02,2.61-2.47,2.72-1.45.12-2.69-.91-2.78-2.3-.09-1.39,1.02-2.61,2.47-2.73,1.45-.12,2.69.91,2.78,2.3Z"/>
            <path class="st2" d="M172.56,308.55c.09,1.39-1.02,2.61-2.47,2.72-1.45.12-2.69-.91-2.78-2.3-.09-1.39,1.02-2.61,2.47-2.73,1.45-.12,2.69.91,2.78,2.3Z"/>
            <path class="st2" d="M176.04,301.93c-.31.47-2.67-1.2-5.75-.91-3.08.24-5.14,2.29-5.52,1.88-.18-.18.09-.99.99-1.92.88-.92,2.45-1.88,4.37-2.04,1.92-.16,3.62.51,4.63,1.26,1.04.76,1.44,1.51,1.29,1.72Z"/>
          </g>
          <path class="st2" d="M149.42,303.34c-.38.42-2.7-1.44-5.99-1.46-3.29-.08-5.72,1.72-6.07,1.28-.17-.19.21-.96,1.27-1.77,1.04-.81,2.81-1.58,4.86-1.55,2.05.03,3.77.86,4.76,1.7,1.01.84,1.35,1.62,1.16,1.81Z"/>
        </g>
        <g>
          <g>
            <polygon class="st17" points="242.38 721.81 225.22 763.46 194.22 750.66 211.62 699.28 242.38 721.81"/>
            <g>
              <path class="st7" d="M228.67,760.58l-10.14,21.46s29.41,27.98,27.03,34.61l-67.6-29.03,16.46-42.89,34.26,15.85Z"/>
              <path class="st5" d="M198.88,770.14c-1.46-.2-3,.88-3.26,2.33-.26,1.45.82,3.02,2.28,3.25,1.46.23,3.34-1.01,3.44-2.49.1-1.47-1.28-3.25-2.75-3.12"/>
              <g class="st0">
                <path class="st4" d="M177.96,787.62l2.54-5.4,63.87,29.85s2.45,2.6,1.2,4.58l-67.6-29.03Z"/>
              </g>
              <path class="st2" d="M219.77,782.17c-.15.33-1.87-.23-3.95.13-2.09.31-3.54,1.38-3.79,1.12-.28-.19,1.06-1.96,3.59-2.35,2.52-.42,4.35.83,4.15,1.1Z"/>
              <path class="st2" d="M225.61,788.15c-.06.35-1.73.3-3.45,1.21-1.75.86-2.68,2.25-3,2.1-.33-.08.27-2.11,2.43-3.21,2.15-1.12,4.15-.42,4.02-.1Z"/>
              <path class="st2" d="M225.99,798.36c-.33-.06-.08-1.91,1.54-3.35,1.61-1.46,3.48-1.5,3.5-1.17.07.35-1.35.89-2.66,2.1-1.34,1.17-2.04,2.53-2.38,2.42Z"/>
              <path class="st2" d="M222.6,773.95c-.27.24-1.59-.86-3.51-1.54-1.91-.71-3.63-.71-3.68-1.07-.09-.32,1.85-.93,4.1-.11,2.26.81,3.35,2.52,3.08,2.71Z"/>
            </g>
            <path class="st2" d="M244.8,743.95l41.66-129.62s-2-21.17-6.18-27.71c-4.19-6.54-124.2-40.72-124.2-40.72,0,0-30.46-6.01-50.26,2.09-19.8,8.09-39.86,17.9-37.27,31.92.37,1.99.99,4.1,1.81,6.27,7.55,20.12,27.29,33.04,48.78,32.79l15.72,1.1,80.44,11.92c3.59.53,5.94,4.06,5.04,7.58l-22.22,86.96s28.73,12.57,46.69,17.43Z"/>
            <polygon class="st17" points="282.6 653.94 285.59 698.88 252.12 701.09 245.05 647.31 282.6 653.94"/>
            <g>
              <path class="st7" d="M285.34,692.89l2.45,25.62s38.74,12.13,39.53,19.12l-73.48,3.8-4.16-45.75,35.66-2.79Z"/>
              <path class="st2" d="M287.53,704.02c.05,0,.08-.48-.1-1.31-.19-.83-.62-2.03-1.62-3.28-.25-.31-.51-.64-.92-.93-.39-.29-1.05-.5-1.67-.27-.31.1-.61.37-.71.69-.1.32-.03.64.07.89.23.52.55.88.83,1.31.61.84,1.12,1.69,1.9,2.63.39.48,1.24.86,2,.71.75-.12,1.34-.47,1.87-.83,1.03-.73,1.93-1.56,2.7-2.42.38-.43.73-.88,1.05-1.33.3-.45.65-.9.77-1.51.12-.59-.16-1.34-.91-1.57-.76-.21-1.35.15-1.75.43-.82.66-1.3,1.33-1.79,1.97-.93,1.29-1.42,2.45-1.7,3.26-.27.81-.32,1.28-.27,1.29.15.05.58-1.82,2.47-4.24.47-.57,1.06-1.27,1.72-1.77.34-.24.77-.4,1.04-.29.28.08.45.45.38.81-.07.38-.37.79-.67,1.22-.31.42-.64.84-1.01,1.25-.74.82-1.6,1.6-2.57,2.28-.47.33-.98.61-1.46.68-.49.07-.88-.08-1.21-.44-.64-.77-1.27-1.73-1.87-2.52-.29-.42-.63-.82-.79-1.17-.16-.37-.09-.61.19-.73.66-.28,1.34.38,1.82.93,1.98,2.32,2.04,4.31,2.21,4.25Z"/>
              <path class="st5" d="M264.9,716.51c-1.4.46-2.3,2.11-1.9,3.53.4,1.42,2.07,2.35,3.48,1.91,1.41-.44,2.55-2.38,1.99-3.75-.56-1.37-2.58-2.35-3.84-1.59"/>
              <g class="st0">
                <path class="st4" d="M253.84,741.44l-.1-5.96,70.49-1.41s3.34,1.25,3.09,3.58l-73.48,3.8Z"/>
              </g>
              <path class="st2" d="M288.96,718.08c0,.36-1.78.61-3.48,1.86-1.74,1.2-2.57,2.8-2.91,2.68-.33-.05.09-2.23,2.18-3.7,2.08-1.49,4.27-1.17,4.21-.84Z"/>
              <path class="st2" d="M296.83,720.87c.1.34-1.42,1.03-2.56,2.61-1.19,1.55-1.41,3.2-1.77,3.21-.33.07-.69-2.01.76-3.95,1.44-1.95,3.54-2.21,3.57-1.87Z"/>
              <path class="st2" d="M301.68,729.87c-.32.09-.91-1.67-.09-3.69.81-2.02,2.46-2.88,2.62-2.59.22.28-.82,1.4-1.46,3.06-.69,1.65-.71,3.16-1.07,3.22Z"/>
              <path class="st2" d="M287.86,709.45c-.13.33-1.81-.08-3.83.17-2.03.2-3.57.96-3.77.67-.22-.25,1.25-1.66,3.63-1.91,2.38-.27,4.12.78,3.96,1.08Z"/>
            </g>
            <path class="st2" d="M257.85,529.86s20.01-2.44,23.14,19.25c3.14,21.69,17.81,122.2,17.81,122.2l-55.01,6.89-11.57-103.57-76.15-28.73s88.26-18.28,101.77-16.04Z"/>
            <path class="st2" d="M173.89,503.9s13.6,33.65,11.44,37.55c-2.16,3.9-32.84,20.87-32.84,20.87l-77.14,33.36s-8.58-12.47-9.4-32.14c-.82-19.67,24.98-56.19,24.98-56.19l82.96-3.44Z"/>
            <path class="st7" d="M152.3,544.31s.12.07.38.18c.29.12.67.28,1.13.47,1.05.42,2.53,1,4.42,1.75,3.92,1.52,9.54,3.7,16.59,6.42,14.23,5.44,34.18,13.06,57.26,21.88l-.27-.35c1.14,10.23,2.37,21.28,3.64,32.71,3.02,26.72,5.8,51.36,8,70.85l.04.35.35-.05c14.21-1.84,25.88-3.36,34.05-4.42,4.02-.54,7.17-.97,9.37-1.27,1.04-.15,1.85-.27,2.45-.36.55-.09.83-.14.83-.16,0-.02-.29,0-.85.05-.6.06-1.42.15-2.46.26-2.21.25-5.37.62-9.4,1.08-8.18.99-19.86,2.4-34.09,4.12l.39.31c-2.15-19.5-4.88-44.14-7.83-70.87-1.28-11.43-2.52-22.48-3.67-32.71l-.03-.26-.24-.09c-23.13-8.7-43.11-16.23-57.37-21.59-7.08-2.63-12.74-4.73-16.68-6.19-1.91-.69-3.41-1.24-4.47-1.62-.48-.17-.86-.3-1.16-.4-.26-.09-.4-.13-.4-.11Z"/>
            <path class="st7" d="M90.1,550.32c.02.06.8-.19,2.18-.69,1.54-.57,3.49-1.29,5.82-2.15,4.91-1.79,11.73-4.28,19.55-5.81,7.81-1.54,15.1-1.47,20.23-.58,5.15.84,8.14,2.18,8.2,2.01.02-.05-.71-.42-2.08-.95-1.37-.53-3.42-1.17-6.01-1.67-5.17-1.06-12.6-1.23-20.51.33-7.91,1.56-14.73,4.16-19.6,6.09-2.44.98-4.39,1.81-5.73,2.41-1.34.6-2.07.95-2.05,1.01Z"/>
            <path class="st7" d="M100.43,531.85c.03.14,2.61-.48,6.85-.32,2.12.06,4.64.28,7.45.49,2.81.22,5.89.47,9.09.93,6.42.87,11.99,2.86,15.6,5.06,3.64,2.16,5.39,4.19,5.5,4.07.03-.03-.35-.58-1.2-1.43-.85-.85-2.16-2.01-3.98-3.17-3.6-2.38-9.3-4.52-15.79-5.4-3.24-.48-6.34-.7-9.16-.87-2.81-.16-5.35-.32-7.5-.3-2.15.01-3.88.21-5.06.44-1.18.23-1.81.45-1.8.51Z"/>
            <path class="st2" d="M224.37,769.67s.31-.44.55-1.36c.23-.91.43-2.31.15-4.01-.08-.42-.15-.87-.37-1.34-.21-.47-.7-.97-1.37-1.01-.33-.03-.73.1-.97.38-.25.28-.34.62-.37.92-.05.62.06,1.13.1,1.68.13,1.12.18,2.19.41,3.49.12.66.69,1.42,1.44,1.61.72.22,1.43.13,2.08,0,1.28-.28,2.49-.7,3.6-1.23.55-.26,1.08-.56,1.59-.87.48-.31,1.02-.61,1.42-1.17.39-.54.51-1.41-.04-1.98-.57-.55-1.28-.45-1.78-.35-1.05.3-1.81.75-2.56,1.18-1.46.87-2.47,1.82-3.11,2.51-.64.7-.91,1.14-.87,1.18.11.12,1.41-1.57,4.28-3.15.7-.37,1.57-.81,2.41-1.01.42-.09.89-.06,1.07.17.21.2.19.65-.06.98-.25.35-.72.63-1.2.92-.48.29-.99.56-1.52.81-1.06.49-2.21.89-3.41,1.15-.58.12-1.17.17-1.64.03-.47-.14-.74-.47-.87-.99-.2-1.06-.29-2.3-.44-3.36-.06-.55-.17-1.1-.14-1.52.03-.44.22-.66.53-.65.73.02,1.02.97,1.17,1.75.65,3.21-.27,5.23-.09,5.25Z"/>
          </g>
          <g>
            <path class="st12" d="M88.25,388.12s-.22-12.6,1.01-14.09l25.8-9,18.59,5.57c4.36,1.92,12.72,14.35,17.44,13.7,5.27-.72,6.26-14.58,8.43-18.58h0l9.51,2.44s16.3,43.27,16.5,55.52c.21,12.25-6.23,28.76-5.16,54.44.56,13.43,1.86,25.42-6.49,25.77-8.35.35-82.96,3.44-82.96,3.44,0,0-18.95-4.4-20.23-15.63-1.28-11.23,17.55-103.6,17.55-103.6Z"/>
            <path class="st12" d="M51.25,474.02l13-41.13s7.82-52.19,25.98-59.42c7.77-3.1,24.77-2.56,29.93,7.99,5.16,10.55-1.21,18.25-2.46,23.46-1.25,5.21-18.83,41.78-18.83,41.78-6.53,13.79-8.63,20.59-8.63,20.59l70.21,37.17-8.85,23.15-87.78-31.94c-5.94-2.16-10.71-6.92-12.41-13.01-.73-2.62-.97-5.56-.16-8.64Z"/>
            <path class="st17" d="M214.71,518.93l-18.06-7.74-34.67-1.31-2.9-1.84-7.48,19.56s9.24,3.96,14,4.14l29.02-2.09,15.26.97,4.83-11.7Z"/>
          </g>
          <g>
            <g>
              <path class="st5" d="M311.5,446.58l-99.59,4.94c-3.23.13-6.26,1.81-6.61,5.03l-7.87,73.06-51.32,2.13c-1.65.07-2.94,1.46-2.87,3.12.07,1.65,1.46,2.94,3.12,2.87l50.42-2.09,9.57-.4,103.91-4.31,8.02-77.1c.44-3.98-2.77-7.41-6.77-7.25Z"/>
              <path class="st2" d="M311.5,446.58s.54-.09,1.58.08c1.01.19,2.6.74,3.91,2.37.65.79,1.17,1.87,1.36,3.13.22,1.28-.1,2.64-.2,4.11-.3,2.95-.64,6.35-1.02,10.17-1.56,15.31-3.81,37.38-6.58,64.52l-.03.26h-.27c-42.41,1.8-98.14,4.14-159,6.7-1.43.06-2.86.12-4.28.18-.66.06-1.58.06-2.28-.34-.72-.36-1.3-.99-1.61-1.73-.66-1.5-.02-3.39,1.38-4.2.67-.44,1.57-.51,2.23-.51l2.11-.09c5.61-.23,11.17-.46,16.65-.69,10.97-.45,21.65-.89,31.95-1.31l-.37.35c2.84-26.17,5.49-50.58,7.87-72.47.06-1.38.62-2.9,1.69-3.87,1.04-1,2.39-1.57,3.74-1.84,1.38-.27,2.7-.21,4.01-.31,1.31-.06,2.62-.13,3.91-.19,5.17-.25,10.17-.49,14.99-.72,9.64-.46,18.55-.89,26.65-1.28,16.17-.75,29.06-1.36,37.94-1.77,4.41-.19,7.82-.34,10.15-.44,1.14-.04,2.01-.07,2.62-.1.59-.02.89,0,.89,0,0,0-.3.04-.89.08-.61.04-1.48.09-2.62.16-2.33.13-5.74.32-10.15.57-8.87.47-21.76,1.15-37.93,2-8.09.42-17.01.87-26.64,1.37-4.82.25-9.82.5-14.99.77-1.29.07-2.6.13-3.91.2-1.31.1-2.66.05-3.91.31-1.26.25-2.49.78-3.41,1.68-.94.89-1.41,2.1-1.48,3.47-2.34,21.9-4.96,46.31-7.76,72.49l-.04.33h-.33c-10.3.44-20.98.89-31.95,1.35-5.48.23-11.04.46-16.65.69l-2.11.09c-.74.01-1.3.06-1.84.4-1.07.62-1.55,2.07-1.05,3.21.23.57.67,1.05,1.23,1.32.57.3,1.13.3,1.89.25,1.42-.06,2.85-.12,4.28-.18,60.86-2.49,116.6-4.77,159.01-6.5l-.29.28c2.88-27.12,5.22-49.18,6.85-64.49.41-3.82.78-7.21,1.1-10.16.12-1.47.44-2.84.24-4.05-.18-1.22-.66-2.27-1.28-3.05-1.25-1.6-2.8-2.17-3.79-2.39-1.02-.2-1.56-.13-1.56-.17Z"/>
            </g>
            <path class="st4" d="M257.34,490.06c.14,3.44,3.05,6.12,6.5,5.98,3.44-.14,6.12-3.05,5.98-6.5-.14-3.44-3.05-6.12-6.5-5.98-3.44.14-6.12,3.05-5.98,6.5Z"/>
            <path class="st2" d="M201.69,534.77c.14.02,2.55-18.6,5.37-41.59,2.82-22.99,5-41.64,4.86-41.65-.14-.02-2.55,18.6-5.37,41.59-2.82,22.98-5,41.63-4.85,41.65Z"/>
          </g>
        </g>
        <path class="st2" d="M70.96,498.26s.12.07.38.17c.29.11.66.26,1.14.45,1.05.4,2.53.96,4.43,1.68,3.93,1.46,9.58,3.56,16.67,6.19,14.32,5.25,34.45,12.63,57.89,21.23l.37.14.14-.37c2.82-7.36,5.79-15.12,8.87-23.14l.13-.35-.33-.17c-4.44-2.35-9.13-4.83-13.88-7.35-20.65-10.91-39.99-21.12-56.35-29.77l.17.46c7.07-17.37,12.96-31.86,17.1-42.04,2.03-5.05,3.63-9.03,4.74-11.8.52-1.33.93-2.37,1.22-3.12.12-.33.22-.59.3-.8.06-.18.09-.28.08-.28,0,0-.05.08-.14.26-.09.21-.21.46-.35.78-.32.74-.76,1.76-1.32,3.08-1.15,2.75-2.82,6.7-4.92,11.72-4.21,10.16-10.2,24.6-17.38,41.93l-.13.31.29.16c16.35,8.67,35.67,18.92,56.3,29.87,4.76,2.52,9.44,5,13.88,7.35l-.2-.52c-3.06,8.03-6.02,15.8-8.83,23.16l.51-.23c-23.48-8.48-43.65-15.76-57.99-20.94-7.13-2.54-12.81-4.57-16.75-5.97-1.92-.67-3.42-1.19-4.48-1.56-.48-.16-.86-.29-1.16-.39-.26-.08-.4-.12-.4-.11Z"/>
        <polygon class="st12" points="117.69 355.18 144.2 367.39 151.03 382.7 152.07 367.07 160.07 360.71 164.33 366.81 156.62 388.91 144.44 389.41 115.1 365.83 114.12 365.31 117.69 355.18"/>
        <path class="st2" d="M164.33,366.81c-.11-.04-.91,1.74-2.13,4.64-1.25,2.87-2.82,6.98-4.84,11.25-.05.1-.1.19-.15.28l.75.04c-1.86-4.29-3.13-8.38-4.15-11.28-.99-2.92-1.62-4.71-1.74-4.67-.11.03.33,1.89,1.17,4.85.88,2.96,2.05,7.06,3.95,11.45l.34.79.4-.75c.05-.1.11-.21.17-.32,2.08-4.41,3.53-8.48,4.65-11.43,1.08-2.96,1.68-4.81,1.58-4.85Z"/>
        <path class="st2" d="M114.12,365.31s.54.51,1.61,1.31c1.22.88,2.75,1.98,4.57,3.3,3.88,2.76,9.28,6.51,15.27,10.62,2.5,1.7,4.9,3.34,7.11,4.85l.58.39.05-.69c.34-5.15.61-9.57.77-12.7.06-1.44.11-2.66.15-3.66.02-.85,0-1.32-.04-1.32-.05,0-.12.45-.23,1.3-.1,1-.23,2.21-.38,3.65-.3,3.12-.67,7.53-1.07,12.68l.62-.3c-2.2-1.52-4.59-3.17-7.08-4.89-5.99-4.11-11.44-7.79-15.41-10.42-1.88-1.23-3.47-2.26-4.73-3.08-1.13-.71-1.77-1.08-1.8-1.03Z"/>
        <path class="st2" d="M179.16,500.58s.14-.23.36-.7c.2-.48.44-1.22.61-2.2.38-1.96.66-4.85.74-8.48.1-3.63.01-7.99-.21-12.9-.19-4.92-.4-10.39-.62-16.25l-.11.29c3.06-3.28,5.7-7.41,7.47-12.05,1.37-3.57,2.16-7.27,2.38-10.87.2-3.61-.09-7.09-.66-10.34-1.14-6.51-3.05-12.13-4.43-16.88-1.42-4.75-2.37-8.64-2.86-11.36-.52-2.72-.63-4.25-.72-4.24-.03,0-.01.39.04,1.12.05.73.14,1.81.36,3.18.39,2.75,1.26,6.69,2.61,11.47,1.31,4.78,3.16,10.41,4.24,16.84.53,3.21.81,6.63.6,10.15-.23,3.52-1.01,7.13-2.35,10.62-1.73,4.54-4.3,8.58-7.28,11.8l-.12.13v.17c.27,5.85.52,11.32.74,16.25.28,4.91.43,9.25.4,12.86-.01,3.61-.21,6.49-.5,8.44-.27,1.96-.76,2.92-.7,2.95Z"/>
        <path class="st2" d="M155.14,500.23s.07-.41.13-1.19c.06-.87.13-2.01.22-3.43.18-2.98.36-7.29.52-12.62.31-10.66.36-25.41-.32-41.68-.69-16.27-1.99-30.96-3.2-41.56-.6-5.3-1.15-9.58-1.58-12.53-.21-1.41-.38-2.54-.51-3.4-.13-.78-.21-1.18-.23-1.18-.03,0,0,.42.07,1.2.09.86.21,2,.35,3.42.32,3.06.77,7.32,1.31,12.56,1.06,10.61,2.26,25.28,2.95,41.54.68,16.25.72,30.97.56,41.63-.1,5.26-.19,9.55-.25,12.62-.03,1.42-.05,2.57-.06,3.43,0,.79,0,1.2.04,1.2Z"/>
        <path class="st2" d="M91.54,374.28c0,.16,2.17-.13,5.57.4,3.37.5,8.03,2.06,12.02,5.46,3.98,3.41,6.26,7.76,7.28,11.01,1.06,3.28,1.1,5.46,1.26,5.44.05,0,.09-.54.03-1.52-.06-.98-.25-2.39-.72-4.09-.9-3.38-3.17-7.95-7.31-11.48-4.14-3.53-9.01-5.05-12.49-5.41-1.75-.19-3.18-.17-4.15-.07-.98.1-1.51.22-1.5.27Z"/>
        <path class="st2" d="M76.25,473.4c.19.19,2.54-2.68,6.64-4.33,4.07-1.72,7.76-1.35,7.76-1.61.01-.1-.89-.34-2.38-.34-1.49,0-3.58.3-5.7,1.17-2.12.88-3.81,2.14-4.86,3.19-1.06,1.06-1.53,1.86-1.45,1.92Z"/>
        <path class="st2" d="M108.04,456.03c-.02.05.38.27,1.14.61.75.35,1.88.77,3.29,1.19,2.83.86,6.93,1.57,11.46,1.39,4.54-.19,8.56-1.23,11.32-2.31,1.38-.54,2.47-1.04,3.19-1.45.72-.4,1.11-.65,1.08-.7-.07-.13-1.7.67-4.47,1.59-2.76.92-6.71,1.84-11.15,2.03-4.44.17-8.45-.43-11.28-1.12-2.83-.69-4.53-1.36-4.58-1.22Z"/>
      </g>
    </g>
    <g>
      <rect class="st12" x="311.31" y="391.86" width="329.5" height="40.02" rx="5.77" ry="5.77"/>
      <g>
        <path class="st4" d="M322.11,406.94v3.86h-4.28v-3.86h4.28ZM321.82,413.13v12.87h-3.71v-12.87h3.71Z"/>
        <path class="st4" d="M326.36,421.12v-19.05h6.08l8.01,15.97h.86l-.52.47v-16.44h3.5v19.05h-6.11l-8.01-15.97h-.89l.52-.47v16.44h-3.45Z"/>
        <path class="st4" d="M355.51,421.61c-1.25,0-2.36-.2-3.31-.6-.96-.4-1.77-.94-2.43-1.63-.66-.69-1.16-1.47-1.5-2.34-.34-.87-.51-1.78-.51-2.71v-.55c0-.97.18-1.9.54-2.78.36-.88.87-1.66,1.54-2.35.67-.69,1.48-1.23,2.44-1.62.96-.39,2.04-.59,3.24-.59s2.28.2,3.24.59c.96.39,1.77.93,2.44,1.62s1.18,1.47,1.53,2.35c.35.88.52,1.81.52,2.78v.55c0,.94-.17,1.84-.51,2.71-.34.87-.84,1.65-1.5,2.34s-1.47,1.23-2.43,1.63c-.96.4-2.05.6-3.29.6ZM355.51,418.51c.89,0,1.64-.2,2.24-.59.61-.39,1.07-.92,1.38-1.59.31-.67.47-1.43.47-2.28s-.16-1.64-.48-2.31c-.32-.67-.79-1.2-1.41-1.59-.62-.39-1.35-.59-2.21-.59s-1.59.2-2.21.59c-.62.39-1.09.92-1.42,1.59-.33.67-.5,1.44-.5,2.31s.16,1.61.48,2.28c.32.67.79,1.2,1.4,1.59.61.39,1.36.59,2.24.59Z"/>
        <path class="st4" d="M371.56,421.56c-1.95,0-3.48-.41-4.58-1.24s-1.68-1.97-1.74-3.43h3.26c.05.49.32.93.81,1.33.49.4,1.25.6,2.3.6.87,0,1.56-.16,2.08-.47.51-.31.77-.74.77-1.28,0-.47-.2-.84-.59-1.12s-1.06-.46-2-.55l-1.25-.13c-1.58-.17-2.8-.63-3.65-1.36-.85-.73-1.28-1.71-1.28-2.92,0-.97.24-1.79.73-2.45.49-.66,1.16-1.16,2.02-1.5.86-.34,1.85-.51,2.96-.51,1.74,0,3.15.38,4.23,1.15s1.64,1.89,1.7,3.37h-3.26c-.03-.49-.28-.9-.73-1.25s-1.1-.52-1.96-.52c-.77,0-1.36.15-1.77.44-.42.3-.63.68-.63,1.15s.17.8.51,1.04c.34.24.89.41,1.66.5l1.25.13c1.67.17,2.98.63,3.93,1.38s1.42,1.76,1.42,3.03c0,.94-.26,1.75-.77,2.44-.51.69-1.23,1.22-2.15,1.6-.92.38-2.01.57-3.26.57Z"/>
        <path class="st4" d="M387.56,421.61c-1.25,0-2.36-.2-3.31-.6-.96-.4-1.77-.94-2.43-1.63-.66-.69-1.16-1.47-1.5-2.34-.34-.87-.51-1.78-.51-2.71v-.55c0-.97.18-1.9.54-2.78.36-.88.87-1.66,1.54-2.35.67-.69,1.48-1.23,2.44-1.62.96-.39,2.04-.59,3.24-.59s2.28.2,3.24.59c.96.39,1.77.93,2.44,1.62s1.18,1.47,1.53,2.35c.35.88.52,1.81.52,2.78v.55c0,.94-.17,1.84-.51,2.71-.34.87-.84,1.65-1.5,2.34s-1.47,1.23-2.43,1.63c-.96.4-2.05.6-3.29.6ZM387.56,418.51c.89,0,1.64-.2,2.24-.59.61-.39,1.07-.92,1.38-1.59.31-.67.47-1.43.47-2.28s-.16-1.64-.48-2.31c-.32-.67-.79-1.2-1.41-1.59-.62-.39-1.35-.59-2.21-.59s-1.59.2-2.21.59c-.62.39-1.09.92-1.42,1.59-.33.67-.5,1.44-.5,2.31s.16,1.61.48,2.28c.32.67.79,1.2,1.4,1.59.61.39,1.36.59,2.24.59Z"/>
        <path class="st4" d="M396.64,409.61v-2.66h10.02v2.66h-10.02ZM404.63,421.3c-1.31,0-2.38-.17-3.22-.51s-1.47-.91-1.89-1.72c-.42-.81-.63-1.9-.63-3.27l.03-12.84h3.39l-.03,13.07c0,.7.19,1.23.56,1.61.37.37.91.56,1.61.56h2.22v3.11h-2.04Z"/>
        <path class="st4" d="M409.72,421.12v-14.17h2.87v6h-.08c0-2.04.43-3.58,1.31-4.62.87-1.04,2.15-1.57,3.84-1.57h.52v3.16h-.99c-1.22,0-2.16.33-2.83.98s-1,1.6-1,2.83v7.39h-3.63Z"/>
        <path class="st4" d="M427.3,421.61c-1.25,0-2.36-.2-3.31-.6-.96-.4-1.77-.94-2.43-1.63-.66-.69-1.16-1.47-1.5-2.34-.34-.87-.51-1.78-.51-2.71v-.55c0-.97.18-1.9.54-2.78.36-.88.87-1.66,1.54-2.35.67-.69,1.48-1.23,2.44-1.62.96-.39,2.04-.59,3.24-.59s2.28.2,3.24.59c.96.39,1.77.93,2.44,1.62s1.18,1.47,1.53,2.35c.35.88.52,1.81.52,2.78v.55c0,.94-.17,1.84-.51,2.71-.34.87-.84,1.65-1.5,2.34s-1.47,1.23-2.43,1.63c-.96.4-2.05.6-3.29.6ZM427.3,418.51c.89,0,1.64-.2,2.24-.59.61-.39,1.07-.92,1.38-1.59.31-.67.47-1.43.47-2.28s-.16-1.64-.48-2.31c-.32-.67-.79-1.2-1.41-1.59-.62-.39-1.35-.59-2.21-.59s-1.59.2-2.21.59c-.62.39-1.09.92-1.42,1.59-.33.67-.5,1.44-.5,2.31s.16,1.61.48,2.28c.32.67.79,1.2,1.4,1.59.61.39,1.36.59,2.24.59Z"/>
        <path class="st4" d="M443.35,421.56c-1.95,0-3.48-.41-4.58-1.24s-1.68-1.97-1.74-3.43h3.26c.05.49.32.93.81,1.33.49.4,1.25.6,2.3.6.87,0,1.56-.16,2.08-.47.51-.31.77-.74.77-1.28,0-.47-.2-.84-.59-1.12s-1.06-.46-2-.55l-1.25-.13c-1.58-.17-2.8-.63-3.65-1.36-.85-.73-1.28-1.71-1.28-2.92,0-.97.24-1.79.73-2.45.49-.66,1.16-1.16,2.02-1.5.86-.34,1.85-.51,2.96-.51,1.74,0,3.15.38,4.23,1.15s1.64,1.89,1.7,3.37h-3.26c-.03-.49-.28-.9-.73-1.25s-1.1-.52-1.96-.52c-.77,0-1.36.15-1.77.44-.42.3-.63.68-.63,1.15s.17.8.51,1.04c.34.24.89.41,1.66.5l1.25.13c1.67.17,2.98.63,3.93,1.38s1.42,1.76,1.42,3.03c0,.94-.26,1.75-.77,2.44-.51.69-1.23,1.22-2.15,1.6-.92.38-2.01.57-3.26.57Z"/>
        <path class="st4" d="M456.35,409.61v-2.66h10.02v2.66h-10.02ZM464.34,421.3c-1.31,0-2.38-.17-3.22-.51s-1.47-.91-1.89-1.72c-.42-.81-.63-1.9-.63-3.27l.03-12.84h3.39l-.03,13.07c0,.7.19,1.23.56,1.61.37.37.91.56,1.61.56h2.22v3.11h-2.04Z"/>
        <path class="st4" d="M475.69,421.61c-1.22,0-2.28-.21-3.2-.63-.91-.42-1.67-.98-2.27-1.68-.6-.7-1.05-1.49-1.36-2.36-.3-.87-.46-1.76-.46-2.66v-.5c0-.94.15-1.85.46-2.73.3-.88.76-1.66,1.36-2.35s1.34-1.24,2.23-1.64c.89-.41,1.91-.61,3.08-.61,1.53,0,2.81.33,3.85,1,1.04.67,1.81,1.55,2.34,2.63.52,1.09.78,2.26.78,3.51v1.31h-12.55v-2.22h10.28l-1.12,1.1c0-.9-.13-1.68-.39-2.32s-.66-1.14-1.19-1.49c-.53-.35-1.2-.52-2-.52s-1.48.18-2.04.55c-.56.37-.98.89-1.27,1.58s-.43,1.51-.43,2.47c0,.89.14,1.67.42,2.36s.71,1.23,1.28,1.62c.57.39,1.31.59,2.19.59s1.61-.18,2.17-.53c.56-.36.91-.8,1.07-1.32h3.34c-.21.97-.61,1.83-1.2,2.56-.59.73-1.34,1.3-2.26,1.7-.91.4-1.95.6-3.12.6Z"/>
        <path class="st4" d="M495.18,421.48c-1.03,0-1.93-.18-2.7-.55-.77-.37-1.37-.89-1.8-1.57s-.64-1.5-.64-2.45c0-1.04.26-1.9.77-2.56.51-.66,1.24-1.16,2.17-1.49s2.02-.5,3.28-.5h3.29v2.17h-3.34c-.84,0-1.47.2-1.92.61-.44.41-.67.94-.67,1.58s.22,1.17.67,1.57c.44.4,1.08.6,1.92.6.5,0,.97-.09,1.4-.27.43-.18.78-.5,1.07-.94.29-.44.45-1.05.48-1.81l.89,1.02c-.09.99-.33,1.83-.72,2.51-.39.68-.93,1.2-1.62,1.55s-1.53.53-2.52.53ZM499.75,421.12v-4.2h-.6v-4.67c0-.82-.2-1.43-.6-1.83-.4-.4-1.02-.6-1.85-.6-.43,0-.96,0-1.57.03-.61.02-1.22.04-1.84.07-.62.03-1.17.06-1.66.09v-3.08c.4-.03.85-.07,1.36-.1.5-.03,1.02-.06,1.55-.07.53,0,1.03-.01,1.5-.01,1.46,0,2.67.19,3.64.57.97.38,1.7.98,2.19,1.8s.74,1.89.74,3.21v8.79h-2.87Z"/>
        <path class="st4" d="M509.09,420.8l-4.59-13.86h3.65l4.36,13.86h-3.42ZM505.91,426.7v-3.1h2.66c.5,0,.93-.07,1.26-.2.34-.13.62-.34.85-.63s.4-.68.52-1.19l3.81-14.64h3.47l-4.2,15.42c-.28,1.06-.67,1.91-1.17,2.54-.51.63-1.15,1.09-1.95,1.37-.79.28-1.77.42-2.94.42h-2.32ZM510.32,420.8v-2.87h3.03v2.87h-3.03Z"/>
        <path class="st4" d="M525.82,421.56c-1.64,0-2.9-.54-3.8-1.62-.9-1.08-1.34-2.68-1.34-4.8v-8.22h3.63v8.53c0,.87.24,1.56.73,2.07.49.51,1.15.77,1.98.77s1.52-.27,2.05-.81c.53-.54.8-1.27.8-2.19v-8.38h3.63v14.2h-2.87v-6.03h.29c0,1.43-.18,2.62-.55,3.58s-.91,1.68-1.64,2.17c-.73.49-1.64.73-2.74.73h-.16Z"/>
        <path class="st4" d="M543.54,421.59c-.99,0-1.91-.18-2.74-.55s-1.56-.88-2.17-1.54-1.08-1.43-1.41-2.31c-.33-.88-.5-1.83-.5-2.86v-.55c0-1.01.16-1.96.48-2.84.32-.89.77-1.66,1.36-2.32.58-.66,1.29-1.18,2.11-1.55.83-.37,1.74-.56,2.75-.56,1.11,0,2.09.24,2.94.72s1.52,1.2,2.02,2.15c.5.96.78,2.16.84,3.6l-1.07-1.25v-9.66h3.63v19.05h-2.87v-6.03h.63c-.05,1.44-.35,2.65-.89,3.61s-1.25,1.69-2.13,2.17c-.88.48-1.87.72-2.99.72ZM544.35,418.53c.71,0,1.37-.16,1.96-.48.59-.32,1.07-.79,1.42-1.41.36-.62.53-1.34.53-2.18v-1.04c0-.84-.18-1.54-.55-2.1-.37-.57-.84-1-1.44-1.31-.59-.3-1.24-.46-1.93-.46-.78,0-1.47.19-2.07.56-.6.37-1.07.9-1.41,1.58s-.51,1.47-.51,2.37.17,1.69.52,2.36c.35.67.82,1.19,1.42,1.55.6.37,1.28.55,2.05.55Z"/>
        <path class="st4" d="M559.93,421.48c-1.03,0-1.93-.18-2.7-.55-.77-.37-1.37-.89-1.8-1.57s-.64-1.5-.64-2.45c0-1.04.26-1.9.77-2.56.51-.66,1.24-1.16,2.17-1.49s2.02-.5,3.28-.5h3.29v2.17h-3.34c-.84,0-1.47.2-1.92.61-.44.41-.67.94-.67,1.58s.22,1.17.67,1.57c.44.4,1.08.6,1.92.6.5,0,.97-.09,1.4-.27.43-.18.78-.5,1.07-.94.29-.44.45-1.05.48-1.81l.89,1.02c-.09.99-.33,1.83-.72,2.51-.39.68-.93,1.2-1.62,1.55s-1.53.53-2.52.53ZM564.5,421.12v-4.2h-.6v-4.67c0-.82-.2-1.43-.6-1.83-.4-.4-1.02-.6-1.85-.6-.43,0-.96,0-1.57.03-.61.02-1.22.04-1.84.07-.62.03-1.17.06-1.66.09v-3.08c.4-.03.85-.07,1.36-.1.5-.03,1.02-.06,1.55-.07.53,0,1.03-.01,1.5-.01,1.46,0,2.67.19,3.64.57.97.38,1.7.98,2.19,1.8s.74,1.89.74,3.21v8.79h-2.87Z"/>
        <path class="st4" d="M571.26,421.12v-14.17h2.87v6.08h-.26c0-1.43.18-2.62.55-3.59s.91-1.7,1.63-2.19c.72-.5,1.62-.74,2.7-.74h.16c1.1,0,2,.25,2.73.74.72.5,1.26,1.23,1.62,2.19s.53,2.16.53,3.59h-.91c0-1.43.19-2.62.56-3.59.37-.97.92-1.7,1.64-2.19.72-.5,1.62-.74,2.7-.74h.16c1.1,0,2.01.25,2.74.74.73.5,1.28,1.23,1.66,2.19s.56,2.16.56,3.59v8.09h-3.63v-8.43c0-.89-.23-1.6-.68-2.13-.45-.53-1.1-.8-1.93-.8s-1.5.27-2.01.82c-.51.55-.76,1.28-.76,2.21v8.32h-3.63v-8.43c0-.89-.23-1.6-.68-2.13-.45-.53-1.1-.8-1.93-.8s-1.5.27-2.01.82c-.5.55-.76,1.28-.76,2.21v8.32h-3.63Z"/>
        <path class="st4" d="M603.59,421.61c-1.25,0-2.36-.2-3.31-.6-.96-.4-1.77-.94-2.43-1.63-.66-.69-1.16-1.47-1.5-2.34-.34-.87-.51-1.78-.51-2.71v-.55c0-.97.18-1.9.53-2.78.36-.88.87-1.66,1.54-2.35.67-.69,1.48-1.23,2.44-1.62.96-.39,2.04-.59,3.24-.59s2.28.2,3.24.59c.96.39,1.77.93,2.44,1.62s1.18,1.47,1.53,2.35c.35.88.52,1.81.52,2.78v.55c0,.94-.17,1.84-.51,2.71-.34.87-.84,1.65-1.5,2.34s-1.47,1.23-2.43,1.63c-.96.4-2.05.6-3.29.6ZM603.59,418.51c.89,0,1.63-.2,2.24-.59.61-.39,1.07-.92,1.38-1.59.31-.67.47-1.43.47-2.28s-.16-1.64-.48-2.31c-.32-.67-.79-1.2-1.41-1.59-.62-.39-1.35-.59-2.21-.59s-1.59.2-2.21.59c-.62.39-1.09.92-1.42,1.59-.33.67-.5,1.44-.5,2.31s.16,1.61.48,2.28c.32.67.79,1.2,1.4,1.59.61.39,1.36.59,2.24.59Z"/>
        <path class="st4" d="M619.64,421.56c-1.95,0-3.47-.41-4.58-1.24s-1.68-1.97-1.74-3.43h3.26c.05.49.32.93.81,1.33.49.4,1.25.6,2.3.6.87,0,1.56-.16,2.07-.47.51-.31.77-.74.77-1.28,0-.47-.2-.84-.59-1.12s-1.06-.46-2-.55l-1.25-.13c-1.58-.17-2.8-.63-3.65-1.36-.85-.73-1.28-1.71-1.28-2.92,0-.97.24-1.79.73-2.45.49-.66,1.16-1.16,2.02-1.5.86-.34,1.85-.51,2.96-.51,1.74,0,3.15.38,4.23,1.15,1.08.77,1.64,1.89,1.7,3.37h-3.26c-.04-.49-.28-.9-.73-1.25-.45-.35-1.1-.52-1.96-.52-.77,0-1.36.15-1.78.44-.42.3-.63.68-.63,1.15s.17.8.51,1.04c.34.24.89.41,1.66.5l1.25.13c1.67.17,2.98.63,3.93,1.38s1.42,1.76,1.42,3.03c0,.94-.26,1.75-.77,2.44-.51.69-1.23,1.22-2.15,1.6s-2.01.57-3.26.57Z"/>
        <path class="st4" d="M628.67,421.12v-3.86h4.28v3.86h-4.28ZM628.96,414.93v-12.87h3.71v12.87h-3.71Z"/>
      </g>
    </g>
    <g>
      <text class="st11" transform="translate(536 372.52)"><tspan x="0" y="0">BEST PARTNER</tspan></text>
      <g>
        <g>
          <path class="st10" d="M553.09,345.46l-4.76,11.11c-.02.06-.08.09-.14.09h-2.89c-.11,0-.18-.11-.14-.21l7.94-18.29c.05-.12.22-.12.28,0l7.96,18.29c.04.1-.03.21-.14.21h-2.91c-.06,0-.12-.04-.14-.09l-4.76-11.11c-.05-.13-.23-.13-.29,0Z"/>
          <path class="st10" d="M538.79,349.27l4.76-11.11c.02-.06.08-.09.14-.09h2.89c.11,0,.18.11.14.21l-7.94,18.29c-.05.12-.22.12-.28,0l-7.96-18.29c-.04-.1.03-.21.14-.21h2.91c.06,0,.12.04.14.09l4.76,11.11c.05.13.23.13.29,0Z"/>
          <path class="st10" d="M565.98,355.16c-.74-.56-1.29-1.24-1.67-2.03-.43-.86-.63-1.83-.63-2.87v-12.05c0-.08.07-.15.15-.15h2.64c.08,0,.15.07.15.15v12.05c0,1.12.41,1.98,1.17,2.56.71.56,1.75.89,2.87.89s2.13-.33,2.87-.89c.76-.58,1.14-1.44,1.14-2.56v-12.05c0-.08.07-.15.15-.15h2.67c.08,0,.15.07.15.15v12.05c0,1.04-.23,2-.63,2.87-.41.79-.96,1.47-1.67,2.03-1.24.96-2.89,1.5-4.67,1.5s-3.42-.53-4.67-1.5Z"/>
          <path class="st10" d="M593.54,356.53l-4.74-6.95c-.06-.09-.19-.09-.26,0l-4.72,6.95c-.06.08-.15.13-.25.13h-3.22c-.12,0-.19-.13-.12-.23l6.55-9.63c.04-.05.04-.12,0-.17l-5.67-8.32c-.07-.1,0-.23.12-.23h3.22c.1,0,.19.05.25.13l3.84,5.64c.06.09.19.09.26,0l3.87-5.65c.06-.08.15-.13.25-.13h3.22c.12,0,.19.13.12.23l-5.69,8.32c-.04.05-.04.12,0,.17l6.57,9.63c.07.1,0,.23-.12.23h-3.22c-.1,0-.19-.05-.25-.13Z"/>
          <path class="st1" d="M607.39,338.07c-5.13,0-9.29,4.16-9.29,9.29s4.16,9.29,9.29,9.29,9.29-4.16,9.29-9.29-4.16-9.29-9.29-9.29ZM607.39,353.68c-3.49,0-6.32-2.83-6.32-6.32s2.83-6.32,6.32-6.32,6.32,2.83,6.32,6.32-2.83,6.32-6.32,6.32Z"/>
          <path class="st1" d="M629.05,338.07c-5.13,0-9.29,4.16-9.29,9.29s4.16,9.29,9.29,9.29,9.29-4.16,9.29-9.29-4.16-9.29-9.29-9.29ZM629.05,353.68c-3.49,0-6.32-2.83-6.32-6.32s2.83-6.32,6.32-6.32,6.32,2.83,6.32,6.32-2.83,6.32-6.32,6.32Z"/>
        </g>
        <g>
          <path class="st13" d="M517.62,352.94l-5.68-5.58,5.68-5.58,5.33,5.24c.19.19.19.49,0,.67l-5.33,5.24Z"/>
          <polygon class="st1" points="514.78 350.15 511.94 347.36 514.78 344.58 517.62 347.36 514.78 350.15"/>
          <path class="st8" d="M520.46,350.15l2.5-2.45c.19-.19.19-.49,0-.67l-2.5-2.45-2.84,2.79,2.84,2.79Z"/>
          <path class="st13" d="M502.55,352.94l5.68-5.58-5.68-5.58-5.33,5.24c-.19.19-.19.49,0,.67l5.33,5.24Z"/>
          <polygon class="st1" points="505.39 350.15 508.23 347.36 505.39 344.58 502.55 347.36 505.39 350.15"/>
          <path class="st8" d="M499.71,350.15l-2.5-2.45c-.19-.19-.19-.49,0-.67l2.5-2.45,2.84,2.79-2.84,2.79Z"/>
          <path class="st13" d="M515.66,354.9l-5.58-5.68-5.58,5.68,5.24,5.33c.19.19.49.19.67,0l5.24-5.33Z"/>
          <polygon class="st1" points="512.87 352.06 510.09 349.22 507.3 352.06 510.09 354.9 512.87 352.06"/>
          <path class="st8" d="M512.87,357.74l-2.45,2.5c-.19.19-.49.19-.67,0l-2.45-2.5,2.79-2.84,2.79,2.84Z"/>
          <path class="st18" d="M504.51,339.83l5.58,5.68,5.58-5.68-5.24-5.33c-.19-.19-.49-.19-.67,0l-5.24,5.33Z"/>
          <polygon class="st16" points="507.3 342.67 510.09 345.5 512.87 342.67 510.09 339.83 507.3 342.67"/>
          <path class="st6" d="M507.3,336.99l2.45-2.5c.19-.19.49-.19.67,0l2.45,2.5-2.79,2.84-2.79-2.84Z"/>
        </g>
      </g>
    </g>
  </g>
</svg>
