<?xml version="1.0" encoding="UTF-8"?>
<svg id="Capa_1" xmlns="http://www.w3.org/2000/svg" version="1.1" viewBox="0 0 802.59 470.12">
  <!-- Generator: Adobe Illustrator 30.2.1, SVG Export Plug-In . SVG Version: 2.1.1 Build 1)  -->
  <defs>
    <style>
      .st0 {
        fill: #fafafa;
      }

      .st1 {
        stroke: #4e585d;
        stroke-miterlimit: 10;
        stroke-width: .05px;
      }

      .st1, .st2 {
        fill: none;
      }

      .st3 {
        fill: #263238;
      }

      .st4 {
        opacity: .3;
      }

      .st5, .st6, .st7 {
        fill-rule: evenodd;
      }

      .st5, .st8 {
        fill: #bd0043;
      }

      .st9, .st6 {
        fill: #fff;
      }

      .st10 {
        fill: #e0e0e0;
      }

      .st11 {
        fill: #455a64;
      }

      .st12 {
        opacity: .2;
      }

      .st13 {
        fill: #ff9a6c;
      }

      .st14 {
        fill: #f5f5f5;
      }

      .st15 {
        fill: #ffc09d;
      }

      .st16, .st7 {
        fill: #e4a900;
      }
    </style>
  </defs>
  <g>
    <g>
      <path class="st2" d="M709.9,258.67c-1.77,2.44-3.84,4.6-6.14,6.45l1.6,8.1-12.49,5.54-4.93-6.62c-2.91.46-5.9.55-8.9.22l-4.6,6.86-12.75-4.91,1.19-8.17c-2.44-1.77-4.6-3.84-6.45-6.14l-8.1,1.6-5.54-12.49,6.62-4.93c-.46-2.91-.55-5.9-.22-8.9l-6.86-4.6,4.91-12.75,8.17,1.19c1.77-2.44,3.84-4.6,6.14-6.45l-1.6-8.1,12.49-5.54,4.93,6.62c2.91-.46,5.9-.55,8.9-.22l4.6-6.85,12.75,4.91-1.19,8.17c2.44,1.77,4.6,3.84,6.45,6.14l8.1-1.6,5.54,12.49-6.62,4.93c.46,2.91.55,5.9.22,8.9l6.86,4.6-4.91,12.75-8.17-1.19h0ZM696.11,244.74c2.91-7.55-.85-16.03-8.4-18.95-7.55-2.91-16.03.85-18.95,8.4-2.91,7.55.85,16.03,8.4,18.95,7.55,2.91,16.03-.85,18.95-8.4Z"/>
      <path class="st9" d="M696.11,244.74s-.28,1.29-1.58,3.27c-1.27,1.93-3.82,4.56-7.93,5.81-2.03.6-4.41.87-6.88.4-2.45-.47-5.02-1.52-7.15-3.41-1.08-.91-2.04-2.02-2.83-3.27-.81-1.24-1.44-2.63-1.83-4.12-.85-2.96-.69-6.31.46-9.37,1.2-3.04,3.33-5.63,5.95-7.25,1.29-.84,2.7-1.45,4.13-1.83,1.43-.4,2.88-.58,4.29-.52,2.84.03,5.45.97,7.59,2.27,2.14,1.32,3.73,3.11,4.83,4.92,2.21,3.68,2.33,7.34,1.98,9.62-.36,2.33-1.02,3.48-1.02,3.48-.1-.03.44-1.23.7-3.52.25-2.25.02-5.78-2.16-9.27-1.09-1.72-2.63-3.41-4.69-4.64-2.05-1.21-4.54-2.08-7.23-2.09-1.34-.04-2.72.14-4.06.52-1.35.36-2.68.95-3.9,1.75-2.47,1.55-4.47,3.99-5.61,6.86-1.08,2.89-1.24,6.04-.45,8.85.36,1.41.96,2.73,1.72,3.91.74,1.19,1.64,2.25,2.66,3.12,2,1.8,4.43,2.83,6.76,3.31,2.35.47,4.63.25,6.59-.29,3.97-1.12,6.5-3.59,7.83-5.42,1.35-1.87,1.75-3.12,1.85-3.08Z"/>
      <path class="st9" d="M709.9,258.67s.17,0,.51.04c.38.05.89.11,1.55.19,1.42.19,3.47.47,6.12.82l-.14.08c1.24-3.27,2.87-7.57,4.84-12.78l.08.25c-2.08-1.38-4.4-2.92-6.87-4.57l-.12-.08.02-.15c.29-2.76.25-5.75-.25-8.83l-.03-.16.13-.1c2.06-1.54,4.29-3.21,6.61-4.95l-.09.36c-1.75-3.93-3.61-8.1-5.57-12.47l.37.19c-2.51.5-5.27,1.05-8.1,1.61l-.21.04-.13-.16c-1.72-2.14-3.89-4.26-6.39-6.07l-.18-.13.03-.22c.37-2.53.77-5.32,1.18-8.17l.24.4c-4.01-1.54-8.33-3.2-12.75-4.9l.47-.15c-1.43,2.14-3,4.48-4.59,6.86l-.13.2-.24-.03c-2.74-.3-5.78-.26-8.8.23l-.24.04-.15-.2c-1.55-2.07-3.23-4.33-4.94-6.62l.5.13c-3.95,1.76-8.19,3.64-12.49,5.54l.24-.46c.51,2.56,1.05,5.32,1.6,8.1l.05.25-.2.16c-2.18,1.75-4.29,3.92-6.06,6.36h0s0,0,0,0c-.18.08.4-.17-.4.17h0s-.02,0-.02,0h-.03s-.06-.01-.06-.01l-.13-.02-.26-.04-.51-.08-1.03-.15-2.05-.3c-1.36-.2-2.72-.4-4.07-.6l.45-.26c-1.66,4.31-3.3,8.56-4.92,12.75l-.16-.5c2.31,1.55,4.59,3.08,6.85,4.6l.21.14-.03.25c-.32,2.96-.24,5.93.21,8.8l.04.24-.2.15c-2.24,1.67-4.45,3.31-6.62,4.93l.13-.48c1.89,4.26,3.73,8.43,5.53,12.49l-.43-.22c2.75-.54,5.45-1.07,8.1-1.59l.22-.04.14.18c1.88,2.35,4.04,4.39,6.37,6.08l.18.13-.03.22c-.41,2.8-.81,5.51-1.21,8.16l-.22-.38c4.48,1.74,8.71,3.38,12.74,4.94l-.38.12c1.62-2.41,3.14-4.67,4.61-6.84l.1-.15.18.02c3.13.35,6.08.23,8.83-.2l.17-.03.1.13c1.78,2.41,3.39,4.58,4.91,6.64l-.3-.08c4.85-2.12,8.98-3.93,12.51-5.48l-.11.21c-.62-3.24-1.12-5.9-1.55-8.11l-.02-.08.06-.05c2.35-1.87,3.85-3.53,4.82-4.65.45-.55.8-.97,1.05-1.28.24-.3.35-.43.35-.42,0,.01-.1.17-.3.46-.21.3-.54.75-1,1.32-.93,1.15-2.41,2.85-4.75,4.77l.05-.13c.45,2.21.99,4.86,1.65,8.09l.03.15-.14.06c-3.52,1.58-7.64,3.43-12.46,5.59l-.18.08-.12-.16c-1.53-2.04-3.15-4.2-4.96-6.6l.27.11c-2.79.45-5.79.59-8.98.25l.28-.13c-1.46,2.19-2.97,4.45-4.58,6.87l-.14.21-.24-.09c-4.03-1.55-8.27-3.17-12.76-4.89l-.26-.1.04-.28c.38-2.65.77-5.37,1.18-8.17l.15.35c-2.39-1.72-4.6-3.8-6.53-6.2l.37.13c-2.65.53-5.35,1.06-8.1,1.61l-.3.06-.13-.28c-1.81-4.06-3.66-8.22-5.55-12.48l-.13-.29.26-.19c2.18-1.62,4.38-3.27,6.62-4.94l-.16.39c-.47-2.94-.56-5.98-.23-9.01l.18.39c-2.26-1.52-4.55-3.05-6.86-4.59l-.28-.19.12-.31c1.61-4.19,3.25-8.44,4.91-12.75l.12-.31.33.05c1.35.2,2.71.4,4.07.59l2.05.3,1.03.15.51.08.26.04.13.02h.06s.03.01.03.01h.02s0,0,0,0c-.8.34-.22.09-.4.17h0s0,0,0,0c1.81-2.51,3.98-4.73,6.21-6.52l-.15.41c-.55-2.78-1.09-5.54-1.6-8.1l-.06-.33.31-.14c4.3-1.9,8.54-3.78,12.49-5.53l.3-.13.2.26c1.7,2.29,3.39,4.55,4.93,6.63l-.39-.16c3.09-.49,6.2-.53,9.01-.22l-.37.17c1.6-2.37,3.17-4.72,4.6-6.85l.17-.26.29.11c4.42,1.71,8.74,3.38,12.74,4.93l.28.11-.04.3c-.42,2.84-.83,5.63-1.21,8.16l-.15-.35c2.55,1.85,4.76,4.03,6.51,6.22l-.34-.12c2.83-.55,5.6-1.09,8.1-1.58l.26-.05.11.24c1.93,4.39,3.78,8.56,5.51,12.5l.1.22-.19.14c-2.33,1.72-4.57,3.38-6.64,4.92l.11-.26c.49,3.14.51,6.17.2,8.97l-.11-.23c2.46,1.67,4.77,3.22,6.84,4.62l.14.1-.06.16c-2.03,5.18-3.71,9.46-4.99,12.72l-.04.1-.1-.02c-2.62-.41-4.65-.73-6.05-.95-.67-.11-1.18-.2-1.56-.26-.35-.06-.53-.1-.54-.11Z"/>
    </g>
    <path class="st6" d="M255.76,148.8c-2.5,3.45-5.43,6.51-8.68,9.12l2.26,11.45-17.66,7.83-6.98-9.36c-4.12.66-8.35.78-12.59.32l-6.5,9.69-18.02-6.95,1.69-11.55c-3.45-2.5-6.51-5.43-9.12-8.69l-11.46,2.26-7.83-17.65,9.36-6.98c-.66-4.12-.78-8.35-.32-12.59l-9.69-6.5,6.95-18.03,11.55,1.69c2.5-3.46,5.43-6.51,8.68-9.12l-2.26-11.46,17.66-7.83,6.98,9.36c4.12-.66,8.35-.78,12.59-.32l6.5-9.69,18.02,6.95-1.69,11.55c3.45,2.5,6.51,5.43,9.12,8.69l11.46-2.26,7.83,17.66-9.36,6.98c.66,4.12.78,8.35.32,12.59l9.69,6.5-6.95,18.02-11.55-1.68h0ZM236.25,129.11c4.12-10.68-1.2-22.67-11.88-26.79-10.68-4.12-22.67,1.21-26.79,11.88-4.12,10.68,1.2,22.67,11.88,26.79,10.68,4.12,22.67-1.2,26.79-11.88Z"/>
    <path class="st6" d="M700.26,330.68c-1.39,1.91-3.01,3.6-4.81,5.05l1.25,6.34-9.78,4.34-3.86-5.18c-2.28.36-4.62.43-6.97.18l-3.6,5.37-9.98-3.85.93-6.39c-1.91-1.39-3.6-3.01-5.05-4.81l-6.34,1.25-4.34-9.77,5.18-3.86c-.36-2.28-.43-4.62-.17-6.97l-5.37-3.6,3.85-9.98,6.39.93c1.39-1.91,3.01-3.6,4.81-5.05l-1.25-6.34,9.78-4.34,3.86,5.18c2.28-.36,4.62-.43,6.97-.18l3.6-5.37,9.98,3.85-.93,6.39c1.91,1.39,3.6,3.01,5.05,4.81l6.34-1.25,4.34,9.77-5.18,3.86c.36,2.28.43,4.62.18,6.97l5.37,3.6-3.85,9.98-6.39-.93h0ZM689.46,319.78c2.28-5.91-.67-12.55-6.58-14.83-5.91-2.28-12.55.67-14.83,6.58-2.28,5.91.67,12.55,6.58,14.83,5.91,2.28,12.55-.67,14.83-6.58Z"/>
    <g>
      <path class="st2" d="M330.98,112.22c1.61,1.2,3.03,2.61,4.24,4.16l5.42-.99,3.58,8.38-4.46,3.23c.28,1.95.31,3.94.07,5.94l4.53,3.13-3.4,8.46-5.44-.87c-1.2,1.61-2.61,3.03-4.16,4.24l.99,5.42-8.38,3.58-3.23-4.46c-1.95.28-3.94.31-5.94.06l-3.13,4.53-8.46-3.4.87-5.44c-1.61-1.2-3.03-2.61-4.24-4.16l-5.42.99-3.58-8.38,4.46-3.23c-.28-1.95-.31-3.94-.07-5.94l-4.53-3.13,3.4-8.46,5.44.87c1.2-1.61,2.61-3.04,4.16-4.24l-.99-5.42,8.38-3.58,3.23,4.46c1.95-.28,3.94-.31,5.94-.06l3.13-4.53,8.46,3.4-.87,5.44h0ZM321.56,121.29c-5.01-2.01-10.7.42-12.72,5.43-2.01,5.01.42,10.7,5.43,12.72,5.01,2.01,10.7-.42,12.72-5.43,2.01-5.01-.42-10.7-5.43-12.72Z"/>
      <path class="st10" d="M321.56,121.29s.86.2,2.17,1.09c1.28.87,3,2.59,3.8,5.34.38,1.36.54,2.95.2,4.6-.34,1.63-1.06,3.34-2.34,4.73-.62.71-1.37,1.34-2.21,1.86-.83.53-1.77.94-2.77,1.18-1.99.54-4.21.4-6.24-.39-2.02-.83-3.72-2.27-4.78-4.04-.55-.87-.94-1.81-1.18-2.77-.25-.95-.36-1.93-.31-2.87.05-1.89.7-3.63,1.59-5.04.9-1.42,2.11-2.46,3.33-3.18,2.48-1.44,4.92-1.49,6.44-1.23,1.55.27,2.31.71,2.31.71-.02.07-.82-.31-2.34-.5-1.5-.19-3.85-.07-6.21,1.35-1.15.71-2.3,1.73-3.14,3.09-.83,1.35-1.43,3.01-1.46,4.81-.04.89.07,1.81.31,2.72.23.91.61,1.8,1.13,2.62,1.01,1.66,2.62,3.02,4.52,3.8,1.92.75,4.02.89,5.9.38.94-.23,1.83-.61,2.62-1.11.8-.48,1.52-1.07,2.1-1.75,1.22-1.32,1.93-2.93,2.27-4.48.34-1.56.21-3.09-.13-4.4-.71-2.66-2.33-4.37-3.54-5.27-1.24-.92-2.07-1.2-2.04-1.26Z"/>
      <path class="st10" d="M330.98,112.22s0-.11.03-.34c.04-.25.08-.59.14-1.03.14-.95.34-2.31.61-4.08l.05.1c-2.17-.86-5.02-1.98-8.48-3.35l.17-.05c-.94,1.38-1.99,2.91-3.11,4.54l-.06.08h-.1c-1.84-.23-3.83-.23-5.89.07l-.11.02-.07-.09c-1.01-1.39-2.1-2.89-3.24-4.45l.24.07c-2.64,1.13-5.43,2.33-8.37,3.6l.13-.24c.31,1.68.65,3.52,1,5.42l.03.14-.11.09c-1.44,1.13-2.88,2.55-4.11,4.21l-.09.12-.15-.02c-1.69-.27-3.54-.56-5.44-.87l.27-.15c-1.06,2.66-2.21,5.52-3.39,8.46l-.09-.31c1.41.97,2.96,2.04,4.53,3.13l.13.09-.02.16c-.22,1.83-.23,3.85.07,5.87l.02.16-.13.1c-1.4,1.01-2.92,2.12-4.46,3.23l.09-.33c1.13,2.65,2.35,5.5,3.58,8.38l-.31-.16c1.71-.31,3.56-.65,5.42-.99l.17-.03.1.13c1.15,1.47,2.57,2.9,4.19,4.1h0s0,0,0,0c.05.12-.11-.27.11.27h0s0,.02,0,.02v.02s-.01.04-.01.04v.09s-.04.17-.04.17l-.05.34-.11.68-.22,1.36c-.15.91-.29,1.81-.44,2.71l-.17-.3c2.86,1.15,5.68,2.28,8.46,3.4l-.33.1c1.05-1.52,2.1-3.03,3.13-4.53l.1-.14.17.02c1.97.24,3.95.22,5.87-.06l.16-.02.1.13c1.09,1.51,2.16,3,3.23,4.47l-.32-.09c2.86-1.22,5.66-2.41,8.38-3.57l-.15.28c-.33-1.84-.66-3.65-.98-5.42l-.03-.15.12-.09c1.58-1.23,2.97-2.65,4.12-4.19l.09-.12.14.02c1.86.3,3.67.6,5.43.88l-.25.14c1.2-2.97,2.34-5.78,3.42-8.45l.08.26c-1.59-1.1-3.08-2.14-4.52-3.14l-.1-.07.02-.12c.26-2.09.21-4.05-.05-5.89l-.02-.11.09-.06c1.63-1.17,3.09-2.22,4.47-3.21l-.06.2c-1.37-3.25-2.54-6.03-3.54-8.4l.14.07c-2.17.38-3.94.69-5.43.95h-.05s-.03-.03-.03-.03c-1.22-1.58-2.32-2.6-3.05-3.26-.36-.31-.64-.54-.84-.72-.2-.16-.28-.24-.28-.24,0,0,.11.07.31.2.2.15.49.37.87.68.76.63,1.88,1.64,3.13,3.22l-.09-.03c1.48-.28,3.25-.62,5.41-1.02l.1-.02.04.09c1.02,2.36,2.21,5.13,3.61,8.37l.05.12-.11.08c-1.38,1-2.83,2.06-4.45,3.24l.07-.18c.28,1.87.34,3.87.08,5.99l-.09-.19c1.44.99,2.94,2.02,4.54,3.12l.14.1-.06.16c-1.07,2.68-2.19,5.49-3.38,8.46l-.07.17-.18-.03c-1.77-.28-3.57-.57-5.44-.86l.23-.09c-1.17,1.58-2.58,3.03-4.2,4.3l.09-.24c.33,1.77.66,3.58,1,5.42l.04.2-.19.08c-2.72,1.17-5.52,2.36-8.38,3.59l-.2.08-.13-.17c-1.06-1.47-2.14-2.95-3.23-4.46l.26.11c-1.97.29-3.99.32-6.01.07l.26-.12c-1.03,1.5-2.08,3.01-3.13,4.53l-.13.18-.21-.08c-2.78-1.12-5.6-2.25-8.46-3.4l-.21-.08.04-.22c.14-.9.29-1.8.44-2.71l.22-1.36.11-.68.05-.34.03-.17v-.09s.02-.04.02-.04v-.02s0-.01,0-.01h0c.22.53.06.14.11.26h0s0,0,0,0c-1.66-1.23-3.12-2.7-4.29-4.21l.27.1c-1.86.34-3.71.68-5.42.99l-.22.04-.09-.2c-1.23-2.88-2.44-5.73-3.57-8.38l-.09-.2.18-.13c1.54-1.11,3.07-2.21,4.47-3.23l-.11.26c-.3-2.06-.29-4.14-.06-6.01l.11.25c-1.57-1.09-3.12-2.16-4.53-3.14l-.17-.12.08-.19c1.18-2.93,2.34-5.8,3.41-8.45l.07-.19.2.03c1.89.31,3.75.61,5.43.88l-.23.09c1.26-1.68,2.73-3.14,4.21-4.28l-.09.22c-.34-1.89-.68-3.74-.98-5.42l-.03-.17.16-.07c2.94-1.25,5.75-2.44,8.39-3.56l.15-.06.09.13c1.13,1.57,2.21,3.08,3.22,4.47l-.18-.07c2.1-.3,4.12-.28,5.99-.05l-.16.07c1.13-1.63,2.19-3.15,3.15-4.52l.07-.09.1.04c3.44,1.4,6.28,2.56,8.44,3.45l.07.03v.07c-.31,1.75-.54,3.09-.71,4.03-.08.44-.14.78-.19,1.04-.04.23-.07.36-.08.36Z"/>
    </g>
    <path class="st3" d="M781.99,424.55c0,.16-171.84.29-383.77.29s-383.8-.13-383.8-.29,171.8-.29,383.8-.29,383.77.13,383.77.29Z"/>
    <g>
      <g>
        <path class="st3" d="M215.53,136.91h416.67c4.07,0,7.38,3.31,7.38,7.38v262.7c0,8.8-7.15,15.95-15.95,15.95H222.99c-8.8,0-15.95-7.15-15.95-15.95V145.39c0-4.68,3.8-8.49,8.49-8.49Z"/>
        <path class="st3" d="M188.95,401.78h468.61v10c0,8.29-6.73,15.02-15.02,15.02H203.98c-8.29,0-15.02-6.73-15.02-15.02v-10h0Z"/>
        <rect class="st9" x="218.65" y="148.27" width="408.1" height="241.55"/>
        <polygon class="st11" points="380.67 401.78 386.48 411.03 468.31 411.03 473.71 401.78 380.67 401.78"/>
      </g>
      <rect class="st11" x="207.11" y="401.7" width="432.53" height="1.38"/>
    </g>
    <g>
      <rect class="st10" x="258.15" y="154.19" width="387.88" height="229.09"/>
      <g>
        <path class="st7" d="M273.5,264.15c2.3,1.72,4.33,3.72,6.06,5.93l7.73-1.41,5.1,11.96-6.37,4.61c.4,2.78.45,5.63.09,8.48l6.46,4.47-4.85,12.07-7.76-1.25c-1.72,2.3-3.72,4.33-5.93,6.06l1.41,7.73-11.96,5.1-4.61-6.37c-2.78.4-5.63.44-8.48.09l-4.47,6.47-12.07-4.85,1.25-7.76c-2.3-1.72-4.33-3.72-6.06-5.93l-7.73,1.41-5.1-11.96,6.37-4.61c-.4-2.78-.44-5.63-.09-8.48l-6.46-4.47,4.85-12.07,7.76,1.25c1.72-2.3,3.72-4.33,5.93-6.06l-1.41-7.73,11.96-5.1,4.61,6.37c2.78-.4,5.63-.44,8.48-.09l4.47-6.46,12.07,4.85-1.24,7.76h0ZM260.06,277.09c-7.15-2.87-15.28.59-18.15,7.75-2.87,7.15.6,15.28,7.75,18.15,7.15,2.87,15.28-.59,18.15-7.75,2.87-7.15-.59-15.28-7.75-18.15Z"/>
        <path class="st5" d="M272.98,190.3c1.73,1.29,3.26,2.8,4.56,4.47l5.82-1.06,3.84,9.01-4.8,3.47c.3,2.09.34,4.24.07,6.38l4.87,3.36-3.65,9.09-5.84-.94c-1.29,1.73-2.8,3.26-4.47,4.56l1.06,5.82-9.01,3.84-3.47-4.8c-2.09.3-4.24.33-6.38.07l-3.36,4.87-9.09-3.65.94-5.84c-1.73-1.29-3.26-2.8-4.56-4.47l-5.82,1.06-3.84-9.01,4.8-3.47c-.3-2.09-.33-4.24-.07-6.38l-4.87-3.36,3.65-9.09,5.84.94c1.29-1.73,2.8-3.26,4.47-4.56l-1.06-5.82,9.01-3.84,3.47,4.8c2.09-.3,4.24-.33,6.38-.07l3.36-4.87,9.09,3.65-.94,5.84h0ZM262.85,200.04c-5.38-2.16-11.5.45-13.66,5.83-2.16,5.38.45,11.5,5.83,13.66,5.38,2.16,11.5-.45,13.66-5.83,2.16-5.38-.45-11.5-5.83-13.66Z"/>
        <g class="st12">
          <path class="st6" d="M272.98,190.3c1.73,1.29,3.26,2.8,4.56,4.47l5.82-1.06,3.84,9.01-4.8,3.47c.3,2.09.34,4.24.07,6.38l4.87,3.36-3.65,9.09-5.84-.94c-1.29,1.73-2.8,3.26-4.47,4.56l1.06,5.82-9.01,3.84-3.47-4.8c-2.09.3-4.24.33-6.38.07l-3.36,4.87-9.09-3.65.94-5.84c-1.73-1.29-3.26-2.8-4.56-4.47l-5.82,1.06-3.84-9.01,4.8-3.47c-.3-2.09-.33-4.24-.07-6.38l-4.87-3.36,3.65-9.09,5.84.94c1.29-1.73,2.8-3.26,4.47-4.56l-1.06-5.82,9.01-3.84,3.47,4.8c2.09-.3,4.24-.33,6.38-.07l3.36-4.87,9.09,3.65-.94,5.84h0ZM262.85,200.04c-5.38-2.16-11.5.45-13.66,5.83-2.16,5.38.45,11.5,5.83,13.66,5.38,2.16,11.5-.45,13.66-5.83,2.16-5.38-.45-11.5-5.83-13.66Z"/>
        </g>
      </g>
    </g>
    <g>
      <g>
        <rect class="st9" x="269.91" y="157.4" width="395.89" height="229.09"/>
        <path class="st3" d="M665.8,386.49c0-1.77-.08-88.51-.22-229.09l.22.22c-106.2.02-244.77.04-395.86.07h-.03l.28-.28c0,81.08-.01,158.55-.02,229.09l-.27-.27c232.06.16,393.48.26,395.89.27-2.41,0-163.83.11-395.89.27h-.27s0-.27,0-.27c0-70.54-.01-148.01-.02-229.09v-.29h.32c151.09.02,289.66.05,395.86.07h.22v.22c-.14,140.58-.22,227.32-.22,229.09Z"/>
      </g>
      <path class="st3" d="M666.03,172.54c0,.16-88.73.29-198.16.29s-198.18-.13-198.18-.29,88.71-.29,198.18-.29,198.16.13,198.16.29Z"/>
      <path class="st3" d="M282.77,163.2c0,1.41-1.15,2.56-2.56,2.56s-2.56-1.15-2.56-2.56,1.15-2.56,2.56-2.56,2.56,1.15,2.56,2.56Z"/>
      <circle class="st3" cx="288.02" cy="163.2" r="2.56"/>
      <path class="st3" d="M298.38,163.2c0,1.41-1.15,2.56-2.56,2.56s-2.56-1.15-2.56-2.56,1.15-2.56,2.56-2.56,2.56,1.15,2.56,2.56Z"/>
      <g>
        <rect class="st10" x="295.82" y="287.23" width="81.64" height="78.99"/>
        <g class="st4">
          <polygon points="302.15 359.46 324.73 318.81 343.21 344.79 354.43 331 371.13 359.46 302.15 359.46"/>
        </g>
        <g class="st4">
          <path d="M351.08,310.91c0,3.25-2.63,5.88-5.88,5.88s-5.88-2.63-5.88-5.88,2.63-5.88,5.88-5.88,5.88,2.63,5.88,5.88Z"/>
        </g>
        <g class="st4">
          <path d="M371.13,359.68s-.01-.12-.02-.32c0-.24-.01-.54-.02-.92,0-.84-.02-2.03-.04-3.55-.02-3.13-.05-7.66-.09-13.41-.04-11.54-.1-27.97-.17-47.69l.33.33c-19.98.02-43.66.04-68.98.06-.09.08.73-.73.38-.38v4.48c0,1.49,0,2.98,0,4.46,0,2.96,0,5.89,0,8.79,0,5.8,0,11.49,0,17.02-.01,11.06-.03,21.52-.04,31.14l-.34-.34c20.59.07,37.79.13,49.88.17,6.03.04,10.78.07,14.07.09,1.61.02,2.85.03,3.73.04.4,0,.72.01.97.02.22,0,.33.01.34.02,0,0-.1.01-.3.02-.24,0-.54.01-.93.02-.87,0-2.09.02-3.67.04-3.27.02-8,.05-13.99.09-12.14.04-29.41.1-50.09.17h-.34s0-.34,0-.34c-.01-9.62-.02-20.08-.04-31.14,0-5.53,0-11.22-.01-17.02,0-2.9,0-5.83,0-8.79,0-1.48,0-2.97,0-4.46v-3.37s0-.56,0-.56v-.55c-.35.34.47-.49.4-.4,25.31.02,49,.04,68.98.05h.34s0,.33,0,.33c-.07,19.81-.13,36.32-.17,47.9-.04,5.72-.07,10.22-.09,13.34-.02,1.5-.03,2.67-.04,3.49,0,.37-.01.66-.02.89,0,.2-.01.29-.02.29Z"/>
        </g>
      </g>
      <g>
        <path class="st3" d="M558.77,367.93c0-.16,1.23-.29,2.74-.29-.57.57-.16.16-.28.28h0v-.07s0-.07,0-.07v-.14s0-.27,0-.27c0-.16.01-.33.02-.51.01-.33.04-.62.06-.87.05-.5.12-.8.2-.8s.15.31.2.8c.03.25.05.54.06.87,0,.18.01.35.02.51v.27s0,.14,0,.14v.07s0,.04,0,.04v.02h0v.02h0c-.13.13.28-.28-.29.29-1.51,0-2.74-.13-2.74-.28Z"/>
        <path class="st3" d="M547.05,367.93c0-.16,1.31-.29,2.93-.29s2.93.13,2.93.29-1.31.28-2.93.28-2.93-.13-2.93-.28Z"/>
        <path class="st3" d="M535.33,367.93c0-.16,1.31-.29,2.93-.29s2.93.13,2.93.29-1.31.28-2.93.28-2.93-.13-2.93-.28Z"/>
        <path class="st3" d="M523.61,367.93c0-.16,1.31-.29,2.93-.29s2.93.13,2.93.29-1.31.28-2.93.28-2.93-.13-2.93-.28Z"/>
        <path class="st3" d="M511.89,367.93c0-.16,1.31-.29,2.93-.29s2.93.13,2.93.29-1.31.28-2.93.28-2.93-.13-2.93-.28Z"/>
        <path class="st3" d="M500.18,367.93c0-.16,1.31-.29,2.93-.29s2.93.13,2.93.29-1.31.28-2.93.28-2.93-.13-2.93-.28Z"/>
        <path class="st3" d="M488.46,367.93c0-.16,1.31-.29,2.93-.29s2.93.13,2.93.29-1.31.28-2.93.28-2.93-.13-2.93-.28Z"/>
        <path class="st3" d="M479.86,365.2c.16,0,.29,1.23.29,2.74-.57-.57-.16-.16-.28-.28h.07s.07,0,.07,0h.14s.27,0,.27,0c.16,0,.33.01.51.02.33.01.62.04.87.06.5.05.8.12.8.2s-.31.15-.8.2c-.25.03-.54.05-.87.06-.18,0-.35.01-.51.02h-.27s-.14,0-.14,0h-.07s-.04,0-.04,0h-.03c-.13-.13.28.28-.29-.29,0-1.51.13-2.74.29-2.74Z"/>
        <path class="st3" d="M479.86,353.89c.16,0,.29,1.27.29,2.83s-.13,2.83-.29,2.83-.29-1.27-.29-2.83.13-2.83.29-2.83Z"/>
        <path class="st3" d="M479.86,342.58c.16,0,.29,1.27.29,2.83s-.13,2.83-.29,2.83-.29-1.27-.29-2.83.13-2.83.29-2.83Z"/>
        <path class="st3" d="M479.86,331.27c.16,0,.29,1.27.29,2.83s-.13,2.83-.29,2.83-.29-1.27-.29-2.83.13-2.83.29-2.83Z"/>
        <path class="st3" d="M479.86,319.96c.16,0,.29,1.27.29,2.83s-.13,2.83-.29,2.83-.29-1.27-.29-2.83.13-2.83.29-2.83Z"/>
        <path class="st3" d="M479.86,308.65c.16,0,.29,1.27.29,2.83s-.13,2.83-.29,2.83-.29-1.27-.29-2.83.13-2.83.29-2.83Z"/>
        <path class="st3" d="M479.86,297.34c.16,0,.29,1.27.29,2.83s-.13,2.83-.29,2.83-.29-1.27-.29-2.83.13-2.83.29-2.83Z"/>
        <path class="st3" d="M482.6,288.95c0,.16-1.23.29-2.74.29.57-.57.16-.16.28-.28h0v.07s0,.07,0,.07v.14s0,.27,0,.27c0,.16-.01.33-.02.51-.01.33-.04.62-.06.87-.05.5-.12.8-.2.8s-.15-.31-.2-.8c-.03-.25-.05-.54-.06-.87,0-.18-.01-.35-.02-.51v-.27s0-.14,0-.14v-.07s0-.04,0-.04v-.02h0v-.02h0c.13-.13-.28.28.29-.29,1.51,0,2.74.13,2.74.29Z"/>
        <path class="st3" d="M494.32,288.95c0,.16-1.31.29-2.93.29s-2.93-.13-2.93-.29,1.31-.29,2.93-.29,2.93.13,2.93.29Z"/>
        <path class="st3" d="M506.04,288.95c0,.16-1.31.29-2.93.29s-2.93-.13-2.93-.29,1.31-.29,2.93-.29,2.93.13,2.93.29Z"/>
        <path class="st3" d="M517.75,288.95c0,.16-1.31.29-2.93.29s-2.93-.13-2.93-.29,1.31-.29,2.93-.29,2.93.13,2.93.29Z"/>
        <path class="st3" d="M529.47,288.95c0,.16-1.31.29-2.93.29s-2.93-.13-2.93-.29,1.31-.29,2.93-.29,2.93.13,2.93.29Z"/>
        <path class="st3" d="M541.19,288.95c0,.16-1.31.29-2.93.29s-2.93-.13-2.93-.29,1.31-.29,2.93-.29,2.93.13,2.93.29Z"/>
        <path class="st3" d="M552.91,288.95c0,.16-1.31.29-2.93.29s-2.93-.13-2.93-.29,1.31-.29,2.93-.29,2.93.13,2.93.29Z"/>
        <path class="st3" d="M561.5,291.68c-.16,0-.29-1.23-.29-2.74.57.57.16.16.28.28h-.07s-.07,0-.07,0h-.14s-.27,0-.27,0c-.16,0-.33-.01-.51-.02-.33-.01-.62-.04-.87-.06-.5-.05-.8-.12-.8-.2s.31-.15.8-.2c.25-.03.54-.05.87-.06.18,0,.35-.01.51-.02h.27s.14,0,.14,0h.07s.04,0,.04,0h.03s0,0,0,0h0c.13.13-.28-.28.29.29,0,1.51-.13,2.74-.29,2.74Z"/>
        <path class="st3" d="M561.5,302.99c-.16,0-.29-1.27-.29-2.83s.13-2.83.29-2.83.29,1.27.29,2.83-.13,2.83-.29,2.83Z"/>
        <path class="st3" d="M561.5,314.3c-.16,0-.29-1.27-.29-2.83s.13-2.83.29-2.83.29,1.27.29,2.83-.13,2.83-.29,2.83Z"/>
        <path class="st3" d="M561.5,325.61c-.16,0-.29-1.27-.29-2.83s.13-2.83.29-2.83.29,1.27.29,2.83-.13,2.83-.29,2.83Z"/>
        <path class="st3" d="M561.5,336.92c-.16,0-.29-1.27-.29-2.83s.13-2.83.29-2.83.29,1.27.29,2.83-.13,2.83-.29,2.83Z"/>
        <path class="st3" d="M561.5,348.23c-.16,0-.29-1.27-.29-2.83s.13-2.83.29-2.83.29,1.27.29,2.83-.13,2.83-.29,2.83Z"/>
        <path class="st3" d="M561.5,359.54c-.16,0-.29-1.27-.29-2.83s.13-2.83.29-2.83.29,1.27.29,2.83-.13,2.83-.29,2.83Z"/>
      </g>
      <g>
        <rect class="st3" x="388.78" y="302.26" width="55.26" height="2.78"/>
        <path class="st3" d="M463.25,314.18c0,.16-16.6.29-37.07.29s-37.07-.13-37.07-.29,16.59-.29,37.07-.29,37.07.13,37.07.29Z"/>
        <path class="st3" d="M463.25,321.93c0,.16-16.6.29-37.07.29s-37.07-.13-37.07-.29,16.59-.29,37.07-.29,37.07.13,37.07.29Z"/>
        <path class="st3" d="M463.25,329.68c0,.16-16.6.29-37.07.29s-37.07-.13-37.07-.29,16.59-.29,37.07-.29,37.07.13,37.07.29Z"/>
        <path class="st3" d="M463.25,337.43c0,.16-16.6.29-37.07.29s-37.07-.13-37.07-.29,16.59-.29,37.07-.29,37.07.13,37.07.29Z"/>
        <path class="st3" d="M463.25,345.18c0,.16-16.6.29-37.07.29s-37.07-.13-37.07-.29,16.59-.29,37.07-.29,37.07.13,37.07.29Z"/>
        <path class="st3" d="M427.19,352.3c0,.16-8.52.29-19.03.29s-19.04-.13-19.04-.29,8.52-.28,19.04-.28,19.03.13,19.03.28Z"/>
      </g>
      <g>
        <rect class="st3" x="570.78" y="302.26" width="55.26" height="2.78"/>
        <path class="st3" d="M645.25,314.18c0,.16-16.6.29-37.07.29s-37.07-.13-37.07-.29,16.59-.29,37.07-.29,37.07.13,37.07.29Z"/>
        <path class="st3" d="M645.25,321.93c0,.16-16.6.29-37.07.29s-37.07-.13-37.07-.29,16.59-.29,37.07-.29,37.07.13,37.07.29Z"/>
        <path class="st3" d="M645.25,329.68c0,.16-16.6.29-37.07.29s-37.07-.13-37.07-.29,16.59-.29,37.07-.29,37.07.13,37.07.29Z"/>
        <path class="st3" d="M645.25,337.43c0,.16-16.6.29-37.07.29s-37.07-.13-37.07-.29,16.59-.29,37.07-.29,37.07.13,37.07.29Z"/>
        <path class="st3" d="M645.25,345.18c0,.16-16.6.29-37.07.29s-37.07-.13-37.07-.29,16.59-.29,37.07-.29,37.07.13,37.07.29Z"/>
        <path class="st3" d="M609.19,352.3c0,.16-8.52.29-19.03.29s-19.04-.13-19.04-.29,8.52-.28,19.04-.28,19.03.13,19.03.28Z"/>
      </g>
      <path class="st1" d="M368.62,230.67"/>
      <g>
        <path class="st10" d="M626.64,272.44c0-.16,1.23-.29,2.74-.29s2.74.13,2.74.29-1.23.29-2.74.29-2.74-.13-2.74-.29Z"/>
        <path class="st10" d="M615.69,272.44c0-.16,1.23-.29,2.74-.29s2.74.13,2.74.29-1.23.29-2.74.29-2.74-.13-2.74-.29Z"/>
        <path class="st10" d="M604.74,272.44c0-.16,1.23-.29,2.74-.29s2.74.13,2.74.29-1.23.29-2.74.29-2.74-.13-2.74-.29Z"/>
        <path class="st10" d="M593.8,272.44c0-.16,1.23-.29,2.74-.29s2.74.13,2.74.29-1.23.29-2.74.29-2.74-.13-2.74-.29Z"/>
        <path class="st10" d="M582.85,272.44c0-.16,1.23-.29,2.74-.29s2.74.13,2.74.29-1.23.29-2.74.29-2.74-.13-2.74-.29Z"/>
        <path class="st10" d="M571.9,272.44c0-.16,1.23-.29,2.74-.29s2.74.13,2.74.29-1.23.29-2.74.29-2.74-.13-2.74-.29Z"/>
        <path class="st10" d="M560.95,272.44c0-.16,1.23-.29,2.74-.29s2.74.13,2.74.29-1.23.29-2.74.29-2.74-.13-2.74-.29Z"/>
        <path class="st10" d="M550,272.44c0-.16,1.23-.29,2.74-.29s2.74.13,2.74.29-1.23.29-2.74.29-2.74-.13-2.74-.29Z"/>
        <path class="st10" d="M539.05,272.44c0-.16,1.23-.29,2.74-.29s2.74.13,2.74.29-1.23.29-2.74.29-2.74-.13-2.74-.29Z"/>
        <path class="st10" d="M528.11,272.44c0-.16,1.23-.29,2.74-.29s2.74.13,2.74.29-1.23.29-2.74.29-2.74-.13-2.74-.29Z"/>
        <path class="st10" d="M517.16,272.44c0-.16,1.23-.29,2.74-.29s2.74.13,2.74.29-1.23.29-2.74.29-2.74-.13-2.74-.29Z"/>
        <path class="st10" d="M506.21,272.44c0-.16,1.23-.29,2.74-.29s2.74.13,2.74.29-1.23.29-2.74.29-2.74-.13-2.74-.29Z"/>
        <path class="st10" d="M495.26,272.44c0-.16,1.23-.29,2.74-.29s2.74.13,2.74.29-1.23.29-2.74.29-2.74-.13-2.74-.29Z"/>
        <path class="st10" d="M484.31,272.44c0-.16,1.23-.29,2.74-.29s2.74.13,2.74.29-1.23.29-2.74.29-2.74-.13-2.74-.29Z"/>
        <path class="st10" d="M473.36,272.44c0-.16,1.23-.29,2.74-.29s2.74.13,2.74.29-1.23.29-2.74.29-2.74-.13-2.74-.29Z"/>
        <path class="st10" d="M462.42,272.44c0-.16,1.23-.29,2.74-.29s2.74.13,2.74.29-1.23.29-2.74.29-2.74-.13-2.74-.29Z"/>
        <path class="st10" d="M451.47,272.44c0-.16,1.23-.29,2.74-.29s2.74.13,2.74.29-1.23.29-2.74.29-2.74-.13-2.74-.29Z"/>
        <path class="st10" d="M440.52,272.44c0-.16,1.23-.29,2.74-.29s2.74.13,2.74.29-1.23.29-2.74.29-2.74-.13-2.74-.29Z"/>
        <path class="st10" d="M429.57,272.44c0-.16,1.23-.29,2.74-.29s2.74.13,2.74.29-1.23.29-2.74.29-2.74-.13-2.74-.29Z"/>
        <path class="st10" d="M418.62,272.44c0-.16,1.23-.29,2.74-.29s2.74.13,2.74.29-1.23.29-2.74.29-2.74-.13-2.74-.29Z"/>
        <path class="st10" d="M407.67,272.44c0-.16,1.23-.29,2.74-.29s2.74.13,2.74.29-1.23.29-2.74.29-2.74-.13-2.74-.29Z"/>
        <path class="st10" d="M396.73,272.44c0-.16,1.23-.29,2.74-.29s2.74.13,2.74.29-1.23.29-2.74.29-2.74-.13-2.74-.29Z"/>
        <path class="st10" d="M385.78,272.44c0-.16,1.23-.29,2.74-.29s2.74.13,2.74.29-1.23.29-2.74.29-2.74-.13-2.74-.29Z"/>
        <path class="st10" d="M374.83,272.44c0-.16,1.23-.29,2.74-.29s2.74.13,2.74.29-1.23.29-2.74.29-2.74-.13-2.74-.29Z"/>
        <path class="st10" d="M363.88,272.44c0-.16,1.23-.29,2.74-.29s2.74.13,2.74.29-1.23.29-2.74.29-2.74-.13-2.74-.29Z"/>
        <path class="st10" d="M352.93,272.44c0-.16,1.23-.29,2.74-.29s2.74.13,2.74.29-1.23.29-2.74.29-2.74-.13-2.74-.29Z"/>
        <path class="st10" d="M341.98,272.44c0-.16,1.23-.29,2.74-.29s2.74.13,2.74.29-1.23.29-2.74.29-2.74-.13-2.74-.29Z"/>
        <path class="st10" d="M331.04,272.44c0-.16,1.23-.29,2.74-.29s2.74.13,2.74.29-1.23.29-2.74.29-2.74-.13-2.74-.29Z"/>
        <path class="st10" d="M320.09,272.44c0-.16,1.23-.29,2.74-.29s2.74.13,2.74.29-1.23.29-2.74.29-2.74-.13-2.74-.29Z"/>
        <path class="st10" d="M309.14,272.44c0-.16,1.23-.29,2.74-.29s2.74.13,2.74.29-1.23.29-2.74.29-2.74-.13-2.74-.29Z"/>
        <path class="st10" d="M298.19,272.44c0-.16,1.23-.29,2.74-.29s2.74.13,2.74.29-1.23.29-2.74.29-2.74-.13-2.74-.29Z"/>
        <path class="st10" d="M291.3,268.38c.16,0,.29,1.23.29,2.74,0,.48-.01.93-.04,1.32l-.25-.25c.85.05,1.42.14,1.42.25s-.57.2-1.42.25h-.23s-.02-.25-.02-.25c-.02-.39-.04-.84-.04-1.32,0-1.51.13-2.74.29-2.74Z"/>
        <path class="st10" d="M291.3,257.43c.16,0,.29,1.23.29,2.74s-.13,2.74-.29,2.74-.29-1.23-.29-2.74.13-2.74.29-2.74Z"/>
        <path class="st10" d="M291.3,246.48c.16,0,.29,1.23.29,2.74s-.13,2.74-.29,2.74-.29-1.23-.29-2.74.13-2.74.29-2.74Z"/>
        <path class="st10" d="M291.3,235.53c.16,0,.29,1.23.29,2.74s-.13,2.74-.29,2.74-.29-1.23-.29-2.74.13-2.74.29-2.74Z"/>
        <path class="st10" d="M291.3,224.59c.16,0,.29,1.23.29,2.74s-.13,2.74-.29,2.74-.29-1.23-.29-2.74.13-2.74.29-2.74Z"/>
        <path class="st10" d="M291.3,213.64c.16,0,.29,1.23.29,2.74s-.13,2.74-.29,2.74-.29-1.23-.29-2.74.13-2.74.29-2.74Z"/>
        <path class="st10" d="M291.3,202.69c.16,0,.29,1.23.29,2.74s-.13,2.74-.29,2.74-.29-1.23-.29-2.74.13-2.74.29-2.74Z"/>
        <path class="st10" d="M298.24,198.68c0,.16-1.23.29-2.74.29s-2.74-.13-2.74-.29,1.23-.28,2.74-.28,2.74.13,2.74.28Z"/>
        <path class="st10" d="M309.19,198.68c0,.16-1.23.29-2.74.29s-2.74-.13-2.74-.29,1.23-.28,2.74-.28,2.74.13,2.74.28Z"/>
        <path class="st10" d="M320.14,198.68c0,.16-1.23.29-2.74.29s-2.74-.13-2.74-.29,1.23-.28,2.74-.28,2.74.13,2.74.28Z"/>
        <path class="st10" d="M331.09,198.68c0,.16-1.23.29-2.74.29s-2.74-.13-2.74-.29,1.23-.28,2.74-.28,2.74.13,2.74.28Z"/>
        <path class="st10" d="M342.03,198.68c0,.16-1.23.29-2.74.29s-2.74-.13-2.74-.29,1.23-.28,2.74-.28,2.74.13,2.74.28Z"/>
        <path class="st10" d="M352.98,198.68c0,.16-1.23.29-2.74.29s-2.74-.13-2.74-.29,1.23-.28,2.74-.28,2.74.13,2.74.28Z"/>
        <path class="st10" d="M363.93,198.68c0,.16-1.23.29-2.74.29s-2.74-.13-2.74-.29,1.23-.28,2.74-.28,2.74.13,2.74.28Z"/>
        <path class="st10" d="M374.88,198.68c0,.16-1.23.29-2.74.29s-2.74-.13-2.74-.29,1.23-.28,2.74-.28,2.74.13,2.74.28Z"/>
        <path class="st10" d="M385.83,198.68c0,.16-1.23.29-2.74.29s-2.74-.13-2.74-.29,1.23-.28,2.74-.28,2.74.13,2.74.28Z"/>
        <path class="st10" d="M396.78,198.68c0,.16-1.23.29-2.74.29s-2.74-.13-2.74-.29,1.23-.28,2.74-.28,2.74.13,2.74.28Z"/>
        <path class="st10" d="M407.72,198.68c0,.16-1.23.29-2.74.29s-2.74-.13-2.74-.29,1.23-.28,2.74-.28,2.74.13,2.74.28Z"/>
        <path class="st10" d="M418.67,198.68c0,.16-1.23.29-2.74.29s-2.74-.13-2.74-.29,1.23-.28,2.74-.28,2.74.13,2.74.28Z"/>
        <path class="st10" d="M429.62,198.68c0,.16-1.23.29-2.74.29s-2.74-.13-2.74-.29,1.23-.28,2.74-.28,2.74.13,2.74.28Z"/>
        <path class="st10" d="M440.57,198.68c0,.16-1.23.29-2.74.29s-2.74-.13-2.74-.29,1.23-.28,2.74-.28,2.74.13,2.74.28Z"/>
        <path class="st10" d="M451.52,198.68c0,.16-1.23.29-2.74.29s-2.74-.13-2.74-.29,1.23-.28,2.74-.28,2.74.13,2.74.28Z"/>
        <path class="st10" d="M462.47,198.68c0,.16-1.23.29-2.74.29s-2.74-.13-2.74-.29,1.23-.28,2.74-.28,2.74.13,2.74.28Z"/>
        <path class="st10" d="M473.41,198.68c0,.16-1.23.29-2.74.29s-2.74-.13-2.74-.29,1.23-.28,2.74-.28,2.74.13,2.74.28Z"/>
        <path class="st10" d="M484.36,198.68c0,.16-1.23.29-2.74.29s-2.74-.13-2.74-.29,1.23-.28,2.74-.28,2.74.13,2.74.28Z"/>
        <path class="st10" d="M495.31,198.68c0,.16-1.23.29-2.74.29s-2.74-.13-2.74-.29,1.23-.28,2.74-.28,2.74.13,2.74.28Z"/>
        <path class="st10" d="M506.26,198.68c0,.16-1.23.29-2.74.29s-2.74-.13-2.74-.29,1.23-.28,2.74-.28,2.74.13,2.74.28Z"/>
        <path class="st10" d="M517.21,198.68c0,.16-1.23.29-2.74.29s-2.74-.13-2.74-.29,1.23-.28,2.74-.28,2.74.13,2.74.28Z"/>
        <path class="st10" d="M528.16,198.68c0,.16-1.23.29-2.74.29s-2.74-.13-2.74-.29,1.23-.28,2.74-.28,2.74.13,2.74.28Z"/>
        <path class="st10" d="M539.1,198.68c0,.16-1.23.29-2.74.29s-2.74-.13-2.74-.29,1.23-.28,2.74-.28,2.74.13,2.74.28Z"/>
        <path class="st10" d="M550.05,198.68c0,.16-1.23.29-2.74.29s-2.74-.13-2.74-.29,1.23-.28,2.74-.28,2.74.13,2.74.28Z"/>
        <path class="st10" d="M561,198.68c0,.16-1.23.29-2.74.29s-2.74-.13-2.74-.29,1.23-.28,2.74-.28,2.74.13,2.74.28Z"/>
        <path class="st10" d="M571.95,198.68c0,.16-1.23.29-2.74.29s-2.74-.13-2.74-.29,1.23-.28,2.74-.28,2.74.13,2.74.28Z"/>
        <path class="st10" d="M582.9,198.68c0,.16-1.23.29-2.74.29s-2.74-.13-2.74-.29,1.23-.28,2.74-.28,2.74.13,2.74.28Z"/>
        <path class="st10" d="M593.85,198.68c0,.16-1.23.29-2.74.29s-2.74-.13-2.74-.29,1.23-.28,2.74-.28,2.74.13,2.74.28Z"/>
        <path class="st10" d="M604.79,198.68c0,.16-1.23.29-2.74.29s-2.74-.13-2.74-.29,1.23-.28,2.74-.28,2.74.13,2.74.28Z"/>
        <path class="st10" d="M615.74,198.68c0,.16-1.23.29-2.74.29s-2.74-.13-2.74-.29,1.23-.28,2.74-.28,2.74.13,2.74.28Z"/>
        <path class="st10" d="M626.69,198.68c0,.16-1.23.29-2.74.29s-2.74-.13-2.74-.29,1.23-.28,2.74-.28,2.74.13,2.74.28Z"/>
        <path class="st10" d="M632.12,204.21c-.16,0-.29-1.23-.29-2.74s.13-2.74.29-2.74.29,1.23.29,2.74-.13,2.74-.29,2.74Z"/>
        <path class="st10" d="M632.12,215.15c-.16,0-.29-1.23-.29-2.74s.13-2.74.29-2.74.29,1.23.29,2.74-.13,2.74-.29,2.74Z"/>
        <path class="st10" d="M632.12,226.1c-.16,0-.29-1.23-.29-2.74s.13-2.74.29-2.74.29,1.23.29,2.74-.13,2.74-.29,2.74Z"/>
        <path class="st10" d="M632.12,237.05c-.16,0-.29-1.23-.29-2.74s.13-2.74.29-2.74.29,1.23.29,2.74-.13,2.74-.29,2.74Z"/>
        <path class="st10" d="M632.12,248c-.16,0-.29-1.23-.29-2.74s.13-2.74.29-2.74.29,1.23.29,2.74-.13,2.74-.29,2.74Z"/>
        <path class="st10" d="M632.12,258.95c-.16,0-.29-1.23-.29-2.74s.13-2.74.29-2.74.29,1.23.29,2.74-.13,2.74-.29,2.74Z"/>
        <path class="st10" d="M632.12,269.9c-.16,0-.29-1.23-.29-2.74s.13-2.74.29-2.74.29,1.23.29,2.74-.13,2.74-.29,2.74Z"/>
      </g>
      <g>
        <rect class="st8" x="296.26" y="195.33" width="344.14" height="72.33"/>
        <g>
          <g>
            <rect class="st9" x="416.57" y="224.88" width="103.51" height="10.67"/>
            <path class="st3" d="M520.11,235.59h-103.56v-10.73h103.56v10.73ZM416.6,235.53h103.45v-10.62h-103.45v10.62Z"/>
          </g>
          <path class="st0" d="M554.55,245.04c0,.16-38.61.29-86.22.29s-86.23-.13-86.23-.29,38.6-.29,86.23-.29,86.22.13,86.22.29Z"/>
          <g>
            <g>
              <g>
                <path class="st9" d="M343.67,267.23s.4-.08,1.02-.5c.31-.2.69-.48,1.08-.87.39-.39.81-.87,1.13-1.52.15-.33.27-.7.24-1.11-.03-.41-.18-.8-.34-1.2-.16-.4-.35-.81-.47-1.26-.13-.44-.15-.92-.1-1.42.09-.98.48-2.06.23-3.22-.22-1.16-.92-2.2-1.62-3.25-.69-1.05-1.43-2.2-1.54-3.57-.14-1.36.2-2.8,0-4.32-.21-1.53-1.06-2.88-1.63-4.34-.29-.73-.48-1.51-.47-2.31,0-.81.13-1.63.14-2.48.02-1.72-.6-3.38-1.15-5.04-.28-.83-.55-1.68-.84-2.53-.28-.85-.58-1.7-.69-2.6-.13-.89-.15-1.81-.17-2.74-.02-.47-.02-.94-.12-1.42-.13-.48-.3-.9-.47-1.35-.35-.88-.79-1.74-1.3-2.56-.5-.82-1.05-1.61-1.55-2.44-.03-.05-.06-.1-.09-.14l-.1-.16-.12.15c-.62.77-1.03,1.69-1.24,2.64-.22.95-.25,1.92-.19,2.86.11,1.9.67,3.7,1.09,5.46.43,1.76.76,3.53.55,5.26-.1.86-.32,1.7-.46,2.55-.14.85-.19,1.74.05,2.57.51,1.69,2.03,2.69,2.49,4.18.26.73.28,1.51.21,2.27-.07.76-.21,1.5-.33,2.23-.12.73-.22,1.47-.21,2.2,0,.73.16,1.45.41,2.1.49,1.31,1.22,2.43,1.65,3.61.45,1.17.52,2.39.49,3.52-.03,1.13-.15,2.2-.2,3.21-.03.5-.04.99-.02,1.46.01.47.12.92.22,1.34.24.84.58,1.56.96,2.16.76,1.21,1.66,1.92,2.33,2.24.16.09.32.14.46.19.13.05.25.08.34.1.19.04.28.05.28.05,0-.03-.4-.05-1.06-.38-.65-.33-1.54-1.04-2.27-2.25-.37-.6-.7-1.31-.92-2.14-.09-.41-.19-.85-.2-1.31-.02-.46,0-.95.03-1.45.06-1,.19-2.07.22-3.21.04-1.14-.03-2.38-.49-3.59-.43-1.2-1.16-2.33-1.64-3.61-.24-.64-.38-1.32-.38-2.03,0-.71.09-1.43.22-2.16.12-.73.27-1.48.34-2.25.07-.77.05-1.59-.22-2.36-.51-1.58-2.03-2.59-2.48-4.17-.23-.78-.18-1.63-.04-2.46.13-.84.35-1.68.46-2.56.22-1.77-.11-3.58-.55-5.35-.43-1.77-.97-3.55-1.08-5.42-.05-.93-.03-1.87.18-2.79.2-.92.6-1.79,1.19-2.53l-.22-.02s.06.09.09.14c.5.84,1.05,1.63,1.55,2.44.5.81.93,1.65,1.28,2.52.17.43.35.88.46,1.31.09.44.1.91.12,1.37.03.93.04,1.86.18,2.77.11.92.42,1.8.7,2.64.28.85.56,1.69.84,2.53.55,1.66,1.16,3.3,1.14,4.96,0,.83-.14,1.65-.13,2.48,0,.83.2,1.65.49,2.4.59,1.49,1.43,2.82,1.63,4.29.2,1.46-.13,2.9.01,4.31.12,1.43.89,2.61,1.58,3.66.7,1.05,1.39,2.07,1.61,3.18.25,1.11-.13,2.17-.22,3.18-.05.51-.02,1.01.11,1.47.13.46.32.87.49,1.27.16.4.31.79.34,1.17.03.38-.08.74-.22,1.06-.3.63-.71,1.12-1.09,1.51-.38.39-.75.67-1.05.88-.31.21-.56.34-.73.43-.18.07-.26.12-.26.12Z"/>
                <path class="st9" d="M335.17,217.48s0,.05.02.13c.02.1.04.22.07.38.06.33.18.82.29,1.44.11.62.06,1.41.12,2.32.05.91.15,1.94.33,3.08.17,1.13.43,2.36.72,3.68.27,1.32.59,2.72.49,4.23-.03.75-.09,1.53-.05,2.33.03.81.22,1.62.45,2.41.5,1.57.93,3.21,1.28,4.92.66,3.43,1.29,6.69,1.87,9.66.56,2.97,1.06,5.65,1.48,7.9.43,2.23.77,4.05,1.02,5.32.12.61.22,1.09.29,1.45.03.15.06.28.08.37.02.08.03.13.04.13,0,0,0-.05-.01-.13-.01-.1-.03-.23-.06-.38-.06-.35-.14-.84-.24-1.45-.22-1.28-.54-3.1-.94-5.34-.41-2.26-.89-4.94-1.42-7.91-.57-2.98-1.19-6.24-1.85-9.68-.35-1.71-.79-3.38-1.29-4.94-.23-.78-.42-1.56-.45-2.34-.04-.78.02-1.55.05-2.31.1-1.53-.23-2.97-.51-4.28-.29-1.31-.56-2.54-.75-3.66-.19-1.13-.31-2.15-.37-3.06-.08-.9-.04-1.69-.17-2.33-.13-.63-.26-1.11-.34-1.44-.04-.15-.07-.27-.1-.37-.02-.08-.04-.13-.04-.12Z"/>
              </g>
              <g>
                <path class="st0" d="M344.29,266.83s-.41.3-1.33.51c-.9.2-2.32.45-4.06-.04-.42-.15-.87-.36-1.22-.74-.35-.38-.57-.86-.8-1.34-.23-.49-.44-1.01-.73-1.5-.29-.49-.7-.92-1.2-1.29-.96-.76-2.27-1.32-3.12-2.56-.86-1.2-1.2-2.73-1.55-4.26-.35-1.52-.77-3.16-1.91-4.42-1.11-1.28-2.7-2.21-3.9-3.7-1.21-1.51-1.7-3.44-2.53-5.19-.42-.88-.95-1.71-1.68-2.38-.72-.68-1.58-1.27-2.36-2-1.57-1.48-2.54-3.46-3.57-5.37-.52-.96-1.04-1.93-1.57-2.92-.53-.99-1.03-1.97-1.76-2.83-.7-.88-1.51-1.67-2.33-2.49-.4-.42-.83-.82-1.17-1.34-.32-.53-.56-1.05-.81-1.59-.49-1.08-.89-2.21-1.19-3.37-.31-1.16-.55-2.33-.88-3.48-.01-.05-.03-.1-.04-.14l-.09-.31.32.02c2.52.19,4.65,1.73,6.23,3.45,1.63,1.74,2.78,3.79,4,5.68,1.22,1.9,2.54,3.7,4.27,4.98.86.64,1.81,1.16,2.7,1.77.89.61,1.74,1.33,2.28,2.28,1.08,1.94.68,4.16,1.64,5.83.44.85,1.13,1.52,1.87,2.1.74.59,1.53,1.09,2.3,1.61.77.52,1.52,1.06,2.17,1.71.66.64,1.17,1.4,1.54,2.19.75,1.58,1.14,3.2,1.84,4.59.68,1.4,1.72,2.49,2.77,3.43,1.05.94,2.12,1.75,3.07,2.57.96.8,1.81,1.66,2.34,2.61.55.94.9,1.87,1.11,2.73.44,1.73.31,3.15.03,4.04-.14.44-.29.77-.43.97-.13.2-.2.3-.2.3-.03-.02.29-.41.54-1.29.25-.88.35-2.28-.11-3.97-.23-.84-.58-1.76-1.13-2.67-.53-.92-1.35-1.74-2.32-2.53-.95-.81-2.03-1.6-3.1-2.55-1.06-.94-2.15-2.06-2.86-3.5-.73-1.43-1.13-3.05-1.87-4.58-.69-1.57-2.06-2.74-3.6-3.74-.77-.51-1.57-1.02-2.33-1.62-.76-.6-1.5-1.31-1.98-2.22-1.03-1.83-.63-4.07-1.65-5.82-.5-.87-1.3-1.55-2.16-2.14-.87-.6-1.82-1.12-2.71-1.78-1.81-1.32-3.16-3.18-4.39-5.08-1.24-1.91-2.38-3.92-3.96-5.61-1.55-1.68-3.58-3.13-5.94-3.3l.23-.29s.03.1.04.15c.33,1.17.57,2.35.88,3.49.3,1.14.69,2.25,1.17,3.3.24.52.5,1.07.78,1.53.3.45.72.86,1.11,1.27.81.81,1.64,1.63,2.36,2.53.74.89,1.28,1.92,1.8,2.9.53.98,1.05,1.96,1.56,2.92,1.03,1.92,1.98,3.86,3.48,5.27.74.7,1.6,1.29,2.35,2,.77.71,1.34,1.6,1.76,2.51.85,1.81,1.33,3.71,2.47,5.13,1.13,1.42,2.72,2.36,3.87,3.7,1.2,1.34,1.62,3.06,1.96,4.58.34,1.53.67,3.02,1.48,4.16.78,1.17,2.05,1.73,3.04,2.52.5.39.94.85,1.24,1.37.3.51.51,1.04.73,1.53.22.48.44.95.75,1.3.31.35.73.56,1.13.71,1.67.51,3.09.29,3.98.12.91-.18,1.33-.45,1.35-.42Z"/>
                <path class="st9" d="M306.65,216.59s.02.05.08.14c.06.1.15.24.25.4.23.35.55.88,1.01,1.54.47.66,1.21,1.3,1.96,2.14.76.83,1.59,1.81,2.45,2.95.86,1.13,1.74,2.42,2.67,3.81.94,1.37,1.96,2.9,3.42,4.12.71.63,1.45,1.23,2.13,1.94.68.7,1.23,1.53,1.74,2.42.98,1.79,2.11,3.61,3.35,5.39,2.53,3.53,4.95,6.89,7.15,9.95,2.23,3.03,4.23,5.76,5.92,8.06,1.69,2.28,3.05,4.12,4.01,5.42.47.63.84,1.12,1.1,1.47.12.16.22.28.29.38.07.08.1.13.11.12,0,0-.02-.05-.08-.14-.07-.1-.16-.23-.27-.39-.25-.36-.61-.86-1.06-1.49-.94-1.31-2.29-3.17-3.94-5.47-1.68-2.31-3.67-5.05-5.87-8.09-2.19-3.06-4.6-6.42-7.12-9.96-1.24-1.78-2.36-3.57-3.35-5.37-.51-.89-1.08-1.75-1.78-2.46-.69-.72-1.45-1.33-2.15-1.95-1.45-1.2-2.45-2.69-3.4-4.06-.94-1.38-1.83-2.67-2.7-3.79-.87-1.13-1.71-2.11-2.49-2.94-.76-.84-1.52-1.47-1.99-2.1-.46-.64-.8-1.16-1.04-1.5-.11-.16-.2-.29-.27-.39-.06-.09-.1-.13-.1-.13Z"/>
              </g>
            </g>
            <path class="st3" d="M336.21,267.66s-.06-.21-.16-.6c-.11-.39-.26-.98-.7-1.6-.43-.63-1.17-1.22-2.14-1.73-.94-.53-2.17-.93-3.3-1.79-.57-.42-1.11-.92-1.65-1.46-.27-.28-.54-.53-.81-.84-.26-.31-.49-.67-.68-1.04-.75-1.51-.87-3.32-1.83-4.83-.91-1.54-2.52-2.66-4.26-3.56-1.75-.92-3.68-1.69-5.51-2.82-.91-.57-1.75-1.24-2.47-2.02-.71-.78-1.26-1.68-1.7-2.59-.87-1.83-1.35-3.72-1.89-5.46-.54-1.74-1.14-3.37-2.01-4.72-.88-1.34-1.92-2.45-3.01-3.27-2.18-1.67-4.37-2.38-5.87-2.64-1.52-.27-2.38-.22-2.38-.27,0-.02.21-.03.62-.04.21-.01.46,0,.76.02.3.01.64.05,1.03.11,1.53.22,3.78.88,6.04,2.56,1.13.83,2.22,1.95,3.13,3.33.92,1.38,1.54,3.05,2.1,4.8.56,1.75,1.05,3.61,1.89,5.39.43.88.96,1.73,1.63,2.48.68.74,1.49,1.38,2.37,1.93,1.78,1.1,3.7,1.87,5.47,2.81,1.76.93,3.45,2.09,4.41,3.74,1,1.64,1.1,3.46,1.81,4.88.33.73.86,1.26,1.4,1.81.53.54,1.05,1.03,1.59,1.44,1.07.85,2.27,1.26,3.23,1.83.97.54,1.73,1.18,2.16,1.85.44.67.56,1.28.65,1.68.04.2.06.36.07.46.01.1.01.16,0,.16Z"/>
            <path class="st3" d="M330.11,267.66s-.13-.05-.36-.17c-.27-.16-.6-.34-.99-.57-.86-.5-2.07-1.26-3.55-2.23-2.96-1.94-6.95-4.8-11.07-8.31-4.12-3.51-7.58-6.98-9.98-9.59-1.2-1.3-2.15-2.38-2.79-3.14-.29-.35-.53-.64-.73-.88-.16-.2-.24-.32-.23-.33.01,0,.11.08.3.27.21.22.47.5.79.83.67.73,1.65,1.77,2.88,3.04,2.45,2.54,5.94,5.97,10.04,9.47,4.11,3.49,8.04,6.39,10.96,8.39,1.46,1,2.65,1.8,3.47,2.34.38.25.69.46.95.64.21.15.32.23.31.25Z"/>
            <path class="st0" d="M352.87,233.89s.19-.12.58-.11c.38,0,.96.15,1.48.63.26.24.5.56.63.96.13.4.15.88,0,1.34-.29.89-1.21,1.73-2.37,1.68-1.16-.09-1.96-1.04-2.14-1.97-.1-.47-.01-.95.18-1.33.2-.38.49-.65.78-.85.59-.38,1.19-.43,1.57-.36.38.07.55.2.54.22-.01.04-.21-.04-.56-.05-.35-.01-.87.08-1.37.45-.49.35-.92,1.05-.73,1.82.16.75.86,1.54,1.75,1.6.89.05,1.69-.64,1.94-1.37.29-.75-.03-1.5-.46-1.93-.43-.44-.93-.63-1.27-.68-.35-.06-.55-.03-.56-.06Z"/>
            <path class="st0" d="M351.77,252.61c-.03-.05.22-.2.54.03.14.11.29.3.28.59,0,.29-.26.56-.54.62-.28.08-.63-.02-.78-.27-.15-.24-.11-.49-.04-.65.16-.35.46-.35.45-.29.02.06-.12.16-.15.38-.03.23.11.47.4.39.3-.08.3-.35.16-.54-.13-.18-.3-.2-.32-.26Z"/>
            <path class="st0" d="M326.87,223.56c.02.06-.16.15-.23.41-.08.26.05.59.42.56.37-.02.45-.37.33-.61-.1-.24-.29-.3-.28-.37-.02-.06.29-.13.56.2.12.15.22.4.14.69-.08.3-.4.52-.71.54-.32.03-.66-.14-.79-.43-.12-.28-.06-.54.04-.71.22-.36.53-.33.52-.28Z"/>
            <g>
              <path class="st0" d="M564.23,205.22s-.45.13-.89.82c-.45.68-.62,1.93-.27,3.46.33,1.53,1.14,3.3,2.1,5.37.96,2.06,2.1,4.43,3.58,6.92v.02s.02.02.02.02c.08.27.11.53.09.82-.03.28-.14.61-.41.79-.57.35-1.13.21-1.66.23-.54-.01-1.08-.03-1.62.02-.52.06-1.08.19-1.39.58-.3.38-.41.98-.29,1.49.12.53.43,1.02.83,1.46.78.88,1.88,1.49,2.93,2.24,1.06.73,2.14,1.47,3.25,2.23.55.38,1.12.77,1.68,1.15l.85.59c.28.17.66.47.74.95.06.25-.12.57-.33.68-.2.13-.41.16-.59.19l-1.06.15c-.7.1-1.41.23-2.1.41-.69.19-1.37.42-1.95.81-.57.38-1,.96-.89,1.63.09.66.53,1.28,1.05,1.8.52.53,1.11,1,1.75,1.44,1.27.87,2.66,1.62,4.1,2.29.35.18.74.29,1.12.59.18.14.38.39.41.68,0,.07,0,.14,0,.21-.02.08.01.08-.07.25-.16.23-.3.23-.42.28-.89.19-1.68.14-2.51.19-.82.03-1.64.08-2.42.26-.75.17-1.58.52-1.71,1.19-.13.69.4,1.39.96,1.97.58.58,1.25,1.09,1.97,1.53,1.43.9,3.04,1.57,4.68,2.12,1.65.55,3.37.96,5.11,1.28.86.19,1.76.24,2.65.34.89.09,1.79.18,2.69.28h.03s-.26.12-.26.12c.54-.72,1.08-1.45,1.62-2.17.53-.73,1.11-1.42,1.55-2.18.94-1.49,1.8-3.04,2.51-4.63.7-1.59,1.29-3.22,1.6-4.89.16-.83.24-1.67.2-2.49-.05-.8-.2-1.67-.8-2.04-.58-.36-1.39.01-2.03.46-.66.46-1.25,1.03-1.82,1.61-.6.58-1.09,1.19-1.84,1.72-.11.05-.21.16-.49.12-.18-.05-.16-.07-.23-.12-.05-.04-.11-.09-.15-.14-.2-.22-.25-.53-.23-.76.04-.49.22-.85.32-1.23.47-1.52.86-3.05,1.07-4.57.1-.76.15-1.52.11-2.26-.04-.73-.2-1.48-.63-1.99-.42-.54-1.14-.61-1.8-.44-.67.17-1.31.52-1.91.9-.6.39-1.17.82-1.72,1.27l-.83.68c-.15.11-.31.24-.54.31-.22.08-.57,0-.72-.22-.3-.38-.25-.87-.2-1.18l.14-1.03c.1-.68.19-1.35.28-2.02.19-1.33.37-2.63.55-3.9.16-1.28.45-2.5.32-3.67-.05-.58-.21-1.15-.52-1.59-.3-.43-.82-.75-1.3-.79-.49-.03-.97.29-1.36.64-.4.36-.75.77-1.11,1.18-.37.38-.65.89-1.29,1.07-.32.08-.64-.07-.86-.23-.23-.18-.4-.38-.55-.62h0s0-.04,0-.04c-.84-2.77-1.82-5.2-2.69-7.3-.88-2.1-1.64-3.89-2.54-5.17-.88-1.29-1.91-2.03-2.7-2.18-.8-.16-1.2.12-1.2.08,0,0,.09-.07.29-.13.2-.06.52-.12.93-.04.84.12,1.92.87,2.84,2.17.94,1.29,1.73,3.09,2.63,5.17.9,2.1,1.9,4.51,2.77,7.31l-.02-.04c.23.37.64.76,1.04.67.39-.09.73-.58,1.08-.96.35-.41.71-.84,1.13-1.22.42-.37.95-.77,1.64-.75.67.06,1.22.43,1.61.95.37.53.54,1.16.6,1.79.14,1.26-.16,2.52-.3,3.78-.17,1.27-.35,2.57-.53,3.9-.09.67-.18,1.34-.27,2.02l-.14,1.02c-.03.18-.05.33-.03.47.02.14.06.28.13.36.09.15.33.07.6-.16l.82-.68c.56-.46,1.13-.91,1.76-1.31.63-.4,1.29-.77,2.06-.97.73-.21,1.76-.11,2.3.6.55.67.71,1.51.75,2.29.04.79,0,1.58-.11,2.37-.22,1.57-.6,3.12-1.08,4.66-.11.39-.28.78-.3,1.1,0,.17.02.29.1.37.02.02.04.04.07.06l.04.03h.01c-.03.06.08-.1-.06.13,0-.01.01-.03.01-.04,0-.01,0-.02,0-.04,0-.04,0-.08,0-.07,0,0,0,0,.02,0,.03-.02.05-.02.09-.05.58-.42,1.15-1.07,1.73-1.65.58-.59,1.18-1.18,1.9-1.68.36-.25.74-.47,1.19-.61.43-.15,1-.14,1.44.13.44.26.71.72.85,1.15.14.44.2.88.23,1.33.05.88-.04,1.76-.2,2.62-.31,1.73-.91,3.4-1.63,5.02-.72,1.62-1.58,3.18-2.55,4.71-.45.79-1.03,1.48-1.56,2.21-.54.72-1.08,1.45-1.63,2.18l-.1.13-.16-.02h-.03c-.9-.1-1.8-.19-2.7-.28-.9-.1-1.79-.15-2.68-.34-1.78-.32-3.51-.74-5.19-1.3-1.68-.56-3.31-1.25-4.8-2.18-.75-.46-1.45-.99-2.07-1.62-.31-.31-.59-.66-.82-1.06-.23-.39-.38-.91-.28-1.4.1-.51.48-.93.88-1.15.4-.24.83-.37,1.25-.47.85-.19,1.69-.23,2.52-.27.81-.04,1.68-.01,2.38-.16.05,0,.06-.02.1-.03.02,0,0,0,.01,0,0-.01.02.02.05.04.01.01.01.02.02.03,0,0,.02.01.04.02.04.01-.26-.06-.13-.04h0s0-.07,0-.07c0-.04,0-.07,0-.1,0-.11-.08-.22-.21-.32-.25-.21-.65-.35-1.01-.53-1.46-.69-2.87-1.45-4.17-2.35-.65-.45-1.27-.95-1.82-1.51-.55-.56-1.05-1.24-1.18-2.1-.16-.88.46-1.7,1.11-2.11.66-.44,1.39-.68,2.11-.87.72-.19,1.44-.31,2.15-.41l1.05-.15c.35-.04.57-.17.52-.33-.01-.1-.09-.23-.18-.34-.09-.11-.21-.18-.36-.29l-.85-.59c-.56-.39-1.12-.78-1.67-1.16-1.1-.76-2.18-1.51-3.23-2.24-1.03-.74-2.16-1.37-3-2.33-.42-.47-.77-1.02-.91-1.65-.12-.64-.02-1.3.39-1.83.44-.52,1.1-.64,1.66-.7.57-.05,1.13-.03,1.67-.01.52,0,1.11.08,1.44-.15.34-.23.32-.8.21-1.22l.02.04c-1.48-2.54-2.59-4.91-3.53-6.99-.93-2.08-1.73-3.88-2.03-5.45-.33-1.56-.12-2.87.38-3.55.23-.35.49-.55.68-.65.18-.1.29-.13.29-.12Z"/>
              <path class="st0" d="M566.71,210.85s.02.04.06.11c.04.08.09.19.15.33.14.3.33.74.57,1.29.5,1.13,1.21,2.76,2.09,4.76,1.78,4.02,4.24,9.55,6.95,15.66,2.73,6.11,5.17,11.66,6.91,15.69.86,2.01,1.55,3.64,2.04,4.78.23.56.41,1,.54,1.3.06.14.1.26.14.34.03.08.04.12.04.12,0,0-.02-.04-.06-.11-.04-.08-.09-.19-.15-.33-.14-.3-.33-.74-.57-1.29-.5-1.13-1.21-2.76-2.09-4.76-1.76-4.02-4.23-9.55-6.95-15.67-2.73-6.11-5.17-11.66-6.91-15.69-.86-2.01-1.55-3.64-2.04-4.78-.23-.56-.41-1-.54-1.3-.06-.14-.1-.26-.14-.34-.03-.08-.04-.12-.04-.12Z"/>
              <path class="st0" d="M577.15,221s-.11.46-.32,1.18c-.22.77-.51,1.75-.82,2.84-.32,1.11-.61,2.11-.85,2.83-.12.36-.22.65-.3.85-.08.2-.13.3-.14.3-.02,0,.11-.46.32-1.18.22-.77.49-1.76.8-2.85.32-1.11.63-2.11.87-2.83.12-.36.22-.65.3-.85.08-.2.12-.31.14-.3Z"/>
              <path class="st0" d="M574.3,229.06s-2.07-.61-4.6-1.47c-2.52-.86-4.56-1.59-4.54-1.63.02-.05,2.07.61,4.6,1.47,2.52.86,4.56,1.59,4.54,1.63Z"/>
              <path class="st0" d="M579.62,239.62s-.12.02-.34.03c-.22,0-.53.01-.92.01-.77,0-1.84-.04-3.02-.14-1.18-.1-2.24-.24-3-.37-.38-.06-.69-.12-.9-.16-.21-.04-.33-.08-.33-.09,0-.03.48.03,1.25.13.77.09,1.83.22,3,.32,1.17.1,2.24.16,3.01.19.77.04,1.25.06,1.25.08Z"/>
              <path class="st0" d="M583.8,232.89s-.2.4-.57,1.01c-.37.61-.89,1.45-1.48,2.36-.59.92-1.13,1.74-1.53,2.34s-.65.95-.68.94.2-.4.57-1.01c.37-.61.89-1.45,1.48-2.37.59-.92,1.13-1.74,1.53-2.34.4-.59.65-.95.68-.94Z"/>
              <path class="st0" d="M589.68,241.62s-.06.13-.19.35c-.15.25-.34.56-.57.92-.49.78-1.17,1.84-1.93,3.01-.76,1.17-1.46,2.22-1.98,2.98-.24.35-.45.65-.62.89-.15.21-.24.32-.25.31-.01,0,.06-.13.19-.35.15-.25.34-.56.57-.92.49-.78,1.17-1.84,1.93-3.01.76-1.17,1.46-2.22,1.98-2.98.24-.35.45-.65.62-.89.15-.21.24-.32.25-.31Z"/>
              <path class="st0" d="M584.22,249.85s-.15.02-.43.01c-.27,0-.67-.02-1.16-.04-.98-.05-2.33-.15-3.82-.32-1.49-.17-2.83-.37-3.8-.54-.48-.08-.87-.16-1.14-.22-.27-.06-.42-.09-.41-.11,0-.01.15,0,.43.04.31.04.69.1,1.15.16.97.14,2.31.32,3.8.49,1.49.17,2.83.28,3.81.37.46.04.85.07,1.16.1.27.03.42.04.42.06Z"/>
            </g>
            <g>
              <path class="st3" d="M629.36,252.14c.6-.53,1.19-1.06,1.78-1.58,1.18-1.05,2.35-2.08,3.51-3.11,1.97-1.75,3.9-3.45,5.79-5.13v-.59c-1.99,1.76-4.02,3.55-6.1,5.38-1.16,1.02-2.33,2.06-3.52,3.1-.59.52-1.19,1.05-1.79,1.58-.6.48-1.28,1.19-1.33,2.14-.04.49.33,1,.76,1.18.42.2.88.23,1.28.24.82.02,1.64.03,2.46.05,1.64.04,3.29.13,4.94.35,1.11.16,2.22.38,3.29.72v-.52c-1.06-.33-2.15-.54-3.22-.69-1.68-.23-3.35-.31-5-.35-.82-.02-1.64-.03-2.45-.05-.77.01-1.63-.24-1.58-.93,0-.33.17-.68.37-.99.2-.31.49-.54.8-.82Z"/>
              <path class="st3" d="M583.28,267.48c.03-.4.06-.81.13-1.2.16-.92.58-1.78,1.29-2.33.7-.54,1.64-.69,2.54-.51.91.16,1.78.53,2.62.96,1.6.85,3.05,1.95,4.48,3.07h.88c-.12-.09-.24-.19-.35-.28-1.49-1.18-3.02-2.36-4.74-3.28-.86-.45-1.78-.84-2.78-1.02-.98-.2-2.13-.05-2.97.61-.84.65-1.32,1.67-1.49,2.66-.08.44-.12.87-.15,1.31h.56Z"/>
              <path class="st3" d="M635.56,223.91v.02c-.1.6-.1,1.2.03,1.81.14.59.45,1.23,1.05,1.54.58.32,1.26.31,1.87.27.62-.05,1.23-.14,1.84-.23.03,0,.06,0,.09-.01v-.38s-.1.01-.15.02c-.61.09-1.22.18-1.82.24-.6.05-1.19.05-1.66-.22-.97-.55-1.07-1.92-.92-2.96,1.83-4.23,3.29-8.24,4.54-11.95v-.91c-1.33,3.93-2.89,8.22-4.87,12.73v.02Z"/>
              <path class="st3" d="M628.15,202.83c-1.45,5.04-3.06,10.84-4.27,17.46-.46.95-1.29,2.03-2.41,1.95-.54-.05-1.03-.38-1.5-.75-.47-.38-.92-.79-1.38-1.21-.91-.84-1.84-1.7-2.91-2.46-.54-.36-1.1-.72-1.74-.95-.62-.23-1.33-.4-2.03-.25-1.39.29-2.53,1.26-3.23,2.48-.67,1.25-.88,2.7-.84,4.12.04,2.87,1.05,5.63,1.74,8.48.75,2.85,1.51,5.78,2.29,8.77.39,1.5.79,3.01,1.19,4.54.2.76.4,1.53.6,2.3.1.4.21.76.21,1.12,0,.36-.06.75-.25,1.02-.35.6-1.2.33-1.84-.12-.68-.44-1.37-.88-2.06-1.32-1.39-.89-2.83-1.75-4.35-2.49-1.52-.73-3.13-1.39-4.87-1.62-.87-.11-1.79-.08-2.65.22-.87.29-1.64.89-2.13,1.67-1.01,1.57-1.13,3.46-1.03,5.23.1,1.79.46,3.56.9,5.31.92,3.49,2.23,6.91,3.74,10.3.12.29.26.58.39.87h.59c-.17-.37-.35-.72-.5-1.09-1.5-3.36-2.81-6.76-3.72-10.21-.45-1.72-.79-3.46-.89-5.2-.1-1.72.04-3.52.94-4.92.88-1.45,2.68-1.91,4.3-1.67,1.65.21,3.23.85,4.72,1.57,1.5.73,2.92,1.58,4.3,2.46.69.44,1.39.89,2.07,1.33.35.21.74.44,1.2.51.45.09,1.05-.11,1.29-.55.5-.82.33-1.79.1-2.52-.2-.77-.41-1.54-.61-2.31-.4-1.53-.8-3.04-1.2-4.54-.79-2.99-1.56-5.92-2.32-8.77-.7-2.86-1.71-5.59-1.75-8.37-.04-1.37.16-2.75.78-3.91.62-1.13,1.73-2.05,2.94-2.29,1.24-.22,2.46.44,3.48,1.13,1.03.73,1.96,1.58,2.87,2.42.46.42.92.83,1.4,1.22.48.37,1.03.76,1.7.82.67.08,1.29-.29,1.73-.7.44-.44.77-.94,1.03-1.49v-.02s.01-.03.01-.03c1.18-6.6,2.77-12.43,4.19-17.47.82-2.84,1.58-5.44,2.4-7.75h-.24c-.83,2.3-1.59,4.87-2.42,7.68Z"/>
              <path class="st3" d="M616.47,267.48c1.51-5,3.11-10.31,4.76-15.82,1-3.33,1.98-6.58,2.93-9.74.11-.04.31-.14.6-.29.43-.23,1.04-.58,1.79-1.03,1.49-.9,3.52-2.21,5.74-3.67,2.18-1.42,4.14-2.71,5.69-3.72,1.46-.95,2.36-1.54,2.33-1.59-.01-.02-.26.09-.69.32-.43.23-1.04.58-1.8,1.02-1.5.89-3.54,2.17-5.76,3.63-2.17,1.44-4.13,2.74-5.67,3.77-1.13.75-1.92,1.26-2.21,1.48,3.25-10.8,6.16-20.46,8.41-27.94,1.47-4.81,2.66-8.71,3.49-11.43.4-1.33.72-2.38.94-3.11.1-.34.18-.61.23-.81.05-.18.07-.28.07-.28,0,0-.04.09-.11.27-.07.2-.16.46-.27.8-.24.73-.58,1.77-1.01,3.09-.86,2.71-2.09,6.6-3.61,11.4-3.02,9.63-7.07,22.98-11.48,37.74-1.63,5.46-3.21,10.74-4.7,15.7-.36-.35-.87-.83-1.51-1.44-1.29-1.22-3.07-2.92-4.96-4.85-1.9-1.93-3.56-3.74-4.76-5.05-1.2-1.31-1.94-2.13-1.98-2.09-.02.02.14.25.44.64.3.4.75.96,1.33,1.64,1.14,1.37,2.78,3.21,4.69,5.15,1.9,1.94,3.72,3.61,5.06,4.78.67.58,1.22,1.05,1.62,1.36.02.01.03.02.04.03,0,.02-.01.05-.02.07h.41Z"/>
              <path class="st3" d="M623.24,241.42c.1-.06-2.35-4.38-5.47-9.66-3.12-5.28-5.73-9.51-5.82-9.46-.1.06,2.35,4.38,5.47,9.66,3.12,5.28,5.73,9.51,5.82,9.45Z"/>
              <path class="st3" d="M631.49,262.99c-1.58.44-3.77,1.07-6.17,1.79-2.4.72-4.57,1.4-6.13,1.9-1.15.37-1.97.66-2.32.8h.4c.45-.11,1.13-.29,2.01-.53,1.58-.44,3.77-1.07,6.17-1.79,2.4-.72,4.57-1.4,6.13-1.9,1.56-.51,2.52-.85,2.51-.9-.02-.05-1,.19-2.59.63Z"/>
            </g>
          </g>
        </g>
      </g>
    </g>
  </g>
  <g>
    <path class="st15" d="M185.24,251.29s2.9-3.69,6.57-4.83c9.63-2.98,11.73-9.96,11.73-9.96,3.18-.81,4.62,3.64,2.12,8.68-5.17,10.46-14.04,20.2-14.4,20.53-.48.44-7.51-.89-7.51-.89l-1.63-13.42,3.11-.12Z"/>
    <path class="st8" d="M183.27,247.41l-30.08,26.6-29.03-23.43-2.19,30.78,18.01,14.42c7.45,2.9,15.56,4.34,21.48-1.04l33.32-33.77-11.5-13.56Z"/>
    <g>
      <path class="st3" d="M138.65,183.23c.89,1.34,2.31,2.6,3.92,2.53.48-.02,1.73-.39,1.73-.39.54.37.29,2.28-.13,2.78-.42.5-1.28,1.17-1.28,1.17,1.81,1.12,3.55.73,5.6.13-.56,3.38-3.07,6.37-6.31,7.5-1.03.36-2.27.52-3.15-.13-.78-.57-1.05-1.6-1.23-2.54-.69-3.48-.94-7.04-.75-10.58l1.6-.46Z"/>
      <g>
        <g>
          <path class="st15" d="M96.86,198.24l-2.8,45.32c-.48,7.71.4,19.12,12.62,19.32h0c10.61-.63,13.91-10.49,14.34-17.68.21-3.41.39-6.26.43-6.6,0,0,11.6-.37,13.14-11.74.74-5.49,1.35-16.93,1.78-27.28.46-11.12-7.71-20.73-18.75-22.08l-1.1-.13c-11.93-.76-19.24,8.94-19.67,20.89Z"/>
          <path class="st13" d="M121.47,238.58s-7.23-.46-14.28-6.2c0,0,2.6,8.76,14.08,9.13l.2-2.93Z"/>
          <path class="st3" d="M116.3,202.58c-.24.22-1.5-.91-3.41-1.05-1.91-.17-3.38.72-3.57.47-.09-.11.16-.52.81-.93.64-.41,1.69-.77,2.88-.67,1.19.1,2.15.63,2.69,1.13.55.51.72.95.6,1.05Z"/>
          <path class="st3" d="M116.38,208.18c-.07.82-.82,1.43-1.67,1.37-.85-.06-1.49-.77-1.41-1.58.07-.82.82-1.43,1.67-1.37.85.06,1.49.77,1.42,1.58Z"/>
          <path class="st3" d="M120.43,216.11c0-.1,1.11-.15,2.9-.16.45,0,.89-.03,1-.32.14-.31.02-.81-.14-1.36-.29-1.13-.59-2.32-.9-3.56-1.24-5.07-2.08-9.21-1.88-9.26.2-.05,1.38,4.02,2.62,9.09.3,1.25.58,2.44.85,3.58.11.53.33,1.14.02,1.78-.16.32-.52.52-.81.56-.3.05-.55.03-.77.01-1.78-.12-2.89-.25-2.88-.35Z"/>
          <path class="st3" d="M117.05,196.57c-.25.39-1.71-.15-3.54-.33-1.83-.22-3.38,0-3.53-.44-.06-.21.28-.55.95-.83.67-.28,1.67-.47,2.77-.35,1.1.12,2.03.52,2.62.93.59.42.85.83.74,1.02Z"/>
          <path class="st3" d="M134.21,199.38c-.22.34-1.69-.12-3.5-.27-1.8-.18-3.32.01-3.49-.36-.08-.18.24-.47.88-.72.64-.24,1.61-.41,2.7-.31,1.08.1,2.03.43,2.63.79.61.36.88.7.78.86Z"/>
          <path class="st15" d="M96.42,206.07c-.18-.11-7.54-3.27-8.24,4.54-.71,7.81,7.28,6.91,7.32,6.69.03-.22.93-11.23.93-11.23Z"/>
          <path class="st13" d="M93.37,214.13s-.14.08-.38.17c-.23.08-.63.12-1.02-.07-.8-.38-1.37-1.75-1.29-3.16.04-.71.25-1.38.56-1.91.29-.55.7-.92,1.12-.95.42-.06.69.22.77.45.09.23.02.38.06.4.02.02.18-.12.15-.44-.02-.16-.09-.35-.26-.52-.17-.17-.44-.27-.73-.27-.61-.01-1.2.49-1.53,1.08-.37.59-.62,1.33-.67,2.14-.09,1.58.58,3.12,1.68,3.55.54.19,1.01.07,1.26-.09.26-.17.32-.34.29-.36Z"/>
          <path class="st3" d="M86.63,192.89c1.77-2.68,2.31-5.96,3.35-8.99,1.04-3.04,2.92-6.14,5.99-7.07l.07.03c2.77-.96,6.11-.81,8.25,1.18.75-4.04,4.48-7.09,8.5-7.93,4.02-.85,10.36.09,14.1,1.81,2.89,1.33,5.61,3.9,8.9,7.64,1.38,1.57,2.65,3.26,3.76,5.04l2.93,10.83-3.23,5.45c-.2.37-.4.74-.64,1.11v-.03s-2.89,11.37-2.89,11.37c-.01-3.22.41-14.1.4-17.33-4.95-.46-9.34-2.68-12.48-6.53-1.66-2.03-2.92-4.53-5.21-5.81-2.95-1.65-6.62-.73-9.86.22l.14-.12c-1.7.69-3.26,1.7-4.58,2.97.41,6.36-.57,12.81-2.86,18.76-.34.9-1.25,2.73-2.17,3.04-1.79.59-2.18-1.22-3.19-2.22-.74-.74-1.9-.89-3.16-.94-.65-1.99-1.25-5.32-1.75-8.23-1.08.27-2.21.3-3.3.06.38-.79.75-1.58,1.13-2.37-.45.26-.92.52-1.44.57-.52.05-1.1-.17-1.31-.65-.27-.62.17-1.29.54-1.85Z"/>
          <path class="st11" d="M107.82,179.53s-.49.28-1.2.99c-.7.71-1.5,1.96-1.94,3.7-.22.86-.38,1.84-.43,2.89-.06,1.05-.03,2.18,0,3.37.02,1.19.04,2.45-.1,3.75-.07.65-.18,1.31-.35,1.96-.18.64-.38,1.34-.9,1.88-.41.44-1.08.61-1.64.46-.57-.13-1.06-.46-1.41-.89-.69-.89-.82-1.99-.96-2.96l.24.04c-.43.84-.88,1.67-1.51,2.32-.62.65-1.45,1.07-2.28,1.1-.41.02-.82-.07-1.17-.26-.35-.19-.6-.5-.76-.83-.15-.33-.23-.69-.19-1.02.04-.34.18-.65.41-.87l.12.11c-.93.96-1.89,1.45-2.54,1.72-.33.13-.6.21-.77.26-.18.04-.27.06-.28.05,0,0,.09-.04.26-.1.17-.06.43-.15.75-.3.64-.29,1.57-.8,2.46-1.75l.12.11c-.4.39-.46,1.1-.16,1.69.15.29.38.57.69.73.31.17.68.25,1.06.23.76-.04,1.54-.42,2.12-1.05.59-.62,1.02-1.43,1.45-2.27l.18-.36.06.4c.14.97.28,2.02.91,2.83.31.39.77.68,1.26.8.5.12,1.03-.02,1.39-.39.45-.46.66-1.12.83-1.76.17-.64.28-1.28.35-1.92.14-1.28.12-2.53.11-3.72-.02-1.19-.04-2.32.03-3.39.06-1.06.24-2.05.47-2.92.47-1.76,1.32-3.03,2.05-3.73.74-.7,1.27-.92,1.27-.92Z"/>
          <path class="st11" d="M142.59,192.37s-.03.03-.1.07c-.08.05-.18.12-.3.19-.13.09-.29.19-.5.29-.2.1-.43.23-.71.33-1.09.45-2.81.87-4.93.64-2.1-.22-4.59-1.09-6.77-2.88-2.2-1.75-4.08-4.27-5.58-7.11-.76-1.42-1.37-2.87-2.05-4.22-.68-1.35-1.44-2.6-2.38-3.6-.93-1.01-2.04-1.78-3.19-2.16-.58-.2-1.16-.27-1.73-.29-.56,0-1.1.09-1.6.23-1,.28-1.82.79-2.45,1.32-.63.53-1.07,1.11-1.37,1.61-.57,1.02-.63,1.7-.67,1.68,0,0,0-.04.02-.12.02-.09.04-.21.07-.35.07-.3.22-.74.5-1.27.29-.51.73-1.11,1.36-1.67.64-.55,1.47-1.08,2.5-1.38.51-.15,1.07-.24,1.66-.25.58,0,1.2.08,1.8.28,1.2.39,2.34,1.17,3.3,2.2.97,1.02,1.75,2.3,2.43,3.65.69,1.36,1.3,2.8,2.05,4.21,1.49,2.83,3.34,5.31,5.5,7.05,2.13,1.77,4.57,2.64,6.63,2.89,2.08.25,3.79-.13,4.87-.55,1.09-.42,1.62-.82,1.64-.79Z"/>
          <path class="st3" d="M133.7,204.15c-.24.22-1.5-.91-3.41-1.05-1.91-.17-3.38.72-3.57.47-.09-.11.16-.52.81-.93.64-.41,1.69-.77,2.88-.67,1.19.1,2.15.63,2.69,1.13.55.51.72.95.6,1.05Z"/>
          <path class="st3" d="M131.91,209.7c-.07.82-.82,1.43-1.67,1.37-.85-.06-1.49-.77-1.41-1.58.07-.82.82-1.43,1.67-1.37.85.06,1.49.77,1.42,1.58Z"/>
        </g>
        <path class="st3" d="M120.32,222.52c0,.07-.45.2-1.2.1-.74-.09-1.77-.47-2.61-1.29-.83-.83-1.21-1.87-1.3-2.6-.1-.75.03-1.2.1-1.2.09,0,.1.45.28,1.12.18.66.57,1.56,1.31,2.29.73.73,1.63,1.12,2.29,1.3.67.18,1.12.2,1.12.28Z"/>
      </g>
    </g>
    <g>
      <g>
        <g>
          <path class="st11" d="M239.9,222.75l16.89-14.89,1.83,2.21s-2.6,15.35-10.51,21.61l-8.21-8.93Z"/>
          <path class="st11" d="M196.21,282.55s21.42-34.08,22.98-35.49c1.55-1.41,14.58-6.91,17.99-7.94s12.36-5.91,12.36-5.91l-20.87-22.69,18.27-13.86-2.62-3.19s-20.63-2.97-28.97,3.84c-8.34,6.82-7.55,21.2-8.23,25.12-.68,3.92-.32,16.78-15.2,38.33l-8.65,13.08,12.94,8.68Z"/>
          <path class="st3" d="M210.89,225.73s.09.1.25.25c.19.18.42.4.71.69.65.62,1.55,1.48,2.69,2.58,2.34,2.23,5.66,5.4,9.74,9.3l.08-.35c-1.15.39-2.32.85-3.5,1.42-1.16.6-2.41,1.21-3.38,2.32-1.73,2.23-3.3,4.71-5,7.3-3.37,5.18-6.96,10.89-10.69,16.88-.49.84-.98,1.55-1.77,2-.75.44-1.65.64-2.51.53-1.74-.18-3.21-1.61-3.47-3.28-.15-.83-.02-1.69.34-2.43.4-.72.9-1.48,1.34-2.21.91-1.47,1.79-2.91,2.66-4.31,3.45-5.61,6.56-10.66,9.18-14.92.69-1.06,1.06-2.25,1.36-3.32.3-1.09.52-2.13.71-3.1.38-1.95.62-3.64.81-5.02.18-1.38.3-2.46.37-3.19.03-.34.05-.61.07-.83.02-.19,0-.27,0-.29,0-.02-.03.1-.06.28-.03.22-.07.49-.12.83-.12.77-.28,1.83-.48,3.17-.22,1.38-.5,3.06-.9,4.99-.21.97-.44,2-.74,3.07-.32,1.07-.67,2.18-1.36,3.21-2.65,4.24-5.8,9.27-9.28,14.86-.87,1.4-1.76,2.83-2.68,4.3-.45.75-.92,1.44-1.38,2.26-.41.84-.56,1.82-.39,2.76.29,1.9,1.95,3.54,3.94,3.74.98.13,2-.1,2.86-.61.88-.48,1.5-1.39,1.96-2.18,3.73-5.98,7.31-11.7,10.65-16.89,1.69-2.58,3.27-5.1,4.93-7.27.86-1.01,2.09-1.64,3.21-2.23,1.15-.57,2.31-1.04,3.43-1.43l.33-.12-.26-.24c-4.21-3.87-7.64-7.01-10.05-9.22-1.15-1.05-2.05-1.87-2.7-2.46-.28-.26-.51-.46-.69-.63-.16-.14-.23-.2-.23-.19Z"/>
          <path class="st11" d="M160.35,326.26h0c4.62,3.07,10.86,1.65,13.71-3.1l27.24-48.67-12.34-9.23-31.45,47.73c-2.81,4.46-1.55,10.36,2.84,13.28Z"/>
        </g>
        <g>
          <polygon class="st3" points="220.32 219.75 228.75 229.61 235.45 226.84 226.52 217.19 220.32 219.75"/>
          <path class="st3" d="M234.81,224.12c-.12-.29-2.42.4-5.15,1.52-2.72,1.13-4.84,2.27-4.72,2.56.12.29,2.42-.4,5.15-1.52,2.72-1.13,4.84-2.27,4.72-2.56Z"/>
          <path class="st3" d="M232.01,221.02c-.12-.29-2.42.4-5.15,1.52-2.72,1.13-4.84,2.27-4.72,2.56s2.42-.4,5.15-1.52c2.72-1.13,4.84-2.27,4.72-2.56Z"/>
          <path class="st3" d="M229.77,217.88c-.12-.29-2.42.4-5.15,1.52-2.72,1.13-4.84,2.27-4.72,2.56.12.29,2.42-.4,5.15-1.52,2.72-1.13,4.84-2.27,4.72-2.56Z"/>
        </g>
      </g>
      <path class="st3" d="M239.26,221.51c-.12.09,1.61,2.54,4.12,5.25,2.5,2.71,4.7,4.73,4.8,4.63.12-.11-1.9-2.31-4.39-5.01-2.49-2.69-4.41-4.97-4.53-4.87Z"/>
    </g>
    <g>
      <path class="st8" d="M65.41,262.2s.7-11.57,11.06-17.67c1.51-.89,14.01-6.35,14.01-6.35l3.72-5.32,22.81,14.55,2.88,2.63,2.34-5.64,2.78,4.22-1.17-.19.33,2.15,1.42,9.35,1,26.79c-.01-.28.43,9.41.15,13.89-1.03,16.89-3.91,59.92-4.93,62.95-1.26,3.76-4.82,3.87-4.82,3.87l-59.64-16.79c-3.37-.29-6.44-9.44-1.4-12.39l9.47-76.05Z"/>
      <g>
        <g class="st4">
          <path d="M70.18,270.35s24.84,46.31,33.34,50.88c8.5,4.56,22.22,1.66,22.22,1.66v-3.75l-55.56-48.78Z"/>
        </g>
        <g>
          <path class="st8" d="M87.83,250.39c3.44,1.55,35.31,43.43,35.31,43.43l45.11-.37,2.93,21.11s-47.3,6.84-58.33,4.43c-11.03-2.41-43.29-49.29-45.26-52.46-3.13-5.03-.46-13,4.38-17.22"/>
          <path class="st3" d="M71.98,249.31s-.16.18-.49.5c-.34.31-.8.82-1.36,1.52-1.09,1.4-2.61,3.67-3.39,6.99-.36,1.64-.57,3.58-.07,5.58.4,2.05,1.92,3.8,3.25,5.82,2.77,3.99,5.98,8.48,9.61,13.39,3.64,4.9,7.69,10.23,12.24,15.78,2.28,2.77,4.68,5.61,7.25,8.43,2.58,2.81,5.3,5.67,8.41,8.22,1.56,1.24,3.22,2.5,5.13,3.1l.36.12.38.05.76.11c.51.06,1.01.16,1.53.19,1.04.05,2.08.09,3.13.14,4.22.05,8.53-.21,12.9-.5,8.76-.65,17.81-1.64,27.05-2.79,4.21-.53,8.37-1.08,12.47-1.66l-.22.29c-1-7.23-1.98-14.28-2.93-21.11l.25.22c-16.55.12-31.8.23-45.11.33h-.11s-.06-.08-.06-.08c-10.31-13.54-18.93-24.58-25.07-32.16-3.07-3.79-5.52-6.71-7.25-8.64-.86-.97-1.55-1.68-2.04-2.13-.48-.46-.8-.61-.78-.63,0,0,.33.13.83.58.51.44,1.21,1.14,2.09,2.09,1.77,1.9,4.25,4.8,7.34,8.57,6.19,7.54,14.86,18.54,25.22,32.06l-.17-.08c13.31-.12,28.57-.26,45.11-.41h.22s.03.22.03.22c.95,6.83,1.93,13.88,2.94,21.11l.04.26-.26.04c-4.1.58-8.27,1.13-12.48,1.66-9.25,1.15-18.31,2.13-27.08,2.78-4.39.29-8.71.54-12.95.48-1.06-.05-2.12-.1-3.17-.14-.52-.03-1.05-.14-1.57-.2l-.78-.11-.39-.06-.38-.12c-2.05-.66-3.71-1.95-5.3-3.2-3.14-2.58-5.86-5.45-8.45-8.28-2.57-2.84-4.97-5.68-7.24-8.47-4.54-5.57-8.58-10.92-12.2-15.84-3.62-4.92-6.81-9.44-9.56-13.44-.68-1-1.34-1.97-1.96-2.92-.61-.96-1.09-1.98-1.29-3.01-.5-2.06-.27-4.02.12-5.68.82-3.36,2.38-5.62,3.51-7.01.58-.69,1.06-1.19,1.41-1.49.34-.31.52-.46.52-.46Z"/>
        </g>
        <g>
          <path class="st8" d="M90.47,238.19c.22.51,21.07,14.52,21.07,14.52l5.03-4.83,2.68,2.15"/>
          <path class="st3" d="M119.24,250.03s-.28-.15-.75-.5c-.54-.41-1.21-.92-2.02-1.53h.2c-1.31,1.28-3.01,2.95-4.97,4.88l-.14.13-.16-.11c-1.91-1.28-4.05-2.72-6.31-4.23-4.12-2.79-7.82-5.35-10.47-7.24-2.65-1.89-4.25-3.14-4.16-3.25,2.19,1.47,7.35,4.96,14.92,10.06,2.25,1.53,4.38,2.97,6.28,4.27l-.29.03c2-1.88,3.74-3.51,5.08-4.76l.1-.09.1.09c.77.66,1.41,1.2,1.93,1.64.44.39.67.61.65.63Z"/>
        </g>
        <path class="st3" d="M124.66,253.86s.12.55.25,1.55c.13,1,.3,2.46.48,4.26.37,3.6.8,8.58,1.11,14.1.31,5.52.44,10.52.45,14.14,0,1.81,0,3.27-.04,4.29-.03,1.01-.06,1.57-.1,1.57-.04,0-.07-.56-.11-1.57-.03-1.1-.08-2.54-.13-4.28-.11-3.61-.29-8.61-.6-14.12-.31-5.51-.68-10.49-.96-14.1-.13-1.73-.23-3.17-.32-4.27-.07-1.01-.09-1.57-.05-1.57Z"/>
        <g>
          <path class="st8" d="M59.79,338.26c14.02-1.03,27.94-3.48,41.46-7.32"/>
          <path class="st3" d="M101.25,330.94s-.55.23-1.57.54c-1.02.32-2.51.74-4.35,1.23-3.69.98-8.83,2.18-14.58,3.2-5.74,1.01-10.99,1.65-14.79,1.99-1.9.17-3.44.28-4.51.33-1.07.05-1.66.07-1.66.03,0-.04.58-.12,1.64-.23,1.15-.13,2.66-.29,4.49-.5,3.79-.43,9.01-1.12,14.74-2.13,5.73-1.01,10.87-2.15,14.58-3.04,1.79-.44,3.26-.8,4.39-1.07,1.04-.25,1.61-.38,1.62-.34Z"/>
        </g>
      </g>
      <g>
        <g>
          <path class="st11" d="M118.52,426.39l-28.48-9.74s-19.46,25.67-24.9,24.39l16.9-55.89,44.99,13.36-8.52,27.89Z"/>
          <path class="st10" d="M97.69,400.1c.03-1.17-.96-2.29-2.13-2.37-1.17-.08-2.31.92-2.36,2.09-.05,1.17,1.1,2.55,2.27,2.49,1.17-.05,2.45-1.3,2.22-2.44"/>
          <path class="st10" d="M80.87,384.75l4.36,1.29-16.6,53.65s-1.84,2.16-3.5,1.35l15.74-56.29Z"/>
          <path class="st3" d="M90.05,417.65c-.27-.09.02-1.49-.45-3.1-.43-1.62-1.4-2.67-1.22-2.89.13-.24,1.64.66,2.17,2.62.55,1.95-.27,3.5-.5,3.37Z"/>
          <path class="st3" d="M85.85,422.78c-.28-.02-.39-1.34-1.26-2.62-.84-1.3-2.01-1.91-1.92-2.18.03-.27,1.69.02,2.75,1.63,1.07,1.6.7,3.24.44,3.16Z"/>
          <path class="st3" d="M77.83,423.98c.02-.27,1.5-.23,2.78.92,1.29,1.14,1.49,2.61,1.23,2.66-.27.09-.82-.99-1.89-1.92-1.05-.95-2.17-1.38-2.12-1.66Z"/>
          <path class="st3" d="M96.79,419.15c-.21-.19.54-1.33.9-2.9.39-1.57.24-2.92.52-3,.25-.1.9,1.38.45,3.23-.44,1.85-1.69,2.87-1.87,2.67Z"/>
        </g>
        <path class="st3" d="M121.98,350.46c1.1-.3,49.32,51.43,50.42,59.98,1.1,8.55-.66,16-6.36,20.83-5.7,4.82-70.59-10.96-70.59-10.96l6.14-27.18-23.46-7.89,20.96-38.36,22.88,3.59Z"/>
        <g class="st4">
          <path d="M133.39,361.93l1.54,1.66s-27.64,29-36.12,28.6l-13.57-4.6,45.92-28.18,2.23,2.52Z"/>
        </g>
        <path class="st11" d="M101.43,393.83c-.04.14,10.03,3.22,22.49,6.88,12.46,3.66,22.6,6.52,22.64,6.38.04-.14-10.03-3.22-22.49-6.88-12.46-3.66-22.59-6.52-22.63-6.38Z"/>
        <g>
          <path class="st11" d="M155.71,403.28l-8.48,26.91s24.5,17.66,23.42,22.78l-52.76-14.57,11.5-42.47,26.33,7.35Z"/>
          <path class="st10" d="M131.55,423.39c-1.1,0-2.12.95-2.17,2.05-.05,1.1.91,2.15,2.01,2.17,1.1.02,2.36-1.08,2.29-2.18-.08-1.1-1.27-2.26-2.34-2.02"/>
          <path class="st10" d="M117.54,439.49l1.11-4.12,50.65,14.34s2.07,1.67,1.34,3.25l-53.11-13.47Z"/>
          <path class="st3" d="M148.16,430.15c-.08.26-1.4.02-2.9.49-1.51.44-2.47,1.37-2.68,1.21-.22-.12.59-1.55,2.41-2.1,1.82-.56,3.29.17,3.17.4Z"/>
          <path class="st3" d="M153.06,433.97c0,.27-1.25.4-2.42,1.24-1.2.81-1.75,1.93-2,1.85-.25-.03-.02-1.58,1.47-2.61,1.47-1.04,3.02-.73,2.96-.48Z"/>
          <path class="st3" d="M154.38,441.46c-.25,0-.25-1.4.8-2.62,1.04-1.24,2.41-1.46,2.46-1.21.09.25-.9.79-1.75,1.81-.87,1-1.24,2.07-1.51,2.02Z"/>
          <path class="st3" d="M149.41,423.8c-.17.21-1.26-.48-2.74-.78-1.48-.33-2.75-.16-2.82-.42-.1-.23,1.27-.88,3.01-.49,1.74.37,2.73,1.52,2.54,1.69Z"/>
        </g>
        <g class="st4">
          <polygon points="119.44 425.72 123.03 411.62 120.35 410.37 136.66 365.97 139.78 368.68 126.96 409.35 122.37 426.33 119.44 425.72"/>
        </g>
        <g>
          <path class="st3" d="M57.34,350.64s96.42-33.59,98.18-34.25c.48-.18,1.37-.39,2.42-.61,6.4-1.32,13.13.01,18.35,3.93,4.38,3.29,8.03,8.56,6.85,16.84-2.63,18.41-26.16,81.27-26.16,81.27l-32.56-9.79c-.19-.06-.37-.59-.27-.43.27.43,16.52-51.94,16.11-51.32-.44.66-32.86,26.82-46.34,31.63-13.84,4.95-27.54-.97-34.13-10.19-3.16-4.42-5.83-16.85-2.45-27.1Z"/>
          <path class="st11" d="M57.34,350.64s-.12.34-.32,1.02c-.23.68-.47,1.72-.75,3.08-.49,2.73-.9,6.89-.17,12.16.39,2.62.98,5.55,2.28,8.52.33.74.71,1.48,1.18,2.19.49.69,1.03,1.37,1.58,2.05,1.18,1.31,2.45,2.63,3.97,3.77,2.96,2.37,6.63,4.26,10.78,5.4,2.08.54,4.27.95,6.54,1.01,2.27.14,4.61-.07,6.96-.5.58-.13,1.17-.25,1.76-.38.59-.14,1.16-.35,1.75-.52,1.19-.31,2.3-.86,3.47-1.33,1.14-.51,2.25-1.12,3.39-1.68,1.11-.63,2.23-1.26,3.36-1.9,4.47-2.66,8.97-5.68,13.56-8.9,4.58-3.23,9.25-6.68,13.98-10.33,2.37-1.82,4.76-3.7,7.15-5.63.59-.49,1.19-.98,1.79-1.48.15-.13.29-.24.45-.39l.24-.22.12-.11c-.18-.04.49.01-.39-.11-.02-.18,0-.04-.02-.05-.09.35-.2.74-.31,1.11-.45,1.49-.9,2.99-1.35,4.51-3.69,12.08-7.64,24.76-11.84,37.89-.53,1.64-1.07,3.28-1.61,4.94-.28.82-.55,1.65-.85,2.46-.02.07-.11.25-.08.21.85.35.27-.52-.11.23.02.07.03.09.04.13.03.06.05.12.09.18.06.1.15.28.39.35l.31.09,1.26.38c3.36,1.01,6.75,2.03,10.16,3.06,6.83,2.05,13.77,4.14,20.79,6.25l.25.07.09-.24c1.07-2.92,2.23-6.05,3.39-9.21,5.2-14.32,10.14-28.35,14.56-42.03,2.2-6.84,4.31-13.58,6.06-20.27.46-1.67.82-3.35,1.23-5.02.39-1.67.66-3.36.95-5.03.46-3.38.12-6.88-1.27-9.95-1.37-3.08-3.74-5.56-6.4-7.4-2.68-1.85-5.73-3.06-8.84-3.61-3.11-.55-6.28-.47-9.27.19-.75.19-1.49.38-2.23.57-.71.25-1.42.5-2.12.74-1.41.49-2.81.98-4.19,1.47-11.09,3.88-21.41,7.5-30.84,10.8-18.83,6.61-34.07,11.96-44.62,15.66-5.25,1.85-9.33,3.29-12.1,4.27-1.37.49-2.42.86-3.14,1.12-.7.25-1.06.4-1.06.4,0,0,.38-.11,1.1-.36.73-.25,1.79-.61,3.18-1.08,2.79-.96,6.89-2.37,12.17-4.19,10.56-3.66,25.82-8.95,44.67-15.48,9.42-3.27,19.74-6.86,30.82-10.71,1.38-.48,2.78-.97,4.19-1.46.7-.24,1.41-.49,2.12-.74.72-.18,1.44-.36,2.17-.54,2.93-.64,6.04-.72,9.08-.17,3.04.54,6.02,1.73,8.64,3.54,2.6,1.8,4.9,4.22,6.22,7.2,1.35,2.96,1.68,6.36,1.22,9.67-.29,1.65-.56,3.33-.95,4.98-.41,1.66-.76,3.33-1.23,5-1.75,6.67-3.87,13.41-6.06,20.24-4.42,13.66-9.36,27.69-14.56,42.01-1.16,3.15-2.31,6.29-3.39,9.2l.34-.17c-7.03-2.11-13.96-4.2-20.79-6.25-3.42-1.03-6.8-2.04-10.17-3.05l-1.26-.38-.31-.09s-.1.22-.02.03c.05-.06,0-.02.01-.04-.02-.02-.04-.05-.06-.09-.02-.04-.04-.08-.05-.11-.07,0,.12-.07-.14,0,.02-.04-.85.27.1.21.15-.22.13-.26.19-.38.31-.83.58-1.66.86-2.48.54-1.65,1.08-3.3,1.61-4.94,4.2-13.14,8.13-25.82,11.81-37.91.45-1.51.9-3.02,1.35-4.51.11-.38.22-.74.31-1.14,0-.06.02.03,0-.2-.86-.11-.3-.03-.49-.03l-.1.09-.19.17c-.12.12-.29.25-.43.37-.6.49-1.19.98-1.78,1.47-2.39,1.93-4.77,3.81-7.13,5.63-4.73,3.65-9.38,7.11-13.95,10.34-4.57,3.23-9.06,6.25-13.51,8.91-1.13.64-2.24,1.28-3.34,1.9-1.14.56-2.24,1.17-3.37,1.68-1.15.46-2.25,1.01-3.42,1.32-.58.17-1.15.38-1.73.52-.58.13-1.16.25-1.74.38-2.32.43-4.63.64-6.87.52-2.25-.06-4.41-.45-6.47-.98-4.1-1.12-7.75-2.98-10.68-5.31-1.5-1.12-2.77-2.43-3.94-3.71-.55-.67-1.09-1.34-1.57-2.02-.46-.69-.84-1.41-1.17-2.15-1.31-2.93-1.91-5.85-2.31-8.45-.75-5.24-.38-9.38.07-12.11.26-1.37.48-2.4.69-3.08.19-.68.28-1.05.28-1.05Z"/>
        </g>
        <path class="st11" d="M155.14,341.88c-.03-.05-1.09.47-2.68,1.5-1.6,1.03-3.71,2.61-5.82,4.61-2.1,2.01-3.77,4.06-4.84,5.64-.54.79-.94,1.44-1.19,1.91-.25.47-.38.73-.35.75.07.04.7-.95,1.84-2.45,1.13-1.5,2.82-3.49,4.9-5.48,2.08-1.98,4.14-3.58,5.67-4.68,1.53-1.1,2.52-1.74,2.47-1.81Z"/>
        <path class="st11" d="M144.02,338.26c-.06-.03-.54.9-1.15,2.46-.61,1.56-1.33,3.77-1.89,6.27-.55,2.5-.84,4.81-.95,6.49-.11,1.67-.07,2.71,0,2.71.08,0,.17-1.03.38-2.68.2-1.65.54-3.93,1.09-6.41.55-2.48,1.21-4.68,1.73-6.26.52-1.58.87-2.56.8-2.59Z"/>
      </g>
    </g>
    <g>
      <path class="st15" d="M165.12,298.74l2.14-2.18s3.14-4.53,4.42-5.94c1.28-1.42,8.99-6.37,8.99-6.37,0,0,3.71-4.99,4.28-4.99s2.38.32,1.89,2.64c-.47,2.23-1.32,5.24-2.04,6.69l16.46.36c1.04.02,2.04.46,2.68,1.27.43.54.61,1.14-.16,1.52-1.71.85-8.7,2.55-8.7,2.55l3.12-.8s.67,2.96-1.31,4.37c-1.96,1.4-2.1,1.67-2.1,1.67,0,0-.1,2.8-.95,3.93-.86,1.13-10.13,5.86-10.13,5.86,0,0-5.92,1.74-8.92,1.59-3-.14-6.08,1.54-6.42,1.63-.34.09-3.26-13.81-3.26-13.81Z"/>
      <path class="st13" d="M186.4,288.67c0,.16-2.08.25-4.62.51-2.55.28-4.65.41-4.66.23,0-.14,2.03-.52,4.6-.8,2.58-.27,4.69-.1,4.68.06Z"/>
      <path class="st13" d="M184.2,295.91c-.05-.17,2.95-.99,6.72-1.42,1.88-.24,3.59-.4,4.82-.54,1.23-.13,1.99-.23,2.01-.15.02.07-.72.32-1.95.55-1.22.24-2.93.47-4.8.71-3.76.43-6.76.98-6.8.84Z"/>
      <path class="st13" d="M184.2,301.25c0-.17,2.4-.24,5.3-.74,2.9-.49,5.19-1.21,5.24-1.05.06.14-2.18,1.12-5.15,1.62-2.96.51-5.4.32-5.39.17Z"/>
      <path class="st13" d="M185.19,307.23c-.16.03-.4-.62-.53-1.43-.14-.82-.12-1.5.04-1.53.16-.03.4.62.53,1.43.14.82.12,1.5-.04,1.53Z"/>
      <path class="st13" d="M183.72,300.07c-.17-.01-.25-.54-.53-1.1-.27-.57-.64-.96-.54-1.1.07-.14.72.13,1.07.85.35.72.16,1.38.01,1.36Z"/>
      <path class="st13" d="M181.84,292.89c-.16.02-.33-.32-.53-.71-.19-.39-.37-.73-.26-.85.1-.12.53.1.78.59.25.49.17.96,0,.97Z"/>
    </g>
  </g>
  <g>
    <g>
      <g>
        <path class="st3" d="M547.55,49.91c5.86-1.39,11.22.55,16.43,3.57,5.21,3.02,9.31,7.81,11.84,13.28,2.67,5.75,3.66,12.36,2.3,18.56-1.36,6.2-5.18,11.91-10.63,15.14-7.45,4.42-17.4,3.69-24.64-1.08-7.23-4.77-11.74-13.13-12.63-21.75-.61-5.94.41-12.12,3.42-17.28,3.01-5.16,8.07-9.19,13.91-10.44"/>
        <g>
          <path class="st3" d="M565.71,68.97c-1.01-2.21-.84-4.76-1.34-7.14-1.1-5.24-5.64-9.21-10.7-10.95-4.71-1.62-10.29-.84-15.7,1.31-3.71,1.47-7.13,3.84-9.46,7.08-3.09,4.3-3.89,10.15-2.09,15.12l26.81-5.7c2.67,1.93,5.4,3.9,8.55,4.87.92.28,1.91.48,2.85.27.94-.21,1.83-.92,1.99-1.87.18-1.04-.49-2.01-.93-2.97Z"/>
          <path class="st15" d="M569.78,116.23l-4.53-48.4c-.19-2.29-1.11-4.65-3.41-4.66l-23.96-3.47c-7.56-.01-11.57,9.71-11.26,17.26.34,8.39,1.09,18.62,2.72,24.74,3.29,12.3,13.04,12.9,13.04,12.9,0-.04.48,2.44,1,6.97l15.11,11.13,11.29-16.46Z"/>
          <g>
            <g>
              <path class="st3" d="M531.98,86.38c.06.85.83,1.5,1.71,1.46.89-.04,1.56-.77,1.5-1.62-.06-.85-.83-1.5-1.71-1.46-.89.04-1.56.77-1.5,1.62Z"/>
              <path class="st3" d="M529.37,82.03c.22.19,1.34-.84,3.07-1.01,1.72-.2,3.08.56,3.25.33.08-.1-.16-.46-.75-.8-.58-.34-1.55-.64-2.63-.52-1.07.12-1.94.61-2.42,1.07-.49.46-.63.86-.52.94Z"/>
            </g>
            <g>
              <path class="st3" d="M547.95,84.56c.06.85.83,1.5,1.71,1.46.89-.04,1.56-.77,1.5-1.62-.06-.85-.83-1.5-1.71-1.46-.89.04-1.56.77-1.5,1.62Z"/>
              <path class="st3" d="M545.78,80.54c.22.19,1.34-.84,3.07-1.01,1.72-.2,3.08.56,3.25.33.08-.1-.16-.46-.75-.8-.58-.34-1.55-.64-2.63-.52-1.07.12-1.94.61-2.42,1.07-.49.46-.63.86-.52.94Z"/>
            </g>
            <path class="st3" d="M541.44,94.04c0-.1-1.09-.17-2.86-.21-.45,0-.87-.04-.98-.34-.14-.31,0-.8.16-1.34.3-1.11.62-2.27.95-3.49,1.31-4.97,2.21-9.03,2.01-9.08-.2-.05-1.43,3.93-2.74,8.9-.31,1.22-.61,2.39-.9,3.51-.12.52-.34,1.12-.05,1.75.15.32.5.52.79.57.29.06.54.04.76.03,1.76-.09,2.85-.19,2.84-.29Z"/>
            <path class="st13" d="M542.37,114.59s8.47-.33,16.29-6.21c0,0-4.36,9.55-15.69,9.99l-.6-3.78Z"/>
            <path class="st13" d="M542.6,98.12c.54-.89,1.58-1.45,2.67-1.45.76,0,1.55.29,2.07.85.52.56.7,1.42.35,2.04-.4.7-1.36.96-2.2.81-.85-.15-1.61-.62-2.34-1.09-.2-.13-.41-.27-.55-.46-.14-.19-.19-.46-.06-.64"/>
            <path class="st3" d="M546.65,94.71c-.28.01-.09,1.89-1.56,3.38-1.46,1.5-3.48,1.5-3.47,1.76-.01.12.48.32,1.33.25.83-.06,2.01-.45,2.91-1.36.89-.92,1.2-2.05,1.19-2.82-.01-.79-.27-1.23-.39-1.21Z"/>
          </g>
          <path class="st3" d="M545.54,75.4c.22.45,1.92.05,3.97.08,2.05,0,3.75.42,3.97-.03.1-.21-.23-.63-.94-1.01-.7-.39-1.79-.71-3.02-.72-1.23,0-2.32.3-3.03.68-.71.38-1.05.78-.95,1Z"/>
          <path class="st3" d="M529.09,74.43c.34.36,1.49-.17,2.92-.34,1.42-.22,2.67-.01,2.9-.45.1-.21-.13-.58-.7-.9-.56-.32-1.46-.53-2.44-.4-.98.13-1.79.58-2.25,1.03-.46.46-.59.88-.43,1.05Z"/>
          <path class="st3" d="M569.8,65.04c-2.92-7.04-14.25-16.15-21.78-14.98l-11.48,8.28c1.08,4.06,4.57,7.38,8.68,8.26,2.19.47,4.78.43,6.21,2.16,1.46,1.77.93,4.57,2.3,6.4,1.9,2.54,6.47,2.03,7.97,4.82.66,1.22.5,2.76,1.18,3.97.9,1.61,5.33,3.38,7.04,2.67,1.71-.71,1.46-3.7,1.9-5.31.75-2.76.23-4.11-.22-5.58-1.07-3.48-.41-7.34-1.8-10.69Z"/>
          <path class="st15" d="M564.87,88.54c-.09-.93.75-3.24,1.66-3.48,2.42-.64,6.86-.9,7.55,5.33.94,8.52-7.81,7.71-7.85,7.47-.03-.19-1.04-6.1-1.36-9.32Z"/>
          <path class="st13" d="M568.48,94.35s.16.09.42.17c.26.08.69.12,1.11-.1.86-.43,1.46-1.94,1.33-3.48-.06-.78-.31-1.5-.65-2.08-.33-.59-.78-.99-1.24-1.02-.46-.05-.75.25-.83.5-.09.25-.01.42-.06.43-.02.02-.2-.12-.17-.48.02-.17.09-.39.28-.57.19-.19.48-.31.8-.31.66-.03,1.32.51,1.7,1.15.41.64.71,1.44.78,2.32.14,1.72-.57,3.43-1.76,3.92-.58.22-1.1.1-1.38-.08-.29-.18-.35-.37-.33-.39Z"/>
        </g>
        <path class="st3" d="M538.86,55.6c-.56,3.53-5.56,8.34-7.71,11.2-4.09,5.46-4.86,7.23-4.06,18.78-2.35-3.86-4.21-7.66-4.34-12.18-.13-4.51,1.23-9.13,4.15-12.58,2.92-3.44,7.45-5.58,11.95-5.23"/>
      </g>
      <path class="st3" d="M559.64,44.47c1.89-1.88,4.52-3.04,7.22-3.58,3.86-.77,8.03-.31,11.42,1.51,3.39,1.82,5.92,5.05,6.47,8.66.54,3.61-1.02,7.51-4.17,9.74,1.84,1.98,4.21,3.53,6.85,4.47-.78,1.05-2.14,1.62-3.5,1.78-1.36.16-2.72-.03-4.07-.22.81,1.38,2.17,2.48,3.76,3.03-2.2.45-4.52.17-6.63-.53-2.11-.7-4.04-1.8-5.88-2.99-6.34-4.1-9.78-7.59-13.91-13.65-.47-2.52.53-6.34,2.42-8.22Z"/>
      <g>
        <path class="st3" d="M572.85,63.01c-4.45-7.22-10.37-11.26-15.83-12.68"/>
        <path class="st11" d="M557.02,50.33s.27.11.77.27c.5.17,1.21.42,2.07.8,1.72.74,3.99,2.02,6.18,3.85,2.19,1.83,3.9,3.8,5.03,5.3.56.76,1,1.37,1.29,1.81.3.43.47.67.48.66.01,0-.13-.26-.4-.71-.26-.46-.69-1.09-1.23-1.86-1.1-1.53-2.8-3.53-5.01-5.38-2.21-1.85-4.53-3.12-6.28-3.82-.87-.36-1.6-.59-2.11-.72-.51-.13-.79-.2-.8-.18Z"/>
      </g>
      <path class="st11" d="M578.27,69.25s-.04,0-.11.03c-.09.03-.19.07-.32.11-.27.1-.69.24-1.22.4-1.07.3-2.65.64-4.64.72-1.98.08-4.36-.14-6.91-.77-2.55-.62-5.26-1.65-8.02-2.93-2.75-1.28-5.34-2.58-7.65-3.85-2.3-1.28-4.29-2.57-5.87-3.78-1.58-1.21-2.74-2.33-3.51-3.14-.39-.4-.67-.73-.86-.95-.09-.1-.16-.18-.22-.25-.05-.05-.08-.08-.08-.08,0,0,.02.03.06.1.06.07.12.16.21.26.18.23.45.57.83.98.74.83,1.9,1.98,3.47,3.21,1.57,1.24,3.56,2.55,5.86,3.85,2.31,1.29,4.89,2.59,7.66,3.88,2.76,1.28,5.5,2.31,8.07,2.92,2.57.62,4.97.82,6.97.72,2-.1,3.59-.47,4.66-.8.53-.17.94-.32,1.21-.44.12-.05.22-.1.31-.13.07-.03.1-.05.1-.05Z"/>
    </g>
    <g>
      <g>
        <rect class="st14" x="505.8" y="211.8" width="122.69" height="98.51" rx="4.59" ry="4.59"/>
        <path class="st3" d="M623.9,310.3s.39.01,1.1-.17c.7-.18,1.78-.65,2.62-1.83.41-.58.72-1.35.79-2.23.03-.88,0-1.87,0-2.92,0-2.12-.01-4.56-.02-7.31-.02-11-.05-26.91-.08-46.56,0-9.83-.02-20.6-.03-32.15,0-.73.02-1.42-.21-2.09-.22-.66-.59-1.27-1.08-1.76-.5-.49-1.12-.86-1.79-1.07-.68-.22-1.39-.2-2.15-.19-2.99,0-6.02,0-9.1,0-6.16,0-12.49,0-18.99.01-25.99,0-54.56.01-84.55.02-1.79-.03-3.49,1.18-4.07,2.84-.34.82-.26,1.73-.27,2.67v2.78c0,3.7,0,7.38,0,11.03,0,7.3,0,14.5,0,21.57,0,14.14-.01,27.79-.02,40.78,0,3.25,0,6.46,0,9.62,0,.79,0,1.58,0,2.37.01.75.2,1.49.57,2.13.73,1.3,2.14,2.16,3.61,2.2,6.15,0,12.13.02,17.9.02,11.56.01,22.32.02,32.15.03,19.65.03,35.55.06,46.56.08,5.49.02,9.75.04,12.66.05,1.44.01,2.54.02,3.29.03.74,0,1.12.03,1.12.03,0,0-.38.02-1.12.03-.75,0-1.85.01-3.29.03-2.9.01-7.17.03-12.66.05-11,.02-26.91.05-46.56.08-9.83,0-20.6.02-32.15.03-5.78,0-11.76,0-17.92,0-1.62-.04-3.19-1-3.99-2.43-.41-.71-.62-1.54-.63-2.36,0-.79,0-1.58,0-2.37,0-3.17,0-6.38,0-9.62,0-13,0-26.64-.02-40.78,0-7.07,0-14.27,0-21.57,0-3.65,0-7.33,0-11.03v-2.78c.01-.9-.08-1.91.3-2.85.66-1.87,2.56-3.22,4.56-3.18,29.99,0,58.56.01,84.55.02,6.5,0,12.83,0,18.99.01,3.08,0,6.11,0,9.1,0,.73,0,1.53-.03,2.28.22.74.24,1.42.65,1.97,1.19.54.55.95,1.22,1.19,1.94.25.73.24,1.52.23,2.22-.01,11.56-.02,22.32-.03,32.15-.03,19.65-.06,35.55-.08,46.56,0,2.75-.02,5.19-.02,7.31-.01,1.06.01,2.03-.03,2.93-.08.9-.41,1.69-.83,2.28-.87,1.2-1.98,1.66-2.69,1.82-.73.16-1.12.11-1.12.11Z"/>
      </g>
      <g>
        <rect class="st11" x="525.44" y="205.86" width="84.04" height="111.81" transform="translate(303.33 828.12) rotate(-89.76)"/>
        <g class="st12">
          <polygon points="511.38 303.55 550.65 251.47 574.71 284.25 591.19 266.85 623.19 304.01 511.38 303.55"/>
        </g>
        <g class="st12">
          <path d="M585.14,245.22c-.02,4.86-3.98,8.79-8.84,8.77-4.86-.02-8.79-3.98-8.77-8.84.02-4.86,3.98-8.79,8.84-8.77,4.86.02,8.79,3.98,8.77,8.84Z"/>
        </g>
      </g>
    </g>
    <g>
      <path class="st8" d="M512.78,138.46s-.61-1.23,2.88-5.15c3.49-3.92,27.61-12.84,27.61-12.84,0,0,9.38,11.34,18.09,3.55,6.35-5.67,7.34-12.54,7.34-12.54,0,0,21.29-1.19,21.74.2l5.7,26.77-10,.06-73.36-.05Z"/>
      <path class="st15" d="M563.52,199.7l37.06-37.02-4.72-20.25,19.94-5.87s5.9,28.27,5.12,33.25c-1.53,9.64-47.01,37.17-47.01,37.17l-10.38-7.29Z"/>
      <path class="st8" d="M589.42,111.29s8.94.53,16.2,8c7.68,7.91,16.87,28.65,16.87,28.65l-26.04,6.34-7.03-43Z"/>
      <path class="st15" d="M558.79,203.74l-10.4,6.49s-5.24,8.73-5.99,10.92c-.74,2.19-1.48,7.67-1.48,7.67,0,0,2.27,2.07,3.19-1.12l1.07-2.45-.9,5.68s2.3,1.78,3.42-1.24,1.62-5.9,1.62-5.9l3.56-4.89-3.59,11.68s-.68,2.35,1.41,2.15c.83-.08,2.68-4.2,2.68-4.2,0,0,1.52,1.97,2.78.2,1.29-1.81,6.19-8.75,6.19-8.75,0,0,6.64-8.2,6.66-8.42,0-.04,4.88-4.58,4.88-4.58l-10.38-7.29-4.49,3.82c-.06.09-.14.17-.24.23Z"/>
      <path class="st13" d="M544.31,230.73s.07-.23.15-.66c.09-.46.2-1.07.34-1.8.14-.78.3-1.68.47-2.68.09-.51.18-1.04.27-1.58.1-.54.29-1.08.51-1.62.92-2.16,2.14-3.95,3.02-5.21.44-.63.82-1.13,1.08-1.48.26-.34.4-.54.39-.55-.01,0-.17.17-.46.5-.28.33-.68.82-1.14,1.44-.92,1.25-2.16,3.02-3.1,5.22-.23.55-.42,1.11-.52,1.67-.09.55-.18,1.08-.26,1.59-.16,1-.3,1.91-.43,2.69-.11.74-.2,1.35-.27,1.82-.06.43-.08.67-.07.67Z"/>
      <path class="st13" d="M558.22,218.49s-.1.11-.24.34c-.14.23-.34.56-.59.97-.49.83-1.16,1.98-1.89,3.28h0s0,.01,0,.01c-.03.07-.06.15-.09.23-.58,1.43-1.1,2.73-1.46,3.67-.18.47-.32.86-.42,1.12-.09.27-.14.42-.13.42.01,0,.09-.13.21-.39.12-.26.28-.63.48-1.1.4-.93.94-2.22,1.52-3.65.03-.08.06-.16.09-.23h0c.73-1.28,1.38-2.45,1.84-3.3.23-.42.41-.77.53-1.01.12-.24.18-.38.17-.38Z"/>
      <g>
        <g>
          <path class="st15" d="M499.86,135.96c.05.11.09.21.13.32.18.5.28,1.02.32,1.55.02.24-.02.51.03.75.04.16.14.29.21.44.4.95.31,2.08.27,3.09-.04,1.14-.02,2.34.57,3.31.59.97,1.97,1.54,2.91.9-.14.71.41,1.44,1.11,1.62.7.18,1.46-.11,1.98-.61.52-.51.81-1.2.99-1.9-.05.85.79,1.58,1.64,1.59.85.01,1.63-.55,2.08-1.27.45-.72.62-1.58.72-2.42.1-.84.29-2.42.51-3.25,0,0,1.07.17,1.55.22.66.06.14.01.14.01.36-.35.63-.96,1.02-1.77.68-1.4,1.2-2.29,1.72-3.56.39-.95.64-1.9.05-2.52-1.42-1.49-4.18,1.54-4.18,1.54-.39-1.05-3.61-1.23-4.23.18-.25-.77-.16-1.22-.78-1.74-.63-.52-1.49-.79-2.28-.57-.79.21-1.43.97-1.38,1.79-.66-1.07-2.03-1.64-3.26-1.36-.74.17-1.39.64-1.82,1.25-.22.31-.37.65-.46,1.02-.03.13-.09.28-.08.42,0,.07.03.13.07.19.14.27.33.51.46.79Z"/>
          <path class="st15" d="M496.47,134.07c-.7-.03-1.46.12-1.93.64-.55.62-.67,1.85-.6,2.68.97.18,1.47.22,2.44.4.2.04.38-.01.55.11.45.32.38,1.39.56,1.91.31.9,1.47,1.34,2.36,1.01.89-.33,1.47-1.28,1.51-2.23.05-.95-.37-1.88-.99-2.61-.96-1.14-2.41-1.85-3.9-1.9Z"/>
          <path class="st13" d="M504.78,133.42c.18,0,.18,2.92,0,6.49-.18,3.58-.48,6.47-.66,6.46-.18,0-.18-2.91,0-6.49.18-3.57.48-6.47.66-6.46Z"/>
          <path class="st13" d="M509.43,134.05c.17,0,.41,2.64.13,5.89-.28,3.25-.96,5.82-1.13,5.78-.19-.04.2-2.63.47-5.84.28-3.21.34-5.83.53-5.83Z"/>
        </g>
        <path class="st13" d="M513.79,134.05c.19,0,.26,2.2-.08,4.87-.34,2.66-.75,4.79-.92,4.77-.19-.02-.07-2.2.27-4.85.34-2.64.55-4.79.73-4.79Z"/>
        <path class="st13" d="M497.87,134.62c0-.08.47-.18,1.14.12.66.29,1.42,1.06,1.79,2.09.36,1.03.47,1.92.44,2.67-.08.8-.66,1.04-.68.93-.05-.07.26-.35.21-.95-.08-.58-.28-1.54-.59-2.43-.33-.91-.89-1.57-1.4-1.92-.51-.36-.92-.43-.91-.53Z"/>
      </g>
    </g>
  </g>
  <g>
    <g>
      <rect class="st9" x="638.64" y="84.5" width="123.59" height="123.59" rx="8.33" ry="8.33"/>
      <path class="st3" d="M753.9,208.09s.42,0,1.23-.13c.8-.12,2.01-.43,3.34-1.31,1.3-.88,2.74-2.4,3.36-4.66.34-1.12.32-2.38.3-3.72,0-1.35,0-2.78-.01-4.3-.02-12.16-.05-29.73-.08-51.44,0-10.86-.02-22.75-.03-35.52,0-3.19,0-6.44,0-9.74-.01-1.64.02-3.33-.03-4.97-.09-1.63-.72-3.23-1.74-4.52-1.03-1.29-2.47-2.27-4.09-2.73-1.61-.49-3.37-.27-5.12-.32-3.5,0-7.04,0-10.63,0-28.72,0-60.28.01-93.42.02-2.01,0-4,.77-5.46,2.13-1.48,1.35-2.41,3.25-2.58,5.22-.07,4.04-.02,8.14-.04,12.17,0,8.07,0,16.02,0,23.84,0,15.63-.01,30.7-.02,45.06,0,7.18,0,14.18-.01,20.98,0,1.7,0,3.39,0,5.06-.06,1.66.3,3.28,1.13,4.66.4.7.92,1.32,1.51,1.85.58.54,1.25.99,1.96,1.33,1.43.74,3.01.85,4.61.81,12.77.01,24.66.02,35.52.03,21.71.03,39.28.06,51.44.08,6.07.02,10.78.04,13.98.05,1.59.01,2.81.02,3.64.03.82,0,1.24.03,1.24.03,0,0-.42.02-1.24.03-.83,0-2.05.01-3.64.03-3.21.01-7.92.03-13.98.05-12.15.02-29.73.05-51.44.08-10.86,0-22.75.02-35.52.03-1.57.05-3.31-.07-4.8-.84-.75-.35-1.46-.82-2.07-1.4-.62-.56-1.17-1.22-1.59-1.95-.89-1.44-1.26-3.2-1.2-4.89,0-1.68,0-3.36,0-5.06,0-6.8,0-13.8-.01-20.98,0-14.36,0-29.43-.02-45.06,0-7.81,0-15.77,0-23.84.02-4.04-.04-8.08.04-12.21.18-2.1,1.18-4.13,2.75-5.56,1.56-1.44,3.68-2.27,5.81-2.27,33.14,0,64.7.01,93.42.02,3.59,0,7.13,0,10.63,0,.87,0,1.75,0,2.61,0,.88.01,1.78.07,2.63.34,1.71.49,3.23,1.52,4.32,2.89,1.08,1.37,1.74,3.06,1.84,4.78.05,1.7.01,3.35.02,5,0,3.3,0,6.55,0,9.74-.01,12.77-.02,24.66-.03,35.52-.03,21.71-.06,39.28-.08,51.44,0,1.52,0,2.95-.01,4.3,0,1.34.02,2.63-.33,3.77-.65,2.29-2.13,3.82-3.45,4.7-1.36.87-2.59,1.16-3.39,1.27-.41.07-.72.06-.93.07-.21,0-.31,0-.31,0Z"/>
    </g>
    <g>
      <g>
        <g>
          <path class="st10" d="M706.23,145.12h-12.95c-6.29,0-11.39-5.1-11.39-11.39v-27.91h35.73v27.91c0,6.29-5.1,11.39-11.39,11.39Z"/>
          <path class="st3" d="M706.23,145.12c0-.08,1.21.02,3.31-.61,1.03-.35,2.27-.91,3.5-1.87,1.23-.95,2.46-2.32,3.29-4.13.91-1.8,1.14-3.99,1.04-6.42-.01-2.43-.02-5.03-.04-7.81-.02-5.56-.03-11.77-.05-18.46l.35.35c-7.51,0-15.74.02-24.33.02-3.9,0-7.73,0-11.39,0l.37-.37c-.02,8.33-.03,16.17-.04,23.25,0,1.76-.04,3.5,0,5.14.06,1.62.48,3.17,1.16,4.53,1.36,2.73,3.73,4.62,6.14,5.48,2.42.94,4.84.64,6.91.72,2.06.02,3.83.04,5.3.06,1.4.03,2.51.05,3.33.06.35.01.63.02.86.03.19.01.29.02.29.03s-.1.02-.29.03c-.23,0-.52.02-.86.03-.82.02-1.93.04-3.33.06-1.47.02-3.25.04-5.3.06-1.04,0-2.15.01-3.33.02-1.2,0-2.48-.22-3.74-.66-2.53-.87-5.04-2.81-6.49-5.67-.73-1.42-1.18-3.05-1.26-4.76-.06-1.69-.03-3.39-.04-5.17-.01-7.08-.03-14.92-.04-23.25v-.37s.37,0,.37,0c3.66,0,7.49,0,11.39,0,8.59,0,16.82.02,24.33.02h.35s0,.35,0,.35c-.02,6.69-.04,12.9-.05,18.46-.01,2.77-.03,5.38-.04,7.81.08,2.39-.19,4.78-1.17,6.61-.89,1.87-2.18,3.26-3.47,4.22-1.29.97-2.57,1.5-3.63,1.83-2.16.57-3.37.39-3.37.39Z"/>
        </g>
        <path class="st16" d="M682.07,106.09c5.2,3.79,10.56,6.28,16.99,6.15,6.43-.13,13.52-2.2,18.56-6.19l-35.55.04Z"/>
        <path class="st3" d="M717.62,111.55s.11.26.26.77c.16.59.36,1.33.61,2.24.52,2.05,1.23,4.85,2.1,8.26.43,1.76.91,3.67,1.41,5.71.24,1.04.54,2.05.75,3.22.19,1.17.01,2.43-.48,3.58-.48,1.16-1.34,2.18-2.42,2.93-1.09.73-2.44,1.15-3.79,1.14-2.59.01-5.27.03-8.02.04-1.37,0-2.73.01-4.07.02-1.32,0-2.69.06-4.01-.24-2.63-.53-4.92-2-6.47-3.9-.78-.94-1.39-1.99-1.81-3.07-.41-1.08-.75-2.1-1.1-3.1-.69-1.99-1.34-3.85-1.93-5.56-1.14-3.33-2.07-6.06-2.75-8.07-.29-.89-.52-1.62-.71-2.21-.15-.51-.22-.78-.2-.79.02,0,.14.24.34.74.22.57.5,1.28.84,2.16.74,1.98,1.74,4.69,2.97,7.99.62,1.7,1.3,3.55,2.02,5.53.75,1.99,1.32,4.19,2.86,5.94,1.47,1.77,3.63,3.14,6.09,3.62,1.22.27,2.51.22,3.86.21,1.34,0,2.69-.01,4.07-.02,2.74,0,5.42-.02,8.01-.03,1.24,0,2.42-.36,3.4-1,.97-.67,1.75-1.57,2.19-2.61.45-1.03.62-2.16.46-3.22-.17-1.05-.48-2.15-.7-3.17-.47-2.05-.92-3.97-1.33-5.73-.77-3.43-1.4-6.25-1.87-8.32-.19-.92-.35-1.67-.47-2.27-.1-.52-.14-.8-.12-.8Z"/>
        <path class="st3" d="M687.26,113.09c0,1.09-.88,1.97-1.97,1.97s-1.97-.88-1.97-1.97.88-1.97,1.97-1.97,1.97.88,1.97,1.97Z"/>
        <path class="st16" d="M717.24,106.18c.19.84-.95,1.63-.94,2.5.03,1.62-.97,3.12-2.49,3.67-.12.04-.23.11-.33.19-.72.57-.9,1.56-1.03,2.46-.22,1.49-.44,2.99-.66,4.48-.14.93-.28,1.88-.74,2.7-.46.82-1.33,1.47-2.27,1.41-1.35-.09-2.19-1.55-2.4-2.89-.26-1.68.07-3.48-1.08-4.93-.53-.68-1.43-1.04-2.24-.75-2.05.75-.8,4.01-2.74,4.76-.54.21-1.16.09-1.64-.24-1.01-.7-1.32-1.87-1.6-2.99-.44-1.76-.87-3.51-1.31-5.27l21.45-5.11"/>
      </g>
      <circle class="st8" cx="666.22" cy="170.09" r="11.05"/>
      <circle class="st8" cx="700.44" cy="170.09" r="11.05"/>
      <circle class="st8" cx="734.67" cy="170.09" r="11.05"/>
      <circle class="st16" cx="666.22" cy="170.09" r="11.05"/>
      <g class="st12">
        <circle cx="734.67" cy="170.09" r="11.05"/>
      </g>
      <path class="st3" d="M677.26,170.09c-.07,0-.01-.98-.45-2.67-.43-1.65-1.54-4.08-4.03-5.95-1.23-.92-2.78-1.69-4.57-2-1.77-.3-3.77-.24-5.67.49-.96.33-1.88.84-2.73,1.47-.86.62-1.63,1.4-2.28,2.29-1.33,1.77-2.07,4.03-2.09,6.37.02,2.34.77,4.61,2.09,6.37.64.9,1.42,1.67,2.28,2.29.85.64,1.77,1.14,2.73,1.47,1.9.73,3.9.79,5.67.49,1.79-.31,3.34-1.09,4.57-2,2.49-1.87,3.6-4.3,4.03-5.95.44-1.69.38-2.68.45-2.67,0,0,.14.99-.24,2.72-.38,1.7-1.46,4.23-4,6.21-1.26.97-2.86,1.8-4.72,2.14-1.84.33-3.93.29-5.93-.46-1-.34-1.97-.87-2.87-1.53-.9-.65-1.72-1.46-2.4-2.4-1.4-1.85-2.19-4.23-2.21-6.69.02-2.45.81-4.84,2.21-6.69.68-.94,1.5-1.75,2.4-2.4.89-.66,1.86-1.18,2.87-1.53,2-.75,4.08-.79,5.93-.46,1.86.34,3.46,1.17,4.72,2.14,2.55,1.98,3.63,4.51,4,6.21.38,1.74.24,2.72.24,2.72Z"/>
      <path class="st3" d="M711.49,170.09c-.07,0-.01-.98-.45-2.67-.43-1.65-1.54-4.08-4.03-5.95-1.23-.92-2.78-1.69-4.57-2-1.77-.3-3.77-.24-5.67.49-.96.33-1.88.84-2.73,1.47-.86.62-1.63,1.4-2.28,2.29-1.32,1.77-2.07,4.03-2.09,6.37.02,2.34.77,4.61,2.09,6.37.64.9,1.42,1.67,2.28,2.29.85.64,1.77,1.14,2.73,1.47,1.9.73,3.9.79,5.67.49,1.79-.31,3.34-1.09,4.57-2,2.49-1.87,3.6-4.3,4.03-5.95.44-1.69.38-2.68.45-2.67,0,0,.14.99-.24,2.72-.38,1.7-1.46,4.23-4,6.21-1.26.97-2.86,1.8-4.72,2.14-1.84.33-3.93.29-5.93-.46-1-.34-1.97-.87-2.87-1.53-.9-.65-1.72-1.46-2.4-2.4-1.4-1.85-2.19-4.23-2.21-6.69.02-2.45.81-4.84,2.21-6.69.68-.94,1.5-1.75,2.4-2.4.89-.66,1.86-1.18,2.87-1.53,2-.75,4.08-.79,5.93-.46,1.86.34,3.46,1.17,4.72,2.14,2.55,1.98,3.63,4.51,4,6.21.38,1.74.24,2.72.24,2.72Z"/>
      <path class="st3" d="M745.69,170.09c-.07,0-.01-.98-.45-2.67-.43-1.65-1.54-4.08-4.03-5.95-1.23-.92-2.78-1.69-4.57-2-1.77-.3-3.77-.24-5.67.49-.96.33-1.88.84-2.73,1.47-.86.62-1.63,1.4-2.28,2.29-1.33,1.77-2.07,4.03-2.09,6.37.02,2.34.77,4.61,2.09,6.37.64.9,1.42,1.67,2.28,2.29.85.64,1.77,1.14,2.73,1.47,1.9.73,3.9.79,5.67.49,1.79-.31,3.34-1.09,4.57-2,2.49-1.87,3.6-4.3,4.03-5.95.44-1.69.38-2.68.45-2.67,0,0,.14.99-.24,2.72-.38,1.7-1.46,4.23-4,6.21-1.26.97-2.86,1.8-4.72,2.14-1.84.33-3.93.29-5.93-.46-1-.34-1.97-.87-2.87-1.53-.9-.65-1.72-1.46-2.4-2.4-1.4-1.85-2.19-4.23-2.21-6.69.02-2.45.81-4.84,2.21-6.69.68-.94,1.5-1.75,2.4-2.4.89-.66,1.86-1.18,2.87-1.53,2-.75,4.08-.79,5.93-.46,1.86.34,3.46,1.17,4.72,2.14,2.55,1.98,3.63,4.51,4,6.21.38,1.74.24,2.72.24,2.72Z"/>
    </g>
  </g>
  <g>
    <path class="st9" d="M157.44,204.9l3.12-5.77c-.85-4.26-.43-8.84,1.5-13.17,4.44-9.94,15.79-15.12,26.21-11.96,12.62,3.82,19.01,17.78,13.64,29.83-4.48,10.06-16.01,15.23-26.51,11.9-5.21-1.65-9.32-5.05-11.96-9.3h0s-6-1.52-6-1.52Z"/>
    <polygon class="st8" points="170.38 196.21 173.54 192.79 180.11 198.17 190.26 187.1 193.45 190.26 179.9 204.53 170.38 196.21"/>
    <path class="st3" d="M157.44,204.9s.15.03.41.09c.28.07.67.16,1.17.28,1.03.25,2.52.61,4.45,1.08l-.1.11s0,0,0-.01c-.01-.05.01-.09.06-.11.04-.01.08,0,.1.04,1.45,2.29,3.83,5.13,7.58,7.3.93.53,1.94,1.02,3.03,1.44.54.22,1.11.36,1.68.55.57.2,1.17.33,1.78.44,2.43.51,5.11.62,7.86.17,2.74-.45,5.54-1.47,8.1-3.1,2.56-1.62,4.89-3.86,6.65-6.6,1.77-2.73,2.91-5.99,3.27-9.41.23-1.71.12-3.46-.06-5.2-.3-1.73-.68-3.48-1.39-5.12-.63-1.66-1.55-3.18-2.53-4.62-1.06-1.38-2.18-2.71-3.52-3.77-2.6-2.2-5.64-3.77-8.78-4.52-3.14-.78-6.34-.81-9.3-.24-2.96.57-5.68,1.74-7.97,3.27-4.62,3.09-7.43,7.55-8.68,11.64-1.28,4.14-1.1,7.87-.58,10.56-1.03,1.85-1.82,3.28-2.37,4.26-.27.47-.47.84-.62,1.1-.14.25-.22.38-.22.38,0,0,.05-.12.18-.37.14-.26.33-.63.57-1.1.53-1,1.3-2.46,2.29-4.34v.06c-.57-2.7-.78-6.46.48-10.64,1.23-4.14,4.07-8.69,8.75-11.85,2.33-1.57,5.08-2.77,8.1-3.35,3.01-.59,6.27-.56,9.47.22,3.2.76,6.31,2.35,8.96,4.6,1.36,1.09,2.51,2.44,3.59,3.85,1,1.46,1.94,3.01,2.58,4.71.73,1.68,1.12,3.46,1.42,5.23.19,1.78.29,3.56.06,5.3-.38,3.48-1.54,6.8-3.35,9.58-1.8,2.79-4.18,5.07-6.79,6.71-2.61,1.65-5.46,2.68-8.25,3.12-2.79.45-5.52.32-7.98-.21-.62-.12-1.23-.25-1.8-.46-.58-.2-1.16-.35-1.7-.57-1.1-.43-2.12-.93-3.06-1.48-3.78-2.22-6.16-5.12-7.59-7.44l.16-.07s0,.01,0,.01c.01.05-.01.09-.06.11-.02,0-.03,0-.05,0-1.94-.52-3.44-.92-4.48-1.2-.49-.13-.86-.24-1.13-.31-.25-.07-.38-.11-.37-.11Z"/>
  </g>
  <g>
    <g>
      <path class="st9" d="M341.29,206.81l-2.5,5.83s-.04.05-.08.05h-1.52c-.06,0-.1-.06-.07-.11l4.17-9.61c.03-.06.12-.06.15,0l4.18,9.61c.02.05-.02.11-.07.11h-1.53s-.06-.02-.08-.05l-2.5-5.83c-.03-.07-.12-.07-.15,0Z"/>
      <path class="st9" d="M333.78,208.81l2.5-5.83s.04-.05.08-.05h1.52c.06,0,.1.06.07.11l-4.17,9.61c-.03.06-.12.06-.15,0l-4.18-9.61c-.02-.05.02-.11.07-.11h1.53s.06.02.08.05l2.5,5.83c.03.07.12.07.15,0Z"/>
      <path class="st9" d="M348.06,211.9c-.39-.29-.68-.65-.88-1.07-.23-.45-.33-.96-.33-1.51v-6.33s.04-.08.08-.08h1.39s.08.04.08.08v6.33c0,.59.21,1.04.61,1.35.37.29.92.47,1.51.47s1.12-.17,1.51-.47c.4-.31.6-.76.6-1.35v-6.33s.04-.08.08-.08h1.4s.08.04.08.08v6.33c0,.55-.12,1.05-.33,1.51-.21.41-.51.77-.88,1.07-.65.51-1.52.79-2.45.79s-1.8-.28-2.45-.79Z"/>
      <path class="st9" d="M362.54,212.62l-2.49-3.65s-.1-.05-.13,0l-2.48,3.65s-.08.07-.13.07h-1.69c-.06,0-.1-.07-.06-.12l3.44-5.06s.02-.06,0-.09l-2.98-4.37c-.04-.05,0-.12.06-.12h1.69c.05,0,.1.03.13.07l2.02,2.97s.1.05.13,0l2.03-2.97s.08-.07.13-.07h1.69c.06,0,.1.07.06.12l-2.99,4.37s-.02.06,0,.09l3.45,5.06c.04.05,0,.12-.06.12h-1.69c-.05,0-.1-.03-.13-.07Z"/>
      <path class="st9" d="M369.81,202.93c-2.7,0-4.88,2.19-4.88,4.88s2.19,4.88,4.88,4.88,4.88-2.19,4.88-4.88-2.19-4.88-4.88-4.88ZM369.81,211.13c-1.83,0-3.32-1.49-3.32-3.32s1.49-3.32,3.32-3.32,3.32,1.49,3.32,3.32-1.49,3.32-3.32,3.32Z"/>
      <path class="st9" d="M381.19,202.93c-2.7,0-4.88,2.19-4.88,4.88s2.19,4.88,4.88,4.88,4.88-2.19,4.88-4.88-2.19-4.88-4.88-4.88ZM381.19,211.13c-1.83,0-3.32-1.49-3.32-3.32s1.49-3.32,3.32-3.32,3.32,1.49,3.32,3.32-1.49,3.32-3.32,3.32Z"/>
    </g>
    <g>
      <path class="st9" d="M322.66,210.74l-2.98-2.93,2.98-2.93,2.8,2.75c.1.1.1.26,0,.35l-2.8,2.75Z"/>
      <polygon class="st9" points="321.17 209.27 319.68 207.81 321.17 206.34 322.66 207.81 321.17 209.27"/>
      <path class="st9" d="M324.15,209.27l1.31-1.29c.1-.1.1-.26,0-.35l-1.31-1.29-1.49,1.46,1.49,1.46Z"/>
      <path class="st9" d="M314.74,210.74l2.98-2.93-2.98-2.93-2.8,2.75c-.1.1-.1.26,0,.35l2.8,2.75Z"/>
      <polygon class="st9" points="316.23 209.27 317.72 207.81 316.23 206.34 314.74 207.81 316.23 209.27"/>
      <path class="st9" d="M313.25,209.27l-1.31-1.29c-.1-.1-.1-.26,0-.35l1.31-1.29,1.49,1.46-1.49,1.46Z"/>
      <path class="st9" d="M321.63,211.77l-2.93-2.98-2.93,2.98,2.75,2.8c.1.1.26.1.35,0l2.75-2.8Z"/>
      <polygon class="st9" points="320.16 210.28 318.7 208.78 317.24 210.28 318.7 211.77 320.16 210.28"/>
      <path class="st9" d="M320.16,213.26l-1.29,1.31c-.1.1-.26.1-.35,0l-1.29-1.31,1.46-1.49,1.46,1.49Z"/>
      <path class="st9" d="M315.77,203.85l2.93,2.98,2.93-2.98-2.75-2.8c-.1-.1-.26-.1-.35,0l-2.75,2.8Z"/>
      <polygon class="st9" points="317.24 205.34 318.7 206.83 320.16 205.34 318.7 203.85 317.24 205.34"/>
      <path class="st9" d="M317.24,202.36l1.29-1.31c.1-.1.26-.1.35,0l1.29,1.31-1.46,1.49-1.46-1.49Z"/>
    </g>
  </g>
</svg>
