<?xml version="1.0" encoding="UTF-8"?>
<svg id="Capa_1" xmlns="http://www.w3.org/2000/svg" version="1.1" xmlns:xlink="http://www.w3.org/1999/xlink" viewBox="0 0 900 900">
  <!-- Generator: Adobe Illustrator 30.2.1, SVG Export Plug-In . SVG Version: 2.1.1 Build 1)  -->
  <defs>
    <style>
      .st0 {
        fill: #973032;
      }

      .st1 {
        fill: #263238;
      }

      .st2 {
        fill: #ac033f;
      }

      .st3 {
        opacity: .3;
      }

      .st4 {
        fill: #fff;
      }

      .st5 {
        fill: #e0e0e0;
      }

      .st6 {
        fill: none;
      }

      .st7 {
        fill: #dee0e2;
      }

      .st8 {
        fill: #455a64;
      }

      .st9 {
        fill: #ffbf9d;
      }

      .st10 {
        fill: #bc2e41;
      }

      .st11 {
        fill: #ae2f3d;
      }

      .st12 {
        fill: #ebebeb;
      }

      .st13 {
        fill: #ff9a6c;
      }

      .st14 {
        fill: #c8ced3;
      }

      .st15 {
        fill: #d5d9dc;
      }

      .st16 {
        clip-path: url(#clippath);
      }
    </style>
    <clipPath id="clippath">
      <rect class="st6" x=".14" width="900" height="900"/>
    </clipPath>
  </defs>
  <g class="st16">
    <g>
      <path class="st2" d="M599.64,480.81l-71.32-19.23-14.19,64.55-35.6-97.35c-16.6-46.54-39.31-62.57-54.98-66.91l-5.67,7.37,15.01,257.48,47.55,59.14c22.23,27.66,67.1,22.22,79.95-10.86,26.7-68.71,35.77-173.28,39.25-194.2Z"/>
      <path class="st1" d="M97.28,1030.83h356.82l-37.4-256.17-227.42-16.28s-39.23,38.45-52.22,83.6c-12.99,45.14-39.78,188.86-39.78,188.86Z"/>
      <g>
        <g>
          <g>
            <path class="st1" d="M157.28,181.02c8.42-76,25-159.67,133.32-155.49,0,0,81.59,2.85,107.56,60.84,14.06,31.4,10.1,150.68,16.54,249.01l15.83,126.19-327.61-50.62s49.11-182.68,54.35-229.93Z"/>
            <path class="st9" d="M305.99,55.63l-6.97-6.22-72.1,31.85c-10.55.93-18.64,9.78-18.61,20.38l16.49,241.81c.44,16.15-3.89,26.26,6.28,38.8l69.87,83.59c24.41,30.12,20.02-37.82,37.43-72.46,1.22-2.42-4.68-11.1-4.35-12.8.32-2.13.85-3.55.91-5.36,1.55-19.23,1.12-35.84,1.12-35.84.61-21.07.76-29.71.77-29.52,0,0,44.58-6.61,54.79-64.46,5.08-28.77,2.65-68.03-.31-106.66-4.1-53.46-42.29-84.58-85.32-83.11Z"/>
            <path class="st1" d="M306.52,182.78c.07,3.93-3.2,7.23-7.3,7.38-4.1.15-7.48-2.91-7.55-6.84-.07-3.93,3.2-7.23,7.29-7.38,4.1-.15,7.49,2.91,7.56,6.84Z"/>
            <path class="st1" d="M378.2,182.06c.07,3.93-3.2,7.23-7.3,7.38-4.1.15-7.48-2.91-7.55-6.84-.07-3.93,3.2-7.24,7.29-7.39,4.1-.15,7.49,2.91,7.56,6.84Z"/>
            <path class="st1" d="M384.17,154.29c-.94.95-6.5-3.31-14.51-3.43-7.99-.23-13.94,3.79-14.79,2.79-.42-.44.55-2.18,3.14-4,2.55-1.81,6.88-3.54,11.86-3.43,4.99.11,9.15,2.02,11.53,3.94,2.43,1.93,3.23,3.7,2.77,4.13Z"/>
            <path class="st1" d="M303.11,157.78c-1.04.85-6.14-3.96-14.08-4.9-7.93-1.05-14.25,2.33-15,1.26-.37-.48.76-2.11,3.54-3.65,2.72-1.54,7.2-2.82,12.15-2.2,4.95.63,8.89,2.95,11.06,5.11,2.21,2.17,2.83,4.01,2.33,4.39Z"/>
            <path class="st1" d="M332.94,215.04c-.03-.45,4.96-1.23,13.04-2.12,2.05-.18,3.99-.55,4.36-1.94.51-1.47-.31-3.69-1.26-6.08-1.84-4.98-3.76-10.2-5.78-15.67-8.01-22.3-13.77-40.63-12.87-40.95.9-.32,8.13,17.51,16.14,39.81,1.93,5.5,3.77,10.74,5.52,15.76.73,2.34,2.02,5,.92,8.04-.58,1.52-2.1,2.6-3.41,2.93-1.32.38-2.47.38-3.48.42-8.12.3-13.16.25-13.18-.21Z"/>
            <path class="st13" d="M336.83,309.86s-39.06,1.84-77.32-22.06c0,0,18.84,40.49,76.98,36.06l.34-14Z"/>
            <path class="st1" d="M309.73,126.38c-1.04,2.07-8.86.09-18.31.1-9.46-.18-17.31,1.64-18.31-.44-.44-.99,1.11-2.87,4.4-4.6,3.26-1.73,8.31-3.14,13.98-3.09,5.67.06,10.69,1.56,13.92,3.35,3.26,1.79,4.78,3.69,4.32,4.68Z"/>
            <path class="st1" d="M381.9,119.99c-1.44,1.79-6.92-.19-13.55-.39-6.62-.44-12.27,1.01-13.53-.91-.55-.93.37-2.74,2.85-4.42,2.45-1.67,6.52-3.01,11.07-2.79,4.55.22,8.47,1.94,10.75,3.84,2.31,1.91,3.05,3.79,2.41,4.67Z"/>
            <path class="st1" d="M213.11,203.18s41.35,11.39,61.19-90.38c6.79-34.8,37.89-63.83,37.89-63.83l-13.11-3.48s-79.97,25.39-81.29,26.45c-1.32,1.06-18.99,42.41-18.99,42.41l14.32,88.82Z"/>
            <path class="st9" d="M223.07,199.09c.06-4.32-4.75-14.59-9.01-15.33-11.36-1.97-31.91-1.41-32.6,27.51-.94,39.54,38.95,32.33,39.05,31.2.08-.88,2.34-28.47,2.56-43.39Z"/>
            <path class="st13" d="M208.79,227.21c-.17-.13-.7.47-1.88.97-1.15.49-3.11.81-5.15-.02-4.14-1.63-7.5-8.35-7.52-15.48-.02-3.6.82-7.01,2.16-9.82,1.28-2.86,3.19-4.84,5.31-5.16,2.1-.44,3.56.86,4.02,1.98.5,1.12.23,1.9.44,1.97.11.1.86-.64.58-2.28-.14-.79-.59-1.73-1.5-2.52-.93-.8-2.31-1.22-3.79-1.1-3.06.14-5.87,2.88-7.34,5.96-1.64,3.09-2.67,6.92-2.65,10.96.06,7.97,3.96,15.53,9.64,17.32,2.76.79,5.11,0,6.33-.9,1.25-.95,1.48-1.83,1.34-1.9Z"/>
            <path class="st1" d="M240.23,182.95c-.02-.13,2.17-.21,5.87-1.39,3.68-1.16,8.82-3.76,13.79-8.62,2.47-2.43,4.88-5.38,7.05-8.83,2.12-3.47,4.01-7.42,5.58-11.73,3.22-8.62,5.13-18.6,7.56-28.98,2.43-10.39,5.12-20.21,8.14-28.96,2.97-8.77,6.33-16.42,9.55-22.64,3.23-6.21,6.31-10.98,8.58-14.16,1.11-1.61,2.09-2.77,2.71-3.59.64-.81.99-1.22,1.01-1.2.03.02-.26.48-.84,1.33-.57.86-1.49,2.06-2.55,3.7-2.17,3.24-5.13,8.05-8.26,14.27-3.12,6.23-6.39,13.87-9.3,22.61-2.95,8.73-5.6,18.52-8.03,28.89-2.42,10.35-4.37,20.38-7.67,29.08-1.62,4.35-3.56,8.34-5.75,11.86-2.24,3.49-4.73,6.47-7.27,8.9-5.12,4.87-10.41,7.42-14.18,8.47-3.79,1.07-5.99,1-5.99,1Z"/>
            <path class="st8" d="M191.82,353.13s-.21-.64-.49-1.89c-.29-1.38-.68-3.23-1.18-5.58-1.01-5.04-2.44-12.21-4.25-21.31l.95-.17c.25,1.43.52,3.01.8,4.64l-.05-.14c.27.52.57,1.13.88,1.74l-.98.4c-5.21-16-11.05-37.54-14.74-63.12-1.9-12.77-3.18-26.55-3.76-41.02-.33-14.43-.94-29.75,2.42-45.18,1.38-6.38,3.61-12.52,6.59-18.15,2.97-5.63,6.58-10.78,10.42-15.56,7.72-9.54,16.1-17.79,23.74-25.97,15.41-16.19,29.3-30.79,41-43.08,11.65-12.14,21.11-22,27.76-28.94,3.23-3.31,5.78-5.92,7.61-7.8.82-.82,1.49-1.48,2.01-2,.46-.44.71-.66.73-.64.02.02-.18.28-.6.76-.49.55-1.11,1.25-1.88,2.12-1.78,1.94-4.24,4.62-7.37,8.04-6.55,7.03-15.87,17.02-27.34,29.33-11.62,12.37-25.42,27.05-40.72,43.35-7.6,8.21-15.97,16.51-23.57,25.93-7.6,9.38-14.05,20.41-16.63,33-3.3,15.09-2.74,30.35-2.43,44.73.54,14.41,1.77,28.13,3.6,40.86,3.56,25.49,9.19,47.01,14.17,63.03l-.98.4c-.3-.62-.6-1.23-.86-1.76l-.04-.07v-.07c-.27-1.64-.52-3.22-.74-4.65l.95-.17c1.63,9.14,2.91,16.34,3.81,21.4.39,2.37.7,4.23.93,5.62.2,1.27.28,1.93.23,1.94Z"/>
          </g>
          <path class="st8" d="M192.28,252.27c.29,8.98,7.81,16.01,16.79,15.72,8.98-.29,16.01-7.81,15.72-16.79-.29-8.98-7.81-16.01-16.79-15.72-8.98.29-16.01,7.81-15.72,16.79Z"/>
        </g>
        <g>
          <path class="st1" d="M430.98,424.52c.1,0,.3,1.28.6,3.73.3,2.76.68,6.33,1.15,10.76,1.03,9.35,1.96,22.92,2.84,39.7,1.73,33.58,1.68,80.06,0,131.28-1.67,51.24-3.04,97.59-2.58,131.16.18,16.77.5,30.36.93,39.73.14,4.45.26,8.04.35,10.81.05,2.47.02,3.78-.08,3.78-.1,0-.27-1.28-.51-3.74-.23-2.77-.53-6.34-.89-10.78-.78-9.37-1.41-22.96-1.86-39.76-.99-33.61.06-80.06,1.73-131.28,1.68-51.21,2.05-97.57.85-131.11-.61-16.76-1.23-30.33-1.91-39.7-.25-4.45-.45-8.03-.61-10.8-.11-2.47-.11-3.78-.01-3.79Z"/>
          <g>
            <path class="st4" d="M163.21,443.14l39.88,315.23,215.72,15.46,13.97,7.12-14.24-260.46-74.9-178.07-7.52-4.58s-6.28,52.64-26.55,51.75c-13.81-.6-66.01-25.39-77.49-33.09l-11.52-33.52-57.35,120.17Z"/>
            <g>
              <path class="st2" d="M117.34,818.74l45.87-105.21-44.44-336.75,77.36-32.42,25.34-27.34s23.52,86.87,30.86,117.3c7.35,30.43,28.34,97.33,37.71,157.3,9.37,59.97-2.76,173.53-12.08,211.9-9.31,38.38-47.01,228.31-47.01,228.31H57.79s27.98-146.5,59.54-213.09Z"/>
              <path class="st2" d="M336.83,319.13l18.35,18.7,68.36,24.04s20.13,78.85,20.93,103.15c.8,24.3-.37,293.96.04,306.64.42,12.68,48.45,248.47,44.58,259.17h-46.86s-25.17-193.76-26.84-244.46c-1.67-50.71-7.87-175.29-20.45-236.21-12.58-60.92-58.87-210.77-58.87-210.77l.77-20.25Z"/>
              <path class="st1" d="M417.45,814.63s-.09-.43-.14-1.26c-.04-.99-.08-2.21-.14-3.7-.06-3.48-.15-8.23-.26-14.23-.13-12.6-.31-30.42-.53-52.35-.42-44.2-.64-105.26-1.75-172.67-.2-8.42-.35-16.75-.7-24.93-.22-8.12-1.39-16.12-2.26-24.05-1.79-15.8-3.56-31.03-5.51-45.49-1.95-14.46-4.06-28.17-6.66-40.86-2.56-12.68-6.66-24.02-10.98-34.15-8.73-20.23-17.57-35.82-23.69-46.53-3.04-5.17-5.45-9.27-7.21-12.26-.76-1.28-1.38-2.33-1.88-3.19-.41-.73-.61-1.11-.57-1.13.04-.03.31.31.8.98.57.82,1.26,1.82,2.11,3.05,1.81,2.71,4.43,6.73,7.65,12.01,6.41,10.57,15.52,26.04,24.54,46.31,4.45,10.13,8.74,21.64,11.42,34.44,2.71,12.76,4.91,26.5,6.93,40.99,2.03,14.49,3.85,29.73,5.68,45.53.88,7.88,2.07,15.91,2.31,24.23.35,8.23.51,16.56.71,25,1.12,67.45,1.03,128.51.96,172.72-.14,21.93-.25,39.75-.33,52.35-.1,6-.18,10.76-.24,14.23-.05,1.49-.1,2.71-.13,3.7-.05.83-.09,1.26-.14,1.26Z"/>
            </g>
          </g>
          <path class="st1" d="M288.91,717.35c-.09.01-.35-1.29-.72-3.78-.36-2.49-.81-6.17-1.29-10.92-.93-9.5-1.99-23.29-2.25-40.38-.14-8.54-.08-17.9.27-27.94.1-9.87-2.15-20.36-4.99-31.21-6.23-21.63-15.77-44.67-26.58-68.45-10.96-23.76-22.23-46.03-32.66-66.21-5.08-10.13-10.56-19.53-13.98-29.16-3.45-9.54-5.78-18.64-7.78-26.96-3.94-16.66-6.23-30.3-7.74-39.73-.74-4.72-1.25-8.39-1.55-10.88-.3-2.5-.4-3.81-.31-3.83.09-.01.37,1.28.85,3.75.52,2.71,1.2,6.3,2.05,10.8,1.83,9.36,4.4,22.94,8.57,39.47,2.11,8.25,4.55,17.29,8.03,26.66,3.41,9.34,8.94,18.7,14.09,28.82,10.56,20.13,21.92,42.41,32.91,66.23,10.84,23.85,20.35,47.01,26.51,68.88,2.81,11,5.03,21.65,4.82,31.91-.44,10-.62,19.33-.6,27.84.02,17.03.79,30.81,1.39,40.32.33,4.56.59,8.2.79,10.95.19,2.5.27,3.82.17,3.83Z"/>
          <path class="st1" d="M434.91,409.73c.08-.04.73,1.06,1.89,3.21,1.21,2.12,2.76,5.38,4.67,9.61,3.75,8.49,8.26,21.23,11.7,37.49,3.45,16.25,5.61,36.02,5.64,57.98-.08,21.95-1.79,46-3.98,71.15-4.66,50.3-7.6,95.88-8.59,128.96-.58,16.53-.91,29.91-1.11,39.16-.13,4.41-.24,7.94-.32,10.65-.1,2.43-.2,3.71-.3,3.71-.09,0-.18-1.28-.25-3.72-.05-2.71-.11-6.25-.19-10.66-.13-9.26-.09-22.65.25-39.21.5-33.11,3.14-78.84,7.8-129.13,2.19-25.14,3.97-49.11,4.19-70.93.1-21.8-1.84-41.42-5.02-57.59-3.17-16.18-7.36-28.91-10.79-37.47-1.76-4.27-3.14-7.58-4.19-9.77-1-2.22-1.48-3.41-1.4-3.45Z"/>
        </g>
      </g>
      <g>
        <path class="st13" d="M305.8,229.17c-2.45,3.71-2.69,9.05-2.47,13.49.13,2.65.85,5.41,2.71,7.31,1.77,1.8,4.38,2.59,6.91,2.55s4.97-.85,7.28-1.88c4.34-2.43,7.35-7.06,9.83-12.58-6.36-2.2-17.56-6.77-24.26-8.89Z"/>
        <path class="st1" d="M321.45,249.96c.25.05-2.59,3.33-8.87,3.17-1.52-.13-3.17-.51-4.8-1.34-1.68-.8-3.14-2.36-4.07-4.18-.96-1.83-1.38-4.06-1.33-6.22.02-2.16.3-4.35.73-6.56.44-2.1.93-4.11,1.85-6.07l.36-.76.76.28c6.91,2.58,12.94,4.91,17.23,6.66,4.29,1.75,6.83,2.9,6.75,3.12-.08.22-2.75-.54-7.14-1.97-4.39-1.43-10.48-3.54-17.4-6.03l1.12-.47c-.75,1.63-1.26,3.62-1.66,5.61-.77,4.21-1.3,8.47.3,11.63,1.46,3.31,4.75,4.57,7.44,4.97,2.69.33,4.99-.33,6.44-.85,1.47-.55,2.19-1.1,2.29-.98Z"/>
      </g>
    </g>
    <g>
      <g>
        <g>
          <g>
            <path class="st5" d="M709.67,759.3l-250.55-56.15c-6.08-1.36-9.91-7.4-8.54-13.48l81.77-364.85c1.36-6.08,7.4-9.91,13.48-8.54l250.55,56.15c6.08,1.36,9.91,7.4,8.54,13.48l-81.77,364.85c-1.36,6.08-7.4,9.91-13.48,8.54Z"/>
            <path class="st1" d="M709.67,759.3s.29.04.86.13c.57.09,1.43.15,2.56.07,1.13-.11,2.53-.4,4.04-1.15,1.49-.75,3.1-1.97,4.33-3.81.63-.91,1.12-1.99,1.46-3.17.33-1.19.57-2.48.88-3.81.6-2.67,1.25-5.6,1.95-8.76,1.41-6.33,3.04-13.64,4.87-21.86,7.35-32.9,17.99-80.5,31.14-139.32,6.58-29.41,13.79-61.62,21.53-96.2,3.87-17.29,7.87-35.17,12-53.59,2.06-9.21,4.15-18.55,6.28-28.03,1.05-4.73,2.12-9.5,3.18-14.3.48-2.36.1-4.87-.97-7.04-1.11-2.15-2.91-3.96-5.12-4.99-1.1-.53-2.28-.81-3.51-1.07-1.22-.27-2.44-.55-3.66-.82-2.45-.55-4.9-1.1-7.36-1.65-4.92-1.1-9.87-2.21-14.85-3.32-9.95-2.23-20.02-4.48-30.2-6.76-20.35-4.56-41.13-9.21-62.29-13.95-42.31-9.48-86.11-19.3-130.98-29.35-2.74-.62-5.7-.15-8.1,1.3-2.41,1.43-4.22,3.81-4.94,6.51-1.3,5.54-2.51,11.12-3.76,16.65-2.48,11.08-4.95,22.09-7.4,33.01-4.9,21.85-9.73,43.39-14.47,64.55-9.49,42.32-18.64,83.13-27.36,122.02-8.72,38.88-17.01,75.83-24.77,110.41-.97,4.32-1.93,8.61-2.88,12.85-.46,2.12-.98,4.24-1.4,6.34-.39,2.08-.14,4.26.66,6.19.8,1.94,2.17,3.62,3.86,4.82.86.59,1.79,1.06,2.76,1.41.98.31,2.01.52,3.04.75,4.09.92,8.15,1.83,12.16,2.73,16.05,3.6,31.45,7.06,46.15,10.36,58.8,13.22,106.38,23.91,139.27,31.3,16.44,3.71,29.2,6.58,37.86,8.54,4.32.98,7.62,1.73,9.84,2.23,2.22.51,3.35.78,3.35.78,0,0-1.14-.24-3.36-.72-2.22-.49-5.53-1.22-9.85-2.18-8.66-1.93-21.43-4.77-37.88-8.44-32.9-7.35-80.49-17.99-139.31-31.13-14.7-3.29-30.11-6.74-46.16-10.33-4.01-.9-8.07-1.81-12.16-2.72-1.02-.23-2.05-.44-3.08-.76-1.01-.36-1.98-.84-2.87-1.46-1.76-1.25-3.18-2.99-4.01-5.01-.83-2.01-1.1-4.27-.7-6.43.43-2.13.93-4.23,1.4-6.36.95-4.25,1.91-8.53,2.88-12.86,7.74-34.58,16.02-71.53,24.72-110.42,8.71-38.89,17.85-79.71,27.33-122.02,4.74-21.16,9.57-42.69,14.46-64.55,2.45-10.93,4.92-21.93,7.4-33.01,1.26-5.54,2.46-11.09,3.77-16.68.76-2.83,2.66-5.33,5.19-6.83,2.51-1.52,5.62-2.02,8.49-1.37,44.86,10.06,88.67,19.88,130.98,29.36,21.15,4.74,41.93,9.4,62.28,13.97,10.18,2.28,20.24,4.54,30.2,6.77,4.98,1.12,9.93,2.23,14.84,3.33,2.46.55,4.91,1.1,7.36,1.65,1.22.27,2.44.55,3.66.82,1.21.26,2.47.56,3.62,1.11,2.31,1.08,4.19,2.98,5.35,5.22,1.12,2.26,1.52,4.89,1.02,7.36-1.07,4.8-2.14,9.57-3.19,14.31-2.12,9.47-4.22,18.81-6.29,28.02-4.13,18.42-8.14,36.3-12.02,53.59-7.76,34.58-14.99,66.78-21.59,96.19-13.22,58.8-23.91,106.39-31.3,139.28-1.85,8.22-3.5,15.52-4.92,21.85-.71,3.16-1.37,6.09-1.98,8.76-.32,1.33-.56,2.61-.9,3.81-.35,1.19-.84,2.28-1.49,3.2-1.25,1.85-2.87,3.08-4.38,3.83-1.52.74-2.94,1.03-4.07,1.13-1.14.06-2,0-2.57-.1-.57-.1-.85-.16-.85-.16Z"/>
          </g>
          <g class="st3">
            <polygon points="476.12 696.86 704.96 746.84 717.48 703.26 716.45 675.06 482.27 659.71 476.12 696.86"/>
          </g>
          <g class="st3">
            <polygon points="739.71 360.55 741.45 377.13 739.76 384.69 733.89 383.37 739.71 360.55"/>
          </g>
          <g>
            <polygon class="st4" points="543.22 332.26 463.57 687.65 711.83 743.29 726.07 679.74 791.48 387.9 543.22 332.26"/>
            <path class="st1" d="M543.22,332.26c1.77.4,97.36,21.73,248.31,55.42l.22.05-.05.22c-22.12,98.77-49.73,222.02-79.59,355.36v.03s-.07.27-.07.27l-.27-.06c-88.75-19.9-173.02-38.8-248.25-55.66l-.24-.05.05-.24c47.17-209.8,79.41-353.16,79.89-355.33-.48,2.16-32.52,145.57-79.41,355.44l-.19-.3c75.23,16.85,159.51,35.73,248.26,55.62l-.33.21v-.03c29.91-133.33,57.55-256.58,79.7-355.34l.17.26c-150.88-33.95-246.44-55.46-248.21-55.86Z"/>
          </g>
        </g>
        <g>
          <path class="st1" d="M613.22,335.6h123.87c1.34,0,2.43,1.09,2.43,2.43v34.91h-128.73v-34.91c0-1.34,1.09-2.43,2.43-2.43Z" transform="translate(93.82 -139.08) rotate(12.63)"/>
          <polygon class="st1" points="698.29 325.93 666.32 318.76 663.92 347 688 352.4 698.29 325.93"/>
          <path class="st8" d="M733.97,348.32c-.03.15-24.57-5.23-54.79-12-30.24-6.78-54.71-12.39-54.68-12.53.03-.15,24.56,5.23,54.8,12,30.23,6.77,54.71,12.39,54.67,12.53Z"/>
          <path class="st8" d="M612.39,353.16c-.15-.03.89-5.21,2.32-11.57,1.42-6.36,2.7-11.48,2.84-11.45.15.03-.89,5.21-2.32,11.57-1.42,6.36-2.7,11.48-2.84,11.45Z"/>
          <path class="st8" d="M731.74,377.04c-.15-.03.78-4.74,2.08-10.51,1.29-5.77,2.46-10.42,2.61-10.39.15.03-.78,4.74-2.08,10.51-1.29,5.77-2.46,10.42-2.61,10.39Z"/>
          <path class="st8" d="M724.6,380.53c-.03.15-25.22-5.37-56.24-12.33-31.04-6.96-56.16-12.71-56.13-12.86.03-.15,25.21,5.37,56.25,12.33,31.03,6.95,56.16,12.71,56.12,12.86Z"/>
        </g>
      </g>
      <path class="st1" d="M620.72,445.94c-.03.15-17.04-3.54-37.97-8.23-20.94-4.69-37.89-8.62-37.86-8.76.03-.15,17.03,3.54,37.98,8.23,20.94,4.69,37.89,8.62,37.85,8.76Z"/>
      <path class="st1" d="M741.15,486.87c-.03.15-44.38-9.67-99.03-21.91-54.67-12.25-98.95-22.3-98.92-22.45.03-.15,44.37,9.66,99.04,21.92,54.65,12.25,98.94,22.3,98.91,22.45Z"/>
      <path class="st1" d="M738.41,499.08c-.03.15-44.38-9.66-99.03-21.91-54.67-12.25-98.95-22.3-98.92-22.45.03-.15,44.37,9.66,99.04,21.92,54.65,12.25,98.94,22.3,98.91,22.45Z"/>
      <path class="st1" d="M735.67,511.3c-.03.15-44.38-9.67-99.03-21.91-54.67-12.25-98.95-22.3-98.92-22.45.03-.15,44.37,9.66,99.04,21.92,54.65,12.25,98.94,22.3,98.91,22.45Z"/>
      <path class="st1" d="M732.94,523.51c-.03.15-44.38-9.66-99.03-21.91-54.67-12.25-98.95-22.3-98.92-22.45.03-.15,44.37,9.66,99.04,21.92,54.65,12.25,98.94,22.3,98.91,22.45Z"/>
      <path class="st1" d="M730.2,535.72c-.03.15-44.38-9.66-99.03-21.91-54.67-12.25-98.95-22.3-98.92-22.45.03-.15,44.37,9.66,99.04,21.92,54.65,12.25,98.94,22.3,98.91,22.45Z"/>
      <path class="st1" d="M549.17,545.59s.02-.16.07-.42c.06-.31.14-.69.24-1.18.22-1.07.53-2.54.92-4.39.82-3.79,1.97-9.12,3.35-15.49l.18.28c-6.24-1.39-13.59-3.02-21.44-4.77-.07.04.62-.39.32-.2h0s0,.02,0,.02v.02s-.02.05-.02.05l-.02.09-.04.18-.08.37-.16.73c-.11.49-.22.97-.33,1.45-.22.96-.43,1.92-.64,2.86-.43,1.89-.84,3.74-1.25,5.54-.82,3.59-1.59,6.99-2.29,10.1l-.18-.28c6.35,1.47,11.66,2.71,15.44,3.58,1.84.44,3.31.79,4.37,1.04.48.12.86.21,1.16.29.27.07.41.11.41.12,0,.01-.12,0-.37-.06-.3-.06-.67-.13-1.13-.23-1.05-.22-2.51-.53-4.34-.91-3.83-.83-9.2-1.99-15.64-3.38l-.23-.05.05-.23c.69-3.12,1.44-6.52,2.24-10.12.4-1.8.81-3.65,1.23-5.54.21-.95.42-1.9.64-2.87.11-.48.22-.97.33-1.45l.16-.73.08-.37.04-.18.02-.09v-.05s.02-.02.02-.02h0s0-.02,0-.02c-.29.18.4-.26.33-.21,7.84,1.77,15.18,3.43,21.42,4.84l.23.05-.05.23c-1.49,6.41-2.73,11.77-3.62,15.58-.43,1.82-.78,3.27-1.03,4.31-.11.46-.21.83-.28,1.12-.07.25-.1.37-.11.36Z"/>
      <rect class="st5" x="563.1" y="548.68" width="153.19" height="12.78" transform="translate(136.88 -126.46) rotate(12.63)"/>
      <path class="st1" d="M540.84,582.76s.02-.16.07-.42c.06-.31.14-.69.24-1.18.22-1.07.53-2.54.92-4.39.82-3.79,1.97-9.12,3.35-15.49l.18.28c-6.24-1.39-13.59-3.02-21.44-4.77-.07.04.62-.39.32-.2h0s0,.02,0,.02v.02s-.02.05-.02.05l-.02.09-.04.18-.08.37-.16.73c-.11.49-.22.97-.33,1.45-.22.96-.43,1.92-.64,2.86-.43,1.89-.84,3.74-1.25,5.54-.82,3.59-1.59,6.99-2.29,10.1l-.18-.28c6.35,1.47,11.66,2.71,15.44,3.58,1.84.44,3.31.79,4.37,1.04.48.12.86.21,1.16.29.27.07.41.11.41.12,0,.01-.12,0-.37-.06-.3-.06-.67-.13-1.13-.23-1.05-.22-2.51-.53-4.34-.91-3.83-.83-9.2-1.99-15.64-3.38l-.23-.05.05-.23c.69-3.12,1.44-6.52,2.24-10.12.4-1.8.81-3.65,1.23-5.54.21-.95.42-1.9.64-2.87.11-.48.22-.97.33-1.45l.16-.73.08-.37.04-.18.02-.09v-.05s.02-.02.02-.02h0s0-.02,0-.02c-.29.18.4-.26.33-.21,7.84,1.77,15.18,3.43,21.42,4.84l.23.05-.05.23c-1.49,6.41-2.73,11.77-3.62,15.58-.43,1.82-.78,3.27-1.03,4.31-.11.46-.21.83-.28,1.12-.07.25-.1.37-.11.36Z"/>
      <rect class="st5" x="554.77" y="585.86" width="153.19" height="12.78" transform="translate(144.81 -123.74) rotate(12.63)"/>
      <path class="st1" d="M532.51,619.94s.02-.16.07-.42c.06-.31.14-.69.24-1.18.22-1.07.53-2.54.92-4.39.82-3.79,1.97-9.12,3.35-15.49l.18.28c-6.24-1.39-13.59-3.02-21.44-4.77-.07.04.62-.39.32-.2h0s0,.02,0,.02v.02s-.02.05-.02.05l-.02.09-.04.18-.08.37-.16.73c-.11.49-.22.97-.33,1.45-.22.96-.43,1.92-.64,2.86-.43,1.89-.84,3.74-1.25,5.54-.82,3.59-1.59,6.99-2.29,10.1l-.18-.28c6.35,1.47,11.66,2.71,15.44,3.58,1.84.44,3.31.79,4.37,1.04.48.12.86.21,1.16.29.27.07.41.11.41.12,0,.01-.12,0-.37-.06-.3-.06-.67-.13-1.13-.23-1.05-.22-2.51-.53-4.34-.91-3.83-.83-9.2-1.99-15.64-3.38l-.23-.05.05-.23c.69-3.12,1.44-6.52,2.24-10.12.4-1.8.81-3.65,1.23-5.54.21-.95.42-1.9.64-2.87.11-.48.22-.97.33-1.45l.16-.73.08-.37.04-.18.02-.09v-.05s.02-.02.02-.02h0s0-.02,0-.02c-.29.18.4-.26.33-.21,7.84,1.77,15.18,3.43,21.42,4.84l.23.05-.05.23c-1.49,6.41-2.73,11.77-3.62,15.58-.43,1.82-.78,3.27-1.03,4.31-.11.46-.21.83-.28,1.12-.07.25-.1.37-.11.36Z"/>
      <rect class="st5" x="546.44" y="623.03" width="153.19" height="12.78" transform="translate(152.73 -121.02) rotate(12.63)"/>
      <polygon class="st2" points="533.81 529.87 537.34 527.63 541.81 533.83 555.1 525.76 557.13 529.25 540.14 539.31 533.81 529.87"/>
      <polygon class="st2" points="525.76 565.8 529.29 563.56 533.75 569.76 547.05 561.69 549.08 565.18 532.09 575.24 525.76 565.8"/>
      <polygon class="st2" points="517.5 602.64 521.04 600.4 525.5 606.6 538.79 598.53 540.82 602.02 523.83 612.08 517.5 602.64"/>
      <rect class="st5" x="565.57" y="388.18" width="103.99" height="19.54" transform="translate(101.98 -125.43) rotate(12.63)"/>
    </g>
    <g>
      <g>
        <path class="st9" d="M755.72,636.53c2.37,1.49,3.95,1.53,5.17,4.06,1.22,2.52,1.4,5.64.04,8.09-1.37,2.45-4.43,3.97-7.11,3.15,3.02,3.09,3.8,8.14,1.86,12-1.17,2.32-3.27,4.11-5.68,5.03-1.22.47-2.49.7-3.79.71-.46,0-1.02.07-1.47-.09-.22-.08-.39-.22-.56-.37-.78-.7-1.43-1.53-2.26-2.18-.31-.25-.64-.48-.97-.71-1.51-1.02-3.19-1.77-4.92-2.33-.8-.26-1.72-.36-2.47-.73-.5-.25-.85-.72-1.3-1.05-2.86-2.11-6.71-2.74-10.09-3.46-3.82-.82-7.84-1.86-10.58-4.64-2.75-2.78-3.53-7.86-.6-10.45-2.49-.11-4.47-2.57-4.5-5.05-.03-2.49,1.57-4.8,3.69-6.11,2.12-1.31,4.67-1.73,7.16-1.75-2.87-.53-4.62-3.92-3.96-6.77.66-2.85,3.19-4.99,5.97-5.89,2.78-.9,5.79-.76,8.68-.39,2.9.37,12.18,1.09,15.1,1.03l10.5,2.21c6.1,1.28,9.26,8.57,5.44,13.5-.9,1.15-2.03,1.98-3.33,2.21Z"/>
        <path class="st9" d="M745.99,679.96c-.49,2.36-1.61,4.79-3.73,5.92-2.52,1.34-4.01,1.38-6.73.49-.1-3.33-.52-5.61-1.18-9.18-.13-.7-.51-1.23-.77-1.9-.69-1.76-4.33-2.4-5.91-3.43-2.75-1.79-3.27-6-1.43-8.71,1.84-2.71,3.81-3.36,7.02-2.73,3.22.63,8.11,3.46,10.04,6.11,3.02,4.14,3.74,8.42,2.69,13.43Z"/>
        <path class="st13" d="M754.77,652.01c.05-.27-9.71-2.39-21.8-4.72-12.09-2.34-21.94-4.01-21.99-3.74-.05.27,9.7,2.39,21.8,4.72,12.09,2.34,21.93,4.01,21.99,3.74Z"/>
        <path class="st13" d="M756.4,636.6c.03-.13-2.11-.85-5.66-1.77-3.54-.92-8.49-2.01-14.01-2.88-5.52-.87-10.57-1.35-14.22-1.56-3.66-.21-5.92-.18-5.93-.05,0,.15,2.24.37,5.87.76,3.63.39,8.63.98,14.12,1.84,5.49.87,10.43,1.84,14,2.58,3.57.74,5.78,1.22,5.82,1.08Z"/>
      </g>
      <path class="st13" d="M754.64,620.51c.02-.07-1.61-.42-4.27-.86-2.67-.44-6.38-.96-10.48-1.43-4.1-.47-7.82-.84-10.51-1.1-2.69-.26-4.36-.4-4.37-.33-.01.07,1.64.34,4.32.7,2.68.36,6.39.79,10.49,1.26,4.09.47,7.79.92,10.47,1.27,2.68.35,4.33.57,4.35.49Z"/>
      <path class="st13" d="M745.63,674.91c.09.05.65-1.43.09-3.78-.5-2.33-2.41-5.29-5.43-7.29-1.48-1.02-3.01-1.78-4.42-2.39-1.41-.59-2.67-1.16-3.88-1.37-1.2-.23-2.23,0-2.82.34-.61.33-.8.68-.76.72.05.13,1.26-.96,3.44-.36,1.05.27,2.28.89,3.64,1.52,1.36.65,2.82,1.41,4.23,2.38,2.87,1.9,4.67,4.53,5.32,6.65.69,2.13.42,3.57.59,3.59Z"/>
    </g>
    <g>
      <path class="st9" d="M524.96,644.21s10.87-11.95-6.74-15.37c-17.61-3.42-106.99-1.84-138.77,8.46l-43.12,7.33,7.57,70.85,26.92-6.2s56.87,8.61,64.25,9.73c7.39,1.12,29.96-8.31,12.1-20.08,0,0,21.21-10.39,5.17-24.15,0,0,15.6-8.22,2.95-24.48l69.67-6.07Z"/>
      <polygon class="st12" points="328.98 642.04 345.71 640.69 343.85 716.7 327.55 720.06 328.98 642.04"/>
      <g>
        <path class="st2" d="M120.02,375.05s-40.8,14.03-49.28,70.01c-9.23,60.96,14.83,167.26,15.84,205.81.74,28.47,19.43,94.1,80.2,91.84,85.04-3.17,163.2-21.76,163.2-21.76l-.28-79.81-144.53.1-14.35-135.44"/>
        <path class="st1" d="M170.83,505.79s.15.79.35,2.36c.2,1.63.47,3.94.83,6.95.7,6.18,1.71,15.19,3.02,26.81,2.55,23.39,6.24,57.23,10.82,99.26l-.67-.6c40.59-.09,89.78-.19,144.53-.31h.88s0,.88,0,.88c.11,25.33.22,52.08.33,79.81v.75s-.72.16-.72.16c-36.51,8.2-75.94,14.58-116.86,18.64-16.49,1.55-32.78,2.7-48.94,3.18-8.13.06-16.28-1.09-23.88-3.75-7.57-2.71-14.64-6.7-20.64-11.84-12.14-10.23-20.3-23.95-25.79-37.95-5.44-14.07-8.38-28.84-8.63-43.21-.87-14.23-2.93-28.07-4.73-41.5-1.86-13.44-3.66-26.49-5.41-39.11-3.31-25.27-5.97-48.89-6.89-70.57-.91-21.65-.35-41.44,3.25-58.37.35-2.14.98-4.17,1.56-6.17.6-2,1.11-3.98,1.76-5.88,1.52-3.72,2.68-7.42,4.47-10.68,3.08-6.75,7.05-12.3,10.75-17.11,7.76-9.4,15.49-15.1,21-18.29,2.75-1.64,4.96-2.67,6.46-3.32,1.5-.65,2.32-.86,2.32-.86,0,0-.77.34-2.24,1.04-1.47.71-3.64,1.79-6.34,3.48-5.42,3.28-13.01,9.05-20.62,18.43-3.62,4.8-7.5,10.33-10.51,17.04-1.75,3.24-2.87,6.92-4.35,10.61-.63,1.88-1.12,3.86-1.7,5.84-.57,1.99-1.18,4-1.51,6.12-3.46,16.8-3.94,36.5-2.94,58.08,1.01,21.61,3.74,45.19,7.12,70.42,1.78,12.61,3.61,25.66,5.5,39.09,1.83,13.45,3.92,27.27,4.82,41.64.27,14.29,3.19,28.73,8.57,42.63,5.42,13.79,13.46,27.23,25.29,37.17,5.84,5,12.7,8.86,20.05,11.49,7.38,2.58,15.29,3.69,23.23,3.63,16.02-.48,32.34-1.63,48.77-3.18,40.81-4.05,80.22-10.41,116.61-18.54l-.72.92c-.08-27.72-.15-54.48-.22-79.81l.88.88c-54.75-.04-103.94-.08-144.53-.11h-.61s-.06-.6-.06-.6c-4.33-42.06-7.81-75.92-10.22-99.33-1.15-11.63-2.05-20.65-2.66-26.84-.28-3.02-.49-5.33-.64-6.97-.13-1.57-.15-2.38-.15-2.38Z"/>
      </g>
      <path class="st1" d="M170.11,679.45c-.45.12-1.48-9.79,2.96-20.91,4.34-11.17,11.86-17.71,12.1-17.31.47.39-6.15,7.28-10.3,18.02-4.28,10.68-4.15,20.23-4.77,20.2Z"/>
      <path class="st1" d="M155.23,464.22c-.3.05-1.04-3.69-2.6-9.62-1.55-5.93-4.08-14.02-7.79-22.59-3.73-8.56-7.93-15.93-11.2-21.11-3.27-5.19-5.5-8.28-5.26-8.47.18-.15,2.8,2.66,6.4,7.71,3.6,5.04,8.05,12.41,11.84,21.1,3.77,8.69,6.12,16.98,7.35,23.04,1.23,6.07,1.5,9.9,1.27,9.94Z"/>
    </g>
  </g>
  <g>
    <path class="st11" d="M753.14,434.76l-7.05-10.9,11.03-6.85,6.62,10.24c.24.36.13.84-.24,1.07l-10.36,6.44Z"/>
    <polygon class="st0" points="749.62 429.31 746.1 423.86 751.61 420.43 755.13 425.88 749.62 429.31"/>
    <path class="st10" d="M758.66,431.33l4.85-3.01c.37-.23.48-.71.24-1.07l-3.1-4.79-5.51,3.43,3.52,5.45Z"/>
    <path class="st11" d="M729.15,429.38l11.03-6.85-7.05-10.9-10.36,6.44c-.37.23-.48.71-.24,1.07l6.62,10.24Z"/>
    <polygon class="st0" points="734.66 425.96 740.18 422.53 736.65 417.08 731.14 420.5 734.66 425.96"/>
    <path class="st10" d="M725.62,423.93l-3.1-4.79c-.24-.36-.13-.84.24-1.07l4.85-3.01,3.52,5.45-5.51,3.43Z"/>
    <path class="st11" d="M749.33,437.18l-6.85-11.03-10.9,7.05,6.44,10.36c.23.37.71.48,1.07.24l10.24-6.62Z"/>
    <polygon class="st0" points="745.9 431.67 742.47 426.15 737.02 429.68 740.45 435.19 745.9 431.67"/>
    <path class="st10" d="M743.87,440.7l-4.79,3.1c-.36.24-.84.13-1.07-.24l-3.01-4.85,5.45-3.52,3.43,5.51Z"/>
    <path class="st15" d="M736.95,409.21l6.85,11.03,10.9-7.05-6.44-10.36c-.23-.37-.71-.48-1.07-.24l-10.24,6.62Z"/>
    <polygon class="st14" points="740.37 414.72 743.8 420.23 749.25 416.71 745.82 411.19 740.37 414.72"/>
    <path class="st7" d="M742.4,405.68l4.79-3.1c.36-.24.84-.13,1.07.24l3.01,4.85-5.45,3.52-3.43-5.51Z"/>
  </g>
</svg>
