<?xml version="1.0" encoding="UTF-8"?>
<svg id="Capa_1" xmlns="http://www.w3.org/2000/svg" version="1.1" viewBox="0 0 720.41 900">
  <!-- Generator: Adobe Illustrator 30.2.1, SVG Export Plug-In . SVG Version: 2.1.1 Build 1)  -->
  <defs>
    <style>
      .st0 {
        fill: #fafafa;
      }

      .st1 {
        fill: #263238;
      }

      .st2 {
        opacity: .3;
      }

      .st3 {
        fill: #8f8f8f;
      }

      .st4 {
        fill: #fff;
      }

      .st5 {
        fill: #455a64;
      }

      .st6 {
        fill: #bd0043;
      }

      .st7 {
        fill: #ff9a6c;
      }

      .st8 {
        fill: #ffc09d;
      }

      .st9 {
        fill: #714b67;
      }
    </style>
  </defs>
  <g>
    <g>
      <path class="st0" d="M531.55,189.23l17.51-30.86c-7.75-12.57-12.22-27.37-12.22-43.22,0-45.58,36.95-82.53,82.53-82.53s82.53,36.95,82.53,82.53-36.95,82.53-82.53,82.53c-19.03,0-36.55-6.46-50.51-17.28l.03.04-37.34,8.79Z"/>
      <path class="st1" d="M531.55,189.23c1.79-.43,13.56-3.29,37.28-9.04l-.15.41-.03-.04-1.2-1.55,1.56,1.19c4.7,3.59,10.32,7.13,16.92,10.07,6.6,2.89,14.15,5.24,22.48,6.32,4.16.51,8.5.84,12.96.61,2.23-.13,4.5-.19,6.78-.39,2.27-.35,4.57-.7,6.91-1.06,9.25-1.85,18.7-5.39,27.51-10.88,8.8-5.47,16.95-12.89,23.47-21.99,6.51-9.09,11.45-19.85,13.75-31.54,2.28-11.67,2.08-24.19-.99-36.29-3.09-12.06-8.86-23.84-17.49-33.53l-3.33-3.66c-1.09-1.23-2.4-2.25-3.59-3.38-1.24-1.07-2.36-2.28-3.7-3.23l-3.91-2.93c-1.27-1.03-2.66-1.85-4.05-2.68-1.38-.84-2.76-1.68-4.14-2.51-1.45-.7-2.89-1.4-4.33-2.1-1.45-.67-2.85-1.47-4.37-1.95-11.84-4.71-24.48-6.51-36.56-5.65-12.09.86-23.65,4.31-33.59,9.88-9.96,5.53-18.38,12.91-24.88,21.17-6.52,8.26-11.13,17.38-14,26.47-2.85,9.13-3.64,18.2-3.64,26.6.21,8.42,1.71,16.19,3.91,23.02,2.21,6.84,5.12,12.73,8.12,17.7l.08.13-.07.13c-11.32,19.62-16.84,29.21-17.72,30.73.86-1.54,6.25-11.2,17.29-30.98v.25c-3.06-4.98-6.02-10.89-8.28-17.77-2.25-6.87-3.8-14.69-4.04-23.19-.03-8.47.74-17.63,3.59-26.86,2.87-9.19,7.5-18.41,14.07-26.78,6.55-8.36,15.05-15.85,25.12-21.45,10.04-5.65,21.74-9.16,33.97-10.04,12.23-.89,25.02.93,37.01,5.69,1.54.49,2.96,1.29,4.43,1.97,1.46.71,2.92,1.42,4.39,2.13,1.39.85,2.79,1.69,4.19,2.54,1.41.84,2.82,1.68,4.1,2.71l3.96,2.96c1.35.96,2.49,2.18,3.74,3.26,1.2,1.14,2.52,2.17,3.63,3.42l3.37,3.71c8.74,9.82,14.57,21.75,17.7,33.96,3.1,12.26,3.3,24.92.97,36.73-2.34,11.83-7.35,22.72-13.96,31.9-6.61,9.2-14.86,16.68-23.78,22.2-8.92,5.53-18.47,9.08-27.82,10.93-2.36.36-4.68.71-6.98,1.05-2.31.19-4.6.25-6.85.38-4.5.22-8.88-.13-13.07-.66-8.4-1.12-16-3.52-22.64-6.47-6.63-2.99-12.27-6.59-16.98-10.24l.36-.36.03.04.24.32-.39.09c-23.8,5.44-35.6,8.13-37.4,8.54Z"/>
    </g>
    <g>
      <path class="st3" d="M665.31,98.76c-8.18,0-14.82,6.63-14.82,14.82s6.63,14.82,14.82,14.82,14.82-6.63,14.82-14.82-6.63-14.82-14.82-14.82ZM665.31,122.46c-4.91,0-8.89-3.98-8.89-8.89s3.98-8.89,8.89-8.89,8.89,3.98,8.89,8.89h0c0,4.91-3.98,8.89-8.89,8.89Z"/>
      <path class="st3" d="M634.2,98.76c-8.18,0-14.82,6.63-14.82,14.82s6.63,14.82,14.82,14.82,14.82-6.63,14.82-14.82-6.63-14.82-14.82-14.82ZM634.2,122.46c-4.91,0-8.89-3.98-8.89-8.89s3.98-8.89,8.89-8.89,8.89,3.98,8.89,8.89h0c0,4.91-3.98,8.89-8.89,8.89Z"/>
      <path class="st9" d="M571.98,98.76c-8.18,0-14.82,6.63-14.82,14.82s6.63,14.82,14.82,14.82,14.82-6.63,14.82-14.82-6.63-14.82-14.82-14.82ZM571.98,122.46c-4.91,0-8.89-3.98-8.89-8.89s3.98-8.89,8.89-8.89,8.89,3.98,8.89,8.89h0c0,4.91-3.98,8.89-8.89,8.89Z"/>
      <path class="st3" d="M614.94,89.84c-1.64,0-2.96,1.33-2.96,2.96v8.89c-6.55-4.91-15.83-3.58-20.74,2.96-4.91,6.55-3.58,15.83,2.96,20.74,6.55,4.91,15.83,3.58,20.74-2.96,1.92-2.56,2.96-5.66,2.96-8.86h0v-20.77c0-1.64-1.33-2.96-2.96-2.96ZM603.09,122.43c-4.91,0-8.89-3.98-8.89-8.89s3.98-8.89,8.89-8.89,8.89,3.98,8.89,8.89h0c0,4.91-3.98,8.89-8.89,8.89Z"/>
    </g>
  </g>
  <g>
    <path class="st1" d="M460.38,211.27c-6.02,14.99-5.84,46,4.17,58.68,5.23,6.63,12.34,11.9,16.05,19.48,4.87,9.94,2.79,22.32-3.31,31.56-6.1,9.24-15.69,15.68-25.78,20.22-11.25,5.07-25.01,7.87-35.51,1.38-8.02-4.96-12.26-14.23-14.83-23.29-7.19-25.4-4.58-52.76,2.89-78.08,7.47-25.31,19.6-48.96,31.67-72.44"/>
    <g>
      <path class="st6" d="M493.79,421.61l53.69-32.78s-40.69-78.56-46.91-81.39c-6.22-2.83-88.44-14.97-88.44-14.97-25.04,39.36-56.38,29.65-87.96,3.4-2.83.57-52.52,11.9-65.52,13.59-13,1.7-50.28,61.28-50.28,61.28l42.44,74.2,3.2,76.88s2.32,54.67-6.66,82.89l224.96,7.3s-3.38-14.72-5.19-35.52c-.83-9.55-3.44-19.08-1.48-31.35,6.22-39,28.15-123.53,28.15-123.53Z"/>
      <g class="st2">
        <path d="M261.64,333.65c-4.26,13.47-5.94,28.22-1.69,41.69,1.97,6.24,5.14,12.01,7.86,17.96,9.26,20.28,13.25,42.95,11.46,65.17-.06.76-.12,1.58.28,2.23.91,1.49,3.16.94,4.74.22,3.39-1.55,6.77-3.09,10.16-4.64,4.39,3.58,5.04,10.66,9.91,13.55,5.15,3.05,11.62-.36,16.46-3.89,10.65-7.79,20.77-16.88,26.94-28.54,4.24-8.01,6.45-16.91,8.63-25.71,1.92-7.76,3.84-15.53,5.04-23.43,4.7-31-2.24-63.62-19.16-90.01"/>
      </g>
      <path class="st1" d="M476.72,345.72s.21.4.49,1.19c.32.93.71,2.08,1.2,3.5,1.04,3.22,2.46,7.6,4.2,12.94,1.75,5.53,3.8,12.04,6.08,19.25,2.19,7.26,4.64,15.31,5.78,24.09,1.1,8.79.38,17.3-1.21,24.75-1.53,7.49-3.78,14-5.76,19.39-2.03,5.39-3.86,9.66-5.14,12.61-.61,1.37-1.12,2.48-1.52,3.37-.36.77-.57,1.16-.61,1.14-.04-.02.1-.44.38-1.24.35-.91.78-2.06,1.31-3.46,1.16-3,2.86-7.32,4.78-12.72,1.87-5.41,4.02-11.91,5.48-19.32,1.52-7.39,2.18-15.75,1.11-24.39-1.12-8.63-3.51-16.65-5.65-23.92-2.18-7.23-4.16-13.76-5.83-19.31-1.58-5.39-2.88-9.81-3.83-13.05-.4-1.44-.72-2.62-.99-3.57-.21-.82-.31-1.26-.27-1.27Z"/>
      <g class="st2">
        <path d="M496.53,413.46c3.57-10.86,2.49-22.85-1.11-33.7-3.61-10.85-9.61-20.73-15.92-30.27,3.15,21.68,13.08,42.06,15.04,63.88"/>
      </g>
      <g class="st2">
        <path d="M313.65,552.23c9.31-13.1,22.88-22.79,37.59-29.26,14.71-6.48,30.59-9.91,46.49-12.22,6.31-.91,13.16-1.56,18.67,1.64,5.51,3.19,8.13,11.82,3.33,16.01-2.42,2.11-5.85,2.48-9.06,2.71-22.04,1.6-45.32,1.68-64.37,12.88-7.53,4.43-14.23,10.53-22.55,13.2-3.77,1.21-9.37.53-9.74-3.41"/>
      </g>
      <path class="st1" d="M426,507.8s-.46.08-1.33.11c-1,.02-2.27.05-3.81.09-.84.01-1.76.02-2.75.03-1.01.07-2.11.14-3.27.22-2.34.18-5.02.26-7.95.71-1.47.18-3.01.38-4.6.57-1.6.23-3.24.57-4.95.87-3.44.53-7.03,1.49-10.83,2.38-7.54,2.04-15.7,4.76-23.99,8.31-8.28,3.59-15.86,7.66-22.6,11.62-3.33,2.05-6.51,3.97-9.37,5.95-2.92,1.89-5.54,3.8-7.94,5.54-2.43,1.69-4.5,3.39-6.38,4.81-1.88,1.41-3.45,2.7-4.72,3.75-1.21.97-2.19,1.76-2.98,2.39-.69.54-1.06.8-1.09.77-.03-.03.29-.36.93-.95.75-.67,1.68-1.52,2.83-2.56,1.23-1.11,2.76-2.45,4.61-3.92,1.84-1.48,3.88-3.22,6.29-4.97,2.37-1.79,4.97-3.74,7.88-5.68,2.85-2.03,6.03-3.99,9.36-6.07,6.74-4.03,14.36-8.16,22.7-11.77,8.35-3.57,16.58-6.29,24.19-8.28,3.84-.86,7.46-1.79,10.93-2.29,1.73-.28,3.39-.61,5-.81,1.61-.17,3.16-.34,4.64-.5,2.95-.39,5.65-.41,8-.53,1.18-.04,2.28-.11,3.29-.12,1,.03,1.92.05,2.77.07,1.55.06,2.82.1,3.82.14.87.04,1.33.09,1.33.13Z"/>
      <g class="st2">
        <path d="M240.19,385.81c-5.83,8.07-6.5,18.99-4.1,28.65,2.4,9.67,7.53,18.4,12.6,26.98.69-8.57.02-17.24-1.97-25.6-2.39-10.04-6.7-19.81-6.68-30.13"/>
      </g>
    </g>
    <g>
      <path class="st1" d="M403.36,76.1c.12-7.31,8.47-12.49,15.68-11.27,7.21,1.22,12.84,7.08,16.22,13.57,3.38,6.48,4.99,13.71,7.53,20.56,6.84,18.44,20.38,34.11,25.29,53.15,3.45,13.37,2.37,27.62-1.24,40.95-3.61,13.33-9.67,25.87-16.19,38.04-3.95,7.37-8.1,14.71-10.66,22.66-2.56,7.96-3.44,16.73-.74,24.64.36,1.07.79,2.26.32,3.29-.72,1.57-2.93,1.63-4.61,1.2-8.41-2.16-14.23-10.42-15.67-18.98-1.44-8.56.76-17.33,3.83-25.45,3.07-8.12,7.01-15.94,9.28-24.32,4.96-18.34,1.51-37.74.65-56.72-.48-10.7-.14-21.51-2.27-32.01s-7.12-20.93-15.99-26.93c-3.45-2.33-7.44-3.97-10.35-6.95-2.91-2.98-4.37-8.05-1.74-11.28"/>
      <g>
        <g>
          <g>
            <path class="st8" d="M410.88,288.54s-.25-11.08-.23-10.96c0,0,32.81-6.25,38.62-49.38,2.89-21.45.99-56.47-1.5-85.07-2.23-25.74-20.06-56.97-45.69-53.65l-79.73,22.17c-7.78,1.01-10.35,7.67-10.01,15.51l-.56,3.69,6.65,122.98,2.27,20.54c1.17,23.37,21.49,48.08,46.56,48.74h0c24.18,1.28,43.95-8.68,43.62-34.58Z"/>
            <g>
              <path class="st1" d="M433.1,170.88c.17,2.91-2.15,5.45-5.18,5.69-3.03.23-5.63-1.93-5.8-4.83-.17-2.91,2.15-5.45,5.18-5.69,3.03-.24,5.63,1.93,5.81,4.84Z"/>
              <path class="st1" d="M440.38,162.72c-.67.73-4.92-2.26-10.85-2.1-5.93.07-10.21,3.22-10.87,2.51-.32-.31.34-1.63,2.2-3.05,1.83-1.42,4.98-2.83,8.68-2.9,3.69-.07,6.83,1.22,8.65,2.57,1.86,1.36,2.51,2.64,2.18,2.97Z"/>
            </g>
            <path class="st1" d="M382.67,173.82c-.67.73-4.92-2.26-10.85-2.1-5.92.07-10.21,3.22-10.87,2.51-.32-.31.33-1.63,2.2-3.05,1.83-1.42,4.98-2.83,8.68-2.9,3.69-.07,6.83,1.22,8.65,2.57,1.85,1.36,2.5,2.64,2.18,2.97Z"/>
            <path class="st1" d="M404.89,207.49c-.04-.34,3.64-1.06,9.59-1.97,1.51-.19,2.94-.53,3.17-1.57.33-1.1-.34-2.72-1.12-4.47-1.51-3.63-3.09-7.44-4.75-11.42-6.61-16.27-11.43-29.67-10.77-29.93.66-.26,6.55,12.72,13.15,28.99,1.59,4.01,3.12,7.84,4.56,11.5.61,1.71,1.65,3.64.93,5.92-.38,1.14-1.47,1.99-2.44,2.27-.96.32-1.82.36-2.56.42-6,.47-9.73.58-9.76.24Z"/>
            <path class="st7" d="M410.65,277.58s-28.87,2.55-57.92-13.99c0,0,15.24,29.99,58.15,24.95l-.23-10.96Z"/>
          </g>
          <path class="st1" d="M382.45,158.81c-.68,1.57-6.55.44-13.55.85-7.01.27-12.73,1.95-13.57.45-.37-.72.7-2.17,3.06-3.59,2.34-1.42,6.02-2.67,10.21-2.88,4.2-.2,7.98.7,10.44,1.89,2.49,1.19,3.69,2.53,3.39,3.28Z"/>
          <path class="st1" d="M439.48,144.43c-1.2,1.38-6.07.09-11.88.16-5.82-.1-10.71,1.16-11.88-.22-.51-.67.23-2.04,2.35-3.37,2.09-1.32,5.61-2.44,9.61-2.44,4,.01,7.49,1.15,9.54,2.48,2.09,1.34,2.79,2.71,2.27,3.38Z"/>
        </g>
        <path class="st7" d="M400.46,219.94c-1.65-2.32-4.55-3.52-7.39-3.71-2.67-.19-6.32,1.55-8.51,4.08-.05.05-.09.1-.14.15-.09.11-.23.2-.31.32l.12-.05c-.79.89-1.37,2.01-1.46,3.2-.2,2.68,1.39,5.25,3.53,6.87,3.41,2.57,8.49,2.95,11.96.47,3.48-2.48,4.68-7.85,2.2-11.32Z"/>
        <path class="st1" d="M385.08,214.2c.34-.03.62,1.37,1.57,3.32.92,1.93,2.69,4.43,5.43,6.07,2.75,1.63,5.78,2.01,7.92,1.9,2.16-.09,3.52-.51,3.66-.19.13.24-1.06,1.25-3.45,1.79-2.34.55-5.98.43-9.3-1.54-3.31-1.98-5.14-5.13-5.77-7.45-.66-2.36-.34-3.88-.07-3.89Z"/>
      </g>
      <path class="st1" d="M411.88,90.17c-.78,4.28,1.52,8.62,4.67,11.61,3.15,2.99,7.11,4.97,10.8,7.27,11.46,7.15,17.1,22.76,22.47,35.16,9.43-17.96-5.08-41.26-17.07-55.3-2.16-2.53-4.53-4.98-7.48-6.52-2.96-1.53-6.61-2.02-9.61-.57"/>
      <path class="st5" d="M449.84,233.59s.14-.56.5-1.59c.41-1.13.96-2.61,1.64-4.46,1.31-3.91,3.25-9.57,4.96-16.74,3.47-14.28,6.03-34.82,3.14-57.16-1.43-11.13-3.81-21.67-7.42-30.68-3.6-9.01-8.74-16.34-14.32-21.08-5.52-4.85-11.15-7.21-15.08-8.28-3.97-1.05-6.29-1.04-6.28-1.18,0-.04.57-.04,1.67.01,1.09.07,2.7.26,4.73.72,4.02.95,9.81,3.23,15.52,8.09,5.77,4.76,11.09,12.19,14.79,21.31,3.71,9.13,6.14,19.73,7.58,30.95,2.92,22.52.2,43.21-3.5,57.51-1.82,7.19-3.89,12.83-5.34,16.7-.77,1.92-1.42,3.39-1.85,4.39-.44,1-.69,1.51-.72,1.5Z"/>
      <path class="st1" d="M453.7,264.51s-.09-.16-.21-.5c-.13-.41-.3-.91-.5-1.52-.38-1.35-.84-3.39-.98-6.07-.41-5.34.92-13.23,5.15-21.83,4.06-8.73,11.47-17.49,18.55-27.78,3.5-5.17,6.86-10.87,8.99-17.3,2.1-6.42,2.99-13.5,2.43-20.65-.56-7.15-2.54-14.01-5.65-20.01-3.12-6.02-7.22-11.2-11.39-15.86-8.4-9.27-16.82-16.99-22.33-24.85-5.65-7.72-8.58-15.09-9.54-20.35-.99-5.27-.53-8.25-.53-8.25.17-.01-.13,2.98.99,8.15,1.09,5.16,4.08,12.37,9.77,19.95,5.53,7.71,13.95,15.31,22.47,24.61,4.22,4.67,8.41,9.91,11.61,16.05,3.2,6.13,5.24,13.14,5.8,20.45.57,7.31-.34,14.54-2.51,21.11-2.2,6.58-5.63,12.35-9.19,17.55-7.2,10.34-14.61,18.97-18.7,27.53-4.27,8.45-5.7,16.17-5.44,21.44.17,5.3,1.42,8.07,1.22,8.11Z"/>
      <path class="st1" d="M404.96,67.65c-7.36-5.22-16.83-6.39-25.85-6.26-24.28.35-48.92,9.63-65.17,27.68-13.68,15.2-33.91,44.47-37.74,64.55-9.32,48.9,21.58,62.6-3.59,138.94-4.54,13.76-10.26,27.2-13.06,41.41-.99,5.01-1.5,10.22-1.4,15.38-2.95,8.94-1.14,19.26,2.5,28.15,4.28,10.43,10.82,19.84,14.91,30.34,4.1,10.51,13.12,27.76,7.1,37.3,8.49-2.27,8.8-11.14,15.53-16.79,1.98,7.54,1.92,15.61-.19,23.12,10.47-.69,20.67-4.93,28.54-11.86,15.72-13.84,20.66-36.07,23.07-56.87,5.26-45.48.12-89.08-11.93-133.25l-.17.21c-8.76-28.25-25.36-54.33-10.45-60.54,25.96-10.83,2.25-22.25,12.14-49.55,3.09-8.52,6.53-17.54,13.81-22.96,8.66-6.44,20.38-6.12,31.16-6.71,10.78-.6,23.02-3.42,28.08-12.96l.66-5.71c3.81-8.17-.58-18.4-7.94-23.62Z"/>
      <path class="st5" d="M287.81,248.43c-.07-.08.89-.45,1.9-1.92,1.03-1.44,1.74-4.1,1.45-7.47-.72-6.77-4.15-16.12-8.61-27.48-2.14-5.72-4.54-12.04-5.81-19.19-1.31-7.08-1.27-15.18,1.67-22.87,2.85-7.67,8.18-14.9,15.57-19.95,7.31-5.28,17.29-6.07,23.4-13.23,6.29-6.8,9.1-15.71,11.81-24,1.37-4.18,2.77-8.3,4.59-12.17,1.79-3.88,3.99-7.46,6.4-10.74,4.87-6.54,10.73-11.8,16.86-15.66,3.07-1.93,6.24-3.51,9.49-4.49,3.24-1.01,6.54-1.3,9.63-1.14,6.21.33,11.54,2.24,16.06,3.99,4.51,1.85,8.36,3.48,11.38,5.13,3.02,1.66,5.02,3.56,6.03,5.08,1.01,1.52,1.21,2.47,1.21,2.47-.07.03-.36-.89-1.41-2.33-1.05-1.44-3.04-3.23-6.05-4.81-3.01-1.56-6.9-3.14-11.4-4.91-4.51-1.68-9.81-3.51-15.86-3.77-3.01-.14-6.19.18-9.32,1.18-3.14.98-6.23,2.54-9.23,4.45-6.01,3.83-11.74,9.03-16.51,15.48-2.36,3.24-4.5,6.76-6.25,10.57-1.78,3.8-3.15,7.88-4.51,12.06-2.7,8.28-5.52,17.37-12.05,24.45-3.18,3.57-7.45,5.95-11.68,7.61-4.24,1.7-8.37,3.29-11.94,5.77-7.18,4.89-12.4,11.91-15.2,19.37-2.89,7.47-2.98,15.33-1.73,22.32,1.21,7.04,3.55,13.34,5.63,19.06,4.35,11.4,7.68,20.83,8.28,27.75.22,3.45-.58,6.19-1.72,7.64-.55.74-1.1,1.18-1.48,1.44-.4.25-.6.36-.61.34Z"/>
      <g>
        <path class="st8" d="M325.65,192.89c-.65-9.13-10.74-15.02-18.57-10.27-4.3,2.61-7.52,7.74-6.91,17.44,1.62,25.86,27.25,18.9,27.25,18.16,0-.46-1.01-14.63-1.77-25.32Z"/>
        <path class="st7" d="M318.91,208.9c-.12-.08-.43.34-1.17.74-.72.39-1.98.7-3.36.28-2.79-.83-5.37-5.03-5.78-9.68-.21-2.35.14-4.62.86-6.53.67-1.94,1.81-3.34,3.17-3.67,1.35-.4,2.37.36,2.74,1.07.39.7.26,1.23.4,1.26.08.06.53-.47.25-1.52-.14-.51-.48-1.1-1.12-1.56-.65-.47-1.58-.67-2.53-.5-1.99.26-3.67,2.21-4.46,4.3-.9,2.11-1.35,4.67-1.11,7.31.49,5.2,3.47,9.91,7.27,10.76,1.85.36,3.33-.28,4.08-.94.76-.69.86-1.28.77-1.32Z"/>
      </g>
      <path class="st4" d="M328.76,226.55c.06,0,.18.52-.05,1.44-.24.9-.92,2.19-2.34,3.17-1.38,1-3.66,1.46-5.81.67-2.15-.72-4.17-2.58-5.09-5.02-.95-2.43-.94-4.97-.43-7.12.52-2.16,1.56-3.92,2.68-5.15,2.31-2.51,4.61-2.67,4.57-2.56.1.21-1.98.66-3.93,3.11-.95,1.21-1.83,2.86-2.25,4.85-.41,1.96-.38,4.29.47,6.43.82,2.15,2.52,3.74,4.36,4.42,1.85.73,3.72.44,4.99-.34,1.3-.76,2.01-1.84,2.36-2.61.34-.79.39-1.29.48-1.28Z"/>
      <path class="st5" d="M406.83,94.13c-.13.13-1.6-2.1-5.47-4.64-3.85-2.45-10.49-4.79-18.74-3.93-4.1.37-8.51,1.63-12.79,3.85-4.27,2.29-8.41,5.48-12.17,9.44-3.79,3.94-7.17,8.61-10.33,13.67-3.15,5.07-5.99,10.57-8.96,16.19-2.96,5.63-5.92,11.12-9.24,16.15-3.29,5.05-7.04,9.58-11.01,13.43-3.94,3.88-7.86,7.34-11.25,10.85-3.39,3.49-6.25,7.05-8.2,10.67-3.94,7.29-4.38,14.36-3.28,18.8,1.08,4.52,3.02,6.46,2.84,6.55-.03.03-.43-.48-1.15-1.48-.62-1.06-1.58-2.65-2.14-4.96-1.27-4.52-.95-11.8,2.99-19.3,1.96-3.75,4.84-7.4,8.23-10.96,3.39-3.58,7.3-7.07,11.19-10.94,3.92-3.84,7.56-8.28,10.81-13.29,3.28-4.98,6.21-10.44,9.16-16.06,2.96-5.62,5.83-11.14,9.02-16.25,3.2-5.1,6.65-9.82,10.53-13.81,3.84-4.01,8.11-7.25,12.5-9.56,4.43-2.25,8.98-3.48,13.18-3.81,8.46-.77,15.23,1.76,19.08,4.38,1.93,1.35,3.26,2.62,4.06,3.55.79.95,1.19,1.45,1.16,1.48Z"/>
    </g>
    <g>
      <path class="st8" d="M211.93,374.12l4.8-23.23-44.25-20.19s-.41,1.36-1.14,3.8c-6.32,21.05-37.85,122.5-39.77,130.07-7.11,28.15-5.54,83.86,5.7,94.29,8.97,8.33,26.23,14.48,37.63,13.21,11.41-1.27,42.84-41.73,42.84-41.73l28.86-92.4-34.69-63.82Z"/>
      <path class="st7" d="M213.88,360.3s-.04.63-.22,1.8c-.21,1.28-.5,2.98-.86,5.12-.82,4.55-1.97,10.93-3.38,18.77-1.41,7.92-3.09,17.36-4.52,27.89-1.41,10.53-2.62,22.17-2.67,34.42,0,12.25,1.3,23.89,3.87,34.2,2.51,10.3,4.81,19.78,4.57,27.95-.12,8.15-2.38,14.57-4.75,18.42-2.35,3.91-4.44,5.41-4.44,5.41-.13-.11,1.85-1.73,4.04-5.65,2.21-3.86,4.3-10.18,4.31-18.2.13-8.02-2.22-17.36-4.79-27.68-2.64-10.35-3.99-22.13-3.99-34.46.06-12.33,1.3-24.02,2.78-34.57,1.5-10.55,3.26-19.99,4.78-27.9,1.57-7.8,2.84-14.16,3.75-18.7.45-2.12.81-3.8,1.08-5.07.26-1.16.41-1.76.45-1.75Z"/>
      <g>
        <path class="st8" d="M259.63,312.48l-8.57-9.47v-11.28l-8.9-12.77-17.72,2.84-5.41.45,3.6-25.89s1.66-6.54,7.98-19.18c6.32-12.63-3.85-18.42-3.85-18.42l-19,33.26-6.32,22.11-2.71-18.05s3.21-17.54,2.76-26.56c-.45-9.02-9.52-7.73-9.52-7.73l-7.22,39.7v19.85l-6.32-11.73s-1.35-9.93-2.26-18.95c-.9-9.02-8.12-6.32-8.12-6.32v29.33l8.12,27.07s-5.33,34.93-6.24,36.29l41.78,29.28s9.12-6.91,10.93-7.36,24.36-17.14,24.36-17.14l15.79-16.69s2.71-1.8,2.71-3.61-5.87-9.02-5.87-9.02ZM237.97,323.31l-9.02-4.06-4.96-12.18,3.68-6.69,1.29-2.34,1.65-1.15,6.02,1.15s2.71,8.57,2.26,12.63c-.45,4.06,4.96,8.12,4.96,8.12l-5.87,4.51Z"/>
        <g>
          <path class="st7" d="M230.6,296.89c-.02.14-.83.22-2.07-.17-1.24-.38-2.85-1.33-4.12-2.88-1.27-1.55-1.88-3.32-2.02-4.6-.14-1.3.09-2.08.24-2.07.34-.02.35,3.13,2.7,5.91,2.27,2.85,5.35,3.47,5.27,3.81Z"/>
          <path class="st7" d="M253.82,320.28c-.33-.05-.13-2.98.02-6.59.17-3.6.23-6.54.57-6.56.32-.02.79,2.94.62,6.61-.16,3.68-.9,6.58-1.21,6.53Z"/>
          <path class="st7" d="M239.91,337.33c-.11.1-1.15-.74-2.44-2.47-1.23-1.73-2.78-4.58-2.34-8.13.14-.88.54-1.74,1.11-2.39.53-.59,1.07-1.1,1.59-1.58,1.06-.95,2.06-1.73,2.93-2.34,1.73-1.24,2.98-1.8,3.07-1.61.05.12-.96.89-2.54,2.28-.79.69-1.72,1.52-2.7,2.48-.49.48-.99,1-1.47,1.55-.41.5-.7,1.12-.82,1.83-.24,1.43.06,2.92.43,4.2.37,1.28.93,2.37,1.45,3.26,1.06,1.78,1.87,2.82,1.73,2.93Z"/>
        </g>
        <path class="st7" d="M251.08,301.86c.28-.04.26,4.67-3.01,9.3-.83,1.13-1.91,2.07-3.07,2.57-1.19.53-2.39.53-3.32.31-1.94-.49-2.45-1.82-2.3-1.84.14-.13.83.82,2.45,1.01.79.09,1.78,0,2.7-.48.94-.47,1.83-1.28,2.59-2.3,3.01-4.24,3.61-8.68,3.96-8.58Z"/>
        <path class="st7" d="M238.91,310.02c-.28,0-.93-3.97-2.19-8.87-.58-2.46-1.03-4.73-1.18-6.4-.16-1.67-.05-2.72.1-2.73.17,0,.36,1,.73,2.59.54,2.24,1.01,4.19,1.51,6.26,1.27,4.91,1.42,9.14,1.03,9.14Z"/>
        <path class="st7" d="M253.82,322.97c0,.26-5.04-.35-10.22-3.61-1.31-.79-2.48-1.75-3.33-2.82-.85-1.08-1.34-2.26-1.53-3.27-.37-2.04.05-3.26.17-3.24.2,0,.11,1.25.65,3.03.49,1.8,2.15,3.84,4.66,5.28,4.97,3.14,9.7,4.25,9.6,4.63Z"/>
        <path class="st7" d="M216.63,333c-.34.21-3.25-6.6-10.01-12.32-6.68-5.82-13.84-7.68-13.68-8.04.03-.13,1.85.14,4.61,1.19,2.76,1.04,6.41,3,9.85,5.94,3.43,2.96,5.91,6.28,7.36,8.85,1.46,2.57,2,4.33,1.87,4.38Z"/>
        <path class="st7" d="M201.51,290.87c.01.35-3.31.63-7.12,1.97-3.83,1.3-6.61,3.13-6.82,2.84-.2-.23,2.39-2.59,6.43-3.97,4.02-1.41,7.53-1.15,7.51-.84Z"/>
      </g>
    </g>
    <g>
      <g>
        <g>
          <path class="st5" d="M274.02,793.91s-133.83,37.04-139.2,38.93c-8.06,2.84-6.71,32.38,5.84,31.92,5.94-.22,102.8,3.61,115.03,2.84,12.24-.77,45.17-13.78,45.17-13.78l-26.85-59.91Z"/>
          <path class="st1" d="M218.27,844.98c-.67.09-1.58-6.99-5.9-14.37-4.21-7.45-9.88-11.78-9.46-12.32.23-.52,6.88,3.26,11.4,11.2,4.6,7.9,4.52,15.54,3.96,15.49Z"/>
          <path class="st1" d="M232.22,838.65c-.66.11-2.01-6.21-5.57-13.2-3.49-7.03-7.77-11.88-7.29-12.34.37-.44,5.6,3.94,9.29,11.34,3.74,7.37,4.15,14.18,3.57,14.21Z"/>
          <path class="st1" d="M245.31,835.15c-.67-.04-.16-6.73-3.13-14.14-2.84-7.46-7.76-12.03-7.29-12.52.27-.51,6.27,3.63,9.38,11.7,3.19,8.03,1.59,15.15,1.04,14.95Z"/>
          <path class="st1" d="M242.94,817.86c-.24.06-1.42-3.68-1.44-9.96,0-3.13.37-6.87,1.36-10.91.49-2.02,1.15-4.11,1.99-6.21.43-1.06.93-2.29,2.14-3.28,1.25-1.12,3.52-.89,4.6.23,1.23,1.07,1.62,2.58,1.78,3.78.14,1.23.2,2.37.17,3.54-.03,2.3-.33,4.51-.83,6.55-.99,4.09-2.58,7.51-4.12,10.23-3.12,5.43-5.82,8.21-6.01,8.06-.31-.21,1.94-3.33,4.61-8.79,1.32-2.73,2.69-6.08,3.51-9.95.41-1.93.64-3.99.64-6.11-.06-2.06-.03-4.63-1.23-5.62-.64-.53-1.21-.56-1.77-.15-.59.45-1.09,1.37-1.47,2.34-.83,2-1.5,3.98-2.03,5.91-1.05,3.85-1.56,7.43-1.77,10.45-.39,6.06.22,9.85-.15,9.9Z"/>
          <path class="st1" d="M243.1,816.5c-.06-.24,3.17-1.36,8.63-1.39,2.72,0,5.98.28,9.5,1.16,1.73.47,3.6.92,5.47,2.01,1.83.93,3.75,3.47,3.02,6.12-.57,2.49-2.71,4.23-4.82,4.78-2.13.6-4.19.38-6-.02-3.67-.84-6.53-2.65-8.69-4.28-4.29-3.36-6.38-5.94-6.22-6.13.24-.28,2.77,1.92,7.13,4.83,2.19,1.4,4.94,2.92,8.21,3.55,1.63.31,3.38.41,4.96-.07,1.58-.43,2.88-1.64,3.26-3.18.38-1.5-.52-2.86-1.99-3.73-1.43-.89-3.21-1.4-4.86-1.89-3.31-.95-6.41-1.38-9.02-1.57-5.24-.37-8.52.17-8.58-.19Z"/>
          <path class="st1" d="M197.71,846.41c-.66-.07,0-5.8-2.64-12.07-2.51-6.33-6.97-9.96-6.55-10.48.22-.55,5.82,2.63,8.63,9.63,2.89,6.97,1.1,13.15.56,12.92Z"/>
          <path class="st1" d="M291.09,852.59c.06.14-1.78,1-5.18,2.44-3.44,1.3-8.47,3.12-14.89,4.62-12.8,3.23-31.05,5.06-51.09,4.84-20.06-.22-38.13-1.13-51.23-1.66-6.2-.33-11.4-.6-15.51-.82-3.66-.24-5.68-.45-5.68-.61,0-.15,2.04-.24,5.7-.26,4.11.03,9.32.07,15.53.11,13.56.27,31.43.62,51.2,1,19.96.21,37.98-1.35,50.73-4.15,12.79-2.63,20.26-5.92,20.42-5.51Z"/>
          <path class="st1" d="M295.05,855.64c-.18.31-3.84-1.83-10.03-4.54-6.11-2.62-15.27-5.76-25.32-4.21-10.09,1.54-17.23,8.32-21.89,13.02-4.69,4.87-7.44,8.11-7.71,7.88-.2-.17,2.08-3.72,6.55-8.95,2.26-2.59,5.12-5.58,8.87-8.3,3.71-2.72,8.48-5.04,13.83-5.86,10.79-1.65,20.29,1.95,26.34,4.99,6.14,3.14,9.49,5.76,9.36,5.98Z"/>
        </g>
        <path class="st1" d="M160.79,861.43c-.24-.16.9-1.93,1.95-5.06,1.07-3.09,1.88-7.68.98-12.58-.91-4.9-3.31-8.89-5.41-11.4-2.1-2.54-3.8-3.79-3.63-4.03.1-.18,2.11.7,4.58,3.16,2.46,2.41,5.26,6.62,6.24,11.93.98,5.31-.13,10.24-1.57,13.37-1.44,3.18-2.99,4.72-3.15,4.59Z"/>
      </g>
      <g>
        <path class="st1" d="M260.99,604.88l-24.04,59.24s-119.52-43.73-189.48-30.99c-26.6,4.84-55.07,65.2-16.31,103.96,37.81,37.81,105.45,91.27,232.32,108.58,3.16.43,55.13,11.59,51.93,11.21-3.2-.38,72.86,11.66,72.86,11.66l17.85-67.52,141.71,22.24c83.51-5.7,124.39-95,74.09-123.75-46.92-26.82-135.13-28.97-135.13-28.97l-21.66-59.07-204.13-6.58Z"/>
        <path class="st5" d="M391.08,870.98c.37-2.28,1.38-8.43,3.45-21.05,1.13-6.73,2.52-14.94,4.31-24.39.9-4.72,1.9-9.75,3.1-15.05.61-2.65,1.26-5.36,2.03-8.12.4-1.38.81-2.77,1.31-4.17.53-1.4.98-2.8,2.15-4.17l.21,1.02c-30.17-10.71-67.87-24.85-108.06-41.8-24.71-10.51-48.02-21.13-68.54-32.18-10.22-5.56-19.84-11.16-28.11-17.43-8.34-6.16-15.76-12.31-22.72-17.66-13.79-10.88-26.29-17.91-35.65-20.89-2.29-.88-4.42-1.36-6.24-1.84-1.82-.53-3.39-.81-4.66-1.01-1.21-.22-2.16-.39-2.89-.53-.65-.13-.98-.21-.98-.23,0-.03.34,0,1,.08.74.1,1.7.22,2.93.38,1.29.15,2.88.38,4.72.87,1.85.44,4,.88,6.32,1.72,4.74,1.4,10.28,3.9,16.41,7.3,6.12,3.42,12.71,7.97,19.71,13.3,7.02,5.32,14.48,11.41,22.82,17.5,8.25,6.2,17.82,11.71,28.03,17.22,20.48,10.95,43.78,21.51,68.46,32.01,40.15,16.93,77.8,31.18,107.87,42.05l.84.3-.63.72c-.79.91-1.38,2.36-1.86,3.68-.5,1.35-.91,2.72-1.31,4.08-.78,2.73-1.45,5.42-2.07,8.05-1.23,5.27-2.27,10.28-3.21,14.98-1.87,9.41-3.36,17.6-4.59,24.32-1.23,6.64-2.2,11.86-2.88,15.52-.35,1.78-.64,3.14-.86,4.05-.21.91-.39,1.36-.39,1.36Z"/>
        <path class="st5" d="M594.43,707.65s-.26,0-.76-.07c-.59-.09-1.31-.21-2.21-.35-1.95-.26-4.76-.98-8.47-1.34-7.36-1.08-18.15-1.8-31.43-1.11-13.29.64-28.99,3.2-46.01,7.59-8.5,2.28-17.34,4.95-26.39,8.09-9.05,3.14-18.28,6.75-27.73,10.52-9.47,3.83-19,6.78-28.27,9.33-9.27,2.56-18.33,4.56-27,6.24-17.34,3.38-33.1,5.46-46.34,7.07-13.24,1.6-23.98,2.7-31.4,3.46-3.62.35-6.47.63-8.55.84-.9.07-1.64.13-2.23.18-.5.03-.76.04-.76,0,0-.03.25-.08.75-.16.59-.09,1.31-.2,2.21-.33,2.07-.27,4.91-.65,8.51-1.12,7.52-.95,18.19-2.29,31.33-3.94,13.21-1.75,28.94-3.94,46.21-7.38,8.63-1.71,17.66-3.73,26.88-6.3,9.22-2.55,18.7-5.5,28.1-9.31,9.45-3.76,18.73-7.38,27.81-10.51,9.09-3.13,17.98-5.78,26.52-8.03,17.13-4.34,32.94-6.81,46.31-7.31,13.36-.55,24.21.33,31.57,1.6,3.71.45,6.51,1.27,8.44,1.63.88.2,1.6.37,2.18.5.49.12.74.2.73.22Z"/>
        <path class="st1" d="M376.11,683.35c.09,1-6.34,2.61-16.96,3.61-10.6,1-25.39,1.19-41.59-.53-16.2-1.75-30.62-5.07-40.76-8.29-10.16-3.22-16.11-6.16-15.81-7.12.67-2.14,25.77,4.54,57.38,7.83,31.58,3.48,57.53,2.27,57.73,4.5Z"/>
        <path class="st5" d="M488.13,671.5c.02.1-1.65.54-4.68,1.25-1.52.31-3.36.79-5.47,1.43-2.12.59-4.54,1.25-7.16,2.19-5.3,1.65-11.4,4.21-18.09,7.19-6.63,3.14-13.77,6.89-21.04,11.23-14.51,8.76-26.8,18.01-35.48,24.95-4.35,3.46-7.82,6.33-10.2,8.33-2.39,1.99-3.75,3.06-3.82,2.98-.07-.08,1.15-1.29,3.43-3.42,2.27-2.14,5.64-5.14,9.91-8.72,8.53-7.17,20.77-16.61,35.37-25.42,7.32-4.37,14.53-8.11,21.24-11.2,6.78-2.93,12.97-5.41,18.35-6.93,2.65-.88,5.11-1.47,7.27-1.99,2.15-.56,4.02-.95,5.56-1.18,3.08-.53,4.78-.77,4.8-.67Z"/>
        <path class="st5" d="M355.28,731.03c-.05.17-3.33-.53-8.4-2.39-5.08-1.83-11.87-4.92-19.18-8.66-7.04-3.69-13.4-7.02-18.59-9.74-4.75-2.48-7.73-3.95-7.65-4.15.08-.18,3.22.94,8.12,3.18,4.9,2.23,11.52,5.61,18.81,9.35,7.29,3.73,13.95,6.94,18.88,9.02,4.92,2.1,8.07,3.16,8,3.39Z"/>
        <path class="st5" d="M368.2,608.35c.23.04-.18,5.46-.62,14.23-.45,8.77-.84,20.89-.64,34.29.21,13.4.98,25.5,1.71,34.23.72,8.74,1.3,14.14,1.06,14.18-.1.02-.37-1.3-.76-3.72-.4-2.42-.88-5.94-1.37-10.3-1-8.73-1.95-20.89-2.16-34.36-.2-13.47.36-25.66,1.09-34.43.36-4.39.73-7.93,1.05-10.36.32-2.44.54-3.77.65-3.76Z"/>
        <path class="st5" d="M381.51,631.59c.08.12-.5.46-1.25,1.33-.75.85-1.59,2.33-1.87,4.32-.25,1.95.11,4.53,1.84,6.41,1.67,1.93,4.84,2.49,7.64,1.45,2.81-1.03,4.84-3.52,4.85-6.07.09-2.56-1.33-4.74-2.78-6.06-1.51-1.33-3.11-1.9-4.23-2.06-1.13-.17-1.79-.05-1.81-.2-.02-.06.61-.39,1.86-.39,1.24-.02,3.08.44,4.88,1.82,1.72,1.37,3.5,3.77,3.5,6.92.07,3.19-2.45,6.3-5.73,7.47-3.25,1.25-7.18.53-9.21-1.93-2.06-2.39-2.27-5.37-1.86-7.53.46-2.21,1.56-3.77,2.51-4.56.95-.81,1.64-.97,1.67-.91Z"/>
      </g>
      <g>
        <path class="st5" d="M406.95,799.17s135.82,20.64,141.32,21.87c8.25,1.84,10.4,31.01-1.98,32.04-5.86.48-100.55,15.63-112.67,16.32-12.11.69-50.09-9.26-50.09-9.26l23.42-60.97Z"/>
        <path class="st1" d="M467.73,842.77c.67.01.73-7.05,4.1-14.81,3.26-7.81,8.32-12.74,7.85-13.21-.29-.48-6.38,4.01-9.88,12.35-3.59,8.3-2.61,15.8-2.06,15.68Z"/>
        <path class="st1" d="M453.27,838.2c.66.03,1.24-6.34,3.92-13.63,2.61-7.31,6.23-12.59,5.71-12.98-.41-.39-5.03,4.53-7.79,12.23-2.81,7.68-2.4,14.41-1.84,14.38Z"/>
        <path class="st1" d="M440.01,836.29c.66-.12-.63-6.63,1.41-14.26,1.92-7.67,6.2-12.73,5.69-13.15-.32-.47-5.73,4.3-7.83,12.6-2.19,8.27.22,15.07.73,14.81Z"/>
        <path class="st1" d="M440.31,819.03c.24.03.97-3.78.24-9.95-.38-3.07-1.17-6.71-2.62-10.56-.72-1.93-1.61-3.9-2.69-5.87-.55-.99-1.18-2.14-2.49-2.97-1.36-.95-3.56-.46-4.49.76-1.08,1.19-1.28,2.72-1.31,3.93.01,1.22.08,2.36.24,3.49.3,2.26.86,4.39,1.58,6.34,1.45,3.9,3.42,7.08,5.25,9.57,3.7,4.97,6.68,7.38,6.85,7.21.28-.25-2.29-3.04-5.56-8.09-1.61-2.53-3.36-5.66-4.62-9.36-.63-1.85-1.1-3.84-1.35-5.93-.18-2.03-.51-4.55.55-5.66.56-.59,1.12-.7,1.72-.35.63.37,1.23,1.22,1.72,2.12,1.05,1.87,1.95,3.74,2.69,5.56,1.49,3.65,2.41,7.11,2.97,10.06,1.1,5.91.94,9.7,1.31,9.71Z"/>
        <path class="st1" d="M439.98,817.72c.03-.25-3.27-.96-8.64-.35-2.67.31-5.84.98-9.19,2.26-1.65.66-3.42,1.32-5.14,2.62-1.69,1.13-3.28,3.85-2.25,6.36.86,2.38,3.16,3.84,5.3,4.13,2.16.33,4.16-.12,5.89-.72,3.51-1.26,6.1-3.37,8.04-5.22,3.82-3.81,5.57-6.59,5.39-6.75-.26-.25-2.5,2.21-6.44,5.58-1.99,1.63-4.51,3.45-7.65,4.46-1.56.5-3.27.8-4.88.52-1.6-.24-3.03-1.27-3.58-2.74-.55-1.42.18-2.88,1.51-3.9,1.3-1.04,2.99-1.75,4.55-2.43,3.14-1.32,6.13-2.11,8.67-2.61,5.1-.98,8.39-.84,8.4-1.19Z"/>
        <path class="st1" d="M488.09,841.76c.64-.15-.68-5.69,1.17-12.17,1.72-6.51,5.68-10.6,5.2-11.06-.28-.51-5.41,3.26-7.34,10.48-2.02,7.19.46,13.05.96,12.75Z"/>
        <path class="st1" d="M397.09,858.81c-.04.15,1.87.77,5.37,1.78,3.53.87,8.69,2.07,15.17,2.78,12.95,1.66,31.09,1.31,50.76-1.25,19.68-2.58,37.32-5.6,50.13-7.65,6.06-1.05,11.13-1.94,15.14-2.63,3.57-.67,5.53-1.11,5.51-1.26-.02-.15-2.03,0-5.63.41-4.03.51-9.14,1.16-15.24,1.93-13.29,1.85-30.8,4.3-50.18,7.01-19.58,2.55-37.47,3.14-50.32,1.89-12.88-1.08-20.6-3.43-20.71-3.01Z"/>
        <path class="st1" d="M393.56,862.28c.21.28,3.56-2.25,9.31-5.64,5.69-3.29,14.32-7.46,24.38-7.11,10.09.33,17.91,6.14,23.03,10.22,5.18,4.23,8.26,7.09,8.5,6.83.18-.19-2.48-3.41-7.49-8.02-2.52-2.27-5.69-4.88-9.69-7.11-3.96-2.24-8.92-3.96-14.27-4.13-10.79-.35-19.71,4.31-25.29,8-5.66,3.81-8.65,6.77-8.49,6.97Z"/>
      </g>
    </g>
    <g>
      <g>
        <path class="st8" d="M484.76,458.07c-.52,3.35-2.29,93.85,3.12,102.14,8.51,13.04,35.91,36.41,52.94,30.02,27.64-10.36,33.89-68.84,33.41-57.99l-21.89-184.79h-42.11l-3.51,66.27-12.28,7.49c-.81,7.62-2.41,15.2-4.7,22.72l-4.97,14.13Z"/>
        <path class="st8" d="M510.21,347.46s-16.82-16.62-16.82-20.31-6.56-5.74-6.56-5.74l-10.67-5.33s-6.98-6.57-5.33-10.26c1.64-3.69,4.51-4.92,4.51-4.92,0,0,.54-9.03,7.25-11.49,0,0-6.29-6.98,0-11.9,6.29-4.92,7.81-2.87,7.81-2.87,0,0-.7-5.33,3-5.74,3.69-.41,30.07-6.98,30.07-6.98,0,0,7.26,3.69,10.55,6.98s4.92,5.33,4.92,5.33c0,0,4.92-6.15,6.56-12.31,1.64-6.15,4.1-24.62,22.57-23.8v4.51s-4.92,6.56-7.39,18.05c-2.46,11.49-6.98,36.9-6.98,36.9l-1.38,49.88h-42.11Z"/>
        <path class="st7" d="M493.99,531.78s-.16-.63-.36-1.86c-.18-1.23-.54-3.03-.72-5.38-.51-4.69-.84-11.54-.29-19.96.53-8.42,1.88-18.39,3.95-29.34,2-10.96,4.71-22.9,6.73-35.55,3.92-25.36,4.43-48.66,5.08-65.46.3-8.32.54-15.1.71-19.92.11-2.26.2-4.07.27-5.41.08-1.24.14-1.89.18-1.88.04,0,.06.65.06,1.89-.01,1.35-.03,3.15-.05,5.42-.08,4.83-.19,11.6-.33,19.93-.43,16.81-.81,40.16-4.74,65.62-2.03,12.71-4.77,24.64-6.83,35.56-2.12,10.91-3.56,20.82-4.19,29.19-.66,8.37-.46,15.18-.09,19.86.11,2.35.39,4.15.49,5.39.12,1.23.17,1.88.13,1.89Z"/>
      </g>
      <path class="st7" d="M523.38,271.93c-.02.16-1.83.11-4.76.5-2.94.37-7.01.81-11.52,1.22-9.01.82-16.34,1.22-16.37.89s7.25-1.26,16.26-2.08c4.51-.41,8.59-.72,11.55-.87,2.99-.18,4.85.18,4.83.34Z"/>
      <path class="st7" d="M515.63,291.64c-.03.18-1.84,0-4.75-.17-2.92-.18-6.95-.25-11.44-.35-4.48-.1-8.56-.38-11.49-.86-2.92-.46-4.68-1.02-4.64-1.16.04-.18,1.83.08,4.74.32,2.91.26,6.94.4,11.42.5,4.48.1,8.55.31,11.48.7,2.93.38,4.7.86,4.68,1.01Z"/>
      <path class="st7" d="M509.57,307.55c-.03.16-1.88-.07-4.85-.57-2.97-.5-7.06-1.28-11.56-2.21-4.5-.93-8.57-1.84-11.49-2.55-2.93-.71-4.72-1.24-4.68-1.4s1.89.07,4.86.57c2.97.5,7.05,1.28,11.55,2.21,4.5.93,8.55,1.84,11.48,2.55,2.93.71,4.72,1.24,4.69,1.4Z"/>
    </g>
  </g>
</svg>
