<?xml version="1.0" encoding="UTF-8"?>
<svg id="Capa_1" xmlns="http://www.w3.org/2000/svg" version="1.1" xmlns:xlink="http://www.w3.org/1999/xlink" viewBox="0 0 715.76 468">
  <!-- Generator: Adobe Illustrator 30.2.1, SVG Export Plug-In . SVG Version: 2.1.1 Build 1)  -->
  <defs>
    <style>
      .st0 {
        fill: #263238;
      }

      .st1 {
        fill: #fff;
      }

      .st2 {
        filter: url(#drop-shadow-2);
      }

      .st2, .st3 {
        fill: #bd0043;
      }

      .st4 {
        fill: #e0e0e0;
      }

      .st5 {
        fill: #455a64;
      }

      .st3 {
        filter: url(#drop-shadow-1);
      }

      .st6 {
        filter: url(#drop-shadow-3);
      }
    </style>
    <filter id="drop-shadow-1" x="25.39" y="128.04" width="509" height="111" filterUnits="userSpaceOnUse">
      <feOffset dx="2.67" dy="2.67"/>
      <feGaussianBlur result="blur" stdDeviation=".89"/>
      <feFlood flood-color="#6b6b6b" flood-opacity=".61"/>
      <feComposite in2="blur" operator="in"/>
      <feComposite in="SourceGraphic"/>
    </filter>
    <filter id="drop-shadow-2" x="349.24" y="113.89" width="189" height="136" filterUnits="userSpaceOnUse">
      <feOffset dx="1.82" dy="1.82"/>
      <feGaussianBlur result="blur1" stdDeviation=".61"/>
      <feFlood flood-color="#6b6b6b" flood-opacity=".61"/>
      <feComposite in2="blur1" operator="in"/>
      <feComposite in="SourceGraphic"/>
    </filter>
    <filter id="drop-shadow-3" x="29.05" y="137.7" width="508" height="74" filterUnits="userSpaceOnUse">
      <feOffset dx="4" dy="4"/>
      <feGaussianBlur result="blur2" stdDeviation="4"/>
      <feFlood flood-color="#6b6b6b" flood-opacity=".44"/>
      <feComposite in2="blur2" operator="in"/>
      <feComposite in="SourceGraphic"/>
    </filter>
  </defs>
  <rect class="st3" x="25.52" y="128.47" width="502.05" height="103.75" rx="4.64" ry="4.64"/>
  <path class="st2" d="M359.34,114.77h170c2.56,0,4.64,2.08,4.64,4.64v121.68c0,2.56-2.08,4.64-4.64,4.64h-172.4c-4.2,0-7.61-3.41-7.61-7.61v-113.33c0-5.52,4.49-10.01,10.01-10.01Z"/>
  <g class="st6">
    <path class="st1" d="M38,177.08c0-11.43,7.15-18.22,16-18.22,4.38,0,7.86,2.09,10.06,4.42l-3.31,3.99c-1.79-1.79-3.89-3.03-6.62-3.03-5.68,0-9.76,4.81-9.76,12.64s3.76,12.79,9.61,12.79c3.1,0,5.49-1.43,7.45-3.59l3.31,3.89c-2.83,3.29-6.47,5.08-11,5.08-8.78,0-15.74-6.43-15.74-17.98Z"/>
    <path class="st1" d="M68.86,181.33c0-8.73,5.94-13.77,12.47-13.77s12.47,5.04,12.47,13.77-5.94,13.73-12.47,13.73-12.47-5.04-12.47-13.73ZM87.48,181.33c0-5.25-2.31-8.76-6.15-8.76s-6.15,3.5-6.15,8.76,2.31,8.71,6.15,8.71,6.15-3.46,6.15-8.71Z"/>
    <path class="st1" d="M100.43,168.2h5.04l.47,3.55h.17c2.35-2.29,5.02-4.19,8.61-4.19,5.62,0,8.07,3.8,8.07,10.42v16.44h-6.15v-15.65c0-4.31-1.24-5.94-4.08-5.94-2.31,0-3.82,1.13-5.98,3.27v18.32h-6.15v-26.23Z"/>
    <path class="st1" d="M131.78,185.58v-12.49h-3.74v-4.61l4.06-.28.73-7.15h5.1v7.15h6.68v4.89h-6.68v12.48c0,3.09,1.2,4.6,3.72,4.6.9,0,1.96-.3,2.73-.6l1.05,4.53c-1.43.47-3.26.96-5.36.96-6.04,0-8.29-3.82-8.29-9.48Z"/>
    <path class="st1" d="M148.14,187.38c0-5.62,4.66-8.54,15.42-9.7-.09-2.82-1.22-5.17-4.76-5.17-2.61,0-5.06,1.17-7.37,2.58l-2.26-4.1c2.88-1.82,6.6-3.44,10.76-3.44,6.56,0,9.78,4.04,9.78,11.34v15.53h-5.04l-.47-2.9h-.17c-2.35,2.01-5.04,3.54-8.14,3.54-4.59,0-7.75-3.12-7.75-7.69ZM163.56,187.4v-5.89c-7.11.9-9.48,2.75-9.48,5.4,0,2.32,1.58,3.33,3.78,3.33s3.76-1.05,5.7-2.84ZM156.86,160.81l7.88-9.31,4.23,4.08-9.03,8.27-3.08-3.03Z"/>
    <path class="st1" d="M175.9,181.33c0-8.73,6.17-13.77,13.16-13.77,3.33,0,5.77,1.28,7.67,2.95l-2.99,3.99c-1.39-1.22-2.71-1.92-4.36-1.92-4.23,0-7.15,3.5-7.15,8.76s2.88,8.71,6.96,8.71c2.05,0,3.93-1,5.42-2.26l2.5,4.06c-2.46,2.18-5.57,3.22-8.56,3.22-7.15,0-12.64-5.04-12.64-13.73Z"/>
    <path class="st1" d="M203.21,185.58v-12.49h-3.74v-4.61l4.06-.28.73-7.15h5.1v7.15h6.68v4.89h-6.68v12.48c0,3.09,1.2,4.6,3.72,4.6.9,0,1.96-.3,2.73-.6l1.05,4.53c-1.43.47-3.26.96-5.36.96-6.04,0-8.29-3.82-8.29-9.48Z"/>
    <path class="st1" d="M219.57,187.38c0-5.62,4.66-8.54,15.42-9.7-.09-2.82-1.22-5.17-4.76-5.17-2.61,0-5.06,1.17-7.37,2.58l-2.26-4.1c2.88-1.82,6.6-3.44,10.76-3.44,6.56,0,9.78,4.04,9.78,11.34v15.53h-5.04l-.47-2.9h-.17c-2.35,2.01-5.04,3.54-8.14,3.54-4.59,0-7.75-3.12-7.75-7.69ZM234.99,187.4v-5.89c-7.11.9-9.48,2.75-9.48,5.4,0,2.32,1.58,3.33,3.78,3.33s3.76-1.05,5.7-2.84Z"/>
    <path class="st1" d="M249.06,168.2h5.04l.47,3.55h.17c2.35-2.29,5.02-4.19,8.61-4.19,5.62,0,8.07,3.8,8.07,10.42v16.44h-6.15v-15.65c0-4.31-1.24-5.94-4.08-5.94-2.31,0-3.82,1.13-5.98,3.27v18.32h-6.15v-26.23Z"/>
    <path class="st1" d="M277.76,181.33c0-8.73,5.94-13.77,12.47-13.77s12.47,5.04,12.47,13.77-5.94,13.73-12.47,13.73-12.47-5.04-12.47-13.73ZM296.38,181.33c0-5.25-2.31-8.76-6.15-8.76s-6.15,3.5-6.15,8.76,2.31,8.71,6.15,8.71,6.15-3.46,6.15-8.71Z"/>
    <path class="st1" d="M306.51,191.41l2.86-3.91c2.33,1.82,4.58,2.93,7.24,2.93,2.86,0,4.21-1.35,4.21-3.14,0-2.2-2.84-3.18-5.64-4.25-3.44-1.29-7.37-3.27-7.37-7.65s3.67-7.84,9.55-7.84c3.65,0,6.58,1.48,8.71,3.14l-2.82,3.78c-1.84-1.35-3.68-2.29-5.74-2.29-2.64,0-3.89,1.26-3.89,2.9,0,2.07,2.65,2.86,5.49,3.91,3.55,1.32,7.52,3.03,7.52,7.92,0,4.51-3.57,8.14-10.19,8.14-3.59,0-7.37-1.54-9.93-3.65Z"/>
    <path class="st1" d="M354.39,185.37c0-7.22,5.98-10.98,19.82-12.46-.11-3.62-1.56-6.64-6.12-6.64-3.35,0-6.51,1.51-9.47,3.32l-2.91-5.27c3.71-2.33,8.48-4.42,13.84-4.42,8.43,0,12.57,5.19,12.57,14.58v19.96h-6.48l-.6-3.73h-.22c-3.02,2.58-6.48,4.56-10.46,4.56-5.9,0-9.97-4.01-9.97-9.88ZM374.21,185.39v-7.58c-9.14,1.15-12.19,3.54-12.19,6.95,0,2.98,2.03,4.28,4.86,4.28s4.83-1.35,7.33-3.65Z"/>
    <path class="st1" d="M392.3,145.94h7.91v12.55l-.33,6.51c2.83-2.66,6.18-5.11,10.79-5.11,7.22,0,10.38,4.89,10.38,13.4v21.14h-7.91v-20.12c0-5.55-1.59-7.63-5.24-7.63-2.97,0-4.92,1.46-7.69,4.2v23.56h-7.91v-48.48Z"/>
    <path class="st1" d="M429.06,177.6c0-11.23,7.63-17.71,16.03-17.71s16.03,6.48,16.03,17.71-7.63,17.65-16.03,17.65-16.03-6.48-16.03-17.65ZM453,177.6c0-6.75-2.97-11.26-7.91-11.26s-7.91,4.5-7.91,11.26,2.96,11.2,7.91,11.2,7.91-4.45,7.91-11.2Z"/>
    <path class="st1" d="M469.65,160.71h6.48l.6,6.01h.22c2.4-4.39,5.97-6.84,9.58-6.84,1.72,0,2.8.22,3.82.69l-1.37,6.86c-1.18-.33-2.06-.55-3.46-.55-2.69,0-5.93,1.84-7.96,6.97v20.56h-7.91v-33.71Z"/>
    <path class="st1" d="M492.34,185.37c0-7.22,5.99-10.98,19.82-12.46-.11-3.62-1.56-6.64-6.12-6.64-3.35,0-6.51,1.51-9.47,3.32l-2.91-5.27c3.71-2.33,8.48-4.42,13.84-4.42,8.43,0,12.57,5.19,12.57,14.58v19.96h-6.48l-.6-3.73h-.22c-3.02,2.58-6.48,4.56-10.46,4.56-5.9,0-9.97-4.01-9.97-9.88ZM512.16,185.39v-7.58c-9.14,1.15-12.19,3.54-12.19,6.95,0,2.98,2.03,4.28,4.86,4.28s4.83-1.35,7.33-3.65Z"/>
  </g>
  <g>
    <g>
      <path class="st0" d="M432.39,322.24c-26.9-9.39-51.22-26.95-68.81-51.99-21.67-30.84-30.04-68.27-23.56-105.4,6.48-37.13,27.04-69.52,57.88-91.19,63.66-44.74,151.85-29.35,196.6,34.32h0c21.67,30.84,30.04,68.27,23.56,105.41-6.48,37.13-27.03,69.52-57.87,91.19-38.63,27.14-86.29,32.15-127.79,17.67ZM522.56,64.89c-38.72-13.51-83.19-8.84-119.23,16.49-28.77,20.22-47.95,50.44-54,85.08-6.05,34.65,1.76,69.57,21.98,98.35,20.22,28.78,50.44,47.95,85.09,54,34.64,6.05,69.57-1.76,98.35-21.98,28.77-20.22,47.95-50.44,54-85.08,6.05-34.65-1.76-69.57-21.98-98.35-16.41-23.36-39.1-39.75-64.2-48.51Z"/>
      <path class="st0" d="M685.84,449.68h0c-7.64,5.95-18.66,4.58-24.61-3.06l-107.98-138.62c-1.02-1.31-.79-3.21.53-4.23l18.25-14.21c1.28-1,3.12-.8,4.16.45l112.35,134.6c6.36,7.62,5.14,18.98-2.69,25.08Z"/>
    </g>
    <g>
      <path class="st5" d="M434.99,314.79c-26.9-9.39-51.22-26.95-68.81-51.99-21.67-30.84-30.04-68.27-23.56-105.4,6.48-37.13,27.04-69.52,57.88-91.19,63.66-44.74,151.85-29.35,196.6,34.32h0c21.67,30.84,30.04,68.27,23.56,105.41-6.48,37.13-27.03,69.52-57.87,91.19-38.63,27.14-86.29,32.15-127.79,17.67ZM525.16,57.44c-38.72-13.51-83.19-8.84-119.23,16.49-28.77,20.22-47.95,50.44-54,85.08-6.05,34.65,1.76,69.57,21.98,98.35,20.22,28.78,50.44,47.95,85.09,54,34.64,6.05,69.57-1.76,98.35-21.98,28.77-20.22,47.95-50.44,54-85.08,6.05-34.65-1.76-69.57-21.98-98.35-16.41-23.36-39.1-39.75-64.2-48.51Z"/>
      <path class="st5" d="M612.55,268.08h29.05v196.67c0,2.14-1.74,3.88-3.88,3.88h-21.3c-2.14,0-3.88-1.74-3.88-3.88v-196.67h0Z" transform="translate(-94 463.01) rotate(-37.91)"/>
    </g>
  </g>
  <path class="st4" d="M387.84,153.81c-.09,0,.02-1.58.31-4.42.12-1.42.32-3.16.75-5.14.4-1.99.73-4.28,1.48-6.73.34-1.24.7-2.53,1.06-3.87.38-1.34.93-2.69,1.42-4.11.93-2.87,2.3-5.78,3.66-8.87,2.97-6.08,6.78-12.5,11.55-18.69,4.85-6.13,10.16-11.39,15.34-15.74,2.67-2.08,5.16-4.11,7.72-5.71,1.26-.82,2.43-1.68,3.64-2.37,1.21-.68,2.38-1.34,3.5-1.97,2.19-1.32,4.34-2.2,6.17-3.07,1.82-.9,3.46-1.51,4.81-1.97,2.69-.97,4.18-1.46,4.21-1.37.03.09-1.4.75-4.01,1.86-1.32.53-2.91,1.21-4.68,2.17-1.78.93-3.88,1.86-6.02,3.22-1.09.65-2.23,1.32-3.42,2.02-1.18.71-2.33,1.58-3.56,2.41-2.5,1.61-4.94,3.66-7.55,5.74-5.07,4.35-10.28,9.56-15.07,15.62-4.71,6.11-8.5,12.43-11.49,18.4-1.38,3.04-2.78,5.9-3.73,8.72-.5,1.4-1.07,2.72-1.48,4.04-.39,1.32-.77,2.59-1.14,3.8-.8,2.41-1.19,4.67-1.66,6.62-.49,1.95-.77,3.67-.97,5.07-.44,2.8-.73,4.35-.83,4.34Z"/>
</svg>