<?xml version="1.0" encoding="UTF-8"?>
<svg id="Capa_1" xmlns="http://www.w3.org/2000/svg" version="1.1" viewBox="0 0 900 900">
  <!-- Generator: Adobe Illustrator 30.2.1, SVG Export Plug-In . SVG Version: 2.1.1 Build 1)  -->
  <defs>
    <style>
      .st0 {
        fill: #263238;
      }

      .st1 {
        opacity: .3;
      }

      .st2 {
        fill: #c6ced3;
      }

      .st3 {
        fill: #fff;
      }

      .st4 {
        fill: #e0e0e0;
      }

      .st5 {
        fill: #fabb28;
      }

      .st6 {
        fill: #455a64;
      }

      .st7 {
        fill: #ffbf9d;
      }

      .st8 {
        opacity: .2;
      }

      .st9 {
        fill: #ff9a6c;
      }

      .st10 {
        fill: #b04;
      }
    </style>
  </defs>
  <g>
    <path class="st2" d="M289.49,236.25c-38.34,12.14-73.04,23.13-98.19,31.09-12.53,4.03-22.67,7.3-29.71,9.56-3.48,1.15-6.19,2.04-8.06,2.66-.9.31-1.59.54-2.09.71-.47.17-.71.26-.7.27,0,.01.25-.05.73-.19.5-.15,1.2-.36,2.11-.64,1.88-.59,4.6-1.44,8.1-2.54,7.04-2.26,17.19-5.52,29.71-9.55,25.08-8.19,59.67-19.49,97.9-31.97,38.2-12.51,72.81-23.78,97.92-31.79,12.55-4.01,22.72-7.21,29.77-9.36,3.52-1.08,6.27-1.9,8.13-2.43,1.87-.53,2.86-.78,2.88-.71.02.07-.93.45-2.75,1.1-1.83.66-4.53,1.59-8.02,2.77-6.98,2.36-17.11,5.69-29.65,9.75-25.07,8.13-59.76,19.14-98.09,31.25Z"/>
    <path class="st2" d="M291.56,245.13c-39.76,6.03-75.75,11.49-101.83,15.45-13,2.04-23.53,3.69-30.83,4.83-3.62.59-6.43,1.06-8.37,1.38-.94.17-1.66.29-2.17.38-.49.09-.74.15-.74.16,0,.02.26,0,.75-.07.52-.07,1.25-.17,2.19-.3,1.95-.29,4.77-.71,8.39-1.25,7.31-1.14,17.84-2.78,30.84-4.81,26.05-4.2,61.98-9.98,101.68-16.38,39.68-6.42,75.62-12.18,101.67-16.2,13.02-2.01,23.57-3.59,30.87-4.62,3.65-.52,6.49-.9,8.41-1.13,1.93-.23,2.94-.32,2.96-.25.01.07-.98.3-2.89.67-1.91.37-4.72.87-8.36,1.49-7.26,1.24-17.79,2.96-30.8,5.02-26.03,4.13-62.01,9.62-101.76,15.62Z"/>
    <path class="st2" d="M292.2,254.22c-40.22-.31-76.61-.58-102.99-.78-13.16-.03-23.81-.06-31.21-.08-3.66.02-6.52.03-8.49.04-.95.02-1.68.03-2.21.04-.5.01-.75.03-.75.05,0,.02.25.03.75.05.52.01,1.26.03,2.21.05,1.97.02,4.82.05,8.49.09,7.4.03,18.05.06,31.21.11,26.38-.04,62.78-.1,102.99-.17,40.2-.1,76.6-.13,102.95.01,13.18.07,23.84.17,31.21.3,3.68.06,6.55.13,8.49.21,1.94.07,2.96.15,2.96.22,0,.07-1.02.14-2.96.21-1.94.06-4.8.11-8.49.16-7.37.08-18.03.13-31.21.11-26.35-.02-62.75-.27-102.95-.61Z"/>
    <path class="st2" d="M291.41,263.28c-39.67-6.63-75.57-12.63-101.58-16.97-12.99-2.11-23.51-3.81-30.81-4.99-3.62-.56-6.44-.99-8.39-1.3-.94-.13-1.67-.24-2.19-.31-.49-.07-.75-.09-.75-.07,0,.02.25.07.73.17.52.09,1.24.23,2.17.4,1.94.33,4.75.81,8.37,1.43,7.3,1.19,17.82,2.9,30.81,5.01,26.06,4.11,62.01,9.78,101.73,16.05,39.71,6.23,75.66,11.93,101.67,16.22,13,2.14,23.52,3.92,30.77,5.2,3.63.64,6.44,1.16,8.35,1.54,1.9.38,2.9.61,2.89.68-.01.07-1.03-.02-2.95-.27-1.93-.25-4.76-.64-8.41-1.18-7.29-1.08-17.83-2.72-30.84-4.8-26.02-4.17-61.93-10.14-101.57-16.79Z"/>
    <path class="st2" d="M289.2,272.11c-38.14-12.75-72.66-24.28-97.68-32.64-12.5-4.11-22.62-7.44-29.65-9.75-3.49-1.12-6.21-1.99-8.08-2.59-.91-.28-1.61-.5-2.11-.65-.48-.14-.72-.21-.73-.19,0,.01.23.11.7.28.5.17,1.19.42,2.08.73,1.87.63,4.57,1.54,8.04,2.72,7.03,2.32,17.14,5.65,29.64,9.77,25.1,8.13,59.72,19.35,97.98,31.75,38.25,12.36,72.87,23.61,97.88,31.91,12.51,4.14,22.61,7.55,29.58,9.95,3.48,1.2,6.18,2.15,8,2.82,1.82.67,2.77,1.06,2.74,1.13-.02.07-1.01-.18-2.88-.72-1.86-.54-4.6-1.38-8.12-2.48-7.03-2.2-17.18-5.47-29.71-9.56-25.05-8.18-59.58-19.69-97.7-32.46Z"/>
    <path class="st2" d="M285.65,280.49c-35.7-18.52-68-35.29-91.42-47.44-11.71-6-21.19-10.87-27.77-14.24-3.27-1.65-5.82-2.93-7.58-3.82-.85-.42-1.51-.74-1.98-.97-.45-.21-.68-.32-.69-.3,0,.01.21.14.65.38.46.25,1.11.6,1.94,1.05,1.75.91,4.27,2.23,7.52,3.93,6.58,3.38,16.06,8.25,27.76,14.26,23.53,11.94,55.98,28.41,91.84,46.61,35.86,18.16,68.31,34.66,91.73,46.75,11.71,6.04,21.17,10.97,27.67,14.43,3.25,1.73,5.77,3.09,7.47,4.03,1.7.94,2.57,1.47,2.54,1.54-.03.07-.97-.34-2.73-1.16-1.76-.83-4.33-2.08-7.63-3.72-6.6-3.27-16.12-8.08-27.86-14.07-23.47-11.98-55.8-28.72-91.46-47.26Z"/>
    <path class="st2" d="M280.83,288.22c-32.38-23.85-61.69-45.44-82.93-61.08-10.63-7.75-19.24-14.03-25.22-18.39-2.98-2.14-5.29-3.8-6.89-4.95-.78-.55-1.38-.97-1.81-1.27-.41-.28-.63-.42-.63-.41s.19.18.58.48c.42.32,1,.76,1.76,1.34,1.58,1.17,3.87,2.87,6.82,5.05,5.97,4.36,14.58,10.64,25.21,18.4,21.38,15.45,50.88,36.77,83.48,60.32,32.6,23.52,62.09,44.86,83.34,60.44,10.63,7.79,19.2,14.13,25.09,18.56,2.95,2.21,5.22,3.95,6.75,5.15,1.53,1.2,2.31,1.86,2.27,1.91-.04.06-.91-.48-2.51-1.57-1.61-1.09-3.95-2.73-6.96-4.86-6.02-4.26-14.67-10.49-25.33-18.23-21.32-15.48-50.65-37.05-83-60.91Z"/>
    <path class="st2" d="M274.87,295.09c-28.25-28.62-53.82-54.52-72.35-73.3-9.29-9.32-16.81-16.86-22.04-22.1-2.61-2.58-4.64-4.58-6.04-5.96-.68-.66-1.21-1.17-1.59-1.53-.36-.34-.55-.51-.56-.5-.01.01.16.2.5.57.36.38.87.91,1.53,1.59,1.38,1.41,3.38,3.44,5.94,6.06,5.22,5.24,12.74,12.79,22.02,22.12,18.7,18.6,44.51,44.27,73.02,72.63,28.52,28.33,54.31,54.02,72.87,72.73,9.28,9.35,16.76,16.96,21.88,22.25,2.56,2.65,4.54,4.72,5.86,6.14s1.99,2.19,1.94,2.25c-.05.05-.82-.62-2.24-1.95-1.42-1.33-3.48-3.31-6.12-5.89-5.28-5.15-12.85-12.65-22.17-21.97-18.64-18.63-44.23-44.51-72.45-73.14Z"/>
    <path class="st2" d="M267.91,300.95c-23.4-32.71-44.57-62.31-59.92-83.77-7.71-10.67-13.95-19.3-18.28-25.29-2.17-2.95-3.86-5.25-5.02-6.84-.57-.76-1.01-1.34-1.33-1.76-.3-.39-.47-.59-.48-.58-.01,0,.12.23.4.64.3.43.72,1.03,1.26,1.81,1.14,1.61,2.79,3.93,4.91,6.92,4.33,6,10.56,14.64,18.26,25.31,15.54,21.31,36.99,50.72,60.69,83.21,23.71,32.46,45.14,61.89,60.52,83.28,7.69,10.7,13.88,19.38,18.11,25.42,2.11,3.02,3.74,5.37,4.82,6.99,1.08,1.61,1.62,2.48,1.56,2.52-.06.04-.72-.74-1.9-2.27-1.19-1.53-2.91-3.82-5.12-6.77-4.4-5.91-10.7-14.52-18.44-25.18-15.48-21.33-36.68-50.92-60.04-83.63Z"/>
    <path class="st2" d="M260.11,305.64c-17.96-35.98-34.21-68.55-45.99-92.15-5.93-11.75-10.74-21.25-14.08-27.86-1.68-3.26-2.98-5.79-3.88-7.55-.44-.84-.79-1.49-1.03-1.95-.24-.44-.37-.66-.38-.65-.01,0,.09.24.3.69.23.47.54,1.13.96,1.99.87,1.76,2.14,4.32,3.77,7.6,3.33,6.61,8.13,16.12,14.06,27.87,12,23.5,28.55,55.91,46.84,91.73,18.31,35.79,34.83,68.22,46.66,91.77,5.91,11.77,10.66,21.33,13.88,27.95,1.61,3.31,2.85,5.89,3.66,7.66.82,1.76,1.21,2.7,1.14,2.74-.07.03-.59-.84-1.52-2.55-.93-1.7-2.28-4.23-3.99-7.49-3.42-6.53-8.29-16.02-14.25-27.77-11.93-23.5-28.21-56.05-46.13-92.03Z"/>
    <path class="st2" d="M251.66,309.05c-12.17-38.33-23.17-73.02-31.15-98.17-4.04-12.52-7.31-22.66-9.58-29.7-1.15-3.48-2.05-6.19-2.66-8.06-.31-.9-.55-1.59-.72-2.09-.17-.47-.26-.71-.27-.7-.01,0,.05.25.19.73.15.5.36,1.2.64,2.11.59,1.88,1.44,4.6,2.54,8.1,2.27,7.04,5.53,17.18,9.57,29.71,8.21,25.07,19.53,59.66,32.03,97.88,12.53,38.19,23.82,72.8,31.85,97.9,4.02,12.55,7.22,22.72,9.38,29.77,1.08,3.52,1.9,6.26,2.43,8.13.53,1.87.78,2.86.71,2.88-.07.02-.45-.93-1.11-2.75-.66-1.83-1.59-4.53-2.77-8.02-2.36-6.98-5.7-17.11-9.77-29.64-8.14-25.06-19.18-59.75-31.31-98.07Z"/>
    <path class="st2" d="M242.79,311.12c-6.06-39.76-11.54-75.74-15.51-101.82-2.05-13-3.7-23.52-4.85-30.83-.6-3.62-1.06-6.43-1.38-8.37-.17-.94-.29-1.66-.38-2.17-.09-.49-.15-.74-.16-.74-.02,0,0,.26.07.75.07.52.17,1.24.3,2.19.29,1.95.71,4.77,1.25,8.39,1.15,7.31,2.79,17.83,4.83,30.83,4.21,26.04,10.02,61.97,16.44,101.67,6.45,39.68,12.23,75.62,16.26,101.66,2.02,13.02,3.6,23.57,4.64,30.86.52,3.65.9,6.48,1.14,8.41.24,1.93.32,2.94.25,2.96-.07.01-.3-.98-.67-2.89-.37-1.91-.87-4.72-1.49-8.36-1.25-7.26-2.97-17.79-5.04-30.8-4.15-26.02-9.66-62.01-15.68-101.75Z"/>
    <path class="st2" d="M233.7,311.77c.28-40.22.54-76.61.72-102.99.03-13.16.05-23.81.06-31.21-.02-3.66-.04-6.52-.05-8.49-.02-.95-.03-1.68-.04-2.21-.01-.5-.03-.75-.05-.75-.02,0-.03.25-.05.75-.01.52-.03,1.26-.05,2.21-.02,1.97-.05,4.82-.09,8.49-.02,7.4-.05,18.05-.09,31.21.06,26.38.14,62.78.23,102.99.12,40.2.18,76.6.05,102.95-.06,13.18-.16,23.84-.28,31.21-.06,3.68-.13,6.55-.2,8.49-.07,1.94-.15,2.96-.22,2.96-.07,0-.14-1.02-.21-2.96s-.12-4.8-.16-8.49c-.09-7.37-.14-18.03-.13-31.21,0-26.35.23-62.75.54-102.95Z"/>
    <path class="st2" d="M224.64,310.98c6.6-39.67,12.58-75.57,16.91-101.6,2.1-12.99,3.79-23.51,4.97-30.81.56-3.62.99-6.44,1.29-8.39.13-.94.24-1.67.31-2.19.06-.49.09-.75.07-.75-.02,0-.07.25-.17.73-.09.52-.22,1.24-.39,2.17-.33,1.94-.81,4.75-1.42,8.37-1.18,7.3-2.89,17.82-5,30.81-4.09,26.06-9.74,62.01-15.98,101.74-6.21,39.72-11.89,75.67-16.15,101.68-2.13,13-3.9,23.52-5.18,30.78-.64,3.63-1.16,6.44-1.53,8.35-.37,1.9-.61,2.9-.68,2.89-.07-.01.02-1.03.26-2.95.24-1.93.64-4.76,1.18-8.41,1.07-7.29,2.71-17.83,4.78-30.84,4.15-26.02,10.1-61.94,16.73-101.58Z"/>
    <path class="st2" d="M215.8,308.78c12.72-38.15,24.24-72.68,32.58-97.7,4.1-12.5,7.42-22.63,9.73-29.66,1.12-3.49,1.99-6.21,2.59-8.08.28-.91.49-1.61.65-2.11.14-.48.21-.72.19-.73-.01,0-.11.23-.28.7-.17.5-.42,1.19-.73,2.08-.63,1.87-1.54,4.57-2.71,8.04-2.31,7.03-5.64,17.15-9.75,29.65-8.12,25.1-19.32,59.73-31.69,98-12.34,38.26-23.57,72.88-31.85,97.9-4.14,12.51-7.53,22.62-9.93,29.59-1.2,3.48-2.15,6.18-2.82,8.01s-1.05,2.77-1.12,2.75c-.07-.02.18-1.01.72-2.88.54-1.86,1.38-4.6,2.48-8.12,2.2-7.03,5.46-17.19,9.54-29.72,8.17-25.05,19.65-59.6,32.4-97.72Z"/>
    <path class="st2" d="M207.42,305.23c18.5-35.71,35.25-68.02,47.38-91.45,6-11.71,10.85-21.2,14.22-27.78,1.65-3.27,2.93-5.82,3.81-7.58.42-.85.74-1.51.97-1.98.21-.45.32-.68.3-.69-.01,0-.14.21-.38.65-.25.46-.59,1.11-1.04,1.94-.91,1.75-2.23,4.27-3.93,7.52-3.38,6.58-8.24,16.06-14.24,27.77-11.92,23.53-28.37,56-46.55,91.87-18.14,35.87-34.62,68.33-46.69,91.75-6.03,11.71-10.96,21.17-14.41,27.68-1.73,3.26-3.09,5.77-4.03,7.47-.94,1.7-1.47,2.57-1.54,2.54-.07-.03.34-.97,1.16-2.73.83-1.76,2.08-4.33,3.71-7.63,3.27-6.61,8.07-16.13,14.05-27.87,11.96-23.48,28.68-55.81,47.2-91.49Z"/>
    <path class="st2" d="M199.7,300.42c23.83-32.4,45.4-61.71,61.03-82.96,7.75-10.64,14.02-19.25,18.37-25.23,2.14-2.98,3.8-5.3,4.94-6.9.54-.78.96-1.38,1.27-1.81.28-.41.42-.63.41-.63-.01,0-.17.19-.48.58-.32.42-.76,1-1.33,1.76-1.17,1.58-2.87,3.87-5.05,6.82-4.36,5.98-10.64,14.59-18.39,25.22-15.44,21.39-36.74,50.9-60.27,83.52-23.5,32.61-44.82,62.11-60.39,83.38-7.78,10.63-14.12,19.21-18.54,25.1-2.21,2.95-3.95,5.22-5.14,6.75-1.2,1.53-1.85,2.31-1.91,2.27-.06-.04.48-.91,1.57-2.52,1.09-1.61,2.73-3.96,4.85-6.96,4.25-6.02,10.48-14.68,18.21-25.34,15.47-21.33,37.02-50.67,60.86-83.03Z"/>
    <path class="st2" d="M192.82,294.47c28.6-28.27,54.49-53.86,73.25-72.4,9.31-9.3,16.85-16.82,22.09-22.05,2.57-2.61,4.58-4.64,5.96-6.04.66-.68,1.17-1.21,1.53-1.59.34-.36.51-.55.5-.56-.01-.01-.2.16-.57.5-.38.36-.91.87-1.59,1.53-1.4,1.38-3.44,3.38-6.05,5.95-5.24,5.22-12.79,12.74-22.11,22.03-18.59,18.72-44.24,44.54-72.59,73.07-28.31,28.54-53.98,54.34-72.68,72.91-9.35,9.29-16.95,16.77-22.24,21.9-2.65,2.56-4.72,4.54-6.14,5.87-1.42,1.32-2.19,1.99-2.24,1.94-.05-.05.62-.82,1.95-2.24,1.33-1.42,3.31-3.48,5.88-6.12,5.14-5.28,12.64-12.86,21.95-22.19,18.62-18.65,44.48-44.26,73.1-72.5Z"/>
    <path class="st2" d="M186.95,287.51c32.7-23.42,62.28-44.61,83.73-59.97,10.66-7.72,19.29-13.96,25.28-18.3,2.95-2.17,5.25-3.86,6.84-5.03.76-.57,1.34-1.01,1.76-1.33.39-.3.59-.47.58-.48,0-.01-.23.12-.64.4-.43.3-1.03.72-1.81,1.26-1.6,1.14-3.93,2.79-6.91,4.92-6,4.33-14.63,10.57-25.3,18.28-21.3,15.56-50.7,37.02-83.18,60.74-32.44,23.73-61.86,45.18-83.25,60.57-10.69,7.7-19.38,13.89-25.41,18.12-3.02,2.12-5.37,3.74-6.98,4.83-1.61,1.08-2.48,1.62-2.52,1.56-.04-.06.74-.72,2.27-1.91,1.53-1.19,3.82-2.92,6.77-5.12,5.91-4.4,14.51-10.71,25.17-18.46,21.32-15.49,50.89-36.71,83.59-60.09Z"/>
    <path class="st2" d="M182.26,279.71c35.97-17.98,68.53-34.26,92.12-46.05,11.74-5.94,21.25-10.75,27.85-14.09,3.26-1.68,5.79-2.99,7.54-3.89.84-.45,1.49-.79,1.95-1.03.44-.24.66-.37.65-.38,0-.01-.24.09-.69.3-.47.23-1.13.55-1.99.96-1.76.87-4.32,2.14-7.6,3.77-6.6,3.34-16.11,8.14-27.86,14.07-23.49,12.01-55.89,28.58-91.7,46.89-35.78,18.33-68.2,34.88-91.74,46.71-11.77,5.92-21.32,10.67-27.94,13.9-3.31,1.62-5.89,2.85-7.65,3.67-1.76.82-2.7,1.21-2.74,1.15-.03-.07.84-.59,2.55-1.52,1.7-.93,4.23-2.28,7.49-3.99,6.53-3.42,16.01-8.3,27.76-14.26,23.49-11.94,56.04-28.25,92.01-46.19Z"/>
    <path class="st2" d="M178.84,271.27c38.33-12.19,73.01-23.22,98.15-31.22,12.52-4.05,22.66-7.33,29.7-9.6,3.48-1.15,6.19-2.05,8.06-2.67.9-.31,1.59-.55,2.09-.72.47-.17.71-.26.7-.27,0-.01-.25.05-.73.19-.5.15-1.2.36-2.11.64-1.88.59-4.6,1.45-8.09,2.55-7.04,2.27-17.18,5.54-29.7,9.58-25.07,8.22-59.65,19.56-97.86,32.1-38.19,12.55-72.78,23.87-97.88,31.91-12.55,4.02-22.72,7.23-29.76,9.4-3.52,1.08-6.26,1.91-8.13,2.44-1.87.53-2.86.78-2.88.71-.02-.07.93-.45,2.75-1.11,1.83-.66,4.53-1.6,8.02-2.78,6.98-2.36,17.11-5.71,29.64-9.78,25.06-8.16,59.74-19.22,98.05-31.37Z"/>
    <path class="st2" d="M176.77,262.4c39.75-6.08,75.73-11.59,101.81-15.58,13-2.05,23.52-3.72,30.83-4.87,3.62-.6,6.43-1.07,8.37-1.39.94-.17,1.66-.29,2.17-.39.49-.09.74-.15.74-.16,0-.02-.26,0-.75.07-.52.07-1.25.17-2.19.3-1.95.29-4.77.71-8.39,1.26-7.31,1.15-17.83,2.81-30.83,4.85-26.04,4.23-61.96,10.06-101.66,16.51-39.67,6.47-75.61,12.28-101.65,16.33-13.02,2.03-23.56,3.62-30.86,4.66-3.65.52-6.48.91-8.41,1.14-1.93.24-2.94.32-2.96.25-.01-.07.98-.3,2.89-.67,1.91-.37,4.72-.87,8.35-1.5,7.26-1.25,17.79-2.98,30.8-5.06,26.02-4.16,62-9.7,101.74-15.75Z"/>
    <path class="st2" d="M176.11,253.31c40.22.26,76.61.49,102.99.65,13.16.02,23.81.03,31.21.04,3.66-.02,6.52-.04,8.49-.05.95-.02,1.68-.03,2.21-.04.5-.01.75-.03.75-.05,0-.02-.25-.03-.75-.05-.52-.01-1.26-.03-2.21-.05-1.97-.02-4.82-.05-8.49-.08-7.4-.02-18.05-.04-31.21-.07-26.38.08-62.78.18-102.99.3-40.2.15-76.6.23-102.95.12-13.18-.05-23.84-.14-31.21-.26-3.68-.06-6.55-.13-8.49-.2-1.94-.07-2.96-.14-2.96-.22,0-.07,1.02-.15,2.96-.21,1.94-.06,4.8-.12,8.49-.17,7.37-.09,18.03-.15,31.21-.15,26.35-.01,62.75.19,102.95.47Z"/>
    <path class="st2" d="M176.89,244.24c39.68,6.58,75.58,12.53,101.61,16.84,12.99,2.09,23.51,3.78,30.82,4.95,3.62.55,6.44.99,8.39,1.28.94.13,1.67.24,2.19.31.49.06.75.09.75.07,0-.02-.25-.07-.73-.17-.52-.09-1.24-.22-2.17-.39-1.94-.33-4.75-.8-8.37-1.41-7.3-1.18-17.82-2.88-30.81-4.98-26.06-4.08-62.02-9.7-101.75-15.92-39.72-6.18-75.68-11.84-101.69-16.09-13-2.12-23.52-3.89-30.78-5.16-3.63-.64-6.45-1.15-8.35-1.53-1.9-.37-2.9-.61-2.89-.68s1.03.02,2.95.26c1.93.24,4.76.64,8.41,1.17,7.29,1.07,17.83,2.69,30.84,4.76,26.03,4.13,61.94,10.06,101.59,16.66Z"/>
    <path class="st2" d="M179.09,235.41c38.16,12.7,72.69,24.19,97.72,32.52,12.51,4.09,22.63,7.41,29.66,9.71,3.49,1.11,6.21,1.98,8.08,2.58.91.28,1.61.49,2.11.65.48.14.72.21.73.19,0-.02-.23-.11-.7-.28-.5-.17-1.19-.41-2.08-.73-1.87-.63-4.57-1.54-8.04-2.71-7.03-2.31-17.15-5.63-29.66-9.73-25.11-8.1-59.74-19.28-98.02-31.63-38.26-12.32-72.9-23.52-97.92-31.79-12.51-4.13-22.62-7.52-29.59-9.91-3.49-1.2-6.19-2.15-8.01-2.81-1.82-.67-2.77-1.05-2.75-1.12.02-.07,1.01.18,2.88.72,1.86.54,4.6,1.37,8.12,2.47,7.04,2.2,17.19,5.45,29.72,9.53,25.06,8.15,59.61,19.62,97.74,32.34Z"/>
    <path class="st2" d="M182.63,227.03c35.72,18.48,68.05,35.2,91.48,47.32,11.72,5.99,21.2,10.84,27.79,14.21,3.28,1.64,5.82,2.92,7.58,3.81.85.42,1.51.74,1.98.97.45.21.68.32.69.3,0-.01-.21-.14-.65-.38-.46-.25-1.11-.59-1.95-1.04-1.75-.91-4.27-2.23-7.52-3.92-6.59-3.37-16.07-8.23-27.78-14.22-23.54-11.91-56.02-28.34-91.9-46.49-35.88-18.12-68.35-34.58-91.78-46.63-11.72-6.03-21.18-10.95-27.69-14.4-3.26-1.72-5.78-3.08-7.47-4.02-1.7-.94-2.57-1.47-2.54-1.54.03-.07.97.34,2.73,1.16,1.76.82,4.33,2.07,7.64,3.71,6.61,3.26,16.14,8.06,27.88,14.03,23.49,11.95,55.83,28.65,91.52,47.15Z"/>
    <path class="st2" d="M187.44,219.3c32.41,23.81,61.74,45.36,83,60.98,10.64,7.74,19.26,14,25.24,18.36,2.98,2.13,5.3,3.79,6.9,4.94.78.54,1.38.96,1.81,1.26.41.28.63.42.64.4,0-.01-.19-.18-.58-.48-.42-.32-1-.76-1.76-1.33-1.58-1.17-3.88-2.87-6.82-5.05-5.98-4.35-14.59-10.63-25.23-18.37-21.4-15.42-50.93-36.7-83.55-60.22-32.63-23.48-62.14-44.78-83.42-60.34-10.64-7.77-19.22-14.11-25.12-18.53-2.95-2.21-5.23-3.94-6.76-5.14-1.53-1.19-2.31-1.85-2.27-1.91.04-.06.91.48,2.52,1.57,1.61,1.09,3.96,2.72,6.97,4.85,6.02,4.25,14.69,10.47,25.36,18.2,21.34,15.46,50.7,36.98,83.07,60.81Z"/>
    <path class="st2" d="M193.39,212.41c28.29,28.59,53.89,54.45,72.45,73.21,9.3,9.31,16.83,16.84,22.06,22.08,2.61,2.57,4.64,4.57,6.04,5.96.69.66,1.21,1.17,1.59,1.53.36.34.55.51.56.5.01-.01-.16-.2-.5-.57-.36-.38-.87-.91-1.53-1.59-1.38-1.4-3.38-3.44-5.95-6.05-5.23-5.24-12.75-12.78-22.05-22.09-18.73-18.58-44.56-44.21-73.11-72.54-28.56-28.29-54.38-53.95-72.96-72.64-9.29-9.34-16.78-16.94-21.91-22.23-2.57-2.64-4.55-4.71-5.87-6.13-1.32-1.42-1.99-2.19-1.94-2.24.05-.05.82.62,2.24,1.94,1.42,1.33,3.48,3.31,6.12,5.88,5.28,5.14,12.87,12.63,22.2,21.94,18.66,18.6,44.29,44.46,72.54,73.05Z"/>
    <path class="st2" d="M200.35,206.54c23.44,32.68,44.65,62.26,60.03,83.69,7.72,10.66,13.97,19.28,18.32,25.27,2.17,2.95,3.86,5.25,5.03,6.83.57.76,1.01,1.34,1.33,1.76.3.39.47.59.48.58.01,0-.12-.23-.4-.64-.3-.43-.72-1.03-1.26-1.81-1.14-1.6-2.8-3.93-4.92-6.91-4.34-5.99-10.58-14.62-18.3-25.29-15.57-21.29-37.05-50.67-60.79-83.14-23.75-32.43-45.21-61.83-60.62-83.21-7.71-10.69-13.9-19.37-18.14-25.4-2.12-3.02-3.75-5.37-4.83-6.98-1.08-1.61-1.62-2.48-1.56-2.52.06-.04.72.74,1.91,2.27s2.92,3.81,5.12,6.77c4.41,5.91,10.72,14.5,18.47,25.16,15.5,21.31,36.74,50.87,60.15,83.55Z"/>
    <path class="st2" d="M208.14,201.84c18.01,35.96,34.3,68.51,46.11,92.09,5.95,11.74,10.77,21.24,14.11,27.84,1.68,3.26,2.99,5.79,3.89,7.54.45.84.79,1.49,1.04,1.95.24.44.37.66.38.65.01,0-.09-.24-.3-.69-.23-.47-.55-1.13-.96-1.99-.88-1.76-2.14-4.32-3.77-7.6-3.34-6.6-8.15-16.11-14.09-27.85-12.03-23.48-28.62-55.87-46.95-91.67-18.35-35.76-34.92-68.18-46.77-91.71-5.93-11.77-10.68-21.31-13.92-27.94-1.62-3.31-2.86-5.89-3.67-7.65-.82-1.76-1.21-2.7-1.15-2.74.07-.03.59.84,1.53,2.54.94,1.7,2.28,4.23,3.99,7.49,3.42,6.53,8.31,16.01,14.28,27.75,11.96,23.48,28.28,56.02,46.25,91.98Z"/>
    <path class="st2" d="M216.58,198.42c12.21,38.32,23.27,72.99,31.28,98.13,4.06,12.52,7.34,22.65,9.62,29.69,1.15,3.48,2.05,6.18,2.67,8.05.31.9.55,1.59.72,2.09.17.47.26.71.27.7.01,0-.05-.25-.19-.73-.15-.5-.36-1.2-.64-2.11-.59-1.88-1.45-4.6-2.55-8.09-2.28-7.04-5.55-17.18-9.6-29.7-8.24-25.06-19.6-59.64-32.16-97.84-12.58-38.18-23.92-72.77-31.97-97.86-4.03-12.54-7.25-22.71-9.42-29.75-1.09-3.52-1.91-6.26-2.44-8.13-.54-1.87-.78-2.86-.71-2.88.07-.02.45.93,1.11,2.75.66,1.83,1.6,4.53,2.78,8.02,2.37,6.98,5.72,17.1,9.8,29.63,8.17,25.05,19.26,59.73,31.43,98.03Z"/>
    <path class="st2" d="M225.45,196.34c6.11,39.75,11.64,75.72,15.64,101.8,2.06,13,3.73,23.52,4.89,30.83.6,3.62,1.07,6.43,1.39,8.37.17.94.3,1.66.39,2.17.09.49.15.74.16.74.02,0,0-.26-.07-.75-.07-.52-.17-1.24-.3-2.19-.29-1.95-.72-4.77-1.26-8.39-1.15-7.31-2.82-17.83-4.87-30.83-4.25-26.04-10.1-61.96-16.57-101.65-6.5-39.67-12.33-75.6-16.39-101.64-2.03-13.02-3.63-23.56-4.68-30.86-.52-3.65-.91-6.48-1.15-8.41-.24-1.93-.33-2.94-.25-2.96.07-.01.3.98.67,2.89.37,1.91.88,4.72,1.51,8.35,1.26,7.26,3,17.78,5.08,30.79,4.18,26.02,9.74,61.99,15.81,101.73Z"/>
    <path class="st2" d="M234.53,195.68c-.23,40.22-.44,76.61-.59,102.99,0,13.16-.02,23.81-.02,31.21.02,3.66.04,6.52.06,8.49.02.95.03,1.68.04,2.21.01.5.03.75.05.75.02,0,.03-.25.05-.75.01-.52.03-1.26.05-2.21.02-1.97.04-4.82.08-8.49.01-7.4.03-18.05.05-31.21-.09-26.38-.22-62.78-.37-102.99-.17-40.2-.27-76.6-.19-102.95.04-13.18.13-23.84.24-31.21.06-3.68.12-6.55.19-8.49.07-1.94.14-2.96.22-2.96.07,0,.15,1.02.21,2.96.06,1.94.12,4.8.17,8.49.1,7.37.16,18.03.17,31.21.03,26.35-.15,62.75-.41,102.95Z"/>
    <path class="st2" d="M243.6,196.46c-6.55,39.68-12.48,75.59-16.78,101.62-2.08,12.99-3.76,23.51-4.93,30.82-.55,3.62-.98,6.44-1.28,8.39-.13.94-.23,1.67-.31,2.19-.06.49-.09.75-.07.75.02,0,.07-.25.16-.73.09-.52.22-1.24.39-2.17.33-1.94.8-4.75,1.41-8.37,1.17-7.3,2.87-17.82,4.96-30.82,4.06-26.07,9.66-62.03,15.85-101.77,6.16-39.72,11.79-75.69,16.02-101.7,2.11-13.01,3.87-23.52,5.15-30.78.64-3.63,1.15-6.45,1.52-8.35.37-1.91.6-2.9.68-2.89.07.01-.02,1.03-.26,2.96-.24,1.93-.64,4.76-1.17,8.41-1.06,7.29-2.68,17.83-4.74,30.85-4.12,26.03-10.02,61.95-16.6,101.6Z"/>
    <path class="st2" d="M252.44,198.65c-12.67,38.17-24.14,72.71-32.46,97.74-4.09,12.51-7.39,22.64-9.69,29.67-1.11,3.49-1.98,6.21-2.58,8.09-.28.91-.49,1.61-.65,2.11-.14.48-.2.72-.19.73.01,0,.11-.23.28-.7.17-.5.41-1.19.73-2.08.63-1.87,1.53-4.57,2.7-8.04,2.3-7.03,5.62-17.16,9.71-29.66,8.09-25.11,19.24-59.75,31.57-98.04,12.29-38.27,23.48-72.91,31.72-97.94,4.12-12.52,7.5-22.63,9.89-29.6,1.2-3.49,2.14-6.19,2.81-8.01.67-1.82,1.05-2.77,1.12-2.75.07.02-.18,1.01-.72,2.88-.54,1.86-1.37,4.6-2.47,8.12-2.19,7.04-5.44,17.2-9.51,29.73-8.13,25.07-19.58,59.62-32.28,97.76Z"/>
    <path class="st2" d="M260.82,202.19c-18.46,35.73-35.16,68.07-47.26,91.51-5.98,11.72-10.82,21.21-14.19,27.8-1.64,3.28-2.92,5.83-3.8,7.59-.42.85-.74,1.51-.97,1.98-.21.45-.32.68-.3.69.01,0,.14-.21.38-.65.25-.46.59-1.11,1.04-1.95.91-1.75,2.23-4.28,3.92-7.53,3.37-6.59,8.22-16.07,14.21-27.79,11.89-23.55,28.3-56.03,46.43-91.93,18.09-35.89,34.53-68.37,46.57-91.81,6.02-11.72,10.93-21.19,14.38-27.7,1.72-3.26,3.08-5.78,4.02-7.48.94-1.7,1.47-2.57,1.53-2.54.07.03-.33.97-1.16,2.73-.82,1.76-2.07,4.33-3.7,7.64-3.26,6.61-8.05,16.14-14.02,27.89-11.93,23.5-28.61,55.85-47.09,91.55Z"/>
    <path class="st2" d="M268.56,206.99c-23.79,32.43-45.32,61.77-60.92,83.04-7.73,10.65-13.99,19.27-18.34,25.26-2.13,2.98-3.79,5.3-4.94,6.9-.54.78-.96,1.38-1.26,1.81-.28.41-.42.63-.4.64.01,0,.17-.19.48-.58.32-.42.76-1,1.33-1.76,1.17-1.58,2.86-3.88,5.04-6.83,4.35-5.98,10.62-14.6,18.36-25.24,15.41-21.41,36.67-50.95,60.17-83.59,23.46-32.64,44.74-62.17,60.28-83.45,7.77-10.64,14.09-19.23,18.51-25.13,2.21-2.95,3.94-5.23,5.13-6.76,1.19-1.53,1.85-2.31,1.91-2.27.06.04-.48.91-1.57,2.52-1.09,1.61-2.72,3.96-4.84,6.97-4.25,6.02-10.46,14.69-18.18,25.37-15.44,21.35-36.95,50.72-60.75,83.11Z"/>
    <path class="st2" d="M275.45,212.93c-28.57,28.31-54.42,53.92-73.16,72.49-9.3,9.31-16.83,16.84-22.06,22.08-2.57,2.61-4.57,4.64-5.95,6.05-.66.69-1.17,1.21-1.53,1.59-.34.36-.51.55-.5.56.01.01.2-.16.56-.5.38-.36.91-.87,1.59-1.53,1.4-1.38,3.44-3.38,6.05-5.95,5.23-5.23,12.77-12.76,22.08-22.06,18.57-18.74,44.18-44.59,72.49-73.16,28.27-28.58,53.91-54.41,72.59-73,9.34-9.3,16.93-16.79,22.21-21.92,2.64-2.57,4.71-4.55,6.13-5.87,1.42-1.32,2.19-1.99,2.24-1.94.05.05-.62.82-1.94,2.24-1.32,1.42-3.31,3.49-5.87,6.13-5.14,5.29-12.63,12.88-21.92,22.21-18.59,18.68-44.43,44.32-73,72.59Z"/>
    <path class="st2" d="M281.32,219.88c-32.67,23.46-62.23,44.69-83.65,60.08-10.65,7.73-19.27,13.99-25.26,18.33-2.95,2.17-5.25,3.87-6.83,5.04-.76.57-1.34,1.01-1.76,1.33-.39.3-.59.47-.58.48,0,.01.22-.12.64-.4.43-.3,1.03-.72,1.81-1.26,1.6-1.14,3.93-2.8,6.91-4.93,5.99-4.34,14.62-10.59,25.27-18.31,21.28-15.59,50.65-37.09,83.1-60.85,32.41-23.77,61.8-45.25,83.17-60.68,10.68-7.71,19.36-13.92,25.39-18.16,3.01-2.12,5.37-3.75,6.98-4.84,1.61-1.08,2.48-1.62,2.52-1.56.04.06-.74.72-2.27,1.91-1.53,1.19-3.81,2.92-6.76,5.13-5.9,4.41-14.49,10.73-25.15,18.49-21.3,15.52-50.85,36.78-83.52,60.2Z"/>
    <path class="st2" d="M286.02,227.68c-35.95,18.03-68.48,34.34-92.06,46.17-11.73,5.96-21.23,10.78-27.83,14.13-3.26,1.68-5.79,2.99-7.54,3.9-.84.45-1.49.79-1.95,1.04-.44.24-.66.37-.65.38,0,.01.24-.09.69-.3.47-.23,1.13-.55,1.99-.96,1.76-.88,4.32-2.15,7.6-3.78,6.6-3.34,16.1-8.16,27.84-14.11,23.47-12.04,55.85-28.65,91.64-47.01,35.75-18.38,68.15-34.96,91.68-46.83,11.76-5.94,21.31-10.7,27.93-13.94,3.31-1.62,5.89-2.86,7.65-3.68,1.76-.82,2.7-1.22,2.73-1.15.03.07-.84.59-2.54,1.53-1.7.94-4.22,2.29-7.49,4-6.52,3.43-16,8.32-27.74,14.3-23.47,11.97-56,28.32-91.95,46.31Z"/>
  </g>
  <g>
    <path class="st5" d="M328.43,225.79c-8.82-52.88-58.85-88.6-111.73-79.78s-88.6,58.85-79.78,111.73c6.39,38.29,34.38,67.56,69.41,77.47,1.89,11.35,4.03,24.16,4.03,24.16l83.93-14s-1.76-13.64-3.59-25.78c28.18-21.05,43.92-56.71,37.73-93.8Z"/>
    <path class="st3" d="M281.71,347.44s-.13-.39-.35-1.16c-.22-.79-.55-1.93-.97-3.42-.84-3.01-2.05-7.46-3.52-13.21-2.91-11.51-6.88-28.24-10.58-49.15-.93-5.23-1.84-10.71-2.71-16.44-.42-2.87-.85-5.79-1.29-8.77-.41-2.97-.92-6.07-.39-9.24.26-1.57.86-3.13,1.84-4.45.97-1.3,2.42-2.41,4.15-2.61,1.74-.22,3.44.59,4.66,1.74,1.22,1.18,2.12,2.71,2.53,4.38.85,3.4-.43,7.02-2.62,9.69-2.21,2.71-5.37,4.64-8.81,5.57-3.45.92-7.22.83-10.68-.36-3.48-1.17-6.54-3.5-8.86-6.41-2.32-2.91-3.96-6.43-4.65-10.17-.34-1.86-.51-3.81-.2-5.73.29-1.89,1.01-3.89,2.63-5.19.8-.64,1.81-1.02,2.82-1.09,1.02-.06,2.04.13,2.97.53,1.87.76,3.38,2.26,4.39,3.96,1.03,1.71,1.67,3.61,2.15,5.53.47,1.92.82,3.86,1.1,5.82.54,3.93.66,7.97,0,11.97-.65,3.97-2.13,7.96-4.87,11.08-1.35,1.56-2.93,2.92-4.74,3.92-1.8.99-3.82,1.62-5.88,1.72-2.06.09-4.12-.41-5.95-1.28-1.84-.88-3.45-2.17-4.81-3.63-2.74-2.94-4.69-6.43-6.31-9.97-.81-1.77-1.54-3.58-2.22-5.38-.67-1.8-1.37-3.62-1.73-5.54-.37-1.9-.36-3.98.49-5.79.41-.9.99-1.74,1.8-2.36.8-.63,1.84-.96,2.86-.88,1.03.05,1.98.5,2.75,1.09.78.59,1.43,1.32,1.99,2.08,1.13,1.54,1.89,3.29,2.5,5.02,2.48,6.94,3.13,14.59.78,21.35-1.18,3.36-3.21,6.38-5.81,8.67-2.6,2.29-5.88,3.84-9.3,4.02-3.43.24-6.76-1.11-9.28-3.18-2.56-2.06-4.46-4.87-5.26-7.96-.42-1.54-.56-3.13-.38-4.71.21-1.55.74-3.13,1.92-4.25.59-.55,1.37-.9,2.18-.97.81-.07,1.63.17,2.29.59,1.33.85,2.17,2.18,2.83,3.48,1.36,2.65,1.73,5.53,2.38,8.21.6,2.71,1.18,5.37,1.75,7.96,4.53,20.74,7.88,37.59,9.99,49.27,1.06,5.84,1.8,10.39,2.28,13.48.22,1.53.4,2.71.51,3.52.11.79.15,1.2.15,1.2,0,0-.09-.4-.22-1.19-.13-.81-.33-1.98-.58-3.51-.53-3.08-1.31-7.62-2.41-13.45-2.19-11.66-5.62-28.49-10.21-49.22-.58-2.59-1.17-5.24-1.77-7.95-.66-2.7-1.04-5.54-2.36-8.08-.64-1.25-1.45-2.51-2.63-3.25-1.15-.78-2.78-.66-3.79.33-1.03.97-1.54,2.45-1.74,3.91-.17,1.47-.03,3.02.37,4.48.77,2.96,2.61,5.67,5.07,7.64,2.44,1.99,5.62,3.26,8.87,3.03,3.25-.18,6.4-1.66,8.91-3.88,2.52-2.22,4.48-5.15,5.62-8.41,2.28-6.58,1.65-14.09-.8-20.91-.61-1.72-1.34-3.39-2.42-4.85-1.05-1.42-2.48-2.8-4.23-2.89-1.77-.17-3.29,1.21-3.99,2.85-.77,1.65-.78,3.56-.44,5.39.35,1.84,1.02,3.63,1.7,5.42.67,1.8,1.4,3.59,2.2,5.34,1.6,3.5,3.53,6.94,6.18,9.78,1.33,1.41,2.86,2.65,4.61,3.48,1.74.82,3.68,1.3,5.62,1.21,3.91-.18,7.56-2.38,10.11-5.39,2.64-3,4.07-6.85,4.71-10.73.65-3.9.53-7.89,0-11.76-.6-3.84-1.22-7.8-3.15-11.09-.96-1.62-2.34-2.98-4.06-3.68-1.68-.73-3.7-.68-5.1.47-1.41,1.12-2.1,2.96-2.37,4.76-.29,1.82-.14,3.69.19,5.5.67,3.63,2.26,7.05,4.51,9.87,2.25,2.82,5.2,5.08,8.55,6.21,3.34,1.15,6.97,1.25,10.3.36,3.32-.89,6.37-2.74,8.48-5.34,2.11-2.55,3.3-6,2.51-9.14-.38-1.56-1.22-2.99-2.35-4.09-1.13-1.07-2.65-1.78-4.17-1.59-1.52.17-2.83,1.16-3.75,2.37-.92,1.23-1.49,2.69-1.74,4.19-.52,3.03-.03,6.09.37,9.06.43,2.98.85,5.9,1.26,8.77.86,5.73,1.75,11.21,2.67,16.44,3.63,20.91,7.52,37.65,10.35,49.17,1.43,5.76,2.59,10.22,3.39,13.24.4,1.5.7,2.65.91,3.44.2.78.29,1.18.29,1.18Z"/>
    <g id="_x32_gGvdE.tif">
      <path class="st0" d="M244.28,429.02s4.23,1.84,6.98,4.38c1.43,1.32,3.42,1.85,5.34,1.53l18.74-3.14c2.1-.35,3.91-1.71,4.79-3.65,1.03-2.27,3.09-5.1,5.57-6.06l-41.42,6.95Z"/>
    </g>
    <path class="st4" d="M215.24,380.23c.06.38,9.32,28.93,12.86,39.84,1.45,4.48,4.98,8.09,9.53,9.31,1.66.44,3.52.61,5.53.28,8.03-1.35,41-6.87,41-6.87,0,0,10.71-1.8,11.72-10.7,1.06-9.38,0-45.37,0-45.37l-80.63,13.52Z"/>
    <g>
      <path class="st4" d="M225.56,409.51h72.42c1.14,0,2.06.92,2.06,2.06v.23c0,1.14-.92,2.06-2.06,2.06h-72.42c-1.14,0-2.06-.92-2.06-2.06v-.23c0-1.14.92-2.06,2.06-2.06Z" transform="translate(-65.75 50.1) rotate(-9.72)"/>
      <path class="st0" d="M297.82,407.71c-.04-.05.64-.03,1.27-.87.29-.42.46-1.07.25-1.8-.14-.71-.83-1.46-1.79-1.5-3.89.6-9.63,1.7-16.67,2.91-14.15,2.45-33.61,5.82-55.12,9.55-.56.09-1.06.48-1.28,1-.11.26-.16.54-.14.82.03.3.09.61.21.85.25.5.76.86,1.31.93.51.05,1.24-.16,1.88-.24,2.62-.45,5.21-.89,7.74-1.32,5.08-.86,9.97-1.69,14.64-2.49,9.32-1.57,17.73-2.98,24.8-4.17,7.03-1.16,12.73-2.09,16.73-2.75,1.94-.3,3.46-.54,4.55-.71.49-.07.88-.12,1.19-.17.27-.03.41-.05.41-.03,0,.01-.13.05-.4.1-.3.06-.69.14-1.18.24-1.08.2-2.6.48-4.53.84-3.99.71-9.68,1.72-16.69,2.97-7.07,1.23-15.46,2.7-24.77,4.32-4.67.81-9.56,1.65-14.64,2.53-2.54.44-5.12.88-7.74,1.33l-.98.17c-.3.05-.7.14-1.1.08-.78-.1-1.5-.6-1.85-1.31-.18-.37-.24-.73-.28-1.1-.04-.39.04-.8.19-1.16.31-.73,1.01-1.28,1.81-1.41,21.52-3.64,40.99-6.94,55.15-9.34,7.08-1.15,12.74-2.17,16.77-2.7,1.09.07,1.84.94,1.97,1.73.2.77,0,1.5-.34,1.93-.71.87-1.42.78-1.39.79Z"/>
    </g>
    <g>
      <path class="st4" d="M222.48,400.29h75.49c1.14,0,2.06.92,2.06,2.06v.23c0,1.14-.92,2.06-2.06,2.06h-75.49c-1.14,0-2.06-.92-2.06-2.06v-.23c0-1.14.92-2.06,2.06-2.06Z" transform="translate(-64.21 49.71) rotate(-9.72)"/>
      <path class="st0" d="M297.79,398.24c-.04-.05.68-.03,1.3-.92.3-.44.43-1.12.19-1.88-.2-.72-.99-1.44-1.98-1.37-4.14.73-10.05,1.78-17.33,3.07-14.69,2.54-34.92,6.04-57.25,9.91-.58.1-1.1.51-1.31,1.06-.11.27-.14.57-.1.86.05.36.11.61.26.86.3.5.86.83,1.44.83.57-.04,1.34-.21,1.99-.31,2.72-.46,5.41-.92,8.04-1.37,5.27-.9,10.36-1.76,15.21-2.58,9.69-1.63,18.41-3.1,25.76-4.34,7.3-1.2,13.23-2.18,17.38-2.86,2.02-.32,3.6-.57,4.73-.74.51-.07.92-.13,1.23-.18.28-.04.42-.05.42-.04,0,.01-.14.05-.41.11-.31.06-.72.14-1.22.24-1.12.21-2.7.5-4.71.87-4.14.74-10.05,1.79-17.34,3.08-7.34,1.28-16.06,2.8-25.74,4.48-4.85.84-9.93,1.71-15.2,2.62-2.64.45-5.32.91-8.04,1.38-.71.1-1.3.26-2.12.32-.82,0-1.62-.46-2.03-1.17-.22-.34-.32-.79-.36-1.13-.06-.41-.01-.83.14-1.21.29-.78,1.02-1.36,1.84-1.5,22.35-3.79,42.59-7.22,57.29-9.71,7.34-1.22,13.25-2.22,17.4-2.85,1.14-.06,2,.78,2.2,1.59.23.79.07,1.56-.27,2.01-.72.93-1.46.83-1.42.85Z"/>
    </g>
    <g>
      <path class="st4" d="M219.95,391.07h77.44c1.14,0,2.06.92,2.06,2.06v.23c0,1.14-.92,2.06-2.06,2.06h-77.44c-1.14,0-2.06-.92-2.06-2.06v-.23c0-1.14.92-2.06,2.06-2.06Z" transform="translate(-62.68 49.32) rotate(-9.72)"/>
      <path class="st0" d="M297.21,388.85c-.05-.05.7-.03,1.32-.96.3-.46.4-1.16.14-1.92-.23-.73-1.08-1.43-2.1-1.28-4.24.75-10.29,1.83-17.75,3.15-15.04,2.6-35.75,6.19-58.62,10.14-.6.1-1.12.53-1.32,1.1-.1.28-.13.59-.08.89.06.37.13.61.3.87.33.5.93.79,1.52.76.63-.09,1.38-.23,2.06-.34,2.79-.48,5.54-.94,8.24-1.41,5.4-.92,10.61-1.8,15.57-2.65,9.92-1.67,18.85-3.17,26.37-4.44,7.48-1.23,13.54-2.23,17.79-2.93,2.07-.33,3.69-.58,4.84-.76.52-.08.94-.13,1.26-.18.29-.04.43-.05.43-.04,0,.01-.14.05-.42.11-.32.06-.73.15-1.25.25-1.15.21-2.76.51-4.82.89-4.24.75-10.29,1.83-17.75,3.15-7.51,1.31-16.44,2.86-26.35,4.59-4.96.86-10.17,1.76-15.56,2.69-2.7.46-5.45.94-8.23,1.42-.71.12-1.36.25-2.14.35-.83.06-1.69-.36-2.15-1.06-.24-.33-.36-.8-.41-1.14-.07-.41-.04-.85.11-1.24.28-.8,1.02-1.42,1.86-1.55,22.88-3.88,43.6-7.39,58.65-9.94,7.48-1.23,13.55-2.23,17.8-2.93,1.16-.15,2.1.67,2.33,1.48.26.8.13,1.6-.22,2.07-.71.96-1.49.87-1.44.88Z"/>
    </g>
    <g>
      <path class="st4" d="M216.84,381.85h80.58c1.14,0,2.06.92,2.06,2.06v.23c0,1.14-.92,2.06-2.06,2.06h-80.58c-1.14,0-2.06-.92-2.06-2.06v-.23c0-1.14.92-2.06,2.06-2.06Z" transform="translate(-61.14 48.92) rotate(-9.72)"/>
      <path class="st0" d="M297.21,379.37c-.05-.06.73-.03,1.36-1.01.3-.48.36-1.23.06-2-.3-.74-1.24-1.39-2.29-1.12-4.39.78-10.67,1.89-18.42,3.27-15.6,2.7-37.08,6.42-60.81,10.52-.62.1-1.16.57-1.34,1.17-.18.57-.04,1.34.32,1.8.38.49,1.04.73,1.65.62.73-.12,1.45-.25,2.18-.37,2.89-.49,5.74-.98,8.54-1.46,5.6-.95,11-1.87,16.15-2.75,10.29-1.73,19.56-3.3,27.36-4.61,7.76-1.28,14.05-2.32,18.45-3.05,2.15-.34,3.83-.61,5.02-.79.55-.08.98-.14,1.31-.19.3-.04.45-.05.45-.04,0,.01-.15.05-.44.11-.33.07-.76.15-1.3.26-1.19.22-2.86.53-5,.92-4.39.78-10.67,1.89-18.42,3.27-7.79,1.36-17.05,2.97-27.33,4.76-5.15.89-10.55,1.82-16.15,2.79-2.8.48-5.65.97-8.54,1.47-.72.12-1.45.25-2.18.37-.85.16-1.78-.19-2.32-.88-.27-.34-.45-.77-.5-1.18-.08-.38-.08-.87.06-1.27.26-.84,1.02-1.5,1.89-1.64,23.74-4.03,45.23-7.67,60.84-10.32,7.76-1.28,14.05-2.32,18.45-3.05,1.16-.28,2.23.47,2.53,1.31.31.83.21,1.65-.13,2.15-.33.51-.75.74-1.03.84-.29.1-.45.09-.45.09Z"/>
    </g>
    <path class="st6" d="M197.88,347.11c.13.76,4.82,18.41,7.24,27.47.89,3.33,3.25,6.06,6.41,7.42l4.64,2,79.27-13.29,3.68-3.36c2.57-2.35,3.91-5.76,3.62-9.23l-2.31-28.21-102.54,17.19Z"/>
    <g class="st1">
      <path d="M229.07,419.31c7.92.45,15.56-.68,23.93-2.12,6.76-1.16,13.43-2.09,20.75-3.47,5.36-1.01,10.27-2.12,15.6-3.25,2.7-.57,5.56-1.76,6.01-2.4l-66.29,11.24Z"/>
    </g>
    <g class="st1">
      <path d="M224.69,410.53c8.52.35,16.75-.88,25.78-2.43,7.29-1.25,14.47-2.27,22.37-3.75,5.78-1.08,11.08-2.25,16.82-3.45,2.91-.61,6-1.83,6.5-2.48l-71.47,12.11Z"/>
    </g>
    <g class="st1">
      <path d="M223.16,401.38c8.52.35,16.75-.88,25.78-2.43,7.29-1.25,14.47-2.27,22.37-3.75,5.78-1.08,11.08-2.25,16.82-3.45,2.91-.61,6-1.83,6.5-2.48l-71.47,12.11Z"/>
    </g>
    <g class="st1">
      <path d="M221.62,392.22c8.52.35,16.75-.88,25.78-2.43,7.29-1.25,14.47-2.27,22.37-3.75,5.78-1.08,11.08-2.25,16.82-3.45,2.91-.61,6-1.83,6.5-2.48l-71.47,12.11Z"/>
    </g>
    <path class="st0" d="M215.45,330.49s-.41-.04-1.18-.18c-.77-.16-1.91-.33-3.36-.7-2.9-.66-7.06-1.85-12.02-3.81-4.96-1.95-10.68-4.77-16.58-8.65-5.89-3.87-11.9-8.87-17.37-14.91-5.43-6.08-9.78-12.58-13.01-18.84-3.25-6.27-5.46-12.26-6.87-17.39-1.42-5.14-2.17-9.4-2.53-12.35-.22-1.47-.27-2.63-.35-3.41-.06-.78-.08-1.19-.06-1.19.02,0,.09.4.2,1.18.13.77.22,1.92.48,3.39.44,2.93,1.26,7.16,2.73,12.25,1.47,5.09,3.71,11.02,6.97,17.23,3.24,6.21,7.57,12.64,12.96,18.67,5.43,5.99,11.38,10.96,17.21,14.84,5.83,3.89,11.5,6.74,16.41,8.73,4.91,2,9.03,3.26,11.9,4,1.43.41,2.56.62,3.32.83.76.19,1.16.3,1.15.32Z"/>
    <path class="st0" d="M143.14,230.1c.19.01.18,2.27-.03,5.03-.21,2.77-.54,5-.73,4.98-.19-.01-.18-2.27.03-5.04.21-2.77.54-5,.73-4.98Z"/>
    <path class="st0" d="M321.54,249.81s-.03-.36-.01-1.03c.02-.74.06-1.72.09-2.95.03-.65.05-1.36.09-2.13,0-.78-.05-1.63-.07-2.53-.08-1.82-.04-3.89-.35-6.16-.12-1.14-.24-2.33-.37-3.57-.14-1.24-.42-2.51-.63-3.84-.38-2.67-1.14-5.44-1.85-8.38-1.66-5.81-3.97-12.07-7.15-18.28-3.25-6.18-7.03-11.68-10.82-16.39-1.99-2.28-3.81-4.5-5.78-6.35-.96-.94-1.84-1.9-2.77-2.73-.94-.82-1.84-1.61-2.71-2.36-1.68-1.56-3.4-2.72-4.84-3.84-.73-.54-1.39-1.07-2.03-1.52-.65-.42-1.25-.81-1.79-1.16-1.03-.68-1.85-1.22-2.47-1.62-.56-.38-.85-.59-.84-.61.01-.02.32.15.91.49.64.38,1.48.89,2.54,1.52.56.34,1.17.71,1.83,1.11.65.43,1.33.95,2.07,1.47,1.47,1.09,3.21,2.23,4.93,3.77.88.75,1.8,1.53,2.75,2.34.95.82,1.84,1.78,2.82,2.72,1.99,1.84,3.85,4.06,5.86,6.35,3.85,4.72,7.67,10.25,10.94,16.48,3.2,6.27,5.51,12.58,7.15,18.44.7,2.96,1.45,5.76,1.8,8.45.2,1.34.47,2.62.59,3.87.11,1.25.22,2.45.32,3.6.27,2.29.2,4.38.24,6.2,0,.91.04,1.76,0,2.54-.05.77-.1,1.49-.15,2.14-.09,1.23-.17,2.21-.23,2.95-.06.67-.1,1.03-.13,1.02Z"/>
    <g class="st8">
      <path class="st3" d="M217.47,173.61c-2.33-3.75-7.27-5.93-12.82-6.63-7.93-1-15.89,1.47-22.24,6.32-18.7,14.27-28.16,29.29-31.47,53.68-1.12,8.26-.16,21.44,4.98,28.49,2.58,3.55,6.4,6.1,10.76,6.61,11.33,1.33,18.16-10.61,19.84-21.21,1.56-9.87.92-20.63,6.35-29.02,4.47-6.92,12.23-10.86,18.32-16.4,6.09-5.54,10.63-14.85,6.28-21.84Z"/>
    </g>
    <g class="st8">
      <path class="st3" d="M255.24,163.46c-4.55-5.54-13.84-6.59-18.62-3.4-3.89,2.77-6.5,7.33-6.66,12.1-.19,5.75,3.44,11.47,8.77,13.61,5.34,2.14,12.02.41,15.52-4.15,3.5-4.56,4.63-13.73.98-18.17Z"/>
    </g>
    <path class="st0" d="M301.01,329.82c.03.19-22.93,4.2-51.28,8.95-28.36,4.75-51.36,8.45-51.4,8.26-.03-.19,22.92-4.2,51.28-8.95,28.35-4.75,51.36-8.45,51.39-8.26Z"/>
    <path class="st0" d="M301.42,362.28c.03.19-21.14,3.9-47.29,8.29-26.16,4.39-47.38,7.78-47.41,7.59-.03-.19,21.14-3.9,47.3-8.29,26.15-4.38,47.38-7.78,47.41-7.59Z"/>
  </g>
  <g>
    <g>
      <g>
        <g>
          <path class="st7" d="M458.19,185.11l4.96-.16c49.93-1.56,92.68,35.48,98.26,85.12,5.18,46.16,10.32,97.21,10.79,122.04.98,51.43-50.19,61.04-50.19,61.04l1.28,20.93c2.12,34.56-24.28,64.26-58.85,66.21h0c-34.13,1.92-63.47-23.95-65.84-58.05l-13.27-191.07c-6.28-53.24,19.47-101.26,72.86-106.06Z"/>
          <path class="st9" d="M522.43,453.07s-32.77,3.01-67.98-17.6c0,0,17,36.5,68.16,30.26l-.18-12.66Z"/>
          <path class="st0" d="M538.47,314.61c.26,3.87-2.81,7.28-6.85,7.63-4.03.34-7.52-2.51-7.78-6.38-.26-3.87,2.81-7.29,6.84-7.63,4.04-.34,7.52,2.52,7.78,6.39Z"/>
          <path class="st0" d="M551.14,295.55c-.88.99-6.57-2.96-14.47-2.69-7.89.15-13.56,4.4-14.45,3.46-.44-.42.44-2.17,2.9-4.09,2.43-1.91,6.61-3.82,11.53-3.96,4.92-.13,9.12,1.55,11.56,3.33,2.49,1.79,3.36,3.49,2.93,3.94Z"/>
          <path class="st0" d="M469.09,317.4c.26,3.87-2.81,7.28-6.85,7.63-4.03.34-7.52-2.51-7.78-6.38-.26-3.87,2.81-7.29,6.84-7.63,4.04-.35,7.52,2.51,7.78,6.39Z"/>
          <path class="st0" d="M473.53,299.46c-.88.99-6.58-2.95-14.47-2.69-7.89.16-13.56,4.4-14.45,3.46-.43-.41.43-2.17,2.91-4.09,2.43-1.91,6.61-3.82,11.53-3.96,4.92-.13,9.12,1.55,11.56,3.33,2.48,1.79,3.36,3.49,2.93,3.94Z"/>
          <path class="st0" d="M504.04,357.15c-.05-.45,4.83-1.45,12.76-2.72,2.01-.27,3.91-.73,4.2-2.12.43-1.47-.48-3.62-1.53-5.94-2.05-4.82-4.2-9.88-6.45-15.17-8.97-21.61-15.53-39.41-14.66-39.76.87-.35,8.85,16.88,17.82,38.49,2.16,5.33,4.23,10.41,6.2,15.27.83,2.27,2.23,4.83,1.3,7.88-.5,1.52-1.94,2.67-3.22,3.05-1.28.44-2.42.49-3.41.58-8,.68-12.96.87-13,.43Z"/>
          <path class="st0" d="M474.6,268.43c-.71,2.17-8.63,1.4-17.86,2.81-9.26,1.22-16.65,4.17-17.94,2.28-.58-.91.66-2.97,3.62-5.14,2.93-2.17,7.65-4.29,13.19-5.09,5.54-.78,10.67-.06,14.09,1.21,3.45,1.26,5.21,2.9,4.91,3.93Z"/>
          <path class="st0" d="M547.52,272.77c-1.33,1.84-6.83.15-13.38.26-6.55-.11-12.05,1.59-13.38-.25-.59-.89.23-2.72,2.6-4.49,2.33-1.77,6.28-3.28,10.78-3.28,4.5,0,8.45,1.51,10.78,3.27,2.37,1.77,3.19,3.6,2.6,4.49Z"/>
          <path class="st0" d="M555.72,246.62s-14.57-31.77-30.33-38.79c-19.08-8.51-26.52,12.38-44.59,7.93-18.07-4.44-36.28-12.61-54.15,1.81-19.56,15.78-9.84,26.12-10.36,48.97-2.12,92.64-18.18,119.32-24.35,75.91-.68-4.76-14.04-8.14-16.64-28.24-3.37-26.07-5.37-57.78-.11-76.52,4.43-15.79,13.01-26.88,28.62-39.29,24.65-19.6,59.31-21.09,82.93-19.46,23.62,1.63,69.87,27.3,68.98,67.68Z"/>
          <path class="st7" d="M395.17,340.95c-.57-7.92-7.61-13.97-15.49-12.97-9.56,1.21-20.06,6.99-18.8,26.78,2.23,35.11,37.02,25.63,37.01,24.62,0-.69-1.66-23.75-2.72-38.43Z"/>
          <path class="st9" d="M389.41,366.66c-.16-.1-.59.47-1.59,1.01-.98.53-2.69.95-4.57.38-3.8-1.13-7.29-6.82-7.86-13.14-.29-3.19.18-6.27,1.16-8.86.91-2.64,2.46-4.54,4.3-4.99,1.83-.55,3.22.49,3.72,1.45.53.95.35,1.67.54,1.72.1.08.72-.64.34-2.07-.19-.69-.65-1.49-1.52-2.11-.89-.63-2.15-.9-3.44-.68-2.7.36-4.97,3-6.04,5.85-1.22,2.87-1.83,6.34-1.5,9.92.67,7.06,4.72,13.45,9.89,14.6,2.51.49,4.52-.39,5.53-1.28,1.03-.94,1.17-1.73,1.04-1.79Z"/>
        </g>
        <path class="st0" d="M564.15,208.84c-5.29-4.2-12.69-4.97-17.94-9.21-9.55-7.72-9.52-24.72-20.85-29.46-6.72-2.81-14.44.23-21.66-.71-11.68-1.52-15.97-10.49-33.77-11-23.11-.67-30.98,16.37-30.98,16.37,0,0-12.54-7.21-26.67,1.81-10.65,6.8-11.7,20.96-11.7,20.96,0,0-3.61-1.94-14.94,6.54-7.2,5.39-13.28,17.26-16.07,25.82-4.15,12.74,1.07,26.45,6.22,38.82,2.79,6.7,6.26,14.08,13.08,16.57,8.31,3.04,17.7-3.27,21.18-11.4,3.49-8.13,8.88-16.26,13.07-24.05,7.26-13.53,14.66-26.13,9.08-35.06,8.05-2.36,16.79-2.35,24.69.5,7.97,2.87,14.86,8.22,22.78,11.25,7.92,3.03,18.05,3.13,23.66-3.23,3.77,9.85,18.3,13.4,26.19,6.4,5.99,10.51,20.69,15.67,31.21,9.69,10.52-5.98,12.89-23.07,3.42-30.6Z"/>
      </g>
      <g>
        <path class="st9" d="M481.31,369.47c-1.65,3.83-1.69,7.62-2.29,11.75-.6,4.13,1.08,7.09,3.56,10.45,2.56,3.47,6.92,5.35,11.23,5.54.04,0,.09,0,.13,0,8.06.31,15.05-5.6,16.53-13.52l1.61-8.66c-8.18-2.44-30.17-4.97-30.76-5.56Z"/>
        <path class="st0" d="M502.24,394.92c-.04-.17-1.03.02-2.81.22-1.77.19-4.37.44-7.41-.14-3.02-.56-6.46-2.25-8.89-5.5-2.43-3.16-3.64-7.76-3.23-12.42.21-2.57.95-5.01,2.07-7.07l-1.1.51c7.86,1.39,14.73,2.52,19.65,3.24,4.92.72,7.89,1.03,7.93.77.05-.25-2.84-1.02-7.69-2.1-4.85-1.08-11.68-2.47-19.51-3.97l-.73-.14-.37.65c-1.32,2.34-2.15,5.07-2.39,7.92-.44,5.15.93,10.25,3.81,13.83,2.82,3.6,6.87,5.38,10.2,5.78,3.36.43,6.05-.09,7.81-.54,1.78-.46,2.69-.92,2.66-1.04Z"/>
      </g>
    </g>
    <g>
      <path class="st0" d="M398.6,482.24s59.09,43.12,68.48,40.37c9.38-2.75,55.53-40.37,55.53-40.37l77.01,74.68,29.32,341.94h-282.95l7.9-285.17,44.71-131.45Z"/>
      <g>
        <path class="st3" d="M514.64,726.92l-32.5-30.71,31.29-31.95,30.54,28.92c1.07.99,1.14,2.67.15,3.74-.02.03-.05.05-.07.08l-29.41,29.91Z"/>
        <polygon class="st3" points="498.39 711.57 482.15 696.22 497.79 680.24 514.04 695.6 498.39 711.57"/>
        <path class="st3" d="M530.29,710.95l13.73-14.04c1.03-1.03,1.04-2.71,0-3.74-.03-.03-.05-.05-.08-.07l-14.26-13.5-15.64,16.01,16.25,15.35Z"/>
        <path class="st3" d="M429.97,728.55l31.29-31.93-32.5-30.72-29.39,30.08c-1.03,1.02-1.04,2.69-.02,3.73.03.03.06.06.1.09l30.52,28.76Z"/>
        <polygon class="st3" points="445.62 712.59 461.26 696.62 445.01 681.26 429.37 697.23 445.62 712.59"/>
        <path class="st3" d="M413.73,713.19l-14.26-13.5c-1.07-.98-1.15-2.65-.17-3.72.03-.03.06-.06.09-.1l13.73-14.04,16.25,15.4-15.64,15.96Z"/>
        <path class="st3" d="M503.85,738.14l-31.93-31.29-30.72,32.5,30.01,29.4c1.03,1.03,2.71,1.04,3.74,0,.03-.03.05-.05.07-.08l28.82-30.54Z"/>
        <polygon class="st3" points="487.88 722.5 471.91 706.85 456.55 723.1 472.53 738.74 487.88 722.5"/>
        <path class="st3" d="M488.49,754.39l-13.5,14.26c-.99,1.07-2.67,1.14-3.74.15-.03-.02-.05-.05-.08-.07l-14.04-13.73,15.4-16.25,15.96,15.64Z"/>
        <path class="st3" d="M439.56,654.68l31.95,31.29,30.71-32.5-30.01-29.39c-1.02-1.03-2.69-1.04-3.73-.02-.03.03-.06.06-.09.1l-28.82,30.52Z"/>
        <polygon class="st3" points="455.54 670.32 471.51 685.97 486.87 669.72 470.9 654.08 455.54 670.32"/>
        <path class="st3" d="M454.92,638.43l13.5-14.28c.98-1.07,2.65-1.15,3.72-.17.03.03.06.06.1.09l14.04,13.73-15.38,16.26-15.97-15.64Z"/>
      </g>
      <path class="st10" d="M734,505l-4.16,16.79s-88.11-28.93-102.13-27.62c-14.03,1.32-22.36,81.53-22.36,81.53,0,0,44.71,62.68,46.46,62.24s84.16-9.64,121.86-17.1c37.7-7.45,60.93-18.85,67.07-49.09,6.14-30.25,0-52.16-2.19-53.92-2.19-1.75-14.9-7.89-14.9-7.89l-89.64-4.95Z"/>
      <path class="st10" d="M156.25,755.78s-11.08,13.51-11.08,24.42,0,38.44,8.83,58.7c8.83,20.26,5.2,22.34,20.78,29.61,15.58,7.27,31.69,6.23,31.69,6.23,0,0,44.83-16.97,54.18-40.35s33.09-72.15,33.09-72.15v-251.14s-49.35,17.66-61.82,60.26c-12.47,42.6-41.04,152.73-41.04,152.73l-34.64,31.69Z"/>
      <path class="st10" d="M398.22,458.64l-25.16,28.47-79.32,24-3.64,248.31-6.43,139.45h114.54s5.3-35.03,13.9-87.99c8.61-52.97,16.55-96.67,17.88-125.14,1.32-28.47,12.58-57.6,0-92.03-12.58-34.43-31.78-86.74-29.79-104.61,1.99-17.88-1.99-30.46-1.99-30.46Z"/>
      <path class="st0" d="M424.36,643.19s0-.17.04-.49c.06-.38.14-.85.23-1.41.24-1.23.53-3.06.81-5.44.54-4.74,1-11.71-.09-20.24-1.06-8.5-3.64-18.61-9.04-28.73-2.62-5.11-6.28-9.89-9.87-15.11-1.75-2.64-3.49-5.4-4.73-8.49-1.29-3.06-1.98-6.5-1.7-9.98l.63.62c-2.94.28-6.12-.36-8.89-1.85-4.36-2.3-7.67-6.47-8.6-11.2l.88.37c-6.64,4.39-12,10.08-15.84,16.17l-1.19,1.89.2-2.21c1.74-19.68,3.22-36.52,4.28-48.54.56-5.89,1.01-10.59,1.32-13.93.17-1.55.3-2.78.4-3.7.1-.84.17-1.28.2-1.27.03,0,.02.44-.02,1.29-.06.93-.13,2.16-.23,3.72-.24,3.34-.59,8.05-1.02,13.95-.96,12.03-2.3,28.87-3.87,48.57l-1-.32c3.89-6.23,9.34-12.06,16.12-16.55l.71-.47.17.84c.85,4.34,3.93,8.24,8.01,10.39,2.59,1.39,5.54,1.98,8.24,1.72l.69-.07-.06.69c-.26,3.25.37,6.49,1.61,9.44,1.19,2.98,2.88,5.69,4.6,8.3,1.79,2.59,3.56,5.13,5.28,7.61.82,1.28,1.63,2.55,2.43,3.8.73,1.3,1.45,2.57,2.16,3.84,5.42,10.28,7.93,20.53,8.9,29.12.99,8.63.41,15.65-.27,20.39-.35,2.38-.7,4.2-1.02,5.43-.13.56-.24,1.01-.33,1.39-.08.31-.13.47-.15.46Z"/>
      <path class="st10" d="M672,729.32c0-2.61-10.66-148.9-10.66-148.9l-30.34-86.29s-76.18-9.74-77.49-9.74-24.81-25.76-24.81-25.76c0,0-25.68,48.76-30.04,76.43-4.35,27.68-6.09,45.09,0,74.69,6.09,29.6,33.52,117.97,38.74,148.44,5.22,30.47,27.93,118.73,30.11,141.8l114.32-1.13c-3.48-32.21-9.84-166.93-9.84-169.55Z"/>
      <path class="st0" d="M655.93,543.46s.18.64.4,1.89c.23,1.35.53,3.17.92,5.46.41,2.37.81,5.28,1.26,8.67.45,3.38.99,7.23,1.45,11.51,2.02,17.07,4.19,40.71,6.15,66.84,1.97,26.15,3.38,49.84,4.3,66.99.41,8.5.75,15.41.98,20.32.08,2.32.14,4.16.19,5.53.03,1.26.03,1.93-.01,1.93-.04,0-.11-.66-.22-1.92-.1-1.36-.24-3.2-.41-5.52-.33-4.9-.79-11.81-1.35-20.3-1.13-17.14-2.67-40.82-4.63-66.96-1.96-26.13-4-49.77-5.81-66.84-.41-4.27-.89-8.13-1.28-11.51-.38-3.39-.72-6.31-1.06-8.68-.3-2.3-.53-4.13-.7-5.48-.15-1.26-.21-1.92-.17-1.93Z"/>
      <path class="st0" d="M555.05,488.11s0,.17-.05.48c-.07.38-.15.84-.25,1.4-.26,1.32-.6,3.11-1.04,5.38-.91,4.68-2.12,11.48-3.52,19.96-1.35,8.52-2.96,18.65-4.76,29.97-1.82,11.34-3.9,23.87-6.82,37l-.26,1.16-.75-.93c-1.95-2.41-4.28-4.77-6.87-6.88-6.37-5.19-13.89-8.54-21.32-9.92l.66-.5c-2.42,23.21-.52,43.64,1.98,57.88,1.24,7.14,2.55,12.79,3.52,16.65.48,1.86.85,3.33,1.14,4.43.25,1.01.37,1.54.34,1.55-.03,0-.21-.5-.53-1.49-.31-1-.79-2.46-1.32-4.38-1.09-3.84-2.52-9.47-3.86-16.62-2.71-14.26-4.77-34.78-2.39-58.13l.06-.61.6.11c7.62,1.39,15.32,4.81,21.85,10.13,2.65,2.16,5.04,4.58,7.04,7.05l-1.01.23c2.93-13.08,5.04-25.59,6.93-36.91,1.87-11.32,3.5-21.47,5.01-29.94,1.5-8.47,2.83-15.26,3.88-19.92.49-2.33.95-4.13,1.24-5.34.14-.55.26-1,.36-1.38.09-.31.14-.46.16-.46Z"/>
      <path class="st0" d="M292,621.76s.1.57.17,1.65c.07,1.19.15,2.77.26,4.74.21,4.11.44,10.07.66,17.43.44,14.72.75,35.07.54,57.54-.22,22.48-.93,42.82-1.66,57.53-.36,7.36-.71,13.3-1,17.41-.15,1.96-.27,3.54-.36,4.73-.09,1.08-.16,1.65-.2,1.64-.04,0-.05-.57-.03-1.66.04-1.2.08-2.77.14-4.74.15-4.24.37-10.16.63-17.42.52-14.71,1.09-35.04,1.32-57.51.21-22.46.03-42.79-.2-57.51-.12-7.27-.22-13.19-.29-17.43-.02-1.97-.04-3.55-.05-4.74,0-1.08.02-1.65.06-1.66Z"/>
    </g>
    <path class="st0" d="M802.36,564.41c0,.08-1.27.09-3.58.02-2.29-.17-5.63-.42-9.68-1.25-8.11-1.52-18.98-5.31-30.12-11.13-5.58-2.9-10.79-5.82-15.39-8.77-4.58-2.97-8.33-6.38-10.6-9.91-2.31-3.5-3.2-6.87-3.38-9.17-.11-1.16-.06-2.06,0-2.67.08-.61.14-.92.18-.91.12,0-.08,1.28.26,3.53.32,2.23,1.3,5.45,3.61,8.77,2.27,3.35,5.95,6.59,10.5,9.47,4.57,2.86,9.8,5.75,15.34,8.63,11.08,5.78,21.77,9.64,29.76,11.35,3.98.93,7.28,1.29,9.55,1.6,2.28.2,3.54.35,3.54.43Z"/>
    <path class="st0" d="M760.21,578.16c-.04.07-.92-.34-2.5-1.14-.8-.39-1.75-.9-2.8-1.59-1.06-.68-2.31-1.39-3.55-2.38-2.59-1.83-5.44-4.33-8.35-7.36-2.85-3.08-5.71-6.73-8.22-10.88-2.47-4.18-4.33-8.43-5.7-12.39-1.3-3.99-2.15-7.69-2.54-10.84-.28-1.56-.32-3-.42-4.25-.12-1.25-.11-2.34-.08-3.22.04-1.77.09-2.74.17-2.74.24,0,.1,3.92,1.13,10.09.49,3.09,1.41,6.71,2.74,10.62,1.41,3.88,3.26,8.04,5.69,12.15,2.47,4.08,5.26,7.68,8.01,10.75,2.82,3.02,5.57,5.54,8.06,7.43,4.96,3.83,8.48,5.56,8.36,5.77Z"/>
    <g class="st1">
      <path d="M262.86,558.19c-12.52-.62-24.45,6.65-32.22,16.49-7.77,9.83-12,21.97-15.36,34.04-13.93,50.09-15.05,103.69-3.23,154.31l32.52,19.65c16.31-35.98-2.83-78.88,6.5-117.27,3.15-12.97,9.45-24.92,15.69-36.72,4.8-9.08,9.6-18.15,14.4-27.23,3.3-6.25,6.69-12.84,6.58-19.9-.2-12.53-12.36-22.76-24.88-23.38Z"/>
    </g>
    <g>
      <path class="st7" d="M187.2,634.11s1.2-15.57,4.79-31.14c3.59-15.57,15.97-72.65,18.76-77.84,2.79-5.19,7.19-12.37,19.16-9.18,11.98,3.19,33.13,6.79,36.73,11.18,3.59,4.39,3.99,8.38,3.99,8.38,0,0,8.38,6.39,8.78,10.38.4,3.99,0,5.99,0,5.99,0,0,5.99-.71,5.19,7.03-.8,7.74-2.39,6.15-2.39,6.15,0,0,7.19,1.6,5.19,7.58-2,5.99-7.98,12.37-12.38,15.97-4.39,3.59-13.57,1.2-13.57,1.2,0,0-4.39,15.17-11.58,27.54-7.19,12.38-14.37,16.77-14.37,16.77h-48.3Z"/>
      <path class="st9" d="M281.22,564.14c-.04.15-1.83-.13-4.68-.73-1.57-.34-3.24-.71-5.01-1.1-.96-.22-1.94-.45-2.95-.69-1-.26-2.11-.42-3.23-1.02-1.18-.59-1.83-1.85-2.16-2.83-.35-1.02-.7-1.87-1.19-2.66-.96-1.57-2.21-2.73-3.38-3.5-2.37-1.57-4.25-1.71-4.2-1.91-.02-.1,1.96-.28,4.63,1.22,1.32.74,2.74,1.93,3.85,3.63,1.25,1.64,1.31,4.21,3.01,5.05.85.47,1.93.66,2.94.93,1,.26,1.98.51,2.93.75,1.74.47,3.39.92,4.95,1.34,2.81.79,4.53,1.36,4.49,1.52Z"/>
      <path class="st9" d="M279.22,550.52c-.14.15-1.68-2.26-5.69-3.9-1.97-.84-4.46-1.44-7.3-1.92-2.82-.52-6.04-.97-9.21-2.27-3.13-1.32-5.87-2.83-8.64-3.39-2.75-.63-5.33-.65-7.45-.4-4.28.51-6.69,1.88-6.78,1.67-.03-.05.52-.47,1.65-.98,1.12-.51,2.82-1.15,5.02-1.5,2.19-.36,4.89-.43,7.79.17,2.94.54,5.85,2.11,8.85,3.36,3.01,1.24,6.14,1.72,8.97,2.29,2.84.55,5.42,1.25,7.43,2.22,2.02.95,3.46,2.11,4.28,3.05.83.93,1.13,1.56,1.08,1.6Z"/>
      <path class="st9" d="M268.4,535.07c-.12.18-2.47-1.65-6.85-3.37-2.19-.85-4.88-1.64-7.95-2.03-1.54-.21-3.14-.24-4.88-.32-1.71-.08-3.66-.4-5.32-1.39-1.65-.94-2.98-2.14-4.38-3-1.38-.88-2.89-1.39-4.38-1.64-3-.5-5.8,0-8.03.63-4.48,1.38-7.1,2.82-7.19,2.61-.03-.07.58-.47,1.76-1.11,1.18-.63,2.9-1.51,5.19-2.28,2.27-.75,5.2-1.38,8.44-.9,1.61.23,3.29.79,4.81,1.73,1.51.92,2.85,2.11,4.36,2.96,2.97,1.77,6.62,1.06,9.77,1.66,3.16.46,5.92,1.36,8.12,2.33,2.21.97,3.86,2,4.95,2.77,1.09.77,1.63,1.3,1.59,1.35Z"/>
      <path class="st9" d="M276.58,584.85c.05.09-1.13.73-3.22.37-1.02-.19-2.24-.69-3.29-1.69-1.04-.99-1.88-2.45-2.1-4.17l1.12.02c-.13.94-.35,1.93-.73,2.9-.64,1.73-1.92,3.29-3.53,3.92-1.56.67-3.33.49-4.44-.35l.6-.61c.89,1.37.93,2.75.8,3.59-.15.87-.43,1.27-.5,1.25-.09-.03.02-.48.01-1.28-.01-.78-.2-1.97-1.02-3.06l-1.48-1.96,2.08,1.35c.88.57,2.25.66,3.52.08,1.28-.55,2.29-1.8,2.88-3.34.34-.86.54-1.77.68-2.65l.68-4.25.45,4.27c.15,1.43.82,2.71,1.67,3.6.85.9,1.87,1.41,2.76,1.68,1.82.52,3.02.18,3.05.35Z"/>
      <path class="st7" d="M243.58,782.14s-17.43-116.33-8.08-148.03l-10.41-13.22-37.9,13.22s-30.3,118.07-30.94,142.29c0,0-3.37,29.31,35.03,29.31s52.29-23.57,52.29-23.57Z"/>
    </g>
    <g>
      <g class="st1">
        <path d="M554.49,490.66c-6.45,26.64-9.99,64.89-16.44,91.53-7.78-7.38-16.92-14.86-28.54-16.99.32,4.98-1.48,8.93-1.16,13.91l2.93,44.2c-.38-13.9,1.3-27.85,4.96-41.26,9.02,7.84,18.04,15.67,27.06,23.51l9.72-31.58c.75-2.45,1.42-4.92,1.93-7.43,4.14-20.42,2.44-55.25-.45-75.88Z"/>
      </g>
      <g class="st1">
        <path d="M554.12,571.23c-.37.88-.69,1.77-1.05,2.65-.1.35-.21.69-.31,1.04l1.37-3.69Z"/>
      </g>
    </g>
    <g>
      <path class="st7" d="M636.97,262.46s-10.55,0-4.32,13.43c6.24,13.43,7.19,12.95,10.07,14.39,2.88,1.44,20.15,6.24,20.15,6.24,0,0,6.24,11.99,25.9,11.51l39.81-33.1s-25.42-32.62-31.66-46.53c-6.24-13.91-12.47-23.98-19.67-22.54,0,0-10.55-1.6-14.3,4.9-3.75,6.5-22,19-26.25,24-4.25,5-8.75,12.75-8.25,16.5.5,3.75,8.51,11.2,8.51,11.2Z"/>
      <path class="st9" d="M673.83,299.61s-.85-.39-2.02-1.58c-1.15-1.19-2.56-3.22-3.53-6.03-1.03-2.79-1.55-6.32-1.9-10.15-.39-3.83-.73-8.05-2.41-12.1-1.64-4.06-3.9-7.7-5.33-11.35-1.47-3.62-2.11-7.26-1.6-10.25.48-2.99,1.85-5.14,3.03-6.3.58-.6,1.13-.96,1.5-1.19.38-.21.59-.3.61-.27.07.1-.75.53-1.78,1.76-1.02,1.2-2.2,3.29-2.55,6.12-.37,2.81.29,6.24,1.78,9.73,1.44,3.52,3.72,7.12,5.42,11.33,1.75,4.23,2.06,8.62,2.39,12.43.29,3.84.72,7.25,1.61,9.99,1.69,5.59,4.96,7.74,4.77,7.87Z"/>
      <path class="st9" d="M664.69,270c.05.11-1.33,1.03-3.95,1.74-1.31.33-2.95.5-4.73.34-1.79-.17-3.66-.51-5.65-1.04-3.98-1.1-7.18-3.15-9.18-4.91-2.02-1.77-2.93-3.16-2.83-3.24.14-.12,1.26,1.06,3.34,2.61,2.07,1.54,5.19,3.38,8.98,4.43,3.82,1.02,7.39,1.54,9.91,1.02,2.52-.46,4.05-1.12,4.12-.94Z"/>
      <path class="st9" d="M647.39,240.08c.07-.09,1.23.61,2.46,2.42,1.21,1.77,2.36,4.8,1.89,8.26l-.18-.5c.31.3.63.65.88,1.04,1.27,1.93,1.27,4.33.4,6l-.62-.72c2.24-.62,4.2-.13,5.37.43,1.2.57,1.69,1.17,1.63,1.24-.08.11-.69-.3-1.86-.67-1.15-.36-2.93-.63-4.84-.01l-1.13.37.52-1.09c.65-1.37.59-3.36-.43-4.91-.2-.31-.45-.59-.7-.83l-.22-.22.04-.29c.45-3.11-.45-5.93-1.42-7.7-.97-1.8-1.91-2.69-1.79-2.82Z"/>
      <path class="st9" d="M657.5,251.62c.06.13-.23.45-.86.66-.62.21-1.58.25-2.54-.1-.95-.35-1.66-1.01-2-1.57-.34-.57-.36-.99-.23-1.06.3-.14,1.1,1.01,2.62,1.54,1.51.59,2.86.23,3,.53Z"/>
      <path class="st9" d="M666.68,279.34c.11-.02.8,1.72,1.09,4.81.02.39.03.81-.06,1.28-.04.23-.1.49-.3.77-.15.31-.75.46-.84.46-.42.07-.82.24-1.45.26-.64-.02-1.16-.29-1.6-.53-1.8-.94-3.64-2.24-5.37-3.82-3.46-3.16-5.83-6.67-7.47-9.19-1.62-2.55-2.49-4.2-2.36-4.28.14-.09,1.25,1.41,3.03,3.82,1.79,2.39,4.24,5.76,7.57,8.8,1.67,1.52,3.4,2.78,5.1,3.74.42.25.8.43,1.11.45.32.01.8-.12,1.25-.19.47.14.54-.87.56-1.54-.06-2.92-.47-4.8-.27-4.82Z"/>
      <path class="st9" d="M648.52,289.28c-.27-.22,1.83-2.78,2.79-6.61,1.02-3.82.44-7.07.78-7.14.27-.12,1.44,3.29.34,7.43-1.06,4.15-3.73,6.56-3.91,6.32Z"/>
      <path class="st9" d="M683.37,217.01c-.33.07-.48-3.54-3.42-6.33-2.93-2.8-6.55-2.76-6.5-3.09,0-.14.86-.37,2.29-.18,1.41.18,3.38.9,5,2.44,1.62,1.54,2.43,3.47,2.69,4.87.26,1.42.07,2.3-.07,2.3Z"/>
      <path class="st7" d="M728.58,274.93s45.36,77.29,62.12,115.03c27.72,62.4,40.51,141.58,40.51,141.58,0,0-1.47,12.24-24.98,8.82-23.51-3.43-68.57-6.86-71.99-33.3-3.43-26.45,0-54.23-10.77-99.11-10.77-44.88-34.7-99.92-34.7-99.92l21.97-32.49,17.84-.61Z"/>
    </g>
  </g>
</svg>