<?xml version="1.0" encoding="UTF-8"?>
<svg id="Capa_1" xmlns="http://www.w3.org/2000/svg" version="1.1" viewBox="0 0 900 610.31">
  <!-- Generator: Adobe Illustrator 30.2.1, SVG Export Plug-In . SVG Version: 2.1.1 Build 1)  -->
  <defs>
    <style>
      .st0 {
        opacity: .6;
      }

      .st1 {
        fill: #fafafa;
      }

      .st2 {
        fill: #263238;
      }

      .st3 {
        fill: #ac033f;
      }

      .st4 {
        opacity: .3;
      }

      .st5 {
        fill: #c27460;
      }

      .st6, .st7 {
        fill: #fff;
      }

      .st7 {
        fill-rule: evenodd;
      }

      .st8 {
        fill: #e0e0e0;
      }

      .st9 {
        fill: #455a64;
      }

      .st10 {
        fill: #ac0340;
      }

      .st11 {
        fill: #7c4235;
      }

      .st12 {
        fill: #ebebeb;
      }

      .st13 {
        fill: #ff9a6c;
      }

      .st14 {
        fill: #f5f5f5;
      }

      .st15 {
        fill: #ffc09d;
      }
    </style>
  </defs>
  <g>
    <g>
      <path class="st8" d="M539.18,504.22h57.39c2.64,0,4.79,2.14,4.79,4.79v65.64c0,2.64-2.14,4.79-4.79,4.79h-57.39c-7.2,0-13.04-5.84-13.04-13.04v-49.13c0-7.2,5.84-13.04,13.04-13.04Z"/>
      <rect class="st12" x="512.63" y="504.22" width="75.21" height="75.21" rx="3.97" ry="3.97"/>
    </g>
    <polygon class="st8" points="553.49 560.89 530.7 545.65 536.02 537.7 551.3 547.92 570.31 522.76 577.95 528.53 553.49 560.89"/>
  </g>
  <g>
    <path class="st12" d="M317.22,521.82c.46,29.07-22.7,53.1-51.63,53.56-28.93.47-52.85-22.8-53.32-51.87-.46-29.07,22.7-53.1,51.63-53.56,28.94-.47,52.85,22.8,53.32,51.87ZM239.66,523.07c.22,13.9,11.66,25.02,25.49,24.8,13.83-.22,24.91-11.71,24.69-25.61-.22-13.9-11.66-25.02-25.49-24.8-13.83.22-24.91,11.71-24.69,25.61Z"/>
    <path class="st8" d="M317.22,521.82c.46,29.07-22.7,53.1-51.63,53.56l-.44-27.51c13.83-.22,24.91-11.71,24.69-25.61-.22-13.9-11.66-25.02-25.49-24.8l-.44-27.51c28.94-.47,52.85,22.8,53.32,51.87Z"/>
    <path class="st14" d="M270.3,579.61c-33.85.55-60.86-25.73-61.4-59.73l32.04-.52c.26,16.26,12.63,26.5,28.82,26.24l.54,34.01Z"/>
  </g>
  <g>
    <path class="st12" d="M877.85,65.86c.36,22.7-17.72,41.46-40.32,41.82-22.59.36-41.27-17.8-41.63-40.5-.36-22.7,17.72-41.46,40.32-41.82,22.59-.36,41.27,17.8,41.63,40.5ZM817.28,66.83c.17,10.85,9.1,19.54,19.91,19.37,10.8-.17,19.45-9.15,19.28-20-.17-10.85-9.1-19.54-19.91-19.37-10.8.17-19.45,9.15-19.28,20Z"/>
    <path class="st8" d="M877.85,65.86c.36,22.7-17.72,41.46-40.32,41.82l-.34-21.48c10.8-.17,19.45-9.15,19.28-20-.17-10.85-9.1-19.54-19.91-19.36l-.34-21.48c22.59-.36,41.27,17.8,41.63,40.5Z"/>
    <path class="st14" d="M841.21,110.98c-26.43.43-47.52-20.09-47.94-46.64l25.02-.4c.2,12.7,9.86,20.69,22.5,20.49l.42,26.56Z"/>
  </g>
  <path class="st12" d="M44.61,262h9.59v-24.02h6.69l.71-8.04h-7.41v-4.58c0-1.9.38-2.65,2.21-2.65h5.19v-8.35h-6.64c-7.14,0-10.36,3.14-10.36,9.16v6.41h-4.99v8.14h4.99v23.92Z"/>
  <g>
    <path class="st14" d="M241.38,52.59l38.6-5.9c3.24,21.18-11.53,41.26-32.7,44.5-21.18,3.24-41.26-11.53-44.5-32.7-3.24-21.18,11.53-41.26,32.7-44.5,3.37-.52,6.8-.59,10.19-.21l-4.29,38.81Z"/>
    <path class="st8" d="M253.9,13.91l-4.69,29.92,29.37-5.52s-4.32-16.77-24.68-24.41Z"/>
  </g>
  <g>
    <g>
      <path class="st6" d="M118.17,335.31H32.89c-12.52,0-22.67,10.15-22.67,22.67v51.53c0,12.52,10.15,22.67,22.67,22.67h31.27l11.37,16.37,11.37-16.37h31.27c12.52,0,22.67-10.15,22.67-22.67v-51.53c0-12.52-10.15-22.67-22.67-22.67Z"/>
      <path class="st8" d="M118.17,335.31s1.01-.06,2.95.14c1.92.19,4.81.81,8.12,2.59,1.63.92,3.36,2.12,5.01,3.72,1.62,1.63,3.17,3.63,4.39,6.04,1.22,2.41,2.09,5.23,2.35,8.31.2,3.09.07,6.3.12,9.73.02,6.83.03,14.36.05,22.5,0,4.07.02,8.31.02,12.68,0,2.19,0,4.41.01,6.67.05,2.24-.07,4.62-.57,6.92-1.04,4.61-3.57,9.06-7.38,12.33-3.77,3.27-8.75,5.42-14.02,5.6-10.36.12-21.13.05-32.33.08l.36-.19c-3.59,5.17-7.44,10.73-11.36,16.38l-.37.53-.37-.53c-3.6-5.19-7.46-10.74-11.37-16.37l.37.19c-7.24,0-14.92,0-22.7,0-1.87,0-3.73,0-5.59,0-1.85.01-3.71.02-5.6-.16-3.74-.45-7.34-1.78-10.41-3.87-3.05-2.12-5.58-4.93-7.33-8.14-1.71-3.23-2.64-6.83-2.73-10.42,0-14.1,0-27.7,0-40.66,0-3.24,0-6.44,0-9.59-.06-3.14.22-6.39,1.29-9.33,2.04-5.92,6.49-10.68,11.77-13.2,2.64-1.27,5.47-2.01,8.28-2.21,2.83-.17,5.52-.04,8.21-.07,5.35.01,10.48.02,15.38.03,19.57.06,35.42.11,46.41.14,5.45.04,9.7.07,12.62.09,1.42.02,2.51.03,3.28.04.74.02,1.12.05,1.12.05,0,0-.38.03-1.12.05-.77.01-1.86.03-3.28.05-2.92.02-7.16.05-12.62.09-10.99.03-26.84.08-46.41.14-4.9,0-10.03.02-15.38.03-2.66.04-5.43-.08-8.15.1-2.72.21-5.46.93-8.01,2.17-5.1,2.45-9.39,7.06-11.34,12.78-1.03,2.86-1.29,5.91-1.23,9.07,0,3.16,0,6.35,0,9.59.02,12.95.03,26.55.05,40.64.09,3.45.98,6.91,2.63,10.02,1.68,3.08,4.12,5.78,7.05,7.82,2.95,2.01,6.41,3.29,10,3.72,1.79.17,3.63.16,5.5.15,1.86,0,3.72,0,5.59,0,7.78,0,15.46,0,22.7,0h.24l.13.19c3.91,5.63,7.76,11.18,11.36,16.37h-.73c3.93-5.65,7.78-11.2,11.38-16.36l.13-.19h.23c11.18-.02,22,.07,32.29-.03,5.08-.16,9.9-2.23,13.55-5.38,3.69-3.14,6.14-7.44,7.16-11.9.5-2.25.62-4.48.58-6.76,0-2.26,0-4.48.01-6.67,0-4.38.02-8.61.02-12.68.02-8.15.04-15.67.05-22.5-.03-3.4.11-6.68-.06-9.69-.23-3.02-1.07-5.78-2.25-8.15-1.18-2.38-2.68-4.36-4.26-5.97-1.62-1.59-3.3-2.79-4.9-3.72-3.24-1.8-6.09-2.46-7.99-2.69-.95-.19-1.69-.14-2.18-.21-.49-.04-.74-.08-.74-.08Z"/>
    </g>
    <g>
      <path class="st8" d="M57.96,385.06c0,4.05-3.28,7.34-7.34,7.34s-7.34-3.28-7.34-7.34,3.28-7.34,7.34-7.34,7.34,3.28,7.34,7.34Z"/>
      <path class="st8" d="M82.09,385.06c0,4.05-3.28,7.34-7.34,7.34s-7.34-3.28-7.34-7.34,3.28-7.34,7.34-7.34,7.34,3.28,7.34,7.34Z"/>
      <path class="st8" d="M106.23,385.06c0,4.05-3.28,7.34-7.34,7.34s-7.34-3.28-7.34-7.34,3.28-7.34,7.34-7.34,7.34,3.28,7.34,7.34Z"/>
    </g>
  </g>
  <g>
    <g>
      <path class="st6" d="M783.03,132.37h-67.59c-9.92,0-17.96,8.04-17.96,17.96v40.84c0,9.92,8.04,17.96,17.96,17.96h24.79l9.01,12.97,9.01-12.97h24.79c9.92,0,17.96-8.04,17.96-17.96v-40.84c0-9.92-8.04-17.96-17.96-17.96Z"/>
      <path class="st8" d="M783.03,132.37s.8-.05,2.34.11c1.53.15,3.81.64,6.43,2.05,1.29.73,2.66,1.68,3.97,2.95,1.28,1.29,2.51,2.87,3.48,4.79.97,1.91,1.66,4.14,1.86,6.58.16,2.45.06,5,.1,7.71.01,5.41.03,11.38.04,17.84,0,3.23.01,6.58.02,10.05,0,1.73,0,3.5,0,5.29.04,1.78-.05,3.66-.45,5.49-.83,3.65-2.83,7.18-5.85,9.77-2.99,2.59-6.94,4.3-11.12,4.44-8.21.09-16.75.04-25.62.06l.28-.15c-2.84,4.1-5.9,8.5-9,12.98l-.29.42-.29-.42c-2.86-4.11-5.91-8.51-9.01-12.97l.29.15c-5.74,0-11.83,0-17.99,0-1.48,0-2.96,0-4.43,0-1.47,0-2.94.02-4.44-.13-2.96-.35-5.82-1.41-8.25-3.07-2.41-1.68-4.42-3.91-5.81-6.45-1.36-2.56-2.09-5.42-2.16-8.26,0-11.18,0-21.96,0-32.23,0-2.57,0-5.1,0-7.6-.05-2.49.18-5.07,1.02-7.39,1.62-4.69,5.15-8.47,9.33-10.46,2.09-1.01,4.33-1.59,6.56-1.75,2.24-.13,4.38-.03,6.5-.06,4.24,0,8.31.02,12.19.02,15.51.05,28.07.09,36.78.11,4.32.03,7.69.05,10,.07,1.13.02,1.99.03,2.6.04.59.01.89.04.89.04,0,0-.3.02-.89.04-.61,0-1.48.02-2.6.04-2.31.02-5.68.04-10,.07-8.71.03-21.27.07-36.78.11-3.88,0-7.95.02-12.19.02-2.11.03-4.3-.06-6.46.08-2.16.17-4.33.74-6.35,1.72-4.04,1.94-7.44,5.6-8.99,10.13-.81,2.27-1.03,4.68-.97,7.18,0,2.5,0,5.04,0,7.6.01,10.27.03,21.04.04,32.21.07,2.74.78,5.48,2.08,7.94,1.34,2.45,3.26,4.58,5.58,6.2,2.34,1.59,5.08,2.6,7.93,2.94,1.42.14,2.88.13,4.36.12,1.47,0,2.95,0,4.43,0,6.16,0,12.25,0,17.99,0h.19l.11.15c3.1,4.46,6.15,8.86,9,12.98h-.58c3.11-4.48,6.17-8.87,9.02-12.97l.1-.15h.18c8.86-.01,17.44.05,25.59-.02,4.03-.13,7.84-1.77,10.74-4.26,2.92-2.49,4.87-5.9,5.68-9.43.39-1.78.49-3.55.46-5.36,0-1.79,0-3.55,0-5.29,0-3.47.01-6.82.02-10.05.02-6.46.03-12.42.04-17.84-.03-2.7.09-5.29-.05-7.68-.18-2.39-.85-4.58-1.78-6.46-.93-1.88-2.13-3.45-3.38-4.73-1.28-1.26-2.62-2.21-3.88-2.95-2.57-1.42-4.83-1.95-6.34-2.13-.75-.15-1.34-.11-1.73-.17-.39-.03-.59-.06-.59-.06Z"/>
    </g>
    <g>
      <path class="st8" d="M735.31,171.79c0,3.21-2.6,5.81-5.81,5.81s-5.81-2.6-5.81-5.81,2.6-5.81,5.81-5.81,5.81,2.6,5.81,5.81Z"/>
      <path class="st8" d="M754.44,171.79c0,3.21-2.6,5.81-5.81,5.81s-5.81-2.6-5.81-5.81,2.6-5.81,5.81-5.81,5.81,2.6,5.81,5.81Z"/>
      <path class="st8" d="M773.57,171.79c0,3.21-2.6,5.81-5.81,5.81s-5.81-2.6-5.81-5.81,2.6-5.81,5.81-5.81,5.81,2.6,5.81,5.81Z"/>
    </g>
  </g>
  <path class="st12" d="M848.68,196.2c3.77,2.42,8.25,3.83,13.05,3.83,15.81,0,24.75-13.36,24.21-25.34,1.66-1.2,3.11-2.7,4.25-4.41-1.53.68-3.17,1.14-4.89,1.34,1.76-1.05,3.11-2.72,3.74-4.71-1.65.98-3.47,1.69-5.41,2.07-1.55-1.66-3.77-2.69-6.22-2.69-5.5,0-9.54,5.13-8.3,10.46-7.08-.35-13.35-3.75-17.55-8.9-2.23,3.83-1.16,8.84,2.64,11.37-1.4-.04-2.71-.43-3.86-1.07-.09,3.95,2.74,7.64,6.83,8.46-1.2.33-2.51.4-3.84.14,1.08,3.38,4.23,5.85,7.95,5.91-3.58,2.81-8.09,4.06-12.61,3.53Z"/>
  <g>
    <g>
      <path class="st1" d="M117.72,143.16l-3.11-10.4c3.39-5.51,5.35-11.99,5.35-18.94,0-19.97-16.19-36.16-36.16-36.16s-36.16,16.19-36.16,36.16,16.19,36.16,36.16,36.16c8.34,0,16.01-2.83,22.13-7.57v.02s11.78.74,11.78.74Z"/>
      <path class="st2" d="M117.72,143.16s-.24,0-.73-.02c-.54-.02-1.28-.06-2.23-.1-2.04-.1-5-.26-8.84-.46-.09,0-.15-.08-.15-.16,0-.03.02-.06.03-.09,0,0,0-.01.01-.02l.22.22c-3.67,2.87-9.14,6-16.31,7.21-3.56.63-7.52.67-11.62.03-4.1-.63-8.37-2.02-12.4-4.32-4.03-2.29-7.81-5.5-10.88-9.53-3.07-4.01-5.42-8.85-6.62-14.14-2.48-10.53.19-23.01,8.13-31.97,3.99-4.53,8.99-8.07,14.44-10.08,5.43-2.07,11.19-2.77,16.66-2.25,5.48.54,10.62,2.36,15.01,4.99,4.4,2.63,8.05,6.08,10.8,9.86,5.54,7.62,7.39,16.38,6.91,23.58-.44,7.27-2.96,13.02-5.4,16.91l.02-.12c.97,3.39,1.72,6,2.24,7.81.24.85.42,1.5.56,1.98.12.44.18.66.17.65,0,0-.09-.24-.23-.7-.15-.48-.36-1.15-.63-2-.55-1.77-1.35-4.34-2.39-7.66-.01-.04,0-.09.02-.12,2.37-3.89,4.8-9.6,5.18-16.78.42-7.11-1.45-15.72-6.93-23.19-2.72-3.71-6.32-7.09-10.65-9.66-4.32-2.57-9.37-4.34-14.74-4.86-5.37-.5-11.02.2-16.34,2.23-5.34,1.97-10.23,5.44-14.15,9.88-7.78,8.78-10.41,21-7.99,31.33,1.16,5.19,3.46,9.94,6.47,13.89,3,3.96,6.71,7.12,10.66,9.4,3.95,2.28,8.15,3.66,12.18,4.31,4.04.65,7.94.64,11.46.04,7.08-1.14,12.51-4.17,16.19-6.98.07-.05.17-.04.22.03.05.06.04.14,0,.19,0,0-.01.02-.01.02l-.11-.25c3.79.28,6.71.49,8.72.64.98.08,1.73.14,2.27.18.51.04.79.08.79.08Z"/>
    </g>
    <g>
      <path class="st2" d="M73.61,113.8c0,2.03-1.64,3.67-3.67,3.67s-3.67-1.64-3.67-3.67,1.64-3.67,3.67-3.67,3.67,1.64,3.67,3.67Z"/>
      <path class="st2" d="M88.31,113.8c0,2.03-1.65,3.67-3.67,3.67s-3.67-1.64-3.67-3.67,1.64-3.67,3.67-3.67,3.67,1.64,3.67,3.67Z"/>
      <path class="st2" d="M102.98,111.97c1.01,1.76.41,4-1.34,5.02s-4,.41-5.02-1.34c-1.01-1.76-.41-4,1.34-5.02,1.76-1.01,4-.41,5.02,1.34Z"/>
    </g>
  </g>
  <g>
    <g>
      <rect class="st6" x="241.38" y="67.9" width="408.38" height="340.01" rx="15.69" ry="15.69"/>
      <path class="st2" d="M629,408.56h-366.87c-11.8,0-21.4-9.6-21.4-21.4V88.66c0-11.8,9.6-21.4,21.4-21.4h366.87c11.8,0,21.4,9.6,21.4,21.4v298.5c0,11.8-9.6,21.4-21.4,21.4ZM262.13,68.55c-11.09,0-20.11,9.02-20.11,20.11v298.5c0,11.09,9.02,20.11,20.11,20.11h366.87c11.09,0,20.11-9.02,20.11-20.11V88.66c0-11.09-9.02-20.11-20.11-20.11h-366.87Z"/>
    </g>
    <rect class="st10" x="306.01" y="320.6" width="8.63" height="59.8"/>
    <rect class="st10" x="289.66" y="365.45" width="8.63" height="14.95"/>
    <rect class="st10" x="320.95" y="350.5" width="8.63" height="29.9"/>
    <rect class="st10" x="335.64" y="333.09" width="8.63" height="47.32"/>
    <rect class="st10" x="352.56" y="367.76" width="8.63" height="12.65"/>
    <path class="st10" d="M623.31,366.48c-.32-.37-.48-.85-.48-1.45s.16-1.08.48-1.45c.32-.37.74-.55,1.26-.55s.95.18,1.27.55c.32.37.49.85.49,1.46s-.16,1.09-.49,1.46c-.32.37-.75.55-1.27.55s-.94-.18-1.26-.55ZM625.23,365.97c.16-.22.24-.53.24-.94s-.08-.72-.24-.94c-.16-.22-.38-.33-.66-.33-.27,0-.49.11-.65.34-.16.23-.25.54-.25.93s.08.71.25.93c.16.23.38.34.65.34.29,0,.51-.11.66-.33ZM628.95,363.1h1.02l-4.99,7.3h-1.02l4.99-7.3ZM628.1,369.93c-.32-.37-.48-.85-.48-1.45s.16-1.08.48-1.45c.32-.37.74-.55,1.26-.55s.94.18,1.27.55c.33.37.49.85.49,1.45s-.16,1.08-.49,1.45c-.32.37-.74.55-1.27.55s-.94-.18-1.26-.55ZM630.02,369.41c.16-.23.24-.54.24-.93s-.08-.71-.24-.93c-.16-.23-.38-.34-.66-.34s-.5.11-.66.33c-.16.22-.24.54-.24.94s.08.72.24.94c.16.22.38.33.66.33s.5-.11.66-.34Z"/>
    <g>
      <path class="st12" d="M580.79,329.92h28.49c1.17,0,1.77-1.41.95-2.25l-14.25-14.55c-.52-.53-1.38-.53-1.9,0l-14.25,14.55c-.82.84-.23,2.25.95,2.25Z"/>
      <rect class="st12" x="586.3" y="327.21" width="18.27" height="28.97"/>
    </g>
    <g>
      <path class="st10" d="M598.47,380.46v5.91h-18.11v-4.68l8.17-7.55c.71-.67,1.18-1.24,1.42-1.71.24-.47.36-.94.36-1.39,0-.56-.19-1-.56-1.31-.38-.31-.92-.47-1.63-.47s-1.33.18-1.94.55c-.6.37-1.06.88-1.39,1.55l-5.74-2.87c.86-1.61,2.12-2.89,3.78-3.83,1.66-.94,3.66-1.4,6-1.4,1.79,0,3.37.29,4.74.87,1.38.58,2.45,1.41,3.23,2.48.77,1.08,1.16,2.31,1.16,3.71,0,1.25-.26,2.42-.79,3.5-.53,1.09-1.55,2.32-3.08,3.69l-3.23,2.94h7.62Z"/>
      <path class="st10" d="M604.94,385.48c-1.54-.94-2.74-2.29-3.62-4.07-.87-1.77-1.31-3.89-1.31-6.34s.44-4.57,1.31-6.34c.87-1.77,2.08-3.13,3.62-4.07,1.54-.94,3.31-1.4,5.31-1.4s3.77.47,5.31,1.4c1.54.94,2.74,2.29,3.62,4.07.87,1.77,1.31,3.89,1.31,6.34s-.44,4.57-1.31,6.34c-.87,1.78-2.08,3.13-3.62,4.07-1.54.94-3.31,1.4-5.31,1.4s-3.77-.47-5.31-1.4ZM612.83,375.07c0-3.81-.86-5.71-2.58-5.71s-2.58,1.91-2.58,5.71.86,5.71,2.58,5.71,2.58-1.9,2.58-5.71Z"/>
    </g>
    <path class="st10" d="M325.39,203.43c-.32-.37-.48-.85-.48-1.45s.16-1.08.48-1.45c.32-.37.74-.55,1.26-.55s.95.18,1.27.55c.32.37.49.85.49,1.46s-.16,1.09-.49,1.46c-.32.37-.75.55-1.27.55s-.94-.18-1.26-.55ZM327.32,202.92c.16-.22.24-.54.24-.94s-.08-.72-.24-.94c-.16-.22-.38-.33-.66-.33-.27,0-.49.11-.65.34-.16.23-.25.54-.25.93s.08.71.25.93c.16.23.38.34.65.34.29,0,.51-.11.66-.33ZM331.04,200.05h1.02l-4.99,7.3h-1.02l4.99-7.3ZM330.18,206.87c-.32-.37-.48-.85-.48-1.45s.16-1.08.48-1.45c.32-.37.74-.55,1.26-.55s.94.18,1.27.55c.33.37.49.85.49,1.45s-.16,1.08-.49,1.45c-.32.37-.74.55-1.27.55s-.94-.18-1.26-.55ZM332.11,206.36c.16-.23.24-.54.24-.93s-.08-.71-.24-.93c-.16-.23-.38-.34-.66-.34s-.5.11-.66.33c-.16.22-.24.54-.24.94s.08.72.24.94c.16.22.38.33.66.33s.5-.11.66-.34Z"/>
    <g>
      <path class="st12" d="M255.33,201.68h26.07c1.08,0,1.62-1.29.87-2.06l-13.03-13.31c-.48-.49-1.26-.49-1.73,0l-13.03,13.31c-.75.77-.21,2.06.87,2.06Z"/>
      <rect class="st12" x="260.37" y="199.2" width="16.72" height="26.5"/>
    </g>
    <g>
      <path class="st10" d="M299.73,201v22.59h-7.62v-16.85h-3.87v-5.74h11.49Z"/>
      <path class="st10" d="M307.43,222.71c-1.54-.94-2.74-2.29-3.61-4.07-.87-1.78-1.31-3.89-1.31-6.34s.44-4.57,1.31-6.34c.87-1.77,2.08-3.13,3.61-4.07,1.54-.94,3.31-1.4,5.31-1.4s3.77.47,5.31,1.4c1.54.94,2.74,2.29,3.61,4.07.87,1.78,1.31,3.89,1.31,6.34s-.44,4.57-1.31,6.34c-.87,1.77-2.08,3.13-3.61,4.07-1.54.94-3.31,1.4-5.31,1.4s-3.77-.47-5.31-1.4ZM315.32,212.3c0-3.81-.86-5.71-2.58-5.71s-2.58,1.9-2.58,5.71.86,5.71,2.58,5.71,2.58-1.9,2.58-5.71Z"/>
    </g>
    <path class="st2" d="M366.02,380.69c0,.19-17.58.34-39.26.34s-39.26-.15-39.26-.34,17.57-.34,39.26-.34,39.26.15,39.26.34Z"/>
  </g>
  <g>
    <g>
      <rect class="st6" x="501.06" y="6.39" width="195.07" height="113.63" rx="10.55" ry="10.55"/>
      <path class="st2" d="M685.58,120.03s.53,0,1.54-.16c1-.15,2.51-.53,4.18-1.61,1.63-1.09,3.46-2.96,4.28-5.76.44-1.39.46-2.96.43-4.64,0-1.68,0-3.47-.02-5.37-.03-15.18-.06-37.11-.11-64.22,0-6.78-.01-13.88-.02-21.28.03-3.62-2.01-7.27-5.33-9.06-1.65-.9-3.53-1.34-5.47-1.27-1.96,0-3.93,0-5.93,0-15.94,0-32.97.02-50.89.03-35.85,0-75.25.02-116.62.03-2.51,0-4.99.95-6.83,2.63-1.85,1.66-3.07,4-3.33,6.47-.13,5.03-.04,10.16-.07,15.18,0,10.07,0,20,0,29.76,0,9.75,0,19.34,0,28.72,0,4.69,0,9.33,0,13.92.02,2.28-.04,4.6.03,6.82.14,2.2,1.04,4.32,2.47,5.95,1.42,1.65,3.37,2.81,5.46,3.28,1.06.23,2.11.28,3.22.26,1.1,0,2.19,0,3.29,0,4.37,0,8.67,0,12.92,0,8.49,0,16.74.01,24.71.02,15.94.01,30.79.03,44.35.04,27.1.05,49.04.08,64.21.11,7.57.03,13.45.05,17.46.06,1.99.01,3.5.03,4.54.03,1.02.01,1.55.03,1.55.03,0,0-.52.02-1.55.03-1.04,0-2.55.02-4.54.03-4,.01-9.89.04-17.46.06-15.17.03-37.11.06-64.21.11-13.56.01-28.41.03-44.35.04-7.97,0-16.21.01-24.71.02-4.25,0-8.55,0-12.92,0-1.09,0-2.19,0-3.29,0-1.08.02-2.25-.02-3.36-.27-2.22-.5-4.29-1.72-5.8-3.47-1.52-1.74-2.47-3.98-2.62-6.32-.08-2.31-.02-4.56-.04-6.87,0-4.59,0-9.23,0-13.92,0-9.38,0-18.96,0-28.72,0-9.75,0-19.68,0-29.76.03-5.05-.07-10.08.07-15.25.28-2.63,1.57-5.13,3.55-6.9,1.97-1.78,4.61-2.8,7.28-2.8,41.36,0,80.77.02,116.62.03,17.92.01,34.95.02,50.89.03,1.99,0,3.97,0,5.93,0,1.98-.07,4.01.4,5.73,1.35,3.5,1.89,5.64,5.74,5.59,9.54,0,7.4-.01,14.5-.02,21.28-.05,27.1-.08,49.04-.11,64.22,0,1.9-.01,3.68-.02,5.37.02,1.67,0,3.29-.47,4.7-.86,2.85-2.74,4.73-4.4,5.81-1.71,1.08-3.24,1.44-4.25,1.57-.51.09-.9.07-1.16.09-.26,0-.39,0-.39,0Z"/>
    </g>
    <g>
      <g>
        <rect class="st10" x="526.03" y="78.28" width="5.59" height="20.31"/>
        <rect class="st10" x="545.97" y="61.85" width="5.59" height="36.74"/>
        <rect class="st9" x="535.34" y="37.75" width="6.91" height="60.84"/>
        <rect class="st10" x="565.9" y="84.69" width="5.59" height="13.9"/>
        <rect class="st9" x="555.93" y="84.69" width="5.59" height="13.9"/>
        <rect class="st10" x="585.83" y="75.82" width="5.59" height="22.77"/>
        <rect class="st9" x="575.86" y="56.06" width="5.59" height="42.53"/>
        <rect class="st9" x="615.73" y="56.06" width="5.59" height="42.53"/>
        <rect class="st9" x="595.8" y="34.53" width="5.59" height="64.06"/>
        <rect class="st10" x="605.76" y="82.72" width="5.59" height="15.86"/>
        <rect class="st9" x="655.59" y="86.94" width="5.59" height="11.65"/>
        <rect class="st9" x="635.66" y="35.74" width="5.59" height="62.85"/>
        <rect class="st10" x="645.62" y="48.6" width="5.59" height="49.99"/>
        <rect class="st10" x="625.69" y="46.78" width="5.59" height="51.81"/>
        <rect class="st10" x="665.56" y="56.06" width="5.59" height="42.53"/>
        <rect class="st8" x="526.18" y="104.61" width="13.15" height="2.31" rx=".6" ry=".6"/>
        <rect class="st8" x="564.28" y="104.61" width="13.15" height="2.31" rx=".6" ry=".6"/>
        <rect class="st8" x="597.9" y="104.61" width="13.15" height="2.31" rx=".6" ry=".6"/>
        <rect class="st8" x="632.54" y="104.61" width="13.15" height="2.31" rx=".6" ry=".6"/>
        <rect class="st8" x="661.89" y="104.61" width="13.15" height="2.31" rx=".6" ry=".6"/>
      </g>
      <path class="st2" d="M678.31,98.59c0,.19-36,.34-80.4.34s-80.41-.15-80.41-.34,36-.34,80.41-.34,80.4.15,80.4.34Z"/>
    </g>
    <circle class="st8" cx="519.68" cy="22.46" r="3.07"/>
    <path class="st8" d="M531.11,22.46c0,1.7-1.38,3.07-3.07,3.07s-3.07-1.38-3.07-3.07,1.38-3.07,3.07-3.07,3.07,1.38,3.07,3.07Z"/>
    <circle class="st8" cx="536.3" cy="22.46" r="3.07"/>
  </g>
  <g>
    <g>
      <path class="st10" d="M674.95,312.74h0c-25.32,0-45.84-20.52-45.84-45.84h0c0-25.32,20.52-45.84,45.84-45.84h0c25.32,0,45.84,20.52,45.84,45.84h0c0,25.32-20.52,45.84-45.84,45.84Z"/>
      <g>
        <path class="st6" d="M696.68,257.45c-.11-2.33-.48-3.92-1.02-5.31-.56-1.44-1.31-2.66-2.52-3.87-1.22-1.22-2.43-1.96-3.87-2.52-1.39-.54-2.98-.91-5.31-1.02-2.33-.11-3.08-.13-9.01-.13s-6.68.03-9.01.13c-2.33.11-3.92.48-5.31,1.02-1.44.56-2.66,1.31-3.87,2.52-1.22,1.22-1.96,2.44-2.52,3.87-.54,1.39-.91,2.98-1.02,5.31-.11,2.33-.13,3.08-.13,9.01s.03,6.68.13,9.01c.11,2.33.48,3.92,1.02,5.31.56,1.44,1.31,2.66,2.52,3.87,1.22,1.22,2.43,1.96,3.87,2.52,1.39.54,2.98.91,5.31,1.02,2.33.11,3.08.13,9.01.13s6.68-.03,9.01-.13c2.33-.11,3.92-.48,5.31-1.02,1.44-.56,2.66-1.31,3.87-2.52,1.22-1.22,1.96-2.44,2.52-3.87.54-1.39.91-2.98,1.02-5.31.11-2.33.13-3.08.13-9.01s-.03-6.68-.13-9.01ZM692.75,275.3c-.1,2.13-.45,3.29-.75,4.06-.4,1.02-.87,1.75-1.64,2.51-.77.76-1.49,1.24-2.51,1.64-.77.3-1.93.66-4.06.75-2.31.1-3,.13-8.83.13s-6.53-.02-8.83-.13c-2.13-.1-3.29-.45-4.06-.75-1.02-.4-1.75-.87-2.51-1.64-.76-.77-1.24-1.49-1.64-2.51-.3-.77-.66-1.93-.75-4.06-.1-2.31-.13-3-.13-8.83s.02-6.53.13-8.83c.1-2.13.45-3.29.75-4.06.4-1.02.87-1.75,1.64-2.51.77-.77,1.49-1.24,2.51-1.64.77-.3,1.93-.66,4.06-.75,2.31-.11,3-.13,8.83-.13l8.83.13c2.13.1,3.29.45,4.06.75,1.02.4,1.75.87,2.51,1.64.77.77,1.24,1.49,1.64,2.51.3.77.66,1.93.75,4.06.1,2.31.13,3,.13,8.83s-.02,6.53-.13,8.83Z"/>
        <path class="st6" d="M674.95,255.24c-6.2,0-11.23,5.03-11.23,11.23s5.03,11.23,11.23,11.23,11.23-5.03,11.23-11.23-5.03-11.23-11.23-11.23ZM674.95,273.76c-4.03,0-7.29-3.26-7.29-7.29s3.26-7.29,7.29-7.29,7.29,3.26,7.29,7.29-3.26,7.29-7.29,7.29Z"/>
        <path class="st6" d="M686.62,252.17c-1.45,0-2.62,1.17-2.62,2.62s1.17,2.62,2.62,2.62,2.62-1.18,2.62-2.62-1.17-2.62-2.62-2.62Z"/>
      </g>
    </g>
    <g>
      <rect class="st10" x="603.5" y="237.78" width="1.3" height="60.83" transform="translate(327.48 868.51) rotate(-89.19)"/>
      <path class="st10" d="M576.29,264.37c1.88,1.41,2.25,4.08.84,5.95-1.41,1.88-4.08,2.25-5.95.84-1.88-1.41-2.25-4.08-.84-5.95,1.41-1.88,4.08-2.25,5.95-.84Z"/>
    </g>
  </g>
  <g>
    <g>
      <path class="st10" d="M412.69,113.13h0c-25.94,0-46.96-21.02-46.96-46.96h0c0-25.94,21.02-46.96,46.96-46.96h0c25.94,0,46.96,21.02,46.96,46.96h0c0,25.94-21.02,46.96-46.96,46.96Z"/>
      <path class="st6" d="M406.68,87.15h9.59v-24.02h6.69l.71-8.04h-7.41v-4.58c0-1.9.38-2.65,2.21-2.65h5.19v-8.35h-6.64c-7.14,0-10.36,3.14-10.36,9.16v6.41h-4.99v8.14h4.99v23.92Z"/>
    </g>
    <rect class="st10" x="413.09" y="104.65" width="1.3" height="55.01"/>
    <path class="st10" d="M409.4,160.7c.58-2.27,2.9-3.65,5.18-3.06,2.27.58,3.65,2.9,3.06,5.18s-2.9,3.65-5.18,3.06c-2.27-.58-3.65-2.9-3.06-5.18Z"/>
  </g>
  <g>
    <g>
      <path class="st10" d="M302.79,188.55h0c-25.32,0-45.84-20.52-45.84-45.84h0c0-25.32,20.52-45.84,45.84-45.84h0c25.32,0,45.84,20.52,45.84,45.84h0c0,25.32-20.52,45.84-45.84,45.84Z"/>
      <g>
        <path class="st7" d="M327.72,140.83c-.33-13.25-11.25-23.88-24.68-23.88s-24.09,10.39-24.66,23.43c-.01.36-.02.72-.02,1.07,0,4.64,1.29,8.96,3.54,12.66l-2.77,8.17c-.7,2.06,1.25,4.04,3.32,3.38l8.67-2.76c3.54,1.94,7.61,3.05,11.93,3.05,13.64,0,24.69-10.97,24.69-24.5,0-.21,0-.42-.01-.62ZM303.05,162.06c-4.22,0-8.14-1.25-11.42-3.41l-7.97,2.54,2.59-7.65c-2.48-3.4-3.95-7.57-3.95-12.08,0-.67.04-1.34.1-2,1.02-10.43,9.89-18.6,20.65-18.6s19.86,8.38,20.69,18.99c.05.53.07,1.06.07,1.61,0,11.36-9.32,20.6-20.76,20.6Z"/>
        <path class="st7" d="M314.36,146.41c-.61-.3-3.58-1.76-4.14-1.95-.56-.21-.96-.3-1.36.3-.4.6-1.57,1.95-1.92,2.35-.36.4-.7.45-1.32.15-.6-.3-2.55-.92-4.87-2.98-1.79-1.58-3.02-3.55-3.36-4.15-.35-.6-.03-.92.27-1.23.28-.28.6-.71.91-1.05.08-.1.15-.2.22-.29.14-.22.24-.43.38-.72.21-.4.1-.75-.05-1.05-.15-.3-1.36-3.26-1.87-4.46-.5-1.2-1.01-.99-1.36-.99s-.75-.06-1.16-.06-1.06.15-1.62.75c-.55.6-2.11,2.06-2.11,5.02,0,.69.13,1.39.31,2.05.61,2.11,1.93,3.86,2.16,4.16.3.39,4.18,6.66,10.33,9.07,6.16,2.39,6.16,1.59,7.27,1.49,1.11-.09,3.58-1.44,4.08-2.86.51-1.4.51-2.6.36-2.85-.15-.24-.56-.39-1.16-.69Z"/>
      </g>
    </g>
    <rect class="st10" x="335.79" y="161.55" width="1.3" height="42.82" transform="translate(-37.66 264.9) rotate(-40.89)"/>
    <path class="st10" d="M346.96,201.73c-.97-2.14-.03-4.66,2.11-5.63,2.14-.97,4.66-.03,5.63,2.11s.03,4.66-2.11,5.63c-2.14.97-4.66.03-5.63-2.11Z"/>
  </g>
  <g>
    <g>
      <path class="st9" d="M735.45,469.94h90.05c2.64,0,4.79,2.14,4.79,4.79v98.3c0,2.64-2.14,4.79-4.79,4.79h-90.05c-7.2,0-13.04-5.84-13.04-13.04v-81.79c0-7.2,5.84-13.04,13.04-13.04Z"/>
      <g class="st4">
        <path d="M735.45,469.94h90.05c2.64,0,4.79,2.14,4.79,4.79v98.3c0,2.64-2.14,4.79-4.79,4.79h-90.05c-7.2,0-13.04-5.84-13.04-13.04v-81.79c0-7.2,5.84-13.04,13.04-13.04Z"/>
      </g>
      <rect class="st9" x="703.04" y="469.94" width="102.21" height="107.87" rx="3.97" ry="3.97"/>
    </g>
    <g>
      <g>
        <path class="st15" d="M690.34,339.88s-11.38-9.91-14.43-11.62c-3.05-1.71-8.26-.68-12.87-1.39-4.61-.71-11.16-3.81-12.82-2.91-1.97,1.07.09,5.54,7.14,8.31l-2.05-.18-5.02.4s-1.85-2.73-3.44-2.71c-2.26.03-2.2,1.89-2.2,1.89,0,0-3.43-4.04-4.56.33,0,0-4.04-1.53-4.31,1.53,0,0-.9,2.45,7.74,3.12,0,0,7.34,6.89,9.14,7.6,1.8.7,8.04-.26,8.04-.26,0,0,1.82,2.62,3.74,2.73,3.65.21,13-.42,13-.42l3.69,4.4,9.22-10.8Z"/>
        <path class="st13" d="M660.91,344.04s-.3-.53-.89-1.45c-.55-.92-1.46-2.28-1.72-4.16-.27-1.89.58-4.14,2.19-6.1.4-.5.83-.99,1.28-1.49.46-.49.91-1.04,1.42-1.41.51-.38,1.12-.43,1.57,0,.46.4.64,1.07.61,1.76-.09,1.91-1.11,3.69-2.51,4.73l-.31.24.3.25c.96.81,1.75,1.72,2.39,2.65l.16.24.24-.16c2.95-2,5.88-2.91,7.94-3.33,2.08-.42,3.32-.43,3.31-.51,0-.03-.31-.05-.89-.05-.58,0-1.42.06-2.49.23-2.11.33-5.14,1.18-8.2,3.19l.4.08c-.65-.98-1.48-1.94-2.47-2.8l-.02.49c1.55-1.15,2.68-3.07,2.78-5.21.04-.78-.16-1.69-.83-2.26-.32-.28-.76-.47-1.21-.45-.45.01-.84.21-1.15.43-.63.47-1.05,1.02-1.51,1.51-.46.51-.89,1.01-1.3,1.53-1.64,2.04-2.54,4.49-2.18,6.53.35,2.02,1.35,3.35,1.97,4.24.66.88,1.06,1.33,1.09,1.31Z"/>
        <path class="st13" d="M649.64,331.87c-.14.12,1.4,2.17,3.43,4.58.52.6.97,1.18,1.5,1.69.54.51,1.2.77,1.75.85.57.07,1-.07,1.28-.15.28-.09.43-.17.42-.21,0-.04-.18-.05-.46-.03-.29.01-.7.06-1.15-.05-.46-.12-.98-.37-1.42-.83-.44-.46-.9-1.08-1.42-1.67-2.03-2.41-3.79-4.28-3.93-4.16Z"/>
        <path class="st13" d="M653.04,343.28c.14-.13-2.13-2.57-4.5-5.9-2.38-3.32-3.95-6.25-4.13-6.16-.15.07,1.18,3.17,3.6,6.54,2.4,3.38,4.91,5.64,5.02,5.52Z"/>
        <path class="st13" d="M645.87,338.8c.1-.12-1.3-1.65-2.93-3.64-1.65-1.98-2.99-3.58-3.14-3.48-.15.1.97,1.9,2.64,3.89,1.65,2.01,3.3,3.38,3.43,3.23Z"/>
        <path class="st13" d="M659.42,332.59c.02-.18-1.02-.39-2.34-.48-1.31-.09-2.38-.01-2.39.16,0,.18,1.04.39,2.34.48,1.3.09,2.37.01,2.39-.16Z"/>
      </g>
      <path class="st10" d="M755.67,309.43s-12.13-.9-19.17,13.24c-4.66,9.35-18.82,34.56-18.82,34.56l-27.86-23.4-16.33,17.66s27.88,33.21,38.71,35.73c10.83,2.52,23.59-4.83,27.59-10.5,4-5.66,17.3-19.49,17.3-19.49l-1.43-47.79Z"/>
    </g>
    <g>
      <path class="st2" d="M759.05,339.36l1.94-31.31c.06-24.3-2.44-52.42.53-60.37,5.49-14.68,25.2-17.83,25.2-17.83,26.6-2.71,31.98,17.63,35.23,36.2.55,3.15,2.07,8.73,3.97,15.18,4.35,13.42,9.73,27.17,19.87,36.07,3.87,3.4,6.54,8.26,7.55,13.31,1.01,5.05-1.5,11.25-6.56,12.25,2.67,2.39,4.15,6.04,3.9,9.62-.25,3.57-2.23,6.98-5.2,8.98-4.19,2.81-9.64,2.66-14.67,2.23-4.99-.42-10.24-1.12-14.25-4.12-4.02-3.01-6.18-7.86-7.85-12.6-2.01-5.7-3.57-11.57-4.66-17.52l-45,9.89Z"/>
      <path class="st15" d="M785.76,236.73l1.89-1.32,16.71,9.93c2.56.54,4.27,2.95,3.95,5.54l-11,57.6c-.59,3.94-.03,7.66-2.89,10.43l-19.58,18.4c-6.87,6.65-3.78-9.85-7.02-18.85-.23-.63,1.47-2.58,1.44-3.01-.02-.53-.1-.89-.06-1.34.19-4.75.79-8.81.79-8.81.47-5.18.7-7.3.69-7.25,0,0-10.72-2.94-11.51-17.41-.39-7.19,1.37-16.74,3.24-26.11,2.59-12.97,12.86-19.46,23.35-17.82Z"/>
      <path class="st2" d="M781.62,266.78c-.13.96.57,1.87,1.57,2.02,1,.16,1.92-.49,2.05-1.45.13-.96-.57-1.87-1.57-2.02-1-.16-1.92.49-2.05,1.45Z"/>
      <path class="st2" d="M763.8,263.97c-.13.96.57,1.87,1.57,2.02,1,.16,1.92-.49,2.05-1.45.13-.96-.57-1.87-1.57-2.02-1-.16-1.92.49-2.05,1.45Z"/>
      <path class="st2" d="M763.62,259.25c.2.26,1.69-.62,3.65-.41,1.96.18,3.3,1.34,3.54,1.12.12-.1-.07-.55-.65-1.07-.57-.52-1.58-1.07-2.8-1.19-1.22-.12-2.3.22-2.94.62-.65.4-.9.81-.8.93Z"/>
      <path class="st2" d="M782.59,261.83c.23.24,1.62-.79,3.59-.78,1.97-.02,3.42.99,3.64.75.1-.11-.12-.54-.76-1-.62-.46-1.68-.9-2.91-.9-1.23,0-2.26.46-2.86.92-.61.47-.81.9-.7,1.01Z"/>
      <path class="st2" d="M774.44,274.96c.02-.11-1.18-.45-3.13-.91-.5-.1-.96-.25-1.01-.6-.08-.37.18-.89.49-1.45.6-1.16,1.22-2.39,1.88-3.67,2.62-5.22,4.58-9.54,4.37-9.64-.21-.1-2.51,4.05-5.13,9.27-.63,1.29-1.24,2.52-1.82,3.69-.25.55-.64,1.16-.46,1.94.1.39.44.7.75.82.31.13.59.17.84.21,1.98.31,3.21.45,3.23.34Z"/>
      <path class="st13" d="M770.67,298.06s9.51,1.61,19.59-3.11c0,0-5.81,9.36-19.92,6.55l.33-3.44Z"/>
      <path class="st2" d="M782.81,253.8c.18.54,2.16.35,4.46.69,2.32.3,4.16,1.03,4.48.56.14-.23-.17-.74-.91-1.28-.73-.54-1.91-1.07-3.3-1.26-1.39-.19-2.66,0-3.52.31-.86.32-1.3.73-1.22.98Z"/>
      <path class="st2" d="M764.88,251.35c.29.53.63.38,2.52.83,1.9.39,4.74,1.26,5.22.89.22-.18.07-.68-.52-1.27-.58-.58-1.65-1.2-2.95-1.49-1.3-.29-2.52-.17-3.29.11-.78.28-1.11.67-.98.93Z"/>
      <path class="st2" d="M804.13,275.61s-8.77,1.6-16.84-22.67c-2.73-8.19-2.85-18.03-2.85-18.03l3.31-.46s18.83,8.59,19.12,8.89c.29.3,3.39,10.95,3.39,10.95l-6.14,21.32Z"/>
      <path class="st15" d="M801.81,274.31c.11-1.06,1.6-3.43,2.66-3.49,2.84-.15,7.85.6,7.17,7.7-.94,9.71-10.5,6.76-10.49,6.48,0-.22.27-7.04.66-10.7Z"/>
      <path class="st13" d="M804.47,281.62s.16.13.43.29c.27.15.74.29,1.26.15,1.06-.28,2.08-1.82,2.3-3.57.11-.88,0-1.74-.24-2.47-.23-.74-.64-1.28-1.15-1.42-.5-.17-.9.1-1.04.37-.16.26-.11.46-.17.47-.03.02-.19-.18-.08-.58.06-.19.19-.41.44-.57.25-.17.6-.23.96-.16.74.12,1.35.88,1.62,1.68.31.81.45,1.77.32,2.76-.25,1.95-1.43,3.68-2.87,3.95-.7.11-1.25-.15-1.52-.41-.28-.27-.31-.49-.27-.51Z"/>
      <path class="st9" d="M806.17,286.05c.02,1.38-1.09,2.51-2.47,2.53-1.38.02-2.51-1.09-2.53-2.47-.02-1.38,1.09-2.51,2.47-2.53,1.38-.02,2.51,1.09,2.53,2.47Z"/>
      <path class="st2" d="M836.54,240.78c-2.68-3.32-7.34-4.83-11.51-3.91-4.13.91-7.66,4.12-8.97,8.14l-1.18,24.44c1.62.71,3.65.33,4.9-.91,1.26-1.24,1.66-3.27.97-4.89,1.16,1.9,3.53,3.01,5.71,2.56,2.18-.45,3.95-2.5,3.96-4.73,0-1.8-1.21-3.52-2.85-4.2,3.76.64,7.87-1.22,9.88-4.51,2.22-3.65,1.77-8.66-.91-11.99Z"/>
      <path class="st9" d="M819.03,263.94s-.14.11-.45.27c-.31.15-.74.43-1.35.65-1.19.52-3.03,1.07-5.36,1.31-2.33.24-5.16.05-8.14-.8-2.98-.85-6.09-2.42-8.8-4.76-2.69-2.37-4.71-5.18-6.1-7.94-1.4-2.76-2.22-5.44-2.68-7.72-.46-2.29-.62-4.17-.64-5.47-.03-.65,0-1.15,0-1.5.01-.34.03-.52.05-.52.05,0,.07.72.17,2,.09,1.29.31,3.15.82,5.39.51,2.24,1.36,4.87,2.76,7.56,1.39,2.7,3.38,5.43,6,7.75,2.64,2.28,5.67,3.82,8.57,4.68,2.91.86,5.67,1.09,7.95.9,4.61-.35,7.14-1.98,7.19-1.82Z"/>
      <path class="st9" d="M819.42,267.05c.06.04-.2.63-.85,1.44-.65.81-1.73,1.8-3.14,2.55-1.41.74-2.84,1.08-3.88,1.16-1.04.08-1.67-.04-1.67-.11-.02-.19,2.57-.12,5.27-1.57,2.72-1.41,4.12-3.58,4.27-3.47Z"/>
      <path class="st9" d="M821.78,266.31c-.09.01-.31-1.26-.69-3.3-.39-2.04-.97-4.85-1.77-7.92-.8-3.07-1.66-5.8-2.32-7.78-.66-1.97-1.09-3.19-1-3.22.07-.03.64,1.13,1.4,3.08.76,1.94,1.69,4.68,2.5,7.77.8,3.09,1.32,5.93,1.61,8,.28,2.07.36,3.36.28,3.37Z"/>
      <path class="st13" d="M779.84,281.3c0-.73-.31-1.41-.75-1.92-.89-1.01-2.36-1.29-3.55-.7-1.19.6-2.02,2.05-2.01,3.5h0c.49.92,1.35,1.61,2.36,1.84.16.04.32.06.48.08.78.09,1.61-.07,2.29-.56.68-.49,1.17-1.35,1.18-2.25Z"/>
      <path class="st2" d="M779.19,277.64c-.31-.04-.48,2.02-2.37,3.34-1.88,1.32-4.06.91-4.1,1.2-.04.13.46.44,1.38.54.91.11,2.26-.08,3.41-.88,1.15-.81,1.71-1.97,1.85-2.81.15-.86-.04-1.39-.18-1.39Z"/>
    </g>
    <g>
      <g>
        <path class="st10" d="M754.26,309.41s-14.97,20.2-16.2,27.21c-1.23,7.01,2.24,52.28,4.03,60.1l-11.59,26.06,19.81,4.64,65.85-1.13-2.78-43.34,6.67-28.8.68-37.89-23.42-7.79c-6.14,12.41-26.37,8.34-27.45-1.59l-15.6,2.51Z"/>
        <path class="st10" d="M820.73,316.28s8.06,2.9,12.69,12.2c3.73,7.49,13.96,39.94,16.5,48.15,2.8,9.05,3.7,16.74-1.41,22.97-1.47,1.79-1.72,3.95-12.49,8.45-10.66,4.45-38.95,13.02-38.95,13.02l-5.9-14.64,34.75-21.32-10.04-27.05,4.85-41.78Z"/>
        <path class="st2" d="M823.34,344.04c.18.05-1.92,8.72-4.69,19.38-2.77,10.66-5.15,19.26-5.32,19.22s1.92-8.72,4.69-19.38c2.76-10.66,5.15-19.26,5.32-19.22Z"/>
        <g>
          <path class="st15" d="M761.35,410.46l2.83-1.33-1.06,1.29s-1.37,1.45-.95,3.05c.42,1.6,3.36,1.95,3.36,1.95,0,0-.26,1.69.84,3.16,1.03,1.37,4.96.37,4.96.37l-.54,1.17c-.67,1.25.94,2.8,1.68,2.99.74.19,3.62-.62,4.92-1.48,1.3-.85,6.07-.47,6.07-.47,0,0,5.98,1.91,8.52,1,2.54-.91,3.28-2.76,3.28-2.76,0,0-.42-11.19-4.09-12.96-1.87-.91-12.73-5.07-15.97-6.45-1.09-.47-2.32-.49-3.43-.07-3.52,1.33-9.9,3.98-11.49,5.2,0,0-2.79,1.75-2.23,3.43.32.96,1.22,2.34,3.29,1.93Z"/>
          <path class="st13" d="M769.57,405.35c.04.06-1.22,1.05-2.83,2.21-1.61,1.16-2.94,2.05-2.99,1.99-.04-.06,1.22-1.05,2.83-2.21,1.61-1.16,2.94-2.05,2.99-1.99Z"/>
          <path class="st13" d="M772.46,411.53c.03.08-1.6.79-3.49,1.88-1.89,1.09-3.38,2.07-3.43,2-.02-.03.33-.31.92-.72.59-.41,1.42-.97,2.38-1.51.96-.55,1.86-.98,2.52-1.26.67-.28,1.09-.42,1.1-.39Z"/>
          <path class="st13" d="M776.49,416.04c.04.07-1.17.81-2.69,1.65-1.52.85-2.79,1.48-2.82,1.42-.04-.07,1.17-.81,2.69-1.65,1.52-.85,2.79-1.48,2.82-1.42Z"/>
        </g>
        <path class="st2" d="M741.05,324.95s.01.23-.03.65c-.06.5-.12,1.1-.21,1.83-.2,1.58-.46,3.88-.74,6.72-.57,5.68-1.08,13.56-1,22.27.09,8.71.75,16.58,1.42,22.25.33,2.84.64,5.13.87,6.71.1.73.17,1.33.24,1.83.05.42.06.64.04.64-.02,0-.08-.21-.17-.62-.1-.49-.22-1.09-.36-1.81-.31-1.57-.69-3.86-1.08-6.69-.79-5.67-1.54-13.56-1.62-22.3-.08-8.74.52-16.64,1.21-22.33.34-2.84.67-5.13.96-6.71.13-.72.24-1.32.33-1.81.08-.41.14-.63.16-.62Z"/>
      </g>
      <g>
        <g>
          <g>
            <path class="st9" d="M709.58,561.45l14.58,22.24s-16.96,22.25-14.65,26.63l42.7-26.66-21.34-35.58-21.29,13.37Z"/>
            <path class="st8" d="M736.2,573.53c.97-.28,2.12.32,2.45,1.3.33.98-.24,2.18-1.2,2.48-.96.3-2.37-.38-2.59-1.39-.22-1.01.52-2.38,1.53-2.43"/>
            <path class="st2" d="M752.21,583.65l-2.29-3.5-40.09,26.87s-1.38,2.04-.33,3.29l42.7-26.66Z"/>
            <path class="st6" d="M723.33,583.89c.14.21,1.24-.34,2.69-.29,1.45.01,2.54.62,2.68.41.17-.16-.93-1.26-2.68-1.29-1.75-.05-2.86,1-2.69,1.17Z"/>
            <path class="st6" d="M720.01,588.6c.08.24,1.2.04,2.47.51,1.27.43,2.05,1.31,2.25,1.17.22-.09-.4-1.44-1.98-1.99-1.57-.57-2.86.11-2.73.32Z"/>
            <path class="st6" d="M720.83,595.73c.22-.07-.15-1.33-1.4-2.18-1.25-.86-2.51-.71-2.49-.47-.01.25,1.01.49,2.02,1.2,1.03.69,1.64,1.56,1.86,1.45Z"/>
            <path class="st6" d="M720.55,578.46c.21.14.98-.75,2.21-1.41,1.22-.68,2.38-.84,2.38-1.1.03-.23-1.35-.47-2.79.32-1.44.78-2,2.08-1.8,2.18Z"/>
          </g>
          <path class="st2" d="M753.49,426.3s-70.15,23.39-81.68,32.7c-9.29,7.5-8.06,29.01-2.67,37.6,2.19,3.49,50.64,84.78,50.64,84.78l24.06-13.15-32.4-79.37s79.14-15.37,93.78-21.96c18.13-8.16,12.32-26.98,12.32-26.98l-3.17-13.62h-60.88Z"/>
          <g>
            <path class="st9" d="M727.46,539.39l14.58,22.24s-16.96,22.25-14.65,26.63l42.7-26.66-21.34-35.58-21.29,13.37Z"/>
            <path class="st8" d="M754.09,551.47c.97-.28,2.12.32,2.45,1.3.33.98-.24,2.18-1.2,2.48-.96.3-2.37-.38-2.59-1.39-.22-1.01.52-2.38,1.53-2.43"/>
            <path class="st2" d="M770.09,561.59l-2.29-3.5-40.09,26.87s-1.38,2.04-.33,3.29l42.7-26.66Z"/>
            <path class="st6" d="M742.02,561.83c.14.21,1.24-.34,2.69-.29,1.45.01,2.54.62,2.68.41.17-.16-.93-1.26-2.68-1.29-1.75-.05-2.86,1-2.69,1.17Z"/>
            <path class="st6" d="M738.66,566.66c.08.24,1.2.04,2.47.51,1.27.43,2.05,1.31,2.25,1.17.22-.09-.4-1.44-1.98-1.99-1.57-.57-2.86.11-2.73.32Z"/>
            <path class="st6" d="M739.47,573.89c.22-.07-.15-1.33-1.4-2.18-1.25-.85-2.51-.71-2.49-.47-.01.25,1.01.49,2.02,1.2,1.03.69,1.64,1.56,1.86,1.45Z"/>
            <path class="st6" d="M739.73,557.76c.21.14.98-.75,2.21-1.41,1.22-.68,2.38-.84,2.38-1.1.03-.23-1.35-.47-2.79.32-1.44.78-2,2.08-1.8,2.18Z"/>
          </g>
          <g>
            <path class="st2" d="M677.94,428.33c-4.03,3.72-10.19,15.9-3.63,30.2,4.16,9.07,61.56,97.82,61.56,97.82l23.29-15.34s-19.95-41.83-26.61-61.42c-5.06-14.9-16.32-37.87-17.05-39.37h0l36.17-13.29s-38.66-12.28-52.74-9.27c-14.08,3.01-21,10.67-21,10.67Z"/>
            <path class="st9" d="M677.94,428.33s.3-.37.97-1c.67-.63,1.71-1.52,3.17-2.57,2.9-2.07,7.55-4.78,14.1-6.58.82-.2,1.67-.41,2.53-.63.88-.16,1.8-.26,2.73-.4,1.87-.12,3.85-.18,5.89-.03,4.1.23,8.51.82,13.19,1.7,9.37,1.74,19.86,4.38,31.23,7.85l.73.22-.72.27c-10.92,4.02-23.14,8.52-36.16,13.32l.16-.41c2.8,5.73,5.59,11.7,8.35,17.87,2.75,6.18,5.49,12.56,7.92,19.24,2.3,6.71,4.94,13.43,7.81,20.22,2.86,6.79,5.88,13.64,9,20.55,3.53,7.8,7.07,15.46,10.6,22.9l.12.26-.24.16c-8.01,5.27-15.81,10.4-23.29,15.33l-.27.18-.17-.27c-11.57-17.94-22.32-34.71-31.89-49.79-9.57-15.08-18-28.46-24.79-39.72-1.68-2.83-3.3-5.49-4.64-8.13-1.22-2.69-2.08-5.35-2.54-7.91-.42-2.56-.53-4.98-.37-7.18.2-2.2.56-4.19,1.09-5.91,1.03-3.46,2.48-5.89,3.58-7.41,1.12-1.52,1.89-2.13,1.89-2.13,0,0-.16.19-.48.54-.33.34-.78.9-1.32,1.66-1.06,1.53-2.47,3.96-3.46,7.41-.51,1.72-.85,3.69-1.04,5.87-.13,2.18-.02,4.58.42,7.11.47,2.53,1.33,5.16,2.56,7.81,1.34,2.6,2.97,5.27,4.66,8.08,6.83,11.23,15.3,24.58,24.9,39.64,9.61,15.06,20.37,31.81,31.96,49.74l-.44-.09c7.49-4.93,15.27-10.06,23.28-15.34l-.11.41c-3.53-7.45-7.08-15.11-10.61-22.91-3.12-6.92-6.15-13.78-9.01-20.57-2.87-6.78-5.52-13.55-7.81-20.26-2.41-6.65-5.15-13.03-7.88-19.2-2.75-6.17-5.54-12.13-8.32-17.86l-.14-.3.31-.11c13.04-4.77,25.26-9.25,36.19-13.25v.49c-11.32-3.5-21.8-6.17-31.14-7.94-4.67-.9-9.07-1.51-13.14-1.75-2.04-.16-3.99-.11-5.84,0-.92.13-1.82.22-2.69.37-.86.21-1.7.41-2.52.61-6.52,1.75-11.16,4.4-14.08,6.43-1.47,1.02-2.52,1.89-3.21,2.5-.59.54-.86.79-1.03.94Z"/>
          </g>
        </g>
        <path class="st9" d="M707.03,431.62c.09-.14,2.52,1.37,4.94,3.91,2.43,2.53,3.82,5.03,3.68,5.11-.16.11-1.78-2.18-4.15-4.66-2.36-2.49-4.58-4.21-4.46-4.37Z"/>
        <path class="st2" d="M727.46,539.39s.1-.08.34-.24c.27-.18.62-.41,1.06-.7.98-.63,2.38-1.53,4.16-2.68,3.7-2.36,9.01-5.75,15.6-9.95l.2-.13.13.21c5.7,9.46,13.11,21.75,21.42,35.53l.17.28-.27.17c-5.54,3.46-11.42,7.13-17.46,10.91-8.88,5.54-17.4,10.84-25.25,15.74l-.31.19-.14-.31c-.38-.82-.25-1.63-.11-2.35.15-.74.39-1.43.64-2.11.53-1.35,1.15-2.62,1.8-3.84,1.31-2.45,2.73-4.74,4.14-6.91,2.83-4.34,5.64-8.24,8.27-11.71v.28c-4.47-6.9-8.08-12.5-10.61-16.41-1.21-1.9-2.16-3.38-2.84-4.43-.3-.48-.54-.86-.72-1.15-.16-.26-.23-.39-.22-.38.01,0,.11.14.29.4.2.29.46.67.79,1.15.7,1.04,1.7,2.52,2.97,4.41,2.56,3.85,6.22,9.35,10.74,16.14l.09.14-.1.14c-2.59,3.48-5.37,7.39-8.17,11.73-1.39,2.17-2.79,4.45-4.08,6.88-.64,1.22-1.25,2.47-1.76,3.78-.25.66-.47,1.33-.61,2.01-.15.67-.2,1.4.05,1.93l-.45-.12c7.84-4.9,16.35-10.22,25.23-15.77,6.05-3.77,11.93-7.44,17.47-10.9l-.11.45c-8.25-13.82-15.6-26.14-21.26-35.63l.33.08c-6.6,4.08-11.91,7.37-15.62,9.66-1.83,1.12-3.26,1.99-4.27,2.61-.47.28-.84.51-1.12.68-.26.15-.39.23-.41.23Z"/>
      </g>
      <g class="st4">
        <polygon points="680.17 426.3 733.45 428.79 816.23 434.32 814.36 426.3 816.16 426.3 815.99 423.61 683.97 423.61 680.17 426.3"/>
      </g>
      <path class="st2" d="M819.82,368.67s.22.4.54,1.18c.35.88.8,2,1.34,3.36,1.15,3,2.7,7.06,4.51,11.79l.09.24-.22.14c-2.78,1.72-5.82,3.59-9.01,5.56-6.62,4.06-12.63,7.71-17,10.31-2.12,1.25-3.87,2.28-5.19,3.06-1.23.71-1.93,1.08-1.95,1.04-.02-.04.62-.49,1.81-1.27,1.3-.83,3.01-1.92,5.08-3.24,4.31-2.71,10.28-6.42,16.9-10.48,3.2-1.95,6.25-3.81,9.04-5.51l-.13.38c-1.72-4.76-3.19-8.85-4.28-11.88-.48-1.39-.87-2.53-1.17-3.42-.26-.8-.39-1.23-.35-1.25Z"/>
    </g>
    <g>
      <path class="st8" d="M670.42,361.47l70.66,3.51c2.29.1,4.44,1.29,4.69,3.57l5.59,51.84,36.41,1.51c1.17.05,2.08,1.04,2.03,2.21-.05,1.17-1.04,2.08-2.21,2.03l-35.77-1.48-6.79-.28-73.72-3.06-5.69-54.7c-.31-2.82,1.97-5.26,4.81-5.14Z"/>
      <path class="st2" d="M670.42,361.47s-.38-.06-1.12.06c-.71.14-1.85.53-2.77,1.68-.46.56-.83,1.33-.97,2.22-.15.91.07,1.88.14,2.92.21,2.09.45,4.51.72,7.22,1.11,10.87,2.7,26.52,4.67,45.77l.02.19h.19c30.09,1.27,69.63,2.94,112.81,4.76,1.01.04,2.03.08,3.04.13.47.04,1.12.04,1.62-.24.51-.26.92-.7,1.14-1.23.47-1.06.02-2.4-.98-2.98-.47-.31-1.12-.36-1.58-.36l-1.5-.06c-3.98-.16-7.92-.33-11.82-.49-7.78-.32-15.36-.63-22.67-.93l.26.25c-2.01-18.57-3.89-35.88-5.58-51.42-.04-.98-.44-2.06-1.2-2.75-.74-.71-1.7-1.11-2.65-1.3-.98-.19-1.92-.15-2.85-.22-.93-.04-1.86-.09-2.77-.13-3.67-.18-7.22-.35-10.64-.51-6.84-.33-13.16-.63-18.91-.9-11.47-.53-20.62-.96-26.92-1.26-3.13-.14-5.55-.24-7.2-.31-.81-.03-1.43-.05-1.86-.07-.42-.01-.63,0-.63,0,0,0,.21.03.63.06.43.03,1.05.07,1.86.12,1.65.09,4.07.23,7.2.4,6.3.33,15.44.81,26.91,1.42,5.74.3,12.07.62,18.9.97,3.42.17,6.97.36,10.64.54.92.05,1.84.09,2.77.14.93.07,1.89.04,2.78.22.89.18,1.77.56,2.42,1.19.67.63,1,1.49,1.05,2.46,1.66,15.54,3.52,32.86,5.5,51.43l.03.24h.24c7.3.32,14.88.63,22.67.96,3.89.16,7.83.33,11.81.49l1.5.06c.53,0,.92.04,1.31.28.76.44,1.1,1.47.74,2.27-.17.4-.48.74-.87.94-.41.21-.8.22-1.34.18-1.01-.04-2.02-.08-3.04-.13-43.18-1.77-82.72-3.38-112.81-4.61l.21.2c-2.04-19.24-3.7-34.89-4.86-45.76-.29-2.71-.55-5.12-.78-7.21-.08-1.05-.31-2.01-.17-2.88.13-.86.47-1.61.91-2.16.89-1.13,1.99-1.54,2.69-1.69.72-.14,1.11-.09,1.11-.12Z"/>
      <path class="st6" d="M708.85,392.31c-.1,2.44-2.16,4.34-4.61,4.24-2.44-.1-4.34-2.16-4.24-4.61.1-2.44,2.16-4.34,4.61-4.24,2.44.1,4.34,2.16,4.24,4.61Z"/>
      <path class="st2" d="M748.34,424.04c-.1.01-1.81-13.2-3.81-29.5-2-16.31-3.55-29.54-3.44-29.55.1-.01,1.81,13.2,3.81,29.51,2,16.31,3.54,29.54,3.44,29.55Z"/>
    </g>
  </g>
  <g>
    <g>
      <g>
        <g>
          <path class="st2" d="M184.44,539.79l-.99,26.15s26.24,9.79,26.53,14.64l-50.77-.11-.12-40.8,25.35.12Z"/>
          <path class="st8" d="M167.76,563.71c-.98.27-1.66,1.37-1.44,2.36.23.99,1.34,1.7,2.33,1.45.99-.25,1.85-1.55,1.51-2.51-.34-.96-1.69-1.71-2.59-1.24"/>
          <path class="st9" d="M159.21,580.47l.15-4.11,48.62,1.64s2.26.99,2,2.58l-50.77-.11Z"/>
          <path class="st6" d="M184.27,565.68c0,.25-1.25.36-2.47,1.15-1.24.76-1.87,1.84-2.1,1.74-.23-.05.14-1.53,1.64-2.47,1.49-.95,2.99-.65,2.93-.42Z"/>
          <path class="st6" d="M189.59,567.9c.06.24-1.02.66-1.86,1.71-.87,1.02-1.09,2.16-1.34,2.14-.23.04-.4-1.41.67-2.69,1.06-1.29,2.52-1.39,2.53-1.16Z"/>
          <path class="st6" d="M192.6,574.28c-.23.05-.57-1.19.07-2.54.63-1.36,1.8-1.89,1.9-1.69.14.2-.61.93-1.12,2.05-.53,1.11-.61,2.15-.85,2.18Z"/>
          <path class="st6" d="M183.84,559.7c-.1.23-1.24-.12-2.64-.03-1.4.06-2.49.53-2.62.32-.14-.18.92-1.09,2.58-1.18,1.65-.1,2.81.69,2.69.89Z"/>
        </g>
        <g>
          <path class="st2" d="M122.3,536.24l-2.75,31.54,5.02,25.57c.36,1.84-.91,3.61-2.78,3.84h0c-1.04.13-2.08-.24-2.79-1.02-4.52-4.93-21.08-23.16-20.75-25.46.38-2.66.69-33.46.69-33.46l23.35-1.02Z"/>
          <path class="st9" d="M121.79,597.19l-23.4-28.61-.09,1.34c-.07,1.16.26,2.3.95,3.23,1.85,2.49,7.13,9.24,19.65,23.01.73.8,1.81,1.19,2.89,1.02h0Z"/>
          <g class="st0">
            <path class="st6" d="M105.53,558.8c.76.6.94,1.81.37,2.59-.57.78-1.8.98-2.57.39-.77-.58-1.03-2.03-.38-2.75.65-.71,2.11-.86,2.71-.11"/>
          </g>
          <path class="st6" d="M115.46,582.92c.17.1.99-1.51,2.93-2.28,1.91-.83,3.63-.27,3.68-.46.03-.08-.35-.35-1.08-.5-.73-.15-1.8-.12-2.86.32-1.06.44-1.85,1.18-2.25,1.8-.41.63-.49,1.09-.41,1.12Z"/>
          <path class="st6" d="M117.44,587.29c.14.15,1.22-.82,2.89-1.18,1.66-.4,3.05,0,3.11-.2.1-.16-1.38-.92-3.27-.48-1.89.43-2.89,1.76-2.73,1.86Z"/>
          <path class="st6" d="M111.62,577.23c.14.16,1.79-1.33,4.33-2.12,2.53-.83,4.74-.58,4.76-.79.06-.17-2.26-.75-4.97.13-2.72.86-4.26,2.68-4.12,2.78Z"/>
          <path class="st6" d="M111.65,567.57c.07.19,1.86-.42,4.14-.36,2.28.03,4.04.72,4.12.53.1-.15-1.66-1.19-4.11-1.23-2.45-.06-4.25.9-4.15,1.05Z"/>
          <path class="st6" d="M112.22,558.29c.09.19,1.91-.75,4.3-.49,2.4.21,4,1.49,4.12,1.32.06-.06-.26-.48-.96-.95-.7-.47-1.8-.93-3.09-1.06-1.29-.12-2.46.12-3.24.44-.78.32-1.17.67-1.13.74Z"/>
          <path class="st6" d="M116.58,556.04s.14-.42.12-1.19c-.02-.77-.17-1.91-.75-3.19-.3-.61-.61-1.39-1.47-1.86-.42-.24-1.08-.2-1.48.2-.4.38-.55.89-.59,1.39-.1,2.01,1.5,4.06,3.74,4.49,2.25.39,4.38-.77,5.39-2.44.23-.44.4-.98.19-1.53-.21-.55-.84-.81-1.29-.76-.95.08-1.57.58-2.15.95-1.15.81-1.88,1.68-2.31,2.32-.44.64-.59,1.04-.56,1.06.11.09.9-1.5,3.14-2.97.56-.33,1.22-.76,1.9-.78.33-.01.61.14.71.41.1.26.01.65-.18,1-.85,1.37-2.8,2.43-4.7,2.06-1.89-.35-3.29-2.15-3.23-3.77.02-.39.15-.77.37-.99.22-.21.53-.26.82-.12.6.29.97.98,1.27,1.55,1.18,2.4.93,4.19,1.07,4.17Z"/>
        </g>
        <path class="st2" d="M208.9,319.37s3.85,14.9,2.45,33.06c-.54,7.03-24.25,201.39-24.25,201.39h-32.01l9-182.67-2.62.57s-17.47,77.91-18.9,90.52c-1.28,11.34-16.02,93.71-16.02,93.71l-29.27.34,9.35-108.95,10.88-104.54,4.09-30.43,87.3,7.02Z"/>
      </g>
      <g>
        <path class="st9" d="M164.94,358.99s.06.09.21.22c.16.12.41.27.78.37.72.21,1.93.1,3.04-.72,1.15-.81,1.84-2.42,2.07-4.14.23-1.74.26-3.61.39-5.59.22-3.95.37-7.53.46-10.13.08-2.59.09-4.2,0-4.2s-.25,1.59-.45,4.18c-.2,2.59-.43,6.16-.64,10.12-.13,1.97-.15,3.88-.34,5.54-.2,1.66-.79,3.11-1.77,3.87-.97.78-2.04.95-2.72.83-.69-.11-1-.41-1.04-.35Z"/>
        <path class="st9" d="M117.85,340.2s.31.16.9.32c.59.16,1.46.33,2.56.43,2.18.21,5.3,0,8.44-1.26,3.14-1.26,5.54-3.27,6.97-4.93.72-.83,1.23-1.56,1.55-2.08.32-.52.46-.83.42-.85-.09-.06-.8,1.09-2.3,2.63-1.48,1.54-3.84,3.43-6.87,4.65-3.03,1.22-6.04,1.49-8.18,1.4-2.15-.08-3.46-.42-3.48-.31Z"/>
        <path class="st9" d="M198.16,332.07c-.07,0-.01,1.26.49,3.21.49,1.95,1.51,4.58,3.22,7.16,1.71,2.57,3.75,4.53,5.35,5.74,1.61,1.22,2.74,1.75,2.77,1.69.14-.16-4.27-2.68-7.61-7.78-3.4-5.05-4.02-10.1-4.22-10.03Z"/>
      </g>
    </g>
    <g>
      <g>
        <path class="st2" d="M193.08,124.71c2.89.18,5.74-2.08,6.21-4.94.47-2.86-1.49-5.91-4.29-6.67,1.7-1.92,1.99-4.95.7-7.17-1.29-2.22-4.07-3.45-6.58-2.92-.23-2.52-1.87-4.87-4.15-5.96-2.28-1.09-5.13-.9-7.25.5-2.91-2.25-7.42-2.11-10.19.31-2.48-.33-5.09,1.11-6.13,3.39-1.04,2.27-.42,5.19,1.45,6.85"/>
        <g>
          <g>
            <path class="st5" d="M166.55,103.76l1.3-.06c13.06-.65,24.43,8.84,26.13,21.81,1.58,12.06,3.17,25.41,3.41,31.91.5,13.46-12.85,16.22-12.85,16.22l1.94,16.1-32.7.61-5.8-58.47c-1.9-13.91,4.61-26.6,18.57-28.12Z"/>
            <path class="st11" d="M184.65,173.6s-8.56.94-17.88-4.28c0,0,4.84,9.72,18.2,7.84l-.32-3.56Z"/>
            <path class="st2" d="M191.14,138.35c.09,1.01-.7,1.92-1.76,2.03-1.05.11-1.98-.62-2.07-1.63-.09-1.01.7-1.92,1.75-2.03,1.06-.11,1.98.62,2.07,1.63Z"/>
            <path class="st2" d="M191.41,132.22c-.23.26-1.73-.74-3.8-.63-2.07.08-3.53,1.22-3.77.98-.12-.11.1-.57.74-1.08.63-.51,1.71-1.03,3-1.09,1.29-.06,2.39.36,3.04.82.66.46.9.9.79,1.02Z"/>
            <path class="st2" d="M172.87,139.16c.09,1.01-.7,1.92-1.76,2.03-1.05.11-1.98-.62-2.07-1.63-.09-1.01.7-1.92,1.75-2.03,1.06-.11,1.98.62,2.07,1.63Z"/>
            <path class="st2" d="M172.07,133.62c-.23.26-1.74-.74-3.8-.63-2.07.08-3.53,1.22-3.77.97-.12-.11.1-.57.74-1.08.63-.51,1.71-1.03,3-1.09,1.29-.06,2.39.36,3.04.82.66.46.9.9.79,1.02Z"/>
            <path class="st2" d="M179.38,148.58c-.02-.12,1.26-.4,3.33-.77.53-.08,1.02-.21,1.09-.58.11-.39-.14-.95-.43-1.55-.56-1.25-1.15-2.57-1.76-3.94-2.45-5.61-4.25-10.24-4.03-10.34.23-.1,2.4,4.38,4.85,9.99.59,1.38,1.16,2.71,1.7,3.97.23.59.61,1.25.38,2.06-.12.4-.5.71-.83.81-.33.12-.63.14-.89.17-2.09.22-3.39.29-3.4.17Z"/>
            <path class="st2" d="M172.51,125.58c-.25.54-2.05.06-4.23.1-2.18-.01-4,.49-4.23-.04-.1-.26.27-.75,1.03-1.2.76-.46,1.93-.84,3.24-.85,1.31,0,2.47.36,3.21.81.75.45,1.09.94.98,1.19Z"/>
            <path class="st2" d="M191.09,123.7c-.41.49-2.14.09-4.2.17-2.05.02-3.77.5-4.2.03-.19-.23.06-.71.8-1.2.73-.48,1.96-.9,3.37-.94,1.41-.03,2.65.33,3.39.78.75.45,1.01.92.83,1.16Z"/>
            <path class="st2" d="M192.38,119.4s-3.97-8.25-8.13-10.01c-5.04-2.14-6.88,3.37-11.64,2.29-4.75-1.08-9.56-3.13-14.17.73-5.04,4.23-2.45,6.89-2.48,12.87-.11,24.26-4.19,31.32-6.01,19.99-.2-1.24-3.71-2.06-4.49-7.31-1.01-6.81-1.68-15.1-.4-20.03,1.08-4.16,3.28-7.1,7.31-10.42,6.36-5.25,15.43-5.8,21.62-5.49,6.19.31,18.42,6.81,18.38,17.39Z"/>
            <path class="st5" d="M150.8,144.86c-.19-2.07-2.06-3.62-4.12-3.32-2.5.36-5.22,1.93-4.79,7.1.75,9.18,9.81,6.53,9.81,6.27,0-.18-.55-6.21-.9-10.05Z"/>
            <path class="st11" d="M149.41,151.62s-.15.13-.41.27c-.25.14-.7.26-1.19.12-1-.28-1.94-1.75-2.12-3.4-.09-.83.02-1.64.26-2.33.23-.69.62-1.2,1.1-1.33.48-.15.85.11.98.36.14.25.1.43.15.45.03.02.18-.17.08-.54-.05-.18-.18-.39-.41-.55-.24-.16-.57-.23-.9-.16-.7.11-1.29.81-1.55,1.56-.31.76-.45,1.67-.35,2.6.21,1.85,1.3,3.5,2.66,3.77.66.12,1.18-.12,1.44-.36.27-.25.3-.46.26-.47Z"/>
          </g>
          <path class="st2" d="M150.09,127.03c1.23.76,2.54,1.53,3.98,1.6,1.45.07,3.05-.84,3.22-2.27.08-.65-.12-1.38.28-1.9.47-.62,1.41-.48,2.18-.43,2.69.15,5.66-2.96,6.22-5.59.73.99,2.24,1.22,3.24.5,1-.72,1.36-1.11,2.12-2.08.76-.96,1.85-1.85,3.08-1.74.68.06,1.34.44,2.02.34,1.2-.17,1.72-1.61,1.84-2.82.12-1.21.2-2.61,1.19-3.32.92-.65,2.16-.36,3.28-.25,1.12.11,2.54-.22,2.77-1.33.12-.58-.15-1.17-.49-1.65-1.54-2.18-4.72-3.03-7.14-1.91-1.05-2.99-4.01-5.22-7.18-5.39-3.17-.18-6.36,1.71-7.73,4.57-2.03-1.67-4.89-2.27-7.42-1.56-2.53.71-4.66,2.71-5.53,5.19-2.27-.48-4.77.51-6.1,2.41-1.33,1.9-1.39,4.59-.17,6.56-1.61,1.03-2.94,2.74-2.88,4.64.06,1.91,2.01,3.71,3.82,3.12-.67,1.52.04,3.5,1.51,4.26,1.48.76,3.5.17,4.34-1.26"/>
          <path class="st9" d="M178.7,106.88s0,.06,0,.17c0,.11,0,.28-.03.49-.06.43-.2,1.07-.58,1.81-.38.73-.98,1.58-1.93,2.28-.93.7-2.22,1.27-3.71,1.26l.15-.21c.32.77.29,1.72-.06,2.55-.33.84-.88,1.6-1.46,2.34-.3.36-.55.77-.98,1.11-.41.32-.91.52-1.43.61-1.03.18-2.22-.08-3.01-.91l.34-.12c-.14,1.84-1.09,3.72-2.69,4.92-.84.68-1.91,1.12-2.97,1.14-1.07.04-2.07-.22-3.01-.51l.24-.12c-.44,1.17-1.15,2.18-2.04,2.95-.87.76-2.06,1.25-3.16,1.03-2.19-.35-3.72-2.09-4.1-3.77l.21.09c-1.05.64-2.2.75-3.14.62-.95-.13-1.71-.5-2.25-.87-.55-.38-.88-.79-1.08-1.07-.19-.29-.27-.46-.26-.46.04-.04.34.68,1.43,1.41.54.34,1.28.68,2.19.78.9.11,1.99-.03,2.96-.64l.17-.11.05.19c.37,1.57,1.84,3.19,3.87,3.49,1,.18,2.04-.25,2.87-.97.83-.72,1.51-1.7,1.91-2.79l.06-.17.18.05c.92.28,1.89.52,2.88.48.99-.03,1.94-.42,2.74-1.06,1.51-1.13,2.4-2.89,2.54-4.63l.04-.44.3.32c.67.72,1.73.97,2.66.81.47-.08.91-.25,1.27-.53.35-.27.62-.68.92-1.04.58-.73,1.12-1.46,1.43-2.24.34-.77.37-1.61.09-2.31l-.09-.22h.23c1.41.03,2.65-.49,3.56-1.15.93-.65,1.53-1.46,1.92-2.16.77-1.43.69-2.4.76-2.39Z"/>
        </g>
      </g>
      <path class="st2" d="M179.28,155.67c-.07-.34-2.31.24-4.4-1.25-2.1-1.49-2.47-3.94-2.79-3.88-.15,0-.29.65-.06,1.66.23,1,.92,2.36,2.2,3.27,1.28.91,2.71,1.07,3.65.91.96-.16,1.45-.56,1.39-.71Z"/>
    </g>
    <g>
      <g>
        <path class="st5" d="M252.22,285.58h5.69c1.41-2.13,2.83-2.53,5.79-4.28,7.54-4.46,17.59-8.06,19.73-6.35,2.14,1.71-.49,3.6-1.32,4.12-.82.51-8.07,3.34-7.74,5.7.33,2.36,23.99,6.62,25.04,8.88,1.41,3.04-1.1,4.28-11.15,2.56l-2.85-.5s1.65,2.4-.16,4.29c-1.81,1.89-3.29,1.03-3.29,1.03,0,0,.16,2.23-2.14,3.26-2.31,1.03-3.29,0-3.29,0,0,0,.55,5.66-4.45,4.8-4.51-.78-7.59-.78-12.03-1.7-2-.42-3.72-1.39-3.72-1.39l-5.63-2.15c-.92-4.05,1.1-17.16,1.53-18.26Z"/>
        <path class="st11" d="M281.95,301.01c-.08.06-.78-1.12-2.66-2.17-.91-.55-2.08-1.1-3.29-1.94-.58-.42-1.24-.9-1.66-1.68-.2-.38-.34-.83-.31-1.3.02-.48.24-.96.57-1.3.67-.71,1.64-.9,2.46-.85.83.05,1.56.26,2.26.44,1.4.39,2.61.92,3.56,1.47.95.55,1.64,1.12,2.08,1.54.44.42.64.7.61.73-.08.09-1.02-.9-2.91-1.87-.95-.48-2.13-.95-3.49-1.3-.68-.16-1.41-.35-2.14-.38-.72-.04-1.47.14-1.96.66-.5.5-.49,1.25-.16,1.86.32.61.89,1.07,1.45,1.49,1.12.83,2.27,1.42,3.18,2.04.92.6,1.58,1.23,1.95,1.72.37.5.49.82.46.84Z"/>
        <path class="st11" d="M272.48,286.32c.07.02-.02.86-.49,2.16-.46,1.29-1.35,3-2.72,4.6-1.38,1.59-2.94,2.73-4.14,3.37-1.21.65-2.03.87-2.06.8-.1-.18,3.07-1.48,5.71-4.6,2.69-3.08,3.5-6.4,3.7-6.33Z"/>
        <path class="st11" d="M276.52,304.27c-.04.08-.76-.22-1.82-.89-.53-.34-1.14-.76-1.78-1.32-.63-.53-1.32-1.3-1.61-2.29-.31-.97-.25-2.04.24-2.83.49-.81,1.32-1.17,1.97-1.24,1.39-.14,2.02.62,1.95.64-.04.1-.72-.43-1.87-.18-.55.12-1.19.46-1.54,1.09-.36.63-.41,1.5-.14,2.33.26.85.8,1.49,1.39,2.04.58.55,1.16,1,1.64,1.38.97.75,1.6,1.19,1.56,1.27Z"/>
        <path class="st11" d="M273.11,308.3c-.06.07-.63-.27-1.52-.87-.85-.58-2.24-1.44-2.88-3.13-.3-.84-.29-1.74.02-2.47.29-.74.93-1.22,1.48-1.39.56-.18,1.06-.11,1.35.02.3.13.41.27.39.31-.03.1-.67-.3-1.58.1-.44.19-.88.58-1.09,1.18-.22.58-.22,1.33.04,2.02.53,1.43,1.76,2.32,2.57,3,.81.69,1.28,1.15,1.23,1.22Z"/>
      </g>
      <path class="st8" d="M231.65,276.75l-2.47-1.66-8.73-61.2c-.76-5.35-8.9-19.39-24.89-24.78l3.23,34.63,13.33,74.06s4.62,2.38,13.14,5.38c8.53,3,25.57,6.25,25.57,6.25l5.49-25.39-24.69-7.28Z"/>
      <g>
        <g>
          <path class="st8" d="M125.06,192.95l23.59-9.79,2.79-10.75,29.1,13.76,4.87-7.77,3.78,8.63,6.38,2.08,14.9,26.21-.05,55.85,3.02,48.18-3.23,7.61-26.7,3.94c-2.92.43-5.89.43-8.81,0l-54.19-8.86-1.4-15.92,5.79-43.87.15-69.3Z"/>
          <path class="st10" d="M178.77,244.28c-.47-12.28,1.47-43.6,1.47-43.6l4.05-.65s7.56,30.45,10.38,67.77c1.14,15.1,1.14,32.59,1.14,32.59l-8.13,17.44-8.98-17.33s.64-41.3.07-56.22Z"/>
          <polygon class="st10" points="179.19 190.19 182.57 188.87 185.82 193.17 184.7 201.02 180.66 201.67 176.66 196.73 179.19 190.19"/>
        </g>
        <path class="st8" d="M125.69,192.95s-15.46,4.01-19.87,19.24c-1.11,3.85-6.97,60.82-7.87,68.2-.9,7.39-3.58,18.29,5.43,25.82,5.57,4.66,52.22,9.51,52.22,9.51l9.47-22.5-36.88-14.36,5.65-49.15-8.15-36.76Z"/>
      </g>
      <g>
        <path class="st2" d="M198.4,316.64l-24.44-24.51c-.58-.58-.59-1.51-.04-2.11h0c.59-.63,1.58-.65,2.19-.04l24.44,24.51c.58.58.59,1.51.04,2.11h0c-.59.63-1.58.65-2.19.04Z"/>
        <path class="st5" d="M163.92,293.12c.16.12,10.76.51,14.03,1.21,3.27.71,11.04,2.66,13.53,4.43,2.48,1.76,7.49,8.16,6.23,9.09-1.26.93-2.8.76-3.61,0-.69-.64-6.78-5.29-6.78-5.29,0,0-3.65-1.22-3.77-.28-.11.94,9.07,5.93,7.61,8.16-1.47,2.23-5.42,1.65-5.42,1.65,0,0,1.13,3.58-.11,5.37-1.24,1.8-4.35,2.74-4.35,2.74,0,0,1.01,3.05-2.01,4.27-2.19.89-5.49-1.33-5.49-1.33l-14.13-7.17-4.07-.24,8.32-22.6Z"/>
      </g>
      <path class="st2" d="M109.99,308.9s.08,0,.22.01c.17.02.38.05.64.09.61.1,1.43.23,2.49.4,2.22.38,5.38.92,9.37,1.59,8.08,1.42,19.47,3.42,32.94,5.79l-.34.2c2.54-7.35,5.35-15.45,8.3-23.97l.2.42c-2.18-.85-4.5-1.75-6.85-2.66-10.82-4.22-21.1-8.22-30.28-11.8l-.23-.09.04-.24c2.03-13.57,3.75-25.06,4.97-33.22.62-4.02,1.12-7.21,1.47-9.45.18-1.06.31-1.89.41-2.5.05-.26.09-.47.12-.64.03-.14.05-.22.06-.21,0,0,0,.08,0,.22-.02.18-.04.39-.07.65-.08.61-.18,1.45-.32,2.52-.31,2.24-.74,5.44-1.29,9.47-1.16,8.16-2.8,19.67-4.73,33.25l-.19-.33c9.19,3.56,19.47,7.55,30.3,11.74,2.34.91,4.66,1.81,6.85,2.66l.3.12-.11.31c-2.97,8.51-5.79,16.61-8.35,23.95l-.09.25-.26-.05c-13.45-2.46-24.83-4.55-32.9-6.03-3.97-.75-7.13-1.35-9.34-1.76-1.05-.21-1.87-.37-2.47-.49-.26-.06-.46-.1-.63-.14-.14-.03-.21-.06-.21-.06Z"/>
      <path class="st2" d="M126.63,278.78c.04.21-3.44.47-7.12,2.48-3.7,1.96-5.83,4.73-5.98,4.58-.15-.06,1.81-3.13,5.66-5.17,3.83-2.09,7.47-2.04,7.44-1.88Z"/>
      <path class="st2" d="M132.38,216.8c-.11-.01,0-1.22-.13-3.15-.12-1.93-.55-4.59-1.6-7.34-1.06-2.75-2.52-5.02-3.72-6.53-1.2-1.52-2.09-2.35-2.01-2.43.04-.06,1.05.65,2.38,2.13,1.32,1.46,2.89,3.76,3.99,6.59,1.08,2.84,1.45,5.59,1.44,7.57,0,1.98-.28,3.18-.35,3.17Z"/>
      <path class="st2" d="M211.66,218.76c.19,0,.34,19.44.34,43.42s-.15,43.42-.34,43.42-.34-19.44-.34-43.42.15-43.42.34-43.42Z"/>
      <path class="st2" d="M189.19,187.02s-.24.61-.79,1.69c-.61,1.16-1.41,2.7-2.39,4.57l-.16.3-.21-.27c-1.5-1.95-3.31-4.31-5.34-6.96l.52-.07c-1.33,3.44-2.85,7.35-4.46,11.5l-.14.35-.33-.18c-.4-.21-.83-.44-1.27-.67-7.22-3.82-13.73-7.3-18.43-9.86-2.27-1.25-4.14-2.28-5.55-3.06-1.3-.73-2.01-1.16-1.99-1.2.02-.04.77.31,2.11.97,1.43.73,3.34,1.69,5.65,2.87,4.76,2.45,11.31,5.87,18.52,9.68.43.23.87.46,1.27.67l-.47.17c1.64-4.14,3.18-8.04,4.53-11.47l.2-.5.32.43c1.98,2.69,3.75,5.08,5.21,7.06l-.36.03c1.05-1.83,1.91-3.33,2.56-4.47.61-1.04.96-1.59,1-1.57Z"/>
    </g>
  </g>
  <g>
    <path class="st2" d="M370.72,270.13l19.1,39.82,9.99-2.59,63.83,54.73,18.83-35.57s-38.01-17.49-44.83-31.47c-6.82-13.98-.41-13.58-.41-13.58l-15.79-24.5-50.72,13.17Z"/>
    <g>
      <g>
        <path class="st8" d="M395.41,217.05s20.02-5.88,52.05-28.57c23.42-16.59,41.74-36.35,49.88-45.77,3.91-4.52,10.71-5.23,15.27-1.38,7.04,5.94,16.76,20.85,27.34,58.74,18.66,66.81,5.27,79.51-.34,78.5-5.61-1.01-42.55-13.22-66.86-14.26-24.31-1.04-61.35,6.2-61.35,6.2l-16-53.46Z"/>
        <path class="st2" d="M395.41,217.05s.06.29.22.89c.18.65.43,1.54.75,2.68.7,2.44,1.72,5.94,3.02,10.46,2.71,9.26,6.65,22.67,11.59,39.56l.11.37.38-.07c10.54-1.92,22.59-3.79,35.91-5.07,6.66-.62,13.64-1.11,20.9-1.07,7.25.02,14.73.94,22.38,2.32,15.36,2.7,31.23,7.35,48.01,11.93l.82.18.96.02c.64.03,1.21-.27,1.81-.41.51-.31,1.05-.6,1.53-.95l1.27-1.24c1.42-1.84,2.52-3.92,3.13-6.12,1.34-4.37,1.9-8.96,1.92-13.54.19-9.19-1.03-18.44-2.66-27.7-.39-2.05-.78-4.1-1.16-6.14-.41-2.03-.91-4.04-1.36-6.05-.87-4.03-1.9-7.99-2.95-11.92-2.01-7.87-4.33-15.54-6.83-23-2.53-7.45-5.26-14.7-8.56-21.53-3.29-6.81-7.01-13.37-12.21-18.56-1.31-1.23-2.8-2.51-4.58-3.13-1.74-.66-3.63-.91-5.45-.66-1.81.24-3.58.86-5.08,1.89-1.54,1-2.68,2.44-3.77,3.69-4.48,5.1-9,9.9-13.5,14.41-9,9.03-17.92,16.86-26.43,23.55-17.16,13.19-32.3,22.12-43.05,27.61-5.38,2.74-9.68,4.63-12.62,5.83-1.47.61-2.6,1.03-3.37,1.32-.75.28-1.17.44-1.15.45.02.01.4-.07,1.19-.32.78-.25,1.93-.63,3.42-1.19,2.98-1.12,7.32-2.94,12.75-5.61,10.85-5.36,26.1-14.18,43.4-27.32,8.58-6.66,17.58-14.48,26.64-23.51,4.53-4.51,9.09-9.31,13.6-14.42,1.15-1.3,2.17-2.59,3.54-3.47,1.34-.92,2.93-1.47,4.56-1.68,3.31-.44,6.62.91,9.02,3.48,4.99,5,8.68,11.48,11.91,18.22,3.25,6.77,5.96,13.98,8.46,21.39,2.48,7.43,4.79,15.07,6.78,22.92,1.05,3.91,2.07,7.86,2.94,11.87.45,2,.94,4,1.35,6.03.38,2.03.77,4.06,1.15,6.1,1.62,9.19,2.83,18.39,2.65,27.42-.02,4.51-.58,8.99-1.85,13.15-.58,2.11-1.62,4.01-2.87,5.66l-1.09,1.07c-.4.29-.83.51-1.24.78-.95.28-1.69.49-2.78.13-16.63-4.52-32.66-9.17-48.07-11.84-7.69-1.36-15.27-2.27-22.59-2.26-7.31,0-14.32.51-21,1.16-13.36,1.35-25.41,3.28-35.97,5.29l.49.3c-5.11-16.72-9.17-30-11.97-39.17-1.41-4.53-2.49-8.05-3.25-10.49-.37-1.16-.65-2.06-.86-2.72-.2-.61-.31-.93-.33-.94Z"/>
      </g>
      <polygon class="st10" points="343.13 273.62 356.14 271.63 348.66 254.37 337.72 260.2 343.13 273.62"/>
      <path class="st10" d="M346.92,252.62l5.82,13.45,3.18,7.34c4.36,10.07,15.73,14.92,25.89,11.04l52.81-14.46-21.46-66.93-53.46,19.75c-10.26,4.62-17.21,16.79-12.79,29.81Z"/>
      <g class="st4">
        <path d="M535.58,203.65c9.69,35.62,11.19,66.27,3.35,68.46-7.84,2.19-22.06-24.91-31.76-60.53-9.69-35.62-11.19-66.27-3.35-68.46,7.84-2.19,22.06,24.91,31.76,60.53Z"/>
      </g>
      <path class="st6" d="M502.22,190.65s18.86-8.07,24.63,16.94c5.77,25.01-12.92,26.01-12.92,26.01-5.6-12.8-9.56-27.07-11.71-42.95Z"/>
      <path class="st6" d="M402.61,229.09c.11.35-8.95,3.7-20.25,7.49-11.3,3.79-20.54,6.58-20.66,6.24-.11-.35,8.95-3.7,20.25-7.49,11.29-3.79,20.54-6.58,20.66-6.24Z"/>
      <path class="st6" d="M404.94,236.46c.11.35-8.95,3.7-20.25,7.49-11.3,3.79-20.54,6.58-20.66,6.24-.11-.35,8.95-3.7,20.25-7.49,11.29-3.79,20.54-6.58,20.66-6.24Z"/>
      <path class="st6" d="M407.28,243.83c.11.35-8.95,3.7-20.25,7.49-11.3,3.79-20.54,6.58-20.66,6.24-.11-.35,8.95-3.7,20.25-7.49,11.29-3.79,20.54-6.58,20.66-6.24Z"/>
      <path class="st6" d="M409.61,251.2c.11.35-8.95,3.7-20.25,7.49-11.3,3.79-20.54,6.58-20.66,6.24-.11-.35,8.95-3.7,20.25-7.49,11.29-3.79,20.54-6.58,20.66-6.24Z"/>
    </g>
    <g>
      <path class="st2" d="M569.17,222.65c-.08.23,10.82,4.24,24.33,8.97,13.52,4.73,24.54,8.38,24.61,8.15.08-.23-10.82-4.24-24.33-8.97-13.51-4.73-24.53-8.38-24.61-8.15Z"/>
      <path class="st2" d="M564.77,197.08c.03.24,17.42-2.19,38.83-5.42,21.42-3.23,38.74-6.04,38.71-6.27-.03-.24-17.42,2.19-38.84,5.42-21.41,3.23-38.74,6.04-38.71,6.27Z"/>
      <path class="st2" d="M560.9,170.84c.16.18,6.25-5.26,13.61-12.15,7.35-6.88,13.19-12.61,13.03-12.78-.16-.18-6.25,5.26-13.61,12.15-7.35,6.88-13.18,12.61-13.02,12.78Z"/>
    </g>
    <path class="st2" d="M500.09,146.99s-.11.44-.19,1.29c-.07,1.01-.16,2.24-.27,3.72-.12,1.62-.22,3.6-.23,5.9-.02,2.3-.12,4.92.02,7.82.1,5.8.61,12.69,1.56,20.3,1.04,7.59,2.56,15.9,4.76,24.46,2.27,8.55,4.99,16.54,7.8,23.66,2.89,7.09,5.81,13.34,8.55,18.43,1.3,2.58,2.66,4.82,3.8,6.81,1.13,2,2.18,3.67,3.08,5.01.82,1.23,1.49,2.26,2.05,3.1.48.7.75,1.05.79,1.03.04-.03-.16-.43-.56-1.18-.5-.88-1.1-1.94-1.83-3.23-.82-1.38-1.81-3.09-2.87-5.11-1.07-2.02-2.37-4.27-3.61-6.87-2.62-5.12-5.43-11.38-8.24-18.45-2.73-7.1-5.4-15.04-7.65-23.54-2.19-8.51-3.74-16.75-4.84-24.29-1.01-7.55-1.62-14.39-1.84-20.16-.2-2.88-.16-5.49-.22-7.78-.07-2.29-.04-4.27,0-5.88,0-1.48.01-2.71.02-3.72-.01-.85-.04-1.3-.09-1.3Z"/>
  </g>
  <g>
    <g>
      <path class="st10" d="M525.71,440.14h0c-25.32,0-45.84-20.52-45.84-45.84h0c0-25.32,20.52-45.84,45.84-45.84h0c25.32,0,45.84,20.52,45.84,45.84h0c0,25.32-20.52,45.84-45.84,45.84Z"/>
      <path class="st6" d="M504.96,410.33c3.77,2.42,8.25,3.83,13.05,3.83,15.81,0,24.75-13.36,24.21-25.34,1.66-1.2,3.11-2.7,4.25-4.41-1.53.68-3.17,1.14-4.89,1.34,1.76-1.05,3.11-2.72,3.74-4.71-1.65.98-3.47,1.69-5.41,2.07-1.55-1.66-3.77-2.69-6.22-2.69-5.5,0-9.54,5.13-8.3,10.46-7.08-.35-13.35-3.75-17.55-8.9-2.23,3.83-1.16,8.84,2.64,11.37-1.4-.04-2.71-.43-3.86-1.07-.09,3.95,2.74,7.64,6.83,8.46-1.2.33-2.51.4-3.84.14,1.08,3.38,4.23,5.85,7.95,5.91-3.58,2.81-8.09,4.06-12.61,3.53Z"/>
    </g>
    <rect class="st10" x="514.61" y="314.22" width="1.3" height="42.82" transform="translate(-73.85 159.32) rotate(-16.42)"/>
    <path class="st10" d="M513.46,314.2c0,2.35-1.9,4.25-4.25,4.25s-4.25-1.9-4.25-4.25,1.9-4.25,4.25-4.25,4.25,1.9,4.25,4.25Z"/>
  </g>
  <g>
    <path class="st3" d="M448.04,486.1h0s-.06,1.94-.09,5.35c-2.32-2.11-5.05-3.73-8.03-4.77h.03s-16.2-10.03-23.59-22.82c-5.37-9.28-7.17-20.52-7.17-20.52,0-.56-.06-5.49-.11-9.52-.04-3.31-2.68-5.96-5.98-6.07-6.95-.25-25.45.41-26.76,13.24-1.95,19.15,12.28,36.04,13.45,41.55.22,1.04.4,1.88.54,2.57-5.47,0-9.69.07-9.69.16,0,0,0,0,0,0l-35.93-.06s-12.05-.8-13.24,11.64c-1.19,12.44,12.81,13.24,12.81,13.24,0,0-6.22,1.16-5.47,12.04.76,10.89,12.81,11.69,12.81,11.69,0,0-7,1.15-6.63,10.88.36,9.46,12.89,12.32,13.56,12.46-1.75.03-2.83.07-2.83.12,0,.04.83.08,2.2.12-5.1,1.89-4.41,8.32-4.41,8.32-.41,13.61,10.08,14.02,10.08,14.02l65.61.12c6.6.01,13.01-1.76,18.61-5.03.02,2.79.04,4.36.07,4.36h0s45.83.08,45.83.08c.1,0,.22-20.84.27-46.55.05-25.72,0-46.56-.09-46.56l-45.83-.08Z"/>
    <g class="st4">
      <path d="M448.2,486.1h0s-.06,1.94-.09,5.35c-2.32-2.11-5.05-3.73-8.03-4.77h.03s-16.2-10.03-23.59-22.82c-5.37-9.28-7.17-20.52-7.17-20.52,0-.56-.06-5.49-.11-9.52-.04-3.31-2.68-5.96-5.98-6.07-6.95-.25-25.45.41-26.76,13.24-1.95,19.15,12.28,36.04,13.45,41.55.22,1.04.4,1.88.54,2.57-5.47,0-9.69.07-9.69.16,0,0,0,0,0,0l-35.93-.06s-12.05-.8-13.24,11.64c-1.19,12.44,12.81,13.24,12.81,13.24,0,0-6.22,1.16-5.47,12.04.76,10.89,12.81,11.69,12.81,11.69,0,0-7,1.15-6.63,10.88.36,9.46,12.89,12.32,13.56,12.46-1.75.03-2.83.07-2.83.12,0,.04.83.08,2.2.12-5.1,1.89-4.41,8.32-4.41,8.32-.41,13.61,10.08,14.02,10.08,14.02l65.61.12c6.6.01,13.01-1.76,18.61-5.03.02,2.79.04,4.36.07,4.36h0s45.83.08,45.83.08c.1,0,.22-20.84.27-46.55.05-25.72,0-46.56-.09-46.56l-45.83-.08Z"/>
    </g>
    <g>
      <path class="st10" d="M442.51,500.43l2.15,5.46-.12,62.73h0c-6.97,7.37-16.66,11.54-26.81,11.52l-65.61-.12s-10.5-.41-10.08-14.02c0,0-.76-7,5.07-8.55,0,0-13.22-2.75-13.59-12.47-.37-9.72,6.63-10.88,6.63-10.88,0,0-12.05-.8-12.81-11.69-.76-10.89,5.47-12.04,5.47-12.04,0,0-14-.8-12.81-13.25,1.19-12.44,13.24-11.64,13.24-11.64l46.66.08,40.91.08c9.58.02,18.18,5.88,21.69,14.79Z"/>
      <path class="st10" d="M428.49,486.96s-16.2-10.03-23.59-22.82c-5.37-9.28-7.17-20.52-7.17-20.52,0-.56-.06-5.49-.11-9.52-.04-3.31-2.68-5.96-5.98-6.07-6.95-.25-17.99,5.74-19.3,18.57-1.95,19.15,4.83,30.71,5.99,36.22l1.16,5.51,49-1.37Z"/>
      <rect class="st10" x="436.5" y="486.41" width="45.83" height="93.11" transform="translate(917.84 1066.77) rotate(-179.89)"/>
      <path class="st2" d="M436.41,579.48c-.1,0-.14-20.84-.09-46.55.05-25.72.17-46.55.26-46.55.1,0,.14,20.84.09,46.56-.05,25.71-.17,46.55-.26,46.55Z"/>
      <path class="st2" d="M482.24,579.56c-.1,0-.14-20.84-.09-46.55.05-25.72.17-46.55.27-46.55s.14,20.84.09,46.56c-.05,25.71-.17,46.55-.27,46.55Z"/>
      <path class="st6" d="M452.72,507.71c0,4.74,3.82,8.58,8.56,8.59,4.74,0,8.58-3.82,8.59-8.56,0-4.74-3.82-8.58-8.56-8.59-4.74,0-8.58,3.82-8.59,8.56Z"/>
      <path class="st2" d="M369.17,485.55c0-.1,5-.17,11.16-.16,6.16.01,11.16.1,11.16.2,0,.1-5,.17-11.16.16-6.16-.01-11.16-.1-11.16-.2Z"/>
      <path class="st2" d="M339.23,534.55c0-.1,3.19-.17,7.13-.17,3.94,0,7.13.09,7.13.19,0,.1-3.19.17-7.13.17-3.94,0-7.13-.09-7.13-.19Z"/>
      <path class="st2" d="M331.91,510.15c0-.1,4.53-.17,10.12-.16,5.59.01,10.12.1,10.12.2,0,.1-4.53.17-10.12.16-5.59-.01-10.12-.1-10.12-.2Z"/>
      <path class="st2" d="M344.25,557.57c0-.1,4.53-.17,10.12-.16,5.59.01,10.12.1,10.12.2,0,.1-4.53.17-10.12.16-5.59-.01-10.12-.1-10.12-.2Z"/>
      <g class="st4">
        <path class="st6" d="M392.28,432.49c1.64.95,2.3,3.05,2.19,4.95-.1,1.9-.8,3.7-1.22,5.56-.93,4.1-.45,8.49,1.32,12.3.54,1.16,1.21,2.5.65,3.65-.79,1.64-3.21,1.39-4.86.63-6.26-2.87-10.52-9.64-10.39-16.52.05-2.9.87-5.87,2.75-8.08,1.88-2.21,5.01-4.55,9.55-2.49"/>
      </g>
      <g class="st4">
        <path class="st6" d="M329.53,487.97c1.46-.65,3.11-.62,4.71-.59,9.27.2,18.54.39,27.82.59,3.03.06,8.56-.53,9.29,2.38h0c.95,1.46.15,3.55-1.26,4.56-1.42,1.02-3.24,1.23-4.98,1.35-3.64.25-7.3.24-10.95.21-7.34-.05-14.71-.15-21.95-1.36-1.07-.18-2.17-.39-3.12-.92-.96-.52-1.77-1.41-1.95-2.48-.26-1.57.95-3.09,2.4-3.74Z"/>
      </g>
      <path class="st6" d="M447.38,489.03c0-.1,6.4-.17,14.3-.15,7.9.01,14.3.11,14.3.21,0,.1-6.4.17-14.3.15-7.9-.01-14.3-.11-14.3-.21Z"/>
      <path class="st6" d="M332.42,526.2s-.12-.16-.29-.47c-.17-.31-.37-.8-.56-1.41-.2-.61-.35-1.37-.43-2.21-.06-.85-.05-1.79.09-2.76.16-.97.43-1.87.75-2.66.34-.78.71-1.46,1.08-1.98.37-.53.7-.93.96-1.17.25-.25.4-.38.42-.36.05.05-.5.61-1.17,1.67-.34.53-.67,1.2-.98,1.96-.29.77-.55,1.65-.7,2.59-.14.94-.16,1.86-.12,2.68.06.82.18,1.56.34,2.17.31,1.22.67,1.92.61,1.95Z"/>
      <path class="st6" d="M325.68,502.6s-.51-.27-1.09-.98c-.58-.7-1.19-1.85-1.42-3.24-.22-1.39-.01-2.68.32-3.52.33-.86.69-1.3.72-1.28.06.03-.23.51-.48,1.36-.26.84-.42,2.06-.2,3.39.22,1.32.76,2.43,1.27,3.14.51.72.93,1.08.89,1.13Z"/>
      <path class="st6" d="M340.45,551.43s-.64-.18-1.44-.88c-.79-.68-1.69-1.94-1.97-3.55-.27-1.62.18-3.1.7-4,.52-.92,1.05-1.33,1.07-1.3.05.04-.4.51-.84,1.42-.44.9-.82,2.31-.57,3.82.26,1.52,1.08,2.72,1.79,3.43.72.72,1.29,1.01,1.26,1.07Z"/>
      <path class="st6" d="M349.73,573.56s-.5-.31-1.07-1.05c-.57-.74-1.19-1.92-1.46-3.33-.26-1.42-.11-2.74.16-3.63.27-.9.59-1.39.62-1.37.06.03-.18.55-.38,1.43-.2.88-.3,2.15-.05,3.51.26,1.36.81,2.5,1.31,3.25.5.76.91,1.16.87,1.2Z"/>
      <path class="st6" d="M376.68,467.57s-.2-.33-.49-.95c-.15-.31-.33-.69-.5-1.15-.18-.45-.4-.96-.58-1.55-.41-1.16-.8-2.57-1.13-4.17-.31-1.6-.54-3.38-.62-5.25-.06-1.88.04-3.67.23-5.29.21-1.61.5-3.05.82-4.24.14-.6.33-1.12.47-1.59.14-.47.29-.86.42-1.18.25-.64.4-.99.42-.98.02,0-.08.37-.29,1.02-.11.32-.24.72-.36,1.19-.13.47-.29.99-.42,1.59-.29,1.18-.55,2.62-.74,4.22-.17,1.6-.26,3.37-.2,5.23.08,1.86.3,3.62.58,5.2.31,1.58.67,2.99,1.04,4.15.17.59.37,1.1.53,1.56.16.46.31.85.44,1.16.26.63.39.99.36,1Z"/>
    </g>
  </g>
</svg>