<?xml version="1.0" encoding="UTF-8"?>
<svg id="Capa_1" xmlns="http://www.w3.org/2000/svg" version="1.1" viewBox="0 0 748.24 587.29">
  <!-- Generator: Adobe Illustrator 30.2.1, SVG Export Plug-In . SVG Version: 2.1.1 Build 1)  -->
  <defs>
    <style>
      .st0 {
        fill: #dee1e2;
      }

      .st1 {
        opacity: .3;
      }

      .st2 {
        fill: #c6ced3;
      }

      .st3 {
        fill: #fff;
      }

      .st4 {
        fill: #a4242e;
      }

      .st5 {
        fill: #375a64;
      }

      .st6 {
        fill: #ffbf9d;
      }

      .st7 {
        fill: #1a2e35;
      }

      .st8 {
        fill: #bd1c38;
      }

      .st9 {
        fill: #bd0043;
      }

      .st10 {
        fill: #cd143c;
      }

      .st11 {
        fill: #ff9a6c;
      }

      .st12 {
        fill: #d5d9dc;
      }
    </style>
  </defs>
  <g>
    <polygon class="st5" points="511.89 424.69 24.15 424.69 24.15 33.5 511.89 35.36 511.89 424.69"/>
    <rect class="st3" x="43.17" y="51.62" width="449.71" height="354.04"/>
    <path class="st5" d="M511.89,35.36c.05.06-.93,1.05-2.59,2.61-1.65,1.55-3.97,3.66-6.58,5.92-2.61,2.27-5.03,4.26-6.83,5.64-.9.69-1.64,1.24-2.17,1.59-.53.36-.83.54-.85.51-.05-.07,1.04-.95,2.77-2.4,1.73-1.46,4.1-3.49,6.71-5.75,2.55-2.21,4.85-4.21,6.68-5.79,1.72-1.48,2.8-2.37,2.85-2.31Z"/>
    <path class="st5" d="M511.89,424.69c-.11.11-4.5-4.08-9.8-9.36-5.3-5.28-9.51-9.64-9.41-9.75.11-.11,4.5,4.08,9.8,9.36,5.3,5.28,9.51,9.64,9.4,9.75Z"/>
    <path class="st5" d="M43.76,51.62c-.11.11-4.35-3.78-9.47-8.7-5.12-4.92-9.19-8.99-9.08-9.1.11-.11,4.35,3.78,9.47,8.7,5.12,4.92,9.19,8.99,9.08,9.1Z"/>
    <path class="st3" d="M469.27,51.46c0,.15-94.43.28-210.88.28s-210.9-.13-210.9-.28,94.41-.28,210.9-.28,210.88.12,210.88.28Z"/>
    <path class="st3" d="M494.41,392c-.15,0-.28-70.71-.28-157.92s.13-157.94.28-157.94.28,70.7.28,157.94-.13,157.92-.28,157.92Z"/>
  </g>
  <g>
    <path class="st8" d="M323.14,285.31l-48.79-47.92,48.79-47.92,45.84,45.02c1.63,1.6,1.63,4.19,0,5.79l-45.84,45.02Z"/>
    <polygon class="st4" points="298.75 261.35 274.35 237.39 298.75 213.43 323.14 237.39 298.75 261.35"/>
    <path class="st10" d="M347.53,261.35l21.44-21.06c1.63-1.6,1.63-4.19,0-5.79l-21.44-21.06-24.39,23.96,24.39,23.96Z"/>
    <path class="st8" d="M193.62,285.31l48.79-47.92-48.79-47.92-45.84,45.02c-1.63,1.6-1.63,4.19,0,5.79l45.84,45.02Z"/>
    <polygon class="st4" points="218.01 261.35 242.41 237.39 218.01 213.43 193.62 237.39 218.01 261.35"/>
    <path class="st10" d="M169.23,261.35l-21.44-21.06c-1.63-1.6-1.63-4.19,0-5.79l21.44-21.06,24.39,23.96-24.39,23.96Z"/>
    <path class="st8" d="M306.3,302.15l-47.92-48.79-47.92,48.79,45.02,45.84c1.6,1.63,4.19,1.63,5.79,0l45.02-45.84Z"/>
    <polygon class="st4" points="282.34 277.75 258.38 253.36 234.42 277.75 258.38 302.15 282.34 277.75"/>
    <path class="st10" d="M282.34,326.54l-21.06,21.44c-1.6,1.63-4.19,1.63-5.79,0l-21.06-21.44,23.96-24.39,23.96,24.39Z"/>
    <path class="st12" d="M210.46,172.63l47.92,48.79,47.92-48.79-45.02-45.84c-1.6-1.63-4.19-1.63-5.79,0l-45.02,45.84Z"/>
    <polygon class="st2" points="234.42 197.02 258.38 221.41 282.34 197.02 258.38 172.63 234.42 197.02"/>
    <path class="st0" d="M234.42,148.24l21.06-21.44c1.6-1.63,4.19-1.63,5.79,0l21.06,21.44-23.96,24.39-23.96-24.39Z"/>
  </g>
  <rect class="st7" x="309.54" y="279.69" width="84.67" height="10.43" transform="translate(242.59 -154.46) rotate(37.04)"/>
  <g>
    <g>
      <g>
        <path class="st7" d="M542.3,185.12c-6.47.18-12.64-5.1-13.46-11.52-.83-6.42,3.81-13.09,10.11-14.55-3.63-4.43-4.05-11.22-.99-16.06,3.06-4.84,9.37-7.38,14.93-5.99.72-5.61,4.56-10.72,9.74-12.98,5.18-2.26,11.53-1.59,16.14,1.69,6.69-4.8,16.74-4.13,22.73,1.51,5.56-.54,11.27,2.9,13.41,8.05,2.14,5.16.53,11.63-3.78,15.18"/>
        <g>
          <g>
            <path class="st6" d="M603.2,140.45l-2.89-.25c-29.11-2.5-55.26,17.78-60.08,46.59-4.49,26.8-9.11,56.47-10.17,70.96-2.2,30.01,27.38,37.24,27.38,37.24l-5.62,35.8,72.95,3.98,17.63-130.07c5.35-30.9-8.17-59.76-39.2-64.26Z"/>
            <path class="st11" d="M557.2,294.93s19.04,2.79,40.26-8.13c0,0-11.7,22.13-41.38,16.86l1.12-8.73Z"/>
            <path class="st7" d="M544.73,211.55c-.27,2.25,1.41,4.34,3.76,4.67,2.34.33,4.47-1.23,4.74-3.48.27-2.25-1.41-4.35-3.75-4.68-2.35-.33-4.48,1.23-4.75,3.48Z"/>
            <path class="st7" d="M546.72,198.48c.24.73,4.21-.04,8.38,1.96,4.19,1.94,6.23,5.54,6.93,5.25.33-.12.28-1.27-.59-2.87-.85-1.59-2.64-3.6-5.25-4.83-2.61-1.22-5.25-1.31-6.97-.93-1.75.37-2.62,1.08-2.49,1.42Z"/>
            <path class="st7" d="M584.47,221.7c-.27,2.25,1.41,4.34,3.76,4.67,2.34.33,4.47-1.23,4.74-3.48.27-2.25-1.41-4.35-3.75-4.67-2.35-.33-4.47,1.23-4.75,3.48Z"/>
            <path class="st7" d="M589.22,206.67c.26.73,4.22-.16,8.44,1.73,4.24,1.82,6.39,5.37,7.07,5.05.33-.13.24-1.27-.68-2.86-.9-1.57-2.74-3.52-5.38-4.68-2.64-1.15-5.28-1.16-7-.73-1.74.42-2.59,1.15-2.45,1.49Z"/>
            <path class="st7" d="M570.97,239.49c.04-.26-2.78-1-7.37-1.99-1.17-.22-2.26-.55-2.39-1.37-.2-.87.4-2.1,1.08-3.42,1.35-2.75,2.76-5.64,4.25-8.66,5.93-12.34,10.32-22.52,9.82-22.76-.5-.23-5.71,9.58-11.63,21.92-1.43,3.04-2.8,5.95-4.11,8.72-.56,1.3-1.46,2.75-1.01,4.56.24.91,1.05,1.62,1.79,1.89.73.3,1.39.36,1.97.45,4.65.65,7.54.92,7.58.66Z"/>
            <path class="st7" d="M588.15,188.69c.51,1.22,4.56.29,9.44.55,4.88.15,8.9,1.42,9.45.24.24-.56-.53-1.68-2.2-2.77-1.66-1.08-4.24-2.03-7.16-2.16-2.92-.12-5.53.61-7.22,1.56-1.71.94-2.52,2-2.29,2.58Z"/>
            <path class="st7" d="M546.82,183c.88,1.13,4.78.37,9.35.71,4.59.21,8.38,1.43,9.37.41.44-.5-.08-1.6-1.69-2.73-1.58-1.13-4.3-2.18-7.45-2.37-3.15-.19-5.95.53-7.64,1.46-1.71.94-2.33,1.97-1.95,2.52Z"/>
            <path class="st7" d="M544.29,173.3s9.52-18.1,18.94-21.7c11.41-4.36,15.1,8.07,25.79,6.05,10.69-2.02,21.59-6.22,31.57,2.77,10.92,9.84,4.92,15.57,4.5,28.93-1.7,54.18,6.84,70.27,11.82,45.11.55-2.76,8.46-4.31,10.61-15.97,2.79-15.12,4.96-33.58,2.49-44.69-2.09-9.37-6.75-16.11-15.47-23.86-13.78-12.23-33.98-14.2-47.82-13.99-13.85.2-41.67,13.73-42.44,37.35Z"/>
            <path class="st6" d="M635.08,233.48c.59-4.61,4.89-7.92,9.46-7.09,5.54,1.01,11.49,4.72,10.13,16.24-2.41,20.44-22.43,13.8-22.4,13.21.02-.4,1.72-13.82,2.81-22.36Z"/>
            <path class="st11" d="M637.63,248.67c.1-.05.33.29.9.64.55.34,1.54.64,2.65.37,2.25-.54,4.48-3.75,5.01-7.42.27-1.85.09-3.67-.4-5.21-.45-1.57-1.29-2.73-2.36-3.05-1.05-.38-1.9.18-2.22.73-.34.54-.26.96-.37.98-.06.04-.4-.4-.13-1.22.13-.4.43-.85.95-1.19.54-.34,1.28-.46,2.03-.29,1.56.29,2.81,1.91,3.35,3.61.62,1.71.87,3.76.56,5.84-.62,4.1-3.18,7.71-6.24,8.21-1.48.21-2.63-.37-3.19-.92-.57-.58-.63-1.05-.55-1.08Z"/>
          </g>
          <path class="st7" d="M638.09,193.73c-2.82,1.59-5.79,3.22-9.02,3.26-3.23.04-6.74-2.11-7.01-5.34-.12-1.45.37-3.07-.47-4.26-1.01-1.41-3.11-1.18-4.84-1.14-6.01.12-12.41-7.06-13.43-12.98-1.71,2.15-5.1,2.55-7.27.87-2.17-1.68-2.94-2.6-4.56-4.81-1.62-2.22-3.99-4.27-6.73-4.12-1.53.09-3.03.87-4.54.6-2.67-.47-3.71-3.73-3.89-6.44-.18-2.71-.23-5.85-2.38-7.5-2-1.53-4.8-.98-7.31-.83-2.51.15-5.66-.7-6.08-3.18-.22-1.3.44-2.59,1.24-3.64,3.62-4.75,10.77-6.39,16.1-3.68,2.59-6.6,9.37-11.33,16.46-11.47,7.09-.14,14.05,4.32,16.89,10.81,4.67-3.56,11.1-4.67,16.69-2.88,5.59,1.79,10.19,6.43,11.92,12.04,5.1-.88,10.62,1.53,13.42,5.88,2.81,4.34,2.75,10.37-.15,14.65,3.5,2.42,6.34,6.35,6.06,10.6-.29,4.25-4.78,8.12-8.78,6.65,1.37,3.44-.36,7.81-3.72,9.38-3.36,1.57-7.82.1-9.59-3.16"/>
          <path class="st5" d="M575.82,146.44s-.03.13-.03.38c0,.25-.01.62.04,1.11.11.96.37,2.4,1.15,4.08.79,1.66,2.07,3.6,4.13,5.23,2.02,1.65,4.86,3.01,8.19,3.11l-.31-.48c-.79,1.7-.79,3.82-.07,5.69.67,1.9,1.83,3.64,3.07,5.34.64.82,1.18,1.77,2.09,2.55.89.75,1.99,1.24,3.14,1.48,2.29.49,4.96,0,6.8-1.8l-.75-.28c.17,4.12,2.14,8.39,5.61,11.19,1.83,1.57,4.16,2.64,6.54,2.78,2.37.18,4.64-.33,6.76-.89l-.53-.29c.88,2.64,2.39,4.96,4.31,6.74,1.88,1.77,4.49,2.95,6.97,2.56,4.92-.61,8.48-4.36,9.45-8.09l-.48.18c2.29,1.51,4.85,1.86,6.95,1.64,2.13-.2,3.85-.97,5.1-1.77,1.25-.81,2.03-1.69,2.5-2.31.44-.64.63-1,.61-1.02-.1-.09-.81,1.5-3.3,3.03-1.24.73-2.92,1.42-4.96,1.57-2.02.17-4.44-.22-6.55-1.66l-.37-.25-.12.43c-.95,3.48-4.36,6.97-8.93,7.48-2.25.33-4.54-.71-6.32-2.39-1.79-1.68-3.23-3.91-4.04-6.39l-.13-.39-.4.1c-2.08.55-4.27,1.02-6.46.84-2.2-.14-4.29-1.09-6.04-2.59-3.28-2.65-5.12-6.65-5.31-10.55l-.05-.98-.7.7c-1.56,1.54-3.95,2.03-6,1.59-1.03-.21-2.01-.64-2.79-1.29-.76-.62-1.32-1.56-1.97-2.39-1.24-1.67-2.38-3.35-3.02-5.12-.69-1.76-.69-3.62,0-5.16l.21-.47h-.52c-3.14-.07-5.89-1.32-7.86-2.87-2.02-1.53-3.3-3.39-4.12-4.97-1.6-3.26-1.35-5.42-1.5-5.39Z"/>
        </g>
      </g>
      <path class="st11" d="M576.23,251.61c-5.07.15-10.15-.1-15.19-.74-1.6,3.18.31,9.71,3.46,11.37,3.16,1.66,6.6,1.81,9.39-.41,2.34-1.86,3.29-5.36,3.83-8.53.16-.91-.58-1.72-1.5-1.7Z"/>
      <path class="st7" d="M561.9,259.74c.06-.04.38.46,1.15,1.16.77.69,2.08,1.53,3.91,1.88,1.79.35,4.14.22,6.19-1.09,1.04-.61,1.93-1.54,2.57-2.68.63-1.15,1.03-2.49,1.35-3.89.15-.69.31-1.42.42-2.08.06-.3.03-.72,0-.66-.14-.13-.43-.2-.75-.22-1.36-.09-2.67-.18-3.93-.26-2.46-.18-4.71-.34-6.67-.48-1.77-.15-3.26-.29-4.49-.39-1.06-.11-1.64-.2-1.64-.25,0-.05.59-.07,1.66-.05,1.23.04,2.73.09,4.51.15,1.96.09,4.21.2,6.68.32,1.26.07,2.58.14,3.95.22.35.03.8.07,1.19.4.27.23.29.57.3.75,0,.21-.02.4-.04.59-.13.74-.27,1.41-.43,2.14-.33,1.43-.75,2.83-1.44,4.08-.7,1.24-1.72,2.28-2.86,2.92-2.26,1.38-4.8,1.45-6.68,1.01-1.92-.44-3.26-1.41-4-2.2-.37-.4-.62-.73-.76-.99-.14-.24-.21-.38-.19-.39Z"/>
    </g>
    <g>
      <path class="st9" d="M700.28,372.38s21.88,124.27,20.82,135.89c-1.06,11.62-6.87,30.1-20.07,33.27-13.2,3.17-25.35,0-25.35,0l15.84-152.63,8.75-16.52Z"/>
      <path class="st9" d="M700.28,372.38c0-11.78-18.61-30.68-32.09-40.01-6.55-4.53-33.94-24.12-33.94-24.12l-2.54-6.87c-25.15,6.21-51.12,6.79-75.79,5.31l-2.26,6.74-30.54,8.93-27.41,108.99.8,144.65,183.78-.47,1.46-13.2s18.52-181.7,18.52-189.94Z"/>
      <g class="st1">
        <path d="M684.25,541.89c16.18-37.89,14.91-80.72,12.71-121.86l-12.71,121.86Z"/>
      </g>
      <path class="st7" d="M700.28,394.04c.21.02-3.91,39.07-9.2,87.2-5.29,48.15-9.76,87.15-9.97,87.12-.21-.02,3.91-39.06,9.2-87.21,5.29-48.13,9.76-87.14,9.97-87.11Z"/>
      <path class="st7" d="M531.81,567.96c-.21,0,.13-22.43.76-50.09.63-27.66,1.31-50.08,1.53-50.07.21,0-.13,22.43-.76,50.09-.63,27.65-1.31,50.07-1.53,50.07Z"/>
      <path class="st7" d="M634.25,308.26s-.26.13-.77.31c-.6.19-1.34.44-2.26.74-.98.32-2.19.68-3.61,1.04-1.41.38-3.02.82-4.83,1.21-3.59.86-7.91,1.62-12.73,2.34-4.83.65-10.17,1.18-15.78,1.48-11.24.56-21.44.11-28.78-.52-3.67-.31-6.63-.63-8.67-.92-.95-.14-1.73-.25-2.35-.33-.54-.08-.82-.14-.81-.17,0-.03.29-.02.83.01.63.05,1.41.11,2.36.19,2.05.19,5.01.43,8.68.67,7.33.49,17.49.85,28.7.3,5.6-.3,10.91-.81,15.73-1.41,4.81-.68,9.13-1.38,12.71-2.17,1.8-.35,3.42-.75,4.84-1.09,1.42-.32,2.64-.64,3.63-.92.93-.24,1.69-.44,2.29-.6.53-.13.81-.18.82-.16Z"/>
    </g>
    <g>
      <path class="st6" d="M403.84,400.95l1.78-.32-36.56-63.91,5.78-18.42s6.7-26.24,1.12-32.94c0,0-12.21-14.37-16.17-14.18-3.96.2-7.13.99-7.92,3.96,0,0-6.73-.79-8.52,1.39-1.78,2.18-3.17,4.75-3.17,4.75,0,0-7.33-.59-9.31,5.74,0,0-6.93,3.57-7.53,8.72-.59,5.15,1.39,29.12,3.57,35.26,2.18,6.14,10.3,19.02,12.68,38.03,2.38,19.02,10.75,31.36,18.2,59.15l20.23,8,25.83-35.23Z"/>
      <path class="st9" d="M543.88,318.79s-19.09,3.19-20.75,3.57c-5.82,1.34-21.61,11.96-39.82,30.02-17.37,17.23-51.55,53.08-51.55,53.08,0,0-6.14-6.2-13.15,2.08l-46.74-68.47-38.06,14.62,3.61,15.2c-10.52,18.61,23.11,64.25,29.92,75.6,0,0,37.64,62.46,67.37,51.15,27.16-10.33,60.41-37.02,66.75-42.49l39.23-29.91s27.38-52.22,15.28-78.33l-12.1-26.11Z"/>
      <path class="st7" d="M467.21,478.43s.29-.14.79-.47c.56-.37,1.29-.86,2.2-1.47,1.9-1.28,4.63-3.17,7.98-5.52,6.71-4.71,15.9-11.32,25.93-18.79,10.03-7.48,18.99-14.41,25.41-19.5,3.21-2.54,5.8-4.62,7.57-6.07.84-.7,1.51-1.26,2.03-1.69.46-.39.69-.61.68-.63-.01-.02-.28.16-.77.52-.54.4-1.24.93-2.11,1.58-1.88,1.44-4.5,3.45-7.71,5.9-6.5,4.99-15.5,11.85-25.53,19.33-10.02,7.47-19.17,14.14-25.8,18.95-3.27,2.37-5.93,4.31-7.85,5.7-.88.65-1.58,1.17-2.12,1.57-.48.37-.73.57-.71.59Z"/>
      <path class="st7" d="M422.36,437.46c.12,0,.04-2.02.28-5.25.23-3.23.88-7.67,2.34-12.38,1.47-4.71,3.45-8.74,5.09-11.53,1.64-2.79,2.84-4.41,2.74-4.48-.04-.03-.37.35-.94,1.06-.58.71-1.34,1.78-2.22,3.16-1.76,2.75-3.85,6.8-5.34,11.58-1.48,4.78-2.06,9.3-2.16,12.56-.06,1.63-.04,2.96.04,3.87.07.91.12,1.41.17,1.41Z"/>
      <path class="st7" d="M414.09,434.44c.11-.02-.14-1.58-.34-4.11-.2-2.53-.26-6.04.18-9.89.45-3.84,1.31-7.25,2.07-9.67.76-2.42,1.37-3.88,1.26-3.93-.04-.02-.24.33-.55.97-.32.64-.73,1.6-1.17,2.8-.89,2.4-1.84,5.85-2.3,9.75-.44,3.9-.3,7.47.02,10.01.16,1.27.34,2.3.51,2.99.16.7.27,1.08.32,1.07Z"/>
      <path class="st7" d="M550.14,408.93c-.06-.04.68-1.09,1.86-3.07,1.19-1.97,2.72-4.95,4.08-8.84,1.37-3.88,2.43-8.7,2.64-14.13.22-5.42-.53-11.44-2.61-17.34-2.15-5.88-5.4-11.01-9.01-15.06-3.61-4.06-7.5-7.11-11.02-9.24-3.52-2.13-6.59-3.47-8.76-4.23-2.17-.77-3.41-1.11-3.39-1.18,0-.03.32.04.91.18.59.17,1.48.33,2.57.72,2.22.68,5.36,1.95,8.95,4.05,3.59,2.09,7.58,5.14,11.27,9.23,3.69,4.08,7.01,9.28,9.2,15.27,2.12,6.01,2.85,12.14,2.6,17.63-.25,5.51-1.39,10.39-2.83,14.29-1.44,3.9-3.06,6.88-4.34,8.81-.6,1-1.18,1.69-1.53,2.19-.37.49-.57.74-.59.72Z"/>
      <g>
        <g class="st1">
          <path d="M495.46,458.06s.06-.04.09-.06c-.14.02-.28.05-.42.06h.33Z"/>
        </g>
        <g class="st1">
          <path d="M545.38,419.78s-33.54,26.18-49.84,38.21c21.42-2.68,40.73-18.63,49.84-38.21Z"/>
        </g>
      </g>
    </g>
  </g>
</svg>