<?xml version="1.0" encoding="UTF-8"?>
<svg id="Capa_1" xmlns="http://www.w3.org/2000/svg" version="1.1" xmlns:xlink="http://www.w3.org/1999/xlink" viewBox="0 0 900 746.41">
  <!-- Generator: Adobe Illustrator 30.2.1, SVG Export Plug-In . SVG Version: 2.1.1 Build 1)  -->
  <defs>
    <style>
      .st0 {
        fill: #973032;
      }

      .st1 {
        fill: #263238;
      }

      .st2 {
        opacity: .3;
      }

      .st3 {
        fill: #fff;
      }

      .st4 {
        fill: #192e35;
      }

      .st5 {
        fill: none;
      }

      .st6 {
        fill: #dee0e2;
      }

      .st7 {
        fill: #bc2e41;
      }

      .st8 {
        clip-path: url(#clippath-1);
      }

      .st9 {
        fill: #385a65;
      }

      .st10 {
        fill: #976360;
      }

      .st11 {
        clip-path: url(#clippath-3);
      }

      .st12 {
        fill: #bd0043;
      }

      .st13 {
        fill: #ae2f3d;
      }

      .st14 {
        fill: #c8ced3;
      }

      .st15 {
        fill: #d5d9dc;
      }

      .st16 {
        fill: #f5f5f5;
      }

      .st17 {
        clip-path: url(#clippath-2);
      }

      .st18 {
        fill: #2f2c31;
      }

      .st19 {
        clip-path: url(#clippath);
      }

      .st20 {
        fill: #ce8e84;
      }
    </style>
    <clipPath id="clippath">
      <rect class="st5" x="500.77" y="50.54" width="399.23" height="695.87"/>
    </clipPath>
    <clipPath id="clippath-1">
      <rect class="st5" x="806.75" y="394.69" width="24.33" height="229.38"/>
    </clipPath>
    <clipPath id="clippath-2">
      <rect class="st5" x="672.65" y="525.02" width="64.75" height="20.87"/>
    </clipPath>
    <clipPath id="clippath-3">
      <rect class="st5" x="621.36" y="375.22" width="8.02" height="49.78"/>
    </clipPath>
  </defs>
  <g>
    <g>
      <rect class="st3" x="21.03" y="35.91" width="561.15" height="561.15"/>
      <path class="st1" d="M582.18,597.07c0-4.89-.23-224.73-.57-561.15l.57.57c-163.09.03-355.66.06-561.1.09h-.05l.66-.66c-.03,205.49-.06,398.06-.09,561.15l-.57-.57c336.47.34,556.27.57,561.15.57-4.88,0-224.69.23-561.15.57h-.57s0-.57,0-.57c-.03-163.09-.06-355.66-.09-561.15v-.66s.66,0,.66,0h.05c205.44.03,398.01.06,561.1.09h.57v.57c-.34,336.43-.57,556.27-.57,561.15Z"/>
    </g>
    <g>
      <g>
        <path class="st18" d="M160.95,484.9l-21.35,49.83c-.11.26-.36.43-.65.43h-12.96c-.49,0-.81-.5-.62-.94l35.6-82.04c.24-.54,1-.54,1.24,0l35.71,82.04c.19.45-.13.94-.62.94h-13.07c-.28,0-.53-.17-.65-.43l-21.36-49.83c-.24-.57-1.05-.57-1.29,0Z"/>
        <path class="st18" d="M96.77,502.02l21.35-49.83c.11-.26.36-.43.65-.43h12.96c.49,0,.81.5.62.94l-35.6,82.04c-.24.54-1,.54-1.24,0l-35.71-82.04c-.19-.45.13-.94.62-.94h13.07c.28,0,.53.17.65.43l21.36,49.83c.24.57,1.05.57,1.29,0Z"/>
        <path class="st18" d="M218.74,528.44c-3.3-2.5-5.8-5.58-7.51-9.1-1.93-3.87-2.84-8.19-2.84-12.85v-54.05c0-.37.3-.68.68-.68h11.85c.37,0,.68.3.68.68v54.05c0,5.01,1.82,8.87,5.23,11.49,3.18,2.5,7.85,3.98,12.85,3.98s9.56-1.48,12.85-3.98c3.42-2.62,5.12-6.48,5.12-11.49v-54.05c0-.37.3-.68.68-.68h11.96c.37,0,.68.3.68.68v54.05c0,4.66-1.02,8.99-2.84,12.85-1.82,3.53-4.32,6.6-7.51,9.1-5.58,4.32-12.97,6.71-20.93,6.71s-15.36-2.39-20.93-6.71Z"/>
        <path class="st18" d="M342.39,534.57l-21.28-31.17c-.28-.4-.87-.4-1.15,0l-21.17,31.17c-.25.37-.66.58-1.1.58h-14.44c-.54,0-.85-.6-.55-1.04l29.37-43.19c.16-.24.16-.55,0-.78l-25.44-37.34c-.3-.44.02-1.04.55-1.04h14.44c.44,0,.85.22,1.1.58l17.24,25.32c.27.4.87.4,1.15,0l17.35-25.33c.25-.36.66-.58,1.1-.58h14.44c.54,0,.85.6.55,1.04l-25.54,37.34c-.16.24-.16.55,0,.78l29.48,43.18c.3.44-.01,1.04-.55,1.04h-14.44c-.44,0-.85-.22-1.1-.58Z"/>
        <path class="st0" d="M404.52,451.76c-23.03,0-41.7,18.67-41.7,41.7s18.67,41.7,41.7,41.7,41.7-18.67,41.7-41.7-18.67-41.7-41.7-41.7ZM404.52,521.81c-15.66,0-28.35-12.69-28.35-28.35s12.69-28.35,28.35-28.35,28.35,12.69,28.35,28.35-12.69,28.35-28.35,28.35Z"/>
        <path class="st0" d="M501.7,451.76c-23.03,0-41.7,18.67-41.7,41.7s18.67,41.7,41.7,41.7,41.7-18.67,41.7-41.7-18.67-41.7-41.7-41.7ZM501.7,521.81c-15.66,0-28.35-12.69-28.35-28.35s12.69-28.35,28.35-28.35,28.35,12.69,28.35,28.35-12.69,28.35-28.35,28.35Z"/>
      </g>
      <g>
        <path class="st13" d="M390.69,317.58l-67.14-65.95,67.14-65.95,63.08,61.97c2.24,2.2,2.24,5.77,0,7.97l-63.08,61.97Z"/>
        <polygon class="st0" points="357.12 284.6 323.55 251.63 357.12 218.65 390.69 251.63 357.12 284.6"/>
        <path class="st7" d="M424.26,284.6l29.51-28.99c2.24-2.2,2.24-5.77,0-7.97l-29.51-28.99-33.57,32.98,33.57,32.98Z"/>
        <path class="st13" d="M212.43,317.58l67.14-65.95-67.14-65.95-63.08,61.97c-2.24,2.2-2.24,5.77,0,7.97l63.08,61.97Z"/>
        <polygon class="st0" points="246.01 284.6 279.58 251.63 246.01 218.65 212.43 251.63 246.01 284.6"/>
        <path class="st7" d="M178.86,284.6l-29.51-28.99c-2.24-2.2-2.24-5.77,0-7.97l29.51-28.99,33.57,32.98-33.57,32.98Z"/>
        <path class="st13" d="M367.52,340.75l-65.95-67.14-65.95,67.14,61.97,63.08c2.2,2.24,5.77,2.24,7.97,0l61.97-63.08Z"/>
        <polygon class="st0" points="334.54 307.18 301.56 273.61 268.59 307.18 301.56 340.75 334.54 307.18"/>
        <path class="st7" d="M334.54,374.33l-28.99,29.51c-2.2,2.24-5.77,2.24-7.97,0l-28.99-29.51,32.98-33.57,32.98,33.57Z"/>
        <path class="st15" d="M235.61,162.5l65.95,67.14,65.95-67.14-61.97-63.08c-2.2-2.24-5.77-2.24-7.97,0l-61.97,63.08Z"/>
        <polygon class="st14" points="268.59 196.07 301.56 229.64 334.54 196.07 301.56 162.5 268.59 196.07"/>
        <path class="st6" d="M268.59,128.93l28.99-29.51c2.2-2.24,5.77-2.24,7.97,0l28.99,29.51-32.98,33.57-32.98-33.57Z"/>
      </g>
    </g>
  </g>
  <g class="st19">
    <path class="st20" d="M580.83,271.23l-2.28,16.46,1.62-23.47,2.74-20.67-.68-33.33,16.7,17.93c1.51,2.24,2.44,4.83,2.71,7.52l2.86,63.41.77,27.13-30.45,19.83.11-32.3-7.27-7.52c-8.85-17.67,10.17-36.06,10.17-36.06"/>
    <path class="st20" d="M598.51,264.22c-4.11-6.97-8.87-13.57-14.19-19.67-1.74-1.99-3.61-3.99-6.01-5.08-2.41-1.1-5.5-1.1-7.47.67-2.24,2-2.32,5.61-1.09,8.36,1.23,2.75,3.47,4.88,5.5,7.09,2.03,2.22,3.97,4.75,4.34,7.73.35,2.81-.74,5.57-1.38,8.32-2.1,8.98.87,18.96,7.52,25.34"/>
    <path class="st10" d="M585.73,296.98c.1-.1-.94-1.11-2.44-3.22-1.47-2.1-3.38-5.4-4.41-9.88-.51-2.23-.82-4.74-.67-7.42.09-2.71.83-5.41,1.67-8.46.37-1.53.67-3.21.41-4.97-.25-1.75-1.01-3.39-1.98-4.84-1.95-2.94-4.75-5.16-6.69-7.96-.98-1.4-1.67-2.91-1.85-4.49-.19-1.57.1-3.18.94-4.35,1.75-2.43,5.45-2.34,7.87-.98,2.56,1.38,4.43,3.69,6.24,5.72,1.79,2.07,3.4,4.04,4.84,5.87,2.86,3.67,5.01,6.77,6.48,8.93,1.47,2.16,2.27,3.36,2.37,3.3.09-.05-.54-1.36-1.86-3.62-1.32-2.26-3.34-5.48-6.11-9.26-1.39-1.89-2.97-3.92-4.73-6.04-1.78-2.06-3.64-4.52-6.54-6.14-1.44-.81-3.18-1.26-4.95-1.16-1.76.09-3.67.91-4.81,2.49-2.28,3.25-1.33,7.66.85,10.61,2.15,3.06,4.93,5.24,6.7,7.93.9,1.33,1.56,2.75,1.78,4.22.23,1.46,0,2.97-.33,4.43-.77,2.9-1.54,5.93-1.57,8.73-.1,2.82.29,5.43.89,7.73,1.21,4.63,3.33,7.94,4.99,9.98.84,1.02,1.55,1.76,2.08,2.22.52.46.81.68.84.65"/>
    <polyline class="st4" points="716.56 768.74 701.6 689.3 673.84 602.12 828.32 595.34 827.75 657.77 812.58 769.57"/>
    <polyline class="st4" points="661.2 752.7 738.5 755.51 731.45 596.98 636.08 612.77 635.45 747.08"/>
    <path class="st9" d="M711.76,762.74c-6.25-64.66-4.38,5.13-6.6-37.41-1.06-21.27-1.85-38.49-2.22-50.4-.23-5.89-.41-10.49-.54-13.71-.08-1.51-.13-2.69-.18-3.56-.05-.8-.09-1.21-.11-1.21-.02,0-.04.41-.04,1.22,0,.88.02,2.06.03,3.57.06,3.22.15,7.83.27,13.72.2,11.92.84,29.15,1.76,50.44,1.96,42.57-.07-27.17,6.18,37.51"/>
    <path class="st9" d="M769.36,612.34c-.09.01-.02,1.04.3,2.87.32,1.82.97,4.44,2.14,7.55,2.28,6.2,7.1,14.44,15.03,20.93,7.94,6.5,16.96,9.59,23.49,10.6,3.28.53,5.98.65,7.83.61,1.85-.04,2.87-.18,2.87-.27,0-.28-4.11-.05-10.51-1.34-6.36-1.25-15.06-4.41-22.76-10.71-7.7-6.3-12.51-14.2-15-20.19-2.53-6.02-3.12-10.1-3.39-10.04"/>
    <path class="st9" d="M697.48,623.49c-.02,2.21,1.76,4.03,3.97,4.05,2.21.02,4.03-1.76,4.05-3.97.02-2.22-1.76-4.03-3.97-4.05-2.21-.02-4.03,1.76-4.05,3.97"/>
    <path class="st9" d="M634.79,654.5c.11.12,2.41-1.63,5.54-5.1,3.13-3.45,6.95-8.74,9.94-15.24,2.97-6.5,4.5-12.85,5.07-17.48.59-4.63.41-7.52.25-7.52-.24-.01-.43,2.85-1.27,7.37-.83,4.51-2.47,10.67-5.37,17.03-2.93,6.35-6.52,11.61-9.4,15.18-2.88,3.58-4.92,5.59-4.76,5.76"/>
    <path class="st12" d="M681.63,292.22s-21.72,17.42-30.04,36.87c-8.31,19.45-24.96,46.01-24.96,46.01l-16.71-56.64-42.34,21.05s14.62,88.92,17.94,99.32c4.6,14.4,15.2,27.19,31.43,25.39,16.23-1.8,25.74-9.14,36.15-24.79l13.98-26.27,14.54-120.93Z"/>
    <path class="st12" d="M787.11,253.19s61.46,29.08,74.53,46.71c15.84,21.38-25.83,91.29-28.81,108.51-1.43,8.27-10.6,70.4-4.96,119.18,6.02,52.17,5.29,97.72,5.29,97.72l-197.08-12.55c-.58-34.32,7.85-60.96,13.02-104.64l12.39-142.46,20.14-73.44,30.18-13.37,75.29-25.66Z"/>
    <path class="st4" d="M664.7,341.61c-.05,0-.16.51-.32,1.51-.17,1.17-.37,2.61-.62,4.35-.51,3.78-1.17,9.27-1.95,16.05-1.55,13.56-3.48,32.32-5.31,53.06-1.82,20.75-3.19,39.56-4.03,53.18-.42,6.81-.72,12.33-.88,16.14-.06,1.76-.11,3.21-.15,4.39-.02,1.01,0,1.54.05,1.54.05,0,.14-.52.26-1.52.12-1.18.26-2.62.44-4.37.34-4.03.81-9.48,1.37-16.1,1.16-13.81,2.74-32.48,4.48-53.13,1.89-20.62,3.59-39.29,4.86-53.09.6-6.62,1.09-12.07,1.46-16.1.13-1.76.24-3.21.33-4.38.06-1.01.07-1.53.01-1.54"/>
    <path class="st4" d="M813.17,353.58c.29,0,0-4.08,1.18-10.46,1.14-6.34,4.14-15.02,10.26-22.77,6.13-7.75,13.9-12.67,19.8-15.24,5.94-2.62,9.97-3.28,9.91-3.56-.02-.09-1.03-.02-2.84.32-1.81.34-4.41,1.03-7.49,2.23-6.14,2.36-14.25,7.28-20.58,15.28-6.33,8-9.25,17.03-10.13,23.55-.47,3.28-.54,5.96-.45,7.8.08,1.84.25,2.85.34,2.84"/>
    <path class="st4" d="M683.54,521.22c.02.1,1.38-.12,3.83-.61,2.46-.46,5.97-1.38,10.23-2.74,4.27-1.34,9.25-3.29,14.62-5.8,5.33-2.58,11.04-5.75,16.71-9.57,5.64-3.87,10.69-8.02,15.04-12.04,4.3-4.07,7.94-7.99,10.75-11.47,2.83-3.47,4.97-6.39,6.3-8.51,1.36-2.1,2.07-3.28,1.98-3.34-.24-.16-3.29,4.45-9.11,11.15-2.89,3.37-6.58,7.16-10.88,11.13-4.36,3.92-9.37,7.98-14.95,11.81-5.61,3.78-11.22,6.95-16.46,9.57-5.28,2.55-10.15,4.59-14.35,6.04-8.37,2.96-13.78,4.1-13.71,4.39"/>
    <g class="st2">
      <g class="st8">
        <path d="M823.1,394.69c13.94,75.24,8.86,155.06-9.37,229.38l-5.05-.31c-5.39-76.31.86-153.78,14.42-229.07"/>
      </g>
    </g>
    <path class="st20" d="M820.05,638.95l-1.2,17.21s-13.08,7.11-17.72,12c-4.64,4.89-18.03,30.75-18.03,30.75,0,0,4.48,4.15,9.22.52,2.13-1.63,9.5-13.8,9.5-13.8,5.16-1.21,9.91,3.53,8.78,8.77-1.65,7.7-3.52,16.68-3.56,17.87-.04,1.33-7.55,8.69-13.24,14.09-3.41,3.24-.44,9.51,4.14,8.41.47-.11.87-.31,1.16-.62,0,0-.54,8.18,10.59,1.48,0,0,10.01,2.25,14.81-3.49,0,0,12.24-1.91,16.55-5.53,4.31-3.62,13.43-40.86,13.43-40.86l5.04-39.59-39.48-7.22Z"/>
    <path class="st12" d="M861.64,299.91s24.2,29.06,24.8,53.11c.6,24.05,8.16,179.24,8.16,179.24l-31.01,129.97-53.15-12.49,16.48-136.67-3.83-118.37,38.54-94.78Z"/>
    <path class="st4" d="M863.6,662.22s-.31-.13-.92-.3c-.71-.19-1.61-.43-2.74-.73-2.53-.63-6.07-1.52-10.56-2.64-9.3-2.25-22.53-5.45-38.8-9.38l.44.63c3.51-27.36,8.18-63.62,13.28-103.32,1.19-9.43,2.36-18.67,3.48-27.54v-.06s0-.06,0-.06c-1.28-37.18-2.4-69.88-3.21-93.41-.46-11.62-.84-20.98-1.1-27.55-.15-3.14-.28-5.61-.36-7.41-.05-.78-.09-1.41-.13-1.92-.04-.43-.07-.65-.09-.65s-.04.22-.05.65c0,.52,0,1.14,0,1.92.02,1.8.06,4.28.1,7.42.15,6.58.37,15.94.64,27.57.68,23.54,1.62,56.24,2.69,93.43v-.12c-1.12,8.86-2.3,18.1-3.49,27.53-4.96,39.72-9.49,76-12.9,103.37l-.07.52.51.12c16.31,3.72,29.59,6.75,38.91,8.88,4.52.99,8.09,1.78,10.63,2.34,1.15.23,2.06.42,2.78.57.63.12.95.17.96.14"/>
    <g class="st2">
      <g class="st17">
        <path d="M737.38,525.02c-20.41,8.84-42.52,13.72-64.75,14.29,3.47,5.05,9.89,6.26,16,6.51,6.12.26,12.02-.15,17.85-2.04,11.16-3.62,24.26-9.1,30.9-18.76"/>
      </g>
    </g>
    <g class="st2">
      <g class="st11">
        <path d="M626.69,375.22c2.88,14.3,3.45,29.06,1.68,43.54-.22,1.78-.52,3.68-1.72,5.02-1.19,1.34-3.6,1.75-4.72.34-.94-1.18-.55-2.89-.13-4.34,4.24-14.85,5.84-29.15,4.88-44.57"/>
      </g>
    </g>
    <path class="st4" d="M658.84,137.3c2.8-6.66,10.61-11.71,11.11-13.82,1.32-5.52-3.57-11.4-1.89-16.82,3.96-12.75,14.32-11.25,14.32-11.25,4.61-5.78,10.85-13.42,21.13-16.26,11.15-3.09,27.61-5.51,37.68.18,10.06,5.7,17.45,9.49,20.86,20.55l-68.5,125.35c-8.14-3.61-13.34-11.8-16.45-20.14-3.11-8.35-4.64-17.24-8.08-25.45-2.57-6.12-.02-16-5.62-19.57-7-4.47-7.13-16.64-4.56-22.76"/>
    <path class="st20" d="M682.03,148.08c1.32-28.34,24.17-50.92,52.53-51.88l2.82-.09c30.44.74,46.81,27,45.23,57.41l4.33,99.68-50.8,35.41c-17.17,13.32-24.28,3.11-24.5-9.74l-.48-28.48s-29.35-3.55-30.71-32.73c-.65-14.09.36-43.22,1.59-69.57"/>
    <path class="st4" d="M691.47,173c0,2.2,1.86,4.02,4.16,4.07,2.3.04,4.17-1.7,4.17-3.91,0-2.2-1.86-4.03-4.16-4.07-2.3-.04-4.17,1.7-4.17,3.91"/>
    <path class="st4" d="M688.36,163.67c.54.53,3.61-1.92,8.1-2.06,4.48-.2,7.85,1.99,8.32,1.43.23-.25-.33-1.22-1.8-2.21-1.45-.99-3.89-1.92-6.68-1.81-2.79.11-5.11,1.22-6.43,2.32-1.34,1.11-1.78,2.1-1.51,2.34"/>
    <path class="st4" d="M731.83,173c0,2.2,1.86,4.02,4.16,4.07,2.3.04,4.17-1.7,4.17-3.91,0-2.2-1.86-4.03-4.16-4.07-2.3-.04-4.17,1.7-4.17,3.91"/>
    <path class="st4" d="M731.82,163.6c.52.54,3.67-1.82,8.15-1.84,4.48-.09,7.8,2.2,8.28,1.64.24-.25-.29-1.22-1.74-2.25-1.42-1.03-3.83-2.02-6.63-1.99-2.8.04-5.14,1.09-6.48,2.15-1.37,1.07-1.83,2.06-1.58,2.3"/>
    <path class="st4" d="M717.77,195.31c.01-.26-2.79-.64-7.33-1.07-1.15-.08-2.24-.27-2.46-1.05-.3-.82.14-2.07.65-3.42.98-2.81,2.01-5.75,3.09-8.84,4.28-12.58,7.34-22.91,6.83-23.08-.51-.17-4.39,9.89-8.68,22.47-1.03,3.1-2.01,6.06-2.95,8.89-.39,1.32-1.09,2.82-.44,4.52.34.85,1.2,1.44,1.94,1.61.74.2,1.39.19,1.96.2,4.56.09,7.38.02,7.39-.24"/>
    <path class="st4" d="M731.54,147.82c.62,1.14,4.97-.1,10.27-.25,5.3-.26,9.73.63,10.26-.56.23-.56-.67-1.59-2.55-2.5-1.86-.91-4.71-1.62-7.89-1.5-3.18.13-5.97,1.05-7.75,2.11-1.8,1.06-2.62,2.15-2.34,2.7"/>
    <path class="st4" d="M687.74,148.68c.93.99,4.39-.19,8.6-.38,4.2-.32,7.79.42,8.57-.67.34-.53-.25-1.53-1.84-2.44-1.57-.91-4.16-1.61-7.05-1.43-2.89.18-5.36,1.19-6.79,2.28-1.45,1.1-1.9,2.16-1.49,2.65"/>
    <path class="st4" d="M759.84,97.82c.14,6.47-2.74,12.94-7.63,17.17-4.89,4.24-11.71,6.16-18.09,5.1-4.95-.82-10.41-3.22-14.64-.52-4.45,2.84-4.52,9.62-8.45,13.15-5.61,5.04-14.75.56-21.95,2.82-5.56,1.75-8.96,7.15-12.59,11.7-3.64,4.56-9.12,8.92-14.74,7.36.27-5.03.55-10.11,1.97-14.94,1.41-4.83,4.09-9.47,8.26-12.29,2.29-1.54,4.96-2.51,7.07-4.28,4.57-3.82,5.54-10.36,8.31-15.63,3.58-6.8,10.63-11.65,18.26-12.56,6.35-.76,12.93,1.04,19.1-.63,4.56-1.23,8.51-4.28,13.14-5.24,9.01-1.87,17.52,4.48,24.18,10.82"/>
    <path class="st4" d="M731.13,111.17c4.03-1.23,12.28-3.99,14.39-7.54,4.59-7.71,12.83-13.07,21.34-12.75,8.51.32,16.79,6.9,18.68,15.85,10.29-.09,20.44,6.2,25.54,15.84,5.1,9.64,4.95,22.24-.38,31.71-1.4,2.48-3.18,4.96-3.17,7.87.01,3.6,2.72,6.4,4.65,9.35,5.26,8.02,5.06,19.17,1.25,28.07-3.81,8.9-6.55,12.05-12.15,13.92-10.97,3.65-12.17,19.06-16.39,23.37l-6.39-63.08c-.46.26-1.01.49-1.71.66-10.82,2.64-12.61-18.54-10.29-24.65-3.98-3.42-8.02-6.89-11.09-11.27-3.07-4.38-5.92-16.42-5.37-21.87-3.91.3-20.68-4.93-18.91-5.47"/>
    <path class="st20" d="M776.97,174.23c.49-.23,19.86-6.62,19.9,13.37.04,19.98-20.03,15.9-20.06,15.33-.04-.57.16-28.69.16-28.69"/>
    <path class="st10" d="M782.89,195.34c.09-.07.35.24.94.51.57.26,1.56.44,2.6.05,2.11-.78,3.88-4.14,3.97-7.74.05-1.82-.34-3.55-.98-4.98-.61-1.46-1.56-2.48-2.62-2.67-1.06-.24-1.81.4-2.05.96-.27.56-.14.96-.25.99-.06.05-.43-.34-.27-1.16.08-.4.31-.87.78-1.25.48-.39,1.19-.59,1.92-.51,1.54.1,2.93,1.52,3.64,3.09.8,1.58,1.27,3.52,1.22,5.57-.12,4.03-2.17,7.8-5.06,8.64-1.41.37-2.58-.05-3.18-.52-.62-.49-.73-.94-.66-.98"/>
    <path class="st10" d="M711.15,250.38s26.53-4.52,41.83-16.62c0,0-7.77,24.51-41.64,25.76l-.19-9.14Z"/>
    <path class="st4" d="M729.43,197.89c-.74-.02-.58,4.92-4.69,8.57-4.1,3.66-9.38,3.29-9.4,3.98-.06.31,1.21.92,3.43.9,2.18,0,5.34-.81,7.85-3.04,2.51-2.24,3.52-5.15,3.61-7.18.12-2.07-.47-3.28-.81-3.24"/>
    <path class="st9" d="M709.29,169.56c-.17,0-.12-1.58-.86-4.25-.73-2.62-2.53-6.45-6.49-9.39-3.82-2.94-10.1-4.58-16.17-2.31-6.02,2.08-11.2,8.48-11.14,15.95-.07,7.47,5.12,13.88,11.14,15.96,6.07,2.27,12.35.63,16.17-2.32,3.96-2.93,5.76-6.76,6.49-9.38.74-2.67.69-4.26.86-4.25.06,0,.09.39.11,1.14.03.75-.05,1.86-.36,3.26-.57,2.76-2.28,6.89-6.41,10.14-3.98,3.26-10.73,5.19-17.36,2.8-3.27-1.14-6.39-3.34-8.62-6.4-2.29-3.02-3.59-6.93-3.62-10.95.03-4.02,1.33-7.92,3.62-10.94,2.23-3.06,5.35-5.26,8.62-6.4,6.63-2.39,13.38-.45,17.36,2.8,4.12,3.25,5.84,7.38,6.41,10.14.3,1.4.38,2.52.36,3.27-.02.75-.05,1.14-.11,1.14"/>
    <path class="st9" d="M755.61,169.86c-.17,0-.11-1.65-.88-4.44-.76-2.74-2.64-6.74-6.77-9.81-3.99-3.08-10.55-4.79-16.9-2.43-6.29,2.17-11.72,8.87-11.65,16.68-.07,7.81,5.36,14.51,11.65,16.68,6.34,2.37,12.91.65,16.9-2.42,4.13-3.07,6.01-7.07,6.77-9.81.77-2.79.71-4.45.88-4.44.06,0,.09.41.1,1.19.03.78-.06,1.95-.38,3.4-.6,2.88-2.39,7.18-6.69,10.57-4.15,3.39-11.19,5.4-18.1,2.92-3.4-1.19-6.66-3.48-8.98-6.67-2.38-3.15-3.74-7.22-3.77-11.4.04-4.19,1.39-8.25,3.77-11.4,2.32-3.19,5.58-5.48,8.98-6.67,6.91-2.49,13.94-.48,18.09,2.91,4.3,3.39,6.09,7.69,6.69,10.57.32,1.46.4,2.62.38,3.4-.01.78-.05,1.19-.1,1.19"/>
    <path class="st9" d="M718.54,170.52c-.3.34-2.17-.94-4.79-.85-2.62,0-4.45,1.34-4.77,1.01-.14-.15.14-.74.96-1.38.81-.63,2.19-1.21,3.78-1.24,1.59-.02,2.99.51,3.82,1.12.84.61,1.14,1.2,1,1.35"/>
    <path class="st9" d="M775.68,174.47c-.08.45-4.72-.09-10.23-1.52-5.5-1.43-9.92-2.66-9.84-3.09.08-.45,4.72.09,10.23,1.52,5.5,1.43,9.91,2.66,9.84,3.09"/>
    <path class="st16" d="M797.33,390.88l-12.07-11.86,12.07-11.86,11.34,11.14c.4.4.4,1.04,0,1.43l-11.34,11.14Z"/>
    <path class="st16" d="M765.28,390.88l12.07-11.86-12.07-11.86-11.34,11.14c-.4.4-.4,1.04,0,1.43l11.34,11.14Z"/>
    <path class="st16" d="M793.16,395.05l-11.86-12.07-11.86,12.07,11.14,11.34c.4.4,1.04.4,1.43,0l11.14-11.34Z"/>
    <path class="st16" d="M769.44,362.99l11.86,12.07,11.86-12.07-11.14-11.34c-.4-.4-1.04-.4-1.43,0l-11.14,11.34Z"/>
  </g>
</svg>