<?xml version="1.0" encoding="UTF-8"?>
<svg id="Capa_1" xmlns="http://www.w3.org/2000/svg" version="1.1" viewBox="0 0 662.12 900">
  <!-- Generator: Adobe Illustrator 30.2.1, SVG Export Plug-In . SVG Version: 2.1.1 Build 1)  -->
  <defs>
    <style>
      .st0 {
        fill: #263238;
      }

      .st1 {
        opacity: .3;
      }

      .st2 {
        fill: #fff;
      }

      .st3 {
        fill: #455a64;
      }

      .st4 {
        fill: #ffbf9d;
      }

      .st5 {
        fill: #ff9a6c;
      }
    </style>
  </defs>
  <polygon class="st4" points="25.52 890.65 37.41 717.68 129.83 831.97 124.55 899.92 25.52 890.65"/>
  <path class="st3" d="M116.64,483.8c-4.55,4.28-29.57,47.03-31.85,82.3-2.28,35.27,3.12,233.35,3.12,233.35l12.87,100.44c109.48,0,238.75,1.93,450.24-10.56l7.67-77.08,10.9-121.83-32.09-257.92-111.47-25.65-26.14-39.81-174.22,38.32-15.54,34.51-93.5,43.93Z"/>
  <g>
    <path class="st0" d="M387.81,263.33c7.67-26.8,15.22-53.78,17.87-81.42,2.65-27.63.2-56.19-11.5-81.67-1.77-3.86-16.5-29.64-20.93-29.01-3.16.45,6.37,24.7,4.9,27.37-13.99,25.5-16.53,55.49-12.51,83.93,4.02,28.44,11.75,53.83,22.17,80.8"/>
    <path class="st4" d="M384.92,157.47c-1.41-69.58-45.67-126.8-119.65-123.55l-6.82.67c-68.61,6.8-120.2,61.94-118.5,126.75,1.58,60.3,4.14,126.9,8.16,158.94,8.32,66.32,80.17,69.64,80.17,69.64.16,0,3.3,43.61,3.3,43.61l30.36,30.99,140.72-81.9-17.73-225.17Z"/>
    <path class="st5" d="M228.27,390.44s44.82-1.96,89.15-34.68c0,0-14.85,60.15-86.04,61.16l-3.11-26.48Z"/>
    <path class="st0" d="M180.6,215.43c.37,5.03,5.21,8.87,10.81,8.6,5.58-.27,9.82-4.55,9.44-9.58-.37-5.03-5.21-8.88-10.79-8.61-5.59.27-9.83,4.56-9.45,9.59Z"/>
    <path class="st0" d="M158.14,187.41c1.39,1.11,8.44-4.96,19.3-6.01,10.83-1.19,19.39,3.27,20.43,1.9.52-.61-1.01-2.72-4.74-4.75-3.68-2.02-9.77-3.75-16.53-3.05-6.76.71-12.19,3.61-15.19,6.33-3.07,2.74-3.95,5.09-3.27,5.58Z"/>
    <path class="st0" d="M276.54,207.78c.37,5.03,5.21,8.87,10.81,8.6,5.58-.27,9.82-4.55,9.44-9.58-.37-5.02-5.21-8.88-10.8-8.61-5.59.27-9.82,4.56-9.45,9.59Z"/>
    <path class="st0" d="M264.99,181c1.39,1.11,8.45-4.96,19.31-6.01,10.83-1.19,19.39,3.27,20.43,1.9.51-.61-1-2.72-4.75-4.74-3.68-2.03-9.77-3.75-16.53-3.05-6.76.71-12.19,3.61-15.19,6.33-3.06,2.74-3.95,5.09-3.27,5.58Z"/>
    <path class="st0" d="M234.82,263.27c-.01-.58-6.89-1.01-17.98-1.24-2.8,0-5.49-.25-6.15-1.98-.86-1.82-.02-4.74.98-7.91,1.9-6.56,3.89-13.44,5.97-20.65,8.22-29.38,13.86-53.42,12.6-53.73-1.26-.3-8.95,23.27-17.17,52.65-1.96,7.24-3.84,14.14-5.62,20.74-.72,3.06-2.15,6.6-.29,10.37.96,1.87,3.16,3.09,4.99,3.36,1.83.33,3.4.21,4.78.15,11.07-.53,17.9-1.16,17.88-1.75Z"/>
    <path class="st0" d="M267.58,267.17c-1.78.08-.56,11.16-9.77,20.02-9.19,8.88-21.89,8.89-21.81,10.44-.09.71,3.04,1.87,8.36,1.49,5.22-.35,12.64-2.67,18.28-8.09,5.61-5.43,7.54-12.13,7.43-16.71-.07-4.68-1.69-7.29-2.49-7.15Z"/>
    <path class="st0" d="M260.94,139.53c1.38,2.67,12.08.28,24.98.46,12.91-.06,23.58,2.42,24.99-.23.62-1.27-1.47-3.7-5.92-5.97-4.42-2.27-11.27-4.17-19.01-4.22-7.74-.03-14.61,1.81-19.05,4.04-4.48,2.23-6.59,4.65-5.98,5.92Z"/>
    <path class="st0" d="M158.82,153.04c2.17,2.13,9.38-1.02,18.37-2.02,8.94-1.3,16.79-.09,18.27-2.69.64-1.25-.82-3.45-4.4-5.32-3.52-1.86-9.21-3.1-15.38-2.32-6.16.8-11.28,3.43-14.15,6.11-2.91,2.7-3.69,5.19-2.72,6.23Z"/>
    <path class="st4" d="M384.66,207.21c1.15-.61,47.05-18.31,50.6,27.25,3.55,45.55-45.85,39.5-46.04,38.2-.19-1.3-4.56-65.45-4.56-65.45Z"/>
    <path class="st5" d="M402.68,254.39c.2-.16.89.5,2.36,1.01,1.44.5,3.87.75,6.32-.31,4.98-2.12,8.7-10.05,8.3-18.28-.2-4.15-1.43-8.04-3.25-11.2-1.74-3.23-4.22-5.4-6.83-5.66-2.61-.38-4.32,1.2-4.81,2.52-.55,1.32-.17,2.21-.42,2.3-.13.12-1.1-.69-.86-2.6.13-.92.62-2.03,1.69-2.99,1.09-.97,2.77-1.54,4.58-1.48,3.76-.01,7.38,2.99,9.37,6.45,2.21,3.47,3.69,7.83,3.92,12.5.4,9.2-3.93,18.13-10.79,20.52-3.34,1.07-6.26.3-7.82-.67-1.59-1.02-1.92-2.02-1.76-2.12Z"/>
    <path class="st0" d="M166.16,83.94c-8.13-3.59,13.79-28.91,32.52-38.3,28.31-14.19,72.31-24.54,99.68-19,32.96,6.67,60.89,20.17,79.03,46.87,18.15,26.7,26.47,58.58,27.69,90.24.37,9.66,0,19.78-4.93,28.26-6.09,10.49-18.65,17.62-17.13,31.49.56,5.07-.63,10.29-4.09,14.22-8.27,9.41-19.69,1.73-25.26-6.33-11.89-17.21-14.53-38.45-16.87-58.85-1.66-14.5-3.31-29.31.1-43.53,1.85-7.74,5.17-15.15,6.57-22.97,1.39-7.83.55-16.56-5-22.55-.9-.97-2.36-2.18-4.2-3.51-14.51-10.48-33.97-12.71-50.8-5.94-26.69,10.73-72.41,27.12-85.19,19.14-18.39-11.47-23.14-19.39-23.14-19.39l-8.99,10.15Z"/>
  </g>
  <g>
    <path class="st2" d="M412.73,594.59l-18.64-17.2,18.64-17.2,17.51,16.2c.62.56.64,1.48.04,2.06-.01.01-.03.03-.04.04l-17.51,16.11Z"/>
    <path class="st2" d="M363.25,594.59l18.64-17.2-18.64-17.2-17.51,16.2c-.62.55-.64,1.47-.05,2.04.02.02.04.03.05.05l17.51,16.11Z"/>
    <path class="st2" d="M406.3,600.63l-18.3-17.51-18.31,17.51,17.2,16.46c.59.58,1.57.6,2.19.04.01-.01.03-.03.04-.04l17.18-16.46Z"/>
    <path class="st2" d="M369.69,554.14l18.31,17.51,18.3-17.51-17.2-16.45c-.59-.58-1.56-.6-2.18-.05-.02.02-.04.03-.05.05l-17.18,16.45Z"/>
  </g>
  <path class="st3" d="M116.64,483.8c-2.81,3.65-42.55,16.05-57.62,39.64-15.07,23.6-29.99,129.55-29.99,129.55l-9.59,69.75c18.9,28.1,44.25,65.29,71.16,91.53l26.04-330.47Z"/>
  <g class="st1">
    <path d="M415.18,586.11c1.67,14.22,3.38,28.59,8.59,42.03,5.2,13.44,14.33,26.06,27.65,32.99,5.58,2.9,11.87,4.81,16.54,8.89,5.02,4.38,7.54,10.74,12.08,15.56,5.28,5.6,12.89,8.73,20.4,11.22,22.23,7.4,44.12,10.93,67.68,10.13.71-7.31.76-34.16,1.48-41.47l-154.42-79.35Z"/>
  </g>
  <g>
    <g>
      <path class="st3" d="M537.51,432.5s50.1,13.92,64.78,33.98c14.67,20.06,40.69,97.78,46.03,112.19,5.34,14.42.67,47.84-9.34,71.87-10.01,24.03-27.37,44.71-57.37,47.84-30.01,3.13-77.4-13.16-88.06-23.82-10.66-10.66-15.12-34.57-15.12-34.57,13.32-2.2,26.48-5.3,39.33-9.27"/>
      <path class="st0" d="M517.75,630.72s-.2.11-.62.26c-.5.17-1.11.38-1.89.64-1.68.54-4.18,1.32-7.49,2.26-6.61,1.86-16.43,4.38-29.24,6.58l.4-.54c1.12,5.32,2.74,11.17,5.11,17.27,1.19,3.05,2.57,6.18,4.34,9.24,1.77,3.04,3.85,6.12,6.71,8.59,2.87,2.45,6.42,4.45,10.13,6.28,3.7,1.88,7.68,3.51,11.79,5.09,8.24,3.12,17.16,5.81,26.62,7.92,9.46,2.06,19.5,3.58,29.9,3.61,2.6.11,5.2-.22,7.83-.34,2.59-.4,5.24-.62,7.81-1.31,5.2-1.11,10.3-2.93,15.05-5.49,9.59-5,17.72-12.77,23.88-21.9,6.25-9.12,10.82-19.46,14.19-30.27,2.61-8.3,4.54-16.7,5.79-25.05,1.27-8.34,1.89-16.68,1.31-24.77-.33-4.08-1.14-7.9-2.6-11.69-1.35-3.83-2.69-7.61-4.02-11.36-2.66-7.49-5.27-14.82-7.81-21.97-5.16-14.28-10.25-27.78-15.35-40.3-5.19-12.45-10.04-24.16-16.11-33.94-2.96-4.92-7.02-8.77-11.31-11.89-4.21-3.21-8.59-5.77-12.74-8.03-8.36-4.46-15.96-7.63-22.2-10.09-6.26-2.44-11.21-4.14-14.58-5.26-1.61-.53-2.88-.95-3.83-1.27-.86-.29-1.3-.44-1.29-.47,0-.03.47.07,1.35.3.97.27,2.26.64,3.9,1.1,3.41,1.01,8.41,2.61,14.73,4.96,6.31,2.37,13.98,5.45,22.45,9.86,4.21,2.23,8.65,4.78,12.97,8.01,4.37,3.11,8.64,7.12,11.71,12.13,6.25,9.91,11.15,21.59,16.43,34.06,5.17,12.52,10.33,26.03,15.53,40.3,2.57,7.15,5.19,14.48,7.88,21.96,1.33,3.74,2.68,7.52,4.04,11.34,1.48,3.79,2.39,8,2.72,12.11.61,8.3-.02,16.72-1.29,25.16-1.26,8.44-3.19,16.91-5.84,25.31-3.41,10.93-8.04,21.43-14.43,30.72-6.29,9.31-14.66,17.3-24.56,22.45-4.91,2.63-10.18,4.5-15.53,5.63-2.65.7-5.37.93-8.04,1.33-2.69.12-5.37.45-8.01.33-10.6-.06-20.74-1.64-30.28-3.75-9.53-2.16-18.5-4.91-26.81-8.1-4.14-1.62-8.15-3.28-11.9-5.21-3.76-1.89-7.35-3.92-10.39-6.54-3.02-2.64-5.12-5.84-6.91-8.96-1.78-3.14-3.14-6.33-4.32-9.42-2.34-6.2-3.91-12.08-4.98-17.49l-.09-.46.5-.08c12.79-2.05,22.62-4.42,29.26-6.13,3.24-.87,5.75-1.54,7.55-2.02.79-.21,1.42-.38,1.93-.52.43-.11.66-.16.67-.14Z"/>
    </g>
    <path class="st0" d="M609.66,605.56c-.37.08-1.51-5.8-5.72-14.47-4.11-8.66-11.49-20.1-22.61-30.16-5.53-5.05-11.68-8.89-17.57-11.75-1.51-.63-2.99-1.26-4.43-1.86-1.43-.62-2.95-.88-4.34-1.33-2.79-.96-5.54-1.19-8.02-1.56-.62-.09-1.23-.18-1.82-.26-.59,0-1.18,0-1.74,0-1.12,0-2.18,0-3.2,0-2.02-.12-3.71.23-5.11.42-2.8.38-4.38.54-4.41.42-.03-.12,1.48-.5,4.29-1.11,1.4-.3,3.12-.75,5.18-.73,1.04-.04,2.14-.09,3.28-.14.59-.02,1.19-.04,1.8-.07.61.07,1.24.13,1.88.2,2.56.29,5.42.47,8.32,1.39,1.45.42,3.03.67,4.51,1.28,1.5.6,3.03,1.22,4.6,1.85,6.11,2.86,12.46,6.78,18.11,11.94,11.36,10.28,18.68,22.03,22.53,30.94.99,2.23,1.84,4.26,2.39,6.11.59,1.83,1.17,3.39,1.4,4.73.58,2.64.83,4.11.71,4.13Z"/>
    <path class="st0" d="M637,563.32c-.41.15-1.77-6.05-7.55-14.34-5.66-8.15-16.49-18.37-31.93-22.71-15.38-4.4-30.31-3.04-40.74-2.1-4.96.56-9.13,1.03-12.46,1.4-2.95.34-4.58.48-4.6.36-.02-.12,1.58-.49,4.49-1.04,2.91-.54,7.14-1.27,12.41-1.97,10.43-1.25,25.58-2.88,41.46,1.65,7.87,2.25,14.79,6.04,20.2,10.37,5.47,4.29,9.46,9.1,12.29,13.36,2.83,4.29,4.44,8.11,5.34,10.78.92,2.67,1.18,4.21,1.08,4.23Z"/>
    <path class="st0" d="M599.22,512.79c-.13.58-13.19-3.37-29.78-2.68-16.6.53-29.29,5.44-29.47,4.87-.08-.19,2.95-1.66,8.2-3.23,5.24-1.58,12.76-3.09,21.19-3.41,8.43-.3,16.05.65,21.4,1.84,5.37,1.18,8.52,2.42,8.45,2.62Z"/>
    <path class="st0" d="M518.16,444.25c.3.05-.42,4.8-1.01,12.52-.59,7.71-.86,18.41.27,30.15,1.03,11.29,3.2,21.41,5.12,28.77l-1.31.39c-1.49-3.95-2.66-7.15-3.42-9.38-.77-2.23-1.13-3.49-1-3.53.13-.05.73,1.13,1.72,3.28.99,2.15,2.35,5.29,4,9.18l-1.31.4c-2.25-7.34-4.64-17.54-5.68-28.94-1.14-11.86-.65-22.68.28-30.42.46-3.87.99-6.98,1.44-9.12.46-2.14.77-3.3.9-3.28Z"/>
    <g>
      <path class="st4" d="M447.33,356.62s-26.01,0-29.27,29.36c-2.5,22.54,0,44.42,0,54.3s-4.63,44.97-4.63,44.97c0,0-17.74,14.79-17.44,32.55.3,17.85,13.81,23.31,13.81,23.31,0,0-8.26,16.92,7.5,32.44,0,0-7.56,16.37-1.34,27.4,4.81,8.54,15.6,11.38,15.6,11.38,0,0-7.69,16.14,10.76,22.92,10.91,4.01,27.03,3.12,27.03,3.12l19.4-.35,17.1,8.87s29.27-11.99,30.02-28.21l.75-16.22s-8.25-26.8-9.01-35.26c-.75-8.46,6.75-28.91,2.25-38.08-4.5-9.17-20.26-14.56-18.76-27.37,1.5-12.82-1.5-19.87-8.26-26.92-6.75-7.05-36.6-21.15-36.6-21.15,0,0-7.67-20.45-7.67-34.55s15.01-57.12-11.26-62.51Z"/>
      <path class="st5" d="M464.85,459.02c.13.21-2.63,1.87-7.2,4.39-4.57,2.51-10.95,5.88-18.05,9.5-7.1,3.62-13.58,6.82-18.32,9.05-4.74,2.23-7.73,3.51-7.85,3.29s2.64-1.88,7.21-4.39c4.57-2.51,10.94-5.88,18.04-9.5,7.1-3.62,13.57-6.81,18.31-9.04,4.74-2.23,7.73-3.51,7.86-3.29Z"/>
      <path class="st5" d="M481.92,514.23c.08.1-.73.77-2.27,1.91-1.53,1.15-3.84,2.69-6.77,4.47-5.86,3.58-14.39,7.96-24.37,11.56-9.99,3.58-19.46,5.68-26.36,6.69-3.45.51-6.26.82-8.22.92-1.95.12-3.03.13-3.05,0-.03-.28,4.23-.83,11.02-2.16,6.78-1.32,16.06-3.58,25.93-7.12,9.85-3.56,18.36-7.7,24.35-10.97,5.99-3.27,9.56-5.54,9.74-5.31Z"/>
      <path class="st5" d="M504.24,496.67c.47.15-.5,3.29-3.58,5.91-3.06,2.64-6.48,3.26-6.59,2.8-.18-.49,2.6-1.76,5.32-4.12,2.76-2.32,4.36-4.81,4.86-4.59Z"/>
      <path class="st5" d="M493.54,562.6c.08.21-4.03,1.78-10.88,3.74-6.84,1.97-16.46,4.23-27.26,5.87-10.8,1.63-20.69,2.31-27.85,2.46-7.16.15-11.58-.12-11.58-.34,0-.27,4.41-.44,11.52-.91,7.1-.47,16.89-1.35,27.61-2.96,10.71-1.63,20.3-3.68,27.2-5.33,6.9-1.64,11.15-2.78,11.24-2.53Z"/>
      <path class="st5" d="M517.29,558.53c-.26-.15.88-2.01,2-5.23,1.12-3.2,2.07-7.86,1.42-12.95-.65-5.09-2.73-9.41-4.63-12.27-1.89-2.88-3.46-4.44-3.25-4.64.14-.16,2.09,1.1,4.36,3.93,2.27,2.8,4.71,7.33,5.4,12.77.69,5.44-.54,10.38-2.05,13.6-1.5,3.26-3.07,4.91-3.25,4.79Z"/>
      <path class="st5" d="M494.88,612.04c.05.22-3.45,1.14-9.24,2.05-5.78.91-13.88,1.69-22.85,1.68-8.97-.03-17.06-.86-22.84-1.8-5.78-.94-9.28-1.88-9.23-2.1.06-.26,3.63.24,9.42.85,5.78.61,13.79,1.23,22.66,1.26,8.87.02,16.88-.56,22.67-1.14,5.79-.58,9.37-1.07,9.42-.8Z"/>
      <path class="st5" d="M448.73,419.53c.11.19-1.18,1.11-3.61,1.92-2.41.82-6.02,1.39-9.96.96-3.94-.45-7.3-1.8-9.44-3.13-2.16-1.33-3.18-2.5-3.03-2.66.33-.44,5.27,3.27,12.69,4.03,7.4.9,13.14-1.62,13.34-1.12Z"/>
      <path class="st5" d="M522.69,560.6c.11-.01.33.92.42,2.64.05,1.72-.18,4.22-.9,7.2-.7,2.99-1.9,6.44-3.05,10.25-1.09,3.79-2.15,8.09-1.36,12.44.62,4.32,4.07,7.83,4.61,12.22.61,4.32-1.2,7.97-2.86,10.57-1.73,2.63-3.47,4.5-4.69,5.75-1.24,1.24-1.99,1.86-2.09,1.79-.29-.21,2.5-3,5.62-8.16,1.46-2.57,2.93-5.98,2.29-9.71-.44-3.71-3.92-7.21-4.75-12.15-.87-4.84.36-9.36,1.55-13.2,1.26-3.86,2.58-7.22,3.42-10.1,1.82-5.76,1.46-9.51,1.78-9.53Z"/>
    </g>
    <path class="st0" d="M532.46,582.06c.12-.03.57,1.11,1.22,3.21.65,2.1,1.52,5.16,2.35,9,.8,3.84,1.6,8.48,1.74,13.71.11,5.19-.43,11.14-3.29,16.73-2.93,5.51-7.14,9.82-11.17,13.37-4.09,3.53-8.1,6.31-11.55,8.52-3.45,2.2-6.34,3.84-8.37,4.9-2.03,1.07-3.2,1.59-3.26,1.49-.16-.24,4.2-2.81,10.85-7.42,3.31-2.32,7.19-5.17,11.13-8.68,3.88-3.54,7.91-7.77,10.67-12.96,2.66-5.21,3.26-10.88,3.25-15.94-.03-5.09-.69-9.68-1.31-13.51-1.34-7.66-2.55-12.37-2.25-12.43Z"/>
  </g>
  <path class="st0" d="M258.17,468.37c-.09.09-1.58-.96-4.21-2.96-2.88-2.24-6.58-5.11-11.01-8.56-2.33-1.85-4.86-3.85-7.55-5.98-1.35-1.07-2.72-2.17-4.29-2.89-1.55-.72-3.31-.91-4.87-.16-3.14,1.54-5.23,5.33-7.91,8.46-2.59,3.28-5.27,6.67-8.01,10.14-4.4,5.52-8.62,10.84-12.52,15.73l-2.35,2.95.75-3.61c2.55-12.36,6.11-22.67,9.05-29.8,1.46-3.57,2.75-6.35,3.69-8.24.94-1.88,1.52-2.87,1.61-2.84.1.04-.29,1.11-1.06,3.05-.76,1.95-1.88,4.78-3.19,8.38-2.62,7.19-5.92,17.48-8.33,29.75l-1.6-.66c3.87-4.91,8.07-10.24,12.44-15.79,2.75-3.47,5.44-6.85,8.04-10.12,1.3-1.63,2.59-3.24,3.85-4.81,1.3-1.57,2.75-3.16,4.8-4.09,2.06-.99,4.58-.66,6.35.24,1.82.88,3.24,2.08,4.58,3.18,2.64,2.19,5.11,4.24,7.39,6.14,4.28,3.62,7.85,6.64,10.62,8.99,2.48,2.15,3.81,3.39,3.73,3.48Z"/>
  <path class="st0" d="M411.67,439.48s-.45.46-1.42,1.19c-1.15.84-2.57,1.88-4.29,3.15-4,2.83-9.41,6.65-16.01,11.32-13.85,9.58-32.63,22.57-53.48,36.99l-.81.56-.54-.8c-.42-.62-.87-1.28-1.32-1.95-9.85-14.61-19.06-28.26-26.84-39.81l.98.3c-12.84,4.8-22.92,10.05-29.79,13.96-3.44,1.96-6.09,3.58-7.9,4.67-1.8,1.11-2.78,1.68-2.83,1.61-.05-.06.83-.76,2.55-1.99,1.72-1.22,4.3-2.96,7.68-5.04,6.76-4.15,16.8-9.64,29.69-14.62l.62-.24.36.53c7.85,11.51,17.14,25.11,27.08,39.67.45.67.91,1.34,1.32,1.95l-1.35-.24c20.98-14.25,39.89-27.09,53.82-36.56,6.75-4.48,12.28-8.16,16.37-10.87,1.81-1.16,3.3-2.11,4.5-2.88,1.04-.64,1.6-.96,1.64-.91Z"/>
  <path class="st0" d="M85.42,575.32c.07,0,.13.83.2,2.41.05,1.76.12,4.05.2,6.91.12,6.21.3,14.84.51,25.42.43,21.47,1.35,51.11,2.53,83.85,1.18,32.75,1.89,62.43,1.98,83.91.04,10.74.02,19.43-.1,25.43-.06,2.86-.12,5.16-.15,6.91-.06,1.58-.12,2.41-.18,2.41s-.13-.83-.2-2.41c-.05-1.76-.12-4.05-.2-6.91-.12-6.21-.3-14.84-.51-25.42-.43-21.47-1.35-51.11-2.53-83.86-1.18-32.74-1.88-62.41-1.98-83.89-.04-10.74-.02-19.43.1-25.44.06-2.86.12-5.16.16-6.92.06-1.58.12-2.41.18-2.41Z"/>
  <path class="st0" d="M259.37,883.85s-.09-.33-.18-.98c-.09-.75-.21-1.71-.35-2.9-.28-2.68-.67-6.42-1.16-11.17-1.01-9.7-2.17-23.77-3.33-41.16-1.19-17.4-2.16-38.13-2.79-61.18-.53-23.04-.67-48.39-.09-74.98.65-26.6,1.96-51.92,3.55-74.92,1.69-23,3.62-43.68,5.61-61.01,1.96-17.33,3.77-31.34,5.23-40.99.71-4.73,1.28-8.44,1.68-11.11.2-1.19.36-2.13.48-2.88.12-.65.2-.98.23-.97.03,0,.02.34-.04,1-.08.75-.18,1.71-.3,2.91-.32,2.68-.76,6.41-1.33,11.15-1.23,9.67-2.84,23.69-4.63,41.03-1.82,17.33-3.61,38.01-5.2,60.99-1.5,22.99-2.75,48.28-3.4,74.86-.58,26.57-.5,51.88-.06,74.91.53,23.02,1.36,43.75,2.38,61.14.99,17.39,1.95,31.46,2.73,41.18.34,4.76.62,8.51.81,11.2.07,1.2.12,2.16.16,2.92.03.66.02,1,0,1Z"/>
</svg>