<?xml version="1.0" encoding="UTF-8"?>
<svg xmlns="http://www.w3.org/2000/svg" version="1.1" xmlns:xlink="http://www.w3.org/1999/xlink" viewBox="0 0 900 387.76">
  <!-- Generator: Adobe Illustrator 30.2.1, SVG Export Plug-In . SVG Version: 2.1.1 Build 1)  -->
  <defs>
    <style>
      .st0 {
        stroke-width: .07px;
      }

      .st0, .st1, .st2, .st3, .st4, .st5 {
        fill: none;
      }

      .st0, .st1, .st3, .st4, .st5 {
        stroke-miterlimit: 10;
      }

      .st0, .st5 {
        stroke: #974782;
      }

      .st6 {
        fill: #2bd6c0;
      }

      .st6, .st7, .st8, .st9, .st10 {
        mix-blend-mode: multiply;
      }

      .st11 {
        fill: #128af4;
      }

      .st12 {
        filter: url(#drop-shadow-2);
      }

      .st7 {
        fill: #fd8e92;
      }

      .st13 {
        fill: #9c5088;
      }

      .st14 {
        fill: #37bffa;
      }

      .st1 {
        stroke: #fd9094;
        stroke-width: .07px;
      }

      .st15 {
        fill: #263238;
      }

      .st8 {
        fill: url(#linear-gradient1);
      }

      .st16 {
        fill: #19d3bb;
      }

      .st17 {
        fill: #fbb842;
      }

      .st18 {
        fill: #fa494d;
      }

      .st19 {
        fill: #a35c90;
      }

      .st20 {
        filter: url(#drop-shadow-5);
      }

      .st21, .st22 {
        fill: #fff;
      }

      .st23 {
        fill: #fc888d;
      }

      .st24 {
        fill: #3ec1fa;
      }

      .st25, .st26 {
        fill: #e0e0e0;
      }

      .st27 {
        fill: #a0578d;
      }

      .st28 {
        fill: #ac0340;
      }

      .st29 {
        fill: #f96631;
      }

      .st30 {
        filter: url(#drop-shadow-4);
      }

      .st9 {
        fill: #2dd7c1;
      }

      .st31 {
        fill: #9a4d86;
      }

      .st32 {
        fill: #1fac8a;
      }

      .st33 {
        fill: #e0e0e0;
      }

      .st22 {
        font-size: 12.29px;
      }

      .st34 {
        filter: url(#drop-shadow-1);
      }

      .st35 {
        isolation: isolate;
      }

      .st3, .st4 {
        stroke: #95999f;
        stroke-width: .82px;
      }

      .st36 {
        fill: #a0568c;
      }

      .st37 {
        fill: #f88b26;
      }

      .st38 {
        fill: #373737;
      }

      .st39 {
        fill: #fc7a80;
      }

      .st40 {
        fill: #13d2b9;
      }

      .st41 {
        font-family: Manrope-Medium, Manrope;
        font-weight: 500;
      }

      .st42 {
        fill: #40c2fa;
      }

      .st43 {
        fill: #9e538a;
      }

      .st44 {
        fill: #fcbb4b;
      }

      .st45 {
        fill: #fa4e52;
      }

      .st46 {
        fill: #fcbc4d;
      }

      .st26 {
        fill-rule: evenodd;
      }

      .st4 {
        stroke-dasharray: 6.97 6.97;
      }

      .st47 {
        fill: #3d5593;
      }

      .st48 {
        filter: url(#drop-shadow-3);
      }

      .st49 {
        fill: #ccc;
      }

      .st50 {
        fill: #b3b3b3;
      }

      .st51 {
        fill: #2fbdfa;
      }

      .st52 {
        font-family: Manrope-SemiBold, Manrope;
        font-weight: 600;
      }

      .st53 {
        fill: #9f558c;
      }

      .st10 {
        fill: #28d6bf;
      }

      .st54 {
        fill: #2191f4;
      }

      .st55 {
        fill: url(#linear-gradient);
      }

      .st5 {
        stroke-width: .03px;
      }
    </style>
    <filter id="drop-shadow-1" x="406.7" y="16.08" width="82" height="81" filterUnits="userSpaceOnUse">
      <feOffset dx="2.36" dy="2.36"/>
      <feGaussianBlur result="blur" stdDeviation="1.77"/>
      <feFlood flood-color="#757575" flood-opacity=".65"/>
      <feComposite in2="blur" operator="in"/>
      <feComposite in="SourceGraphic"/>
    </filter>
    <filter id="drop-shadow-2" x="503.7" y="26.08" width="100" height="100" filterUnits="userSpaceOnUse">
      <feOffset dx="2.36" dy="2.36"/>
      <feGaussianBlur result="blur1" stdDeviation="1.77"/>
      <feFlood flood-color="#757575" flood-opacity=".65"/>
      <feComposite in2="blur1" operator="in"/>
      <feComposite in="SourceGraphic"/>
    </filter>
    <filter id="drop-shadow-3" x="295.7" y="25.08" width="98" height="99" filterUnits="userSpaceOnUse">
      <feOffset dx="2.36" dy="2.36"/>
      <feGaussianBlur result="blur2" stdDeviation="1.77"/>
      <feFlood flood-color="#757575" flood-opacity=".65"/>
      <feComposite in2="blur2" operator="in"/>
      <feComposite in="SourceGraphic"/>
    </filter>
    <filter id="drop-shadow-4" x="198.7" y="68.08" width="105" height="105" filterUnits="userSpaceOnUse">
      <feOffset dx="2.36" dy="2.36"/>
      <feGaussianBlur result="blur3" stdDeviation="1.77"/>
      <feFlood flood-color="#757575" flood-opacity=".65"/>
      <feComposite in2="blur3" operator="in"/>
      <feComposite in="SourceGraphic"/>
    </filter>
    <filter id="drop-shadow-5" x="589.7" y="73.08" width="102" height="103" filterUnits="userSpaceOnUse">
      <feOffset dx="2.36" dy="2.36"/>
      <feGaussianBlur result="blur4" stdDeviation="1.77"/>
      <feFlood flood-color="#757575" flood-opacity=".65"/>
      <feComposite in2="blur4" operator="in"/>
      <feComposite in="SourceGraphic"/>
    </filter>
    <linearGradient id="linear-gradient" x1="1130.85" y1="1288.84" x2="1172.51" y2="1288.84" gradientTransform="translate(383.69 -1587.51) rotate(33.33)" gradientUnits="userSpaceOnUse">
      <stop offset="0" stop-color="#f88c29"/>
      <stop offset="1" stop-color="#f85d25"/>
    </linearGradient>
    <linearGradient id="linear-gradient1" x1="1152.82" y1="1309.66" x2="1152.82" y2="1272.86" gradientTransform="translate(383.69 -1587.51) rotate(33.33)" gradientUnits="userSpaceOnUse">
      <stop offset="0" stop-color="#f96631"/>
      <stop offset="1" stop-color="#f85d25"/>
    </linearGradient>
  </defs>
  <g class="st35">
    <g id="Capa_1">
      <g>
        <g>
          <g>
            <path class="st2" d="M769.41,367.34c-1.36-.89-2.58-1.94-3.63-3.13l-4.31,1.08-3.31-6.57,3.43-2.83c-.33-1.55-.45-3.16-.36-4.78l-3.81-2.29,2.3-6.98,4.42.42c.89-1.36,1.94-2.58,3.13-3.63l-1.08-4.31,6.56-3.31,2.83,3.43c1.55-.33,3.16-.45,4.78-.36l2.29-3.81,6.98,2.3-.42,4.42c1.36.89,2.58,1.94,3.63,3.13l4.31-1.08,3.31,6.57-3.43,2.83c.33,1.55.45,3.16.36,4.78l3.81,2.29-2.3,6.98-4.42-.42c-.89,1.36-1.94,2.58-3.13,3.63l1.08,4.31-6.56,3.31-2.83-3.43c-1.55.33-3.16.45-4.78.36l-2.29,3.81-6.98-2.3.42-4.42h0ZM776.53,359.55c4.14,1.36,8.6-.88,9.96-5.02,1.36-4.14-.89-8.6-5.02-9.96-4.14-1.36-8.6.89-9.96,5.02-1.36,4.14.89,8.6,5.02,9.96Z"/>
            <path class="st25" d="M776.53,359.55s-.7-.12-1.8-.76c-1.07-.63-2.55-1.93-3.33-4.11-.38-1.07-.58-2.35-.4-3.69.19-1.33.69-2.74,1.64-3.93.46-.61,1.03-1.15,1.68-1.61.64-.47,1.38-.84,2.17-1.1,1.57-.54,3.37-.54,5.05,0,1.67.56,3.11,1.64,4.06,3,.49.67.85,1.41,1.09,2.17.25.76.39,1.53.4,2.29.06,1.53-.38,2.96-1.02,4.14-.65,1.19-1.57,2.09-2.52,2.73-1.92,1.28-3.88,1.45-5.12,1.32-1.26-.13-1.9-.46-1.9-.46.01-.05.67.2,1.91.28,1.22.07,3.11-.14,4.93-1.41.89-.63,1.76-1.51,2.37-2.65.6-1.13,1-2.5.93-3.94-.01-.72-.15-1.46-.39-2.17-.23-.72-.58-1.42-1.04-2.05-.9-1.29-2.26-2.3-3.84-2.83-1.58-.51-3.28-.51-4.77,0-.75.23-1.44.59-2.06,1.03-.62.43-1.16.94-1.6,1.51-.92,1.12-1.4,2.46-1.6,3.72-.19,1.28-.01,2.5.33,3.54.71,2.1,2.1,3.4,3.12,4.06,1.04.68,1.73.86,1.7.91Z"/>
            <path class="st25" d="M769.41,367.34s0,.09,0,.28c-.02.21-.04.48-.06.84-.06.77-.16,1.88-.28,3.31l-.05-.08c1.79.58,4.15,1.34,7,2.26l-.13.05c.69-1.16,1.45-2.44,2.27-3.82l.04-.07h.08c1.49.09,3.1-.01,4.74-.37l.09-.02.06.07c.88,1.07,1.84,2.22,2.84,3.42l-.2-.04c2.06-1.05,4.26-2.16,6.56-3.33l-.09.2c-.34-1.33-.7-2.8-1.08-4.31l-.03-.11.08-.08c1.1-.98,2.19-2.2,3.09-3.6l.06-.1h.12c1.37.14,2.88.28,4.42.43l-.21.14c.72-2.19,1.5-4.56,2.29-6.99l.09.25c-1.19-.71-2.49-1.49-3.81-2.28l-.11-.07v-.13c.09-1.48,0-3.11-.35-4.72l-.03-.13.1-.08c1.07-.89,2.24-1.85,3.43-2.83l-.06.27c-1.05-2.08-2.17-4.31-3.31-6.56l.26.12c-1.36.34-2.83.71-4.31,1.08l-.13.03-.09-.1c-1-1.13-2.22-2.2-3.58-3.09h0s0,0,0,0c-.05-.09.1.21-.1-.21h0s0-.01,0-.01v-.02s0-.03,0-.03v-.07s.02-.14.02-.14l.03-.28.05-.56.11-1.11c.07-.74.14-1.47.21-2.2l.15.24c-2.36-.78-4.69-1.55-6.98-2.3l.26-.1c-.77,1.28-1.53,2.55-2.29,3.81l-.07.12h-.13c-1.6-.1-3.19.02-4.72.34l-.13.03-.08-.1c-.96-1.16-1.9-2.3-2.83-3.43l.26.06c-2.24,1.13-4.43,2.23-6.57,3.3l.11-.24c.36,1.46.72,2.9,1.07,4.31l.03.12-.09.08c-1.21,1.07-2.25,2.29-3.1,3.59l-.07.1h-.12c-1.52-.16-2.99-.3-4.42-.44l.2-.13c-.81,2.45-1.58,4.77-2.32,6.98l-.08-.2c1.34.81,2.59,1.57,3.8,2.3l.08.05v.1c-.11,1.69.03,3.27.34,4.74l.02.09-.07.06c-1.25,1.02-2.37,1.95-3.44,2.82l.03-.16c1.27,2.55,2.35,4.72,3.28,6.58l-.12-.05c1.73-.42,3.14-.76,4.32-1.05h.04s.03.02.03.02c1.07,1.21,2,1.98,2.63,2.47.31.23.54.4.72.53.17.12.24.18.24.18,0,0-.09-.05-.26-.15-.17-.11-.42-.27-.74-.5-.64-.47-1.6-1.22-2.69-2.43l.07.02c-1.17.3-2.59.66-4.3,1.1l-.08.02-.04-.07c-.94-1.85-2.05-4.01-3.34-6.55l-.05-.09.08-.07c1.06-.88,2.18-1.81,3.42-2.84l-.05.15c-.32-1.49-.47-3.1-.37-4.82l.08.15c-1.21-.73-2.47-1.48-3.81-2.28l-.12-.07.04-.13c.72-2.21,1.48-4.53,2.29-6.99l.05-.14h.15c1.44.15,2.91.29,4.42.43l-.18.09c.86-1.33,1.92-2.57,3.16-3.68l-.06.2c-.35-1.41-.71-2.85-1.08-4.31l-.04-.16.15-.08c2.13-1.08,4.32-2.18,6.56-3.32l.15-.08.11.13c.93,1.13,1.87,2.27,2.83,3.43l-.21-.07c1.57-.33,3.2-.46,4.84-.36l-.2.11c.75-1.26,1.52-2.53,2.29-3.81l.09-.15.17.06c2.3.76,4.62,1.52,6.98,2.3l.17.06-.02.18c-.07.73-.14,1.47-.21,2.2l-.11,1.11-.05.56-.03.28v.14s-.02.07-.02.07v.03s0,.02,0,.02h0s0,.01,0,.01c-.2-.42-.06-.12-.1-.21h0s0,0,0,0c1.4.91,2.65,2.01,3.67,3.17l-.22-.07c1.48-.37,2.95-.73,4.31-1.07l.17-.04.08.16c1.14,2.26,2.26,4.49,3.31,6.57l.08.16-.14.11c-1.18.98-2.36,1.94-3.43,2.83l.07-.21c.35,1.65.45,3.32.36,4.84l-.1-.2c1.32.79,2.62,1.58,3.8,2.29l.14.09-.05.16c-.8,2.42-1.58,4.79-2.31,6.98l-.05.15-.16-.02c-1.54-.15-3.05-.3-4.42-.43l.18-.09c-.93,1.42-2.04,2.67-3.17,3.66l.06-.19c.37,1.51.74,2.98,1.07,4.31l.03.14-.13.06c-2.31,1.16-4.5,2.26-6.57,3.3l-.12.06-.08-.1c-.99-1.21-1.94-2.37-2.82-3.44l.15.05c-1.67.35-3.31.44-4.82.34l.12-.06c-.83,1.37-1.61,2.65-2.3,3.8l-.05.08-.09-.03c-2.84-.95-5.19-1.74-6.97-2.34l-.06-.02v-.06c.16-1.42.28-2.52.36-3.28.04-.36.07-.64.1-.85.02-.19.04-.29.04-.29Z"/>
          </g>
          <path class="st26" d="M826.07,315.95c-1.92-1.25-3.64-2.75-5.13-4.42l-6.1,1.52-4.68-9.28,4.85-4c-.46-2.19-.64-4.47-.51-6.76l-5.38-3.24,3.25-9.87,6.25.6c1.25-1.92,2.75-3.64,4.43-5.13l-1.52-6.1,9.28-4.68,4,4.85c2.19-.46,4.47-.64,6.76-.5l3.23-5.38,9.87,3.25-.6,6.25c1.92,1.25,3.64,2.75,5.13,4.43l6.1-1.52,4.68,9.28-4.85,4c.46,2.19.64,4.47.51,6.76l5.38,3.24-3.25,9.87-6.25-.6c-1.25,1.92-2.75,3.64-4.43,5.13l1.52,6.1-9.28,4.68-4-4.85c-2.19.46-4.47.64-6.76.51l-3.23,5.38-9.87-3.25.6-6.25h0ZM836.13,304.94c5.85,1.93,12.15-1.25,14.08-7.1,1.93-5.85-1.25-12.15-7.1-14.08-5.85-1.93-12.15,1.25-14.08,7.1-1.93,5.85,1.25,12.15,7.1,14.08Z"/>
          <path class="st26" d="M815.08,364.72c-1.06-.69-2.02-1.52-2.84-2.45l-3.38.84-2.59-5.14,2.68-2.21c-.26-1.22-.36-2.47-.28-3.74l-2.98-1.79,1.8-5.47,3.46.33c.69-1.07,1.52-2.02,2.45-2.84l-.84-3.38,5.14-2.59,2.21,2.68c1.22-.26,2.47-.35,3.74-.28l1.79-2.98,5.47,1.8-.33,3.46c1.07.69,2.02,1.52,2.84,2.45l3.38-.84,2.59,5.14-2.68,2.21c.26,1.22.35,2.47.28,3.74l2.98,1.79-1.8,5.47-3.46-.33c-.69,1.07-1.52,2.02-2.45,2.84l.84,3.38-5.14,2.59-2.21-2.68c-1.22.26-2.47.35-3.74.28l-1.79,2.98-5.47-1.8.33-3.46h0ZM820.65,358.63c3.24,1.07,6.73-.69,7.8-3.93,1.07-3.24-.69-6.73-3.93-7.8-3.24-1.07-6.73.69-7.8,3.93-1.07,3.24.69,6.73,3.93,7.8Z"/>
        </g>
        <g>
          <g>
            <path class="st2" d="M134.13,116.17c1.31.95,2.48,2.07,3.47,3.31l4.36-.86,2.98,6.72-3.56,2.66c.25,1.57.3,3.18.12,4.79l3.69,2.47-2.64,6.86-4.4-.64c-.95,1.32-2.07,2.48-3.31,3.47l.86,4.36-6.72,2.98-2.66-3.56c-1.57.25-3.18.3-4.79.12l-2.47,3.69-6.86-2.64.64-4.4c-1.32-.95-2.48-2.07-3.47-3.31l-4.36.86-2.98-6.72,3.56-2.66c-.25-1.57-.3-3.18-.12-4.79l-3.69-2.47,2.64-6.86,4.4.64c.95-1.32,2.07-2.48,3.31-3.47l-.86-4.36,6.72-2.98,2.66,3.56c1.57-.25,3.18-.3,4.79-.12l2.47-3.69,6.86,2.64-.64,4.4h0ZM126.63,123.6c-4.06-1.57-8.63.46-10.2,4.52-1.57,4.06.46,8.63,4.52,10.2,4.07,1.57,8.63-.46,10.2-4.52,1.57-4.07-.46-8.63-4.52-10.2Z"/>
            <path class="st25" d="M126.63,123.6s.7.15,1.76.85c1.04.69,2.45,2.06,3.12,4.27.32,1.09.47,2.38.22,3.71-.25,1.32-.82,2.7-1.83,3.85-.49.58-1.09,1.1-1.76,1.52-.67.44-1.42.78-2.22.99-1.6.46-3.39.37-5.04-.25-1.64-.65-3.03-1.79-3.9-3.2-.45-.69-.78-1.45-.98-2.22-.21-.77-.31-1.55-.28-2.31.02-1.53.52-2.94,1.22-4.08.71-1.15,1.68-2.01,2.65-2.6,1.98-1.19,3.95-1.25,5.18-1.07,1.26.2,1.87.55,1.87.55-.02.05-.66-.24-1.9-.37-1.21-.13-3.11-.01-4.99,1.16-.92.59-1.83,1.42-2.5,2.53-.65,1.1-1.12,2.45-1.12,3.89-.02.72.08,1.46.28,2.19.19.73.51,1.44.94,2.1.83,1.33,2.15,2.41,3.69,3.02,1.56.58,3.25.67,4.76.24.76-.2,1.47-.51,2.1-.92.64-.4,1.21-.88,1.68-1.43.97-1.07,1.52-2.39,1.78-3.64.25-1.26.14-2.49-.16-3.55-.6-2.13-1.93-3.5-2.92-4.21-1.01-.73-1.68-.94-1.66-.99Z"/>
            <path class="st25" d="M134.13,116.17s0-.09.02-.28c.03-.2.06-.48.1-.83.1-.76.25-1.87.44-3.3l.05.08c-1.76-.67-4.08-1.54-6.88-2.6l.14-.04c-.74,1.12-1.57,2.37-2.46,3.7l-.04.07h-.08c-1.49-.16-3.09-.14-4.75.13h-.09s-.05-.06-.05-.06c-.83-1.11-1.73-2.31-2.67-3.56l.19.05c-2.11.94-4.36,1.95-6.71,3l.1-.2c.27,1.35.57,2.84.87,4.36l.02.11-.09.07c-1.15.92-2.29,2.09-3.26,3.44l-.07.1-.12-.02c-1.36-.2-2.87-.41-4.4-.64l.22-.13c-.83,2.16-1.72,4.48-2.64,6.86l-.08-.25c1.15.77,2.41,1.61,3.69,2.47l.11.07v.13c-.17,1.48-.15,3.11.11,4.73l.02.13-.11.08c-1.12.83-2.33,1.74-3.56,2.66l.07-.27c.94,2.13,1.96,4.41,2.98,6.72l-.25-.13c1.38-.27,2.86-.57,4.36-.86l.13-.03.09.11c.94,1.17,2.11,2.31,3.42,3.26h0s0,0,0,0c.04.1-.09-.22.09.22h0s0,.01,0,.01v.02s0,.03,0,.03v.07s-.03.14-.03.14l-.04.28-.08.55-.16,1.1c-.11.73-.21,1.46-.32,2.19l-.14-.24c2.32.89,4.61,1.78,6.86,2.65l-.27.08c.83-1.24,1.66-2.47,2.47-3.69l.08-.11h.13c1.59.19,3.19.14,4.73-.1l.13-.02.08.11c.9,1.21,1.78,2.39,2.65,3.57l-.26-.07c2.3-1.02,4.54-2.01,6.72-2.97l-.12.23c-.29-1.48-.57-2.93-.85-4.36l-.02-.12.1-.08c1.26-1.01,2.36-2.17,3.27-3.43l.07-.1.12.02c1.51.22,2.97.44,4.39.65l-.2.12c.94-2.41,1.82-4.69,2.66-6.85l.07.21c-1.3-.87-2.51-1.69-3.68-2.48l-.08-.06v-.1c.2-1.69.13-3.27-.1-4.75v-.09s.06-.05.06-.05c1.3-.96,2.47-1.83,3.57-2.64l-.04.16c-1.14-2.61-2.12-4.83-2.95-6.73l.11.06c-1.74.33-3.17.6-4.37.83h-.04s-.03-.03-.03-.03c-1.01-1.26-1.9-2.07-2.5-2.59-.3-.24-.52-.43-.69-.57-.16-.13-.23-.19-.23-.19,0,0,.09.05.25.16.16.11.4.29.71.54.62.5,1.53,1.3,2.57,2.56l-.07-.03c1.19-.24,2.62-.53,4.35-.89l.08-.02.03.07c.85,1.9,1.84,4.11,3.01,6.71l.04.1-.09.06c-1.1.82-2.26,1.7-3.55,2.67l.06-.14c.24,1.5.32,3.12.14,4.83l-.07-.15c1.18.78,2.4,1.6,3.7,2.46l.11.08-.05.13c-.83,2.17-1.71,4.45-2.63,6.87l-.05.14-.15-.02c-1.43-.21-2.89-.42-4.4-.63l.19-.08c-.93,1.28-2.05,2.48-3.34,3.51l.07-.2c.28,1.43.57,2.88.87,4.36l.03.16-.15.07c-2.18.97-4.42,1.97-6.72,2.99l-.16.07-.1-.14c-.87-1.17-1.76-2.36-2.66-3.56l.21.09c-1.58.25-3.22.3-4.85.12l.21-.1c-.82,1.22-1.64,2.45-2.47,3.69l-.1.15-.17-.06c-2.26-.87-4.54-1.75-6.86-2.64l-.17-.06.03-.18c.11-.73.21-1.46.32-2.19l.16-1.1.08-.55.04-.28.02-.14v-.07s.02-.03.02-.03v-.02s0,0,0,0h0c.18.43.05.11.09.21h0s0,0,0,0c-1.35-.98-2.55-2.14-3.51-3.34l.22.08c-1.5.29-2.98.59-4.36.86l-.18.03-.07-.16c-1.02-2.31-2.04-4.59-2.98-6.72l-.07-.16.14-.11c1.23-.92,2.45-1.82,3.57-2.65l-.09.21c-.27-1.66-.29-3.34-.12-4.85l.09.2c-1.28-.86-2.54-1.71-3.69-2.48l-.14-.09.06-.16c.92-2.38,1.82-4.7,2.65-6.86l.06-.15.16.02c1.53.23,3.03.45,4.39.65l-.19.08c1-1.37,2.17-2.56,3.35-3.5l-.07.18c-.3-1.52-.59-3.01-.85-4.36l-.03-.14.13-.06c2.36-1.04,4.61-2.03,6.73-2.97l.12-.05.08.1c.93,1.25,1.82,2.46,2.65,3.57l-.14-.06c1.69-.26,3.32-.27,4.83-.11l-.12.06c.9-1.33,1.73-2.56,2.49-3.68l.05-.08.08.03c2.79,1.09,5.09,2,6.85,2.68l.05.02v.06c-.23,1.41-.4,2.5-.52,3.26-.06.36-.11.63-.14.84-.03.19-.05.29-.06.29Z"/>
          </g>
          <path class="st26" d="M74.99,164.69c1.86,1.35,3.5,2.92,4.91,4.67l6.16-1.22,4.22,9.5-5.04,3.75c.35,2.22.42,4.49.17,6.78l5.22,3.5-3.74,9.7-6.21-.91c-1.35,1.86-2.92,3.5-4.67,4.91l1.22,6.17-9.5,4.22-3.75-5.04c-2.22.35-4.49.42-6.78.17l-3.5,5.22-9.7-3.74.91-6.22c-1.86-1.35-3.5-2.92-4.91-4.67l-6.17,1.22-4.22-9.5,5.04-3.75c-.35-2.22-.42-4.49-.17-6.78l-5.22-3.5,3.74-9.7,6.21.91c1.35-1.86,2.92-3.5,4.67-4.91l-1.22-6.17,9.5-4.22,3.75,5.04c2.22-.35,4.49-.42,6.78-.17l3.5-5.22,9.7,3.74-.91,6.22h0ZM64.4,175.19c-5.75-2.21-12.2.65-14.42,6.4-2.21,5.75.65,12.2,6.4,14.42,5.75,2.21,12.2-.65,14.42-6.4,2.21-5.75-.65-12.2-6.4-14.42Z"/>
          <path class="st26" d="M88.38,116.52c1.03.75,1.94,1.62,2.72,2.59l3.41-.67,2.33,5.26-2.79,2.08c.2,1.23.23,2.49.09,3.75l2.89,1.94-2.07,5.37-3.44-.5c-.75,1.03-1.62,1.94-2.59,2.72l.67,3.41-5.26,2.33-2.08-2.79c-1.23.2-2.49.23-3.75.09l-1.94,2.89-5.37-2.07.5-3.44c-1.03-.75-1.94-1.62-2.72-2.59l-3.41.67-2.33-5.26,2.79-2.08c-.2-1.23-.23-2.49-.09-3.75l-2.89-1.94,2.07-5.37,3.44.5c.75-1.03,1.62-1.94,2.59-2.72l-.67-3.41,5.26-2.33,2.08,2.79c1.23-.2,2.49-.23,3.75-.09l1.94-2.89,5.37,2.07-.5,3.44h0ZM82.52,122.33c-3.18-1.23-6.76.36-7.98,3.54-1.23,3.18.36,6.76,3.54,7.98,3.18,1.23,6.76-.36,7.98-3.54,1.23-3.18-.36-6.76-3.54-7.98Z"/>
        </g>
        <g>
          <g>
            <g>
              <path class="st50" d="M319.41,142.85H81c-4.11,0-7.44,3.33-7.44,7.44v168.4c0,4.11,3.33,7.44,7.44,7.44h91.5s5.82,18-12.22,27.31h85.56s-20.37-6.98-15.13-27.31h88.71c4.11,0,7.44-3.33,7.44-7.44v-168.4c0-4.11-3.33-7.44-7.44-7.44Z"/>
              <path class="st38" d="M203.38,308.42c3.24,4.63-1.83,9.71-6.47,6.47-.15-.11-.29-.25-.4-.4-3.23-4.63,1.84-9.7,6.47-6.47.15.11.29.25.4.4Z"/>
            </g>
            <g>
              <path class="st33" d="M80.86,152.94h238.18c1.06,0,1.93.86,1.93,1.93v139.71c0,1.06-.86,1.93-1.93,1.93H80.86c-1.06,0-1.93-.86-1.93-1.93v-139.71c0-1.06.86-1.93,1.93-1.93Z"/>
              <path class="st33" d="M319.04,296.8H80.86c-1.23,0-2.22-1-2.22-2.22v-139.71c0-1.23,1-2.22,2.22-2.22h238.18c1.23,0,2.22,1,2.22,2.22v139.71c0,1.23-1,2.22-2.22,2.22ZM80.86,153.24c-.9,0-1.63.73-1.63,1.63v139.71c0,.9.73,1.63,1.63,1.63h238.18c.9,0,1.63-.73,1.63-1.63v-139.71c0-.9-.73-1.63-1.63-1.63H80.86Z"/>
            </g>
          </g>
          <path class="st15" d="M230.7,326.29c0,.08-13.09.15-29.24.15s-29.24-.07-29.24-.15,13.09-.15,29.24-.15,29.24.07,29.24.15Z"/>
        </g>
        <g>
          <g>
            <g>
              <path class="st50" d="M804.94,142.85h-238.41c-4.11,0-7.44,3.33-7.44,7.44v168.4c0,4.11,3.33,7.44,7.44,7.44h91.5s5.82,18-12.22,27.31h85.56s-20.37-6.98-15.13-27.31h88.71c4.11,0,7.44-3.33,7.44-7.44v-168.4c0-4.11-3.33-7.44-7.44-7.44Z"/>
              <path class="st38" d="M688.91,308.42c3.24,4.63-1.83,9.71-6.47,6.47-.15-.11-.29-.25-.4-.4-3.23-4.63,1.84-9.7,6.47-6.47.15.11.29.25.4.4Z"/>
            </g>
            <g>
              <path class="st28" d="M566.39,152.94h238.18c1.06,0,1.93.86,1.93,1.93v139.71c0,1.06-.86,1.93-1.93,1.93h-238.18c-1.06,0-1.93-.86-1.93-1.93v-139.71c0-1.06.86-1.93,1.93-1.93Z"/>
              <path class="st28" d="M804.57,296.8h-238.18c-1.23,0-2.22-1-2.22-2.22v-139.71c0-1.23,1-2.22,2.22-2.22h238.18c1.23,0,2.22,1,2.22,2.22v139.71c0,1.23-1,2.22-2.22,2.22ZM566.39,153.24c-.9,0-1.63.73-1.63,1.63v139.71c0,.9.73,1.63,1.63,1.63h238.18c.9,0,1.63-.73,1.63-1.63v-139.71c0-.9-.73-1.63-1.63-1.63h-238.18Z"/>
            </g>
          </g>
          <path class="st15" d="M716.23,326.29c0,.08-13.09.15-29.24.15s-29.24-.07-29.24-.15,13.09-.15,29.24-.15,29.24.07,29.24.15Z"/>
        </g>
        <g>
          <path class="st2" d="M193.24,106.29c.87.65,1.63,1.4,2.28,2.24l2.92-.53,1.93,4.51-2.4,1.74c.15,1.05.17,2.12.04,3.2l2.44,1.69-1.83,4.55-2.93-.47c-.65.87-1.4,1.63-2.24,2.28l.53,2.92-4.51,1.93-1.74-2.4c-1.05.15-2.12.17-3.2.03l-1.68,2.44-4.55-1.83.47-2.93c-.87-.65-1.63-1.4-2.28-2.24l-2.92.53-1.93-4.51,2.4-1.74c-.15-1.05-.17-2.12-.04-3.2l-2.44-1.69,1.83-4.55,2.93.47c.65-.87,1.4-1.63,2.24-2.28l-.53-2.92,4.51-1.93,1.74,2.4c1.05-.15,2.12-.17,3.2-.03l1.68-2.44,4.55,1.83-.47,2.93h0ZM188.17,111.18c-2.7-1.08-5.76.22-6.84,2.92-1.08,2.7.22,5.76,2.92,6.84,2.7,1.08,5.76-.22,6.84-2.92,1.08-2.7-.22-5.76-2.92-6.84Z"/>
          <path class="st25" d="M188.17,111.18s.46.11,1.17.58c.69.47,1.62,1.39,2.04,2.88.21.73.29,1.59.11,2.47-.18.88-.57,1.8-1.26,2.55-.33.38-.74.72-1.19,1-.45.28-.95.5-1.49.64-1.07.29-2.27.22-3.36-.21-1.09-.45-2-1.22-2.57-2.17-.3-.47-.51-.97-.64-1.49-.13-.51-.19-1.04-.17-1.54.02-1.02.38-1.95.85-2.71.48-.76,1.14-1.32,1.79-1.71,1.33-.77,2.65-.8,3.46-.66.84.14,1.25.38,1.25.38-.01.04-.44-.16-1.26-.27-.81-.1-2.07-.04-3.34.73-.62.38-1.24.93-1.69,1.66-.44.73-.77,1.62-.79,2.59-.02.48.04.98.17,1.46.12.49.33.97.61,1.41.54.9,1.41,1.62,2.43,2.05,1.03.4,2.16.48,3.17.21.51-.12.99-.33,1.41-.6.43-.26.82-.58,1.13-.94.66-.71,1.04-1.58,1.22-2.41.18-.84.11-1.66-.07-2.37-.38-1.43-1.26-2.35-1.91-2.84-.67-.49-1.11-.65-1.1-.68Z"/>
          <path class="st25" d="M193.24,106.29s0-.06.02-.18c.02-.14.04-.32.08-.56.08-.51.18-1.24.33-2.19l.03.05c-1.17-.46-2.7-1.07-4.56-1.8l.09-.03c-.51.74-1.07,1.56-1.67,2.44l-.03.04h-.05c-.99-.12-2.06-.13-3.17.04h-.06s-.04-.04-.04-.04c-.54-.75-1.13-1.56-1.74-2.4l.13.04c-1.42.61-2.93,1.26-4.51,1.94l.07-.13c.17.9.35,1.9.54,2.92v.07s-.05.05-.05.05c-.78.61-1.55,1.37-2.21,2.26l-.05.06h-.08c-.91-.16-1.91-.32-2.93-.48l.15-.08c-.57,1.43-1.19,2.97-1.82,4.55l-.05-.17c.76.52,1.59,1.1,2.44,1.68l.07.05v.09c-.13.98-.13,2.07.03,3.16v.09s-.06.05-.06.05c-.75.54-1.57,1.14-2.4,1.74l.05-.18c.61,1.43,1.26,2.96,1.93,4.51l-.16-.09c.92-.17,1.92-.35,2.92-.53l.09-.02.06.07c.62.79,1.38,1.56,2.25,2.21h0s0,0,0,0c.03.06-.06-.14.06.15h0s0,0,0,0h0s0,.03,0,.03v.05s-.02.09-.02.09l-.03.18-.06.37-.12.73c-.08.49-.16.97-.23,1.46l-.09-.16c1.54.62,3.06,1.23,4.55,1.83l-.18.05c.57-.82,1.13-1.63,1.69-2.44l.05-.07h.09c1.06.14,2.13.13,3.16-.02h.09s.05.06.05.06c.59.81,1.17,1.61,1.74,2.4l-.17-.05c1.54-.66,3.05-1.3,4.51-1.92l-.08.15c-.18-.99-.36-1.96-.53-2.92v-.08s.05-.05.05-.05c.85-.66,1.6-1.43,2.22-2.26l.05-.06h.08c1,.18,1.98.33,2.92.49l-.14.08c.65-1.6,1.26-3.11,1.84-4.55l.04.14c-.86-.59-1.66-1.15-2.43-1.69l-.05-.04v-.06c.15-1.12.12-2.18-.02-3.17v-.06s.04-.03.04-.03c.88-.63,1.66-1.19,2.41-1.73l-.03.11c-.74-1.75-1.37-3.24-1.91-4.52l.07.04c-1.17.21-2.12.37-2.92.51h-.03s-.02-.02-.02-.02c-.66-.85-1.25-1.4-1.64-1.75-.19-.17-.34-.29-.45-.39-.11-.09-.15-.13-.15-.13,0,0,.06.04.16.11.11.08.27.2.47.37.41.34,1.01.88,1.69,1.73l-.05-.02c.8-.15,1.75-.33,2.91-.55h.05s.02.04.02.04c.55,1.27,1.19,2.76,1.94,4.5l.03.07-.06.04c-.74.54-1.53,1.11-2.4,1.75l.04-.09c.15,1,.18,2.08.04,3.23l-.05-.1c.78.53,1.58,1.09,2.44,1.68l.08.05-.03.09c-.58,1.44-1.18,2.95-1.82,4.55l-.04.09-.1-.02c-.95-.15-1.92-.31-2.93-.46l.13-.05c-.63.85-1.39,1.63-2.26,2.31l.05-.13c.18.95.35,1.93.54,2.92l.02.11-.1.04c-1.47.63-2.97,1.27-4.51,1.93l-.11.05-.07-.09c-.57-.79-1.15-1.59-1.74-2.4l.14.06c-1.06.15-2.15.17-3.24.04l.14-.06c-.56.8-1.12,1.62-1.68,2.44l-.07.1-.11-.04c-1.5-.6-3.01-1.21-4.55-1.83l-.11-.04.02-.12c.08-.48.16-.97.23-1.46l.12-.73.06-.37.03-.18v-.09s.02-.05.02-.05v-.02s0-.01,0-.01h0s0,0,0,0c.12.29.03.08.06.14h0s0,0,0,0c-.89-.66-1.68-1.45-2.31-2.26l.15.06c-1,.18-2,.36-2.92.53l-.12.02-.05-.11c-.66-1.55-1.31-3.08-1.92-4.51l-.05-.11.1-.07c.83-.6,1.65-1.19,2.4-1.74l-.06.14c-.16-1.11-.16-2.23-.03-3.24l.06.14c-.84-.58-1.68-1.16-2.44-1.69l-.09-.06.04-.1c.64-1.58,1.26-3.12,1.83-4.55l.04-.1.11.02c1.02.17,2.02.33,2.92.47l-.12.05c.68-.91,1.47-1.69,2.27-2.3l-.05.12c-.18-1.02-.36-2.01-.53-2.92l-.02-.09.09-.04c1.58-.67,3.09-1.31,4.52-1.91l.08-.03.05.07c.61.84,1.19,1.66,1.73,2.41l-.09-.04c1.13-.16,2.22-.15,3.22-.02l-.08.04c.61-.88,1.18-1.69,1.69-2.43l.04-.05.06.02c1.85.76,3.38,1.38,4.54,1.85h.04s0,.05,0,.05c-.16.94-.29,1.66-.37,2.17-.04.24-.08.42-.1.56-.02.13-.04.19-.04.19Z"/>
        </g>
        <g>
          <rect class="st21" x="366.55" y="291.4" width="136.54" height="14.55" rx="7.27" ry="7.27"/>
          <path class="st21" d="M502.41,305.95c-.02-.06,1.11.13,2.97-.67.9-.42,1.98-1.12,2.84-2.31.87-1.16,1.51-2.84,1.38-4.74-.1-1.88-1.05-3.99-2.94-5.35-.92-.69-2.07-1.16-3.3-1.33-.62-.08-1.26-.07-1.92-.07-.66,0-1.32,0-2,0-5.43,0-11.62.01-18.45.02-27.35.01-65.13.03-106.85.04-1.27.02-2.55.33-3.64,1-1.1.64-1.99,1.59-2.61,2.69-1.22,2.21-1.16,5.06.19,7.17.64,1.07,1.59,1.92,2.67,2.53,1.09.57,2.32.88,3.55.86,2.5,0,4.98,0,7.44,0,9.84,0,19.33,0,28.37,0,18.08.01,34.36.02,48.04.03,13.67.02,24.73.04,32.39.05,3.82.01,6.79.02,8.8.03,1,0,1.77.01,2.29.02.52,0,.78.02.78.02,0,0-.26.01-.78.02-.52,0-1.29,0-2.29.02-2.02,0-4.99.02-8.8.03-7.65.01-18.72.03-32.39.05-13.68,0-29.96.02-48.04.03-9.04,0-18.53,0-28.37,0-2.46,0-4.94,0-7.44,0-1.27.03-2.56-.29-3.7-.89-1.12-.63-2.11-1.52-2.78-2.63-1.4-2.2-1.47-5.17-.2-7.47.64-1.15,1.58-2.14,2.72-2.81,1.13-.7,2.47-1.03,3.79-1.05,41.72.02,79.5.03,106.85.04,6.84,0,13.02.02,18.45.02.68,0,1.35,0,2,0,.65,0,1.3-.01,1.94.07,1.26.17,2.43.66,3.37,1.36,1.92,1.4,2.87,3.55,2.97,5.46.12,1.93-.54,3.63-1.43,4.8-.88,1.2-1.98,1.9-2.89,2.31-.93.41-1.7.52-2.21.59-.52.03-.78.03-.78.03Z"/>
        </g>
        <g>
          <g>
            <path d="M136.18,218.99c0-.79.47-1.27,1.09-1.27.3,0,.53.15.67.3l-.17.2c-.13-.14-.29-.23-.5-.23-.46,0-.77.38-.77.99s.29,1,.75,1c.23,0,.41-.1.57-.27l.17.2c-.19.22-.43.35-.75.35-.61,0-1.06-.47-1.06-1.27Z"/>
            <path d="M138.28,219.31c0-.6.4-.95.84-.95s.84.35.84.96-.4.95-.84.95-.84-.35-.84-.95ZM139.65,219.32c0-.42-.21-.7-.52-.7s-.52.28-.53.7.21.69.52.69.52-.28.53-.69Z"/>
            <path d="M140.44,218.41h.25s.03.26.03.26h.01c.17-.17.36-.3.61-.3.38,0,.55.25.55.71v1.15s-.31,0-.31,0v-1.11c0-.34-.1-.48-.34-.48-.19,0-.31.09-.5.28v1.31s-.31,0-.31,0v-1.81Z"/>
            <path d="M142.53,219.67v-1s-.27,0-.27,0v-.23s.28-.02.28-.02l.04-.51h.26s0,.51,0,.51h.49s0,.25,0,.25h-.49s0,1.01,0,1.01c0,.22.07.35.28.35.06,0,.15-.02.21-.05l.06.23c-.1.03-.22.07-.34.07-.39,0-.52-.25-.51-.61Z"/>
            <path d="M143.55,219.76c0-.39.34-.59,1.12-.67,0-.23-.08-.46-.37-.46-.21,0-.4.1-.54.19l-.12-.21c.17-.11.42-.24.71-.23.44,0,.63.3.63.75v1.11s-.26,0-.26,0l-.03-.22h-.01c-.17.14-.38.26-.6.26-.3,0-.53-.19-.53-.52ZM144.66,219.79v-.5c-.61.07-.81.22-.81.45,0,.21.14.29.32.29s.32-.08.5-.24Z"/>
            <path d="M145.4,219.33c0-.6.41-.95.88-.95.24,0,.4.1.53.21l-.16.2c-.11-.1-.22-.16-.36-.16-.33,0-.57.28-.57.7s.23.69.56.7c.17,0,.31-.08.43-.18l.13.21c-.16.14-.37.23-.59.23-.48,0-.85-.35-.85-.95Z"/>
            <path d="M147.25,219.68v-1s-.27,0-.27,0v-.23s.28-.02.28-.02l.04-.51h.26s0,.51,0,.51h.49s0,.25,0,.25h-.49s0,1.01,0,1.01c0,.22.07.35.28.35.06,0,.15-.02.21-.05l.06.23c-.1.03-.22.07-.34.07-.39,0-.52-.25-.51-.61Z"/>
            <path d="M148.22,220.04l.15-.2c.16.13.32.22.53.22.24,0,.36-.13.36-.28,0-.19-.21-.27-.41-.34-.25-.09-.54-.22-.54-.53,0-.29.23-.51.63-.51.23,0,.42.09.56.21l-.15.2c-.12-.09-.25-.16-.41-.16-.23,0-.33.12-.33.26,0,.17.2.24.4.32.26.1.55.21.55.55,0,.29-.24.54-.66.54-.26,0-.51-.11-.68-.25Z"/>
          </g>
          <g>
            <path d="M174.94,219.11c0-.79.47-1.27,1.09-1.27.3,0,.53.15.67.3l-.17.2c-.13-.14-.29-.23-.5-.23-.46,0-.77.38-.77.99s.29,1,.75,1c.23,0,.41-.1.57-.27l.17.2c-.19.22-.43.35-.75.35-.61,0-1.06-.47-1.06-1.27Z"/>
            <path d="M177.22,217.89h.77c.5,0,.86.18.85.69s-.36.72-.86.72h-.45s0,1.03,0,1.03h-.31s0-2.45,0-2.45ZM177.93,219.05c.38,0,.59-.15.59-.47s-.21-.44-.59-.44h-.41s0,.91,0,.91h.41ZM177.92,219.22l.24-.16.74,1.28h-.35s-.63-1.12-.63-1.12Z"/>
            <path d="M179.34,217.9h.37s.46,1.31.46,1.31c.06.17.11.34.17.51h.01c.06-.17.11-.34.17-.51l.47-1.31h.37s0,2.45,0,2.45h-.29s0-1.35,0-1.35c0-.21.03-.51.04-.72h-.01s-.2.56-.2.56l-.46,1.26h-.21s-.46-1.27-.46-1.27l-.19-.56h-.01c.01.22.04.51.04.72v1.35s-.29,0-.29,0v-2.45Z"/>
          </g>
          <g>
            <path class="st49" d="M156.06,191.75c-.07-.2-.21-.54-.52-.87-.27-.28-.55-.44-.73-.53-7.84-.02-15.68-.03-23.52-.05-.19.05-.67.21-1.05.68-.22.28-.32.55-.37.73-.16,14.14-.23,23.07-.1,23.45.1.32.27.55.44.74.38.4.84.55,1.07.61,10.91.09,23.13.15,23.33.08.4-.14.66-.38.79-.5,0,0,.41-.32.58-.81.03-.1.05-12.32.08-23.53ZM155.65,214.95c-.17.48-.56.79-.56.79-.12.12-.37.35-.77.48-.2.07-12.1.02-22.73-.07-.23-.06-.67-.2-1.04-.59-.17-.18-.33-.4-.43-.72-.12-.37-.05-9.06.1-22.81.05-.17.14-.44.36-.71.37-.46.84-.61,1.02-.66,7.64.02,15.27.03,22.91.05.18.08.45.24.71.51.3.32.44.65.51.84-.03,10.91-.04,22.79-.07,22.89Z"/>
            <path class="st21" d="M155.65,214.95c-.17.48-.56.79-.56.79-.12.12-.37.35-.77.48-.2.07-12.1.02-22.73-.07-.23-.06-.67-.2-1.04-.59-.17-.18-.33-.4-.43-.72-.12-.37-.05-9.06.1-22.81.05-.17.14-.44.36-.71.37-.46.84-.61,1.02-.66,7.64.02,15.27.03,22.91.05.18.08.45.24.71.51.3.32.44.65.51.84-.03,10.91-.04,22.79-.07,22.89Z"/>
            <path class="st39" d="M137.68,197.15c-.14.03-.4.1-.65.31-.36.3-.46.68-.49.82l-.04,12.99,11.83.04c.27-.06.97-.27,1.57-.92.63-.69.77-1.45.8-1.72l.04-11.47-13.06-.04ZM142.5,198.97c1.25,0,2.26,1.02,2.26,2.27s-1.02,2.26-2.27,2.26-2.26-1.02-2.26-2.27,1.02-2.26,2.27-2.26ZM139.83,205.85c.8-1.03,1.93-1.22,2.17-1.25h4.26c-.01.3-.11,1.45-1.04,2.38-.7.7-1.51.91-1.84.97h-4.26c0-.3.03-1.23.7-2.09Z"/>
            <path class="st6" d="M149.27,197.18v-1.54c-3.97-.01-7.95-.02-11.93-.04-.25.06-1.07.28-1.67,1.05-.44.56-.56,1.13-.6,1.41-.01,3.88-.03,7.77-.04,11.65.49,0,.98,0,1.47.01,3.85.03,7.7.07,11.55.1.13-.02.53-.1.85-.46.23-.26.31-.53.34-.67.01-3.84.02-7.68.04-11.53ZM144.76,201.24c0,1.25-1.02,2.26-2.27,2.26s-2.26-1.02-2.26-2.27,1.02-2.26,2.27-2.26,2.26,1.02,2.26,2.27ZM145.23,206.97c-.7.7-1.51.91-1.84.97h-4.26c0-.3.03-1.23.7-2.09.8-1.03,1.93-1.22,2.17-1.25h4.26c-.01.3-.11,1.45-1.04,2.38Z"/>
            <path class="st21" d="M146.27,204.61c-.01.29-.11,1.43-1.04,2.36-.7.7-1.51.91-1.84.97h-4.26c0-.3.03-1.23.7-2.09.8-1.03,1.93-1.22,2.17-1.25h4.26Z"/>
            <circle class="st21" cx="142.5" cy="201.23" r="2.26"/>
          </g>
          <g>
            <path class="st49" d="M191.91,191.83c-.07-.2-.21-.54-.52-.87-.27-.28-.55-.44-.73-.53-7.84-.02-15.68-.03-23.52-.05-.19.05-.67.21-1.05.68-.22.28-.32.55-.37.73-.16,14.14-.23,23.07-.1,23.45.1.32.27.55.44.74.38.4.84.55,1.07.61,10.91.09,23.13.15,23.33.08.4-.14.66-.38.79-.5,0,0,.41-.32.58-.81.03-.1.05-12.32.08-23.53ZM191.5,215.04c-.17.48-.56.79-.56.79-.12.12-.37.35-.77.48-.2.07-12.1.02-22.73-.07-.23-.06-.67-.2-1.04-.59-.17-.18-.33-.4-.43-.72-.12-.37-.05-9.06.1-22.81.05-.17.14-.44.36-.71.37-.46.84-.61,1.02-.66,7.64.02,15.27.03,22.91.05.18.08.45.24.71.51.3.32.44.65.51.84-.03,10.91-.04,22.79-.07,22.89Z"/>
            <path class="st21" d="M191.5,215.04c-.17.48-.56.79-.56.79-.12.12-.37.35-.77.48-.2.07-12.1.02-22.73-.07-.23-.06-.67-.2-1.04-.59-.17-.18-.33-.4-.43-.72-.12-.37-.05-9.06.1-22.81.05-.17.14-.44.36-.71.37-.46.84-.61,1.02-.66,7.64.02,15.27.03,22.91.05.18.08.45.24.71.51.3.32.44.65.51.84-.03,10.91-.04,22.79-.07,22.89Z"/>
            <g>
              <path class="st31" d="M188.09,199.77c-.52.57-1.15,1.23-1.88,1.95-.47.46-1.06,1.04-1.66,1.56-1-1.02-2.01-2.04-3.01-3.06-.68-.69-1.36-1.38-2.04-2.07-.2-.2-.39-.4-.59-.6-.02-.02-.03-.04-.05-.05h.14s.96,0,.96,0h6.72s.27.02.27.02c.19.05.55.16.83.48.64.71.32,1.73.3,1.78Z"/>
              <path class="st43" d="M178.78,209.06s-.03.03-.04.04c-.15.14-.62.55-1.29.48-.4-.04-.67-.24-.8-.34l-3.61-3.71c-.05-.1-.22-.46-.1-.93.12-.49.48-.74.57-.8,0,0,0,0,.01-.01,1.75,1.75,3.5,3.51,5.26,5.26Z"/>
              <path class="st43" d="M179.19,208.35c-.08.35-.28.59-.4.71-1.75-1.75-3.5-3.51-5.26-5.26.11-.12.29-.27.53-.37.45-.18.87-.08.93-.07.01,0,.03,0,.05,0,1.35,1.37,2.7,2.74,4.04,4.11h0c.06.19.19.49.11.89Z"/>
              <path class="st43" d="M181.53,200.21c-.72-.16-1.25-.07-1.6.05-1.61.54-1.95,2.23-3.04,2.18-.2-.01-.39-.08-.57-.18-.37-.22-.65-.6-.71-.98-.06-.36.09-.79,1.58-2.21.43-.41,1-.93,1.72-1.52.2.2.39.4.59.6.68.69,1.36,1.38,2.04,2.07Z"/>
              <path class="st9" d="M185.06,204.41c0,.29-.09.52-.16.64-1.41,1.42-2.82,2.84-4.23,4.26-.08.06-.37.31-.82.31-.43,0-.72-.22-.8-.29-.09-.09-.18-.18-.27-.27-1.75-1.75-3.5-3.51-5.26-5.26-1.36-1.36-2.72-2.73-4.09-4.09-.06-.14-.23-.62-.05-1.18.23-.72.85-1.01.95-1.05,0,0,0,0,0,0h8.46s.05.01.05.01c.02.02.03.04.05.05.2.2.39.4.59.6.68.69,1.36,1.38,2.04,2.07,1,1.02,2.01,2.04,3.01,3.06.08.08.16.16.24.24.08.12.29.45.28.9Z"/>
            </g>
          </g>
          <g>
            <g>
              <path d="M239.5,218.59h.61c.75,0,1.15.44,1.15,1.22s-.41,1.23-1.15,1.23h-.63s0-2.45,0-2.45ZM240.09,220.78c.57,0,.86-.36.86-.97s-.28-.96-.85-.96h-.28s0,1.94,0,1.94h.28Z"/>
              <path d="M241.65,220.57c0-.39.34-.59,1.12-.67,0-.23-.08-.46-.37-.46-.21,0-.4.1-.54.19l-.12-.21c.17-.11.42-.24.71-.23.44,0,.63.3.63.75v1.11s-.26,0-.26,0l-.03-.22h-.01c-.17.14-.38.26-.6.26-.3,0-.53-.19-.53-.52ZM242.76,220.6v-.5c-.61.07-.81.22-.81.45,0,.21.14.29.32.29s.32-.08.5-.24Z"/>
              <path d="M243.44,220.84l.15-.2c.16.13.32.22.53.22.24,0,.36-.13.36-.28,0-.19-.21-.27-.41-.34-.25-.09-.54-.22-.54-.53,0-.29.23-.51.63-.51.23,0,.42.09.56.21l-.15.2c-.12-.09-.25-.16-.41-.16-.23,0-.33.12-.33.26,0,.17.2.24.4.32.26.1.55.21.55.55,0,.29-.24.54-.66.54-.26,0-.51-.11-.68-.25Z"/>
              <path d="M245.21,218.4h.31s0,.73,0,.73v.37c.16-.16.34-.3.59-.3.38,0,.55.25.55.71v1.15s-.31,0-.31,0v-1.11c0-.34-.1-.48-.34-.48-.19,0-.31.09-.5.28v1.31s-.31,0-.31,0v-2.66Z"/>
              <path d="M247.51,220.87h-.01s-.03.19-.03.19h-.25s0-2.66,0-2.66h.31s0,.73,0,.73v.32c.16-.14.36-.25.56-.25.47,0,.72.37.72.92,0,.62-.37.98-.79.98-.17,0-.36-.09-.52-.23ZM248.5,220.13c0-.4-.13-.67-.48-.67-.15,0-.31.08-.49.25v.95c.16.14.32.19.44.19.3,0,.52-.27.52-.72Z"/>
              <path d="M249.16,220.16c0-.6.4-.95.84-.95s.84.35.84.96-.4.95-.84.95-.84-.35-.84-.95ZM250.52,220.17c0-.42-.21-.7-.52-.7s-.52.28-.53.7.21.69.52.69.52-.28.53-.69Z"/>
              <path d="M251.15,220.6c0-.39.34-.59,1.12-.67,0-.23-.08-.46-.37-.46-.21,0-.4.1-.54.19l-.12-.21c.17-.11.42-.24.71-.23.44,0,.63.3.63.75v1.11s-.26,0-.26,0l-.03-.22h-.01c-.17.14-.38.26-.6.26-.3,0-.53-.19-.53-.52ZM252.26,220.64v-.5c-.61.07-.81.22-.81.45,0,.21.14.29.32.29s.32-.08.5-.24Z"/>
              <path d="M253.14,219.27h.25s.02.33.02.33h.01c.13-.23.31-.37.52-.37.08,0,.14.01.19.04l-.06.27c-.06-.02-.1-.03-.18-.03-.15,0-.34.11-.46.42v1.16s-.31,0-.31,0v-1.81Z"/>
              <path d="M254.27,220.18c0-.59.37-.95.79-.95.21,0,.35.08.51.21v-.31s0-.7,0-.7h.31s0,2.66,0,2.66h-.25s-.03-.21-.03-.21h-.01c-.14.14-.33.26-.55.26-.45,0-.75-.35-.74-.95ZM255.55,220.63v-.95c-.15-.14-.29-.19-.44-.19-.29,0-.52.28-.52.69,0,.43.18.69.5.69.17,0,.31-.08.47-.25Z"/>
              <path d="M256.26,220.88l.15-.2c.16.13.32.22.53.22.24,0,.36-.13.36-.28,0-.19-.21-.27-.41-.34-.25-.09-.54-.22-.54-.53,0-.29.23-.51.63-.51.23,0,.42.09.56.21l-.15.2c-.12-.09-.25-.16-.41-.16-.23,0-.33.12-.33.26,0,.17.2.24.4.32.26.1.55.21.55.55,0,.29-.24.54-.66.54-.26,0-.51-.11-.68-.25Z"/>
            </g>
            <g>
              <path d="M209.36,220.21l.19-.21c.18.18.42.3.67.31.32,0,.51-.16.51-.4,0-.25-.18-.33-.41-.43l-.35-.16c-.23-.1-.49-.27-.49-.63s.33-.65.77-.65c.29,0,.55.13.72.31l-.17.2c-.15-.14-.33-.23-.55-.23-.27,0-.46.14-.46.36,0,.24.21.32.4.41l.35.15c.28.12.5.29.5.66,0,.39-.32.69-.84.69-.34,0-.64-.14-.85-.37Z"/>
              <path d="M211.38,220.06c0-.39.34-.59,1.12-.67,0-.23-.08-.46-.37-.46-.21,0-.4.1-.54.19l-.12-.21c.17-.11.42-.24.71-.23.44,0,.63.3.63.75v1.11s-.26,0-.26,0l-.03-.22h-.01c-.17.14-.38.26-.6.26-.3,0-.53-.19-.53-.52ZM212.5,220.09v-.5c-.61.07-.81.22-.81.45,0,.21.14.29.32.29s.32-.08.5-.24Z"/>
              <path d="M213.38,220.17v-2.29s.31,0,.31,0v2.31c0,.09.03.13.08.13.02,0,.03,0,.07,0l.04.23s-.1.03-.18.03c-.23,0-.32-.15-.32-.41Z"/>
              <path d="M214.19,219.64c0-.59.4-.95.82-.95.46,0,.72.33.72.85,0,.06,0,.13-.01.17h-1.22c.02.38.25.63.6.63.17,0,.32-.06.45-.14l.11.2c-.16.1-.35.19-.6.19-.48,0-.87-.36-.86-.95ZM215.46,219.49c0-.36-.16-.56-.44-.56-.25,0-.48.2-.52.56h.97Z"/>
              <path d="M215.97,220.34l.15-.2c.16.13.32.22.53.22.24,0,.36-.13.36-.28,0-.19-.21-.27-.41-.34-.25-.09-.54-.22-.54-.53,0-.29.23-.51.63-.51.23,0,.42.09.56.21l-.15.2c-.12-.09-.25-.16-.41-.16-.23,0-.33.12-.33.26,0,.17.2.24.4.32.26.1.55.21.55.55,0,.29-.24.54-.66.54-.26,0-.51-.11-.68-.25Z"/>
            </g>
            <g>
              <path class="st49" d="M226.99,191.95c-.07-.2-.21-.54-.52-.87-.27-.28-.55-.44-.73-.53-7.84-.02-15.68-.03-23.52-.05-.19.05-.67.21-1.05.68-.22.28-.32.55-.37.73-.16,14.14-.23,23.07-.1,23.45.1.32.27.55.44.74.38.4.84.55,1.07.61,10.91.09,23.13.15,23.33.08.4-.14.66-.38.79-.5,0,0,.41-.32.58-.81.03-.1.05-12.32.08-23.53ZM226.58,215.16c-.17.48-.56.79-.56.79-.12.12-.37.35-.77.48-.2.07-12.1.02-22.73-.07-.23-.06-.67-.2-1.04-.59-.17-.18-.33-.4-.43-.72-.12-.37-.05-9.06.1-22.81.05-.17.14-.44.36-.71.37-.46.84-.61,1.02-.66,7.64.02,15.27.03,22.91.05.18.08.45.24.71.51.3.32.44.65.51.84-.03,10.91-.04,22.79-.07,22.89Z"/>
              <g>
                <path class="st21" d="M226.58,215.16c-.17.48-.56.79-.56.79-.12.12-.37.35-.77.48-.2.07-12.1.02-22.73-.07-.23-.06-.67-.2-1.04-.59-.17-.18-.33-.4-.43-.72-.12-.37-.05-9.06.1-22.81.05-.17.14-.44.36-.71.37-.46.84-.61,1.02-.66,7.64.02,15.27.03,22.91.05.18.08.45.24.71.51.3.32.44.65.51.84-.03,10.91-.04,22.79-.07,22.89Z"/>
                <g>
                  <path class="st36" d="M213.4,202.17l-6.32-.02c-.13.02-.44.08-.72.35-.38.35-.42.81-.43.91,0,2.69-.02,5.39-.03,8.08l6.5.02c.07,0,.44-.04.71-.36.23-.27.24-.57.25-.66,0-2.77.02-5.55.03-8.32Z"/>
                  <path class="st17" d="M221.73,195.82l-6.32-.02c-.13.03-.44.14-.72.58-.38.59-.42,1.36-.43,1.54-.01,4.53-.03,9.07-.04,13.6l6.5.02c.07-.01.44-.08.71-.61.23-.46.25-.96.25-1.11.02-4.66.03-9.33.05-13.99Z"/>
                  <path class="st7" d="M217.56,199.19l-6.32-.02c-.13.03-.44.11-.72.46-.38.47-.42,1.07-.43,1.21-.01,3.56-.02,7.12-.03,10.68l6.5.02c.07,0,.44-.06.71-.48.23-.36.25-.76.25-.87.01-3.66.02-7.32.04-10.99Z"/>
                </g>
              </g>
            </g>
            <g>
              <path class="st49" d="M261.57,192.48c-.07-.2-.21-.54-.52-.87-.27-.28-.55-.44-.73-.53-7.84-.02-15.68-.03-23.52-.05-.19.05-.67.21-1.05.68-.22.28-.32.55-.37.73-.16,14.14-.23,23.07-.1,23.45.1.32.27.55.44.74.38.4.84.55,1.07.61,10.91.09,23.13.15,23.33.08.4-.14.66-.38.79-.5,0,0,.41-.32.58-.81.03-.1.05-12.32.08-23.53ZM261.16,215.69c-.17.48-.56.79-.56.79-.12.12-.37.35-.77.48-.2.07-12.1.02-22.73-.07-.23-.06-.67-.2-1.04-.59-.17-.18-.33-.4-.43-.72-.12-.37-.05-9.06.1-22.81.05-.17.14-.44.36-.71.37-.46.84-.61,1.02-.66,7.64.02,15.27.03,22.91.05.18.08.45.24.71.51.3.32.44.65.51.84-.03,10.91-.04,22.79-.07,22.89Z"/>
              <path class="st21" d="M261.16,215.69c-.17.48-.56.79-.56.79-.12.12-.37.35-.77.48-.2.07-12.1.02-22.73-.07-.23-.06-.67-.2-1.04-.59-.17-.18-.33-.4-.43-.72-.12-.37-.05-9.06.1-22.81.05-.17.14-.44.36-.71.37-.46.84-.61,1.02-.66,7.64.02,15.27.03,22.91.05.18.08.45.24.71.51.3.32.44.65.51.84-.03,10.91-.04,22.79-.07,22.89Z"/>
              <g>
                <path class="st31" d="M248.43,196.34l-6.64-.02c-.13.02-.46.07-.75.29-.4.29-.44.67-.45.76,0,2.23-.01,4.47-.02,6.7l6.83.02c.18-.04.49-.13.73-.39.25-.27.29-.61.31-.82.06-.73.07-3.2,0-6.53Z"/>
                <path class="st11" d="M246.14,206.44c-1.52,0-3.03-.01-4.55-.02-.21.03-.56.1-.8.38-.17.2-.21.42-.23.56-.08.55-.11,2.27-.05,4.6,1.51,0,3.03.01,4.54.02.19-.04.55-.15.8-.46.21-.26.26-.55.29-.74.08-.69.1-2.28.01-4.34Z"/>
                <path class="st16" d="M251.45,206.45h-1.93c-.11.01-.39.07-.65.3-.29.26-.37.58-.4.69,0,1.54,0,3.07-.01,4.61h1.81c.13-.02.46-.12.75-.41.3-.3.39-.64.41-.77,0-1.47.02-2.95.03-4.42Z"/>
                <path class="st32" d="M256.29,206.47h-1.93c-.11.01-.39.07-.65.3-.29.26-.37.58-.4.69,0,1.54,0,3.07-.01,4.61h1.81c.13-.02.46-.12.75-.41.3-.3.39-.64.41-.77,0-1.47.02-2.95.03-4.42Z"/>
                <path class="st18" d="M256.29,204.18v-1.93c-.03-.11-.09-.39-.32-.65-.26-.29-.58-.37-.69-.39-1.54,0-3.07.02-4.61.02v1.81c.04.13.14.46.43.74.3.3.64.38.77.41,1.47,0,2.95,0,4.42-.01Z"/>
                <path class="st23" d="M256.31,199.32v-1.93c-.03-.11-.09-.39-.32-.65-.26-.29-.58-.37-.69-.39-1.54,0-3.07.02-4.61.02v1.81c.04.13.14.46.43.74.3.3.64.38.77.41,1.47,0,2.95,0,4.42-.01Z"/>
              </g>
            </g>
          </g>
          <g>
            <path d="M171.49,254.44h1.42s0,.27,0,.27h-1.1s0,.77,0,.77h.93s0,.27,0,.27h-.93s0,.89,0,.89h1.14s0,.27,0,.27h-1.45s0-2.46,0-2.46Z"/>
            <path d="M173.65,255.95l-.55-.87h.33s.24.4.24.4c.06.1.12.2.18.3h.01c.06-.1.11-.2.17-.3l.22-.4h.32s-.55.9-.55.9l.59.92h-.33s-.27-.42-.27-.42c-.06-.11-.13-.22-.2-.33h-.01c-.06.1-.12.22-.18.33l-.25.42h-.32s.6-.95.6-.95Z"/>
            <path d="M174.98,255.08h.25s.03.21.03.21h.01c.16-.14.37-.25.58-.25.47,0,.72.37.72.93,0,.62-.38.98-.79.98-.17,0-.34-.08-.5-.21v.32s0,.62,0,.62h-.31s0-2.59,0-2.59ZM176.25,255.97c0-.4-.13-.67-.48-.67-.15,0-.31.08-.49.25v.95c.16.14.32.19.44.19.3,0,.52-.27.53-.72Z"/>
            <path d="M176.92,256c0-.59.4-.96.82-.95.46,0,.72.34.72.86,0,.06,0,.13-.01.17h-1.22c.02.38.26.63.6.63.17,0,.32-.06.45-.14l.11.2c-.16.1-.35.19-.6.19-.48,0-.87-.36-.87-.95ZM178.19,255.86c0-.36-.16-.56-.45-.56-.26,0-.48.2-.52.56h.97Z"/>
            <path d="M178.92,255.1h.25s.03.26.03.26h.01c.17-.17.36-.31.61-.31.38,0,.55.25.55.71v1.15s-.31,0-.31,0v-1.11c0-.34-.1-.48-.34-.48-.19,0-.32.09-.5.28v1.32s-.31,0-.31,0v-1.82Z"/>
            <path d="M180.76,256.71l.15-.2c.16.13.32.22.54.22.24,0,.36-.13.36-.28,0-.19-.21-.27-.41-.35-.25-.09-.54-.22-.54-.53,0-.29.23-.52.63-.51.23,0,.42.09.56.21l-.15.2c-.12-.09-.25-.16-.41-.16-.23,0-.34.12-.34.26,0,.17.2.24.4.32.26.1.55.21.55.55,0,.29-.24.54-.67.54-.26,0-.51-.11-.68-.25Z"/>
            <path d="M182.39,256.02c0-.59.4-.96.82-.95.46,0,.72.34.72.86,0,.06,0,.13-.01.17h-1.22c.02.38.26.63.6.63.17,0,.32-.06.45-.14l.11.2c-.16.1-.35.19-.6.19-.48,0-.87-.36-.87-.95ZM183.66,255.88c0-.36-.16-.56-.45-.56-.26,0-.48.2-.52.56h.97Z"/>
            <path d="M184.18,256.73l.15-.2c.16.13.32.22.54.22.24,0,.36-.13.36-.28,0-.19-.21-.27-.41-.35-.25-.09-.54-.22-.54-.53,0-.29.23-.52.63-.51.23,0,.42.09.56.21l-.15.2c-.12-.09-.25-.16-.41-.16-.23,0-.34.12-.34.26,0,.17.2.24.4.32.26.1.55.21.55.55,0,.29-.24.54-.67.54-.26,0-.51-.11-.68-.25Z"/>
          </g>
          <g>
            <path d="M136.19,254.97h-.74s0-.27,0-.27h1.8s0,.27,0,.27h-.74s0,2.19,0,2.19h-.31s0-2.19,0-2.19Z"/>
            <path d="M137.6,254.78c0-.12.09-.2.21-.2s.21.08.21.2-.09.2-.21.2-.21-.08-.21-.2ZM137.65,255.35h.31s0,1.82,0,1.82h-.31s0-1.82,0-1.82Z"/>
            <path d="M138.57,255.35h.25s.03.26.03.26h.01c.16-.17.35-.31.57-.31.28,0,.43.13.5.35.19-.2.38-.35.6-.34.37,0,.55.25.55.71v1.15s-.31,0-.31,0v-1.11c0-.34-.1-.48-.33-.48-.14,0-.29.09-.46.28v1.32s-.31,0-.31,0v-1.11c0-.34-.1-.48-.33-.48-.14,0-.29.09-.46.28v1.32s-.31,0-.31,0v-1.82Z"/>
            <path d="M141.53,256.27c0-.59.4-.96.82-.95.46,0,.72.34.72.86,0,.06,0,.13-.01.17h-1.22c.02.38.26.63.6.63.17,0,.32-.06.45-.14l.11.2c-.16.1-.35.19-.6.19-.48,0-.87-.36-.87-.95ZM142.81,256.13c0-.36-.16-.56-.45-.56-.26,0-.48.2-.52.56h.97Z"/>
            <path d="M144.16,255.95c0-.79.44-1.26,1.05-1.26s1.05.48,1.05,1.27-.44,1.28-1.05,1.28-1.05-.5-1.05-1.28ZM145.94,255.96c0-.61-.29-.99-.72-.99s-.73.38-.73.99.29,1.01.72,1.01.73-.39.73-1Z"/>
            <path d="M146.56,255.4l.26-.02h1.75s0,.26,0,.26h-2.01s0-.24,0-.24ZM146.81,255.14c0-.38.19-.61.57-.61.12,0,.24.03.33.07l-.07.23c-.08-.04-.15-.05-.24-.05-.18,0-.28.13-.29.37v2.05s-.31,0-.31,0v-2.06ZM147.88,255.1c0-.37.17-.6.53-.6.11,0,.22.03.3.06l-.07.23c-.07-.03-.14-.05-.21-.05-.17,0-.26.12-.26.35v2.1s-.31,0-.31,0v-2.11Z"/>
          </g>
          <g>
            <g>
              <path class="st49" d="M155.95,228.45c-.07-.2-.21-.54-.52-.87-.27-.29-.55-.44-.73-.53-7.87-.02-15.73-.03-23.6-.05-.19.05-.68.21-1.05.68-.22.28-.32.56-.37.74-.16,14.18-.23,23.15-.1,23.53.1.32.27.55.44.74.38.4.84.55,1.08.61,10.95.09,23.21.15,23.41.08.4-.14.66-.38.79-.5,0,0,.41-.32.58-.81.03-.1.05-12.36.08-23.61ZM155.53,251.74c-.17.48-.57.79-.57.79-.12.12-.38.35-.77.48-.2.07-12.14.02-22.81-.07-.23-.06-.68-.2-1.05-.59-.17-.18-.33-.41-.43-.72-.12-.38-.05-9.09.1-22.89.05-.17.14-.45.36-.72.37-.46.84-.61,1.03-.66,7.66.02,15.33.03,22.99.05.18.08.45.24.72.51.3.32.44.65.51.85-.03,10.94-.04,22.87-.07,22.96Z"/>
              <path class="st21" d="M155.53,251.74c-.17.48-.57.79-.57.79-.12.12-.38.35-.77.48-.2.07-12.14.02-22.81-.07-.23-.06-.68-.2-1.05-.59-.17-.18-.33-.41-.43-.72-.12-.38-.05-9.09.1-22.89.05-.17.14-.45.36-.72.37-.46.84-.61,1.03-.66,7.66.02,15.33.03,22.99.05.18.08.45.24.72.51.3.32.44.65.51.85-.03,10.94-.04,22.87-.07,22.96Z"/>
              <path class="st5" d="M151.19,245.42"/>
            </g>
            <g>
              <path class="st46" d="M143.63,232.29l-5.64,5.63-3.2-3.22c2.44-2.33,5.81-3.11,8.84-2.41Z"/>
              <path class="st37" d="M148.04,234.7l-6.63,6.66-3.42-3.44,5.64-5.63c1.63.38,3.16,1.19,4.41,2.41Z"/>
              <path class="st54" d="M150.41,238.72l-5.78,5.88-3.23-3.25,6.63-6.66s.02.02.03.03c1.14,1.13,1.92,2.51,2.35,4Z"/>
              <path class="st51" d="M148.64,247.45c-.27.34-.62.28-.62.28-.25,0-.45-.17-.57-.29l-2.82-2.84,5.78-5.88c.83,2.9.28,6.19-1.77,8.72Z"/>
              <path class="st53" d="M141.95,241.9c-1.02,1.03-6.07,6.09-6.32,6.33-.11.1-.23.1-.26.1-.1,0-.18-.06-.26-.1-.1-.07-.38-.41-.41-.47-.1-.31-.06-.51-.02-.62.02-.06,5.01-5.05,6.24-6.28l1.03,1.04Z"/>
            </g>
          </g>
          <g>
            <g>
              <path class="st49" d="M191.85,228.18c-.07-.2-.21-.54-.52-.87-.27-.29-.55-.44-.73-.53-7.87-.02-15.73-.03-23.6-.05-.19.05-.68.21-1.05.68-.22.28-.32.56-.37.74-.16,14.18-.23,23.15-.1,23.53.1.32.27.55.44.74.38.4.84.55,1.08.61,10.95.09,23.21.15,23.41.08.4-.14.66-.38.79-.5,0,0,.41-.32.58-.81.03-.1.05-12.36.08-23.61ZM191.44,251.47c-.17.48-.57.79-.57.79-.12.12-.38.35-.77.48-.2.07-12.14.02-22.81-.07-.23-.06-.68-.2-1.05-.59-.17-.18-.33-.41-.43-.72-.12-.38-.05-9.09.1-22.89.05-.17.14-.45.36-.72.37-.46.84-.61,1.03-.66,7.66.02,15.33.03,22.99.05.18.08.45.24.72.51.3.32.44.65.51.85-.03,10.94-.04,22.87-.07,22.96Z"/>
              <path class="st21" d="M191.44,251.47c-.17.48-.57.79-.57.79-.12.12-.38.35-.77.48-.2.07-12.14.02-22.81-.07-.23-.06-.68-.2-1.05-.59-.17-.18-.33-.41-.43-.72-.12-.38-.05-9.09.1-22.89.05-.17.14-.45.36-.72.37-.46.84-.61,1.03-.66,7.66.02,15.33.03,22.99.05.18.08.45.24.72.51.3.32.44.65.51.85-.03,10.94-.04,22.87-.07,22.96Z"/>
              <path class="st5" d="M187.09,245.15"/>
            </g>
            <g>
              <path class="st24" d="M175.93,235.4v.76c-.23-.06-.4-.14-.44-.31-.03-.14.05-.29.13-.36.08-.08.2-.1.31-.09Z"/>
              <path class="st24" d="M176.59,237.17c.09.18.05.44-.08.54-.06.05-.1.03-.39.03v-.8c.22.03.4.08.47.23Z"/>
              <path class="st24" d="M176.05,232.88c-2.03,0-3.68,1.63-3.69,3.66,0,2.03,1.63,3.68,3.66,3.69s3.68-1.63,3.69-3.66c0-2.03-1.63-3.68-3.66-3.69ZM177.52,237.45c-.04.26-.2.43-.26.49-.26.27-.69.42-1.14.44v.42s-.2,0-.2,0v-.42c-.43-.02-.85-.17-1.11-.45-.17-.18-.32-.49-.23-.59.02-.03.75-.01.8.03.11.09.04.21.15.31.07.06.13.05.39.05v-.82c-.36-.04-.79-.08-1.08-.4-.21-.24-.29-.59-.23-.88.11-.5.62-.71.75-.77.18-.08.37-.12.57-.13v-.34s.2,0,.2,0v.34c.39.03.75.2.98.46.02.03.37.42.22.62-.05.07-.65.08-.71,0-.03-.04-.02-.07-.05-.13-.05-.09-.13-.13-.18-.16-.02-.01-.13-.07-.26-.11v.77c.45.1,1.01.2,1.26.63.03.05.18.31.13.62Z"/>
              <circle class="st47" cx="183.4" cy="239.56" r="1.81"/>
              <path class="st14" d="M181.56,246.97l-7.03-.02c-.37-.12-2.46-.84-3.3-2.91-.31-.76-.35-1.47-.33-1.96l6.68.02c1.03.29,2.41.93,3.27,2.36.57.96.7,1.91.71,2.52Z"/>
              <path class="st47" d="M186.35,243.55v2.14c-.03.14-.1.48-.37.8-.3.35-.67.46-.8.5h-3.61c-.02-.62-.14-1.57-.71-2.53-.85-1.42-2.23-2.07-3.27-2.36l7.4.02c.13.02.59.09.96.49.34.37.4.8.41.93Z"/>
              <path class="st21" d="M177.39,236.84c-.25-.43-.82-.53-1.27-.63v-.77c.14.04.24.09.26.11.05.03.13.07.18.16.04.06.02.09.05.13.06.08.66.07.71,0,.15-.2-.2-.59-.22-.62-.23-.26-.6-.43-.98-.46v-.34s-.2,0-.2,0v.34c-.19,0-.39.05-.57.13-.14.06-.64.28-.75.77-.07.29.02.64.23.88.29.32.72.36,1.08.4v.82c-.26,0-.32,0-.39-.05-.11-.1-.04-.22-.15-.31-.05-.04-.78-.06-.8-.03-.09.1.06.41.23.59.26.28.68.43,1.11.45v.42s.2,0,.2,0v-.42c.45-.02.89-.17,1.14-.44.06-.06.22-.23.26-.49.05-.31-.1-.57-.13-.62ZM175.49,235.85c-.03-.14.05-.29.13-.36.08-.08.2-.1.31-.09v.76c-.23-.06-.4-.14-.44-.31ZM176.51,237.71c-.06.05-.1.03-.39.03v-.8c.22.03.4.08.47.23.09.18.05.44-.08.54Z"/>
            </g>
          </g>
          <g>
            <g>
              <path d="M242.45,256.87l.19-.21c.18.18.42.3.67.31.32,0,.51-.16.51-.4,0-.25-.18-.33-.41-.43l-.35-.16c-.23-.1-.49-.27-.49-.63s.33-.65.77-.65c.29,0,.55.13.72.31l-.17.2c-.15-.14-.33-.23-.56-.23-.27,0-.46.14-.46.36,0,.24.21.32.4.41l.35.15c.28.12.5.29.5.66,0,.39-.32.69-.84.69-.34,0-.64-.14-.86-.37Z"/>
              <path d="M244.46,256.29c0-.59.4-.95.82-.95.46,0,.72.33.72.85,0,.06,0,.13-.01.17h-1.22c.02.38.25.63.6.63.17,0,.32-.06.45-.14l.11.2c-.16.1-.35.19-.6.19-.48,0-.87-.36-.87-.95ZM245.73,256.14c0-.36-.16-.56-.45-.56-.25,0-.48.2-.52.56h.97Z"/>
              <path d="M246.46,256.64v-1s-.27,0-.27,0v-.23s.28-.02.28-.02l.04-.51h.26s0,.51,0,.51h.49s0,.25,0,.25h-.49s0,1.01,0,1.01c0,.22.07.35.28.35.06,0,.15-.02.21-.05l.06.23c-.1.03-.22.07-.34.07-.39,0-.52-.25-.51-.61Z"/>
              <path d="M247.65,256.64v-1s-.27,0-.27,0v-.23s.28-.02.28-.02l.04-.51h.26s0,.51,0,.51h.49s0,.25,0,.25h-.49s0,1.01,0,1.01c0,.22.07.35.28.35.06,0,.15-.02.21-.05l.06.23c-.1.03-.22.07-.34.07-.39,0-.52-.25-.51-.61Z"/>
              <path d="M248.81,254.82c0-.12.09-.2.21-.2s.21.08.21.2-.09.2-.21.2-.21-.08-.21-.2ZM248.86,255.39h.31s0,1.81,0,1.81h-.31s0-1.81,0-1.81Z"/>
              <path d="M249.78,255.39h.25s.03.26.03.26h.01c.17-.17.36-.31.61-.3.38,0,.55.25.55.71v1.15s-.31,0-.31,0v-1.11c0-.34-.1-.48-.34-.48-.19,0-.31.09-.5.28v1.31s-.31,0-.31,0v-1.81Z"/>
              <path d="M251.67,257.56c0-.16.1-.3.27-.41h0c-.09-.07-.16-.17-.16-.31,0-.15.11-.27.2-.34h0c-.12-.11-.23-.29-.23-.5,0-.4.31-.65.68-.64.1,0,.19.02.26.05h.63s0,.24,0,.24h-.37c.09.08.15.22.15.37,0,.39-.3.63-.67.63-.09,0-.19-.02-.27-.06-.07.05-.12.11-.12.21,0,.12.07.2.32.2h.35c.42,0,.63.14.63.44,0,.34-.36.63-.92.62-.44,0-.75-.18-.75-.49ZM253.04,257.47c0-.17-.13-.23-.36-.23h-.31c-.07,0-.16,0-.24-.03-.13.09-.19.2-.19.3,0,.19.2.32.52.32s.57-.18.57-.37ZM252.81,256.01c0-.26-.17-.42-.38-.42s-.39.16-.39.42.17.43.38.43.39-.17.39-.43Z"/>
              <path d="M253.49,257.01l.15-.2c.16.13.32.22.53.22.24,0,.36-.13.36-.28,0-.19-.21-.27-.41-.35-.25-.09-.54-.22-.54-.53,0-.29.23-.51.63-.51.23,0,.42.09.56.21l-.15.2c-.12-.09-.25-.16-.41-.16-.23,0-.33.12-.33.26,0,.17.2.24.4.32.26.1.55.21.55.55,0,.29-.24.54-.66.54-.26,0-.51-.11-.68-.25Z"/>
            </g>
            <g>
              <path d="M210.38,254.63h.35s.82,2.45.82,2.45h-.33s-.42-1.37-.42-1.37c-.09-.27-.16-.54-.24-.83h-.01c-.08.28-.16.55-.25.82l-.44,1.37h-.32s.84-2.45.84-2.45ZM209.98,256.08h1.13s0,.25,0,.25h-1.13s0-.25,0-.25Z"/>
              <path d="M211.87,255.27h.25s.03.21.03.21h.01c.16-.14.37-.25.58-.25.47,0,.72.37.72.93,0,.62-.37.98-.79.98-.17,0-.34-.08-.5-.21v.32s0,.61,0,.61h-.31s0-2.58,0-2.58ZM213.14,256.16c0-.4-.13-.67-.48-.67-.15,0-.31.08-.49.25v.95c.16.14.32.19.44.19.3,0,.52-.27.52-.72Z"/>
              <path d="M213.94,255.28h.25s.03.21.03.21h.01c.16-.14.37-.25.58-.25.47,0,.72.37.72.93,0,.62-.37.98-.79.98-.17,0-.34-.08-.5-.21v.32s0,.61,0,.61h-.31s0-2.58,0-2.58ZM215.21,256.16c0-.4-.13-.67-.48-.67-.15,0-.31.08-.49.25v.95c.16.14.32.19.44.19.3,0,.52-.27.52-.72Z"/>
              <path d="M215.8,256.89l.15-.2c.16.13.32.22.53.22.24,0,.36-.13.36-.28,0-.19-.21-.27-.41-.35-.25-.09-.54-.22-.54-.53,0-.29.23-.51.63-.51.23,0,.42.09.56.21l-.15.2c-.12-.09-.25-.16-.41-.16-.23,0-.33.12-.33.26,0,.17.2.24.4.32.26.1.55.21.55.55,0,.29-.24.54-.66.54-.26,0-.51-.11-.68-.25Z"/>
            </g>
            <g>
              <path class="st49" d="M227.03,228.44c-.07-.2-.21-.54-.52-.87-.27-.28-.55-.44-.73-.53-7.84-.02-15.69-.03-23.53-.05-.19.05-.67.21-1.05.68-.22.28-.32.56-.37.73-.16,14.15-.23,23.08-.1,23.47.1.32.27.55.44.74.38.4.84.55,1.07.61,10.92.09,23.14.15,23.35.08.4-.14.66-.38.79-.5,0,0,.41-.32.58-.81.03-.1.05-12.33.08-23.55ZM226.62,251.66c-.17.48-.56.79-.56.79-.12.12-.37.35-.77.48-.2.07-12.11.02-22.75-.07-.23-.06-.68-.2-1.04-.59-.17-.18-.33-.4-.43-.72-.12-.37-.05-9.07.1-22.82.05-.17.14-.45.36-.71.37-.46.84-.61,1.02-.66,7.64.02,15.28.03,22.93.05.18.08.45.24.71.51.3.32.44.65.51.84-.03,10.91-.04,22.81-.07,22.9Z"/>
              <path class="st21" d="M226.62,251.66c-.17.48-.56.79-.56.79-.12.12-.37.35-.77.48-.2.07-12.11.02-22.75-.07-.23-.06-.68-.2-1.04-.59-.17-.18-.33-.4-.43-.72-.12-.37-.05-9.07.1-22.82.05-.17.14-.45.36-.71.37-.46.84-.61,1.02-.66,7.64.02,15.28.03,22.93.05.18.08.45.24.71.51.3.32.44.65.51.84-.03,10.91-.04,22.81-.07,22.9Z"/>
              <g>
                <path class="st13" d="M223.28,239.5l-7.46-.02c-.12-.02-.58-.12-.9-.54-.2-.26-.26-.53-.28-.67l.02-7.53c4.63.4,8.3,4.12,8.62,8.77Z"/>
                <path class="st40" d="M213.2,230.72l-.02,7.48c-.02.14-.08.41-.29.67-.32.42-.78.51-.9.54l-7.57-.02c.37-4.66,4.11-8.36,8.78-8.67Z"/>
                <path class="st45" d="M213.13,249.58c-4.63-.34-8.33-4.02-8.71-8.64,2.47,0,4.93.01,7.4.02.11,0,.52,0,.87.31.46.39.46.95.46,1.03,0,2.43-.01,4.86-.02,7.28Z"/>
                <path class="st42" d="M223.26,241c-.41,4.58-4.08,8.22-8.66,8.58,0-2.43.02-4.85.03-7.28,0-.08,0-.64.47-1.03.36-.3.77-.31.88-.31,2.43.01,4.86.02,7.29.03Z"/>
              </g>
            </g>
            <g>
              <path class="st49" d="M262.04,228.55c-.07-.2-.21-.54-.52-.87-.27-.28-.55-.44-.73-.53-7.84-.02-15.69-.03-23.53-.05-.19.05-.67.21-1.05.68-.22.28-.32.56-.37.73-.16,14.15-.23,23.08-.1,23.47.1.32.27.55.44.74.38.4.84.55,1.07.61,10.92.09,23.14.15,23.35.08.4-.14.66-.38.79-.5,0,0,.41-.32.58-.81.03-.1.05-12.33.08-23.55ZM261.63,251.77c-.17.48-.56.79-.56.79-.12.12-.37.35-.77.48-.2.07-12.11.02-22.75-.07-.23-.06-.68-.2-1.04-.59-.17-.18-.33-.4-.43-.72-.12-.37-.05-9.07.1-22.82.05-.17.14-.45.36-.71.37-.46.84-.61,1.02-.66,7.64.02,15.28.03,22.93.05.18.08.45.24.71.51.3.32.44.65.51.84-.03,10.91-.04,22.81-.07,22.9Z"/>
              <path class="st21" d="M261.63,251.77c-.17.48-.56.79-.56.79-.12.12-.37.35-.77.48-.2.07-12.11.02-22.75-.07-.23-.06-.68-.2-1.04-.59-.17-.18-.33-.4-.43-.72-.12-.37-.05-9.07.1-22.82.05-.17.14-.45.36-.71.37-.46.84-.61,1.02-.66,7.64.02,15.28.03,22.93.05.18.08.45.24.71.51.3.32.44.65.51.84-.03,10.91-.04,22.81-.07,22.9Z"/>
              <g>
                <path class="st27" d="M248.86,232.49l-.02,4.79c-1.66,0-3.02,1.34-3.02,3,0,.49.11.95.32,1.36l-4.17,2.46c-.19-.34-.18-.69-.18-.82l.02-6.25c.02-.19.09-.5.29-.8.18-.27.39-.42.49-.49,1.8-1.24,4.25-2.32,5.36-2.97.13-.08.46-.27.9-.28Z"/>
                <path class="st44" d="M255.9,243.66c-.01.15-.05.31-.13.47l-4.25-2.47h0c.21-.41.33-.87.33-1.36,0-1.66-1.34-3.02-3-3.02l.02-4.79c.43,0,.75.16.9.23,3.29,1.73,3.97,2.14,5.29,3,.14.09.47.3.67.7.19.38.18.74.18.88-.02.75,0,3.12,0,6.36Z"/>
                <path class="st29" d="M255.77,244.13c-.03.07-.08.13-.13.2-.14.16-3.59,2.46-5.98,3.51-.13.06-.48.23-.93.2-.41-.02-.7-.19-.82-.26-.94-.53-1.41-.8-5.37-3.13-.11-.06-.38-.22-.56-.54,0,0,0,0,0,0l4.17-2.46c.49.98,1.51,1.66,2.68,1.66s2.19-.67,2.69-1.64l4.25,2.47Z"/>
              </g>
            </g>
          </g>
        </g>
        <g>
          <g>
            <path d="M625.83,218.99c0-.79.47-1.27,1.09-1.27.3,0,.53.15.67.3l-.17.2c-.13-.14-.29-.23-.5-.23-.46,0-.77.38-.77.99s.29,1,.75,1c.23,0,.41-.1.57-.27l.17.2c-.19.22-.43.35-.75.35-.61,0-1.06-.47-1.06-1.27Z"/>
            <path d="M627.94,219.31c0-.6.4-.95.84-.95s.84.35.84.96-.4.95-.84.95-.84-.35-.84-.95ZM629.3,219.32c0-.42-.21-.7-.52-.7s-.52.28-.53.7.21.69.52.69.52-.28.53-.69Z"/>
            <path d="M630.1,218.41h.25s.03.26.03.26h.01c.17-.17.36-.3.61-.3.38,0,.55.25.55.71v1.15s-.31,0-.31,0v-1.11c0-.34-.1-.48-.34-.48-.19,0-.31.09-.5.28v1.31s-.31,0-.31,0v-1.81Z"/>
            <path d="M632.18,219.67v-1s-.27,0-.27,0v-.23s.28-.02.28-.02l.04-.51h.26s0,.51,0,.51h.49s0,.25,0,.25h-.49s0,1.01,0,1.01c0,.22.07.35.28.35.06,0,.15-.02.21-.05l.06.23c-.1.03-.22.07-.34.07-.39,0-.52-.25-.51-.61Z"/>
            <path d="M633.2,219.76c0-.39.34-.59,1.12-.67,0-.23-.08-.46-.37-.46-.21,0-.4.1-.54.19l-.12-.21c.17-.11.42-.24.71-.23.44,0,.63.3.63.75v1.11s-.26,0-.26,0l-.03-.22h-.01c-.17.14-.38.26-.6.26-.3,0-.53-.19-.53-.52ZM634.31,219.79v-.5c-.61.07-.81.22-.81.45,0,.21.14.29.32.29s.32-.08.5-.24Z"/>
            <path d="M635.06,219.33c0-.6.41-.95.88-.95.24,0,.4.1.53.21l-.16.2c-.11-.1-.22-.16-.36-.16-.33,0-.57.28-.57.7s.23.69.56.7c.17,0,.31-.08.43-.18l.13.21c-.16.14-.37.23-.59.23-.48,0-.85-.35-.85-.95Z"/>
            <path d="M636.91,219.68v-1s-.27,0-.27,0v-.23s.28-.02.28-.02l.04-.51h.26s0,.51,0,.51h.49s0,.25,0,.25h-.49s0,1.01,0,1.01c0,.22.07.35.28.35.06,0,.15-.02.21-.05l.06.23c-.1.03-.22.07-.34.07-.39,0-.52-.25-.51-.61Z"/>
            <path d="M637.87,220.04l.15-.2c.16.13.32.22.53.22.24,0,.36-.13.36-.28,0-.19-.21-.27-.41-.34-.25-.09-.54-.22-.54-.53,0-.29.23-.51.63-.51.23,0,.42.09.56.21l-.15.2c-.12-.09-.25-.16-.41-.16-.23,0-.33.12-.33.26,0,.17.2.24.4.32.26.1.55.21.55.55,0,.29-.24.54-.66.54-.26,0-.51-.11-.68-.25Z"/>
          </g>
          <g>
            <path d="M664.6,219.11c0-.79.47-1.27,1.09-1.27.3,0,.53.15.67.3l-.17.2c-.13-.14-.29-.23-.5-.23-.46,0-.77.38-.77.99s.29,1,.75,1c.23,0,.41-.1.57-.27l.17.2c-.19.22-.43.35-.75.35-.61,0-1.06-.47-1.06-1.27Z"/>
            <path d="M666.87,217.89h.77c.5,0,.86.18.85.69s-.36.72-.86.72h-.45s0,1.03,0,1.03h-.31s0-2.45,0-2.45ZM667.59,219.05c.38,0,.59-.15.59-.47s-.21-.44-.59-.44h-.41s0,.91,0,.91h.41ZM667.57,219.22l.24-.16.74,1.28h-.35s-.63-1.12-.63-1.12Z"/>
            <path d="M668.99,217.9h.37s.46,1.31.46,1.31c.06.17.11.34.17.51h.01c.06-.17.11-.34.17-.51l.47-1.31h.37s0,2.45,0,2.45h-.29s0-1.35,0-1.35c0-.21.03-.51.04-.72h-.01s-.2.56-.2.56l-.46,1.26h-.21s-.46-1.27-.46-1.27l-.19-.56h-.01c.01.22.04.51.04.72v1.35s-.29,0-.29,0v-2.45Z"/>
          </g>
          <g>
            <path class="st49" d="M645.72,191.75c-.07-.2-.21-.54-.52-.87-.27-.28-.55-.44-.73-.53-7.84-.02-15.68-.03-23.52-.05-.19.05-.67.21-1.05.68-.22.28-.32.55-.37.73-.16,14.14-.23,23.07-.1,23.45.1.32.27.55.44.74.38.4.84.55,1.07.61,10.91.09,23.13.15,23.33.08.4-.14.66-.38.79-.5,0,0,.41-.32.58-.81.03-.1.05-12.32.08-23.53ZM645.3,214.95c-.17.48-.56.79-.56.79-.12.12-.37.35-.77.48-.2.07-12.1.02-22.73-.07-.23-.06-.67-.2-1.04-.59-.17-.18-.33-.4-.43-.72-.12-.37-.05-9.06.1-22.81.05-.17.14-.44.36-.71.37-.46.84-.61,1.02-.66,7.64.02,15.27.03,22.91.05.18.08.45.24.71.51.3.32.44.65.51.84-.03,10.91-.04,22.79-.07,22.89Z"/>
            <path class="st21" d="M645.3,214.95c-.17.48-.56.79-.56.79-.12.12-.37.35-.77.48-.2.07-12.1.02-22.73-.07-.23-.06-.67-.2-1.04-.59-.17-.18-.33-.4-.43-.72-.12-.37-.05-9.06.1-22.81.05-.17.14-.44.36-.71.37-.46.84-.61,1.02-.66,7.64.02,15.27.03,22.91.05.18.08.45.24.71.51.3.32.44.65.51.84-.03,10.91-.04,22.79-.07,22.89Z"/>
            <path class="st39" d="M627.33,197.15c-.14.03-.4.1-.65.31-.36.3-.46.68-.49.82l-.04,12.99,11.83.04c.27-.06.97-.27,1.57-.92.63-.69.77-1.45.8-1.72l.04-11.47-13.06-.04ZM632.16,198.97c1.25,0,2.26,1.02,2.26,2.27s-1.02,2.26-2.27,2.26-2.26-1.02-2.26-2.27,1.02-2.26,2.27-2.26ZM629.49,205.85c.8-1.03,1.93-1.22,2.17-1.25h4.26c-.01.3-.11,1.45-1.04,2.38-.7.7-1.51.91-1.84.97h-4.26c0-.3.03-1.23.7-2.09Z"/>
            <path class="st6" d="M638.93,197.18v-1.54c-3.97-.01-7.95-.02-11.93-.04-.25.06-1.07.28-1.67,1.05-.44.56-.56,1.13-.6,1.41-.01,3.88-.03,7.77-.04,11.65.49,0,.98,0,1.47.01,3.85.03,7.7.07,11.55.1.13-.02.53-.1.85-.46.23-.26.31-.53.34-.67.01-3.84.02-7.68.04-11.53ZM634.41,201.24c0,1.25-1.02,2.26-2.27,2.26s-2.26-1.02-2.26-2.27,1.02-2.26,2.27-2.26,2.26,1.02,2.26,2.27ZM634.88,206.97c-.7.7-1.51.91-1.84.97h-4.26c0-.3.03-1.23.7-2.09.8-1.03,1.93-1.22,2.17-1.25h4.26c-.01.3-.11,1.45-1.04,2.38Z"/>
            <path class="st21" d="M635.92,204.61c-.01.29-.11,1.43-1.04,2.36-.7.7-1.51.91-1.84.97h-4.26c0-.3.03-1.23.7-2.09.8-1.03,1.93-1.22,2.17-1.25h4.26Z"/>
            <circle class="st21" cx="632.15" cy="201.23" r="2.26"/>
          </g>
          <g>
            <path class="st49" d="M681.56,191.83c-.07-.2-.21-.54-.52-.87-.27-.28-.55-.44-.73-.53-7.84-.02-15.68-.03-23.52-.05-.19.05-.67.21-1.05.68-.22.28-.32.55-.37.73-.16,14.14-.23,23.07-.1,23.45.1.32.27.55.44.74.38.4.84.55,1.07.61,10.91.09,23.13.15,23.33.08.4-.14.66-.38.79-.5,0,0,.41-.32.58-.81.03-.1.05-12.32.08-23.53ZM681.15,215.04c-.17.48-.56.79-.56.79-.12.12-.37.35-.77.48-.2.07-12.1.02-22.73-.07-.23-.06-.67-.2-1.04-.59-.17-.18-.33-.4-.43-.72-.12-.37-.05-9.06.1-22.81.05-.17.14-.44.36-.71.37-.46.84-.61,1.02-.66,7.64.02,15.27.03,22.91.05.18.08.45.24.71.51.3.32.44.65.51.84-.03,10.91-.04,22.79-.07,22.89Z"/>
            <path class="st21" d="M681.15,215.04c-.17.48-.56.79-.56.79-.12.12-.37.35-.77.48-.2.07-12.1.02-22.73-.07-.23-.06-.67-.2-1.04-.59-.17-.18-.33-.4-.43-.72-.12-.37-.05-9.06.1-22.81.05-.17.14-.44.36-.71.37-.46.84-.61,1.02-.66,7.64.02,15.27.03,22.91.05.18.08.45.24.71.51.3.32.44.65.51.84-.03,10.91-.04,22.79-.07,22.89Z"/>
            <g>
              <path class="st31" d="M677.74,199.77c-.52.57-1.15,1.23-1.88,1.95-.47.46-1.06,1.04-1.66,1.56-1-1.02-2.01-2.04-3.01-3.06-.68-.69-1.36-1.38-2.04-2.07-.2-.2-.39-.4-.59-.6-.02-.02-.03-.04-.05-.05h.14s.96,0,.96,0h6.72s.27.02.27.02c.19.05.55.16.83.48.64.71.32,1.73.3,1.78Z"/>
              <path class="st43" d="M668.44,209.06s-.03.03-.04.04c-.15.14-.62.55-1.29.48-.4-.04-.67-.24-.8-.34l-3.61-3.71c-.05-.1-.22-.46-.1-.93.12-.49.48-.74.57-.8,0,0,0,0,.01-.01,1.75,1.75,3.5,3.51,5.26,5.26Z"/>
              <path class="st43" d="M668.84,208.35c-.08.35-.28.59-.4.71-1.75-1.75-3.5-3.51-5.26-5.26.11-.12.29-.27.53-.37.45-.18.87-.08.93-.07.01,0,.03,0,.05,0,1.35,1.37,2.7,2.74,4.04,4.11h0c.06.19.19.49.11.89Z"/>
              <path class="st43" d="M671.19,200.21c-.72-.16-1.25-.07-1.6.05-1.61.54-1.95,2.23-3.04,2.18-.2-.01-.39-.08-.57-.18-.37-.22-.65-.6-.71-.98-.06-.36.09-.79,1.58-2.21.43-.41,1-.93,1.72-1.52.2.2.39.4.59.6.68.69,1.36,1.38,2.04,2.07Z"/>
              <path class="st9" d="M674.71,204.41c0,.29-.09.52-.16.64-1.41,1.42-2.82,2.84-4.23,4.26-.08.06-.37.31-.82.31-.43,0-.72-.22-.8-.29-.09-.09-.18-.18-.27-.27-1.75-1.75-3.5-3.51-5.26-5.26-1.36-1.36-2.72-2.73-4.09-4.09-.06-.14-.23-.62-.05-1.18.23-.72.85-1.01.95-1.05,0,0,0,0,0,0h8.46s.05.01.05.01c.02.02.03.04.05.05.2.2.39.4.59.6.68.69,1.36,1.38,2.04,2.07,1,1.02,2.01,2.04,3.01,3.06.08.08.16.16.24.24.08.12.29.45.28.9Z"/>
            </g>
          </g>
          <g>
            <g>
              <path d="M729.16,218.59h.61c.75,0,1.15.44,1.15,1.22s-.41,1.23-1.15,1.23h-.63s0-2.45,0-2.45ZM729.74,220.78c.57,0,.86-.36.86-.97s-.28-.96-.85-.96h-.28s0,1.94,0,1.94h.28Z"/>
              <path d="M731.3,220.57c0-.39.34-.59,1.12-.67,0-.23-.08-.46-.37-.46-.21,0-.4.1-.54.19l-.12-.21c.17-.11.42-.24.71-.23.44,0,.63.3.63.75v1.11s-.26,0-.26,0l-.03-.22h-.01c-.17.14-.38.26-.6.26-.3,0-.53-.19-.53-.52ZM732.42,220.6v-.5c-.61.07-.81.22-.81.45,0,.21.14.29.32.29s.32-.08.5-.24Z"/>
              <path d="M733.09,220.84l.15-.2c.16.13.32.22.53.22.24,0,.36-.13.36-.28,0-.19-.21-.27-.41-.34-.25-.09-.54-.22-.54-.53,0-.29.23-.51.63-.51.23,0,.42.09.56.21l-.15.2c-.12-.09-.25-.16-.41-.16-.23,0-.33.12-.33.26,0,.17.2.24.4.32.26.1.55.21.55.55,0,.29-.24.54-.66.54-.26,0-.51-.11-.68-.25Z"/>
              <path d="M734.86,218.4h.31s0,.73,0,.73v.37c.16-.16.34-.3.59-.3.38,0,.55.25.55.71v1.15s-.31,0-.31,0v-1.11c0-.34-.1-.48-.34-.48-.19,0-.31.09-.5.28v1.31s-.31,0-.31,0v-2.66Z"/>
              <path d="M737.17,220.87h-.01s-.03.19-.03.19h-.25s0-2.66,0-2.66h.31s0,.73,0,.73v.32c.16-.14.36-.25.56-.25.47,0,.72.37.72.92,0,.62-.37.98-.79.98-.17,0-.36-.09-.52-.23ZM738.15,220.13c0-.4-.13-.67-.48-.67-.15,0-.31.08-.49.25v.95c.16.14.32.19.44.19.3,0,.52-.27.52-.72Z"/>
              <path d="M738.81,220.16c0-.6.4-.95.84-.95s.84.35.84.96-.4.95-.84.95-.84-.35-.84-.95ZM740.18,220.17c0-.42-.21-.7-.52-.7s-.52.28-.53.7.21.69.52.69.52-.28.53-.69Z"/>
              <path d="M740.8,220.6c0-.39.34-.59,1.12-.67,0-.23-.08-.46-.37-.46-.21,0-.4.1-.54.19l-.12-.21c.17-.11.42-.24.71-.23.44,0,.63.3.63.75v1.11s-.26,0-.26,0l-.03-.22h-.01c-.17.14-.38.26-.6.26-.3,0-.53-.19-.53-.52ZM741.92,220.64v-.5c-.61.07-.81.22-.81.45,0,.21.14.29.32.29s.32-.08.5-.24Z"/>
              <path d="M742.8,219.27h.25s.02.33.02.33h.01c.13-.23.31-.37.52-.37.08,0,.14.01.19.04l-.06.27c-.06-.02-.1-.03-.18-.03-.15,0-.34.11-.46.42v1.16s-.31,0-.31,0v-1.81Z"/>
              <path d="M743.92,220.18c0-.59.37-.95.79-.95.21,0,.35.08.51.21v-.31s0-.7,0-.7h.31s0,2.66,0,2.66h-.25s-.03-.21-.03-.21h-.01c-.14.14-.33.26-.55.26-.45,0-.75-.35-.74-.95ZM745.2,220.63v-.95c-.15-.14-.29-.19-.44-.19-.29,0-.52.28-.52.69,0,.43.18.69.5.69.17,0,.31-.08.47-.25Z"/>
              <path d="M745.92,220.88l.15-.2c.16.13.32.22.53.22.24,0,.36-.13.36-.28,0-.19-.21-.27-.41-.34-.25-.09-.54-.22-.54-.53,0-.29.23-.51.63-.51.23,0,.42.09.56.21l-.15.2c-.12-.09-.25-.16-.41-.16-.23,0-.33.12-.33.26,0,.17.2.24.4.32.26.1.55.21.55.55,0,.29-.24.54-.66.54-.26,0-.51-.11-.68-.25Z"/>
            </g>
            <g>
              <path d="M699.01,220.21l.19-.21c.18.18.42.3.67.31.32,0,.51-.16.51-.4,0-.25-.18-.33-.41-.43l-.35-.16c-.23-.1-.49-.27-.49-.63s.33-.65.77-.65c.29,0,.55.13.72.31l-.17.2c-.15-.14-.33-.23-.55-.23-.27,0-.46.14-.46.36,0,.24.21.32.4.41l.35.15c.28.12.5.29.5.66,0,.39-.32.69-.84.69-.34,0-.64-.14-.85-.37Z"/>
              <path d="M701.04,220.06c0-.39.34-.59,1.12-.67,0-.23-.08-.46-.37-.46-.21,0-.4.1-.54.19l-.12-.21c.17-.11.42-.24.71-.23.44,0,.63.3.63.75v1.11s-.26,0-.26,0l-.03-.22h-.01c-.17.14-.38.26-.6.26-.3,0-.53-.19-.53-.52ZM702.15,220.09v-.5c-.61.07-.81.22-.81.45,0,.21.14.29.32.29s.32-.08.5-.24Z"/>
              <path d="M703.03,220.17v-2.29s.31,0,.31,0v2.31c0,.09.03.13.08.13.02,0,.03,0,.07,0l.04.23s-.1.03-.18.03c-.23,0-.32-.15-.32-.41Z"/>
              <path d="M703.85,219.64c0-.59.4-.95.82-.95.46,0,.72.33.72.85,0,.06,0,.13-.01.17h-1.22c.02.38.25.63.6.63.17,0,.32-.06.45-.14l.11.2c-.16.1-.35.19-.6.19-.48,0-.87-.36-.86-.95ZM705.11,219.49c0-.36-.16-.56-.44-.56-.25,0-.48.2-.52.56h.97Z"/>
              <path d="M705.63,220.34l.15-.2c.16.13.32.22.53.22.24,0,.36-.13.36-.28,0-.19-.21-.27-.41-.34-.25-.09-.54-.22-.54-.53,0-.29.23-.51.63-.51.23,0,.42.09.56.21l-.15.2c-.12-.09-.25-.16-.41-.16-.23,0-.33.12-.33.26,0,.17.2.24.4.32.26.1.55.21.55.55,0,.29-.24.54-.66.54-.26,0-.51-.11-.68-.25Z"/>
            </g>
            <g>
              <path class="st49" d="M716.65,191.95c-.07-.2-.21-.54-.52-.87-.27-.28-.55-.44-.73-.53-7.84-.02-15.68-.03-23.52-.05-.19.05-.67.21-1.05.68-.22.28-.32.55-.37.73-.16,14.14-.23,23.07-.1,23.45.1.32.27.55.44.74.38.4.84.55,1.07.61,10.91.09,23.13.15,23.33.08.4-.14.66-.38.79-.5,0,0,.41-.32.58-.81.03-.1.05-12.32.08-23.53ZM716.23,215.16c-.17.48-.56.79-.56.79-.12.12-.37.35-.77.48-.2.07-12.1.02-22.73-.07-.23-.06-.67-.2-1.04-.59-.17-.18-.33-.4-.43-.72-.12-.37-.05-9.06.1-22.81.05-.17.14-.44.36-.71.37-.46.84-.61,1.02-.66,7.64.02,15.27.03,22.91.05.18.08.45.24.71.51.3.32.44.65.51.84-.03,10.91-.04,22.79-.07,22.89Z"/>
              <g>
                <path class="st21" d="M716.23,215.16c-.17.48-.56.79-.56.79-.12.12-.37.35-.77.48-.2.07-12.1.02-22.73-.07-.23-.06-.67-.2-1.04-.59-.17-.18-.33-.4-.43-.72-.12-.37-.05-9.06.1-22.81.05-.17.14-.44.36-.71.37-.46.84-.61,1.02-.66,7.64.02,15.27.03,22.91.05.18.08.45.24.71.51.3.32.44.65.51.84-.03,10.91-.04,22.79-.07,22.89Z"/>
                <g>
                  <path class="st36" d="M703.05,202.17l-6.32-.02c-.13.02-.44.08-.72.35-.38.35-.42.81-.43.91,0,2.69-.02,5.39-.03,8.08l6.5.02c.07,0,.44-.04.71-.36.23-.27.24-.57.25-.66,0-2.77.02-5.55.03-8.32Z"/>
                  <path class="st17" d="M711.38,195.82l-6.32-.02c-.13.03-.44.14-.72.58-.38.59-.42,1.36-.43,1.54l-.04,13.6,6.5.02c.07-.01.44-.08.71-.61.23-.46.25-.96.25-1.11.02-4.66.03-9.33.05-13.99Z"/>
                  <path class="st7" d="M707.21,199.19l-6.32-.02c-.13.03-.44.11-.72.46-.38.47-.42,1.07-.43,1.21-.01,3.56-.02,7.12-.03,10.68l6.5.02c.07,0,.44-.06.71-.48.23-.36.25-.76.25-.87.01-3.66.02-7.32.04-10.99Z"/>
                </g>
              </g>
            </g>
            <g>
              <path class="st49" d="M751.22,192.48c-.07-.2-.21-.54-.52-.87-.27-.28-.55-.44-.73-.53-7.84-.02-15.68-.03-23.52-.05-.19.05-.67.21-1.05.68-.22.28-.32.55-.37.73-.16,14.14-.23,23.07-.1,23.45.1.32.27.55.44.74.38.4.84.55,1.07.61,10.91.09,23.13.15,23.33.08.4-.14.66-.38.79-.5,0,0,.41-.32.58-.81.03-.1.05-12.32.08-23.53ZM750.81,215.69c-.17.48-.56.79-.56.79-.12.12-.37.35-.77.48-.2.07-12.1.02-22.73-.07-.23-.06-.67-.2-1.04-.59-.17-.18-.33-.4-.43-.72-.12-.37-.05-9.06.1-22.81.05-.17.14-.44.36-.71.37-.46.84-.61,1.02-.66,7.64.02,15.27.03,22.91.05.18.08.45.24.71.51.3.32.44.65.51.84-.03,10.91-.04,22.79-.07,22.89Z"/>
              <path class="st21" d="M750.81,215.69c-.17.48-.56.79-.56.79-.12.12-.37.35-.77.48-.2.07-12.1.02-22.73-.07-.23-.06-.67-.2-1.04-.59-.17-.18-.33-.4-.43-.72-.12-.37-.05-9.06.1-22.81.05-.17.14-.44.36-.71.37-.46.84-.61,1.02-.66,7.64.02,15.27.03,22.91.05.18.08.45.24.71.51.3.32.44.65.51.84-.03,10.91-.04,22.79-.07,22.89Z"/>
              <g>
                <path class="st31" d="M738.09,196.34l-6.64-.02c-.13.02-.46.07-.75.29-.4.29-.44.67-.45.76,0,2.23-.01,4.47-.02,6.7l6.83.02c.18-.04.49-.13.73-.39.25-.27.29-.61.31-.82.06-.73.07-3.2,0-6.53Z"/>
                <path class="st11" d="M735.79,206.44c-1.52,0-3.03-.01-4.55-.02-.21.03-.56.1-.8.38-.17.2-.21.42-.23.56-.08.55-.11,2.27-.05,4.6,1.51,0,3.03.01,4.54.02.19-.04.55-.15.8-.46.21-.26.26-.55.29-.74.08-.69.1-2.28.01-4.34Z"/>
                <path class="st16" d="M741.1,206.45h-1.93c-.11.01-.39.07-.65.3-.29.26-.37.58-.4.69,0,1.54,0,3.07-.01,4.61h1.81c.13-.02.46-.12.75-.41.3-.3.39-.64.41-.77,0-1.47.02-2.95.03-4.42Z"/>
                <path class="st32" d="M745.95,206.47h-1.93c-.11.01-.39.07-.65.3-.29.26-.37.58-.4.69v4.61s1.79,0,1.79,0c.13-.03.46-.12.75-.41.3-.3.39-.64.41-.77,0-1.47.02-2.95.03-4.42Z"/>
                <path class="st18" d="M745.95,204.18v-1.93c-.03-.11-.09-.39-.32-.65-.26-.29-.58-.37-.69-.39-1.54,0-3.07.02-4.61.02v1.81c.04.13.14.46.43.74.3.3.64.38.77.41,1.47,0,2.95,0,4.42-.01Z"/>
                <path class="st23" d="M745.96,199.32v-1.93c-.03-.11-.09-.39-.32-.65-.26-.29-.58-.37-.69-.39-1.54,0-3.07.02-4.61.02v1.81c.04.13.14.46.43.74.3.3.64.38.77.41,1.47,0,2.95,0,4.42-.01Z"/>
              </g>
            </g>
          </g>
          <g>
            <path d="M661.14,254.44h1.42s0,.27,0,.27h-1.1s0,.77,0,.77h.93s0,.27,0,.27h-.93s0,.89,0,.89h1.14s0,.27,0,.27h-1.45s0-2.46,0-2.46Z"/>
            <path d="M663.31,255.95l-.55-.87h.33s.24.4.24.4c.06.1.12.2.18.3h.01c.06-.1.11-.2.17-.3l.22-.4h.32s-.55.9-.55.9l.59.92h-.33s-.27-.42-.27-.42c-.06-.11-.13-.22-.2-.33h-.01c-.06.1-.12.22-.18.33l-.25.42h-.32s.6-.95.6-.95Z"/>
            <path d="M664.64,255.08h.25s.03.21.03.21h.01c.16-.14.37-.25.58-.25.47,0,.72.37.72.93,0,.62-.38.98-.79.98-.17,0-.34-.08-.5-.21v.32s0,.62,0,.62h-.31s0-2.59,0-2.59ZM665.91,255.97c0-.4-.13-.67-.48-.67-.15,0-.31.08-.49.25v.95c.16.14.32.19.44.19.3,0,.52-.27.53-.72Z"/>
            <path d="M666.58,256c0-.59.4-.96.82-.95.46,0,.72.34.72.86,0,.06,0,.13-.01.17h-1.22c.02.38.26.63.6.63.17,0,.32-.06.45-.14l.11.2c-.16.1-.35.19-.6.19-.48,0-.87-.36-.87-.95ZM667.85,255.86c0-.36-.16-.56-.45-.56-.26,0-.48.2-.52.56h.97Z"/>
            <path d="M668.57,255.1h.25s.03.26.03.26h.01c.17-.17.36-.31.61-.31.38,0,.55.25.55.71v1.15s-.31,0-.31,0v-1.11c0-.34-.1-.48-.34-.48-.19,0-.32.09-.5.28v1.32s-.31,0-.31,0v-1.82Z"/>
            <path d="M670.41,256.71l.15-.2c.16.13.32.22.54.22.24,0,.36-.13.36-.28,0-.19-.21-.27-.41-.35-.25-.09-.54-.22-.54-.53,0-.29.23-.52.63-.51.23,0,.42.09.56.21l-.15.2c-.12-.09-.25-.16-.41-.16-.23,0-.34.12-.34.26,0,.17.2.24.4.32.26.1.55.21.55.55,0,.29-.24.54-.67.54-.26,0-.51-.11-.68-.25Z"/>
            <path d="M672.04,256.02c0-.59.4-.96.82-.95.46,0,.72.34.72.86,0,.06,0,.13-.01.17h-1.22c.02.38.26.63.6.63.17,0,.32-.06.45-.14l.11.2c-.16.1-.35.19-.6.19-.48,0-.87-.36-.87-.95ZM673.32,255.88c0-.36-.16-.56-.45-.56-.26,0-.48.2-.52.56h.97Z"/>
            <path d="M673.83,256.73l.15-.2c.16.13.32.22.54.22.24,0,.36-.13.36-.28,0-.19-.21-.27-.41-.35-.25-.09-.54-.22-.54-.53,0-.29.23-.52.63-.51.23,0,.42.09.56.21l-.15.2c-.12-.09-.25-.16-.41-.16-.23,0-.34.12-.34.26,0,.17.2.24.4.32.26.1.55.21.55.55,0,.29-.24.54-.67.54-.26,0-.51-.11-.68-.25Z"/>
          </g>
          <g>
            <path d="M625.84,254.97h-.74s0-.27,0-.27h1.8s0,.27,0,.27h-.74s0,2.19,0,2.19h-.31s0-2.19,0-2.19Z"/>
            <path d="M627.25,254.78c0-.12.09-.2.21-.2s.21.08.21.2-.09.2-.21.2-.21-.08-.21-.2ZM627.3,255.35h.31s0,1.82,0,1.82h-.31s0-1.82,0-1.82Z"/>
            <path d="M628.22,255.35h.25s.03.26.03.26h.01c.16-.17.35-.31.57-.31.28,0,.43.13.5.35.19-.2.38-.35.6-.34.37,0,.55.25.55.71v1.15s-.31,0-.31,0v-1.11c0-.34-.1-.48-.33-.48-.14,0-.29.09-.46.28v1.32s-.31,0-.31,0v-1.11c0-.34-.1-.48-.33-.48-.14,0-.29.09-.46.28v1.32s-.31,0-.31,0v-1.82Z"/>
            <path d="M631.19,256.27c0-.59.4-.96.82-.95.46,0,.72.34.72.86,0,.06,0,.13-.01.17h-1.22c.02.38.26.63.6.63.17,0,.32-.06.45-.14l.11.2c-.16.1-.35.19-.6.19-.48,0-.87-.36-.87-.95ZM632.46,256.13c0-.36-.16-.56-.45-.56-.26,0-.48.2-.52.56h.97Z"/>
            <path d="M633.81,255.95c0-.79.44-1.26,1.05-1.26s1.05.48,1.05,1.27-.44,1.28-1.05,1.28-1.05-.5-1.05-1.28ZM635.59,255.96c0-.61-.29-.99-.72-.99s-.73.38-.73.99.29,1.01.72,1.01.73-.39.73-1Z"/>
            <path d="M636.22,255.4l.26-.02h1.75s0,.26,0,.26h-2.01s0-.24,0-.24ZM636.46,255.14c0-.38.19-.61.57-.61.12,0,.24.03.33.07l-.07.23c-.08-.04-.15-.05-.24-.05-.18,0-.28.13-.29.37v2.05s-.31,0-.31,0v-2.06ZM637.53,255.1c0-.37.17-.6.53-.6.11,0,.22.03.3.06l-.07.23c-.07-.03-.14-.05-.21-.05-.17,0-.26.12-.26.35v2.1s-.31,0-.31,0v-2.11Z"/>
          </g>
          <g>
            <g>
              <path class="st49" d="M645.6,228.45c-.07-.2-.21-.54-.52-.87-.27-.29-.55-.44-.73-.53-7.87-.02-15.73-.03-23.6-.05-.19.05-.68.21-1.05.68-.22.28-.32.56-.37.74-.16,14.18-.23,23.15-.1,23.53.1.32.27.55.44.74.38.4.84.55,1.08.61,10.95.09,23.21.15,23.41.08.4-.14.66-.38.79-.5,0,0,.41-.32.58-.81.03-.1.05-12.36.08-23.61ZM645.19,251.74c-.17.48-.57.79-.57.79-.12.12-.38.35-.77.48-.2.07-12.14.02-22.81-.07-.23-.06-.68-.2-1.05-.59-.17-.18-.33-.41-.43-.72-.12-.38-.05-9.09.1-22.89.05-.17.14-.45.36-.72.37-.46.84-.61,1.03-.66,7.66.02,15.33.03,22.99.05.18.08.45.24.72.51.3.32.44.65.51.85-.03,10.94-.04,22.87-.07,22.96Z"/>
              <path class="st21" d="M645.19,251.74c-.17.48-.57.79-.57.79-.12.12-.38.35-.77.48-.2.07-12.14.02-22.81-.07-.23-.06-.68-.2-1.05-.59-.17-.18-.33-.41-.43-.72-.12-.38-.05-9.09.1-22.89.05-.17.14-.45.36-.72.37-.46.84-.61,1.03-.66,7.66.02,15.33.03,22.99.05.18.08.45.24.72.51.3.32.44.65.51.85-.03,10.94-.04,22.87-.07,22.96Z"/>
              <path class="st5" d="M640.84,245.42"/>
            </g>
            <g>
              <path class="st46" d="M633.29,232.29l-5.64,5.63-3.2-3.22c2.44-2.33,5.81-3.11,8.84-2.41Z"/>
              <path class="st37" d="M637.69,234.7l-6.63,6.66-3.42-3.44,5.64-5.63c1.63.38,3.16,1.19,4.41,2.41Z"/>
              <path class="st54" d="M640.07,238.72l-5.78,5.88-3.23-3.25,6.63-6.66s.02.02.03.03c1.14,1.13,1.92,2.51,2.35,4Z"/>
              <path class="st51" d="M638.29,247.45c-.27.34-.62.28-.62.28-.25,0-.45-.17-.57-.29l-2.82-2.84,5.78-5.88c.83,2.9.28,6.19-1.77,8.72Z"/>
              <path class="st53" d="M631.6,241.9c-1.02,1.03-6.07,6.09-6.32,6.33-.11.1-.23.1-.26.1-.1,0-.18-.06-.26-.1-.1-.07-.38-.41-.41-.47-.1-.31-.06-.51-.02-.62.02-.06,5.01-5.05,6.24-6.28l1.03,1.04Z"/>
            </g>
          </g>
          <g>
            <g>
              <path class="st49" d="M681.5,228.18c-.07-.2-.21-.54-.52-.87-.27-.29-.55-.44-.73-.53-7.87-.02-15.73-.03-23.6-.05-.19.05-.68.21-1.05.68-.22.28-.32.56-.37.74-.16,14.18-.23,23.15-.1,23.53.1.32.27.55.44.74.38.4.84.55,1.08.61,10.95.09,23.21.15,23.41.08.4-.14.66-.38.79-.5,0,0,.41-.32.58-.81.03-.1.05-12.36.08-23.61ZM681.09,251.47c-.17.48-.57.79-.57.79-.12.12-.38.35-.77.48-.2.07-12.14.02-22.81-.07-.23-.06-.68-.2-1.05-.59-.17-.18-.33-.41-.43-.72-.12-.38-.05-9.09.1-22.89.05-.17.14-.45.36-.72.37-.46.84-.61,1.03-.66,7.66.02,15.33.03,22.99.05.18.08.45.24.72.51.3.32.44.65.51.85-.03,10.94-.04,22.87-.07,22.96Z"/>
              <path class="st21" d="M681.09,251.47c-.17.48-.57.79-.57.79-.12.12-.38.35-.77.48-.2.07-12.14.02-22.81-.07-.23-.06-.68-.2-1.05-.59-.17-.18-.33-.41-.43-.72-.12-.38-.05-9.09.1-22.89.05-.17.14-.45.36-.72.37-.46.84-.61,1.03-.66,7.66.02,15.33.03,22.99.05.18.08.45.24.72.51.3.32.44.65.51.85-.03,10.94-.04,22.87-.07,22.96Z"/>
              <path class="st5" d="M676.74,245.15"/>
            </g>
            <g>
              <path class="st24" d="M665.58,235.4v.76c-.23-.06-.4-.14-.44-.31-.03-.14.05-.29.13-.36.08-.08.2-.1.31-.09Z"/>
              <path class="st24" d="M666.24,237.17c.09.18.05.44-.08.54-.06.05-.1.03-.39.03v-.8c.22.03.4.08.47.23Z"/>
              <path class="st24" d="M665.7,232.88c-2.03,0-3.68,1.63-3.69,3.66s1.63,3.68,3.66,3.69,3.68-1.63,3.69-3.66c0-2.03-1.63-3.68-3.66-3.69ZM667.17,237.45c-.04.26-.2.43-.26.49-.26.27-.69.42-1.14.44v.42s-.2,0-.2,0v-.42c-.43-.02-.85-.17-1.11-.45-.17-.18-.32-.49-.23-.59.02-.03.75-.01.8.03.11.09.04.21.15.31.07.06.13.05.39.05v-.82c-.36-.04-.79-.08-1.08-.4-.21-.24-.29-.59-.23-.88.11-.5.62-.71.75-.77.18-.08.37-.12.57-.13v-.34s.2,0,.2,0v.34c.39.03.75.2.98.46.02.03.37.42.22.62-.05.07-.65.08-.71,0-.03-.04-.02-.07-.05-.13-.05-.09-.13-.13-.18-.16-.02-.01-.13-.07-.26-.11v.77c.45.1,1.01.2,1.26.63.03.05.18.31.13.62Z"/>
              <circle class="st47" cx="673.05" cy="239.56" r="1.81"/>
              <path class="st14" d="M671.22,246.97l-7.03-.02c-.37-.12-2.46-.84-3.3-2.91-.31-.76-.35-1.47-.33-1.96l6.68.02c1.03.29,2.41.93,3.27,2.36.57.96.7,1.91.71,2.52Z"/>
              <path class="st47" d="M676,243.55v2.14c-.03.14-.1.48-.37.8-.3.35-.67.46-.8.5h-3.61c-.02-.62-.14-1.57-.71-2.53-.85-1.42-2.23-2.07-3.27-2.36l7.4.02c.13.02.59.09.96.49.34.37.4.8.41.93Z"/>
              <path class="st21" d="M667.05,236.84c-.25-.43-.82-.53-1.27-.63v-.77c.14.04.24.09.26.11.05.03.13.07.18.16.04.06.02.09.05.13.06.08.66.07.71,0,.15-.2-.2-.59-.22-.62-.23-.26-.6-.43-.98-.46v-.34s-.2,0-.2,0v.34c-.19,0-.39.05-.57.13-.14.06-.64.28-.75.77-.07.29.02.64.23.88.29.32.72.36,1.08.4v.82c-.26,0-.32,0-.39-.05-.11-.1-.04-.22-.15-.31-.05-.04-.78-.06-.8-.03-.09.1.06.41.23.59.26.28.68.43,1.11.45v.42s.2,0,.2,0v-.42c.45-.02.89-.17,1.14-.44.06-.06.22-.23.26-.49.05-.31-.1-.57-.13-.62ZM665.14,235.85c-.03-.14.05-.29.13-.36.08-.08.2-.1.31-.09v.76c-.23-.06-.4-.14-.44-.31ZM666.16,237.71c-.06.05-.1.03-.39.03v-.8c.22.03.4.08.47.23.09.18.05.44-.08.54Z"/>
            </g>
          </g>
          <g>
            <g>
              <path d="M732.11,256.87l.19-.21c.18.18.42.3.67.31.32,0,.51-.16.51-.4,0-.25-.18-.33-.41-.43l-.35-.16c-.23-.1-.49-.27-.49-.63s.33-.65.77-.65c.29,0,.55.13.72.31l-.17.2c-.15-.14-.33-.23-.56-.23-.27,0-.46.14-.46.36,0,.24.21.32.4.41l.35.15c.28.12.5.29.5.66,0,.39-.32.69-.84.69-.34,0-.64-.14-.86-.37Z"/>
              <path d="M734.12,256.29c0-.59.4-.95.82-.95.46,0,.72.33.72.85,0,.06,0,.13-.01.17h-1.22c.02.38.25.63.6.63.17,0,.32-.06.45-.14l.11.2c-.16.1-.35.19-.6.19-.48,0-.87-.36-.87-.95ZM735.38,256.14c0-.36-.16-.56-.45-.56-.25,0-.48.2-.52.56h.97Z"/>
              <path d="M736.12,256.64v-1s-.27,0-.27,0v-.23s.28-.02.28-.02l.04-.51h.26s0,.51,0,.51h.49s0,.25,0,.25h-.49s0,1.01,0,1.01c0,.22.07.35.28.35.06,0,.15-.02.21-.05l.06.23c-.1.03-.22.07-.34.07-.39,0-.52-.25-.51-.61Z"/>
              <path d="M737.3,256.64v-1s-.27,0-.27,0v-.23s.28-.02.28-.02l.04-.51h.26s0,.51,0,.51h.49s0,.25,0,.25h-.49s0,1.01,0,1.01c0,.22.07.35.28.35.06,0,.15-.02.21-.05l.06.23c-.1.03-.22.07-.34.07-.39,0-.52-.25-.51-.61Z"/>
              <path d="M738.46,254.82c0-.12.09-.2.21-.2s.21.08.21.2-.09.2-.21.2-.21-.08-.21-.2ZM738.51,255.39h.31s0,1.81,0,1.81h-.31s0-1.81,0-1.81Z"/>
              <path d="M739.43,255.39h.25s.03.26.03.26h.01c.17-.17.36-.31.61-.3.38,0,.55.25.55.71v1.15s-.31,0-.31,0v-1.11c0-.34-.1-.48-.34-.48-.19,0-.31.09-.5.28v1.31s-.31,0-.31,0v-1.81Z"/>
              <path d="M741.33,257.56c0-.16.1-.3.27-.41h0c-.09-.07-.16-.17-.16-.31,0-.15.11-.27.2-.34h0c-.12-.11-.23-.29-.23-.5,0-.4.31-.65.68-.64.1,0,.19.02.26.05h.63s0,.24,0,.24h-.37c.09.08.15.22.15.37,0,.39-.3.63-.67.63-.09,0-.19-.02-.27-.06-.07.05-.12.11-.12.21,0,.12.07.2.32.2h.35c.42,0,.63.14.63.44,0,.34-.36.63-.92.62-.44,0-.75-.18-.75-.49ZM742.69,257.47c0-.17-.13-.23-.36-.23h-.31c-.07,0-.16,0-.24-.03-.13.09-.19.2-.19.3,0,.19.2.32.52.32s.57-.18.57-.37ZM742.47,256.01c0-.26-.17-.42-.38-.42s-.39.16-.39.42.17.43.38.43.39-.17.39-.43Z"/>
              <path d="M743.15,257.01l.15-.2c.16.13.32.22.53.22.24,0,.36-.13.36-.28,0-.19-.21-.27-.41-.35-.25-.09-.54-.22-.54-.53,0-.29.23-.51.63-.51.23,0,.42.09.56.21l-.15.2c-.12-.09-.25-.16-.41-.16-.23,0-.33.12-.33.26,0,.17.2.24.4.32.26.1.55.21.55.55,0,.29-.24.54-.66.54-.26,0-.51-.11-.68-.25Z"/>
            </g>
            <g>
              <path d="M700.03,254.63h.35s.82,2.45.82,2.45h-.33s-.42-1.37-.42-1.37c-.09-.27-.16-.54-.24-.83h-.01c-.08.28-.16.55-.25.82l-.44,1.37h-.32s.84-2.45.84-2.45ZM699.63,256.08h1.13s0,.25,0,.25h-1.13s0-.25,0-.25Z"/>
              <path d="M701.53,255.27h.25s.03.21.03.21h.01c.16-.14.37-.25.58-.25.47,0,.72.37.72.93,0,.62-.37.98-.79.98-.17,0-.34-.08-.5-.21v.32s0,.61,0,.61h-.31s0-2.58,0-2.58ZM702.79,256.16c0-.4-.13-.67-.48-.67-.15,0-.31.08-.49.25v.95c.16.14.32.19.44.19.3,0,.52-.27.52-.72Z"/>
              <path d="M703.6,255.28h.25s.03.21.03.21h.01c.16-.14.37-.25.58-.25.47,0,.72.37.72.93,0,.62-.37.98-.79.98-.17,0-.34-.08-.5-.21v.32s0,.61,0,.61h-.31s0-2.58,0-2.58ZM704.86,256.16c0-.4-.13-.67-.48-.67-.15,0-.31.08-.49.25v.95c.16.14.32.19.44.19.3,0,.52-.27.52-.72Z"/>
              <path d="M705.45,256.89l.15-.2c.16.13.32.22.53.22.24,0,.36-.13.36-.28,0-.19-.21-.27-.41-.35-.25-.09-.54-.22-.54-.53,0-.29.23-.51.63-.51.23,0,.42.09.56.21l-.15.2c-.12-.09-.25-.16-.41-.16-.23,0-.33.12-.33.26,0,.17.2.24.4.32.26.1.55.21.55.55,0,.29-.24.54-.66.54-.26,0-.51-.11-.68-.25Z"/>
            </g>
            <g>
              <path class="st49" d="M716.68,228.44c-.07-.2-.21-.54-.52-.87-.27-.28-.55-.44-.73-.53-7.84-.02-15.69-.03-23.53-.05-.19.05-.67.21-1.05.68-.22.28-.32.56-.37.73-.16,14.15-.23,23.08-.1,23.47.1.32.27.55.44.74.38.4.84.55,1.07.61,10.92.09,23.14.15,23.35.08.4-.14.66-.38.79-.5,0,0,.41-.32.58-.81.03-.1.05-12.33.08-23.55ZM716.27,251.66c-.17.48-.56.79-.56.79-.12.12-.37.35-.77.48-.2.07-12.11.02-22.75-.07-.23-.06-.68-.2-1.04-.59-.17-.18-.33-.4-.43-.72-.12-.37-.05-9.07.1-22.82.05-.17.14-.45.36-.71.37-.46.84-.61,1.02-.66,7.64.02,15.28.03,22.93.05.18.08.45.24.71.51.3.32.44.65.51.84-.03,10.91-.04,22.81-.07,22.9Z"/>
              <path class="st21" d="M716.27,251.66c-.17.48-.56.79-.56.79-.12.12-.37.35-.77.48-.2.07-12.11.02-22.75-.07-.23-.06-.68-.2-1.04-.59-.17-.18-.33-.4-.43-.72-.12-.37-.05-9.07.1-22.82.05-.17.14-.45.36-.71.37-.46.84-.61,1.02-.66,7.64.02,15.28.03,22.93.05.18.08.45.24.71.51.3.32.44.65.51.84-.03,10.91-.04,22.81-.07,22.9Z"/>
              <g>
                <path class="st13" d="M712.93,239.5l-7.46-.02c-.12-.02-.58-.12-.9-.54-.2-.26-.26-.53-.28-.67l.02-7.53c4.63.4,8.3,4.12,8.62,8.77Z"/>
                <path class="st40" d="M702.85,230.72l-.02,7.48c-.02.14-.08.41-.29.67-.32.42-.78.51-.9.54l-7.57-.02c.37-4.66,4.11-8.36,8.78-8.67Z"/>
                <path class="st45" d="M702.79,249.58c-4.63-.34-8.33-4.02-8.71-8.64,2.47,0,4.93.01,7.4.02.11,0,.52,0,.87.31.46.39.46.95.46,1.03,0,2.43-.01,4.86-.02,7.28Z"/>
                <path class="st42" d="M712.92,241c-.41,4.58-4.08,8.22-8.66,8.58,0-2.43.02-4.85.03-7.28,0-.08,0-.64.47-1.03.36-.3.77-.31.88-.31,2.43.01,4.86.02,7.29.03Z"/>
              </g>
            </g>
            <g>
              <path class="st49" d="M751.7,228.55c-.07-.2-.21-.54-.52-.87-.27-.28-.55-.44-.73-.53-7.84-.02-15.69-.03-23.53-.05-.19.05-.67.21-1.05.68-.22.28-.32.56-.37.73-.16,14.15-.23,23.08-.1,23.47.1.32.27.55.44.74.38.4.84.55,1.07.61,10.92.09,23.14.15,23.35.08.4-.14.66-.38.79-.5,0,0,.41-.32.58-.81.03-.1.05-12.33.08-23.55ZM751.28,251.77c-.17.48-.56.79-.56.79-.12.12-.37.35-.77.48-.2.07-12.11.02-22.75-.07-.23-.06-.68-.2-1.04-.59-.17-.18-.33-.4-.43-.72-.12-.37-.05-9.07.1-22.82.05-.17.14-.45.36-.71.37-.46.84-.61,1.02-.66,7.64.02,15.28.03,22.93.05.18.08.45.24.71.51.3.32.44.65.51.84-.03,10.91-.04,22.81-.07,22.9Z"/>
              <path class="st21" d="M751.28,251.77c-.17.48-.56.79-.56.79-.12.12-.37.35-.77.48-.2.07-12.11.02-22.75-.07-.23-.06-.68-.2-1.04-.59-.17-.18-.33-.4-.43-.72-.12-.37-.05-9.07.1-22.82.05-.17.14-.45.36-.71.37-.46.84-.61,1.02-.66,7.64.02,15.28.03,22.93.05.18.08.45.24.71.51.3.32.44.65.51.84-.03,10.91-.04,22.81-.07,22.9Z"/>
              <g>
                <path class="st27" d="M738.51,232.49l-.02,4.79c-1.66,0-3.02,1.34-3.02,3,0,.49.11.95.32,1.36l-4.17,2.46c-.19-.34-.18-.69-.18-.82l.02-6.25c.02-.19.09-.5.29-.8.18-.27.39-.42.49-.49,1.8-1.24,4.25-2.32,5.36-2.97.13-.08.46-.27.9-.28Z"/>
                <path class="st44" d="M745.55,243.66c-.01.15-.05.31-.13.47l-4.25-2.47h0c.21-.41.33-.87.33-1.36,0-1.66-1.34-3.02-3-3.02l.02-4.79c.43,0,.75.16.9.23,3.29,1.73,3.97,2.14,5.29,3,.14.09.47.3.67.7.19.38.18.74.18.88-.02.75,0,3.12,0,6.36Z"/>
                <path class="st29" d="M745.42,244.13c-.03.07-.08.13-.13.2-.14.16-3.59,2.46-5.98,3.51-.13.06-.48.23-.93.2-.41-.02-.7-.19-.82-.26-.94-.53-1.41-.8-5.37-3.13-.11-.06-.38-.22-.56-.54,0,0,0,0,0,0l4.17-2.46c.49.98,1.51,1.66,2.68,1.66s2.19-.67,2.69-1.64l4.25,2.47Z"/>
              </g>
            </g>
          </g>
        </g>
        <path class="st3" d="M296.54,170.27c8.35-8.92,60.54-62.8,144.66-62.16,82.41.62,133.21,53.09,141.71,62.16"/>
        <g>
          <path class="st3" d="M296.54,186.77c.59-.63,1.41-1.5,2.44-2.55"/>
          <path class="st4" d="M303.97,179.35c18.61-17.48,66.7-55.27,137.23-54.75,72.46.54,120.48,41.17,136.8,57.15"/>
          <path class="st3" d="M580.47,184.22c1.02,1.05,1.84,1.91,2.44,2.55"/>
        </g>
        <path class="st3" d="M296.54,203.27c8.35-8.92,60.54-62.8,144.66-62.16,82.41.62,133.21,53.09,141.71,62.16"/>
        <g>
          <g class="st34">
            <path class="st49" d="M479.79,23.81c-.17-.52-.55-1.42-1.35-2.28-.7-.75-1.43-1.17-1.91-1.39-20.52-.15-41.05-.31-61.57-.46-.5.13-1.77.54-2.76,1.76-.58.72-.85,1.45-.98,1.91-.61,37.01-.91,60.4-.59,61.41.27.84.69,1.44,1.15,1.93.99,1.06,2.18,1.45,2.8,1.6,28.57.4,60.55.7,61.09.52,1.06-.35,1.74-.98,2.07-1.29,0,0,1.08-.84,1.53-2.12.09-.26.29-32.25.53-61.61ZM478.38,84.56c-.44,1.24-1.49,2.06-1.49,2.06-.32.3-.98.91-2.02,1.25-.53.18-31.69-.12-59.52-.51-.6-.15-1.76-.53-2.73-1.56-.45-.48-.86-1.06-1.12-1.88-.31-.98-.01-23.73.58-59.72.12-.45.38-1.16.95-1.86.96-1.19,2.2-1.59,2.69-1.71,20,.15,39.99.3,59.99.45.46.22,1.18.62,1.86,1.35.78.84,1.15,1.71,1.32,2.22-.23,28.55-.43,59.67-.51,59.92Z"/>
            <path class="st21" d="M478.38,84.56c-.44,1.24-1.49,2.06-1.49,2.06-.32.3-.98.91-2.02,1.25-.53.18-31.69-.12-59.52-.51-.6-.15-1.76-.53-2.73-1.56-.45-.48-.86-1.06-1.12-1.88-.31-.98-.01-23.73.58-59.72.12-.45.38-1.16.95-1.86.96-1.19,2.2-1.59,2.69-1.71,20,.15,39.99.3,59.99.45.46.22,1.18.62,1.86,1.35.78.84,1.15,1.71,1.32,2.22-.23,28.55-.43,59.67-.51,59.92Z"/>
            <g>
              <path class="st19" d="M469.58,45.68l-.19,22.68c0,.17-.03,1.28-.96,2.08-.94.82-2.06.68-2.23.65l-45.58-.41.22-25.42,48.75.42Z"/>
              <path class="st1" d="M469.54,50.22l-.16,18.14c0,.17-.03,1.28-.96,2.08-.94.82-2.06.68-2.23.65l-45.58-.41.18-20.57s.02.06.03.09c.18.5.46,1.16,1.06,1.76.71.71,1.52,1.02,2.01,1.16,14.15.14,28.3.28,42.45.42.68-.15,1.75-.51,2.47-1.45.48-.63.66-1.32.72-1.87Z"/>
              <path class="st10" d="M469.64,37.8l-.11,12.43c-.07.55-.24,1.24-.72,1.87-.72.94-1.79,1.3-2.47,1.45-14.15-.14-28.3-.28-42.45-.42-.49-.14-1.3-.45-2.01-1.16-.6-.6-.88-1.26-1.06-1.76-.01-.03-.02-.06-.03-.09l.08-9.5c0-.25-.02-1.21.69-2.08.83-1.02,2.02-1.11,2.22-1.13l45.86.39Z"/>
            </g>
          </g>
          <g class="st12">
            <g>
              <path class="st49" d="M594.66,58.84c.05-.55.06-1.52-.34-2.64-.35-.97-.86-1.65-1.21-2.04-18.86-8.28-37.72-16.56-56.57-24.84-.51-.08-1.84-.2-3.24.53-.82.43-1.36,1-1.66,1.38-15.23,33.87-24.79,55.3-24.9,56.36-.09.88.07,1.6.29,2.24.49,1.37,1.43,2.2,1.94,2.59,26.17,11.69,55.53,24.66,56.1,24.71,1.12.09,1.99-.21,2.42-.37,0,0,1.32-.35,2.25-1.34.18-.2,13.06-29.61,24.92-56.58ZM569.27,114.29c-.9.97-2.19,1.31-2.19,1.31-.42.15-1.27.45-2.35.35-.56-.05-29.16-12.68-54.66-24.07-.5-.38-1.42-1.18-1.89-2.52-.22-.62-.37-1.32-.29-2.18.1-1.03,9.4-21.87,24.21-54.82.29-.37.81-.92,1.62-1.34,1.36-.71,2.66-.59,3.16-.51,18.37,8.07,36.74,16.13,55.12,24.2.34.38.84,1.04,1.18,1.98.39,1.08.38,2.03.34,2.57-11.53,26.23-24.05,54.83-24.23,55.03Z"/>
              <path class="st21" d="M569.27,114.29c-.9.97-2.19,1.31-2.19,1.31-.42.15-1.27.45-2.35.35-.56-.05-29.16-12.68-54.66-24.07-.5-.38-1.42-1.18-1.89-2.52-.22-.62-.37-1.32-.29-2.18.1-1.03,9.4-21.87,24.21-54.82.29-.37.81-.92,1.62-1.34,1.36-.71,2.66-.59,3.16-.51,18.37,8.07,36.74,16.13,55.12,24.2.34.38.84,1.04,1.18,1.98.39,1.08.38,2.03.34,2.57-11.53,26.23-24.05,54.83-24.23,55.03Z"/>
              <path class="st0" d="M565.45,94.59"/>
            </g>
            <g>
              <path class="st24" d="M548.88,59.48l-.8,1.81c-.48-.39-.81-.76-.73-1.19.07-.38.43-.64.69-.73.28-.1.57-.03.84.11Z"/>
              <path class="st24" d="M548.62,64.43c.02.52-.34,1.1-.76,1.22-.19.05-.28-.03-.96-.35l.84-1.91c.49.3.86.61.88,1.05Z"/>
              <path class="st24" d="M551.81,53.58c-4.87-2.14-10.55.06-12.69,4.93s.06,10.55,4.93,12.69c4.87,2.14,10.55-.06,12.69-4.93s-.06-10.55-4.93-12.69ZM550.55,66.09c-.37.57-.92.81-1.14.9-.9.39-2.1.29-3.2-.13l-.44,1-.49-.21.44-1c-1.01-.5-1.87-1.29-2.19-2.24-.21-.61-.25-1.51.07-1.67.08-.04,1.82.76,1.89.91.17.34-.12.55.04.91.1.21.26.26.87.53l.87-1.96c-.84-.47-1.83-1.02-2.18-2.08-.26-.79-.09-1.71.37-2.35.78-1.07,2.22-1.07,2.61-1.07.51,0,1.02.11,1.49.29l.36-.81.49.21-.36.82c.89.48,1.6,1.26,1.87,2.14.03.09.45,1.4-.12,1.72-.19.11-1.65-.49-1.71-.75-.03-.13.03-.18.01-.36-.03-.26-.17-.44-.27-.56-.04-.04-.24-.29-.52-.53l-.81,1.84c.97.71,2.22,1.53,2.38,2.84.02.15.11.92-.34,1.62Z"/>
              <circle class="st47" cx="562.44" cy="77.3" r="4.73"/>
              <path class="st14" d="M550.28,93.17l-16.85-7.42c-.76-.68-5.03-4.59-4.87-10.45.06-2.15.7-3.89,1.27-5.05l16.02,7.05c2.17,1.78,4.81,4.77,5.37,9.08.37,2.9-.33,5.31-.93,6.78Z"/>
              <path class="st47" d="M565.36,89.96l-2.26,5.13c-.2.32-.72,1.06-1.71,1.54-1.09.52-2.08.42-2.45.36l-8.66-3.81c.6-1.47,1.3-3.89.93-6.78-.56-4.31-3.2-7.3-5.37-9.08l17.73,7.81c.29.17,1.31.83,1.78,2.19.44,1.26.12,2.33,0,2.66Z"/>
              <path class="st21" d="M550.89,64.47c-.15-1.31-1.4-2.13-2.38-2.84l.81-1.84c.28.24.48.48.52.53.1.12.24.3.27.56.02.19-.04.23-.01.36.06.27,1.52.86,1.71.75.56-.32.15-1.63.12-1.72-.28-.88-.98-1.65-1.87-2.14l.36-.82-.49-.21-.36.81c-.47-.19-.98-.29-1.49-.29-.39,0-1.83,0-2.61,1.07-.46.63-.63,1.55-.37,2.35.35,1.07,1.34,1.61,2.18,2.08l-.87,1.96c-.62-.27-.78-.32-.87-.53-.16-.35.13-.56-.04-.91-.07-.14-1.81-.95-1.89-.91-.32.16-.28,1.06-.07,1.67.32.95,1.17,1.74,2.19,2.24l-.44,1,.49.21.44-1c1.1.42,2.3.52,3.2.13.21-.09.76-.33,1.14-.9.45-.7.36-1.47.34-1.62ZM547.35,60.1c.07-.38.43-.64.69-.73.28-.1.57-.03.84.11l-.8,1.81c-.48-.39-.81-.76-.73-1.19ZM547.86,65.64c-.19.05-.28-.03-.96-.35l.84-1.91c.49.3.86.61.88,1.05.02.52-.34,1.1-.76,1.22Z"/>
            </g>
          </g>
          <g class="st48">
            <path class="st49" d="M363.79,30.96c-.35-.43-1.02-1.15-2.09-1.68-.93-.46-1.77-.6-2.3-.64-19.5,7.14-39,14.27-58.5,21.41-.42.3-1.48,1.14-1.99,2.65-.3.89-.29,1.67-.25,2.16,12.55,35.28,20.56,57.54,21.22,58.39.55.7,1.17,1.12,1.77,1.42,1.31.66,2.58.6,3.22.53,27.21-9.76,57.62-20.81,58.07-21.18.88-.71,1.3-1.54,1.5-1.95,0,0,.72-1.18.7-2.55,0-.27-11.17-30.66-21.36-58.56ZM384.01,89.02c.03,1.33-.68,2.48-.68,2.48-.2.4-.61,1.21-1.47,1.9-.44.35-30.07,11.13-56.57,20.63-.62.07-1.86.13-3.14-.51-.59-.29-1.19-.7-1.73-1.38-.64-.82-8.43-22.47-20.64-56.78-.04-.47-.05-1.24.24-2.1.49-1.47,1.52-2.28,1.94-2.58,19-6.95,37.99-13.9,56.99-20.86.51.04,1.34.17,2.24.62,1.04.52,1.69,1.21,2.03,1.63,9.91,27.13,20.76,56.69,20.77,56.95Z"/>
            <path class="st21" d="M384.01,89.02c.03,1.33-.68,2.48-.68,2.48-.2.4-.61,1.21-1.47,1.9-.44.35-30.07,11.13-56.57,20.63-.62.07-1.86.13-3.14-.51-.59-.29-1.19-.7-1.73-1.38-.64-.82-8.43-22.47-20.64-56.78-.04-.47-.05-1.24.24-2.1.49-1.47,1.52-2.28,1.94-2.58,19-6.95,37.99-13.9,56.99-20.86.51.04,1.34.17,2.24.62,1.04.52,1.69,1.21,2.03,1.63,9.91,27.13,20.76,56.69,20.77,56.95Z"/>
            <g>
              <path class="st27" d="M334.65,52.82l4.34,11.9c-4.14,1.51-6.26,6.08-4.76,10.22.44,1.21,1.15,2.25,2.03,3.08l-8.1,9.93c-.8-.68-1.07-1.55-1.19-1.88l-5.67-15.55c-.12-.5-.24-1.31-.02-2.24.2-.83.59-1.4.77-1.66,3.33-4.73,8.43-9.66,10.6-12.28.26-.31.89-1.09,1.98-1.52Z"/>
              <path class="st44" d="M362.35,74.11c.1.37.17.82.11,1.29l-12.83-2.25h0c.14-1.2.01-2.45-.43-3.67-1.51-4.14-6.08-6.26-10.22-4.76l-4.34-11.9c1.05-.41,2.02-.3,2.45-.24,9.77,1.29,11.81,1.69,15.89,2.62.44.1,1.43.32,2.29,1.12.82.76,1.12,1.66,1.24,2.01.63,1.88,2.84,7.75,5.83,15.78Z"/>
              <path class="st29" d="M362.46,75.4c-.02.2-.07.4-.15.61-.19.52-6.68,9.39-11.65,14.18-.27.26-.97,1-2.12,1.35-1.03.32-1.92.17-2.28.11-2.83-.46-4.24-.69-16.2-2.87-.33-.06-1.15-.2-1.9-.83,0,0,0,0,0,0l8.1-9.93c2.12,1.99,5.27,2.74,8.19,1.68,2.92-1.07,4.84-3.66,5.19-6.55l12.83,2.25Z"/>
            </g>
          </g>
          <g class="st30">
            <path class="st49" d="M258.63,72.42c-.46-.32-1.3-.82-2.47-1.03-1.02-.19-1.87-.08-2.39.02-16.76,12.26-33.52,24.52-50.28,36.78-.32.41-1.11,1.51-1.18,3.09-.04.94.18,1.69.36,2.14,21.84,30.42,35.7,49.59,36.56,50.22.72.52,1.43.75,2.1.88,1.44.27,2.65-.14,3.24-.39,23.44-16.91,49.59-35.96,49.93-36.43.65-.93.82-1.84.9-2.29,0,0,.37-1.33-.04-2.64-.08-.26-19.22-26.37-36.74-50.35ZM294.15,122.6c.39,1.27.03,2.57.03,2.57-.08.44-.25,1.33-.88,2.23-.32.46-25.81,19.02-48.64,35.5-.58.24-1.75.64-3.15.38-.65-.12-1.34-.34-2.04-.85-.85-.61-14.32-19.26-35.56-48.84-.17-.44-.39-1.17-.35-2.09.07-1.55.83-2.62,1.15-3.01,16.33-11.94,32.66-23.89,48.98-35.83.51-.1,1.33-.21,2.33-.02,1.14.21,1.96.7,2.41,1,17.04,23.33,35.66,48.71,35.73,48.97Z"/>
            <path class="st21" d="M294.15,122.6c.39,1.27.03,2.57.03,2.57-.08.44-.25,1.33-.88,2.23-.32.46-25.81,19.02-48.64,35.5-.58.24-1.75.64-3.15.38-.65-.12-1.34-.34-2.04-.85-.85-.61-14.32-19.26-35.56-48.84-.17-.44-.39-1.17-.35-2.09.07-1.55.83-2.62,1.15-3.01,16.33-11.94,32.66-23.89,48.98-35.83.51-.1,1.33-.21,2.33-.02,1.14.21,1.96.7,2.41,1,17.04,23.33,35.66,48.71,35.73,48.97Z"/>
            <g>
              <path class="st13" d="M267.97,101.9l-15.96,11.65c-.3.14-1.43.64-2.77.25-.84-.25-1.39-.73-1.66-1l-11.75-16.1c10.5-6.41,24.18-4.22,32.13,5.2Z"/>
              <path class="st40" d="M232.7,98.97l11.68,16c.18.33.47,1,.45,1.88-.04,1.4-.85,2.32-1.08,2.56l-16.18,11.81c-6.5-10.51-4.32-24.27,5.14-32.25Z"/>
              <path class="st45" d="M262.13,139.3c-10.42,6.53-24.09,4.48-32.13-4.78,5.27-3.86,10.54-7.71,15.81-11.57.23-.17,1.11-.8,2.35-.7,1.59.12,2.47,1.31,2.6,1.48,3.79,5.19,7.58,10.38,11.37,15.57Z"/>
              <path class="st42" d="M270.29,105.13c6.31,10.41,4.18,23.92-5.04,31.88-3.78-5.19-7.56-10.37-11.35-15.56-.13-.17-.99-1.38-.62-2.92.29-1.21,1.15-1.86,1.39-2.03,5.2-3.79,10.41-7.58,15.61-11.36Z"/>
            </g>
          </g>
          <g class="st20">
            <g>
              <path class="st49" d="M683.42,115.17c.14-.53.3-1.48.1-2.63-.18-1-.57-1.75-.84-2.19-17.03-11.17-34.06-22.35-51.1-33.52-.48-.16-1.77-.5-3.25-.01-.87.29-1.49.75-1.84,1.07-20.42,30.53-33.27,49.87-33.54,50.88-.23.84-.2,1.57-.08,2.23.25,1.42,1.04,2.38,1.47,2.84,23.6,15.71,50.11,33.18,50.66,33.32,1.07.27,1.97.12,2.42.04,0,0,1.35-.12,2.41-.94.21-.16,17.6-26.74,33.6-51.09ZM649.55,165.08c-1.04.8-2.35.92-2.35.92-.43.08-1.31.23-2.35-.04-.54-.14-26.36-17.16-49.36-32.46-.42-.45-1.19-1.39-1.43-2.77-.11-.64-.15-1.35.08-2.17.27-.99,12.76-19.79,32.62-49.49.35-.31.94-.76,1.8-1.04,1.44-.47,2.69-.14,3.16.02,16.59,10.89,33.19,21.77,49.78,32.66.27.43.65,1.15.82,2.13.2,1.12.04,2.04-.09,2.56-15.56,23.68-32.47,49.53-32.68,49.69Z"/>
              <path class="st21" d="M649.55,165.08c-1.04.8-2.35.92-2.35.92-.43.08-1.31.23-2.35-.04-.54-.14-26.36-17.16-49.36-32.46-.42-.45-1.19-1.39-1.43-2.77-.11-.64-.15-1.35.08-2.17.27-.99,12.76-19.79,32.62-49.49.35-.31.94-.76,1.8-1.04,1.44-.47,2.69-.14,3.16.02,16.59,10.89,33.19,21.77,49.78,32.66.27.43.65,1.15.82,2.13.2,1.12.04,2.04-.09,2.56-15.56,23.68-32.47,49.53-32.68,49.69Z"/>
            </g>
            <g>
              <path class="st55" d="M655.09,133.65c-4.53,6.74-12.65,9.63-19.5,8.97-2.72-.26-4.91-1.05-6.39-1.72-.69-.29-1.71-.76-2.9-1.43-1.2-.67-2.04-1.25-2.55-1.6-3.61-2.47-5.41-3.7-6.66-4.46-1.54-.94-2.96-2.07-4.52-2.97-.31-.18-.98-.56-1.53-1.32-.17-.23-.86-1.2-.79-2.44.04-.78.37-1.28,1.41-2.75,1.18-1.67,3.59-5.28,6.08-9.12,2.32-3.59,3.48-5.38,5.11-7.04,1.96-2,3.89-3.29,4.85-3.85,5.04-2.97,13.98-4.07,21.42.81,8.9,5.84,9.32,16.1,9.35,17.1.05,2.13-.17,7.05-3.37,11.82Z"/>
              <path class="st8" d="M655.09,133.65c-4.53,6.74-12.65,9.63-19.5,8.97-2.72-.26-4.91-1.05-6.39-1.72-.69-.29-1.71-.76-2.9-1.43-1.2-.67-2.04-1.25-2.55-1.6-3.61-2.47-5.41-3.7-6.66-4.46-1.54-.94-2.96-2.07-4.52-2.97-.31-.18-.98-.56-1.53-1.32-.01-.02-.03-.04-.05-.07,3.84,1.65,15.18,5.67,28.13,1.02,10.05-3.61,15.82-10.56,18.29-14.09.94,3.01,1.04,5.39,1.05,5.85.05,2.13-.17,7.05-3.37,11.82Z"/>
            </g>
          </g>
        </g>
        <text class="st22" transform="translate(381.79 322.91)"><tspan class="st41" x="0" y="0">MIGRACIÓN </tspan><tspan class="st52" x="70" y="0">(100%)</tspan></text>
      </g>
    </g>
  </g>
</svg>