<?xml version="1.0" encoding="UTF-8"?>
<svg xmlns="http://www.w3.org/2000/svg" version="1.1" viewBox="0 0 819.39 490.82">
  <!-- Generator: Adobe Illustrator 30.2.1, SVG Export Plug-In . SVG Version: 2.1.1 Build 1)  -->
  <defs>
    <style>
      .st0 {
        fill: #fafafa;
      }

      .st1 {
        fill: #2bd6c0;
      }

      .st1, .st2, .st3, .st4, .st5 {
        mix-blend-mode: multiply;
      }

      .st6 {
        fill: #128af4;
      }

      .st2 {
        fill: #fd8e92;
      }

      .st7 {
        stroke-width: .09px;
      }

      .st7, .st8 {
        stroke: #974782;
      }

      .st7, .st8, .st9 {
        fill: none;
        stroke-miterlimit: 10;
      }

      .st10 {
        fill: #37bffa;
      }

      .st11 {
        fill: #263238;
      }

      .st12 {
        fill: #aa6550;
      }

      .st13 {
        fill: #19d3bb;
      }

      .st14 {
        fill: #fbb842;
      }

      .st8, .st9 {
        stroke-width: .07px;
      }

      .st15 {
        fill: #fa494d;
      }

      .st16 {
        fill: #a35c90;
      }

      .st17 {
        fill: #fff;
      }

      .st18 {
        fill: #fc888d;
      }

      .st19 {
        fill: #3ec1fa;
      }

      .st20 {
        fill: #f8871f;
      }

      .st21 {
        fill: #455a64;
      }

      .st22 {
        fill: #b78876;
      }

      .st3 {
        fill: #2dd7c1;
      }

      .st23 {
        fill: #9a4d86;
      }

      .st24 {
        fill: #1fac8a;
      }

      .st25 {
        isolation: isolate;
      }

      .st26 {
        fill: #a0568c;
      }

      .st4 {
        fill: #fd9094;
      }

      .st27 {
        fill: #f88b26;
      }

      .st28 {
        fill: #fa5256;
      }

      .st29 {
        fill: #fc7a80;
      }

      .st30 {
        fill: #bd0043;
      }

      .st31 {
        fill: #fbba48;
      }

      .st32 {
        fill: #9e538a;
      }

      .st33 {
        fill: #fcbc4d;
      }

      .st34 {
        fill: #ebebeb;
      }

      .st35 {
        fill: #3d5593;
      }

      .st36 {
        fill: #ccc;
      }

      .st37 {
        fill: #2fbdfa;
      }

      .st38 {
        fill: #9f558c;
      }

      .st5 {
        fill: #28d6bf;
      }

      .st39 {
        fill: #2191f4;
      }

      .st9 {
        stroke: #fd9094;
      }
    </style>
  </defs>
  <g class="st25">
    <g id="Capa_1">
      <g>
        <g>
          <g>
            <rect class="st21" x="194.01" y="43.97" width="580.84" height="414.87" rx="11.68" ry="11.68"/>
            <path class="st21" d="M171.31,432.04h629.3v22.04c0,7.87-6.39,14.26-14.26,14.26H185.58c-7.87,0-14.26-6.39-14.26-14.26v-22.04h0Z"/>
            <rect class="st11" x="209.6" y="60.45" width="548.03" height="350.35"/>
            <polygon class="st11" points="427.17 428.15 434.98 441.57 544.87 441.57 552.12 428.15 427.17 428.15"/>
          </g>
          <g>
            <path class="st34" d="M223.52,72.31h521.34c1.45,0,2.62,1.18,2.62,2.62v332.12c0,1.45-1.18,2.62-2.62,2.62H223.52c-1.45,0-2.62-1.18-2.62-2.62V74.93c0-1.45,1.18-2.62,2.62-2.62Z"/>
            <polygon class="st0" points="746.91 410.17 220.33 410.17 220.89 97.52 746.91 97.52 746.91 410.17"/>
            <path class="st11" d="M265.14,85.34c0,2.51-1.94,4.54-4.34,4.54s-4.34-2.03-4.34-4.54,1.94-4.54,4.34-4.54,4.34,2.03,4.34,4.54Z"/>
            <path class="st11" d="M238.85,85.34c0,2.51-1.94,4.54-4.34,4.54s-4.34-2.03-4.34-4.54,1.94-4.54,4.34-4.54,4.34,2.03,4.34,4.54Z"/>
            <path class="st11" d="M252.36,85.34c0,2.51-1.94,4.54-4.34,4.54s-4.34-2.03-4.34-4.54,1.94-4.54,4.34-4.54,4.34,2.03,4.34,4.54Z"/>
          </g>
          <path class="st11" d="M769.86,428.15c0,.22-128.92.41-287.91.41s-287.94-.18-287.94-.41,128.89-.41,287.94-.41,287.91.18,287.91.41Z"/>
        </g>
        <g>
          <g>
            <g>
              <path d="M323.28,269.11h3.78v.71h-2.94v2.05h2.48v.71h-2.48v2.38h3.04v.71h-3.87v-6.55Z"/>
              <path d="M329.06,273.13l-1.47-2.32h.89l.65,1.06c.15.27.31.54.47.81h.04c.15-.27.29-.54.44-.81l.59-1.06h.86l-1.47,2.41,1.59,2.45h-.89l-.71-1.13c-.17-.29-.35-.59-.53-.87h-.04c-.17.28-.32.58-.49.87l-.66,1.13h-.86l1.59-2.53Z"/>
              <path d="M332.61,270.81h.68l.07.56h.03c.44-.36.98-.68,1.55-.68,1.25,0,1.92.97,1.92,2.47,0,1.65-.99,2.62-2.1,2.62-.44,0-.9-.2-1.34-.56l.02.85v1.64h-.82v-6.9ZM336,273.17c0-1.07-.37-1.79-1.28-1.79-.41,0-.82.23-1.3.66v2.54c.44.37.86.5,1.18.5.8,0,1.39-.72,1.39-1.92Z"/>
              <path d="M337.79,273.24c0-1.58,1.06-2.55,2.18-2.55,1.24,0,1.94.89,1.94,2.28,0,.17-.01.35-.04.47h-3.27c.06,1.03.69,1.69,1.61,1.69.47,0,.85-.15,1.21-.39l.29.54c-.43.28-.94.5-1.6.5-1.29,0-2.32-.95-2.32-2.54ZM341.18,272.84c0-.97-.44-1.5-1.2-1.5-.68,0-1.29.55-1.39,1.5h2.59Z"/>
              <path d="M343.1,270.81h.68l.07.7h.03c.46-.45.96-.82,1.63-.82,1.02,0,1.48.66,1.48,1.9v3.07h-.82v-2.97c0-.9-.27-1.29-.92-1.29-.5,0-.84.25-1.33.75v3.51h-.82v-4.85Z"/>
              <path d="M348.02,275.1l.41-.54c.42.34.85.57,1.43.57.64,0,.95-.34.95-.75,0-.5-.57-.72-1.11-.92-.68-.25-1.45-.58-1.45-1.4,0-.78.62-1.38,1.67-1.38.6,0,1.13.25,1.51.55l-.39.53c-.33-.25-.68-.43-1.11-.43-.61,0-.89.33-.89.7,0,.46.53.64,1.08.84.7.26,1.48.55,1.48,1.47,0,.79-.62,1.44-1.77,1.44-.69,0-1.35-.29-1.81-.67Z"/>
              <path d="M352.37,273.24c0-1.58,1.06-2.55,2.18-2.55,1.24,0,1.94.89,1.94,2.28,0,.17-.01.35-.04.47h-3.27c.06,1.03.69,1.69,1.61,1.69.47,0,.85-.15,1.21-.39l.29.54c-.43.28-.94.5-1.6.5-1.29,0-2.32-.95-2.32-2.54ZM355.77,272.84c0-.97-.44-1.5-1.2-1.5-.68,0-1.29.55-1.39,1.5h2.59Z"/>
              <path d="M357.15,275.1l.41-.54c.42.34.85.57,1.43.57.64,0,.95-.34.95-.75,0-.5-.57-.72-1.11-.92-.68-.25-1.45-.58-1.45-1.4,0-.78.62-1.38,1.67-1.38.6,0,1.13.25,1.51.55l-.39.53c-.33-.25-.68-.43-1.11-.43-.61,0-.89.33-.89.7,0,.46.53.64,1.08.84.7.26,1.48.55,1.48,1.47,0,.79-.62,1.44-1.77,1.44-.69,0-1.35-.29-1.81-.67Z"/>
            </g>
            <g>
              <g>
                <path class="st36" d="M377.37,198.89c-.18-.53-.57-1.44-1.4-2.32-.72-.76-1.48-1.18-1.96-1.4-20.98.02-41.96.05-62.95.07-.51.14-1.8.57-2.8,1.83-.59.74-.86,1.49-.98,1.97-.3,37.84-.41,61.74-.07,62.77.28.86.72,1.47,1.19,1.97,1.02,1.08,2.24,1.46,2.87,1.61,29.2.16,61.9.19,62.45,0,1.08-.37,1.77-1.01,2.1-1.33,0,0,1.09-.87,1.54-2.18.09-.26.01-32.97,0-62.98ZM376.47,261.01c-.44,1.27-1.5,2.12-1.5,2.12-.33.31-1,.94-2.05,1.3-.54.19-32.39.15-60.85,0-.62-.15-1.81-.52-2.8-1.57-.46-.48-.89-1.08-1.16-1.91-.33-1-.22-24.25.07-61.05.12-.46.38-1.19.96-1.91.98-1.22,2.24-1.64,2.73-1.78,20.44-.02,40.88-.05,61.32-.07.47.22,1.21.63,1.91,1.37.81.85,1.19,1.74,1.37,2.25.01,29.19.09,61,0,61.26Z"/>
                <path class="st17" d="M376.47,261.01c-.44,1.27-1.5,2.12-1.5,2.12-.33.31-1,.94-2.05,1.3-.54.19-32.39.15-60.85,0-.62-.15-1.81-.52-2.8-1.57-.46-.48-.89-1.08-1.16-1.91-.33-1-.22-24.25.07-61.05.12-.46.38-1.19.96-1.91.98-1.22,2.24-1.64,2.73-1.78,20.44-.02,40.88-.05,61.32-.07.47.22,1.21.63,1.91,1.37.81.85,1.19,1.74,1.37,2.25.01,29.19.09,61,0,61.26Z"/>
                <path class="st8" d="M364.82,244.21"/>
              </g>
              <g>
                <path class="st19" d="M334.95,218.28v2.02c-.61-.17-1.07-.38-1.17-.81-.09-.38.14-.78.34-.96.22-.21.52-.26.83-.24Z"/>
                <path class="st19" d="M336.74,223c.24.48.13,1.17-.21,1.45-.16.13-.28.09-1.04.07v-2.13c.58.08,1.05.21,1.25.61Z"/>
                <path class="st19" d="M335.26,211.57c-5.42,0-9.81,4.39-9.81,9.81s4.39,9.81,9.81,9.81,9.81-4.39,9.81-9.81-4.39-9.81-9.81-9.81ZM339.22,223.76c-.11.69-.53,1.14-.69,1.31-.68.73-1.84,1.14-3.04,1.19v1.11h-.54v-1.11c-1.15-.05-2.27-.44-2.96-1.19-.44-.49-.85-1.31-.62-1.58.06-.07,2.01-.03,2.13.07.3.25.12.56.41.83.18.16.35.14,1.03.14v-2.19c-.98-.09-2.13-.2-2.89-1.05-.57-.63-.79-1.56-.62-2.34.29-1.32,1.64-1.91,2-2.06.48-.21,1-.32,1.51-.34v-.9h.54v.91c1.03.08,2.01.52,2.62,1.22.06.07.99,1.12.6,1.65-.14.18-1.74.22-1.9,0-.08-.11-.04-.18-.14-.34-.13-.23-.34-.34-.48-.41-.05-.03-.34-.17-.7-.28v2.05c1.2.26,2.7.52,3.38,1.67.08.13.48.82.34,1.65Z"/>
                <circle class="st35" cx="354.91" cy="229.33" r="4.82"/>
                <path class="st10" d="M350.09,249.11h-18.76c-.99-.32-6.58-2.21-8.83-7.74-.83-2.03-.95-3.91-.89-5.23h17.83c2.76.77,6.45,2.47,8.74,6.26,1.54,2.55,1.87,5.09,1.92,6.71Z"/>
                <path class="st35" d="M362.83,239.93v5.71c-.05.38-.24,1.28-.96,2.13-.8.93-1.77,1.24-2.13,1.34h-9.64c-.05-1.62-.38-4.16-1.92-6.71-2.29-3.79-5.98-5.5-8.74-6.26h19.74c.34.04,1.57.24,2.56,1.31.92.99,1.07,2.12,1.1,2.48Z"/>
                <path class="st17" d="M338.87,222.1c-.68-1.15-2.18-1.41-3.38-1.67v-2.05c.36.1.64.25.7.28.14.07.35.18.48.41.09.17.05.23.14.34.17.22,1.77.18,1.9,0,.4-.53-.53-1.58-.6-1.65-.62-.7-1.59-1.14-2.62-1.22v-.91h-.54v.9c-.52.02-1.03.13-1.51.34-.36.16-1.71.74-2,2.06-.17.78.05,1.71.62,2.34.76.85,1.91.95,2.89,1.05v2.19c-.69,0-.86.02-1.03-.14-.29-.26-.11-.58-.41-.83-.12-.1-2.07-.14-2.13-.07-.23.28.18,1.1.62,1.58.69.75,1.81,1.14,2.96,1.19v1.11h.54v-1.11c1.2-.05,2.36-.46,3.04-1.19.16-.17.58-.62.69-1.31.13-.84-.26-1.52-.34-1.65ZM333.78,219.49c-.09-.38.14-.78.34-.96.22-.21.52-.26.83-.24v2.02c-.61-.17-1.07-.38-1.17-.81ZM336.53,224.44c-.16.13-.28.09-1.04.07v-2.13c.58.08,1.05.21,1.25.61.24.48.13,1.17-.21,1.45Z"/>
              </g>
            </g>
          </g>
          <g>
            <g>
              <path d="M507.28,268.4h1.87c1.47,0,2.46.49,2.46,1.93s-.99,2.02-2.42,2.02h-1.08v2.6h-.83v-6.55ZM509.09,271.68c1.15,0,1.69-.41,1.69-1.35s-.58-1.25-1.73-1.25h-.93v2.6h.97Z"/>
              <path d="M512.79,273.18v-3.07h.82v2.97c0,.9.27,1.29.92,1.29.5,0,.84-.25,1.3-.82v-3.44h.82v4.85h-.68l-.07-.76h-.03c-.45.53-.93.88-1.6.88-1.02,0-1.48-.66-1.48-1.9Z"/>
              <path d="M518.28,270.1h.68l.07.88h.03c.34-.62.83-1,1.38-1,.21,0,.37.03.52.1l-.15.72c-.17-.05-.28-.08-.47-.08-.41,0-.9.3-1.23,1.12v3.11h-.82v-4.85Z"/>
              <path d="M521.28,272.53c0-1.62,1.09-2.55,2.33-2.55.64,0,1.08.26,1.42.57l-.42.54c-.28-.26-.58-.43-.96-.43-.88,0-1.52.76-1.52,1.87s.61,1.86,1.5,1.86c.44,0,.84-.22,1.14-.48l.36.55c-.44.39-.99.62-1.57.62-1.29,0-2.28-.93-2.28-2.54Z"/>
              <path d="M526.19,267.84h.82v1.94l-.03,1c.45-.44.94-.8,1.61-.8,1.02,0,1.48.66,1.48,1.9v3.07h-.82v-2.97c0-.9-.27-1.29-.92-1.29-.5,0-.84.25-1.33.75v3.51h-.82v-7.11Z"/>
              <path d="M531.32,273.69c0-1.06.91-1.59,2.98-1.81,0-.62-.21-1.23-1-1.23-.56,0-1.07.27-1.45.52l-.32-.56c.45-.29,1.13-.63,1.91-.63,1.18,0,1.68.79,1.68,1.99v2.98h-.68l-.07-.58h-.03c-.46.38-1,.7-1.6.7-.81,0-1.42-.5-1.42-1.38ZM534.3,273.77v-1.35c-1.63.2-2.18.59-2.18,1.21,0,.55.37.78.85.78s.86-.23,1.33-.64Z"/>
              <path d="M536.11,274.4l.41-.54c.42.34.85.57,1.43.57.64,0,.95-.34.95-.75,0-.5-.57-.72-1.11-.92-.68-.25-1.45-.58-1.45-1.4,0-.78.62-1.38,1.67-1.38.6,0,1.13.25,1.51.55l-.39.53c-.33-.25-.68-.43-1.11-.43-.61,0-.89.33-.89.7,0,.46.53.64,1.08.84.7.26,1.48.55,1.48,1.47,0,.79-.62,1.44-1.77,1.44-.69,0-1.35-.29-1.81-.67Z"/>
              <path d="M540.47,272.53c0-1.58,1.06-2.55,2.18-2.55,1.24,0,1.94.89,1.94,2.28,0,.17-.01.35-.04.47h-3.27c.06,1.03.69,1.69,1.61,1.69.47,0,.85-.15,1.21-.39l.29.54c-.43.28-.94.5-1.6.5-1.29,0-2.32-.95-2.32-2.54ZM543.86,272.14c0-.97-.44-1.5-1.2-1.5-.68,0-1.29.55-1.39,1.5h2.59Z"/>
            </g>
            <g>
              <path d="M418.25,268.26h3.78v.71h-2.94v2.05h2.48v.71h-2.48v2.38h3.04v.71h-3.87v-6.55Z"/>
              <path d="M422.63,269.96h.85l.92,2.76c.14.47.3.97.45,1.43h.04c.14-.46.3-.96.45-1.43l.92-2.76h.8l-1.72,4.85h-.95l-1.75-4.85Z"/>
              <path d="M427.59,272.39c0-1.58,1.06-2.55,2.18-2.55,1.24,0,1.94.89,1.94,2.28,0,.17-.01.35-.04.47h-3.27c.06,1.03.69,1.69,1.61,1.69.47,0,.85-.15,1.21-.39l.29.54c-.43.28-.94.5-1.6.5-1.29,0-2.32-.95-2.32-2.54ZM430.98,272c0-.97-.44-1.5-1.2-1.5-.68,0-1.29.55-1.39,1.5h2.59Z"/>
              <path d="M432.9,269.96h.68l.07.7h.03c.46-.45.96-.82,1.63-.82,1.02,0,1.48.66,1.48,1.9v3.07h-.82v-2.97c0-.9-.27-1.29-.92-1.29-.5,0-.84.25-1.33.75v3.51h-.82v-4.85Z"/>
              <path d="M438.5,273.31v-2.68h-.72v-.62l.76-.05.1-1.36h.69v1.36h1.31v.67h-1.31v2.7c0,.59.19.94.75.94.17,0,.4-.07.55-.13l.16.62c-.27.09-.6.18-.9.18-1.03,0-1.38-.65-1.38-1.62Z"/>
              <path d="M441.09,274.26l.41-.54c.42.34.85.57,1.43.57.64,0,.95-.34.95-.75,0-.5-.57-.72-1.11-.92-.68-.25-1.45-.58-1.45-1.4,0-.78.62-1.38,1.67-1.38.6,0,1.13.25,1.51.55l-.39.53c-.33-.25-.68-.43-1.11-.43-.61,0-.89.33-.89.7,0,.46.53.64,1.08.84.7.26,1.48.55,1.48,1.47,0,.79-.62,1.44-1.77,1.44-.69,0-1.35-.29-1.81-.67Z"/>
            </g>
            <g>
              <path class="st36" d="M467.69,198.19c-.18-.53-.57-1.44-1.4-2.32-.72-.76-1.48-1.18-1.96-1.4-20.98.02-41.96.05-62.95.07-.51.14-1.8.57-2.8,1.83-.59.74-.86,1.49-.98,1.97-.3,37.84-.41,61.74-.07,62.77.28.86.72,1.47,1.19,1.97,1.02,1.08,2.24,1.46,2.87,1.61,29.2.16,61.9.19,62.45,0,1.08-.37,1.77-1.01,2.1-1.33,0,0,1.09-.87,1.54-2.18.09-.26.01-32.97,0-62.98ZM466.79,260.31c-.44,1.27-1.5,2.12-1.5,2.12-.33.31-1,.94-2.05,1.3-.54.19-32.39.15-60.85,0-.62-.15-1.81-.52-2.8-1.57-.46-.48-.89-1.08-1.16-1.91-.33-1-.22-24.25.07-61.05.12-.46.38-1.19.96-1.91.98-1.22,2.24-1.64,2.73-1.78,20.44-.02,40.88-.05,61.32-.07.47.22,1.21.63,1.91,1.37.81.85,1.19,1.74,1.37,2.25.01,29.19.09,61,0,61.26Z"/>
              <path class="st17" d="M466.79,260.31c-.44,1.27-1.5,2.12-1.5,2.12-.33.31-1,.94-2.05,1.3-.54.19-32.39.15-60.85,0-.62-.15-1.81-.52-2.8-1.57-.46-.48-.89-1.08-1.16-1.91-.33-1-.22-24.25.07-61.05.12-.46.38-1.19.96-1.91.98-1.22,2.24-1.64,2.73-1.78,20.44-.02,40.88-.05,61.32-.07.47.22,1.21.63,1.91,1.37.81.85,1.19,1.74,1.37,2.25.01,29.19.09,61,0,61.26Z"/>
              <g>
                <path class="st20" d="M429.74,243.61c0,.37-.24.72-.67,1.05,0,0,0,0,0,0-1.56,1.17-5.64,2.01-10.43,2.01-6.13,0-11.1-1.37-11.1-3.06,0-.13.03-.27.09-.4.15-.31.46-.61.93-.89,1.76-1.05,5.61-1.78,10.08-1.78,6.13,0,11.1,1.37,11.1,3.06Z"/>
                <path class="st31" d="M444.29,216.5c-.67,1.51-6.5,12.38-14.56,27.12,0-1.69-5-3.06-11.17-3.06-4.5,0-8.37.73-10.14,1.78,16.96-16.11,29.3-27.74,30.57-28.79.58-.48,1.14-.64,1.31-.69,1.44-.38,2.71.37,2.89.48.38.24,1.08.66,1.31,1.45.09.29.18.86-.21,1.72Z"/>
                <path class="st28" d="M435.32,243.48c0,.37.24.72.67,1.05,0,0,0,0,0,0,1.56,1.17,5.64,2.01,10.43,2.01,6.13,0,11.1-1.37,11.1-3.06,0-.13-.03-.27-.09-.4-.15-.31-.46-.61-.93-.89-1.76-1.05-5.61-1.78-10.08-1.78-6.13,0-11.1,1.37-11.1,3.06Z"/>
                <path class="st4" d="M420.76,216.36c.67,1.51,6.5,12.38,14.56,27.12,0-1.69,5-3.06,11.17-3.06,4.5,0,8.37.73,10.14,1.78-16.96-16.11-29.3-27.74-30.57-28.79-.58-.48-1.14-.64-1.31-.69-1.44-.38-2.71.37-2.89.48-.38.24-1.08.66-1.31,1.45-.09.29-.18.86.21,1.72Z"/>
              </g>
            </g>
            <g>
              <path class="st36" d="M560.68,198.19c-.18-.53-.57-1.44-1.4-2.32-.72-.76-1.48-1.18-1.96-1.4-20.98.02-41.96.05-62.95.07-.51.14-1.8.57-2.8,1.83-.59.74-.86,1.49-.98,1.97-.3,37.84-.41,61.74-.07,62.77.28.86.72,1.47,1.19,1.97,1.02,1.08,2.24,1.46,2.87,1.61,29.2.16,61.9.19,62.45,0,1.08-.37,1.77-1.01,2.1-1.33,0,0,1.09-.87,1.54-2.18.09-.26.01-32.97,0-62.98ZM559.77,260.31c-.44,1.27-1.5,2.12-1.5,2.12-.33.31-1,.94-2.05,1.3-.54.19-32.39.15-60.85,0-.62-.15-1.81-.52-2.8-1.57-.46-.48-.89-1.08-1.16-1.91-.33-1-.22-24.25.07-61.05.12-.46.38-1.19.96-1.91.98-1.22,2.24-1.64,2.73-1.78,20.44-.02,40.88-.05,61.32-.07.47.22,1.21.63,1.91,1.37.81.85,1.19,1.74,1.37,2.25.01,29.19.09,61,0,61.26Z"/>
              <path class="st17" d="M559.77,260.31c-.44,1.27-1.5,2.12-1.5,2.12-.33.31-1,.94-2.05,1.3-.54.19-32.39.15-60.85,0-.62-.15-1.81-.52-2.8-1.57-.46-.48-.89-1.08-1.16-1.91-.33-1-.22-24.25.07-61.05.12-.46.38-1.19.96-1.91.98-1.22,2.24-1.64,2.73-1.78,20.44-.02,40.88-.05,61.32-.07.47.22,1.21.63,1.91,1.37.81.85,1.19,1.74,1.37,2.25.01,29.19.09,61,0,61.26Z"/>
              <g>
                <path class="st16" d="M550.43,220.64v23.18c0,.17-.02,1.3-.96,2.14-.96.85-2.1.71-2.27.69l-46.6-.02v-25.98h49.83Z"/>
                <path class="st9" d="M550.43,225.28v18.54c0,.17-.02,1.3-.96,2.14-.96.85-2.1.71-2.27.69l-46.6-.02v-21.03s.02.06.03.09c.19.51.48,1.18,1.1,1.79.73.72,1.56,1.03,2.06,1.17,14.47.02,28.93.04,43.4.06.7-.16,1.78-.54,2.51-1.5.49-.65.66-1.36.72-1.92Z"/>
                <path class="st5" d="M550.43,212.58v12.71c-.06.56-.24,1.27-.72,1.92-.73.96-1.81,1.34-2.51,1.5-14.47-.02-28.93-.04-43.4-.06-.5-.14-1.34-.45-2.06-1.17-.62-.61-.91-1.28-1.1-1.79-.01-.03-.02-.06-.03-.09v-9.71c-.01-.25-.03-1.24.69-2.13.84-1.05,2.06-1.16,2.26-1.17h46.89Z"/>
              </g>
            </g>
          </g>
          <g>
            <g>
              <path d="M321.78,375.49c0-2.11,1.24-3.4,2.91-3.4.8,0,1.42.39,1.8.81l-.46.54c-.34-.37-.78-.62-1.33-.62-1.24,0-2.06,1.01-2.06,2.65s.79,2.68,2.03,2.68c.63,0,1.1-.27,1.52-.74l.46.52c-.52.6-1.16.95-2.01.95-1.63,0-2.85-1.26-2.85-3.39Z"/>
              <path d="M327.42,376.34c0-1.62,1.06-2.55,2.25-2.55s2.25.93,2.25,2.55-1.06,2.54-2.25,2.54-2.25-.93-2.25-2.54ZM331.07,376.34c0-1.11-.57-1.87-1.4-1.87s-1.4.76-1.4,1.87.57,1.86,1.4,1.86,1.4-.74,1.4-1.86Z"/>
              <path d="M333.19,373.91h.68l.07.7h.03c.46-.45.96-.82,1.63-.82,1.02,0,1.48.66,1.48,1.9v3.07h-.82v-2.97c0-.9-.27-1.29-.92-1.29-.5,0-.84.25-1.33.75v3.51h-.82v-4.85Z"/>
              <path d="M338.8,377.26v-2.68h-.72v-.62l.76-.05.1-1.36h.69v1.36h1.31v.67h-1.31v2.7c0,.59.19.94.75.94.17,0,.4-.07.55-.13l.16.62c-.27.09-.6.18-.9.18-1.03,0-1.38-.65-1.38-1.62Z"/>
              <path d="M341.51,377.5c0-1.06.91-1.59,2.98-1.81,0-.62-.21-1.23-1-1.23-.56,0-1.07.27-1.45.52l-.32-.56c.45-.29,1.13-.63,1.91-.63,1.18,0,1.68.79,1.68,1.99v2.98h-.68l-.07-.58h-.03c-.46.38-1,.7-1.6.7-.81,0-1.42-.5-1.42-1.38ZM344.49,377.58v-1.35c-1.63.2-2.18.59-2.18,1.21,0,.55.37.78.85.78s.86-.23,1.33-.64Z"/>
              <path d="M346.48,376.34c0-1.62,1.09-2.55,2.33-2.55.64,0,1.08.26,1.42.57l-.42.54c-.28-.26-.58-.43-.96-.43-.88,0-1.52.76-1.52,1.87s.61,1.86,1.5,1.86c.44,0,.84-.22,1.14-.48l.36.55c-.44.39-.99.62-1.57.62-1.29,0-2.28-.93-2.28-2.54Z"/>
              <path d="M351.44,377.26v-2.68h-.72v-.62l.76-.05.1-1.36h.69v1.36h1.31v.67h-1.31v2.7c0,.59.19.94.75.94.17,0,.4-.07.55-.13l.16.62c-.27.09-.6.18-.9.18-1.03,0-1.38-.65-1.38-1.62Z"/>
              <path d="M354.03,378.21l.41-.54c.42.34.85.57,1.43.57.64,0,.95-.34.95-.75,0-.5-.57-.72-1.11-.92-.68-.25-1.45-.58-1.45-1.4,0-.78.62-1.38,1.67-1.38.6,0,1.13.25,1.51.55l-.39.53c-.33-.25-.68-.43-1.11-.43-.61,0-.89.33-.89.7,0,.46.53.64,1.08.84.7.26,1.48.55,1.48,1.47,0,.79-.62,1.44-1.77,1.44-.69,0-1.35-.29-1.81-.67Z"/>
            </g>
            <g>
              <path d="M422.59,375.5c0-2.11,1.24-3.4,2.91-3.4.8,0,1.42.39,1.8.81l-.46.54c-.34-.37-.78-.62-1.33-.62-1.24,0-2.06,1.01-2.06,2.65s.79,2.68,2.03,2.68c.63,0,1.1-.27,1.52-.74l.46.52c-.52.6-1.16.95-2.01.95-1.63,0-2.85-1.26-2.85-3.39Z"/>
              <path d="M428.66,372.22h2.05c1.33,0,2.29.48,2.29,1.84s-.96,1.94-2.29,1.94h-1.22v2.77h-.83v-6.55ZM430.6,375.32c1.02,0,1.58-.41,1.58-1.26s-.56-1.17-1.58-1.17h-1.1v2.43h1.1ZM430.55,375.77l.65-.43,2,3.43h-.94l-1.71-3Z"/>
              <path d="M434.34,372.22h1l1.26,3.5c.16.45.31.91.47,1.36h.04c.16-.45.3-.92.45-1.36l1.24-3.5h1v6.55h-.77v-3.61c0-.57.06-1.36.11-1.94h-.04l-.52,1.49-1.23,3.39h-.55l-1.24-3.39-.52-1.49h-.04c.04.58.11,1.37.11,1.94v3.61h-.75v-6.55Z"/>
            </g>
            <g>
              <path class="st36" d="M374.77,302.41c-.18-.53-.57-1.44-1.4-2.32-.72-.76-1.48-1.18-1.96-1.4-20.98.02-41.96.05-62.95.07-.51.14-1.8.57-2.8,1.83-.59.74-.86,1.49-.98,1.97-.3,37.84-.41,61.74-.07,62.77.28.86.72,1.47,1.19,1.97,1.02,1.08,2.24,1.46,2.87,1.61,29.2.16,61.9.19,62.45,0,1.08-.37,1.77-1.01,2.1-1.33,0,0,1.09-.87,1.54-2.18.09-.26.01-32.97,0-62.98ZM373.87,364.53c-.44,1.27-1.5,2.12-1.5,2.12-.33.31-1,.94-2.05,1.3-.54.19-32.39.15-60.85,0-.62-.15-1.81-.52-2.8-1.57-.46-.48-.89-1.08-1.16-1.91-.33-1-.22-24.25.07-61.05.12-.46.38-1.19.96-1.91.98-1.22,2.24-1.64,2.73-1.78,20.44-.02,40.88-.05,61.32-.07.47.22,1.21.63,1.91,1.37.81.85,1.19,1.74,1.37,2.25.01,29.19.09,61,0,61.26Z"/>
              <path class="st17" d="M373.87,364.53c-.44,1.27-1.5,2.12-1.5,2.12-.33.31-1,.94-2.05,1.3-.54.19-32.39.15-60.85,0-.62-.15-1.81-.52-2.8-1.57-.46-.48-.89-1.08-1.16-1.91-.33-1-.22-24.25.07-61.05.12-.46.38-1.19.96-1.91.98-1.22,2.24-1.64,2.73-1.78,20.44-.02,40.88-.05,61.32-.07.47.22,1.21.63,1.91,1.37.81.85,1.19,1.74,1.37,2.25.01,29.19.09,61,0,61.26Z"/>
              <path class="st29" d="M325.61,317.03c-.37.08-1.06.28-1.72.84-.96.81-1.23,1.84-1.31,2.19v34.77h31.66c.72-.18,2.6-.73,4.2-2.48,1.69-1.84,2.04-3.88,2.13-4.61v-30.71h-34.96ZM338.54,321.86c3.35,0,6.06,2.71,6.06,6.06s-2.71,6.06-6.06,6.06-6.06-2.71-6.06-6.06,2.71-6.06,6.06-6.06ZM331.45,340.3c2.13-2.76,5.15-3.28,5.8-3.37h11.41c-.04.77-.27,3.84-2.75,6.33-1.88,1.89-4.04,2.44-4.91,2.62h-11.4c0-.77.07-3.26,1.86-5.58Z"/>
              <path class="st1" d="M356.64,317.03v-4.12c-10.65,0-21.29,0-31.94,0-.68.16-2.86.75-4.47,2.82-1.17,1.5-1.48,3.04-1.58,3.79,0,10.4,0,20.79,0,31.19,1.31,0,2.62.02,3.92.02,10.3.06,20.6.12,30.9.18.34-.06,1.42-.28,2.27-1.24.62-.69.82-1.43.89-1.79,0-10.28,0-20.57,0-30.85ZM344.6,327.91c0,3.35-2.71,6.06-6.06,6.06s-6.06-2.71-6.06-6.06,2.71-6.06,6.06-6.06,6.06,2.71,6.06,6.06ZM345.91,343.26c-1.88,1.89-4.04,2.44-4.91,2.62h-11.4c0-.77.07-3.26,1.86-5.58,2.13-2.76,5.15-3.28,5.8-3.37h11.41c-.04.77-.27,3.84-2.75,6.33Z"/>
              <path class="st17" d="M348.66,336.93c-.04.77-.27,3.84-2.75,6.33-1.88,1.89-4.04,2.44-4.91,2.62h-11.4c0-.77.07-3.26,1.86-5.58,2.13-2.76,5.15-3.28,5.8-3.37h11.41Z"/>
              <circle class="st17" cx="338.54" cy="327.91" r="6.06"/>
            </g>
            <g>
              <path class="st36" d="M467.76,302.34c-.18-.53-.57-1.44-1.4-2.32-.72-.76-1.48-1.18-1.96-1.4-20.98.02-41.96.05-62.95.07-.51.14-1.8.57-2.8,1.83-.59.74-.86,1.49-.98,1.97-.3,37.84-.41,61.74-.07,62.77.28.86.72,1.47,1.19,1.97,1.02,1.08,2.24,1.46,2.87,1.61,29.2.16,61.9.19,62.45,0,1.08-.37,1.77-1.01,2.1-1.33,0,0,1.09-.87,1.54-2.18.09-.26.01-32.97,0-62.98ZM466.86,364.46c-.44,1.27-1.5,2.12-1.5,2.12-.33.31-1,.94-2.05,1.3-.54.19-32.39.15-60.85,0-.62-.15-1.81-.52-2.8-1.57-.46-.48-.89-1.08-1.16-1.91-.33-1-.22-24.25.07-61.05.12-.46.38-1.19.96-1.91.98-1.22,2.24-1.64,2.73-1.78,20.44-.02,40.88-.05,61.32-.07.47.22,1.21.63,1.91,1.37.81.85,1.19,1.74,1.37,2.25.01,29.19.09,61,0,61.26Z"/>
              <path class="st17" d="M466.86,364.46c-.44,1.27-1.5,2.12-1.5,2.12-.33.31-1,.94-2.05,1.3-.54.19-32.39.15-60.85,0-.62-.15-1.81-.52-2.8-1.57-.46-.48-.89-1.08-1.16-1.91-.33-1-.22-24.25.07-61.05.12-.46.38-1.19.96-1.91.98-1.22,2.24-1.64,2.73-1.78,20.44-.02,40.88-.05,61.32-.07.47.22,1.21.63,1.91,1.37.81.85,1.19,1.74,1.37,2.25.01,29.19.09,61,0,61.26Z"/>
              <g>
                <path class="st23" d="M457.6,323.61c-1.39,1.53-3.06,3.3-5.02,5.23-1.26,1.24-2.84,2.8-4.42,4.18-2.7-2.72-5.39-5.45-8.09-8.17-1.83-1.84-3.65-3.69-5.48-5.53-.52-.53-1.05-1.06-1.57-1.59-.05-.05-.09-.09-.14-.14h2.95s17.99-.03,17.99-.03l.72.02c.51.12,1.46.44,2.24,1.28,1.73,1.9.87,4.63.83,4.75Z"/>
                <path class="st32" d="M432.78,348.56s-.07.07-.1.1c-.39.38-1.66,1.49-3.44,1.31-1.06-.11-1.8-.63-2.13-.89l-9.7-9.91c-.13-.26-.58-1.24-.28-2.48.33-1.32,1.29-1.99,1.51-2.13,0,0,.02-.02.03-.03,4.7,4.68,9.41,9.36,14.11,14.04Z"/>
                <path class="st32" d="M433.85,346.67c-.2.94-.76,1.58-1.07,1.89-4.7-4.68-9.41-9.36-14.11-14.04.31-.33.77-.73,1.42-1,1.2-.5,2.34-.23,2.48-.21.04,0,.08,0,.13,0,3.62,3.66,7.24,7.32,10.86,10.97h0c.15.52.53,1.31.3,2.37Z"/>
                <path class="st32" d="M440.06,324.85c-1.94-.42-3.34-.18-4.28.14-4.3,1.46-5.2,5.99-8.12,5.85-.53-.03-1.06-.21-1.53-.49-.98-.59-1.75-1.61-1.91-2.61-.15-.97.23-2.11,4.2-5.92,1.14-1.1,2.68-2.51,4.6-4.09.53.53,1.05,1.06,1.57,1.59,1.83,1.84,3.65,3.69,5.48,5.53Z"/>
                <path class="st3" d="M449.54,336.07c-.01.78-.25,1.38-.41,1.72-3.76,3.81-7.53,7.62-11.29,11.43-.2.17-1,.82-2.2.83-1.15,0-1.92-.58-2.13-.76-.24-.24-.48-.48-.72-.72-4.7-4.68-9.41-9.36-14.11-14.04-3.66-3.64-7.31-7.28-10.97-10.91-.15-.36-.62-1.65-.14-3.17.61-1.92,2.27-2.7,2.55-2.82,0,0,0,0,0,0l22.64-.04h.12s.09.09.14.14c.53.53,1.05,1.06,1.57,1.59,1.83,1.84,3.65,3.69,5.48,5.53,2.7,2.72,5.39,5.45,8.09,8.17.21.21.42.43.64.64.23.32.77,1.19.76,2.41Z"/>
              </g>
            </g>
          </g>
          <g>
            <g>
              <path d="M593.53,372.44h1.64c2.01,0,3.09,1.17,3.09,3.25s-1.08,3.3-3.06,3.3h-1.68v-6.55ZM595.11,378.31c1.53,0,2.29-.96,2.29-2.62s-.76-2.57-2.29-2.57h-.74v5.18h.74Z"/>
              <path d="M599.29,377.73c0-1.06.91-1.59,2.98-1.81,0-.62-.21-1.23-1-1.23-.56,0-1.07.27-1.45.52l-.32-.56c.45-.29,1.13-.63,1.91-.63,1.18,0,1.68.79,1.68,1.99v2.98h-.68l-.07-.58h-.03c-.46.38-1,.7-1.6.7-.81,0-1.42-.5-1.42-1.38ZM602.27,377.81v-1.35c-1.63.2-2.18.59-2.18,1.21,0,.55.37.78.85.78s.86-.23,1.33-.64Z"/>
              <path d="M604.08,378.44l.41-.54c.42.34.85.57,1.43.57.64,0,.95-.34.95-.75,0-.5-.57-.72-1.11-.92-.68-.25-1.45-.58-1.45-1.4,0-.78.62-1.38,1.67-1.38.6,0,1.13.25,1.51.55l-.39.53c-.33-.25-.68-.43-1.11-.43-.61,0-.89.33-.89.7,0,.46.53.64,1.08.84.7.26,1.48.55,1.48,1.47,0,.79-.62,1.44-1.77,1.44-.69,0-1.35-.29-1.81-.67Z"/>
              <path d="M608.8,371.88h.82v1.94l-.03,1c.45-.44.94-.8,1.61-.8,1.02,0,1.48.66,1.48,1.9v3.07h-.82v-2.97c0-.9-.27-1.29-.92-1.29-.5,0-.84.25-1.33.75v3.51h-.82v-7.11Z"/>
              <path d="M614.99,378.49h-.03l-.08.5h-.66v-7.11h.82v1.94l-.03.87c.44-.38.98-.68,1.52-.68,1.25,0,1.93.97,1.93,2.47,0,1.66-.99,2.62-2.1,2.62-.45,0-.95-.23-1.38-.62ZM617.63,376.5c0-1.07-.37-1.79-1.28-1.79-.41,0-.84.23-1.3.66v2.54c.43.37.86.5,1.18.5.8,0,1.39-.72,1.39-1.92Z"/>
              <path d="M619.39,376.57c0-1.62,1.06-2.55,2.25-2.55s2.25.93,2.25,2.55-1.06,2.54-2.25,2.54-2.25-.93-2.25-2.54ZM623.04,376.57c0-1.11-.57-1.87-1.4-1.87s-1.4.76-1.4,1.87.57,1.86,1.4,1.86,1.4-.74,1.4-1.86Z"/>
              <path d="M624.72,377.73c0-1.06.91-1.59,2.98-1.81,0-.62-.21-1.23-1-1.23-.56,0-1.07.27-1.45.52l-.32-.56c.45-.29,1.13-.63,1.91-.63,1.18,0,1.68.79,1.68,1.99v2.98h-.68l-.07-.58h-.03c-.46.38-1,.7-1.6.7-.81,0-1.42-.5-1.42-1.38ZM627.7,377.81v-1.35c-1.63.2-2.18.59-2.18,1.21,0,.55.37.78.85.78s.86-.23,1.33-.64Z"/>
              <path d="M630.05,374.14h.68l.07.88h.03c.34-.62.83-1,1.38-1,.21,0,.37.03.52.1l-.15.72c-.17-.05-.28-.08-.47-.08-.41,0-.9.3-1.23,1.12v3.11h-.82v-4.85Z"/>
              <path d="M633.07,376.57c0-1.57.99-2.55,2.1-2.55.56,0,.93.21,1.36.56l-.03-.83v-1.87h.82v7.11h-.68l-.07-.57h-.03c-.38.38-.89.69-1.47.69-1.21,0-2-.92-2-2.54ZM636.49,377.76v-2.54c-.41-.37-.79-.5-1.18-.5-.78,0-1.39.75-1.39,1.85,0,1.16.48,1.86,1.33,1.86.45,0,.84-.22,1.24-.66Z"/>
              <path d="M638.41,378.44l.41-.54c.42.34.85.57,1.43.57.64,0,.95-.34.95-.75,0-.5-.57-.72-1.11-.92-.68-.25-1.45-.58-1.45-1.4,0-.78.62-1.38,1.67-1.38.6,0,1.13.25,1.51.55l-.39.53c-.33-.25-.68-.43-1.11-.43-.61,0-.89.33-.89.7,0,.46.53.64,1.08.84.7.26,1.48.55,1.48,1.47,0,.79-.62,1.44-1.77,1.44-.69,0-1.35-.29-1.81-.67Z"/>
            </g>
            <g>
              <path d="M512.49,378.14l.5-.57c.47.49,1.13.81,1.81.81.86,0,1.37-.43,1.37-1.06,0-.67-.47-.88-1.09-1.15l-.94-.41c-.61-.26-1.33-.72-1.33-1.69s.87-1.74,2.06-1.74c.78,0,1.47.34,1.93.81l-.44.54c-.4-.38-.88-.61-1.49-.61-.73,0-1.22.37-1.22.96,0,.63.57.87,1.08,1.08l.93.4c.76.33,1.35.78,1.35,1.75,0,1.03-.86,1.86-2.23,1.86-.92,0-1.72-.38-2.29-.97Z"/>
              <path d="M517.92,377.73c0-1.06.91-1.59,2.98-1.81,0-.62-.21-1.23-1-1.23-.56,0-1.07.27-1.45.52l-.32-.56c.45-.29,1.13-.63,1.91-.63,1.18,0,1.68.79,1.68,1.99v2.98h-.68l-.07-.58h-.03c-.46.38-1,.7-1.6.7-.81,0-1.42-.5-1.42-1.38ZM520.9,377.81v-1.35c-1.63.2-2.18.59-2.18,1.21,0,.55.37.78.85.78s.86-.23,1.33-.64Z"/>
              <path d="M523.25,378.02v-6.14h.82v6.2c0,.25.11.35.23.35.05,0,.09,0,.18-.02l.11.63c-.12.04-.26.08-.47.08-.62,0-.87-.39-.87-1.09Z"/>
              <path d="M525.43,376.57c0-1.58,1.06-2.55,2.18-2.55,1.24,0,1.94.89,1.94,2.28,0,.17-.01.35-.04.47h-3.27c.06,1.03.69,1.69,1.61,1.69.47,0,.85-.15,1.21-.39l.29.54c-.43.28-.94.5-1.6.5-1.29,0-2.32-.95-2.32-2.54ZM528.82,376.17c0-.97-.44-1.5-1.2-1.5-.68,0-1.29.55-1.39,1.5h2.59Z"/>
              <path d="M530.2,378.44l.41-.54c.42.34.85.57,1.43.57.64,0,.95-.34.95-.75,0-.5-.57-.72-1.11-.92-.68-.25-1.45-.58-1.45-1.4,0-.78.62-1.38,1.67-1.38.6,0,1.13.25,1.51.55l-.39.53c-.33-.25-.68-.43-1.11-.43-.61,0-.89.33-.89.7,0,.46.53.64,1.08.84.7.26,1.48.55,1.48,1.47,0,.79-.62,1.44-1.77,1.44-.69,0-1.35-.29-1.81-.67Z"/>
            </g>
            <g>
              <path class="st36" d="M559.45,302.36c-.18-.53-.57-1.44-1.4-2.32-.72-.76-1.48-1.18-1.96-1.4-20.98.02-41.96.05-62.95.07-.51.14-1.8.57-2.8,1.83-.59.74-.86,1.49-.98,1.97-.3,37.84-.41,61.74-.07,62.77.28.86.72,1.47,1.19,1.97,1.02,1.08,2.24,1.46,2.87,1.61,29.2.16,61.9.19,62.45,0,1.08-.37,1.77-1.01,2.1-1.33,0,0,1.09-.87,1.54-2.18.09-.26.01-32.97,0-62.98ZM558.54,364.48c-.44,1.27-1.5,2.12-1.5,2.12-.33.31-1,.94-2.05,1.3-.54.19-32.39.15-60.85,0-.62-.15-1.81-.52-2.8-1.57-.46-.48-.89-1.08-1.16-1.91-.33-1-.22-24.25.07-61.05.12-.46.38-1.19.96-1.91.98-1.22,2.24-1.64,2.73-1.78,20.44-.02,40.88-.05,61.32-.07.47.22,1.21.63,1.91,1.37.81.85,1.19,1.74,1.37,2.25.01,29.19.09,61,0,61.26Z"/>
              <g>
                <path class="st17" d="M558.54,364.48c-.44,1.27-1.5,2.12-1.5,2.12-.33.31-1,.94-2.05,1.3-.54.19-32.39.15-60.85,0-.62-.15-1.81-.52-2.8-1.57-.46-.48-.89-1.08-1.16-1.91-.33-1-.22-24.25.07-61.05.12-.46.38-1.19.96-1.91.98-1.22,2.24-1.64,2.73-1.78,20.44-.02,40.88-.05,61.32-.07.47.22,1.21.63,1.91,1.37.81.85,1.19,1.74,1.37,2.25.01,29.19.09,61,0,61.26Z"/>
                <g>
                  <path class="st26" d="M523.15,329.84h-16.9c-.34.05-1.17.23-1.92.93-1.01.95-1.12,2.16-1.14,2.45v21.64h17.4c.2-.02,1.18-.12,1.9-.98.61-.73.65-1.53.65-1.77v-22.27Z"/>
                  <path class="st14" d="M545.38,312.77h-16.9c-.34.09-1.17.39-1.92,1.57-1.01,1.59-1.12,3.64-1.14,4.12v36.39h17.4c.2-.03,1.18-.21,1.9-1.65.61-1.22.65-2.58.65-2.98v-37.45Z"/>
                  <path class="st2" d="M534.27,321.82h-16.9c-.34.07-1.17.31-1.92,1.23-1.01,1.25-1.12,2.86-1.14,3.23v28.58h17.4c.2-.02,1.18-.16,1.9-1.3.61-.96.65-2.03.65-2.34v-29.41Z"/>
                </g>
              </g>
            </g>
            <g>
              <path class="st36" d="M652.37,302.38c-.18-.53-.57-1.44-1.4-2.32-.72-.76-1.48-1.18-1.96-1.4-20.98.02-41.96.05-62.95.07-.51.14-1.8.57-2.8,1.83-.59.74-.86,1.49-.98,1.97-.3,37.84-.41,61.74-.07,62.77.28.86.72,1.47,1.19,1.97,1.02,1.08,2.24,1.46,2.87,1.61,29.2.16,61.9.19,62.45,0,1.08-.37,1.77-1.01,2.1-1.33,0,0,1.09-.87,1.54-2.18.09-.26.01-32.97,0-62.98ZM651.46,364.5c-.44,1.27-1.5,2.12-1.5,2.12-.33.31-1,.94-2.05,1.3-.54.19-32.39.15-60.85,0-.62-.15-1.81-.52-2.8-1.57-.46-.48-.89-1.08-1.16-1.91-.33-1-.22-24.25.07-61.05.12-.46.38-1.19.96-1.91.98-1.22,2.24-1.64,2.73-1.78,20.44-.02,40.88-.05,61.32-.07.47.22,1.21.63,1.91,1.37.81.85,1.19,1.74,1.37,2.25.01,29.19.09,61,0,61.26Z"/>
              <path class="st17" d="M651.46,364.5c-.44,1.27-1.5,2.12-1.5,2.12-.33.31-1,.94-2.05,1.3-.54.19-32.39.15-60.85,0-.62-.15-1.81-.52-2.8-1.57-.46-.48-.89-1.08-1.16-1.91-.33-1-.22-24.25.07-61.05.12-.46.38-1.19.96-1.91.98-1.22,2.24-1.64,2.73-1.78,20.44-.02,40.88-.05,61.32-.07.47.22,1.21.63,1.91,1.37.81.85,1.19,1.74,1.37,2.25.01,29.19.09,61,0,61.26Z"/>
              <g>
                <path class="st23" d="M617.24,312.81h-17.77c-.35.04-1.23.19-2.02.77-1.06.78-1.17,1.79-1.19,2.03v17.93h18.29c.47-.1,1.31-.34,1.94-1.05.65-.74.78-1.63.83-2.2.17-1.95.17-8.57-.07-17.48Z"/>
                <path class="st6" d="M611.19,339.86c-4.06,0-8.12,0-12.18,0-.57.07-1.5.28-2.13,1.03-.45.54-.56,1.14-.62,1.51-.22,1.47-.28,6.08-.1,12.32,4.05,0,8.1,0,12.15,0,.51-.12,1.46-.41,2.13-1.24.57-.7.7-1.48.76-2,.22-1.86.25-6.1,0-11.62Z"/>
                <path class="st13" d="M625.4,339.86h-5.18c-.3.05-1.05.21-1.74.83-.78.7-.99,1.56-1.05,1.85v12.34h4.84c.36-.08,1.22-.33,1.99-1.11.79-.8,1.03-1.71,1.1-2.06.01-3.95.02-7.89.03-11.84Z"/>
                <path class="st24" d="M638.36,339.86h-5.18c-.3.05-1.05.21-1.74.83-.78.7-.99,1.56-1.05,1.85v12.34h4.84c.36-.08,1.22-.33,1.99-1.11.79-.8,1.03-1.71,1.1-2.06.01-3.95.02-7.89.03-11.84Z"/>
                <path class="st15" d="M638.34,333.73l-.04-5.18c-.05-.3-.22-1.05-.84-1.73-.71-.77-1.57-.98-1.86-1.04-4.11.04-8.23.07-12.34.11l.04,4.84c.09.36.34,1.22,1.13,1.98.81.79,1.72,1.01,2.07,1.08,3.95-.02,7.89-.05,11.84-.07Z"/>
                <path class="st18" d="M638.34,320.73l-.04-5.18c-.05-.3-.22-1.05-.84-1.73-.71-.77-1.57-.98-1.86-1.04-4.11.04-8.23.07-12.34.11l.04,4.84c.09.36.34,1.22,1.13,1.98.81.79,1.72,1.01,2.07,1.08,3.95-.02,7.89-.05,11.84-.07Z"/>
              </g>
            </g>
          </g>
        </g>
      </g>
      <g>
        <g>
          <g>
            <path class="st22" d="M458.1,219.09l3.6-.64s28.18,9.34,27.55,3.86c-.83-7.24-26.47-14.01-28.93-14.15-4.09-.23-28.45,1.88-31.92,3.66-3.47,1.77-24.54,21.5-24.54,21.5l25.29,27.58s6.96.89,16.4-6.82c4.79-3.91,11.91-10.87,11.91-10.87,0,0-.28-2.02.36-2.77,1.9-2.24.6-3.7.6-3.7,1.86-.47,3.51-2.14,3.59-3.62.05-.9.03-2.02-.62-2.64-1.59-1.54-2.31-1.31-2.31-1.31,0,0,3.83-1.09,4.63-4.41.78-3.24-3.92-4.87-3.92-4.87"/>
            <path class="st12" d="M488.66,223.59c.02.19-2.37.69-6.29.52-1.95-.09-4.28-.38-6.81-1-2.45-.75-5.12-1.66-7.92-2.6-2.07-.71-4.06-1.4-5.95-2.05l.38.04c-8.63,1.35-14.92,2.1-14.98,1.75-.06-.35,6.12-1.69,14.74-3.23l.17-.03.2.07c1.87.62,3.86,1.28,5.91,1.97,2.73.94,5.33,1.84,7.81,2.7,2.41.67,4.65,1.06,6.54,1.29,3.78.45,6.18.34,6.19.59Z"/>
          </g>
          <g>
            <path class="st22" d="M456.18,220.52c-3.29,2.53-6,4.6-9.29,7.13-1.07.82-2.17,1.67-2.83,2.84-.67,1.17-.8,2.76.05,3.8.68.84,1.85,1.16,2.93,1.06,1.08-.1,2.08-.56,3.05-1.04,3.49-1.77,7.77-3.94,11-6.16"/>
            <path class="st12" d="M461.75,227.74c.09.16-1.78,1.53-4.9,3.64-1.57,1.04-3.49,2.27-5.83,3.28-1.18.48-2.4.99-3.86,1.22-.72.1-1.51.13-2.32-.09-.81-.21-1.62-.78-2.04-1.61-.82-1.69-.14-3.5.79-4.62.96-1.16,2.02-1.91,2.98-2.71,1.95-1.56,3.75-2.9,5.29-3.99,3.07-2.19,5.14-3.31,5.24-3.15.09.16-1.76,1.54-4.67,3.91-1.57,1.3-3.27,2.7-5.07,4.19-.93.81-1.98,1.62-2.73,2.57-.76.92-1.11,2.21-.63,3.18.47.96,1.76,1.19,2.98,1.01,1.22-.17,2.44-.64,3.57-1.06,2.25-.9,4.18-2.01,5.8-2.94,3.24-1.89,5.31-2.99,5.4-2.83Z"/>
          </g>
          <path class="st22" d="M458.36,230.2s2.88-2.7,4.07-2.49,2.96.39,3.62,2.7c.55,1.94-.25,2.61-3.73,6.3"/>
          <g>
            <path class="st22" d="M458.36,230.2c-2.71,2.19-4.93,3.99-7.64,6.19-.88.71-1.78,1.45-2.34,2.46-.55,1.01-.67,2.37.02,3.26.55.72,1.5.98,2.39.89.88-.09,1.71-.49,2.5-.92,2.87-1.54,6.38-3.44,9.03-5.37"/>
            <path class="st12" d="M465.94,232.47c.13.06-.83,2.19-3.55,4.68-1.35,1.24-3.1,2.55-5.19,3.77-1.05.61-2.17,1.19-3.39,1.71-1.21.48-2.53,1.1-4.17.99-.8-.05-1.73-.46-2.22-1.22-.51-.76-.56-1.64-.43-2.39.3-1.58,1.39-2.59,2.27-3.38,1.81-1.58,3.49-2.9,4.93-3.99,2.87-2.18,4.83-3.3,4.93-3.14.1.15-1.63,1.53-4.33,3.88-1.35,1.17-2.97,2.57-4.7,4.17-.84.78-1.65,1.66-1.81,2.69-.19,1.08.34,1.97,1.47,2.03,1.13.1,2.37-.4,3.54-.86,1.17-.48,2.27-1.02,3.29-1.57,2.05-1.11,3.8-2.3,5.17-3.4,2.77-2.2,3.99-4.08,4.18-3.96Z"/>
          </g>
          <g>
            <path class="st22" d="M413.36,238.93c1.65,2.24,5.02,2.4,7.62,1.44,2.6-.96,4.8-2.78,7.33-3.93,7.56-3.43,16.95-.5,24.34-4.29,1.03-.53,2.13-1.5,1.84-2.62-.28-1.04-1.54-1.39-2.6-1.56-9.04-1.49-18.09-2.98-27.13-4.47"/>
            <path class="st12" d="M424.76,223.5c.02-.11,1.08-.04,2.98.18s4.65.59,8.04,1.07c3.52.53,7.53,1.13,11.89,1.79,1.12.18,2.27.36,3.43.54,1.08.25,2.59.11,3.81,1.58.57.76.46,1.94-.04,2.6-.46.69-1.06,1.13-1.69,1.49-1.22.62-2.46,1.12-3.79,1.45-5.3,1.33-10.35.8-14.75,1.35-2.2.24-4.25.7-6.02,1.47-1.77.77-3.33,1.82-4.87,2.64-3.02,1.8-6.24,2.04-8.1,1.25-1.92-.77-2.37-1.97-2.31-1.96.11-.12.72.88,2.49,1.38,1.77.52,4.53.2,7.37-1.63,1.45-.85,2.98-1.96,4.88-2.86,1.9-.9,4.09-1.43,6.38-1.72,4.57-.64,9.63-.18,14.53-1.43,1.22-.3,2.38-.78,3.43-1.29,1.01-.54,1.62-1.41,1.21-1.87-.37-.57-1.62-.78-2.78-.96-1.16-.2-2.31-.4-3.43-.59-4.35-.78-8.33-1.49-11.84-2.12-3.37-.63-6.09-1.16-7.96-1.56-1.87-.4-2.9-.68-2.88-.78Z"/>
          </g>
          <path class="st22" d="M460.2,238.72s2.13-2,3.02-1.85c.88.15,2.19.29,2.68,2,.41,1.44-.18,1.94-2.77,4.67"/>
          <g>
            <path class="st22" d="M460.2,238.72c-2.01,1.63-3.66,2.96-5.67,4.59-.65.53-1.32,1.08-1.73,1.82-.41.75-.5,1.76.01,2.42.41.53,1.12.73,1.77.66.65-.07,1.27-.37,1.85-.68,2.13-1.14,4.73-2.55,6.69-3.98"/>
            <path class="st12" d="M465.81,240.4c.14.07-.54,1.68-2.55,3.56-.99.93-2.29,1.92-3.85,2.84-.78.46-1.62.9-2.53,1.28-.9.36-1.89.83-3.17.75-.62-.03-1.38-.36-1.78-.97-.41-.61-.45-1.31-.35-1.9.24-1.24,1.08-2.01,1.74-2.6,1.4-1.11,2.69-2.06,3.77-2.85,2.17-1.58,3.55-2.47,3.65-2.32.1.16-1.08,1.32-3.07,3.07-1.15.99-2.32,1.99-3.52,3.02-.62.57-1.18,1.21-1.28,1.9-.1.75.19,1.24.94,1.3.77.07,1.68-.29,2.54-.62.86-.35,1.67-.74,2.43-1.15,1.51-.81,2.81-1.68,3.83-2.48,2.06-1.6,2.99-2.96,3.18-2.84Z"/>
          </g>
          <path class="st12" d="M438.63,248.34c-.38-.11.39-2.96-.66-6.25-.97-3.32-3.2-5.25-2.95-5.56.13-.34,3.1,1.37,4.24,5.16,1.18,3.78-.33,6.86-.63,6.65Z"/>
        </g>
        <g>
          <path class="st30" d="M221.61,203.76c-13.05-6.67-25.95-8.18-40.01-8.59-16.38-.48-39.47-2.77-57.12-.89,0,0-55.49,4.34-55.73,46.03l8.82,154.01-11.51,68.58,161.16,4.87-1.16-80.91c.52,36.31-1.24-78.55-.67-109.23,2.48-22.63,13.27-25.3,15.03-40.01,1.55-13.01-7.14-27.91-18.81-33.87Z"/>
          <path class="st30" d="M188.2,196.24s24.5-.43,40.61,7.49c16.11,7.91,104.3,62.01,104.3,62.01l67.75-37.55,35.84,33.57-77.71,51.3c-15.1,10.22-34.37,12.05-51.13,4.86l-87.63-34.79-32.04-86.89Z"/>
          <path class="st11" d="M225.39,252.3c.43,0,.85,23.94.94,53.47.09,29.54-.18,53.48-.6,53.48-.43,0-.85-23.93-.94-53.47-.09-29.53.18-53.47.6-53.47Z"/>
        </g>
        <path class="st11" d="M206.38,444.17c.03.1-1.56.69-4.48,1.68-2.91,1.02-7.2,2.25-12.55,3.55-5.35,1.33-11.81,2.54-19.04,3.51-7.24.9-15.24,1.51-23.66,1.57-8.42,0-16.44-.58-23.68-1.43-7.23-.94-13.7-2.11-19.06-3.41-5.36-1.27-9.66-2.48-12.57-3.48-2.92-.97-4.52-1.56-4.49-1.66s1.69.29,4.66,1.08c2.96.82,7.27,1.87,12.64,2.99,5.36,1.15,11.8,2.21,18.99,3.06,7.2.77,15.15,1.3,23.51,1.3,8.35-.05,16.3-.62,23.49-1.44,7.18-.89,13.62-1.98,18.97-3.17,5.35-1.16,9.67-2.22,12.62-3.06,2.96-.81,4.62-1.21,4.65-1.11Z"/>
        <g>
          <g>
            <path class="st36" d="M229.79,303.92c-.43-.57-1.25-1.51-2.59-2.24-1.16-.63-2.24-.84-2.91-.92-25.24,8.25-50.48,16.5-75.72,24.74-.55.37-1.95,1.39-2.66,3.29-.42,1.12-.45,2.13-.41,2.75,14.47,45.65,23.7,74.46,24.51,75.56.67.92,1.44,1.48,2.2,1.9,1.65.9,3.27.88,4.09.82,35.2-11.25,74.56-24.02,75.15-24.47,1.15-.87,1.73-1.91,2.01-2.43,0,0,.98-1.47,1-3.22,0-.35-12.9-39.68-24.67-75.79ZM253.04,379.02c-.03,1.71-.98,3.14-.98,3.14-.27.5-.83,1.52-1.96,2.36-.58.43-38.92,12.87-73.22,23.84-.8.07-2.38.08-3.98-.79-.74-.4-1.49-.95-2.15-1.85-.78-1.08-9.76-29.1-23.83-73.49-.04-.61,0-1.58.4-2.68.7-1.85,2.05-2.85,2.59-3.21,24.59-8.04,49.18-16.07,73.77-24.11.66.08,1.7.28,2.84.89,1.3.71,2.11,1.63,2.53,2.18,11.45,35.12,24,73.37,24,73.71Z"/>
            <path class="st17" d="M253.04,379.02c-.03,1.71-.98,3.14-.98,3.14-.27.5-.83,1.52-1.96,2.36-.58.43-38.92,12.87-73.22,23.84-.8.07-2.38.08-3.98-.79-.74-.4-1.49-.95-2.15-1.85-.78-1.08-9.76-29.1-23.83-73.49-.04-.61,0-1.58.4-2.68.7-1.85,2.05-2.85,2.59-3.21,24.59-8.04,49.18-16.07,73.77-24.11.66.08,1.7.28,2.84.89,1.3.71,2.11,1.63,2.53,2.18,11.45,35.12,24,73.37,24,73.71Z"/>
            <path class="st7" d="M232.45,363.37"/>
          </g>
          <g>
            <path class="st33" d="M194.35,329.21l-12.15,24.01-13.67-6.95c5.38-10.05,15.35-16.11,25.82-17.06Z"/>
            <path class="st27" d="M211.02,332.3l-14.22,28.35-14.6-7.43,12.15-24.01c5.63-.51,11.39.46,16.67,3.09Z"/>
            <path class="st39" d="M222.89,342.69l-12.31,24.97-13.77-7.01,14.22-28.35s.07.03.11.05c4.84,2.43,8.83,6.03,11.76,10.34Z"/>
            <path class="st37" d="M226.41,372.54c-.52,1.36-1.69,1.56-1.69,1.56-.82.24-1.63-.06-2.12-.32l-12.03-6.12,12.31-24.97c5.74,8.43,7.42,19.56,3.53,29.85Z"/>
            <path class="st38" d="M199.11,361.83c-2.19,4.37-13.03,25.93-13.58,26.95-.23.43-.64.57-.72.6-.34.11-.65.02-.94-.06-.39-.11-1.65-.93-1.81-1.06-.65-.87-.73-1.58-.73-1.96,0-.22,10.74-21.5,13.38-26.71l4.39,2.24Z"/>
          </g>
        </g>
        <g>
          <g>
            <path class="st11" d="M123.59,99.7c-2.02-5.45-4.05-10.95-4.96-16.69-.91-5.74-.63-11.82,1.82-17.09,2.45-5.27,7.32-9.6,13.07-10.46,3.55-.53,7.28.24,10.7-.84,3.96-1.25,6.74-4.7,9.9-7.4,4.94-4.2,11.28-6.74,17.76-7.1,3.4-.19,6.93.23,9.9,1.91,2.96,1.68,5.27,4.77,5.35,8.17,4.03-1.14,8.12-2.3,12.31-2.36,4.19-.06,8.57,1.1,11.57,4.03,3,2.93,4.24,7.84,2.18,11.49,3.51-1.81,8.24-.05,10.18,3.39,1.94,3.45,1.25,8.01-1.19,11.13-2.44,3.11-7.88,5.73-11.82,6.08-3.94.35-8.51.51-12.19-.92"/>
            <g>
              <g>
                <path class="st22" d="M153.79,227.86h0c17.53,1.76,32.62-12.28,32.14-29.89-.26-9.44-.45-17.5-.41-18.65,0,0,23.51-2.53,24.9-25.85,1.39-23.32-.12-77.11-.12-77.11h0c-26.47-12.89-57.84-10.44-81.99,6.4l-3.58,2.5,2.76,114.22c.36,14.74,11.63,26.91,26.3,28.38Z"/>
                <path class="st12" d="M185.57,178.99s-14.81.5-30.02-10.08c0,0,6.4,17.14,29.79,16.13l.23-6.05Z"/>
              </g>
              <g>
                <path class="st22" d="M126.46,109.57c-.39-.19-15.81-5.5-16.06,10.48-.24,15.98,15.85,12.93,15.88,12.47.03-.46.17-22.95.17-22.95Z"/>
                <path class="st12" d="M121.5,126.39c-.07-.05-.28.19-.76.4-.46.2-1.25.34-2.08.01-1.68-.65-3.06-3.35-3.09-6.23-.02-1.45.31-2.84.84-3.97.51-1.16,1.27-1.97,2.13-2.1.85-.18,1.44.34,1.63.79.21.45.1.77.18.8.04.04.35-.26.23-.92-.06-.32-.24-.7-.61-1.01-.38-.32-.94-.49-1.53-.43-1.23.07-2.36,1.18-2.95,2.43-.65,1.25-1.05,2.81-1.03,4.44.05,3.22,1.66,6.26,3.96,6.96,1.12.31,2.06-.01,2.55-.38.5-.39.59-.74.54-.77Z"/>
              </g>
            </g>
            <path class="st11" d="M211.12,83.58s-15.87,4.52-33.96-3.34c-11.87-5.15-25.5-7.25-28.35-4.77-2.85,2.48-2.84,14.43-14.11,18.53,0,0,2.98,33.66-6.13,33.66-6.71,0-6.3-47.14-6.3-47.14l21.6-12.02,23.95-5.87,22.67-1.21,21.42,5.35-.79,16.8Z"/>
          </g>
          <g>
            <g>
              <g>
                <path class="st11" d="M204.8,110.82c.06,1.8-1.41,3.34-3.29,3.44-1.88.1-3.45-1.27-3.52-3.08-.06-1.8,1.41-3.34,3.29-3.44,1.88-.1,3.46,1.28,3.52,3.08Z"/>
                <path class="st11" d="M205.54,106.98c-.42.44-3.01-1.47-6.68-1.46-3.67-.04-6.36,1.85-6.76,1.4-.2-.2.24-1,1.41-1.86,1.16-.85,3.12-1.68,5.41-1.67,2.29.01,4.21.85,5.31,1.72,1.13.87,1.51,1.67,1.3,1.87Z"/>
              </g>
              <g>
                <path class="st11" d="M168.85,111.68c.06,1.8-1.41,3.34-3.29,3.44-1.88.1-3.45-1.27-3.52-3.08-.06-1.8,1.41-3.34,3.29-3.44,1.88-.1,3.46,1.28,3.52,3.08Z"/>
                <path class="st11" d="M169.46,107.67c-.42.45-3.01-1.47-6.68-1.46-3.67-.04-6.36,1.85-6.76,1.4-.19-.2.23-1,1.41-1.86,1.15-.85,3.12-1.68,5.41-1.67,2.29.01,4.21.85,5.32,1.72,1.13.87,1.51,1.67,1.3,1.87Z"/>
              </g>
              <path class="st11" d="M182.78,134.89c-.02-.21,2.26-.6,5.96-1.08.94-.1,1.82-.28,1.98-.92.22-.68-.17-1.69-.63-2.78-.88-2.27-1.8-4.65-2.77-7.14-3.85-10.16-6.64-18.52-6.23-18.67.41-.15,3.86,7.96,7.71,18.12.93,2.51,1.81,4.89,2.66,7.18.35,1.06.97,2.27.49,3.68-.25.7-.94,1.21-1.54,1.37-.6.18-1.13.19-1.59.22-3.72.2-6.03.22-6.04,0Z"/>
              <path class="st11" d="M171.98,137.43c.6-.03.61,3.95,4.02,6.78,3.4,2.84,7.65,2.39,7.68,2.95.06.25-.95.77-2.74.82-1.76.06-4.33-.5-6.41-2.23-2.08-1.73-2.97-4.05-3.11-5.68-.15-1.67.29-2.65.56-2.63Z"/>
            </g>
            <path class="st11" d="M170.41,93.28c-.36,1-4.03.52-8.33,1.04-4.32.43-7.79,1.69-8.36.8-.25-.43.35-1.37,1.75-2.33,1.39-.96,3.61-1.88,6.2-2.17,2.59-.28,4.95.13,6.52.77,1.58.64,2.38,1.42,2.22,1.89Z"/>
            <path class="st11" d="M204.19,96.36c-.65.83-3.17-.03-6.22-.07-3.04-.15-5.61.56-6.21-.31-.26-.42.15-1.26,1.27-2.05,1.11-.79,2.96-1.43,5.05-1.37,2.09.07,3.9.82,4.96,1.68,1.07.86,1.43,1.72,1.14,2.12Z"/>
          </g>
        </g>
        <g>
          <path class="st30" d="M85.13,208.45s-21.5,11.07-31.04,50.8c-4.71,19.6-24.19,83.36-27.32,119.01-1.95,22.15,22.23,42.8,44.23,46.04.33.05.67.08,1.01.14,45.72,9.17,89.92-3.25,89.92-3.25l-9.21-41.72s-58.42-11.32-65.86-14.81l22.67-89.61s16.95-62.79-24.38-66.61Z"/>
          <path class="st11" d="M90.44,217.44s.28,0,.81.1c.53.1,1.33.21,2.36.46,2.03.55,5.08,1.49,8.43,3.82,3.36,2.27,6.75,6.23,8.91,11.63,2.18,5.39,3.16,12.06,2.97,19.36-.09,3.65-.47,7.48-1.18,11.42-.82,3.95-1.92,7.9-2.93,12.08-2.08,8.34-4.32,17.26-6.67,26.69-4.75,18.87-9.99,39.73-15.56,61.84l-.53-.92c6.84,1.93,14.12,3.85,21.51,5.68,7.76,1.9,15.43,3.65,22.99,5.09,3.78.7,7.54,1.36,11.26,1.81,1.83.24,3.76.38,5.64.82.94.22,1.87.47,2.8.89.94.37,1.88,1.17,2.4,2.03,1.13,1.77,1.41,3.67,1.86,5.41.39,1.78.78,3.55,1.17,5.3.73,3.52,1.36,7,1.97,10.41,1.22,6.83,2.39,13.43,3.91,19.65l.16.66-.65.16c-28.08,6.94-52.55,7.07-69.33,5.71-16.85-1.4-26.26-3.9-26.26-3.9,0-.04.61.04,1.77.21,1.25.2,2.94.46,5.1.8,4.47.66,11.05,1.53,19.45,2.09,16.74,1.12,41.07.79,68.94-6.23l-.49.82c-1.56-6.27-2.76-12.9-4.01-19.72-.63-3.41-1.26-6.88-2-10.37-.39-1.74-.78-3.49-1.18-5.26-.43-1.76-.77-3.57-1.66-4.93-.81-1.41-2.51-1.82-4.29-2.27-1.76-.41-3.59-.54-5.5-.79-3.77-.45-7.55-1.1-11.36-1.81-7.61-1.44-15.3-3.19-23.08-5.1-7.42-1.84-14.7-3.76-21.57-5.7l-.72-.2.18-.72c5.62-22.1,10.92-42.95,15.72-61.8,2.41-9.41,4.69-18.33,6.82-26.65,1.03-4.15,2.18-8.18,3-12,.73-3.87,1.13-7.64,1.25-11.24.26-7.19-.64-13.74-2.7-19.03-2.04-5.29-5.26-9.19-8.49-11.48-3.22-2.34-6.2-3.36-8.18-3.99-1-.29-1.79-.45-2.31-.6-.52-.14-.79-.22-.78-.24Z"/>
          <path class="st11" d="M58.77,382.26c-.15-.03.07-2.11,1.58-5.1,1.48-2.98,4.52-6.68,8.93-9.31,4.42-2.62,9.12-3.52,12.45-3.4,3.35.09,5.28.9,5.24,1.04-.06.27-2.04-.14-5.21.05-3.16.16-7.51,1.18-11.68,3.64-4.15,2.49-7.11,5.83-8.77,8.53-1.68,2.7-2.27,4.64-2.53,4.56Z"/>
        </g>
        <g>
          <path class="st22" d="M155.16,383.2l16.85-1.85s6.93-11.5,11.48-15.51c4.55-4.01,28.08-15.27,28.08-15.27,0,0,3.45,4.12,0,8.26-1.55,1.86-12.67,8.12-12.67,8.12h0c-1.32,4.58,2.63,8.95,7.32,8.09,6.89-1.26,14.92-2.69,15.98-2.69,1.18,0,8.06-6.51,13.11-11.45,3.03-2.96,8.43-.13,7.23,3.93-.12.42-.32.77-.6,1.02,0,0,7.26-.26.78,9.5,0,0,1.49,9.01-3.82,13.14,0,0-2.29,10.89-5.71,14.64-3.42,3.75-36.79,10.89-36.79,10.89l-34.77,3.37-6.48-34.18Z"/>
          <path class="st12" d="M209.21,385.37c.01.2,2.28.33,5.97.15,3.64-.24,8.95-.75,14.03-3.69,5.05-3.04,7.92-7.59,9.77-10.73,1.83-3.21,2.72-5.31,2.55-5.4-.2-.12-1.43,1.81-3.47,4.82-2.06,2.96-4.98,7.19-9.64,9.98-4.69,2.73-9.78,3.42-13.35,3.93-3.62.46-5.88.71-5.87.94Z"/>
          <path class="st12" d="M212.65,393.1c-.04.2,2.07.67,5.45.43,1.69-.11,3.69-.37,5.88-.86,2.16-.54,4.64-1.15,6.88-2.81,2.13-1.64,3.7-3.55,5.12-5.26,1.27-1.58,2.49-3.1,3.67-4.57,2.07-2.63,3.26-4.32,3.1-4.46-.16-.14-1.65,1.3-3.93,3.75-1.13,1.22-2.49,2.7-3.93,4.36-1.45,1.64-3.03,3.47-4.96,4.94-1.88,1.42-4.23,2.07-6.29,2.66-2.1.55-4.03.91-5.66,1.15-3.27.51-5.31.44-5.33.66Z"/>
          <path class="st12" d="M217.34,401.7c.1.62,6.07-.64,13.12-2.61,1.17-.26,1.9-1,2.58-1.56.68-.61,1.28-1.23,1.81-1.85,1.08-1.23,1.94-2.43,2.58-3.49,1.29-2.12,1.65-3.65,1.47-3.71-.21-.08-.9,1.23-2.36,3.1-.73.94-1.64,2.02-2.73,3.14-.54.56-1.13,1.13-1.76,1.67-.65.52-1.29,1.1-1.97,1.21-3.6.97-6.76,1.98-9.06,2.72-2.3.77-3.68,1.21-3.68,1.38Z"/>
        </g>
      </g>
      <g>
        <path class="st16" d="M522.22,161.89c-8.67,0-15.69-7.02-15.69-15.69s7.02-15.69,15.69-15.69,15.69,7.02,15.69,15.69-7.02,15.69-15.69,15.69ZM522.22,155.41c5.08,0,9.2-4.12,9.2-9.2s-4.12-9.2-9.2-9.2-9.2,4.12-9.2,9.2,4.12,9.2,9.2,9.2ZM489.38,161.89c-8.67,0-15.69-7.02-15.69-15.69s7.02-15.69,15.69-15.69,15.69,7.02,15.69,15.69-7.02,15.69-15.69,15.69ZM489.38,155.41c5.08,0,9.2-4.12,9.2-9.2s-4.12-9.2-9.2-9.2-9.2,4.12-9.2,9.2,4.12,9.2,9.2,9.2ZM472.22,145.99c0,8.77-7.03,15.9-15.69,15.9s-15.69-7.11-15.69-15.88,6.38-15.5,15.69-15.5c3.44,0,6.62.73,9.21,2.63v-9.1c0-1.74,1.52-3.16,3.24-3.16s3.24,1.41,3.24,3.16v21.95ZM456.53,155.41c5.08,0,9.2-4.12,9.2-9.2s-4.12-9.2-9.2-9.2-9.2,4.12-9.2,9.2,4.12,9.2,9.2,9.2Z"/>
        <path class="st16" d="M423.69,161.89c-8.67,0-15.69-7.02-15.69-15.69s7.02-15.69,15.69-15.69,15.69,7.02,15.69,15.69-7.02,15.69-15.69,15.69ZM423.69,155.41c5.08,0,9.2-4.12,9.2-9.2s-4.12-9.2-9.2-9.2-9.2,4.12-9.2,9.2,4.12,9.2,9.2,9.2Z"/>
      </g>
    </g>
  </g>
</svg>