<?xml version="1.0" encoding="UTF-8"?>
<svg id="Capa_1" xmlns="http://www.w3.org/2000/svg" version="1.1" viewBox="0 0 605.65 900">
  <!-- Generator: Adobe Illustrator 30.2.1, SVG Export Plug-In . SVG Version: 2.1.1 Build 1)  -->
  <defs>
    <style>
      .st0 {
        opacity: .6;
      }

      .st1 {
        fill: #144496;
      }

      .st2 {
        fill: #263238;
      }

      .st3 {
        fill: #985184;
        fill-rule: evenodd;
      }

      .st4 {
        opacity: .3;
      }

      .st5 {
        fill: #fff;
      }

      .st6 {
        fill: #e0e0e0;
      }

      .st7 {
        fill: #313b3f;
      }

      .st8 {
        fill: #455a64;
      }

      .st9 {
        fill: #e0e0e0;
      }

      .st10 {
        fill: #7c4235;
      }

      .st11 {
        fill: #ebebeb;
      }

      .st12 {
        fill: #2ebcfa;
      }

      .st13 {
        fill: #ffc09d;
      }

      .st14 {
        opacity: .08;
      }
    </style>
  </defs>
  <g class="st14">
    <path class="st11" d="M350.62,249.56c-46.27-.62-88.14-1.18-118.5-1.58-15.14-.13-27.4-.23-35.91-.31-4.22,0-7.5-.01-9.76-.01-1.09.01-1.94.02-2.54.02-.57.01-.87.03-.87.04,0,.02.29.04.86.06.6.02,1.45.04,2.54.07,2.27.04,5.55.09,9.76.16,8.51.08,20.77.19,35.91.33,30.35.13,72.23.32,118.51.52,46.25.17,88.14.38,118.46.72,15.16.17,27.43.36,35.91.55,4.24.1,7.53.2,9.76.29,2.23.09,3.4.19,3.4.27,0,.08-1.17.15-3.41.21-2.23.06-5.53.1-9.77.12-8.48.04-20.75.02-35.91-.09-30.32-.2-72.2-.72-118.45-1.38Z"/>
    <path class="st11" d="M349.65,260c-45.61-7.8-86.89-14.87-116.81-19.99-14.94-2.48-27.03-4.49-35.43-5.88-4.16-.66-7.41-1.17-9.64-1.53-1.08-.16-1.92-.28-2.51-.37-.57-.08-.86-.11-.86-.09,0,.02.28.08.84.2.59.11,1.42.26,2.5.47,2.23.39,5.46.95,9.62,1.68,8.4,1.4,20.49,3.42,35.42,5.91,29.97,4.85,71.31,11.53,116.99,18.92,45.66,7.35,87.01,14.07,116.91,19.11,14.95,2.52,27.04,4.61,35.39,6.13,4.17.76,7.41,1.37,9.6,1.81,2.19.44,3.33.72,3.32.8-.01.08-1.18-.03-3.4-.32-2.21-.29-5.47-.76-9.67-1.4-8.38-1.27-20.5-3.2-35.46-5.66-29.92-4.91-71.21-11.94-116.8-19.78Z"/>
    <path class="st11" d="M347.07,270.16c-43.81-14.89-83.46-28.37-112.2-38.14-14.36-4.8-25.99-8.69-34.06-11.39-4.01-1.31-7.13-2.32-9.28-3.03-1.04-.33-1.85-.58-2.42-.76-.55-.16-.83-.24-.84-.22,0,.02.27.13.8.33.57.2,1.36.49,2.39.85,2.14.74,5.25,1.8,9.23,3.17,8.07,2.71,19.69,6.6,34.05,11.41,28.83,9.5,68.6,22.61,112.55,37.1,43.94,14.44,83.71,27.59,112.44,37.28,14.37,4.84,25.98,8.82,33.98,11.62,4,1.4,7.1,2.52,9.19,3.3,2.09.78,3.18,1.23,3.15,1.31-.03.08-1.17-.21-3.31-.85-2.14-.64-5.29-1.61-9.33-2.9-8.08-2.58-19.74-6.39-34.13-11.17-28.78-9.56-68.44-23.01-112.22-37.93Z"/>
    <path class="st11" d="M342.92,279.77c-40.93-21.6-77.96-41.14-104.81-55.31-13.43-7-24.3-12.67-31.84-16.61-3.75-1.92-6.67-3.42-8.69-4.45-.98-.49-1.73-.86-2.27-1.13-.51-.25-.78-.37-.79-.35,0,.02.24.17.74.45.53.29,1.27.69,2.23,1.22,2,1.06,4.9,2.6,8.62,4.58,7.54,3.94,18.41,9.62,31.83,16.63,26.97,13.92,64.19,33.13,105.31,54.36,41.12,21.18,78.32,40.42,105.17,54.51,13.43,7.04,24.27,12.79,31.73,16.82,3.73,2.02,6.62,3.6,8.56,4.7,1.94,1.1,2.95,1.72,2.91,1.79-.04.07-1.12-.39-3.13-1.36-2.01-.97-4.97-2.43-8.75-4.34-7.57-3.82-18.49-9.42-31.94-16.41-26.91-13.97-63.97-33.49-104.86-55.11Z"/>
    <path class="st11" d="M337.31,288.62c-37.05-27.73-70.57-52.82-94.87-71.01-12.17-9.01-22.02-16.31-28.86-21.38-3.41-2.49-6.06-4.42-7.89-5.75-.89-.63-1.58-1.12-2.07-1.47-.47-.33-.72-.49-.73-.47-.01.01.21.2.66.56.48.37,1.14.88,2.01,1.55,1.81,1.36,4.43,3.34,7.8,5.88,6.84,5.07,16.68,12.38,28.84,21.4,24.47,17.97,58.22,42.76,95.52,70.15,37.3,27.35,71.04,52.17,95.36,70.28,12.16,9.05,21.97,16.43,28.71,21.58,3.37,2.57,5.97,4.59,7.72,5.98,1.75,1.39,2.64,2.16,2.59,2.22-.05.07-1.04-.56-2.88-1.83-1.84-1.27-4.52-3.17-7.97-5.65-6.88-4.95-16.79-12.19-28.99-21.2-24.4-18-57.95-43.08-94.96-70.82Z"/>
    <path class="st11" d="M330.4,296.48c-32.28-33.15-61.5-63.16-82.68-84.9-10.62-10.8-19.21-19.54-25.18-25.61-2.98-2.99-5.3-5.31-6.9-6.91-.78-.77-1.38-1.35-1.81-1.78-.41-.4-.63-.59-.64-.58-.01.01.18.23.57.65.41.44.99,1.05,1.74,1.85,1.58,1.63,3.86,3.99,6.79,7.02,5.96,6.07,14.55,14.82,25.16,25.62,21.37,21.55,50.86,51.29,83.44,84.15,32.59,32.82,62.06,62.58,83.26,84.26,10.6,10.84,19.15,19.65,25,25.78,2.93,3.07,5.19,5.46,6.7,7.11,1.51,1.65,2.27,2.54,2.21,2.6-.06.06-.94-.72-2.56-2.26-1.62-1.54-3.98-3.84-6.99-6.82-6.03-5.96-14.69-14.66-25.34-25.45-21.3-21.58-50.55-51.56-82.79-84.73Z"/>
    <path class="st11" d="M322.35,303.18c-26.73-37.77-50.93-71.95-68.46-96.73-8.81-12.32-15.94-22.29-20.89-29.21-2.48-3.41-4.41-6.07-5.74-7.9-.65-.88-1.16-1.55-1.52-2.04-.35-.46-.53-.68-.55-.67s.14.26.46.73c.34.5.82,1.19,1.44,2.09,1.3,1.85,3.19,4.54,5.62,7.99,4.95,6.93,12.07,16.9,20.87,29.23,17.76,24.62,42.26,58.58,69.34,96.1,27.09,37.49,51.57,71.47,69.14,96.18,8.79,12.35,15.86,22.38,20.69,29.35,2.42,3.49,4.27,6.2,5.51,8.06,1.24,1.86,1.85,2.86,1.78,2.91-.07.05-.82-.86-2.18-2.63-1.36-1.77-3.33-4.41-5.85-7.82-5.03-6.83-12.23-16.76-21.07-29.08-17.69-24.63-41.91-58.8-68.6-96.57Z"/>
    <path class="st11" d="M313.35,308.53c-20.5-41.49-39.05-79.03-52.49-106.25-6.77-13.54-12.26-24.51-16.07-32.12-1.91-3.76-3.4-6.68-4.43-8.7-.51-.97-.9-1.71-1.18-2.25-.27-.5-.42-.76-.44-.75-.02,0,.1.28.34.8.26.55.62,1.31,1.09,2.29,1,2.03,2.44,4.98,4.3,8.77,3.8,7.62,9.28,18.58,16.04,32.13,13.69,27.09,32.59,64.46,53.46,105.76,20.9,41.26,39.76,78.66,53.26,105.81,6.75,13.58,12.16,24.59,15.84,32.23,1.84,3.82,3.25,6.8,4.18,8.83.93,2.03,1.38,3.12,1.3,3.15-.08.04-.67-.97-1.74-2.94-1.07-1.96-2.6-4.88-4.55-8.64-3.9-7.53-9.46-18.47-16.26-32.02-13.62-27.09-32.2-64.63-52.65-106.11Z"/>
    <path class="st11" d="M303.62,312.41c-13.71-44.2-26.13-84.19-35.12-113.18-4.56-14.44-8.25-26.13-10.81-34.25-1.3-4.01-2.31-7.13-3.01-9.29-.35-1.04-.62-1.83-.81-2.41-.19-.54-.29-.81-.31-.81-.02,0,.05.29.21.84.17.58.41,1.39.72,2.44.66,2.17,1.63,5.3,2.86,9.33,2.56,8.12,6.24,19.81,10.79,34.25,9.26,28.91,22.04,68.79,36.16,112.86,14.15,44.04,26.9,83.93,35.95,112.87,4.53,14.47,8.14,26.2,10.58,34.32,1.22,4.06,2.14,7.22,2.74,9.38.6,2.15.87,3.3.79,3.32-.08.03-.51-1.07-1.26-3.17-.74-2.11-1.8-5.22-3.14-9.25-2.67-8.05-6.44-19.73-11.03-34.18-9.18-28.9-21.63-68.89-35.3-113.08Z"/>
    <path class="st11" d="M293.4,314.71c-6.59-45.8-12.55-87.25-16.88-117.3-2.23-14.98-4.04-27.1-5.29-35.52-.65-4.17-1.16-7.41-1.51-9.65-.18-1.08-.32-1.91-.42-2.5-.1-.56-.16-.85-.18-.85-.02,0,0,.3.07.86.08.6.18,1.43.32,2.52.32,2.24.77,5.49,1.36,9.67,1.25,8.42,3.04,20.55,5.26,35.52,4.6,30,10.94,71.4,17.95,117.14,7.04,45.71,13.35,87.12,17.74,117.12,2.2,15,3.92,27.15,5.04,35.56.56,4.2.98,7.47,1.23,9.69.25,2.22.34,3.39.26,3.4-.08.01-.34-1.14-.74-3.33-.4-2.2-.96-5.44-1.64-9.63-1.37-8.37-3.25-20.49-5.51-35.49-4.52-29.98-10.52-71.44-17.07-117.22Z"/>
    <path class="st11" d="M282.94,315.38c.59-46.27,1.12-88.15,1.51-118.5.12-15.14.22-27.4.29-35.91,0-4.22,0-7.5,0-9.76-.01-1.09-.02-1.94-.03-2.54-.01-.57-.03-.87-.04-.87-.02,0-.04.29-.06.86-.02.6-.04,1.45-.07,2.54-.04,2.27-.09,5.55-.15,9.76-.07,8.51-.18,20.77-.31,35.91-.11,30.35-.27,72.23-.44,118.51-.14,46.25-.33,88.14-.65,118.46-.16,15.16-.34,27.43-.53,35.91-.09,4.24-.19,7.53-.28,9.76-.09,2.23-.18,3.4-.27,3.4-.08,0-.16-1.17-.21-3.41-.06-2.23-.1-5.53-.12-9.77-.05-8.48-.03-20.75.06-35.91.18-30.32.68-72.2,1.3-118.45Z"/>
    <path class="st11" d="M272.5,314.42c7.78-45.62,14.81-86.9,19.91-116.82,2.47-14.94,4.47-27.03,5.86-35.43.66-4.17,1.17-7.41,1.52-9.65.16-1.08.28-1.92.37-2.51.08-.57.11-.86.09-.86-.02,0-.08.28-.19.84-.11.59-.26,1.42-.46,2.5-.39,2.23-.95,5.47-1.67,9.62-1.39,8.4-3.4,20.49-5.89,35.43-4.83,29.97-11.49,71.31-18.84,117-7.32,45.67-14.01,87.02-19.04,116.92-2.51,14.95-4.6,27.04-6.1,35.39-.75,4.17-1.36,7.41-1.8,9.6-.44,2.19-.71,3.33-.8,3.32-.08-.01.03-1.18.32-3.4.29-2.21.76-5.47,1.39-9.67,1.27-8.39,3.19-20.5,5.64-35.47,4.89-29.92,11.9-71.22,19.7-116.81Z"/>
    <path class="st11" d="M262.34,311.84c14.87-43.82,28.32-83.48,38.07-112.23,4.79-14.36,8.67-25.99,11.37-34.07,1.3-4.01,2.32-7.13,3.02-9.29.33-1.04.58-1.85.76-2.42.16-.55.24-.83.22-.84-.02,0-.13.27-.33.8-.2.57-.49,1.36-.85,2.39-.74,2.14-1.8,5.25-3.17,9.24-2.7,8.07-6.59,19.7-11.39,34.06-9.48,28.83-22.57,68.62-37.03,112.57-14.42,43.95-27.54,83.72-37.21,112.46-4.83,14.37-8.8,25.98-11.6,33.99-1.4,4-2.51,7.1-3.29,9.2-.78,2.09-1.23,3.18-1.31,3.15-.08-.03.21-1.17.85-3.31.63-2.14,1.61-5.29,2.9-9.33,2.57-8.08,6.38-19.75,11.15-34.14,9.54-28.78,22.96-68.46,37.86-112.25Z"/>
    <path class="st11" d="M252.73,307.7c21.57-40.94,41.09-77.99,55.24-104.84,6.99-13.43,12.65-24.3,16.58-31.85,1.92-3.75,3.41-6.68,4.45-8.69.49-.98.86-1.73,1.13-2.27.25-.52.37-.78.35-.79-.02,0-.17.24-.45.74-.29.53-.69,1.27-1.22,2.23-1.06,2-2.6,4.9-4.58,8.62-3.94,7.55-9.61,18.42-16.61,31.84-13.91,26.98-33.09,64.21-54.29,105.34-21.16,41.13-40.37,78.35-54.45,105.2-7.03,13.43-12.78,24.27-16.8,31.74-2.01,3.73-3.6,6.62-4.7,8.56-1.1,1.94-1.71,2.95-1.79,2.91-.07-.04.39-1.12,1.36-3.13.96-2.02,2.42-4.97,4.33-8.75,3.81-7.58,9.41-18.49,16.39-31.95,13.95-26.92,33.45-63.99,55.04-104.89Z"/>
    <path class="st11" d="M243.88,302.1c27.71-37.06,52.78-70.61,70.95-94.92,9.01-12.17,16.3-22.03,21.36-28.87,2.48-3.41,4.42-6.06,5.75-7.89.63-.89,1.12-1.58,1.47-2.07.33-.47.49-.72.47-.73-.01-.01-.2.21-.56.66-.37.48-.88,1.15-1.55,2.01-1.36,1.81-3.34,4.43-5.87,7.8-5.07,6.84-12.37,16.69-21.38,28.85-17.95,24.48-42.72,58.25-70.09,95.56-27.33,37.32-52.12,71.07-70.22,95.4-9.05,12.17-16.41,21.98-21.56,28.72-2.57,3.37-4.59,5.98-5.98,7.72s-2.15,2.64-2.22,2.59c-.07-.05.56-1.04,1.83-2.88,1.27-1.84,3.17-4.53,5.64-7.97,4.95-6.89,12.19-16.8,21.18-29,17.99-24.41,43.04-57.98,70.76-95Z"/>
    <path class="st11" d="M236.01,295.19c33.13-32.3,63.12-61.54,84.85-82.73,10.79-10.62,19.53-19.22,25.59-25.19,2.98-2.98,5.3-5.3,6.91-6.9.76-.78,1.35-1.38,1.78-1.82.4-.41.59-.63.58-.64-.01-.01-.23.18-.65.57-.44.42-1.05.99-1.84,1.75-1.63,1.58-3.98,3.86-7.01,6.79-6.07,5.97-14.81,14.56-25.61,25.18-21.54,21.39-51.26,50.89-84.1,83.49-32.8,32.61-62.54,62.1-84.21,83.31-10.83,10.61-19.63,19.16-25.76,25.02-3.06,2.93-5.46,5.19-7.11,6.7-1.64,1.51-2.54,2.28-2.6,2.22-.06-.06.72-.94,2.26-2.56,1.54-1.62,3.84-3.98,6.82-7,5.96-6.03,14.65-14.7,25.43-25.35,21.57-21.31,51.53-50.58,84.67-82.84Z"/>
    <path class="st11" d="M229.31,287.14c37.76-26.76,71.92-50.97,96.69-68.52,12.31-8.82,22.28-15.95,29.2-20.91,3.41-2.48,6.06-4.41,7.9-5.74.88-.65,1.55-1.16,2.04-1.52.46-.35.68-.53.67-.55-.01-.01-.26.14-.73.46-.5.34-1.19.82-2.09,1.44-1.85,1.3-4.54,3.19-7.98,5.62-6.92,4.95-16.9,12.08-29.21,20.89-24.6,17.78-58.55,42.3-96.06,69.4-37.47,27.12-71.44,51.62-96.14,69.2-12.35,8.8-22.37,15.87-29.34,20.71-3.48,2.42-6.2,4.28-8.06,5.51-1.86,1.24-2.86,1.85-2.91,1.78-.05-.07.86-.82,2.63-2.18,1.77-1.36,4.41-3.33,7.82-5.85,6.83-5.03,16.76-12.24,29.07-21.09,24.62-17.7,58.77-41.95,96.53-68.66Z"/>
    <path class="st11" d="M223.95,278.15c41.48-20.52,79.01-39.1,106.21-52.56,13.54-6.78,24.5-12.27,32.11-16.09,3.76-1.92,6.68-3.41,8.7-4.44.97-.51,1.71-.9,2.25-1.18.5-.27.76-.42.75-.44,0-.02-.28.1-.8.34-.54.26-1.31.62-2.29,1.09-2.03,1-4.98,2.44-8.77,4.3-7.61,3.81-18.58,9.29-32.12,16.06-27.08,13.71-64.44,32.63-105.73,53.53-41.25,20.92-78.63,39.81-105.78,53.32-13.57,6.76-24.58,12.18-32.22,15.86-3.82,1.84-6.79,3.25-8.82,4.19-2.03.93-3.12,1.38-3.15,1.31-.04-.08.97-.67,2.94-1.74,1.96-1.07,4.87-2.6,8.64-4.56,7.53-3.9,18.46-9.47,32.01-16.28,27.08-13.63,64.61-32.24,106.08-52.72Z"/>
    <path class="st11" d="M220.07,268.42c44.19-13.74,84.18-26.18,113.16-35.19,14.44-4.57,26.12-8.27,34.24-10.84,4.01-1.3,7.13-2.32,9.29-3.02,1.04-.35,1.83-.62,2.41-.81.54-.19.81-.29.81-.31,0-.02-.29.05-.84.21-.58.17-1.39.41-2.44.72-2.17.67-5.3,1.63-9.33,2.87-8.12,2.56-19.81,6.25-34.25,10.81-28.9,9.28-68.77,22.08-112.83,36.23-44.03,14.18-83.92,26.95-112.85,36.02-14.47,4.54-26.19,8.16-34.31,10.6-4.06,1.22-7.22,2.14-9.37,2.74-2.15.6-3.29.87-3.32.79-.03-.08,1.07-.51,3.17-1.26,2.11-.75,5.22-1.81,9.25-3.14,8.05-2.67,19.72-6.45,34.17-11.05,28.89-9.2,68.88-21.67,113.05-35.37Z"/>
    <path class="st11" d="M217.76,258.2c45.8-6.62,87.25-12.61,117.29-16.95,14.98-2.24,27.1-4.05,35.52-5.31,4.17-.65,7.41-1.16,9.65-1.52,1.08-.18,1.91-.32,2.5-.42.56-.1.85-.16.85-.18,0-.02-.3,0-.86.07-.6.08-1.43.19-2.52.33-2.24.32-5.49.78-9.67,1.37-8.42,1.25-20.54,3.06-35.52,5.29-30,4.62-71.39,10.99-117.13,18.02-45.71,7.07-87.11,13.41-117.11,17.81-15,2.21-27.15,3.94-35.55,5.07-4.2.57-7.47.98-9.69,1.24s-3.39.35-3.4.26c-.01-.08,1.14-.34,3.33-.74,2.2-.41,5.44-.96,9.63-1.65,8.37-1.37,20.49-3.26,35.48-5.53,29.98-4.54,71.43-10.57,117.21-17.15Z"/>
    <path class="st11" d="M217.08,247.75c46.27.56,88.15,1.07,118.5,1.43,15.14.11,27.4.2,35.91.26,4.22,0,7.5,0,9.76,0,1.09-.01,1.94-.02,2.54-.03.57-.01.87-.03.87-.05,0-.02-.29-.04-.86-.06-.6-.02-1.45-.04-2.54-.07-2.27-.03-5.55-.08-9.76-.15-8.51-.07-20.77-.16-35.91-.28-30.35-.1-72.23-.23-118.51-.37-46.25-.11-88.14-.28-118.46-.58-15.16-.15-27.43-.32-35.91-.51-4.24-.09-7.53-.19-9.76-.28-2.23-.09-3.4-.18-3.4-.27,0-.08,1.17-.16,3.41-.21,2.23-.06,5.53-.1,9.77-.13,8.48-.06,20.75-.04,35.91.04,30.32.16,72.2.64,118.45,1.23Z"/>
    <path class="st11" d="M218.03,237.31c45.62,7.75,86.91,14.76,116.83,19.84,14.94,2.46,27.04,4.45,35.43,5.84,4.17.65,7.41,1.16,9.65,1.52,1.08.16,1.92.28,2.51.36.57.08.86.11.86.09,0-.02-.28-.08-.84-.19-.59-.11-1.42-.26-2.5-.46-2.23-.39-5.47-.95-9.62-1.67-8.4-1.39-20.49-3.39-35.43-5.86-29.97-4.81-71.32-11.44-117.01-18.77-45.67-7.29-87.02-13.96-116.93-18.96-14.95-2.5-27.05-4.58-35.39-6.08-4.17-.75-7.41-1.36-9.6-1.8s-3.33-.71-3.32-.8c.01-.08,1.18.03,3.4.31,2.22.29,5.48.76,9.67,1.39,8.39,1.26,20.51,3.18,35.47,5.62,29.93,4.87,71.23,11.85,116.82,19.63Z"/>
    <path class="st11" d="M220.6,227.15c43.83,14.84,83.5,28.26,112.25,38,14.37,4.78,26,8.65,34.07,11.34,4.01,1.3,7.13,2.31,9.29,3.01,1.04.33,1.85.58,2.42.76.55.16.83.24.84.22,0-.02-.27-.13-.8-.33-.57-.2-1.36-.48-2.39-.85-2.14-.73-5.25-1.8-9.24-3.16-8.07-2.7-19.7-6.58-34.06-11.37-28.84-9.47-68.63-22.52-112.6-36.96-43.96-14.39-83.74-27.48-112.49-37.14-14.37-4.82-25.99-8.78-33.99-11.58-4-1.4-7.1-2.51-9.2-3.29-2.09-.78-3.18-1.23-3.15-1.31.03-.08,1.17.21,3.31.84,2.14.63,5.29,1.61,9.33,2.89,8.08,2.56,19.75,6.37,34.14,11.13,28.79,9.52,68.47,22.92,112.27,37.78Z"/>
    <path class="st11" d="M224.74,217.53c40.95,21.55,78.01,41.04,104.88,55.18,13.44,6.98,24.31,12.64,31.86,16.56,3.76,1.92,6.68,3.41,8.7,4.44.98.49,1.73.86,2.28,1.13.52.25.78.37.79.35,0-.02-.24-.17-.74-.45-.53-.29-1.27-.69-2.23-1.22-2-1.06-4.9-2.6-8.63-4.57-7.55-3.93-18.42-9.59-31.85-16.59-26.99-13.89-64.23-33.05-105.38-54.22-41.14-21.13-78.37-40.32-105.24-54.38-13.43-7.03-24.28-12.76-31.75-16.78-3.73-2.01-6.62-3.59-8.57-4.69-1.95-1.1-2.95-1.71-2.91-1.79s1.12.39,3.13,1.36c2.02.96,4.97,2.42,8.76,4.32,7.58,3.81,18.5,9.4,31.96,16.37,26.93,13.94,64.01,33.41,104.93,54.97Z"/>
    <path class="st11" d="M230.34,208.67c37.08,27.68,70.64,52.74,94.96,70.89,12.18,9,22.04,16.28,28.88,21.34,3.41,2.48,6.06,4.41,7.89,5.74.89.63,1.58,1.12,2.07,1.47.47.33.72.49.73.47.01-.01-.21-.2-.66-.56-.48-.37-1.15-.88-2.01-1.55-1.81-1.36-4.43-3.33-7.81-5.87-6.84-5.06-16.7-12.36-28.87-21.36-24.49-17.94-58.27-42.68-95.6-70.03-37.33-27.3-71.1-52.08-95.44-70.16-12.17-9.04-21.99-16.4-28.73-21.54-3.37-2.57-5.98-4.58-7.73-5.97-1.75-1.39-2.64-2.15-2.59-2.22.05-.07,1.04.56,2.88,1.83,1.84,1.27,4.53,3.17,7.97,5.64,6.89,4.94,16.8,12.17,29.01,21.16,24.42,17.97,58,43,95.05,70.7Z"/>
    <path class="st11" d="M237.24,200.8c32.33,33.11,61.58,63.08,82.78,84.8,10.63,10.78,19.24,19.51,25.21,25.58,2.98,2.98,5.3,5.3,6.91,6.9.78.76,1.38,1.35,1.82,1.77.41.4.63.59.64.58.01-.01-.18-.23-.57-.65-.42-.44-.99-1.05-1.75-1.84-1.58-1.63-3.86-3.98-6.8-7.01-5.97-6.07-14.57-14.8-25.19-25.59-21.4-21.53-50.92-51.23-83.55-84.05-32.63-32.78-62.14-62.51-83.37-84.15-10.62-10.82-19.17-19.62-25.03-25.75-2.93-3.06-5.19-5.46-6.71-7.1-1.51-1.64-2.28-2.54-2.22-2.6.06-.06.94.72,2.56,2.26,1.62,1.54,3.98,3.83,7,6.81,6.04,5.96,14.71,14.64,25.37,25.42,21.33,21.55,50.61,51.5,82.89,84.62Z"/>
    <path class="st11" d="M245.29,194.09c26.78,37.74,51.02,71.89,68.58,96.64,8.82,12.31,15.97,22.27,20.93,29.19,2.48,3.41,4.41,6.06,5.75,7.89.65.88,1.16,1.55,1.52,2.04.35.46.53.68.55.67.01-.01-.14-.26-.46-.73-.34-.5-.82-1.19-1.44-2.09-1.31-1.85-3.2-4.53-5.63-7.98-4.96-6.92-12.09-16.89-20.91-29.2-17.79-24.59-42.34-58.52-69.46-96.02-27.14-37.45-51.66-71.41-69.27-96.1-8.81-12.34-15.88-22.36-20.73-29.33-2.42-3.48-4.28-6.2-5.52-8.06-1.24-1.86-1.85-2.86-1.79-2.91.07-.05.82.86,2.18,2.63,1.36,1.77,3.34,4.41,5.86,7.82,5.04,6.82,12.25,16.75,21.11,29.05,17.72,24.61,41.98,58.75,68.72,96.49Z"/>
    <path class="st11" d="M254.28,188.73c20.55,41.46,39.15,78.98,52.63,106.18,6.79,13.53,12.29,24.49,16.11,32.1,1.92,3.75,3.41,6.68,4.44,8.69.51.97.9,1.71,1.18,2.25.27.5.42.76.44.75.02,0-.1-.28-.34-.8-.26-.54-.62-1.3-1.09-2.29-1-2.03-2.45-4.98-4.31-8.76-3.81-7.61-9.3-18.57-16.08-32.11-13.73-27.07-32.67-64.42-53.6-105.69-20.95-41.24-39.86-78.61-53.39-105.74-6.77-13.57-12.19-24.57-15.88-32.21-1.85-3.82-3.26-6.79-4.19-8.82-.93-2.03-1.38-3.12-1.31-3.15.08-.04.68.97,1.74,2.93,1.07,1.96,2.61,4.87,4.56,8.64,3.91,7.53,9.48,18.46,16.31,32,13.65,27.08,32.28,64.59,52.79,106.05Z"/>
    <path class="st11" d="M264,184.84c13.77,44.18,26.23,84.16,35.27,113.14,4.58,14.43,8.28,26.12,10.86,34.23,1.31,4.01,2.32,7.13,3.02,9.28.35,1.04.62,1.83.81,2.41.19.54.3.81.31.81.02,0-.05-.29-.21-.84-.17-.58-.41-1.39-.72-2.44-.67-2.17-1.63-5.3-2.88-9.33-2.57-8.12-6.26-19.8-10.83-34.24-9.3-28.89-22.13-68.76-36.3-112.81-14.2-44.02-27-83.9-36.09-112.83-4.55-14.46-8.17-26.19-10.62-34.31-1.22-4.06-2.15-7.22-2.75-9.37-.6-2.15-.88-3.29-.79-3.32.08-.03.51,1.07,1.26,3.17.75,2.1,1.81,5.22,3.15,9.25,2.68,8.05,6.46,19.72,11.07,34.16,9.22,28.89,21.72,68.86,35.45,113.03Z"/>
    <path class="st11" d="M274.22,182.53c6.65,45.8,12.66,87.24,17.03,117.28,2.25,14.97,4.07,27.1,5.33,35.51.66,4.17,1.17,7.41,1.52,9.64.18,1.08.32,1.91.43,2.5.1.56.16.85.18.85.02,0,0-.3-.08-.86-.08-.6-.19-1.43-.33-2.52-.32-2.24-.78-5.49-1.37-9.67-1.26-8.42-3.07-20.54-5.31-35.52-4.64-30-11.03-71.38-18.1-117.12-7.1-45.7-13.46-87.1-17.89-117.1-2.22-15-3.95-27.14-5.09-35.55-.57-4.2-.99-7.47-1.24-9.69-.26-2.22-.35-3.39-.26-3.4.08-.01.34,1.13.75,3.33.41,2.2.96,5.44,1.65,9.63,1.38,8.37,3.28,20.49,5.55,35.48,4.56,29.98,10.61,71.42,17.22,117.2Z"/>
    <path class="st11" d="M284.67,181.84c-.53,46.27-1.01,88.15-1.36,118.5-.1,15.14-.18,27.4-.24,35.91,0,4.22,0,7.5,0,9.76.01,1.09.02,1.94.03,2.54.01.57.03.87.05.87.02,0,.04-.29.06-.86.02-.6.04-1.45.06-2.54.03-2.27.08-5.55.14-9.76.06-8.51.15-20.77.26-35.91.08-30.35.18-72.23.3-118.51.08-46.25.22-88.14.5-118.46.14-15.16.3-27.43.48-35.91.09-4.24.18-7.53.27-9.76.09-2.23.18-3.4.26-3.4.08,0,.16,1.17.22,3.41.06,2.23.11,5.53.14,9.77.06,8.48.06,20.75-.02,35.91-.14,30.32-.59,72.2-1.15,118.45Z"/>
    <path class="st11" d="M295.11,182.78c-7.72,45.63-14.7,86.92-19.76,116.85-2.45,14.94-4.44,27.04-5.81,35.44-.65,4.17-1.16,7.41-1.51,9.65-.16,1.08-.28,1.92-.36,2.51-.08.57-.11.86-.09.86.02,0,.08-.28.19-.84.11-.59.26-1.42.46-2.5.38-2.23.94-5.47,1.66-9.62,1.38-8.4,3.38-20.49,5.84-35.43,4.79-29.97,11.39-71.33,18.69-117.02,7.26-45.68,13.9-87.03,18.89-116.94,2.49-14.95,4.56-27.05,6.06-35.4.75-4.17,1.35-7.41,1.79-9.6.44-2.19.71-3.33.79-3.32.08.01-.02,1.18-.31,3.4-.29,2.22-.75,5.48-1.38,9.67-1.26,8.39-3.17,20.51-5.59,35.47-4.85,29.93-11.8,71.23-19.55,116.83Z"/>
    <path class="st11" d="M305.27,185.35c-14.81,43.84-28.21,83.52-37.92,112.28-4.77,14.37-8.64,26-11.32,34.08-1.3,4.01-2.31,7.13-3.01,9.29-.32,1.04-.57,1.85-.75,2.43-.16.55-.24.83-.22.84.02,0,.13-.27.33-.8.2-.57.48-1.36.85-2.39.73-2.14,1.79-5.25,3.16-9.24,2.69-8.08,6.56-19.71,11.35-34.07,9.45-28.85,22.48-68.64,36.88-112.62,14.36-43.97,27.43-83.76,37.06-112.51,4.81-14.38,8.77-25.99,11.56-34,1.4-4,2.5-7.11,3.28-9.2.78-2.09,1.23-3.18,1.31-3.15.08.03-.21,1.17-.84,3.31-.63,2.14-1.6,5.29-2.88,9.33-2.56,8.09-6.35,19.75-11.11,34.15-9.5,28.79-22.88,68.49-37.71,112.29Z"/>
    <path class="st11" d="M314.9,189.48c-21.52,40.97-40.99,78.04-55.11,104.91-6.98,13.44-12.62,24.32-16.54,31.87-1.92,3.76-3.41,6.68-4.43,8.7-.49.98-.86,1.74-1.13,2.28-.25.52-.37.78-.35.79.02,0,.17-.24.45-.74.29-.53.69-1.27,1.21-2.23,1.06-2,2.6-4.9,4.57-8.63,3.93-7.55,9.58-18.43,16.57-31.86,13.87-27,33.01-64.25,54.15-105.41,21.1-41.16,40.27-78.4,54.31-105.27,7.02-13.44,12.75-24.29,16.76-31.76,2.01-3.73,3.59-6.62,4.68-8.57,1.1-1.95,1.71-2.95,1.78-2.91.07.04-.39,1.12-1.35,3.13-.96,2.02-2.42,4.97-4.32,8.76-3.8,7.58-9.39,18.51-16.35,31.97-13.92,26.94-33.37,64.03-54.91,104.96Z"/>
    <path class="st11" d="M323.76,195.07c-27.66,37.1-52.69,70.67-70.83,95.01-8.99,12.18-16.27,22.05-21.32,28.9-2.48,3.41-4.41,6.07-5.74,7.9-.63.89-1.12,1.58-1.47,2.07-.33.47-.49.72-.47.73.01.01.2-.21.56-.66.37-.48.88-1.15,1.55-2.01,1.36-1.81,3.33-4.44,5.86-7.81,5.06-6.85,12.34-16.7,21.34-28.88,17.92-24.5,42.64-58.3,69.97-95.65,27.28-37.35,52.03-71.14,70.1-95.49,9.03-12.18,16.39-22,21.52-28.75,2.57-3.37,4.58-5.98,5.97-7.73,1.39-1.75,2.15-2.64,2.22-2.59.07.05-.56,1.04-1.83,2.88-1.26,1.84-3.16,4.53-5.63,7.98-4.94,6.89-12.16,16.81-21.14,29.03-17.96,24.43-42.97,58.03-70.64,95.09Z"/>
    <path class="st11" d="M331.63,201.97c-33.09,32.35-63.04,61.62-84.75,82.84-10.78,10.64-19.5,19.25-25.56,25.23-2.98,2.98-5.3,5.31-6.9,6.91-.76.78-1.35,1.39-1.77,1.82-.4.41-.59.63-.58.65.01.01.23-.18.65-.57.44-.42,1.05-1,1.84-1.75,1.63-1.58,3.98-3.86,7-6.8,6.06-5.98,14.79-14.58,25.58-25.21,21.51-21.41,51.19-50.96,83.99-83.6,32.76-32.65,62.47-62.18,84.1-83.42,10.82-10.62,19.61-19.18,25.73-25.05,3.06-2.93,5.45-5.2,7.1-6.71,1.64-1.51,2.53-2.28,2.59-2.22.06.06-.72.94-2.25,2.56-1.54,1.62-3.83,3.98-6.81,7-5.95,6.04-14.63,14.72-25.4,25.38-21.54,21.34-51.47,50.64-84.57,82.95Z"/>
    <path class="st11" d="M338.34,210.01c-37.72,26.81-71.86,51.06-96.6,68.65-12.3,8.83-22.26,15.98-29.17,20.95-3.41,2.48-6.06,4.42-7.89,5.75-.88.65-1.55,1.16-2.03,1.52-.45.35-.68.53-.67.55.01.01.26-.14.73-.46.5-.34,1.19-.82,2.09-1.44,1.85-1.31,4.53-3.2,7.98-5.63,6.92-4.96,16.88-12.1,29.19-20.93,24.58-17.81,58.5-42.37,95.97-69.52,37.44-27.16,71.38-51.71,96.05-69.33,12.34-8.81,22.35-15.9,29.31-20.74,3.48-2.42,6.2-4.29,8.05-5.52,1.86-1.24,2.86-1.86,2.91-1.79.05.07-.86.82-2.62,2.18-1.77,1.36-4.4,3.34-7.81,5.86-6.82,5.04-16.74,12.26-29.04,21.12-24.6,17.73-58.72,42.02-96.44,68.78Z"/>
    <path class="st11" d="M343.71,219c-41.45,20.58-78.96,39.2-106.15,52.7-13.53,6.8-24.48,12.31-32.09,16.13-3.75,1.92-6.67,3.42-8.69,4.45-.97.51-1.71.9-2.25,1.18-.5.27-.76.42-.75.44,0,.02.28-.1.8-.34.54-.26,1.3-.62,2.29-1.1,2.03-1,4.98-2.45,8.76-4.31,7.61-3.82,18.56-9.31,32.1-16.1,27.06-13.75,64.4-32.71,105.66-53.66,41.22-20.98,78.58-39.91,105.71-53.46,13.56-6.78,24.56-12.21,32.2-15.9,3.82-1.85,6.79-3.26,8.82-4.2,2.03-.93,3.11-1.39,3.15-1.31.04.08-.97.68-2.93,1.75-1.96,1.07-4.87,2.61-8.63,4.57-7.52,3.91-18.45,9.49-31.99,16.33-27.07,13.67-64.57,32.32-106.01,52.86Z"/>
    <path class="st11" d="M347.61,228.72c-44.17,13.8-84.14,26.29-113.12,35.34-14.43,4.59-26.11,8.3-34.22,10.88-4.01,1.31-7.13,2.33-9.28,3.03-1.04.35-1.83.62-2.41.82-.54.19-.81.3-.81.31,0,.02.29-.05.84-.21.58-.17,1.39-.41,2.44-.72,2.16-.67,5.3-1.64,9.33-2.88,8.11-2.57,19.8-6.28,34.23-10.85,28.89-9.32,68.74-22.17,112.79-36.38,44.01-14.23,83.88-27.06,112.8-36.17,14.46-4.56,26.18-8.19,34.3-10.64,4.06-1.22,7.22-2.15,9.37-2.76,2.15-.6,3.29-.88,3.32-.8.03.08-1.07.52-3.17,1.26-2.1.75-5.22,1.81-9.24,3.15-8.05,2.68-19.72,6.47-34.16,11.09-28.88,9.24-68.85,21.76-113.01,35.52Z"/>
    <path class="st11" d="M349.93,238.94c-45.79,6.68-87.23,12.72-117.27,17.1-14.97,2.26-27.09,4.09-35.51,5.36-4.17.66-7.41,1.17-9.64,1.53-1.08.18-1.91.33-2.5.43-.56.1-.85.16-.85.18,0,.02.3,0,.86-.08.6-.08,1.43-.19,2.52-.33,2.24-.32,5.49-.78,9.67-1.38,8.42-1.26,20.54-3.08,35.51-5.33,30-4.65,71.38-11.08,117.11-18.17,45.7-7.13,87.09-13.52,117.09-17.96,15-2.23,27.14-3.97,35.55-5.11,4.2-.57,7.47-.99,9.69-1.25,2.22-.26,3.39-.35,3.4-.27.01.08-1.13.34-3.33.75-2.2.41-5.44.97-9.62,1.66-8.37,1.38-20.49,3.29-35.48,5.58-29.97,4.58-71.41,10.66-117.19,17.3Z"/>
  </g>
  <g>
    <g>
      <path class="st2" d="M336.67,793.08l2.44,37.54s38.97,10.13,40.1,17.02l-72.61,7.34-6.2-58.33,36.27-3.57Z"/>
      <path class="st6" d="M316.34,829.74c-1.37.53-2.18,2.2-1.71,3.59.47,1.39,2.17,2.23,3.54,1.72,1.38-.5,2.41-2.49,1.79-3.81-.62-1.33-2.67-2.2-3.89-1.38"/>
      <path class="st8" d="M306.6,854.98l-.39-5.9,69.76-4.83s3.37,1.08,3.24,3.39l-72.61,7.34Z"/>
      <path class="st5" d="M340.25,830.13c.02.36-1.73.7-3.36,2.01-1.66,1.27-2.41,2.9-2.75,2.79-.33-.04-.02-2.21,1.98-3.77,1.99-1.58,4.17-1.37,4.13-1.04Z"/>
      <path class="st5" d="M348.18,832.51c.12.34-1.36,1.09-2.41,2.72-1.1,1.59-1.24,3.24-1.59,3.26-.33.09-.78-1.96.56-3.95,1.33-2,3.4-2.36,3.44-2.02Z"/>
      <path class="st5" d="M353.43,841.18c-.31.11-.99-1.61-.27-3.65.7-2.04,2.29-2.97,2.47-2.69.23.27-.74,1.42-1.3,3.1-.6,1.66-.55,3.17-.9,3.24Z"/>
      <path class="st5" d="M338.74,821.63c-.12.34-1.79.01-3.78.35-2,.3-3.49,1.13-3.7.84-.23-.24,1.16-1.7,3.51-2.07,2.35-.38,4.12.58,3.98.87Z"/>
    </g>
    <g>
      <path class="st2" d="M247.28,797.17l.73,45.5,10.95,35.82c.79,2.58-.77,5.29-3.4,5.9h0c-1.47.34-3.01-.04-4.14-1.04-7.2-6.39-33.56-30.01-33.43-33.34.15-3.86-3.95-47.95-3.95-47.95l33.24-4.9Z"/>
      <path class="st8" d="M255.56,884.4l-37.69-37.45.07,1.93c.06,1.67.71,3.26,1.84,4.48,3.02,3.28,11.55,12.16,31.49,30.01,1.16,1.04,2.77,1.43,4.28,1.04h0Z"/>
      <g class="st0">
        <path class="st5" d="M226.63,831.92c1.17.74,1.61,2.45.91,3.65-.7,1.2-2.43,1.66-3.61.94-1.18-.72-1.77-2.76-.95-3.87.82-1.11,2.89-1.55,3.87-.56"/>
      </g>
      <path class="st5" d="M244.39,864.94c.26.12,1.19-2.31,3.85-3.69,2.61-1.47,5.15-.92,5.2-1.21.04-.11-.55-.44-1.62-.55-1.06-.11-2.59.09-4.05.88-1.45.79-2.46,1.96-2.95,2.91-.49.96-.54,1.63-.42,1.66Z"/>
      <path class="st5" d="M247.87,870.9c.22.19,1.63-1.35,3.95-2.11,2.31-.82,4.36-.46,4.42-.75.12-.24-2.1-1.12-4.74-.2-2.65.89-3.87,2.94-3.63,3.06Z"/>
      <path class="st5" d="M238.06,857.37c.22.21,2.37-2.16,5.88-3.67,3.49-1.56,6.69-1.53,6.68-1.83.06-.25-3.34-.75-7.09.92-3.76,1.63-5.7,4.47-5.48,4.59Z"/>
      <path class="st5" d="M236.68,843.55c.13.27,2.6-.88,5.87-1.12,3.26-.29,5.89.44,5.97.15.12-.23-2.55-1.45-6.05-1.15-3.51.27-5.94,1.92-5.79,2.12Z"/>
      <path class="st5" d="M236.13,830.2c.15.26,2.62-1.36,6.08-1.33,3.46-.05,5.94,1.54,6.09,1.28.07-.1-.45-.65-1.52-1.21-1.06-.57-2.71-1.07-4.57-1.07-1.86.01-3.51.53-4.56,1.1-1.07.57-1.58,1.13-1.51,1.23Z"/>
      <path class="st5" d="M242.03,826.33c.06,0,.14-.62,0-1.72-.14-1.1-.53-2.71-1.54-4.45-.52-.83-1.08-1.89-2.37-2.44-.64-.28-1.58-.12-2.09.5-.51.61-.65,1.36-.64,2.08.16,2.88,2.75,5.58,6.01,5.87,3.27.23,6.15-1.74,7.35-4.29.26-.66.42-1.46.04-2.21-.38-.76-1.31-1.03-1.96-.9-1.34.25-2.16,1.07-2.94,1.67-1.52,1.32-2.44,2.68-2.97,3.65-.53.98-.69,1.58-.64,1.6.16.11,1.06-2.28,4.05-4.71.76-.56,1.63-1.27,2.59-1.4.47-.07.89.11,1.07.48.19.36.12.93-.11,1.45-1.01,2.08-3.65,3.88-6.41,3.64-2.75-.22-5.02-2.59-5.17-4.91-.03-.56.1-1.13.39-1.47.28-.34.73-.45,1.15-.29.9.32,1.53,1.25,2.05,2.03,2.05,3.26,1.95,5.86,2.15,5.8Z"/>
    </g>
    <path class="st2" d="M339.1,474.28s7.7,20.74,8.39,46.91c.26,10.13-4.94,291.55-4.94,291.55l-45.77,4.73-14.1-262.54-3.66,1.2s-13.48,113.99-13.66,132.23c-.16,16.4-9.07,136.36-9.07,136.36l-41.8,4.8-2.72-157.18.12-151.1,1.36-44.12,125.87-2.86Z"/>
  </g>
  <g>
    <g>
      <polygon class="st13" points="463.11 415.35 473.67 418.69 492.85 408.09 503.74 438.4 477.63 444.61 457.86 442.44 463.11 415.35"/>
      <path class="st6" d="M340.29,293.65s10.79,6.48,19.72,28.48c17.55,43.23,28.58,66.57,28.58,66.57l80.58,25.45-6.44,32.3s-81.68-11.38-92.62-15.48c-14.96-5.61-26.06-35.13-26.06-35.13l-3.76-102.2Z"/>
    </g>
    <g>
      <g>
        <path class="st2" d="M318.14,196.67c4.16.26,8.24-2.99,8.92-7.1.68-4.11-2.15-8.5-6.17-9.59,2.44-2.77,2.86-7.12,1.01-10.3-1.86-3.18-5.86-4.96-9.46-4.2-.34-3.62-2.68-7-5.96-8.57-3.28-1.57-7.38-1.29-10.42.72-4.19-3.24-10.67-3.04-14.65.45-3.56-.47-7.32,1.6-8.81,4.87-1.5,3.27-.61,7.47,2.08,9.85"/>
        <g>
          <g>
            <path class="st13" d="M280.01,166.54l1.87-.09c18.78-.93,35.12,12.71,37.56,31.35,2.27,17.34,4.55,36.52,4.9,45.87.72,19.35-18.47,23.32-18.47,23.32l2.79,23.15-47,.88-8.34-84.05c-2.73-19.99,6.63-38.24,26.69-40.42Z"/>
            <path class="st10" d="M306.03,266.95s-12.31,1.36-25.71-6.16c0,0,6.65,13.62,25.86,10.92l-.15-4.76Z"/>
            <path class="st2" d="M312.48,215.64c.12,1.46-1.01,2.76-2.52,2.92-1.52.16-2.85-.89-2.97-2.35-.12-1.46,1.01-2.76,2.52-2.92,1.52-.16,2.85.89,2.97,2.35Z"/>
            <path class="st2" d="M315.75,207.47c-.32.38-2.49-1.07-5.46-.91-2.97.11-5.08,1.75-5.41,1.4-.17-.15.15-.82,1.06-1.56.9-.74,2.46-1.48,4.31-1.57,1.85-.08,3.44.52,4.37,1.18.95.66,1.29,1.29,1.13,1.46Z"/>
            <path class="st2" d="M285.37,216.39c.12,1.46-1.01,2.76-2.52,2.92-1.51.16-2.85-.89-2.97-2.35-.12-1.46,1.01-2.76,2.52-2.92,1.52-.16,2.85.89,2.97,2.35Z"/>
            <path class="st2" d="M286.57,209.47c-.32.38-2.5-1.07-5.47-.91-2.97.11-5.07,1.75-5.42,1.4-.17-.15.15-.82,1.07-1.56.9-.73,2.46-1.48,4.31-1.57,1.85-.08,3.44.52,4.37,1.18.95.66,1.29,1.29,1.13,1.46Z"/>
            <path class="st2" d="M298.45,230.97c-.02-.17,1.81-.58,4.78-1.11.75-.12,1.47-.3,1.57-.83.15-.56-.21-1.36-.62-2.22-.8-1.8-1.65-3.69-2.53-5.67-3.53-8.07-6.12-14.72-5.79-14.86.33-.14,3.45,6.29,6.97,14.36.85,1.99,1.66,3.89,2.44,5.71.33.85.87,1.8.54,2.96-.18.58-.71,1.02-1.19,1.17-.48.17-.91.2-1.28.24-3,.31-4.87.42-4.89.25Z"/>
            <path class="st2" d="M288.58,197.91c-.35.77-2.94.08-6.08.14-3.14-.02-5.75.71-6.08-.06-.14-.37.38-1.07,1.48-1.73,1.09-.66,2.77-1.21,4.66-1.22,1.88,0,3.54.52,4.61,1.17,1.08.65,1.57,1.34,1.42,1.71Z"/>
            <path class="st2" d="M315.28,195.21c-.59.71-3.08.13-6.03.24-2.95.03-5.42.72-6.03.05-.27-.33.09-1.03,1.15-1.72,1.04-.69,2.82-1.3,4.85-1.35,2.03-.05,3.82.48,4.88,1.12,1.08.64,1.45,1.32,1.19,1.66Z"/>
            <path class="st2" d="M317.13,189.02s-5.7-11.86-11.68-14.39c-7.24-3.07-9.9,4.84-16.73,3.29-6.83-1.55-13.74-4.5-20.37,1.05-7.25,6.07-3.52,9.9-3.56,18.5-.16,34.88-6.02,45.03-8.64,28.74-.29-1.79-5.34-2.97-6.45-10.51-1.45-9.79-2.42-21.71-.57-28.8,1.56-5.97,4.71-10.21,10.5-14.98,9.14-7.54,22.18-8.34,31.08-7.89,8.9.45,26.48,9.79,26.43,25Z"/>
            <path class="st13" d="M257.36,225.63c-.27-2.98-2.96-5.21-5.92-4.78-3.59.52-7.5,2.77-6.89,10.21,1.08,13.2,14.11,9.39,14.1,9.01,0-.26-.79-8.93-1.29-14.45Z"/>
            <path class="st10" d="M255.37,235.34c-.06-.04-.22.18-.59.39-.36.2-1.01.38-1.72.18-1.44-.4-2.79-2.51-3.05-4.89-.13-1.2.03-2.36.37-3.34.32-1,.89-1.72,1.58-1.91.69-.22,1.22.16,1.41.52.21.35.15.62.22.64.04.03.27-.24.11-.78-.08-.26-.26-.56-.59-.78-.34-.23-.81-.33-1.3-.23-1.01.15-1.85,1.16-2.23,2.24-.44,1.09-.64,2.4-.5,3.74.3,2.65,1.87,5.03,3.82,5.43.95.17,1.7-.18,2.07-.52.38-.36.43-.66.38-.68Z"/>
          </g>
          <path class="st7" d="M256.35,200c1.77,1.09,3.65,2.21,5.73,2.31,2.08.1,4.39-1.2,4.63-3.27.11-.93-.17-1.98.4-2.73.68-.88,2.03-.68,3.14-.62,3.86.22,8.14-4.25,8.94-8.04,1.05,1.42,3.22,1.76,4.66.73,1.44-1.03,1.95-1.6,3.04-2.99,1.09-1.39,2.67-2.66,4.42-2.5.98.09,1.93.63,2.91.49,1.73-.24,2.48-2.32,2.65-4.05.18-1.74.28-3.76,1.71-4.77,1.32-.94,3.11-.52,4.72-.37,1.61.16,3.65-.32,3.99-1.9.17-.83-.22-1.68-.71-2.37-2.22-3.14-6.78-4.36-10.27-2.74-1.51-4.3-5.76-7.5-10.32-7.75-4.55-.25-9.14,2.45-11.11,6.56-2.92-2.4-7.03-3.26-10.67-2.24-3.64,1.02-6.7,3.9-7.94,7.47-3.26-.69-6.86.74-8.77,3.47-1.91,2.73-2,6.6-.24,9.43-2.31,1.48-4.23,3.94-4.14,6.68.09,2.74,2.89,5.33,5.49,4.48-.96,2.18.05,5.03,2.17,6.12,2.12,1.09,5.03.25,6.24-1.81"/>
          <path class="st8" d="M297.48,171.03s.01.08,0,.24c0,.16,0,.4-.05.71-.09.62-.29,1.53-.83,2.59-.55,1.05-1.41,2.27-2.78,3.27-1.33,1.01-3.19,1.82-5.34,1.81l.21-.3c.47,1.11.42,2.47-.08,3.66-.47,1.21-1.26,2.3-2.1,3.36-.43.51-.8,1.11-1.4,1.59-.59.46-1.31.75-2.06.88-1.48.26-3.19-.11-4.33-1.31l.49-.17c-.21,2.64-1.57,5.35-3.86,7.07-1.21.97-2.74,1.6-4.27,1.64-1.53.06-2.98-.32-4.32-.73l.35-.17c-.63,1.68-1.65,3.13-2.93,4.24-1.25,1.1-2.95,1.79-4.54,1.48-3.15-.51-5.35-3-5.89-5.42l.31.12c-1.51.92-3.16,1.08-4.51.89-1.36-.18-2.45-.71-3.24-1.26-.79-.55-1.27-1.14-1.56-1.54-.27-.42-.38-.66-.37-.67.06-.06.49.98,2.05,2.02.78.5,1.84.98,3.15,1.12,1.29.16,2.86-.04,4.25-.92l.24-.15.07.28c.53,2.26,2.65,4.58,5.57,5.02,1.44.26,2.94-.35,4.12-1.39,1.19-1.04,2.16-2.44,2.75-4.02l.09-.25.25.08c1.33.4,2.72.75,4.14.69,1.42-.04,2.79-.6,3.94-1.52,2.17-1.63,3.45-4.16,3.66-6.66l.05-.63.44.46c.97,1.03,2.49,1.39,3.82,1.16.67-.11,1.31-.37,1.82-.77.5-.38.89-.97,1.32-1.49.84-1.05,1.6-2.1,2.06-3.22.48-1.11.52-2.31.12-3.32l-.12-.31h.33c2.02.04,3.81-.7,5.12-1.65,1.33-.94,2.2-2.1,2.77-3.1,1.1-2.06,1-3.46,1.09-3.43Z"/>
        </g>
      </g>
      <path class="st2" d="M298.3,241.17c-.1-.49-3.32.35-6.33-1.8-3.01-2.15-3.56-5.67-4.01-5.58-.21,0-.42.93-.08,2.39.33,1.43,1.33,3.39,3.17,4.7,1.84,1.31,3.9,1.54,5.25,1.3,1.38-.23,2.08-.8,2-1.02Z"/>
    </g>
    <g>
      <g>
        <path class="st5" d="M376.77,363.41c-.29-1.04-17.51-47.9-23-58.16-6.57-12.27-20.38-17.7-28.95-18.22-8.57-.53-100.32,6.78-100.32,6.78,0,0-27.41,6.14-30.9,29.71-4.02,27.13-7.54,89.25-7.54,89.25l41.76-21.4,5.41-13.62,86.4,19.28,21.1-31.21,36.05-2.4Z"/>
        <g>
          <path class="st5" d="M218.44,296.49l35.84-15.8,4.02-15.46,41.83,19.78,8.76-9.68,3.67,10.91,9.17,3,21.42,37.68-.07,80.29,4.34,69.26-4.65,10.93-38.38,5.66c-4.2.62-8.46.62-12.66.01l-77.9-12.74-2.01-22.88,8.32-63.07-1.7-97.9Z"/>
          <path class="st5" d="M258.29,265.23s4.68,1.35,16.69,7.76c11.77,6.28,25.14,12.01,25.14,12.01l-1.02,18.89-44.52-22.35"/>
          <polyline class="st5" points="308.88 275.33 300.12 285.01 304.8 305.26 312.61 286.96"/>
          <g class="st4">
            <path d="M300.28,287.1c.39.29,2.82,23.37,2.82,23.37l-44.62-26.96,40.62,20.39,1.18-16.8Z"/>
          </g>
        </g>
        <path class="st8" d="M299.98,373.23c-.67-17.65,2.11-62.68,2.11-62.68l5.82-.94s10.87,43.77,14.92,97.42c1.64,21.71,1.64,46.85,1.64,46.85l-11.68,25.08-12.91-24.91s.92-59.36.1-80.81Z"/>
        <path class="st2" d="M215.77,299.22c-.07.09,1.21,1.08,3.02,2.94,1.81,1.85,4.08,4.66,5.95,8.14,1.87,3.49,2.95,6.93,3.5,9.46.56,2.53.68,4.15.79,4.14.04,0,.04-.41,0-1.14-.02-.73-.14-1.79-.37-3.08-.44-2.59-1.48-6.11-3.39-9.66-1.91-3.54-4.28-6.36-6.19-8.15-.95-.9-1.77-1.59-2.37-2.01-.59-.43-.93-.66-.96-.62Z"/>
        <polygon class="st8" points="299.98 294.04 303.97 292.49 307.74 298.97 308.43 309.61 303.1 310.47 299.1 303.9 299.98 294.04"/>
        <path class="st2" d="M343.08,325.7c-.17,0-.31,23.04-.31,51.45s.14,51.46.31,51.46.31-23.03.31-51.46-.14-51.45-.31-51.45Z"/>
        <path class="st2" d="M299.7,284.85c-.08.05.86,1.48,2.27,3.85,1.41,2.36,3.28,5.68,5.07,9.49.15.31.29.62.42.91l.28.6.28-.59c1.72-3.61,2.96-6.98,3.73-9.43.39-1.23.66-2.23.83-2.92s.24-1.08.2-1.09c-.09-.02-.56,1.47-1.43,3.88-.87,2.41-2.17,5.72-3.88,9.3h.56c-.14-.29-.28-.6-.43-.91-1.8-3.83-3.74-7.14-5.25-9.46-.76-1.16-1.4-2.07-1.87-2.69-.47-.62-.74-.95-.78-.92Z"/>
        <path class="st2" d="M254.27,280.69s.2.15.61.37c.47.25,1.07.56,1.81.94,1.64.85,3.9,2.02,6.65,3.45,5.61,2.92,13.29,7.08,21.81,11.62,5.19,2.76,10.1,5.32,14.37,7.46l.39.2v-.44c.06-5.54.1-10.21.14-13.59,0-1.59,0-2.87,0-3.83-.01-.89-.03-1.36-.06-1.36-.03,0-.07.47-.11,1.36-.04.96-.09,2.24-.15,3.83-.09,3.38-.21,8.04-.36,13.58l.4-.24c-4.25-2.18-9.14-4.76-14.33-7.52-8.51-4.55-16.23-8.65-21.9-11.47-2.83-1.41-5.14-2.52-6.74-3.27-.76-.34-1.37-.62-1.86-.84-.43-.19-.66-.27-.67-.25Z"/>
        <path class="st2" d="M337.69,295.25c-.09.05.61,1.24,1.51,3.26.9,2.01,1.94,4.9,2.55,8.21.6,3.31.66,6.38.53,8.58-.12,2.21-.36,3.57-.25,3.58.04,0,.14-.32.28-.93.15-.61.29-1.5.41-2.62.24-2.22.25-5.35-.36-8.73-.63-3.37-1.75-6.29-2.77-8.29-.51-1-.96-1.78-1.32-2.3-.35-.52-.56-.8-.59-.77Z"/>
        <path class="st2" d="M304.08,311.16c.09.14,1.1-.33,2.26-1.06,1.16-.73,2.02-1.44,1.93-1.58-.09-.14-1.1.33-2.26,1.06-1.16.73-2.02,1.44-1.93,1.58Z"/>
        <path class="st2" d="M302.16,308.56c.16.07,1.37-2.34,2.71-5.39,1.34-3.04,2.29-5.57,2.14-5.64-.16-.07-1.37,2.34-2.71,5.39-1.34,3.04-2.29,5.57-2.14,5.64Z"/>
      </g>
      <path class="st5" d="M211.1,300.45s-13.81,9.94-15.53,15.43-9.06,94.72-10.36,105.33c-1.29,10.62-2.59,30.47,5.61,36.94,8.2,6.47,25.89,11.33,25.89,11.33l16.34-33.76-8.66-18.12,8.66-67.77-21.95-49.37Z"/>
      <path class="st2" d="M212.77,468.29s.3-.05.88-.07c.58-.02,1.44,0,2.54-.16,2.17-.27,5.49-.84,8.83-3.2,3.36-2.27,6.45-6.32,8.43-11.53,1.98-5.2,3.14-11.46,3.2-18.16l.08.23c-3.93-5.44-8.22-11.37-12.68-17.55l-.1-.14.02-.17c.06-.45.12-.94.18-1.43,2.44-19.01,4.65-36.2,6.26-48.75.8-6.17,1.45-11.2,1.92-14.77.22-1.68.4-3.02.53-4.01.11-.91.17-1.4.2-1.4.01,0,.02.12.02.36,0,.24-.01.59-.05,1.06-.09,1-.21,2.34-.36,4.04-.35,3.5-.91,8.56-1.64,14.81-1.46,12.49-3.58,29.74-6.01,48.79-.06.49-.12.98-.18,1.43l-.08-.31c4.45,6.19,8.73,12.14,12.64,17.58l.08.11v.12c-.09,6.84-1.3,13.14-3.37,18.43-2.06,5.29-5.29,9.42-8.79,11.7-1.72,1.17-3.47,1.9-5.03,2.33-.39.11-.77.21-1.13.31-.37.06-.72.12-1.07.18-.68.14-1.3.2-1.86.22-1.12.11-1.98.06-2.57.03-.58-.03-.88-.05-.88-.07Z"/>
      <path class="st2" d="M196.08,423.85c-.06-.07,1.23-1.2,3.62-2.58,2.39-1.37,5.94-2.89,10.09-3.7,4.15-.8,8.01-.73,10.74-.35,2.73.38,4.35.94,4.33,1.03-.02.3-6.74-1.48-14.9.17-8.18,1.53-13.75,5.7-13.88,5.43Z"/>
    </g>
    <g>
      <rect class="st9" x="257.98" y="295.58" width="238.57" height="238.57" rx="25.18" ry="25.18" transform="translate(-51.24 53.17) rotate(-7.55)"/>
      <g>
        <path class="st12" d="M283.88,357.71c-1.25-9.43,5.38-18.08,14.81-19.33l81.09-10.75,13.01,98.16-98.16,13.01-10.75-81.09Z"/>
        <path class="st12" d="M364.35,407.84l46.94-6.22,3.11,23.47c1.72,12.96-7.4,24.87-20.36,26.58l-23.47,3.11-6.22-46.94Z"/>
        <path class="st3" d="M414.08,488.1c9.5-1.26,18.05-5.02,25.08-10.54l20.94,16.04c6.04-6.18,11.31-13.07,15.71-20.51l-20.94-16.04c3.61-8.5,4.87-17.81,3.64-26.96-3.75-28.28-29.72-48.17-58-44.42-28.28,3.75-48.17,29.72-44.42,58,3.75,28.28,29.72,48.17,58,44.42ZM411.25,466.77c16.5-2.19,28.1-17.34,25.91-33.83-2.19-16.5-17.34-28.1-33.83-25.91-16.5,2.19-28.1,17.34-25.91,33.83,2.19,16.5,17.34,28.1,33.83,25.91Z"/>
        <path class="st1" d="M359.39,456.27c-1.63-4.04-2.74-8.27-3.31-12.59-3.75-28.28,16.14-54.25,44.42-58,2.91-.39,5.79-.52,8.63-.42l2.9,21.87c-16.44-2.62-31.89,8.57-34.51,25.01-1.18,7.36.42,14.89,4.47,21.14l-22.6,3Z"/>
      </g>
    </g>
    <g>
      <path class="st13" d="M246.8,449.83s5.53-4.28,9.64-4.46c4.11-.18,9.46,1.43,10.53.89,1.07-.54,3.57-2.88,5.18-.91,1.61,1.98,3.57,9.12-5,11.08h-5.89s.71,5.89,2.14,8.21c1.43,2.32,21.42,27.49,21.42,27.49,0,0,2.5,2.5,1.25,5-1.25,2.5-6.6,1.07-6.6,1.07,0,0-3.75,3.39-8.03,1.78s-6.07-2.86-6.07-2.86c0,0-4.64,3.75-9.64,0-5-3.75-21.66-24.63-21.66-24.63l5.96-23.38,6.78.71Z"/>
      <path class="st13" d="M229.45,436.02l17.35,13.81-12.74,22.67-25.4-9.22s.73-26.77,20.79-27.26Z"/>
    </g>
    <g>
      <path class="st13" d="M500.04,405.16s-.55-6.21-4.02-4.93c-3.47,1.28-4.93,8.59-4.93,8.59l8.95-3.65Z"/>
      <path class="st13" d="M487.61,411.28s6.03-6.76,14.43-6.21c8.41.55,3.11,7.67,3.11,7.67,0,0,6.22,3.84,1.65,9.32l-.73,1.46s5.3,2.01-.18,7.67c0,0,2.01,3.65-.73,6.4-2.74,2.74-9.59-.91-9.59-.91,0,0-6.3,1.46-6.85-1.1-.55-2.56.91-4.39,1.46-4.75s3.84-1.64,3.84-1.64c0,0-7.31.91-7.49-.91-.18-1.83-.91-3.84,4.57-5.66l2.92-.78s-7.58.23-7.63-1.59c-.05-1.83-.41-2.56,2.33-3.84s4.93-2.74,4.93-2.74c0,0-7.13,1.46-6.03-2.38Z"/>
      <path class="st10" d="M486.27,418.42c.14.21,3.56-3.12,9.04-4.63,5.46-1.59,10.11-.54,10.13-.79.02-.08-1.1-.46-2.99-.64-1.88-.19-4.54-.08-7.35.71-2.8.8-5.12,2.1-6.63,3.24-1.51,1.14-2.27,2.05-2.21,2.11Z"/>
      <path class="st10" d="M487.11,428.87c.04-.05-.18-.23-.35-.65-.18-.42-.24-1.11.02-1.9.25-.78.74-1.69,1.65-2.29.9-.65,2.06-1.09,3.34-1.39,5.19-1.2,9.58-.92,9.58-1.15,0-.09-1.08-.29-2.85-.32-1.78-.03-4.24.12-6.9.74-1.33.32-2.6.81-3.58,1.57-1.03.74-1.55,1.83-1.76,2.72-.22.91-.06,1.73.24,2.17.3.45.6.55.61.52Z"/>
      <path class="st10" d="M490.19,436.9c.02-.06-.26-.16-.64-.51-.36-.34-.82-.97-.91-1.86-.09-.88.14-2,1.07-2.71.9-.72,2.27-1.21,3.59-1.66,2.73-.76,5.41-.41,7.32-.38,1.92.08,3.12-.06,3.12-.17,0-.1-1.18-.15-3.08-.37-1.88-.16-4.61-.62-7.57.19-1.43.5-2.74.97-3.82,1.86-.53.44-.91,1.04-1.07,1.64-.16.6-.16,1.17-.08,1.68.18,1.04.79,1.71,1.25,2.01.48.32.81.32.82.28Z"/>
      <path class="st10" d="M487.5,411.58c.06,0,.16-.23.54-.57.36-.35.93-.82,1.66-1.35,1.47-1.04,3.61-2.48,6.19-3.33,2.66-.84,5.13-1.31,6.9-1,1.77.27,2.75.93,2.81.8.05-.04-.84-.89-2.71-1.33-1.88-.48-4.54-.05-7.22.8-5.46,1.96-8.63,5.73-8.17,5.97Z"/>
    </g>
  </g>
</svg>