<?xml version="1.0" encoding="UTF-8"?>
<svg xmlns="http://www.w3.org/2000/svg" version="1.1" viewBox="0 0 900 610.65">
  <!-- Generator: Adobe Illustrator 30.2.1, SVG Export Plug-In . SVG Version: 2.1.1 Build 1)  -->
  <defs>
    <style>
      .st0 {
        fill: #fafafa;
      }

      .st1 {
        stroke: #974782;
      }

      .st1, .st2 {
        fill: none;
        stroke-miterlimit: 10;
        stroke-width: .09px;
      }

      .st3 {
        fill: #e6e6e6;
      }

      .st3, .st4, .st5, .st6, .st7, .st8, .st9 {
        mix-blend-mode: multiply;
      }

      .st4 {
        fill: #2bd6c0;
      }

      .st10 {
        fill: #128af4;
      }

      .st11 {
        mix-blend-mode: soft-light;
      }

      .st11, .st12 {
        fill: #f2f2f2;
      }

      .st5, .st13 {
        fill: #ccc;
      }

      .st6 {
        fill: #fd8e92;
      }

      .st14 {
        fill: #37bffa;
      }

      .st15 {
        fill: #263238;
      }

      .st16 {
        fill: #19d3bb;
      }

      .st17 {
        fill: #fbb842;
      }

      .st2 {
        stroke: #fd9094;
      }

      .st18 {
        fill: #fa494d;
      }

      .st19 {
        fill: #a35c90;
      }

      .st20 {
        fill: #fff;
      }

      .st21 {
        fill: #fc888d;
      }

      .st22 {
        fill: #3ec1fa;
      }

      .st23 {
        fill: #f8871f;
      }

      .st24 {
        fill: #455a64;
      }

      .st7 {
        fill: #2dd7c1;
      }

      .st25 {
        fill: #9a4d86;
      }

      .st26 {
        fill: #1fac8a;
      }

      .st27 {
        fill: #efb58e;
      }

      .st28 {
        isolation: isolate;
      }

      .st29 {
        fill: #e5a377;
      }

      .st30 {
        fill: #7c4c39;
      }

      .st31 {
        fill: #4d7589;
      }

      .st32 {
        fill: #a0568c;
      }

      .st8 {
        fill: #fd9094;
      }

      .st33 {
        fill: #f88b26;
      }

      .st34 {
        fill: #fa5256;
      }

      .st35 {
        fill: #fc7a80;
      }

      .st36 {
        fill: #fbba48;
      }

      .st37 {
        fill: #e0e0e0;
        mix-blend-mode: color-burn;
      }

      .st38 {
        fill: #9e538a;
      }

      .st39 {
        fill: #fcbc4d;
      }

      .st40 {
        fill: #fcc299;
      }

      .st41 {
        fill: #ebebeb;
      }

      .st42 {
        fill: #3d5593;
      }

      .st43 {
        fill: #2fbdfa;
      }

      .st44 {
        fill: #9f558c;
      }

      .st9 {
        fill: #28d6bf;
      }

      .st45 {
        fill: #2191f4;
      }

      .st46 {
        fill: #71b530;
      }
    </style>
  </defs>
  <g class="st28">
    <g id="Capa_1">
      <g>
        <g>
          <g>
            <rect class="st24" x="128.34" y="122.02" width="640.24" height="457.3" rx="10.47" ry="10.47"/>
            <path class="st24" d="M103.32,549.78h693.65v27.22c0,7.06-5.73,12.79-12.79,12.79H116.11c-7.06,0-12.79-5.73-12.79-12.79v-27.22h0Z"/>
            <rect class="st15" x="145.52" y="140.19" width="604.08" height="386.18"/>
            <polygon class="st15" points="385.34 545.49 393.95 560.28 515.07 560.28 523.07 545.49 385.34 545.49"/>
          </g>
          <g>
            <path class="st41" d="M160.32,153.26h575.73c1.3,0,2.35,1.05,2.35,2.35v367.17c0,1.3-1.05,2.35-2.35,2.35H160.32c-1.3,0-2.35-1.05-2.35-2.35V155.61c0-1.3,1.05-2.35,2.35-2.35Z"/>
            <polygon class="st0" points="737.78 525.68 157.35 525.68 157.97 181.05 737.78 181.05 737.78 525.68"/>
            <path class="st15" d="M206.73,167.62c0,2.77-2.14,5.01-4.78,5.01s-4.78-2.24-4.78-5.01,2.14-5.01,4.78-5.01,4.78,2.24,4.78,5.01Z"/>
            <path class="st15" d="M177.76,167.62c0,2.77-2.14,5.01-4.78,5.01s-4.78-2.24-4.78-5.01,2.14-5.01,4.78-5.01,4.78,2.24,4.78,5.01Z"/>
            <path class="st15" d="M192.65,167.62c0,2.77-2.14,5.01-4.78,5.01s-4.78-2.24-4.78-5.01,2.14-5.01,4.78-5.01,4.78,2.24,4.78,5.01Z"/>
          </g>
          <path class="st15" d="M763.08,545.49c0,.25-142.1.45-317.35.45s-317.39-.2-317.39-.45,142.07-.45,317.39-.45,317.35.2,317.35.45Z"/>
        </g>
        <g>
          <g>
            <g>
              <path d="M353.79,309.36h5.2v.97h-4.06v2.83h3.42v.97h-3.42v3.28h4.19v.97h-5.34v-9.03Z"/>
              <path d="M361.76,314.9l-2.02-3.2h1.23l.9,1.47c.2.37.43.75.65,1.11h.06c.2-.37.4-.75.6-1.11l.82-1.47h1.18l-2.02,3.32,2.19,3.37h-1.23l-.99-1.55c-.23-.4-.48-.82-.73-1.2h-.06c-.23.39-.45.79-.68,1.2l-.91,1.55h-1.18l2.19-3.49Z"/>
              <path d="M366.64,311.71h.93l.1.77h.04c.6-.5,1.36-.94,2.13-.94,1.73,0,2.65,1.34,2.65,3.41,0,2.28-1.37,3.61-2.9,3.61-.61,0-1.24-.28-1.85-.77l.03,1.17v2.26h-1.13v-9.51ZM371.32,314.96c0-1.48-.5-2.47-1.76-2.47-.57,0-1.14.31-1.79.91v3.51c.61.51,1.19.7,1.63.7,1.11,0,1.92-1,1.92-2.65Z"/>
              <path d="M373.78,315.06c0-2.18,1.47-3.52,3.01-3.52,1.71,0,2.67,1.23,2.67,3.14,0,.24-.02.48-.05.64h-4.5c.08,1.42.95,2.34,2.22,2.34.64,0,1.17-.21,1.66-.53l.41.74c-.59.38-1.3.69-2.21.69-1.78,0-3.2-1.3-3.2-3.5ZM378.46,314.51c0-1.34-.6-2.07-1.65-2.07-.94,0-1.78.75-1.92,2.07h3.57Z"/>
              <path d="M381.1,311.71h.93l.1.96h.04c.64-.63,1.33-1.13,2.24-1.13,1.41,0,2.04.91,2.04,2.62v4.24h-1.13v-4.09c0-1.25-.38-1.78-1.26-1.78-.68,0-1.16.35-1.83,1.03v4.84h-1.13v-6.69Z"/>
              <path d="M387.88,317.63l.56-.75c.58.47,1.17.79,1.97.79.88,0,1.31-.47,1.31-1.04,0-.69-.79-.99-1.53-1.27-.94-.34-1.99-.8-1.99-1.93,0-1.07.86-1.9,2.31-1.9.83,0,1.56.34,2.08.75l-.54.73c-.46-.34-.93-.6-1.53-.6-.84,0-1.23.45-1.23.96,0,.64.73.88,1.48,1.16.96.36,2.04.76,2.04,2.03,0,1.08-.86,1.99-2.44,1.99-.95,0-1.87-.4-2.5-.93Z"/>
              <path d="M393.89,315.06c0-2.18,1.47-3.52,3.01-3.52,1.71,0,2.67,1.23,2.67,3.14,0,.24-.02.48-.05.64h-4.5c.08,1.42.95,2.34,2.22,2.34.64,0,1.17-.21,1.66-.53l.41.74c-.59.38-1.3.69-2.21.69-1.78,0-3.2-1.3-3.2-3.5ZM398.57,314.51c0-1.34-.6-2.07-1.65-2.07-.94,0-1.78.75-1.92,2.07h3.57Z"/>
              <path d="M400.47,317.63l.56-.75c.58.47,1.17.79,1.97.79.88,0,1.31-.47,1.31-1.04,0-.69-.79-.99-1.53-1.27-.94-.34-1.99-.8-1.99-1.93,0-1.07.86-1.9,2.31-1.9.83,0,1.56.34,2.08.75l-.54.73c-.46-.34-.93-.6-1.53-.6-.84,0-1.23.45-1.23.96,0,.64.73.88,1.48,1.16.96.36,2.04.76,2.04,2.03,0,1.08-.86,1.99-2.44,1.99-.95,0-1.87-.4-2.5-.93Z"/>
            </g>
            <g>
              <path d="M227.7,310.33h-2.73v-.97h6.61v.97h-2.73v8.06h-1.15v-8.06Z"/>
              <path d="M232.88,309.6c0-.44.34-.73.78-.73s.78.29.78.73-.34.73-.78.73-.78-.3-.78-.73ZM233.09,311.7h1.13v6.69h-1.13v-6.69Z"/>
              <path d="M236.47,311.7h.93l.1.97h.04c.59-.63,1.28-1.13,2.08-1.13,1.02,0,1.57.49,1.85,1.27.69-.75,1.39-1.27,2.21-1.27,1.37,0,2.03.91,2.03,2.62v4.24h-1.13v-4.09c0-1.25-.39-1.78-1.24-1.78-.52,0-1.06.34-1.68,1.03v4.84h-1.13v-4.09c0-1.25-.39-1.78-1.24-1.78-.5,0-1.06.34-1.68,1.03v4.84h-1.13v-6.69Z"/>
              <path d="M247.38,315.06c0-2.18,1.47-3.52,3.01-3.52,1.71,0,2.67,1.23,2.67,3.14,0,.24-.02.48-.05.64h-4.5c.08,1.42.95,2.34,2.22,2.34.64,0,1.17-.21,1.66-.53l.41.74c-.59.38-1.3.69-2.21.69-1.78,0-3.2-1.3-3.2-3.5ZM252.05,314.51c0-1.34-.6-2.07-1.65-2.07-.94,0-1.78.75-1.92,2.07h3.57Z"/>
              <path d="M257.03,313.84c0-2.89,1.59-4.65,3.86-4.65s3.86,1.76,3.86,4.65-1.59,4.71-3.86,4.71-3.86-1.82-3.86-4.71ZM263.57,313.84c0-2.25-1.06-3.64-2.67-3.64s-2.67,1.39-2.67,3.64,1.06,3.7,2.67,3.7,2.67-1.45,2.67-3.7Z"/>
              <path d="M265.87,311.77l.96-.07h6.42v.92h-7.38v-.86ZM266.77,310.82c0-1.39.69-2.26,2.08-2.26.44,0,.89.1,1.23.25l-.24.86c-.29-.13-.56-.19-.89-.19-.66,0-1.05.48-1.05,1.36v7.55h-1.13v-7.57ZM270.69,310.65c0-1.36.62-2.22,1.96-2.22.41,0,.81.1,1.11.23l-.24.86c-.25-.12-.52-.17-.76-.17-.63,0-.94.44-.94,1.31v7.74h-1.13v-7.74Z"/>
            </g>
            <g>
              <g>
                <path class="st13" d="M300.06,212.56c-.25-.73-.79-1.99-1.93-3.19-.99-1.05-2.04-1.63-2.71-1.94-28.93.03-57.86.06-86.78.1-.7.19-2.48.79-3.87,2.52-.82,1.02-1.18,2.05-1.35,2.71-.41,52.17-.56,85.13-.1,86.55.38,1.18.99,2.02,1.64,2.71,1.4,1.48,3.09,2.02,3.96,2.23,40.26.22,85.34.26,86.11,0,1.49-.51,2.43-1.4,2.9-1.84,0,0,1.51-1.19,2.13-3,.12-.36.02-45.46,0-86.84ZM298.81,298.2c-.6,1.76-2.07,2.92-2.07,2.92-.45.43-1.38,1.29-2.82,1.79-.74.26-44.66.21-83.89,0-.85-.2-2.49-.72-3.86-2.17-.63-.67-1.23-1.49-1.6-2.64-.45-1.38-.3-33.44.09-84.17.17-.64.52-1.64,1.32-2.64,1.35-1.68,3.09-2.26,3.77-2.45,28.18-.03,56.37-.06,84.55-.09.65.3,1.67.86,2.64,1.88,1.11,1.17,1.64,2.4,1.88,3.11.02,40.24.12,84.1,0,84.45Z"/>
                <path class="st20" d="M298.81,298.2c-.6,1.76-2.07,2.92-2.07,2.92-.45.43-1.38,1.29-2.82,1.79-.74.26-44.66.21-83.89,0-.85-.2-2.49-.72-3.86-2.17-.63-.67-1.23-1.49-1.6-2.64-.45-1.38-.3-33.44.09-84.17.17-.64.52-1.64,1.32-2.64,1.35-1.68,3.09-2.26,3.77-2.45,28.18-.03,56.37-.06,84.55-.09.65.3,1.67.86,2.64,1.88,1.11,1.17,1.64,2.4,1.88,3.11.02,40.24.12,84.1,0,84.45Z"/>
                <path class="st1" d="M282.76,275.04"/>
              </g>
              <g>
                <path class="st39" d="M254.81,226.81l-20.68,20.78-11.81-11.81c8.96-8.6,21.33-11.52,32.5-8.96Z"/>
                <path class="st33" d="M271.04,235.63l-24.3,24.57-12.62-12.62,20.68-20.78c6,1.37,11.65,4.32,16.23,8.82Z"/>
                <path class="st45" d="M279.83,250.4l-21.18,21.71-11.91-11.91,24.3-24.57s.06.06.09.09c4.19,4.15,7.11,9.23,8.69,14.67Z"/>
                <path class="st43" d="M273.41,282.51c-.99,1.24-2.28,1.04-2.28,1.04-.94-.03-1.66-.61-2.09-1.04l-10.4-10.4,21.18-21.71c3.1,10.67,1.09,22.77-6.41,32.11Z"/>
                <path class="st44" d="M248.74,262.2c-3.74,3.79-22.24,22.46-23.16,23.34-.39.37-.85.38-.95.38-.39,0-.68-.2-.95-.38-.36-.24-1.39-1.52-1.52-1.71-.38-1.12-.22-1.88-.09-2.28.07-.23,18.38-18.65,22.87-23.15l3.8,3.8Z"/>
              </g>
            </g>
            <g>
              <g>
                <path class="st13" d="M428.36,212.56c-.25-.73-.79-1.99-1.93-3.19-.99-1.05-2.04-1.63-2.71-1.94-28.93.03-57.86.06-86.78.1-.7.19-2.48.79-3.87,2.52-.82,1.02-1.18,2.05-1.35,2.71-.41,52.17-.56,85.13-.1,86.55.38,1.18.99,2.02,1.64,2.71,1.4,1.48,3.09,2.02,3.96,2.23,40.26.22,85.34.26,86.11,0,1.49-.51,2.43-1.4,2.9-1.84,0,0,1.51-1.19,2.13-3,.12-.36.02-45.46,0-86.84ZM427.11,298.2c-.6,1.76-2.07,2.92-2.07,2.92-.45.43-1.38,1.29-2.82,1.79-.74.26-44.66.21-83.89,0-.85-.2-2.49-.72-3.86-2.17-.63-.67-1.23-1.49-1.6-2.64-.45-1.38-.3-33.44.09-84.17.17-.64.52-1.64,1.32-2.64,1.35-1.68,3.09-2.26,3.77-2.45,28.18-.03,56.37-.06,84.55-.09.65.3,1.67.86,2.64,1.88,1.11,1.17,1.64,2.4,1.88,3.11.02,40.24.12,84.1,0,84.45Z"/>
                <path class="st20" d="M427.11,298.2c-.6,1.76-2.07,2.92-2.07,2.92-.45.43-1.38,1.29-2.82,1.79-.74.26-44.66.21-83.89,0-.85-.2-2.49-.72-3.86-2.17-.63-.67-1.23-1.49-1.6-2.64-.45-1.38-.3-33.44.09-84.17.17-.64.52-1.64,1.32-2.64,1.35-1.68,3.09-2.26,3.77-2.45,28.18-.03,56.37-.06,84.55-.09.65.3,1.67.86,2.64,1.88,1.11,1.17,1.64,2.4,1.88,3.11.02,40.24.12,84.1,0,84.45Z"/>
                <path class="st1" d="M411.05,275.04"/>
              </g>
              <g>
                <path class="st22" d="M369.87,239.29v2.78c-.84-.23-1.47-.52-1.61-1.12-.12-.53.19-1.07.47-1.33.31-.28.72-.36,1.14-.33Z"/>
                <path class="st22" d="M372.34,245.79c.32.66.18,1.61-.28,1.99-.21.17-.38.12-1.44.1v-2.94c.8.11,1.45.3,1.72.85Z"/>
                <path class="st22" d="M370.3,230.04c-7.47,0-13.52,6.05-13.52,13.52s6.05,13.52,13.52,13.52,13.52-6.05,13.52-13.52-6.05-13.52-13.52-13.52ZM375.75,246.84c-.15.95-.73,1.57-.95,1.8-.93,1-2.54,1.57-4.19,1.64v1.53h-.75v-1.53c-1.59-.07-3.13-.6-4.08-1.64-.61-.67-1.17-1.8-.85-2.18.08-.1,2.77-.05,2.94.09.42.35.16.78.57,1.14.24.22.48.19,1.42.19v-3.01c-1.35-.13-2.93-.27-3.99-1.44-.78-.87-1.09-2.15-.85-3.23.4-1.82,2.26-2.63,2.75-2.85.66-.29,1.38-.44,2.09-.47v-1.24h.75v1.26c1.42.12,2.77.72,3.62,1.68.09.1,1.37,1.55.82,2.28-.19.25-2.39.31-2.62,0-.11-.15-.06-.24-.19-.47-.18-.32-.47-.47-.66-.57-.07-.04-.47-.24-.96-.38v2.82c1.66.37,3.73.71,4.66,2.31.11.19.66,1.12.47,2.28Z"/>
                <circle class="st42" cx="397.39" cy="254.52" r="6.64"/>
                <path class="st14" d="M390.74,281.8h-25.87c-1.36-.44-9.07-3.05-12.18-10.67-1.14-2.79-1.3-5.39-1.23-7.21h24.58c3.8,1.06,8.89,3.41,12.04,8.64,2.12,3.51,2.58,7.01,2.65,9.25Z"/>
                <path class="st42" d="M408.3,269.14v7.88c-.07.52-.33,1.77-1.33,2.94-1.1,1.29-2.44,1.71-2.94,1.84h-13.29c-.06-2.23-.53-5.74-2.65-9.25-3.16-5.23-8.24-7.58-12.04-8.64h27.21c.46.06,2.16.33,3.53,1.8,1.27,1.37,1.47,2.93,1.52,3.42Z"/>
                <path class="st20" d="M375.28,244.56c-.94-1.59-3.01-1.94-4.66-2.31v-2.82c.49.14.89.35.96.38.2.1.49.25.66.57.13.23.07.32.19.47.23.31,2.44.25,2.62,0,.55-.73-.73-2.18-.82-2.28-.85-.97-2.2-1.57-3.62-1.68v-1.26h-.75v1.24c-.71.03-1.43.18-2.09.47-.5.22-2.35,1.02-2.75,2.85-.24,1.08.07,2.35.85,3.23,1.05,1.17,2.64,1.31,3.99,1.44v3.01c-.95,0-1.18.03-1.42-.19-.41-.36-.15-.79-.57-1.14-.17-.14-2.86-.2-2.94-.09-.32.38.24,1.51.85,2.18.95,1.04,2.49,1.57,4.08,1.64v1.53h.75v-1.53c1.65-.07,3.25-.64,4.19-1.64.22-.24.8-.85.95-1.8.19-1.15-.37-2.09-.47-2.28ZM368.26,240.95c-.12-.53.19-1.07.47-1.33.31-.28.72-.36,1.14-.33v2.78c-.84-.23-1.47-.52-1.61-1.12ZM372.05,247.79c-.21.17-.38.12-1.44.1v-2.94c.8.11,1.45.3,1.72.85.32.66.18,1.61-.28,1.99Z"/>
              </g>
            </g>
          </g>
          <g>
            <g>
              <path d="M607.46,308.39h2.58c2.02,0,3.39.68,3.39,2.66s-1.36,2.79-3.33,2.79h-1.48v3.58h-1.15v-9.03ZM609.95,312.91c1.58,0,2.33-.57,2.33-1.86s-.8-1.73-2.39-1.73h-1.28v3.58h1.34Z"/>
              <path d="M615.06,314.97v-4.24h1.13v4.09c0,1.25.38,1.78,1.26,1.78.68,0,1.16-.34,1.79-1.13v-4.74h1.13v6.69h-.93l-.1-1.05h-.04c-.62.73-1.29,1.21-2.21,1.21-1.41,0-2.04-.91-2.04-2.62Z"/>
              <path d="M622.63,310.73h.93l.1,1.22h.04c.47-.85,1.15-1.38,1.9-1.38.3,0,.5.04.71.14l-.21.99c-.23-.07-.38-.11-.65-.11-.56,0-1.24.41-1.69,1.54v4.29h-1.13v-6.69Z"/>
              <path d="M626.77,314.09c0-2.23,1.51-3.52,3.22-3.52.88,0,1.49.36,1.96.79l-.58.75c-.39-.35-.8-.59-1.33-.59-1.21,0-2.1,1.04-2.1,2.58s.84,2.56,2.07,2.56c.61,0,1.15-.3,1.57-.67l.49.76c-.6.54-1.36.85-2.16.85-1.78,0-3.14-1.29-3.14-3.5Z"/>
              <path d="M633.54,307.62h1.13v2.68l-.04,1.37c.62-.6,1.3-1.11,2.22-1.11,1.41,0,2.04.91,2.04,2.62v4.24h-1.13v-4.09c0-1.25-.38-1.78-1.26-1.78-.68,0-1.16.35-1.83,1.03v4.84h-1.13v-9.8Z"/>
              <path d="M640.61,315.69c0-1.46,1.26-2.19,4.11-2.5,0-.86-.29-1.69-1.38-1.69-.77,0-1.47.37-1.99.72l-.44-.78c.62-.4,1.55-.87,2.63-.87,1.63,0,2.32,1.08,2.32,2.75v4.1h-.93l-.1-.8h-.04c-.64.53-1.38.96-2.21.96-1.12,0-1.96-.7-1.96-1.9ZM644.72,315.79v-1.86c-2.24.27-3,.82-3,1.67,0,.76.52,1.07,1.17,1.07s1.18-.31,1.83-.89Z"/>
              <path d="M647.22,316.66l.56-.75c.58.47,1.17.79,1.97.79.88,0,1.31-.47,1.31-1.04,0-.69-.79-.99-1.53-1.27-.94-.34-1.99-.8-1.99-1.93,0-1.07.86-1.9,2.31-1.9.83,0,1.56.34,2.08.75l-.54.73c-.46-.34-.93-.6-1.53-.6-.84,0-1.23.45-1.23.96,0,.64.73.88,1.48,1.16.96.36,2.04.76,2.04,2.03,0,1.08-.86,1.99-2.44,1.99-.95,0-1.87-.4-2.5-.93Z"/>
              <path d="M653.23,314.09c0-2.18,1.47-3.52,3.01-3.52,1.71,0,2.67,1.23,2.67,3.14,0,.24-.02.48-.05.64h-4.5c.08,1.42.95,2.34,2.22,2.34.64,0,1.17-.21,1.66-.53l.41.74c-.59.38-1.3.69-2.21.69-1.78,0-3.2-1.3-3.2-3.5ZM657.9,313.54c0-1.34-.6-2.07-1.65-2.07-.94,0-1.78.75-1.92,2.07h3.57Z"/>
            </g>
            <g>
              <path d="M484.72,308.2h5.2v.97h-4.06v2.83h3.42v.97h-3.42v3.28h4.19v.97h-5.34v-9.03Z"/>
              <path d="M490.76,310.54h1.17l1.26,3.8c.2.65.42,1.33.62,1.97h.06c.2-.64.42-1.32.62-1.97l1.26-3.8h1.11l-2.37,6.69h-1.32l-2.41-6.69Z"/>
              <path d="M497.6,313.9c0-2.18,1.47-3.52,3.01-3.52,1.71,0,2.67,1.23,2.67,3.14,0,.24-.02.48-.05.64h-4.5c.08,1.42.95,2.34,2.22,2.34.64,0,1.17-.21,1.66-.53l.41.74c-.59.38-1.3.69-2.21.69-1.78,0-3.2-1.3-3.2-3.5ZM502.27,313.35c0-1.34-.6-2.07-1.65-2.07-.94,0-1.78.75-1.92,2.07h3.57Z"/>
              <path d="M504.92,310.54h.93l.1.96h.04c.64-.63,1.33-1.13,2.24-1.13,1.41,0,2.04.91,2.04,2.62v4.24h-1.13v-4.09c0-1.25-.38-1.78-1.26-1.78-.68,0-1.16.35-1.83,1.03v4.84h-1.13v-6.69Z"/>
              <path d="M512.64,315.16v-3.7h-1v-.86l1.05-.07.14-1.88h.95v1.88h1.81v.92h-1.81v3.72c0,.82.26,1.29,1.03,1.29.24,0,.54-.09.76-.18l.22.85c-.38.13-.82.25-1.24.25-1.42,0-1.91-.9-1.91-2.23Z"/>
              <path d="M516.21,316.47l.56-.75c.58.47,1.17.79,1.97.79.88,0,1.31-.47,1.31-1.04,0-.69-.79-.99-1.53-1.27-.94-.34-1.99-.8-1.99-1.93,0-1.07.86-1.9,2.31-1.9.83,0,1.56.34,2.08.75l-.54.73c-.46-.34-.93-.6-1.53-.6-.84,0-1.23.45-1.23.96,0,.64.73.88,1.48,1.16.96.36,2.04.76,2.04,2.03,0,1.08-.86,1.99-2.44,1.99-.95,0-1.87-.4-2.5-.93Z"/>
            </g>
            <g>
              <path class="st13" d="M552.88,211.59c-.25-.73-.79-1.99-1.93-3.19-.99-1.05-2.04-1.63-2.71-1.94-28.93.03-57.86.06-86.78.1-.7.19-2.48.79-3.87,2.52-.82,1.02-1.18,2.05-1.35,2.71-.41,52.17-.56,85.13-.1,86.55.38,1.18.99,2.02,1.64,2.71,1.4,1.48,3.09,2.02,3.96,2.23,40.26.22,85.34.26,86.11,0,1.49-.51,2.43-1.4,2.9-1.84,0,0,1.51-1.19,2.13-3,.12-.36.02-45.46,0-86.84ZM551.63,297.23c-.6,1.76-2.07,2.92-2.07,2.92-.45.43-1.38,1.29-2.82,1.79-.74.26-44.66.21-83.89,0-.85-.2-2.49-.72-3.86-2.17-.63-.67-1.23-1.49-1.6-2.64-.45-1.38-.3-33.44.09-84.17.17-.64.52-1.64,1.32-2.64,1.35-1.68,3.09-2.26,3.77-2.45,28.18-.03,56.37-.06,84.55-.09.65.3,1.67.86,2.64,1.88,1.11,1.17,1.64,2.4,1.88,3.11.02,40.24.12,84.1,0,84.45Z"/>
              <path class="st20" d="M551.63,297.23c-.6,1.76-2.07,2.92-2.07,2.92-.45.43-1.38,1.29-2.82,1.79-.74.26-44.66.21-83.89,0-.85-.2-2.49-.72-3.86-2.17-.63-.67-1.23-1.49-1.6-2.64-.45-1.38-.3-33.44.09-84.17.17-.64.52-1.64,1.32-2.64,1.35-1.68,3.09-2.26,3.77-2.45,28.18-.03,56.37-.06,84.55-.09.65.3,1.67.86,2.64,1.88,1.11,1.17,1.64,2.4,1.88,3.11.02,40.24.12,84.1,0,84.45Z"/>
              <g>
                <path class="st23" d="M500.56,274.22c0,.51-.33,1-.93,1.45,0,0,0,0,0,0-2.15,1.62-7.77,2.77-14.37,2.77-8.45,0-15.3-1.89-15.3-4.22,0-.19.04-.37.13-.55.2-.43.64-.84,1.28-1.22,2.42-1.45,7.74-2.45,13.9-2.45,8.45,0,15.3,1.89,15.3,4.22Z"/>
                <path class="st36" d="M520.62,236.83c-.92,2.08-8.96,17.07-20.07,37.39,0-2.33-6.89-4.22-15.4-4.22-6.2,0-11.54,1-13.98,2.45,23.38-22.21,40.39-38.25,42.14-39.7.8-.66,1.57-.89,1.8-.95,1.99-.53,3.74.51,3.99.66.53.32,1.48.91,1.8,1.99.12.4.24,1.18-.28,2.37Z"/>
                <path class="st34" d="M508.25,274.03c0,.51.33,1,.93,1.45,0,0,0,0,0,0,2.15,1.62,7.77,2.77,14.37,2.77,8.45,0,15.3-1.89,15.3-4.22,0-.19-.04-.37-.13-.55-.2-.43-.64-.84-1.28-1.22-2.42-1.45-7.74-2.45-13.9-2.45-8.45,0-15.3,1.89-15.3,4.22Z"/>
                <path class="st8" d="M488.18,236.64c.92,2.08,8.96,17.07,20.07,37.39,0-2.33,6.89-4.22,15.4-4.22,6.2,0,11.54,1,13.98,2.45-23.38-22.21-40.39-38.25-42.14-39.7-.8-.66-1.57-.89-1.8-.95-1.99-.53-3.74.51-3.99.66-.53.32-1.48.91-1.8,1.99-.12.4-.24,1.18.28,2.37Z"/>
              </g>
            </g>
            <g>
              <path class="st13" d="M681.08,211.59c-.25-.73-.79-1.99-1.93-3.19-.99-1.05-2.04-1.63-2.71-1.94-28.93.03-57.86.06-86.78.1-.7.19-2.48.79-3.87,2.52-.82,1.02-1.18,2.05-1.35,2.71-.41,52.17-.56,85.13-.1,86.55.38,1.18.99,2.02,1.64,2.71,1.4,1.48,3.09,2.02,3.96,2.23,40.26.22,85.34.26,86.11,0,1.49-.51,2.43-1.4,2.9-1.84,0,0,1.51-1.19,2.13-3,.12-.36.02-45.46,0-86.84ZM679.84,297.23c-.6,1.76-2.07,2.92-2.07,2.92-.45.43-1.38,1.29-2.82,1.79-.74.26-44.66.21-83.89,0-.85-.2-2.49-.72-3.86-2.17-.63-.67-1.23-1.49-1.6-2.64-.45-1.38-.3-33.44.09-84.17.17-.64.52-1.64,1.32-2.64,1.35-1.68,3.09-2.26,3.77-2.45,28.18-.03,56.37-.06,84.55-.09.65.3,1.67.86,2.64,1.88,1.11,1.17,1.64,2.4,1.88,3.11.02,40.24.12,84.1,0,84.45Z"/>
              <path class="st20" d="M679.84,297.23c-.6,1.76-2.07,2.92-2.07,2.92-.45.43-1.38,1.29-2.82,1.79-.74.26-44.66.21-83.89,0-.85-.2-2.49-.72-3.86-2.17-.63-.67-1.23-1.49-1.6-2.64-.45-1.38-.3-33.44.09-84.17.17-.64.52-1.64,1.32-2.64,1.35-1.68,3.09-2.26,3.77-2.45,28.18-.03,56.37-.06,84.55-.09.65.3,1.67.86,2.64,1.88,1.11,1.17,1.64,2.4,1.88,3.11.02,40.24.12,84.1,0,84.45Z"/>
              <g>
                <path class="st19" d="M666.96,242.54v31.96c0,.24-.03,1.8-1.33,2.95-1.32,1.17-2.9.98-3.13.95l-64.24-.03v-35.82h68.7Z"/>
                <path class="st2" d="M666.96,248.94v25.56c0,.24-.03,1.8-1.33,2.95-1.32,1.17-2.9.98-3.13.95l-64.24-.03v-28.99s.03.09.05.13c.26.71.67,1.62,1.52,2.47,1,1,2.15,1.42,2.85,1.61,19.94.03,39.89.05,59.83.08.96-.22,2.46-.74,3.46-2.07.67-.89.91-1.87,1-2.65Z"/>
                <path class="st9" d="M666.96,231.42v17.52c-.09.78-.32,1.76-1,2.65-1,1.33-2.5,1.85-3.46,2.07-19.94-.03-39.89-.05-59.83-.08-.69-.19-1.84-.62-2.85-1.61-.85-.84-1.26-1.76-1.52-2.47-.02-.04-.03-.09-.05-.13v-13.39c-.02-.35-.04-1.71.95-2.94,1.16-1.45,2.83-1.59,3.11-1.61h64.64Z"/>
              </g>
            </g>
          </g>
          <g>
            <g>
              <path d="M224.02,456.04c0-2.91,1.72-4.69,4.01-4.69,1.1,0,1.96.53,2.48,1.11l-.63.75c-.48-.51-1.07-.85-1.83-.85-1.71,0-2.84,1.4-2.84,3.65s1.08,3.69,2.8,3.69c.86,0,1.52-.38,2.09-1.01l.63.72c-.71.83-1.6,1.3-2.77,1.3-2.25,0-3.93-1.74-3.93-4.67Z"/>
              <path d="M231.79,457.21c0-2.23,1.46-3.52,3.1-3.52s3.1,1.29,3.1,3.52-1.46,3.5-3.1,3.5-3.1-1.29-3.1-3.5ZM236.82,457.21c0-1.53-.78-2.58-1.93-2.58s-1.93,1.04-1.93,2.58.78,2.56,1.93,2.56,1.93-1.03,1.93-2.56Z"/>
              <path d="M239.75,453.86h.93l.1.96h.04c.64-.63,1.33-1.13,2.24-1.13,1.41,0,2.04.91,2.04,2.62v4.24h-1.13v-4.09c0-1.25-.38-1.78-1.26-1.78-.68,0-1.16.35-1.83,1.03v4.84h-1.13v-6.69Z"/>
              <path d="M247.47,458.48v-3.7h-.99v-.86l1.05-.07.14-1.88h.95v1.88h1.81v.92h-1.81v3.72c0,.82.26,1.29,1.03,1.29.24,0,.54-.09.76-.18l.22.85c-.38.13-.82.25-1.24.25-1.42,0-1.91-.9-1.91-2.23Z"/>
              <path d="M251.22,458.81c0-1.46,1.26-2.19,4.11-2.5,0-.86-.29-1.69-1.38-1.69-.77,0-1.47.37-1.99.72l-.44-.78c.62-.4,1.55-.87,2.63-.87,1.63,0,2.32,1.08,2.32,2.75v4.1h-.93l-.1-.8h-.04c-.64.53-1.38.96-2.21.96-1.12,0-1.96-.7-1.96-1.9ZM255.33,458.91v-1.86c-2.24.27-3,.82-3,1.67,0,.76.52,1.07,1.17,1.07s1.18-.31,1.83-.89Z"/>
              <path d="M258.07,457.21c0-2.23,1.51-3.52,3.22-3.52.88,0,1.49.36,1.96.79l-.58.75c-.39-.35-.8-.59-1.33-.59-1.21,0-2.1,1.04-2.1,2.58s.84,2.56,2.07,2.56c.61,0,1.15-.3,1.57-.67l.49.76c-.6.54-1.36.85-2.16.85-1.78,0-3.14-1.29-3.14-3.5Z"/>
              <path d="M264.9,458.48v-3.7h-.99v-.86l1.05-.07.14-1.88h.95v1.88h1.81v.92h-1.81v3.72c0,.82.26,1.29,1.03,1.29.24,0,.54-.09.76-.18l.22.85c-.38.13-.82.25-1.24.25-1.42,0-1.91-.9-1.91-2.23Z"/>
              <path d="M268.48,459.78l.56-.75c.58.47,1.17.79,1.97.79.88,0,1.31-.47,1.31-1.04,0-.69-.79-.99-1.53-1.27-.94-.34-1.99-.8-1.99-1.93,0-1.07.86-1.9,2.31-1.9.83,0,1.56.34,2.08.75l-.54.73c-.46-.34-.93-.6-1.53-.6-.84,0-1.23.45-1.23.96,0,.64.73.88,1.48,1.16.96.36,2.04.76,2.04,2.03,0,1.08-.86,1.99-2.44,1.99-.95,0-1.87-.4-2.5-.93Z"/>
            </g>
            <g>
              <path d="M362.99,456.04c0-2.91,1.72-4.69,4.01-4.69,1.1,0,1.96.53,2.48,1.11l-.63.75c-.48-.51-1.07-.85-1.83-.85-1.71,0-2.84,1.4-2.84,3.65s1.08,3.69,2.8,3.69c.86,0,1.52-.38,2.09-1.01l.63.72c-.71.83-1.6,1.3-2.77,1.3-2.25,0-3.93-1.74-3.93-4.67Z"/>
              <path d="M371.37,451.52h2.83c1.84,0,3.16.66,3.16,2.54s-1.32,2.67-3.16,2.67h-1.68v3.82h-1.15v-9.03ZM374.04,455.8c1.41,0,2.18-.57,2.18-1.74s-.77-1.61-2.18-1.61h-1.51v3.35h1.51ZM373.98,456.42l.9-.59,2.76,4.73h-1.3l-2.35-4.13Z"/>
              <path d="M379.2,451.52h1.38l1.73,4.82c.22.62.42,1.25.64,1.88h.06c.22-.63.41-1.26.62-1.88l1.71-4.82h1.38v9.03h-1.07v-4.97c0-.79.09-1.87.15-2.67h-.06l-.72,2.06-1.7,4.67h-.76l-1.71-4.67-.72-2.06h-.06c.06.8.15,1.88.15,2.67v4.97h-1.04v-9.03Z"/>
            </g>
            <g>
              <path class="st13" d="M297.07,355.28c-.25-.73-.79-1.99-1.93-3.19-.99-1.05-2.04-1.63-2.71-1.94-28.93.03-57.86.06-86.78.1-.7.19-2.48.79-3.87,2.52-.82,1.02-1.18,2.05-1.35,2.71-.41,52.17-.56,85.13-.1,86.55.38,1.18.99,2.02,1.64,2.71,1.4,1.48,3.09,2.02,3.96,2.23,40.26.22,85.34.26,86.11,0,1.49-.51,2.43-1.4,2.9-1.84,0,0,1.51-1.19,2.13-3,.12-.36.02-45.46,0-86.84ZM295.83,440.92c-.6,1.76-2.07,2.92-2.07,2.92-.45.43-1.38,1.29-2.82,1.79-.74.26-44.66.21-83.89,0-.85-.2-2.49-.72-3.86-2.17-.63-.67-1.23-1.49-1.6-2.64-.45-1.38-.3-33.44.09-84.17.17-.64.52-1.64,1.32-2.64,1.35-1.68,3.09-2.26,3.77-2.45,28.18-.03,56.37-.06,84.55-.09.65.3,1.67.86,2.64,1.88,1.11,1.17,1.64,2.4,1.88,3.11.02,40.24.12,84.1,0,84.45Z"/>
              <path class="st20" d="M295.83,440.92c-.6,1.76-2.07,2.92-2.07,2.92-.45.43-1.38,1.29-2.82,1.79-.74.26-44.66.21-83.89,0-.85-.2-2.49-.72-3.86-2.17-.63-.67-1.23-1.49-1.6-2.64-.45-1.38-.3-33.44.09-84.17.17-.64.52-1.64,1.32-2.64,1.35-1.68,3.09-2.26,3.77-2.45,28.18-.03,56.37-.06,84.55-.09.65.3,1.67.86,2.64,1.88,1.11,1.17,1.64,2.4,1.88,3.11.02,40.24.12,84.1,0,84.45Z"/>
              <path class="st35" d="M229.29,375.43c-.51.11-1.46.38-2.38,1.16-1.32,1.11-1.7,2.53-1.8,3.02v47.94h43.65c1-.24,3.58-1.01,5.79-3.42,2.32-2.54,2.81-5.35,2.94-6.36v-42.34h-48.2ZM247.12,382.09c4.61,0,8.35,3.74,8.35,8.35s-3.74,8.35-8.35,8.35-8.35-3.74-8.35-8.35,3.74-8.35,8.35-8.35ZM237.35,407.52c2.94-3.8,7.1-4.52,8-4.65h15.73c-.05,1.06-.37,5.29-3.8,8.73-2.59,2.6-5.56,3.37-6.77,3.61h-15.72c-.01-1.06.09-4.49,2.56-7.69Z"/>
              <path class="st4" d="M272.08,375.43v-5.68c-14.68,0-29.35,0-44.03,0-.94.22-3.94,1.03-6.17,3.89-1.61,2.06-2.04,4.19-2.18,5.22,0,14.33,0,28.66,0,43,1.8.01,3.61.02,5.41.03,14.2.08,28.41.16,42.61.24.47-.08,1.95-.39,3.13-1.71.85-.95,1.13-1.97,1.23-2.47,0-14.18,0-28.35,0-42.53ZM255.47,390.44c0,4.61-3.74,8.35-8.35,8.35s-8.35-3.74-8.35-8.35,3.74-8.35,8.35-8.35,8.35,3.74,8.35,8.35ZM257.28,411.6c-2.59,2.6-5.56,3.37-6.77,3.61h-15.72c-.01-1.06.09-4.49,2.56-7.69,2.94-3.8,7.1-4.52,8-4.65h15.73c-.05,1.06-.37,5.29-3.8,8.73Z"/>
              <path class="st20" d="M261.07,402.87c-.05,1.06-.37,5.29-3.8,8.73-2.59,2.6-5.56,3.37-6.77,3.61h-15.72c-.01-1.06.09-4.49,2.56-7.69,2.94-3.8,7.1-4.52,8-4.65h15.73Z"/>
              <circle class="st20" cx="247.12" cy="390.44" r="8.35"/>
            </g>
            <g>
              <path class="st13" d="M425.28,355.19c-.25-.73-.79-1.99-1.93-3.19-.99-1.05-2.04-1.63-2.71-1.94-28.93.03-57.86.06-86.78.1-.7.19-2.48.79-3.87,2.52-.82,1.02-1.18,2.05-1.35,2.71-.41,52.17-.56,85.13-.1,86.55.38,1.18.99,2.02,1.64,2.71,1.4,1.48,3.09,2.02,3.96,2.23,40.26.22,85.34.26,86.11,0,1.49-.51,2.43-1.4,2.9-1.84,0,0,1.51-1.19,2.13-3,.12-.36.02-45.46,0-86.84ZM424.03,440.83c-.6,1.76-2.07,2.92-2.07,2.92-.45.43-1.38,1.29-2.82,1.79-.74.26-44.66.21-83.89,0-.85-.2-2.49-.72-3.86-2.17-.63-.67-1.23-1.49-1.6-2.64-.45-1.38-.3-33.44.09-84.17.17-.64.52-1.64,1.32-2.64,1.35-1.68,3.09-2.26,3.77-2.45,28.18-.03,56.37-.06,84.55-.09.65.3,1.67.86,2.64,1.88,1.11,1.17,1.64,2.4,1.88,3.11.02,40.24.12,84.1,0,84.45Z"/>
              <path class="st20" d="M424.03,440.83c-.6,1.76-2.07,2.92-2.07,2.92-.45.43-1.38,1.29-2.82,1.79-.74.26-44.66.21-83.89,0-.85-.2-2.49-.72-3.86-2.17-.63-.67-1.23-1.49-1.6-2.64-.45-1.38-.3-33.44.09-84.17.17-.64.52-1.64,1.32-2.64,1.35-1.68,3.09-2.26,3.77-2.45,28.18-.03,56.37-.06,84.55-.09.65.3,1.67.86,2.64,1.88,1.11,1.17,1.64,2.4,1.88,3.11.02,40.24.12,84.1,0,84.45Z"/>
              <g>
                <path class="st25" d="M411.26,384.5c-1.91,2.1-4.23,4.55-6.93,7.21-1.74,1.71-3.91,3.86-6.1,5.76-3.72-3.75-7.43-7.51-11.15-11.26-2.52-2.54-5.04-5.09-7.55-7.63-.72-.73-1.45-1.46-2.17-2.19-.06-.06-.13-.13-.19-.19h4.06s24.8-.04,24.8-.04l1,.03c.71.17,2.02.6,3.08,1.77,2.39,2.63,1.2,6.38,1.14,6.55Z"/>
                <path class="st38" d="M377.05,418.91c-.05.05-.1.1-.14.14-.54.53-2.29,2.05-4.74,1.8-1.46-.15-2.49-.87-2.94-1.23l-13.38-13.66c-.18-.35-.8-1.71-.38-3.42.45-1.81,1.78-2.74,2.09-2.94.01-.01.03-.03.04-.04,6.49,6.45,12.97,12.9,19.46,19.36Z"/>
                <path class="st38" d="M378.52,416.29c-.27,1.29-1.04,2.17-1.47,2.61-6.49-6.45-12.97-12.9-19.46-19.36.42-.45,1.06-1.01,1.95-1.38,1.65-.68,3.23-.32,3.42-.28.06,0,.12.01.18,0,4.99,5.04,9.98,10.09,14.97,15.13h0c.21.72.72,1.81.41,3.27Z"/>
                <path class="st38" d="M387.09,386.21c-2.67-.58-4.6-.25-5.91.19-5.93,2.01-7.17,8.26-11.2,8.07-.73-.04-1.46-.28-2.11-.68-1.36-.81-2.42-2.22-2.64-3.59-.21-1.34.32-2.91,5.79-8.16,1.58-1.51,3.7-3.46,6.34-5.65.72.73,1.45,1.46,2.17,2.19,2.52,2.54,5.04,5.09,7.55,7.63Z"/>
                <path class="st7" d="M400.16,401.68c-.01,1.07-.34,1.9-.57,2.37-5.19,5.25-10.37,10.5-15.56,15.75-.28.24-1.38,1.14-3.04,1.14-1.58,0-2.65-.8-2.94-1.04-.33-.33-.67-.66-1-.99-6.49-6.45-12.97-12.9-19.46-19.36-5.04-5.02-10.08-10.03-15.13-15.05-.21-.5-.86-2.27-.19-4.37.84-2.64,3.14-3.72,3.51-3.89,0,0,0,0,0,0l31.22-.05h.17c.06.06.13.13.19.19.72.73,1.45,1.46,2.17,2.19,2.52,2.54,5.04,5.09,7.55,7.63,3.72,3.75,7.43,7.51,11.15,11.26.29.3.58.59.88.88.31.44,1.07,1.64,1.04,3.32Z"/>
              </g>
            </g>
          </g>
          <g>
            <g>
              <path d="M598.68,451.83h2.26c2.78,0,4.26,1.61,4.26,4.48s-1.49,4.55-4.21,4.55h-2.31v-9.03ZM600.85,459.92c2.11,0,3.16-1.32,3.16-3.61s-1.05-3.54-3.16-3.54h-1.02v7.15h1.02Z"/>
              <path d="M606.62,459.12c0-1.46,1.26-2.19,4.11-2.5,0-.86-.29-1.69-1.38-1.69-.77,0-1.47.37-1.99.72l-.44-.78c.62-.4,1.55-.87,2.63-.87,1.63,0,2.32,1.08,2.32,2.75v4.1h-.93l-.1-.8h-.04c-.64.53-1.38.96-2.21.96-1.12,0-1.96-.7-1.96-1.9ZM610.73,459.23v-1.86c-2.24.27-3,.82-3,1.67,0,.76.52,1.07,1.17,1.07s1.18-.31,1.83-.89Z"/>
              <path d="M613.23,460.1l.56-.75c.58.47,1.17.79,1.97.79.88,0,1.31-.47,1.31-1.04,0-.69-.79-.99-1.53-1.27-.94-.34-1.99-.8-1.99-1.93,0-1.07.86-1.9,2.31-1.9.83,0,1.56.34,2.08.75l-.54.73c-.46-.34-.93-.6-1.53-.6-.84,0-1.23.45-1.23.96,0,.64.73.88,1.48,1.16.96.36,2.04.76,2.04,2.03,0,1.08-.86,1.99-2.44,1.99-.95,0-1.87-.4-2.5-.93Z"/>
              <path d="M619.73,451.06h1.13v2.68l-.04,1.37c.62-.6,1.3-1.11,2.22-1.11,1.41,0,2.04.91,2.04,2.62v4.24h-1.13v-4.09c0-1.25-.38-1.78-1.26-1.78-.68,0-1.16.35-1.83,1.03v4.84h-1.13v-9.8Z"/>
              <path d="M628.27,460.17h-.04l-.11.69h-.9v-9.8h1.13v2.68l-.04,1.2c.61-.53,1.36-.93,2.1-.93,1.73,0,2.66,1.34,2.66,3.4,0,2.28-1.37,3.62-2.9,3.62-.62,0-1.32-.32-1.91-.86ZM631.9,457.42c0-1.48-.5-2.47-1.76-2.47-.57,0-1.15.31-1.79.91v3.51c.59.51,1.19.7,1.63.7,1.11,0,1.92-1,1.92-2.65Z"/>
              <path d="M634.33,457.52c0-2.23,1.46-3.52,3.1-3.52s3.1,1.29,3.1,3.52-1.46,3.5-3.1,3.5-3.1-1.29-3.1-3.5ZM639.36,457.52c0-1.53-.78-2.58-1.93-2.58s-1.93,1.04-1.93,2.58.78,2.56,1.93,2.56,1.93-1.03,1.93-2.56Z"/>
              <path d="M641.68,459.12c0-1.46,1.26-2.19,4.11-2.5,0-.86-.29-1.69-1.38-1.69-.77,0-1.47.37-1.99.72l-.44-.78c.62-.4,1.55-.87,2.63-.87,1.63,0,2.32,1.08,2.32,2.75v4.1h-.93l-.1-.8h-.04c-.64.53-1.38.96-2.21.96-1.12,0-1.96-.7-1.96-1.9ZM645.78,459.23v-1.86c-2.24.27-3,.82-3,1.67,0,.76.52,1.07,1.17,1.07s1.18-.31,1.83-.89Z"/>
              <path d="M649.02,454.17h.93l.1,1.22h.04c.47-.85,1.15-1.38,1.9-1.38.3,0,.5.04.71.14l-.21.99c-.23-.07-.38-.11-.65-.11-.56,0-1.24.41-1.69,1.54v4.29h-1.13v-6.69Z"/>
              <path d="M653.18,457.52c0-2.17,1.37-3.52,2.89-3.52.78,0,1.29.29,1.87.77l-.05-1.15v-2.58h1.13v9.8h-.93l-.1-.79h-.04c-.52.52-1.23.95-2.03.95-1.67,0-2.75-1.27-2.75-3.5ZM657.9,459.16v-3.51c-.57-.51-1.09-.7-1.63-.7-1.07,0-1.92,1.03-1.92,2.56,0,1.6.66,2.56,1.84,2.56.62,0,1.15-.3,1.72-.91Z"/>
              <path d="M660.55,460.1l.56-.75c.58.47,1.17.79,1.97.79.88,0,1.31-.47,1.31-1.04,0-.69-.79-.99-1.53-1.27-.94-.34-1.99-.8-1.99-1.93,0-1.07.86-1.9,2.31-1.9.83,0,1.56.34,2.08.75l-.54.73c-.46-.34-.93-.6-1.53-.6-.84,0-1.23.45-1.23.96,0,.64.73.88,1.48,1.16.96.36,2.04.76,2.04,2.03,0,1.08-.86,1.99-2.44,1.99-.95,0-1.87-.4-2.5-.93Z"/>
            </g>
            <g>
              <path d="M486.95,459.68l.69-.79c.65.67,1.55,1.12,2.49,1.12,1.19,0,1.89-.59,1.89-1.47,0-.92-.65-1.22-1.51-1.59l-1.3-.57c-.84-.36-1.83-1-1.83-2.33s1.2-2.4,2.84-2.4c1.07,0,2.02.46,2.66,1.12l-.61.74c-.55-.52-1.22-.85-2.05-.85-1.01,0-1.68.51-1.68,1.32,0,.87.79,1.2,1.49,1.49l1.29.56c1.04.45,1.86,1.07,1.86,2.41,0,1.43-1.18,2.57-3.08,2.57-1.27,0-2.37-.52-3.16-1.34Z"/>
              <path d="M494.43,459.12c0-1.46,1.26-2.19,4.11-2.5,0-.86-.29-1.69-1.38-1.69-.77,0-1.47.37-1.99.72l-.44-.78c.62-.4,1.55-.87,2.63-.87,1.63,0,2.32,1.08,2.32,2.75v4.1h-.93l-.1-.8h-.04c-.64.53-1.38.96-2.21.96-1.12,0-1.96-.7-1.96-1.9ZM498.54,459.23v-1.86c-2.24.27-3,.82-3,1.67,0,.76.52,1.07,1.17,1.07s1.18-.31,1.83-.89Z"/>
              <path d="M501.78,459.52v-8.46h1.13v8.54c0,.35.15.48.32.48.07,0,.12,0,.25-.03l.15.86c-.16.06-.35.11-.65.11-.85,0-1.2-.54-1.2-1.51Z"/>
              <path d="M504.79,457.52c0-2.18,1.47-3.52,3.01-3.52,1.71,0,2.67,1.23,2.67,3.14,0,.24-.02.48-.05.64h-4.5c.08,1.42.95,2.34,2.22,2.34.64,0,1.17-.21,1.66-.53l.41.74c-.59.38-1.3.69-2.21.69-1.78,0-3.2-1.3-3.2-3.5ZM509.46,456.98c0-1.34-.6-2.07-1.65-2.07-.94,0-1.78.75-1.92,2.07h3.57Z"/>
              <path d="M511.37,460.1l.56-.75c.58.47,1.17.79,1.97.79.88,0,1.31-.47,1.31-1.04,0-.69-.79-.99-1.53-1.27-.94-.34-1.99-.8-1.99-1.93,0-1.07.86-1.9,2.31-1.9.83,0,1.56.34,2.08.75l-.54.73c-.46-.34-.93-.6-1.53-.6-.84,0-1.23.45-1.23.96,0,.64.73.88,1.48,1.16.96.36,2.04.76,2.04,2.03,0,1.08-.86,1.99-2.44,1.99-.95,0-1.87-.4-2.5-.93Z"/>
            </g>
            <g>
              <path class="st13" d="M551.69,355.21c-.25-.73-.79-1.99-1.93-3.19-.99-1.05-2.04-1.63-2.71-1.94-28.93.03-57.86.06-86.78.1-.7.19-2.48.79-3.87,2.52-.82,1.02-1.18,2.05-1.35,2.71-.41,52.17-.56,85.13-.1,86.55.38,1.18.99,2.02,1.64,2.71,1.4,1.48,3.09,2.02,3.96,2.23,40.26.22,85.34.26,86.11,0,1.49-.51,2.43-1.4,2.9-1.84,0,0,1.51-1.19,2.13-3,.12-.36.02-45.46,0-86.84ZM550.44,440.86c-.6,1.76-2.07,2.92-2.07,2.92-.45.43-1.38,1.29-2.82,1.79-.74.26-44.66.21-83.89,0-.85-.2-2.49-.72-3.86-2.17-.63-.67-1.23-1.49-1.6-2.64-.45-1.38-.3-33.44.09-84.17.17-.64.52-1.64,1.32-2.64,1.35-1.68,3.09-2.26,3.77-2.45,28.18-.03,56.37-.06,84.55-.09.65.3,1.67.86,2.64,1.88,1.11,1.17,1.64,2.4,1.88,3.11.02,40.24.12,84.1,0,84.45Z"/>
              <g>
                <path class="st20" d="M550.44,440.86c-.6,1.76-2.07,2.92-2.07,2.92-.45.43-1.38,1.29-2.82,1.79-.74.26-44.66.21-83.89,0-.85-.2-2.49-.72-3.86-2.17-.63-.67-1.23-1.49-1.6-2.64-.45-1.38-.3-33.44.09-84.17.17-.64.52-1.64,1.32-2.64,1.35-1.68,3.09-2.26,3.77-2.45,28.18-.03,56.37-.06,84.55-.09.65.3,1.67.86,2.64,1.88,1.11,1.17,1.64,2.4,1.88,3.11.02,40.24.12,84.1,0,84.45Z"/>
                <g>
                  <path class="st32" d="M501.64,393.1h-23.31c-.46.07-1.62.32-2.65,1.28-1.39,1.31-1.54,2.98-1.57,3.38v29.83h23.99c.27-.02,1.63-.17,2.63-1.35.84-1,.9-2.12.9-2.44v-30.7Z"/>
                  <path class="st17" d="M532.3,369.56h-23.31c-.46.12-1.62.54-2.65,2.16-1.39,2.2-1.54,5.02-1.57,5.68v50.18h23.99c.27-.04,1.63-.29,2.63-2.28.84-1.68.9-3.56.9-4.1v-51.63Z"/>
                  <path class="st6" d="M516.97,382.04h-23.31c-.46.1-1.62.42-2.65,1.7-1.39,1.72-1.54,3.94-1.57,4.46v39.4h23.99c.27-.03,1.63-.22,2.63-1.79.84-1.32.9-2.79.9-3.22v-40.54Z"/>
                </g>
              </g>
            </g>
            <g>
              <path class="st13" d="M679.8,355.23c-.25-.73-.79-1.99-1.93-3.19-.99-1.05-2.04-1.63-2.71-1.94-28.93.03-57.86.06-86.78.1-.7.19-2.48.79-3.87,2.52-.82,1.02-1.18,2.05-1.35,2.71-.41,52.17-.56,85.13-.1,86.55.38,1.18.99,2.02,1.64,2.71,1.4,1.48,3.09,2.02,3.96,2.23,40.26.22,85.34.26,86.11,0,1.49-.51,2.43-1.4,2.9-1.84,0,0,1.51-1.19,2.13-3,.12-.36.02-45.46,0-86.84ZM678.55,440.88c-.6,1.76-2.07,2.92-2.07,2.92-.45.43-1.38,1.29-2.82,1.79-.74.26-44.66.21-83.89,0-.85-.2-2.49-.72-3.86-2.17-.63-.67-1.23-1.49-1.6-2.64-.45-1.38-.3-33.44.09-84.17.17-.64.52-1.64,1.32-2.64,1.35-1.68,3.09-2.26,3.77-2.45,28.18-.03,56.37-.06,84.55-.09.65.3,1.67.86,2.64,1.88,1.11,1.17,1.64,2.4,1.88,3.11.02,40.24.12,84.1,0,84.45Z"/>
              <path class="st20" d="M678.55,440.88c-.6,1.76-2.07,2.92-2.07,2.92-.45.43-1.38,1.29-2.82,1.79-.74.26-44.66.21-83.89,0-.85-.2-2.49-.72-3.86-2.17-.63-.67-1.23-1.49-1.6-2.64-.45-1.38-.3-33.44.09-84.17.17-.64.52-1.64,1.32-2.64,1.35-1.68,3.09-2.26,3.77-2.45,28.18-.03,56.37-.06,84.55-.09.65.3,1.67.86,2.64,1.88,1.11,1.17,1.64,2.4,1.88,3.11.02,40.24.12,84.1,0,84.45Z"/>
              <g>
                <path class="st25" d="M631.36,369.62h-24.5c-.49.06-1.7.26-2.78,1.06-1.46,1.08-1.62,2.47-1.65,2.8v24.72h25.22c.65-.14,1.81-.47,2.67-1.45.9-1.01,1.07-2.25,1.14-3.04.23-2.69.23-11.81-.1-24.1Z"/>
                <path class="st10" d="M623.02,406.92c-5.6,0-11.2,0-16.8,0-.78.1-2.07.39-2.94,1.42-.62.74-.78,1.57-.85,2.09-.3,2.02-.38,8.39-.14,16.98,5.58,0,11.16,0,16.75,0,.71-.16,2.01-.56,2.94-1.71.78-.97.96-2.04,1.04-2.75.3-2.56.34-8.4,0-16.03Z"/>
                <path class="st16" d="M642.61,406.91h-7.14c-.42.07-1.45.29-2.4,1.14-1.08.97-1.37,2.15-1.45,2.55v17.02h6.68c.49-.11,1.69-.46,2.75-1.53,1.1-1.11,1.42-2.35,1.52-2.85.01-5.44.03-10.88.04-16.32Z"/>
                <path class="st26" d="M660.49,406.9h-7.14c-.42.07-1.45.29-2.4,1.14-1.08.97-1.37,2.15-1.45,2.55v17.02h6.68c.49-.11,1.69-.46,2.75-1.53,1.1-1.11,1.42-2.35,1.52-2.85.01-5.44.03-10.88.04-16.32Z"/>
                <path class="st18" d="M660.46,398.46l-.06-7.14c-.07-.42-.3-1.45-1.16-2.39-.98-1.07-2.16-1.35-2.56-1.43-5.67.05-11.34.1-17.02.14l.06,6.67c.12.49.47,1.68,1.56,2.73,1.12,1.09,2.37,1.4,2.86,1.49,5.44-.03,10.88-.06,16.32-.1Z"/>
                <path class="st21" d="M660.46,380.54l-.06-7.14c-.07-.42-.3-1.45-1.16-2.39-.98-1.07-2.16-1.35-2.56-1.43-5.67.05-11.34.1-17.02.14l.06,6.67c.12.49.47,1.68,1.56,2.73,1.12,1.09,2.37,1.4,2.86,1.49,5.44-.03,10.88-.06,16.32-.1Z"/>
              </g>
            </g>
          </g>
        </g>
      </g>
      <g>
        <path class="st29" d="M685.64,320.92c0,.66-.13,1.45-.3,2.19-.21.89-.46,1.72-.59,2.19-1.18,4.35,1.85,3.47,1.2,8.86-.4,3.25-21.04,40.98-19.83,50.97.8,6.54,7.41,13.1,7.7,19.63-2.18.18-4.35.34-6.52.47-.72.04-1.44.08-2.17.12h-.01s-.01,0-.02,0h-.01c-4.17.21-8.33.33-12.49.38-2.62.03-5.24.04-7.86.03-.51,0-1.03,0-1.54-.01-5.39-.04-10.78-.16-16.18-.29-1.41-.03-2.82-.07-4.24-.1h-.07c-3.83-.09-7.66-.18-11.49-.25-.37,0-.74-.01-1.11-.02,0-.01,0-.03,0-.04-.1-1.5-.2-3.01-.31-4.53,0-.05,0-.1-.01-.15-.35-5-.73-10.1-1.04-15.21-.25-4.22-.46-8.45-.56-12.64,0,0,0-.02,0-.02-.02-.76-.04-1.51-.05-2.26-.04-2.58-.04-5.15.02-7.69.01-.55.03-1.11.05-1.66.01-.31.02-.62.03-.93.02-.54.04-1.08.07-1.62.01-.27.03-.55.04-.82.02-.41.05-.82.07-1.23.03-.41.06-.82.08-1.22,0-.02,0-.03,0-.05.04-.53.08-1.06.13-1.59,0-.02,0-.04,0-.06.03-.31.05-.62.08-.93.03-.38.06-.75.08-1.12.03-.39.05-.78.07-1.16.02-.3.03-.6.04-.9.01-.26.02-.52.03-.77.22-7.05-.57-12.81-2.22-19.47-.28-1.19-.58-2.42-.91-3.7-2.47-9.7-4.04-19.66-4.68-29.71,0,0,0,0,0,0,0-.1,0-.19,0-.28-.02-.62-.04-1.1-.05-1.47.13-1.27.16-2,.2-2.53.15-.81.36-1.63.65-2.46.18-.44.42-1,.73-1.74.09-.2.16-.38.24-.55.5-1.14.71-1.42,1.09-1.98.34-.49.81-1.2,1.73-2.9.19-.34.39-.73.62-1.16,2.04-3.9,6.9-10.81,11.05-16.07.03-.03.05-.06.08-.1,1.51-1.91,2.91-3.59,4.06-4.83.27-.3.53-.58.78-.85,0,0,.02-.02.03-.03.07-.07.13-.15.2-.22.07-.08.14-.16.21-.23.01-.02.03-.03.04-.05,1.53-1.71,2.63-3.04,3.63-4.28,0,0,0,0,0,0,.39-.48.76-.95,1.14-1.42,0,0,.01-.02.02-.02.53-.66,1.07-1.34,1.68-2.07.07-.08.14-.17.22-.26.19-.23.38-.46.59-.7.09-.11.18-.21.27-.31.04-.04.08-.09.12-.13.02-.02.03-.04.05-.06.14-.16.27-.31.39-.44.02-.02.03-.04.05-.06.02-.03.05-.05.07-.08.02-.03.05-.05.07-.07.03-.03.06-.06.08-.09.69-.72,1.36-1.27,2.05-1.72.44-.26.94-.5,1.63-.87.27-.11.54-.22.82-.33.59-.14,1.29-.27,2.15-.44.06-.01.13-.03.19-.04h0s.03,0,.04,0c.47-.07.9-.13,1.31-.18h0c1.94.04,3.58.34,5.3,1.37.13.08.26.16.4.25.11.08.23.15.34.24.09.06.18.13.27.2,1.7,1.28,2.93,2.79,3.66,4.42.06.14.12.28.17.42,0,0,0,0,0,.01.97,2.53.75,5.33-.78,8,0,0,0,0,0,0,0,0,0,0,0,0,0,0-.01.02-.02.03-.36.62-.79,1.23-1.29,1.83-.17.2-.32.43-.56.62,0,0,0,0-.01.01-.04.04-.09.07-.14.1-.12.08-.2.23-.29.38t0,0h0c-.07.1-.14.2-.23.25,0,0,0,0,0,0-.14.08-.34.09-.64-.06.12.14.22.27.33.4h0c1.86,2.3,1.78,2.76,2.83,4.32.46.69,1.14,1.59,2.29,2.96.17.21.35.42.54.63h0c1.06,1.21,2.3,2.54,3.67,3.9.14.14.28.28.43.42,0,0,0,0,0,0,2.18,2.15,4.62,4.37,7.04,6.39.05.04.09.08.14.11,1.55,1.28,3.09,2.48,4.55,3.51.16.11.32.23.48.34,1.32,2.24,1.28,1.95,1.94,3.22.2.39.47.93.86,1.72,1.2,2.44,2.02,4.08,3.17,6.78.03.07.06.14.09.21.43,1.01.92,2.18,1.49,3.59.6,1.48,1.37,3.25,2.26,5.16,1.29,2.77,2.82,5.82,4.38,8.66.02.03.04.07.06.1,1.2,2.17,2.42,4.2,3.57,5.88Z"/>
        <path class="st31" d="M688.22,526.54h-98.09v-117.23c-.01-2.19,1.76-3.97,3.94-3.97h28.63s.12,0,.12,0h17.51s24.75,0,24.75,0h18.13s1.03,0,1.03,0c2.19,0,3.96,1.77,3.96,3.96l.02,117.24Z"/>
        <circle class="st20" cx="603.8" cy="425.77" r="3.69"/>
        <circle class="st20" cx="603.8" cy="443.16" r="3.69"/>
        <path class="st12" d="M683.2,388.15v17.19s-88.1.01-88.1.01v-17.19c0-1.67,1.35-3.02,3.02-3.02h82.06c1.67-.01,3.02,1.34,3.02,3.01Z"/>
        <path class="st30" d="M673.52,208.27v190.02c0,9.58-7.77,17.34-17.34,17.34s-17.34-7.77-17.34-17.34v-190.02h34.69Z"/>
        <path class="st40" d="M605.81,325.29c.32,1.28.63,2.5.91,3.7,1.58,6.75,2.43,12.4,2.22,19.47,0,.26-.02.51-.03.77-.01.3-.03.6-.04.9-.02.38-.04.77-.07,1.16-.02.37-.05.74-.08,1.12-.02.31-.05.62-.08.93,0,.02,0,.04,0,.06-.05.53-.09,1.06-.13,1.59,0,.02,0,.03,0,.05-.03.41-.06.81-.08,1.22-.03.41-.05.82-.07,1.23-.01.27-.03.55-.04.82-.03.54-.05,1.08-.07,1.62-.01.31-.02.62-.03.93-.02.55-.03,1.11-.05,1.66-.06,2.54-.06,5.11-.02,7.69.01.75.03,1.51.05,2.26,0,0,0,.02,0,.02.11,4.19.31,8.42.57,12.63,0,0,30.09,0,30.09,0-1.42-13.62,6.29-32.54,7.07-45.99.39-6.61.47-13.39-3-19.17-2.37-3.94-5.3-7.42-8.33-10.06-.43-.38-6.18-8.06-6.18-8.06,0,0-.32-17.02,4.03-22.94,4.29-5.83,8.16-10.2,12.21-14.6.4-.43.79-.86,1.2-1.29.1-.11.21-.22.31-.34,0,0,0,0,0,0,.04-.04.08-.09.13-.14l.1-.1h.01s0-.02,0-.02c.15-.16.29-.32.43-.48.75-.85,1.37-1.67,1.87-2.46,0,0,.01-.02.02-.03,0,0,0,0,0,0,0,0,0,0,0,0,0,0,.01-.02.02-.02.03-.04.05-.08.08-.12,1.36-2.24,1.75-4.25,1.29-6.2-.13-.55-.33-1.1-.59-1.65,0,0,0-.01,0-.01-.68-1.4-1.78-2.8-3.26-4.25-.18-.18-.37-.35-.56-.53-.1-.09-.19-.18-.29-.26-.11-.08-.23-.16-.34-.24-.13-.09-.26-.17-.4-.25-1.72-1.03-3.36-1.33-5.3-1.37h0c-.41.05-.85.11-1.31.18-.01,0-.03,0-.04,0h0c-.06.01-.13.02-.19.04-.86.17-1.55.3-2.15.44-.29.1-.56.21-.82.33-.69.37-1.19.62-1.63.87-.69.45-1.35,1-2.05,1.72-.39.42-.81.91-1.28,1.47,0,0,0,0,0,0-.01.02-.03.04-.04.05-.86,1.02-1.56,1.88-2.26,2.74,0,0-.01.02-.02.02-.28.35-.57.69-.86,1.05,0,0,0,.01-.01.02-.94,1.15-1.97,2.39-3.42,4.06-.02.03-.04.05-.07.08-.22.25-.45.52-.69.79-.06.07-.13.15-.19.22,0,0-.02.02-.03.03-.18.21-.38.43-.57.66-.01.02-.03.03-.04.05-.09.11-.19.21-.28.32-4.46,5.07-12.07,14.97-15.64,21.92-.02.02-.03.04-.04.05-.33.41-.18.22-.27.37-.49.84-.98,1.68-1.46,2.53-.37.66-.74,1.32-1.09,1.98-.08.15-.16.3-.24.45-.27.62-.52,1.23-.72,1.84-.28.83-.5,1.66-.65,2.46-.03.53-.07,1.26-.2,2.53.01.37.03.85.05,1.47,0-.06-.01-.11-.02-.17,0,.15.02.3.03.45,0,0,0,0,0,0,.64,10.05,2.21,20.01,4.68,29.71Z"/>
        <g>
          <path class="st27" d="M652.78,286.85c-4.63,2.04-10.11.13-12.45-4.43-2.42-4.74-.55-10.54,4.19-12.96l22.48-11.5c4.74-2.42,10.54-.55,12.96,4.19,2.42,4.74.55,10.54-4.19,12.96l-22.48,11.5c-.17.09-.34.17-.51.24Z"/>
          <path class="st11" d="M650.08,270.42l-3.49,1.78c-3,1.53-4.28,5.21-2.75,8.22,1.47,2.89,4.93,4.1,7.87,2.81.11-.05.22-.1.32-.15l3.59-1.84.15-.47c1.47-4.45-1.15-9.21-5.69-10.36h0Z"/>
          <path class="st37" d="M679.96,262.14l-39.62,20.27c2.34,4.57,7.81,6.47,12.45,4.43.17-.08.34-.16.51-.24l22.48-11.5c4.73-2.42,6.61-8.23,4.19-12.96Z"/>
        </g>
        <g>
          <path class="st27" d="M657.33,305.96c-4.63,2.04-10.11.13-12.45-4.43-2.42-4.74-.55-10.54,4.19-12.96l24.28-12.41c4.73-2.42,10.54-.55,12.96,4.19,2.42,4.74.55,10.54-4.19,12.96l-24.28,12.41c-.17.09-.34.17-.51.24Z"/>
          <path class="st11" d="M654.53,289.56l-3.49,1.78c-3,1.53-4.28,5.21-2.75,8.22,1.47,2.89,4.93,4.1,7.87,2.81.11-.05.22-.1.32-.15l3.59-1.83.15-.47c1.47-4.45-1.15-9.21-5.69-10.36h0Z"/>
          <path class="st37" d="M686.31,280.35l-41.44,21.19c2.34,4.57,7.81,6.47,12.45,4.43.17-.08.34-.16.51-.24l24.29-12.42c4.73-2.42,6.61-8.23,4.19-12.96Z"/>
        </g>
        <g>
          <path class="st27" d="M687.06,312.48l-22.81,11.67c-.17.09-.35.17-.52.25-4.7,2.07-10.26.14-12.63-4.5,0-.02-.02-.03-.02-.05-2.42-4.8-.52-10.65,4.27-13.1l22.81-11.67c4.78-2.45,10.65-.57,13.13,4.2,0,.02.02.03.02.05,2.46,4.8.56,10.69-4.25,13.15Z"/>
          <path class="st11" d="M660.54,308.19l-3.49,1.78c-3,1.53-4.28,5.21-2.75,8.22,1.47,2.89,4.93,4.1,7.87,2.81.11-.05.22-.1.32-.15l3.59-1.84.15-.47c1.47-4.45-1.15-9.21-5.69-10.36h0Z"/>
          <path class="st37" d="M687.06,312.48l-22.81,11.67c-.17.09-.35.17-.52.25-4.7,2.07-10.26.14-12.63-4.5,0-.02-.02-.03-.02-.05l40.2-20.57s.02.03.02.05c2.46,4.8.56,10.69-4.25,13.15Z"/>
        </g>
        <g>
          <path class="st27" d="M687.41,332.28l-14.77,7.56c-.16.08-.33.16-.49.23-4.4,1.94-9.6.16-11.86-4.14-.02-.03-.03-.06-.05-.1-2.32-4.53-.52-10.09,4.01-12.41l14.77-7.56c4.53-2.32,10.09-.52,12.41,4.01.02.03.03.07.05.1,2.24,4.51.44,10-4.06,12.31Z"/>
          <path class="st11" d="M668.86,325.38l-3.15,1.61c-2.71,1.39-3.86,4.71-2.48,7.42,1.33,2.61,4.45,3.7,7.1,2.54.1-.04.2-.09.29-.14l3.24-1.66.14-.42c1.33-4.02-1.03-8.32-5.14-9.35h0Z"/>
          <path class="st37" d="M687.41,332.28l-14.77,7.56c-.16.08-.33.16-.49.23-4.4,1.94-9.6.16-11.86-4.14l31.19-15.96c2.24,4.51.44,10-4.06,12.31Z"/>
        </g>
        <path class="st40" d="M648.79,259.29s-.05.08-.08.12c0,0-.01.02-.02.03,0,0,0,0,0,0,0,0-.01.02-.02.03-.5.8-1.11,1.61-1.85,2.45-.14.16-.29.33-.44.49t0,0h0s-.01.01-.01.01l-.1.1s-.09.09-.13.14c-.1.11-.21.22-.31.34-.4.43-.79.86-1.19,1.29-8.86,9.6-18.44,20.92-23.99,32.68-.39.82-.7,1.49-1.1,1.96-3.27,3.82-7.69,7.53-12.94,4.38-3.29-1.97-5.09-4.78-5.5-8.04-.02-.62-.04-1.1-.05-1.47.13-1.27.16-2,.2-2.53.15-.81.36-1.63.65-2.46.2-.61.45-1.22.72-1.84.01-.03.03-.06.04-.1,2.95-6.54,9.52-15.97,14.69-22.46.03-.03.05-.06.08-.1,1.32-1.65,2.54-3.11,3.59-4.27.22-.24.43-.48.63-.71.01-.02.03-.03.04-.05.28-.32.55-.62.8-.91.07-.08.14-.16.21-.23.01-.02.03-.03.04-.05,1.16-1.32,2.02-2.33,2.74-3.21.03-.04.07-.08.1-.12.39-.47.74-.9,1.07-1.32,0,0,0-.01.01-.02.81-1.01,1.55-1.94,2.56-3.14.07-.08.14-.17.22-.26.09-.11.18-.21.27-.32.16-.19.31-.37.46-.54,0,0,0,0,0,0,.31-.36.6-.69.87-.98.03-.03.06-.06.08-.09.69-.72,1.36-1.27,2.05-1.72.44-.26.94-.5,1.63-.87.27-.11.54-.22.82-.33.59-.14,1.29-.27,2.15-.44.06-.01.13-.03.19-.04h0s.03,0,.04,0c.47-.07.9-.13,1.31-.18h0c1.94.04,3.58.34,5.3,1.37.13.08.26.16.4.25.2.16.4.33.61.51.2.17.39.34.58.52,1.37,1.27,2.41,2.54,3.09,3.83.36.69.62,1.38.77,2.08.43,1.97.03,4.01-1.29,6.2Z"/>
        <path class="st11" d="M637.98,244.72c-.46,2.89-1.72,5.42-3.64,7.53-3.06,3.36-7.14,6.53-11.84,6.16,0,0,0,0,0,0h0s-.01,0-.02,0c.23-.26.46-.52.7-.79.02-.03.05-.05.07-.08.73-.83,1.49-1.72,2.25-2.63.03-.04.07-.08.1-.12.27-.32.53-.63.79-.95,0,0,0,0,0,0,1.22-1.47,2.41-2.94,3.42-4.18.02-.02.03-.04.04-.05,0,0,0,0,0,0,.07-.08.14-.17.2-.25.04-.05.08-.1.12-.15,0,0,0,0,0,0,.04-.05.08-.09.11-.14.04-.04.08-.09.12-.13.02-.02.03-.04.05-.06.13-.15.26-.3.39-.44.02-.02.03-.04.05-.06.02-.03.05-.05.07-.08.02-.03.05-.05.07-.07.03-.03.06-.06.08-.09.69-.72,1.36-1.27,2.05-1.72.44-.26.94-.5,1.63-.87.27-.11.54-.22.82-.33.59-.14,1.29-.27,2.15-.44.06-.01.13-.03.19-.04Z"/>
        <path class="st5" d="M673.52,208.27v22.58c-5.64.93-11.44,1.42-17.34,1.42s-11.7-.49-17.34-1.42v-22.58h34.69Z"/>
        <circle class="st46" cx="656.18" cy="126.77" r="95.01"/>
        <path class="st3" d="M727.4,63.88c4.39,11.51,6.8,23.99,6.8,37.04,0,57.36-46.5,103.87-103.87,103.87-13.05,0-25.54-2.41-37.04-6.8,16.75,14.8,38.77,23.79,62.89,23.79,52.47,0,95.01-42.54,95.01-95.01,0-24.12-8.99-46.13-23.79-62.89Z"/>
        <polygon class="st20" points="637.62 181.8 594.04 138.22 613.63 118.64 637.62 142.64 698.73 81.53 718.31 101.11 637.62 181.8"/>
        <path class="st29" d="M638.83,385.13c-.85-8.1,1.54-18.07,3.77-27.65l-18.75,27.65h14.97Z"/>
      </g>
    </g>
  </g>
</svg>