<?xml version="1.0" encoding="UTF-8"?>
<svg xmlns="http://www.w3.org/2000/svg" version="1.1" xmlns:xlink="http://www.w3.org/1999/xlink" viewBox="0 0 669.18 900">
  <!-- Generator: Adobe Illustrator 30.2.1, SVG Export Plug-In . SVG Version: 2.1.1 Build 1)  -->
  <defs>
    <style>
      .st0 {
        opacity: .6;
      }

      .st1 {
        stroke: #974782;
        stroke-width: .07px;
      }

      .st1, .st2, .st3, .st4 {
        fill: none;
        stroke-miterlimit: 10;
      }

      .st5 {
        fill: #128af4;
      }

      .st6 {
        filter: url(#drop-shadow-2);
      }

      .st7 {
        fill: #fd8e92;
      }

      .st7, .st8, .st9 {
        mix-blend-mode: multiply;
      }

      .st10 {
        fill: #9c5088;
      }

      .st11 {
        fill: #37bffa;
      }

      .st2 {
        stroke: #fd9094;
        stroke-width: .07px;
      }

      .st12 {
        filter: url(#drop-shadow-6);
      }

      .st13 {
        fill: #263238;
      }

      .st8 {
        fill: url(#linear-gradient1);
      }

      .st14 {
        fill: #19d3bb;
      }

      .st15 {
        fill: #fbb842;
      }

      .st16 {
        opacity: .3;
      }

      .st17 {
        fill: #fa494d;
      }

      .st18 {
        fill: #a35c90;
      }

      .st19 {
        filter: url(#drop-shadow-5);
      }

      .st20 {
        fill: #fff;
      }

      .st21 {
        fill: #fc888d;
      }

      .st22 {
        fill: #3ec1fa;
      }

      .st23 {
        fill: #e0e0e0;
      }

      .st24 {
        fill: #a0578d;
      }

      .st25 {
        fill: #455a64;
      }

      .st26 {
        fill: #ac0340;
      }

      .st27 {
        fill: #f96631;
      }

      .st28 {
        filter: url(#drop-shadow-4);
      }

      .st29 {
        filter: url(#drop-shadow-7);
      }

      .st30 {
        fill: #9a4d86;
      }

      .st31 {
        fill: #1fac8a;
      }

      .st32 {
        filter: url(#drop-shadow-1);
      }

      .st33 {
        isolation: isolate;
      }

      .st3, .st4 {
        stroke: #95999f;
        stroke-width: .82px;
      }

      .st34 {
        fill: #a0568c;
      }

      .st35 {
        fill: #13d2b9;
      }

      .st36 {
        fill: #40c2fa;
      }

      .st37 {
        fill: #fcbb4b;
      }

      .st38 {
        fill: #fa4e52;
      }

      .st4 {
        stroke-dasharray: 6.97 6.97;
      }

      .st39 {
        fill: #3d5593;
      }

      .st40 {
        fill: #ff9a6c;
      }

      .st41 {
        filter: url(#drop-shadow-3);
      }

      .st42 {
        fill: #ccc;
      }

      .st43 {
        fill: #ffc09d;
      }

      .st9 {
        fill: #28d6bf;
      }

      .st44 {
        fill: url(#linear-gradient);
      }
    </style>
    <filter id="drop-shadow-1" x="305.64" y="25.7" width="81" height="81" filterUnits="userSpaceOnUse">
      <feOffset dx="2.36" dy="2.36"/>
      <feGaussianBlur result="blur" stdDeviation="1.77"/>
      <feFlood flood-color="#757575" flood-opacity=".65"/>
      <feComposite in2="blur" operator="in"/>
      <feComposite in="SourceGraphic"/>
    </filter>
    <filter id="drop-shadow-2" x="401.64" y="34.7" width="100" height="100" filterUnits="userSpaceOnUse">
      <feOffset dx="2.36" dy="2.36"/>
      <feGaussianBlur result="blur1" stdDeviation="1.77"/>
      <feFlood flood-color="#757575" flood-opacity=".65"/>
      <feComposite in2="blur1" operator="in"/>
      <feComposite in="SourceGraphic"/>
    </filter>
    <filter id="drop-shadow-3" x="193.64" y="34.7" width="99" height="98" filterUnits="userSpaceOnUse">
      <feOffset dx="2.36" dy="2.36"/>
      <feGaussianBlur result="blur2" stdDeviation="1.77"/>
      <feFlood flood-color="#757575" flood-opacity=".65"/>
      <feComposite in2="blur2" operator="in"/>
      <feComposite in="SourceGraphic"/>
    </filter>
    <filter id="drop-shadow-4" x="97.64" y="76.7" width="105" height="105" filterUnits="userSpaceOnUse">
      <feOffset dx="2.36" dy="2.36"/>
      <feGaussianBlur result="blur3" stdDeviation="1.77"/>
      <feFlood flood-color="#757575" flood-opacity=".65"/>
      <feComposite in2="blur3" operator="in"/>
      <feComposite in="SourceGraphic"/>
    </filter>
    <filter id="drop-shadow-5" x="487.64" y="81.7" width="103" height="103" filterUnits="userSpaceOnUse">
      <feOffset dx="2.36" dy="2.36"/>
      <feGaussianBlur result="blur4" stdDeviation="1.77"/>
      <feFlood flood-color="#757575" flood-opacity=".65"/>
      <feComposite in2="blur4" operator="in"/>
      <feComposite in="SourceGraphic"/>
    </filter>
    <linearGradient id="linear-gradient" x1="542.6" y1="1484.01" x2="584.26" y2="1484.01" gradientTransform="translate(503.73 -1483.28) rotate(33.33)" gradientUnits="userSpaceOnUse">
      <stop offset="0" stop-color="#f88c29"/>
      <stop offset="1" stop-color="#f85d25"/>
    </linearGradient>
    <linearGradient id="linear-gradient1" x1="564.57" y1="1504.83" x2="564.57" y2="1468.03" gradientTransform="translate(503.73 -1483.28) rotate(33.33)" gradientUnits="userSpaceOnUse">
      <stop offset="0" stop-color="#f96631"/>
      <stop offset="1" stop-color="#f85d25"/>
    </linearGradient>
    <filter id="drop-shadow-6" x="25.02" y="145.31" width="106" height="106" filterUnits="userSpaceOnUse">
      <feOffset dx="2.36" dy="2.36"/>
      <feGaussianBlur result="blur5" stdDeviation="1.77"/>
      <feFlood flood-color="#757575" flood-opacity=".65"/>
      <feComposite in2="blur5" operator="in"/>
      <feComposite in="SourceGraphic"/>
    </filter>
    <filter id="drop-shadow-7" x="557.64" y="144.7" width="106" height="107" filterUnits="userSpaceOnUse">
      <feOffset dx="2.36" dy="2.36"/>
      <feGaussianBlur result="blur6" stdDeviation="1.77"/>
      <feFlood flood-color="#757575" flood-opacity=".65"/>
      <feComposite in2="blur6" operator="in"/>
      <feComposite in="SourceGraphic"/>
    </filter>
  </defs>
  <g class="st33">
    <g id="Capa_1">
      <path class="st3" d="M195.08,179.29c8.35-8.92,60.54-62.8,144.66-62.16,82.41.62,133.21,53.09,141.71,62.16"/>
      <g>
        <path class="st3" d="M195.08,195.78c.59-.63,1.41-1.5,2.44-2.55"/>
        <path class="st4" d="M202.51,188.36c18.61-17.48,66.7-55.27,137.23-54.75,72.46.54,120.48,41.17,136.8,57.15"/>
        <path class="st3" d="M479.01,193.23c1.02,1.05,1.84,1.91,2.44,2.55"/>
      </g>
      <path class="st3" d="M195.08,212.28c8.35-8.92,60.54-62.8,144.66-62.16,82.41.62,133.21,53.09,141.71,62.16"/>
      <g class="st32">
        <path class="st42" d="M378.33,32.82c-.17-.52-.55-1.42-1.35-2.28-.7-.75-1.43-1.17-1.91-1.39-20.52-.15-41.05-.31-61.57-.46-.5.13-1.77.54-2.76,1.76-.58.72-.85,1.45-.98,1.91-.61,37.01-.91,60.4-.59,61.41.27.84.69,1.44,1.15,1.93.99,1.06,2.18,1.45,2.8,1.6,28.57.4,60.55.7,61.09.52,1.06-.35,1.74-.98,2.07-1.29,0,0,1.08-.84,1.53-2.12.09-.26.29-32.25.53-61.61ZM376.93,93.58c-.44,1.24-1.49,2.06-1.49,2.06-.32.3-.98.91-2.02,1.25-.53.18-31.69-.12-59.52-.51-.6-.15-1.76-.53-2.73-1.56-.45-.48-.86-1.06-1.12-1.88-.31-.98-.01-23.73.58-59.72.12-.45.38-1.16.95-1.86.96-1.19,2.2-1.59,2.69-1.71,20,.15,39.99.3,59.99.45.46.22,1.18.62,1.86,1.35.78.84,1.15,1.71,1.32,2.22-.23,28.55-.43,59.67-.51,59.92Z"/>
        <path class="st20" d="M376.93,93.58c-.44,1.24-1.49,2.06-1.49,2.06-.32.3-.98.91-2.02,1.25-.53.18-31.69-.12-59.52-.51-.6-.15-1.76-.53-2.73-1.56-.45-.48-.86-1.06-1.12-1.88-.31-.98-.01-23.73.58-59.72.12-.45.38-1.16.95-1.86.96-1.19,2.2-1.59,2.69-1.71,20,.15,39.99.3,59.99.45.46.22,1.18.62,1.86,1.35.78.84,1.15,1.71,1.32,2.22-.23,28.55-.43,59.67-.51,59.92Z"/>
        <g>
          <path class="st18" d="M368.12,54.7l-.19,22.68c0,.17-.03,1.28-.96,2.08-.94.82-2.06.68-2.23.65l-45.58-.41.22-25.42,48.75.42Z"/>
          <path class="st2" d="M368.08,59.24l-.16,18.14c0,.17-.03,1.28-.96,2.08-.94.82-2.06.68-2.23.65l-45.58-.41.18-20.57s.02.06.03.09c.18.5.46,1.16,1.06,1.76.71.71,1.52,1.02,2.01,1.16,14.15.14,28.3.28,42.45.42.68-.15,1.75-.51,2.47-1.45.48-.63.66-1.32.72-1.87Z"/>
          <path class="st9" d="M368.19,46.81l-.11,12.43c-.07.55-.24,1.24-.72,1.87-.72.94-1.79,1.3-2.47,1.45-14.15-.14-28.3-.28-42.45-.42-.49-.14-1.3-.45-2.01-1.16-.6-.6-.88-1.26-1.06-1.76-.01-.03-.02-.06-.03-.09l.08-9.5c0-.25-.02-1.21.69-2.08.83-1.02,2.02-1.11,2.22-1.13l45.86.39Z"/>
        </g>
      </g>
      <g class="st6">
        <g>
          <path class="st42" d="M493.2,67.86c.05-.55.06-1.52-.34-2.64-.35-.97-.86-1.65-1.21-2.04-18.86-8.28-37.72-16.56-56.57-24.84-.51-.08-1.84-.2-3.24.53-.82.43-1.36,1-1.66,1.38-15.23,33.87-24.79,55.3-24.9,56.36-.09.88.07,1.6.29,2.24.49,1.37,1.43,2.2,1.94,2.59,26.17,11.69,55.53,24.66,56.1,24.71,1.12.09,1.99-.21,2.42-.37,0,0,1.32-.35,2.25-1.34.18-.2,13.06-29.61,24.92-56.58ZM467.81,123.3c-.9.97-2.19,1.31-2.19,1.31-.42.15-1.27.45-2.35.35-.56-.05-29.16-12.68-54.66-24.07-.5-.38-1.42-1.18-1.89-2.52-.22-.62-.37-1.32-.29-2.18.1-1.03,9.4-21.87,24.21-54.82.29-.37.81-.92,1.62-1.34,1.36-.71,2.66-.59,3.16-.51,18.37,8.07,36.74,16.13,55.12,24.2.34.38.84,1.04,1.18,1.98.39,1.08.38,2.03.34,2.57-11.53,26.23-24.05,54.83-24.23,55.03Z"/>
          <path class="st20" d="M467.81,123.3c-.9.97-2.19,1.31-2.19,1.31-.42.15-1.27.45-2.35.35-.56-.05-29.16-12.68-54.66-24.07-.5-.38-1.42-1.18-1.89-2.52-.22-.62-.37-1.32-.29-2.18.1-1.03,9.4-21.87,24.21-54.82.29-.37.81-.92,1.62-1.34,1.36-.71,2.66-.59,3.16-.51,18.37,8.07,36.74,16.13,55.12,24.2.34.38.84,1.04,1.18,1.98.39,1.08.38,2.03.34,2.57-11.53,26.23-24.05,54.83-24.23,55.03Z"/>
          <path class="st1" d="M464,103.61"/>
        </g>
        <g>
          <path class="st22" d="M447.42,68.5l-.8,1.81c-.48-.39-.81-.76-.73-1.19.07-.38.43-.64.69-.73.28-.1.57-.03.84.11Z"/>
          <path class="st22" d="M447.16,73.44c.02.52-.34,1.1-.76,1.22-.19.05-.28-.03-.96-.35l.84-1.91c.49.3.86.61.88,1.05Z"/>
          <path class="st22" d="M450.36,62.59c-4.87-2.14-10.55.06-12.69,4.93-2.14,4.87.06,10.55,4.93,12.69,4.87,2.14,10.55-.06,12.69-4.93,2.14-4.87-.06-10.55-4.93-12.69ZM449.09,75.1c-.37.57-.92.81-1.14.9-.9.39-2.1.29-3.2-.13l-.44,1-.49-.21.44-1c-1.01-.5-1.87-1.29-2.19-2.24-.21-.61-.25-1.51.07-1.67.08-.04,1.82.76,1.89.91.17.34-.12.55.04.91.1.21.26.26.87.53l.87-1.96c-.84-.47-1.83-1.02-2.18-2.08-.26-.79-.09-1.71.37-2.35.78-1.07,2.22-1.07,2.61-1.07.51,0,1.02.11,1.49.29l.36-.81.49.21-.36.82c.89.48,1.6,1.26,1.87,2.14.03.09.45,1.4-.12,1.72-.19.11-1.65-.49-1.71-.75-.03-.13.03-.18.01-.36-.03-.26-.17-.44-.27-.56-.04-.04-.24-.29-.52-.53l-.81,1.84c.97.71,2.22,1.53,2.38,2.84.02.15.11.92-.34,1.62Z"/>
          <circle class="st39" cx="460.98" cy="86.32" r="4.73"/>
          <path class="st11" d="M448.82,102.18l-16.85-7.42c-.76-.68-5.03-4.59-4.87-10.45.06-2.15.7-3.89,1.27-5.05l16.02,7.05c2.17,1.78,4.81,4.77,5.37,9.08.37,2.9-.33,5.31-.93,6.78Z"/>
          <path class="st39" d="M463.9,98.97l-2.26,5.13c-.2.32-.72,1.06-1.71,1.54-1.09.52-2.08.42-2.45.36l-8.66-3.81c.6-1.47,1.3-3.89.93-6.78-.56-4.31-3.2-7.3-5.37-9.08l17.73,7.81c.29.17,1.31.83,1.78,2.19.44,1.26.12,2.33,0,2.66Z"/>
          <path class="st20" d="M449.44,73.48c-.15-1.31-1.4-2.13-2.38-2.84l.81-1.84c.28.24.48.48.52.53.1.12.24.3.27.56.02.19-.04.23-.01.36.06.27,1.52.86,1.71.75.56-.32.15-1.63.12-1.72-.28-.88-.98-1.65-1.87-2.14l.36-.82-.49-.21-.36.81c-.47-.19-.98-.29-1.49-.29-.39,0-1.83,0-2.61,1.07-.46.63-.63,1.55-.37,2.35.35,1.07,1.34,1.61,2.18,2.08l-.87,1.96c-.62-.27-.78-.32-.87-.53-.16-.35.13-.56-.04-.91-.07-.14-1.81-.95-1.89-.91-.32.16-.28,1.06-.07,1.67.32.95,1.17,1.74,2.19,2.24l-.44,1,.49.21.44-1c1.1.42,2.3.52,3.2.13.21-.09.76-.33,1.14-.9.45-.7.36-1.47.34-1.62ZM445.89,69.12c.07-.38.43-.64.69-.73.28-.1.57-.03.84.11l-.8,1.81c-.48-.39-.81-.76-.73-1.19ZM446.41,74.66c-.19.05-.28-.03-.96-.35l.84-1.91c.49.3.86.61.88,1.05.02.52-.34,1.1-.76,1.22Z"/>
        </g>
      </g>
      <g class="st41">
        <path class="st42" d="M262.33,39.97c-.35-.43-1.02-1.15-2.09-1.68-.93-.46-1.77-.6-2.3-.64-19.5,7.14-39,14.27-58.5,21.41-.42.3-1.48,1.14-1.99,2.65-.3.89-.29,1.67-.25,2.16,12.55,35.28,20.56,57.54,21.22,58.39.55.7,1.17,1.12,1.77,1.42,1.31.66,2.58.6,3.22.53,27.21-9.76,57.62-20.81,58.07-21.18.88-.71,1.3-1.54,1.5-1.95,0,0,.72-1.18.7-2.55,0-.27-11.17-30.66-21.36-58.56ZM282.55,98.03c.03,1.33-.68,2.48-.68,2.48-.2.4-.61,1.21-1.47,1.9-.44.35-30.07,11.13-56.57,20.63-.62.07-1.86.13-3.14-.51-.59-.29-1.19-.7-1.73-1.38-.64-.82-8.43-22.47-20.64-56.78-.04-.47-.05-1.24.24-2.1.49-1.47,1.52-2.28,1.94-2.58,19-6.95,37.99-13.9,56.99-20.86.51.04,1.34.17,2.24.62,1.04.52,1.69,1.21,2.03,1.63,9.91,27.13,20.76,56.69,20.77,56.95Z"/>
        <path class="st20" d="M282.55,98.03c.03,1.33-.68,2.48-.68,2.48-.2.4-.61,1.21-1.47,1.9-.44.35-30.07,11.13-56.57,20.63-.62.07-1.86.13-3.14-.51-.59-.29-1.19-.7-1.73-1.38-.64-.82-8.43-22.47-20.64-56.78-.04-.47-.05-1.24.24-2.1.49-1.47,1.52-2.28,1.94-2.58,19-6.95,37.99-13.9,56.99-20.86.51.04,1.34.17,2.24.62,1.04.52,1.69,1.21,2.03,1.63,9.91,27.13,20.76,56.69,20.77,56.95Z"/>
        <g>
          <path class="st24" d="M233.19,61.83l4.34,11.9c-4.14,1.51-6.26,6.08-4.76,10.22.44,1.21,1.15,2.25,2.03,3.08l-8.1,9.93c-.8-.68-1.07-1.55-1.19-1.88l-5.67-15.55c-.12-.5-.24-1.31-.02-2.24.2-.83.59-1.4.77-1.66,3.33-4.73,8.43-9.66,10.6-12.28.26-.31.89-1.09,1.98-1.52Z"/>
          <path class="st37" d="M260.9,83.12c.1.37.17.82.11,1.29l-12.83-2.25h0c.14-1.2.01-2.45-.43-3.67-1.51-4.14-6.08-6.26-10.22-4.76l-4.34-11.9c1.05-.41,2.02-.3,2.45-.24,9.77,1.29,11.81,1.69,15.89,2.62.44.1,1.43.32,2.29,1.12.82.76,1.12,1.66,1.24,2.01.63,1.88,2.84,7.75,5.83,15.78Z"/>
          <path class="st27" d="M261.01,84.41c-.02.2-.07.4-.15.61-.19.52-6.68,9.39-11.65,14.18-.27.26-.97,1-2.12,1.35-1.03.32-1.92.17-2.28.11-2.83-.46-4.24-.69-16.2-2.87-.33-.06-1.15-.2-1.9-.83,0,0,0,0,0,0l8.1-9.93c2.12,1.99,5.27,2.74,8.19,1.68,2.92-1.07,4.84-3.66,5.19-6.55l12.83,2.25Z"/>
        </g>
      </g>
      <g class="st28">
        <path class="st42" d="M157.18,81.43c-.46-.32-1.3-.82-2.47-1.03-1.02-.19-1.87-.08-2.39.02-16.76,12.26-33.52,24.52-50.28,36.78-.32.41-1.11,1.51-1.18,3.09-.04.94.18,1.69.36,2.14,21.84,30.42,35.7,49.59,36.56,50.22.72.52,1.43.75,2.1.88,1.44.27,2.65-.14,3.24-.39,23.44-16.91,49.59-35.96,49.93-36.43.65-.93.82-1.84.9-2.29,0,0,.37-1.33-.04-2.64-.08-.26-19.22-26.37-36.74-50.35ZM192.69,131.62c.39,1.27.03,2.57.03,2.57-.08.44-.25,1.33-.88,2.23-.32.46-25.81,19.02-48.64,35.5-.58.24-1.75.64-3.15.38-.65-.12-1.34-.34-2.04-.85-.85-.61-14.32-19.26-35.56-48.84-.17-.44-.39-1.17-.35-2.09.07-1.55.83-2.62,1.15-3.01,16.33-11.94,32.66-23.89,48.98-35.83.51-.1,1.33-.21,2.33-.02,1.14.21,1.96.7,2.41,1,17.04,23.33,35.66,48.71,35.73,48.97Z"/>
        <path class="st20" d="M192.69,131.62c.39,1.27.03,2.57.03,2.57-.08.44-.25,1.33-.88,2.23-.32.46-25.81,19.02-48.64,35.5-.58.24-1.75.64-3.15.38-.65-.12-1.34-.34-2.04-.85-.85-.61-14.32-19.26-35.56-48.84-.17-.44-.39-1.17-.35-2.09.07-1.55.83-2.62,1.15-3.01,16.33-11.94,32.66-23.89,48.98-35.83.51-.1,1.33-.21,2.33-.02,1.14.21,1.96.7,2.41,1,17.04,23.33,35.66,48.71,35.73,48.97Z"/>
        <g>
          <path class="st10" d="M166.51,110.92l-15.96,11.65c-.3.14-1.43.64-2.77.25-.84-.25-1.39-.73-1.66-1l-11.75-16.1c10.5-6.41,24.18-4.22,32.13,5.2Z"/>
          <path class="st35" d="M131.24,107.98l11.68,16c.18.33.47,1,.45,1.88-.04,1.4-.85,2.32-1.08,2.56l-16.18,11.81c-6.5-10.51-4.32-24.27,5.14-32.25Z"/>
          <path class="st38" d="M160.68,148.32c-10.42,6.53-24.09,4.48-32.13-4.78,5.27-3.86,10.54-7.71,15.81-11.57.23-.17,1.11-.8,2.35-.7,1.59.12,2.47,1.31,2.6,1.48,3.79,5.19,7.58,10.38,11.37,15.57Z"/>
          <path class="st36" d="M168.83,114.14c6.31,10.41,4.18,23.92-5.04,31.88-3.78-5.19-7.56-10.37-11.35-15.56-.13-.17-.99-1.38-.62-2.92.29-1.21,1.15-1.86,1.39-2.03,5.2-3.79,10.41-7.58,15.61-11.36Z"/>
        </g>
      </g>
      <g class="st19">
        <g>
          <path class="st42" d="M581.97,124.19c.14-.53.3-1.48.1-2.63-.18-1-.57-1.75-.84-2.19-17.03-11.17-34.06-22.35-51.1-33.52-.48-.16-1.77-.5-3.25-.01-.87.29-1.49.75-1.84,1.07-20.42,30.53-33.27,49.87-33.54,50.88-.23.84-.2,1.57-.08,2.23.25,1.42,1.04,2.38,1.47,2.84,23.6,15.71,50.11,33.18,50.66,33.32,1.07.27,1.97.12,2.42.04,0,0,1.35-.12,2.41-.94.21-.16,17.6-26.74,33.6-51.09ZM548.09,174.1c-1.04.8-2.35.92-2.35.92-.43.08-1.31.23-2.35-.04-.54-.14-26.36-17.16-49.36-32.46-.42-.45-1.19-1.39-1.43-2.77-.11-.64-.15-1.35.08-2.17.27-.99,12.76-19.79,32.62-49.49.35-.31.94-.76,1.8-1.04,1.44-.47,2.69-.14,3.16.02,16.59,10.89,33.19,21.77,49.78,32.66.27.43.65,1.15.82,2.13.2,1.12.04,2.04-.09,2.56-15.56,23.68-32.47,49.53-32.68,49.69Z"/>
          <path class="st20" d="M548.09,174.1c-1.04.8-2.35.92-2.35.92-.43.08-1.31.23-2.35-.04-.54-.14-26.36-17.16-49.36-32.46-.42-.45-1.19-1.39-1.43-2.77-.11-.64-.15-1.35.08-2.17.27-.99,12.76-19.79,32.62-49.49.35-.31.94-.76,1.8-1.04,1.44-.47,2.69-.14,3.16.02,16.59,10.89,33.19,21.77,49.78,32.66.27.43.65,1.15.82,2.13.2,1.12.04,2.04-.09,2.56-15.56,23.68-32.47,49.53-32.68,49.69Z"/>
        </g>
        <g>
          <path class="st44" d="M553.63,142.66c-4.53,6.74-12.65,9.63-19.5,8.97-2.72-.26-4.91-1.05-6.39-1.72-.69-.29-1.71-.76-2.9-1.43-1.2-.67-2.04-1.25-2.55-1.6-3.61-2.47-5.41-3.7-6.66-4.46-1.54-.94-2.96-2.07-4.52-2.97-.31-.18-.98-.56-1.53-1.32-.17-.23-.86-1.2-.79-2.44.04-.78.37-1.28,1.41-2.75,1.18-1.67,3.59-5.28,6.08-9.12,2.32-3.59,3.48-5.38,5.11-7.04,1.96-2,3.89-3.29,4.85-3.85,5.04-2.97,13.98-4.07,21.42.81,8.9,5.84,9.32,16.1,9.35,17.1.05,2.13-.17,7.05-3.37,11.82Z"/>
          <path class="st8" d="M553.63,142.66c-4.53,6.74-12.65,9.63-19.5,8.97-2.72-.26-4.91-1.05-6.39-1.72-.69-.29-1.71-.76-2.9-1.43-1.2-.67-2.04-1.25-2.55-1.6-3.61-2.47-5.41-3.7-6.66-4.46-1.54-.94-2.96-2.07-4.52-2.97-.31-.18-.98-.56-1.53-1.32-.01-.02-.03-.04-.05-.07,3.84,1.65,15.18,5.67,28.13,1.02,10.05-3.61,15.82-10.56,18.29-14.09.94,3.01,1.04,5.39,1.05,5.85.05,2.13-.17,7.05-3.37,11.82Z"/>
        </g>
      </g>
      <g>
        <g>
          <path class="st13" d="M292.26,793.64l1.55,38.1s-38.2,14.37-38.6,21.44l73.98-.35.02-59.46-36.95.28Z"/>
          <path class="st23" d="M316.67,828.43c1.43.38,2.43,1.99,2.11,3.44-.33,1.45-1.95,2.48-3.39,2.12-1.44-.36-2.7-2.25-2.21-3.65.49-1.4,2.46-2.51,3.77-1.81"/>
          <path class="st25" d="M329.19,852.83l-.23-5.99-70.84,2.58s-3.29,1.45-2.9,3.77l73.98-.35Z"/>
          <path class="st20" d="M292.61,831.37c.01.36,1.82.52,3.6,1.67,1.81,1.11,2.74,2.67,3.07,2.52.33-.07-.22-2.23-2.4-3.59-2.17-1.38-4.35-.94-4.27-.6Z"/>
          <path class="st20" d="M284.87,834.62c-.08.35,1.49.96,2.72,2.48,1.28,1.49,1.6,3.14,1.96,3.12.34.06.58-2.06-.99-3.92-1.55-1.88-3.68-2.02-3.69-1.67Z"/>
          <path class="st20" d="M280.51,843.92c.33.08.82-1.73-.11-3.71-.92-1.98-2.63-2.75-2.78-2.45-.2.3.9,1.35,1.64,2.99.78,1.61.89,3.14,1.25,3.17Z"/>
          <path class="st20" d="M293.22,822.65c.15.33,1.81-.18,3.85-.05,2.05.09,3.64.77,3.82.45.21-.26-1.35-1.59-3.76-1.71-2.41-.14-4.1,1.02-3.92,1.3Z"/>
        </g>
        <g>
          <path class="st13" d="M406.04,802.51l9.6,45.12-2.7,37.88c-.19,2.73,1.96,5.05,4.7,5.06h0c1.53,0,2.96-.72,3.85-1.97,5.66-7.94,26.36-37.26,25.47-40.52-1.03-3.78-6.96-48.27-6.96-48.27l-33.96,2.69Z"/>
          <path class="st25" d="M417.64,890.57l28.74-45.55.36,1.92c.31,1.66.04,3.38-.8,4.85-2.24,3.93-8.66,14.63-24.31,36.79-.91,1.29-2.41,2.04-3.99,1.99h0Z"/>
          <g class="st0">
            <path class="st20" d="M434.31,832.16c-.99,1-1.03,2.79-.08,3.82.96,1.03,2.78,1.09,3.78.11,1-.98,1.13-3.13.06-4.04-1.07-.91-3.21-.87-3.95.32"/>
          </g>
          <path class="st20" d="M424.25,868.81c-.23.17-1.7-2.01-4.64-2.77-2.91-.86-5.3.26-5.41-.01-.06-.1.45-.56,1.48-.91,1.02-.35,2.58-.49,4.2-.05,1.61.45,2.88,1.38,3.57,2.21.7.83.9,1.49.8,1.55Z"/>
          <path class="st20" d="M422.17,875.48c-.18.24-1.91-.96-4.38-1.19-2.47-.28-4.41.53-4.53.27-.17-.21,1.83-1.58,4.64-1.27,2.82.28,4.49,2.03,4.28,2.2Z"/>
          <path class="st20" d="M428.79,859.89c-.17.26-2.83-1.6-6.64-2.29-3.8-.75-6.95,0-7.02-.3-.12-.23,3.13-1.49,7.21-.7,4.09.75,6.65,3.12,6.45,3.29Z"/>
          <path class="st20" d="M427.02,845.93c-.07.29-2.77-.28-6.05.22-3.29.45-5.72,1.77-5.87,1.51-.17-.2,2.19-2.01,5.72-2.51,3.53-.53,6.3.55,6.2.78Z"/>
          <path class="st20" d="M424.54,832.61c-.09.29-2.89-.75-6.31.06-3.43.73-5.52,2.87-5.73,2.64-.09-.08.3-.74,1.23-1.54.92-.8,2.44-1.67,4.28-2.09,1.84-.41,3.58-.27,4.76.06,1.18.33,1.82.76,1.77.87Z"/>
          <path class="st20" d="M417.84,830.13c-.06.01-.28-.58-.39-1.7-.11-1.12-.09-2.79.51-4.75.33-.94.64-2.11,1.79-2.95.57-.42,1.53-.48,2.18.02.64.48.95,1.2,1.1,1.91.5,2.89-1.45,6.14-4.61,7.16-3.18.97-6.48-.33-8.23-2.57-.4-.59-.75-1.34-.54-2.17.2-.84,1.06-1.32,1.73-1.33,1.38-.05,2.38.56,3.28.99,1.8.96,3.02,2.1,3.76,2.94.75.84,1.04,1.4.99,1.43-.14.15-1.57-2.01-5.07-3.73-.87-.38-1.89-.88-2.88-.79-.48.04-.85.31-.95.72-.1.4.1.95.44,1.41,1.47,1.83,4.49,3.01,7.16,2.15,2.67-.84,4.37-3.7,4-6.02-.1-.56-.35-1.09-.71-1.37-.36-.27-.82-.28-1.2-.03-.82.52-1.23,1.59-1.56,2.47-1.28,3.69-.6,6.23-.81,6.22Z"/>
        </g>
        <g>
          <path class="st25" d="M265.02,483.83s-.31,20.05,1.03,45.98c.52,10.03,21.64,288.97,21.64,288.97l45.63,1.15-6.28-260.69,7.86,1.91s24.04,86.94,29.27,106.83c6.23,23.68,39.68,157.85,39.68,157.85l41.7,1.53-27.43-157.23-23.67-149.65-4.74-43.52-124.68,6.88Z"/>
          <path class="st13" d="M334.89,532.85c.02.06-.65.43-1.93,1.03-1.28.56-3.16,1.43-5.7,1.84-1.27.2-2.7.23-4.2-.08-1.49-.3-3.08-.98-4.34-2.22-1.27-1.24-2.06-2.96-2.55-4.73-.49-1.79-.75-3.64-1.08-5.52-1.27-7.55-2.08-14.44-2.53-19.43-.23-2.5-.37-4.52-.43-5.92-.07-1.4-.07-2.18,0-2.18.07,0,.19.76.38,2.15.2,1.59.45,3.56.74,5.88.62,4.97,1.54,11.82,2.8,19.35.64,3.72,1.05,7.51,3.31,9.78,2.26,2.23,5.47,2.54,7.83,2.25,2.44-.3,4.34-1.05,5.65-1.51,1.31-.48,2.05-.74,2.07-.68Z"/>
          <path class="st13" d="M322.05,497.19s.3-.23.94-.25c.64-.03,1.6.19,2.53.88.9.69,1.84,1.93,1.83,3.57.03,1.67-1.31,3.28-3.02,3.84-1.7.61-3.75.18-4.75-1.15-1.02-1.29-1.05-2.84-.77-3.94.3-1.13.92-1.89,1.44-2.26.52-.38.88-.43.9-.38.12.13-1.3.73-1.67,2.79-.16.97-.04,2.27.79,3.22.79.98,2.35,1.3,3.75.81,1.41-.48,2.43-1.7,2.45-2.96.05-1.26-.65-2.36-1.38-3.02-1.56-1.39-3.06-.98-3.04-1.16Z"/>
          <path class="st13" d="M393.87,517.79c0,.07-.55.14-1.56.2-1.01.08-2.48.07-4.28-.06-3.61-.25-8.59-1.25-13.66-3.53-5.06-2.29-9.11-5.37-11.69-7.91-1.29-1.27-2.27-2.36-2.88-3.17-.62-.8-.93-1.26-.88-1.3.13-.11,1.55,1.61,4.22,3.97,2.65,2.37,6.67,5.28,11.62,7.53,4.96,2.22,9.8,3.31,13.33,3.73,3.54.43,5.77.36,5.77.53Z"/>
          <path class="st13" d="M283.42,497.06c.07.05-.53,1.87-1.8,4.58-1.27,2.7-3.27,6.24-5.88,9.6-2.61,3.35-5.3,5.86-7.33,7.4-2.04,1.55-3.38,2.24-3.41,2.14-.05-.14,1.23-1.04,3.17-2.72,1.95-1.68,4.54-4.22,7.11-7.52,2.56-3.31,4.59-6.71,5.94-9.28,1.36-2.57,2.1-4.27,2.2-4.19Z"/>
        </g>
        <g>
          <path class="st43" d="M309.62,208.76c1.43-18.4,16.76-32.61,35.21-32.66h1.83c19.78,1.1,29.89,18.51,28.24,38.25l-4.21,61.39-35.25,36.64-9.02-21.9.05-14.58s-19.02-2.9-19.3-21.91c-.14-9.18,1.11-28.1,2.45-45.22Z"/>
          <path class="st40" d="M326.32,275.86s12.14.7,24.88-7.36c0,0-5.82,13.69-24.79,12.03l-.09-4.68Z"/>
          <path class="st13" d="M314.71,224.6c-.05,1.43,1.13,2.65,2.62,2.73,1.49.08,2.74-1.02,2.79-2.45.05-1.43-1.13-2.66-2.62-2.73-1.5-.08-2.75,1.02-2.79,2.46Z"/>
          <path class="st13" d="M313.73,218.05c.34.35,2.39-1.17,5.31-1.17,2.92-.04,5.06,1.45,5.38,1.1.16-.16-.19-.8-1.12-1.47-.92-.67-2.49-1.33-4.31-1.32-1.82.02-3.35.69-4.23,1.38-.9.69-1.2,1.33-1.03,1.49Z"/>
          <path class="st13" d="M341.13,225.33c-.05,1.43,1.13,2.65,2.62,2.73,1.49.08,2.74-1.02,2.79-2.45.05-1.43-1.13-2.66-2.62-2.73-1.5-.08-2.75,1.02-2.79,2.46Z"/>
          <path class="st13" d="M342.44,218.52c.34.35,2.39-1.17,5.31-1.17,2.92-.04,5.06,1.45,5.38,1.1.16-.16-.19-.8-1.13-1.47-.92-.67-2.49-1.33-4.31-1.32-1.82.01-3.35.69-4.23,1.38-.89.69-1.2,1.33-1.03,1.49Z"/>
          <path class="st13" d="M331.9,240.21c.01-.17-1.8-.48-4.75-.84-.75-.07-1.45-.22-1.58-.73-.18-.54.13-1.34.49-2.21.7-1.81,1.42-3.7,2.19-5.69,3.04-8.09,5.24-14.75,4.91-14.87-.33-.12-3.06,6.34-6.1,14.44-.73,2-1.43,3.9-2.1,5.72-.28.85-.76,1.81-.38,2.93.2.56.75.96,1.23,1.09.48.14.9.15,1.27.17,2.96.15,4.8.16,4.81,0Z"/>
          <path class="st13" d="M340.51,242.2c-.48-.03-.47,3.14-3.18,5.4-2.7,2.26-6.08,1.92-6.11,2.36-.04.2.75.61,2.18.65,1.4.04,3.44-.41,5.1-1.79,1.65-1.39,2.36-3.23,2.46-4.53.12-1.33-.24-2.11-.46-2.09Z"/>
          <path class="st13" d="M341.66,207.07c.29.79,3.21.41,6.63.81,3.44.33,6.2,1.33,6.65.62.2-.34-.28-1.09-1.4-1.85-1.11-.76-2.88-1.49-4.94-1.71-2.06-.22-3.94.11-5.19.62-1.26.51-1.89,1.14-1.76,1.51Z"/>
          <path class="st13" d="M314.78,209.59c.52.66,2.53-.03,4.95-.07,2.42-.12,4.47.43,4.94-.26.21-.34-.12-1-1.02-1.63-.88-.62-2.36-1.13-4.02-1.08-1.66.06-3.1.66-3.94,1.34-.85.68-1.13,1.37-.9,1.69Z"/>
          <path class="st13" d="M302.59,192.14c.31-1.73,1.97-3.24,3.72-3.03-.94-.3-1.9-.62-2.66-1.26-.75-.64-1.26-1.68-.97-2.62.44-1.48,2.32-1.84,3.79-2.3,1.93-.61,3.65-1.83,4.86-3.45,1.74-2.33,2.35-5.32,3.84-7.82,1.93-3.24,5.37-5.52,9.11-6.04s7.67.74,10.41,3.33c2.82-3.06,7.15-4.66,11.28-4.15,4.13.51,7.95,3.11,9.94,6.77,4.98-2.24,11.16-1.55,15.52,1.74,4.36,3.29,6.73,9.03,5.95,14.44l-11.62,7.59c-.3-3.65-4.46-6.44-7.95-5.32-3.54,1.13-5.71,5.33-9.41,5.72-2.88.3-5.4-1.87-8.22-2.53-3.42-.81-6.96.65-9.97,2.46-3.01,1.81-5.86,4.04-9.24,4.99-3.96,1.12-8.24.36-12.09-1.09-1.65-.62-3.29-1.39-4.54-2.63-1.25-1.24-2.06-3.04-1.75-4.77Z"/>
          <path class="st13" d="M363.53,189.8l-54.19,1.23c1.68-3.74,4.69-6.73,7.95-9.21,7.04-5.35,15.69-8.69,24.53-8.85,8.84-.16,26.83,10.59,33.24,16.68,5.13,4.87,5.1,9.09,5.1,9.09.82,7.02-3.11,15.01-4.67,21.91-.8,3.56-2.35,14.32-2.35,14.32h0c-2.99,0-4.1-2.38-3.65-5.33l.55-11.58s-10.16-7.21-5.36-20.42c.77-1.05,2.42-5.88-1.16-7.84Z"/>
          <path class="st13" d="M370.88,217.27c2.48-9.67,4.72-20.02,1.52-29.48.54-.04,1.07-.07,1.61-.11l.68.47c3-1.11,6.66-.05,8.62,2.48,1.96,2.53,2.05,6.34.23,8.96,3.2-.24,6.36,2.35,6.74,5.55.26,2.2-.63,4.36-1.56,6.38-.93,2.02-1.93,4.1-1.88,6.32.05,2.22,1.54,4.59,3.75,4.79-.92,2.3-3.64,3.72-6.05,3.16.81,1.85,2.17,3.47,3.85,4.59-3.46,2.5-8.33,1.82-12.22.06-2.31-1.04-4.59-2.56-5.59-4.89-1.11-2.58-.4-5.54.3-8.26Z"/>
          <path class="st43" d="M372.08,228.42c.32-.14,13.05-3.9,12.67,9.1-.38,12.99-13.35,9.93-13.36,9.56-.01-.37.69-18.66.69-18.66Z"/>
          <path class="st40" d="M374.36,242.27c.06-.04.22.17.6.35.37.18,1.01.32,1.69.08,1.39-.46,2.61-2.61,2.74-4.95.07-1.18-.15-2.31-.54-3.26-.37-.96-.96-1.64-1.65-1.79-.68-.18-1.18.22-1.35.58-.18.36-.11.62-.18.64-.04.03-.27-.23-.15-.76.06-.26.22-.56.54-.8.32-.24.78-.36,1.26-.29,1,.1,1.88,1.05,2.31,2.08.49,1.04.76,2.32.68,3.65-.16,2.62-1.57,5.03-3.47,5.52-.92.21-1.68-.09-2.06-.4-.39-.33-.45-.63-.41-.65Z"/>
          <path class="st25" d="M385.24,217.28s.35-.5.2-1.52c-.15-.99-.91-2.41-2.52-3.31-1.6-.91-3.77-1.08-5.98-1.27-2.19-.17-4.7-.72-6.01-2.84-1.31-2.06-1.41-4.62-1.21-6.78.25-2.19.77-4.18,1-5.89.59-3.45-.13-5.63-.25-5.56-.15.03.29,2.12-.46,5.44-.32,1.67-.91,3.61-1.23,5.91-.26,2.27-.23,5.02,1.29,7.44.76,1.19,1.93,2.08,3.17,2.53,1.23.46,2.47.6,3.61.69,2.27.13,4.27.24,5.74.97,1.45.71,2.23,1.91,2.47,2.76.25.88.1,1.41.19,1.43Z"/>
          <path class="st25" d="M388.21,211.53c.05.02.28-.38.37-1.18.08-.79-.01-2.03-.74-3.32-.36-.64-.89-1.28-1.59-1.81-.7-.55-1.64-.88-2.52-1.09-.89-.23-1.82-.43-2.49-.94-.67-.5-1-1.35-1.04-2.35-.07-.99.05-2.03,0-3.07-.04-1.03-.19-2.02-.42-2.94-.46-1.84-1.17-3.39-1.99-4.58-.82-1.23-2.09-1.81-2.92-1.74-.86.03-1.21.43-1.17.46.04.08.43-.16,1.15-.07.72.07,1.68.6,2.35,1.75.67,1.14,1.3,2.66,1.68,4.39.18.87.31,1.8.33,2.76.04.95-.09,1.98-.02,3.11.04,1.1.48,2.38,1.46,3.07.96.68,1.99.84,2.86,1.05,1.79.3,3,1.25,3.73,2.37,1.44,2.28.79,4.15.98,4.13Z"/>
          <path class="st25" d="M311.32,179.49c-.08.02,1,.68,2.68-.17.82-.39,1.62-1.2,2.39-2.16.77-.97,1.64-2.01,2.94-2.76,2.49-1.51,6.58-2,9.8.37,1.64,1.12,3.1,2.7,5.01,4.01.95.64,2.05,1.21,3.29,1.41,1.24.21,2.54,0,3.68-.45,2.32-.91,4.12-2.39,6.12-3.18,1.99-.84,4.07-1.24,6.06-1.27,4-.1,7.51,1.3,9.92,3.1,2.46,1.79,3.92,3.85,4.79,5.3.85,1.48,1.17,2.39,1.25,2.36.03-.01-.02-.25-.15-.69-.13-.44-.38-1.07-.76-1.86-.78-1.55-2.2-3.74-4.71-5.69-2.46-1.95-6.14-3.52-10.36-3.46-2.1,0-4.31.41-6.43,1.29-2.15.85-4,2.34-6.1,3.15-1.04.41-2.12.57-3.17.41-1.04-.17-2.01-.65-2.9-1.24-1.78-1.2-3.28-2.78-5.04-3.96-1.73-1.23-3.84-1.79-5.72-1.71-1.9.06-3.62.65-4.98,1.5-1.38.85-2.3,2.04-3.01,3.02-.72.98-1.41,1.75-2.14,2.16-1.47.88-2.49.42-2.49.51Z"/>
        </g>
        <g>
          <g>
            <g>
              <g>
                <path class="st43" d="M235.18,351.71l-67.23-53.13-9.58-10.06s-22.91-21.39-24.85-23.72c-2.24-2.7-4.08-2.27-5.02-1.37-1.46,1.39-.97,4.21.88,6.59.64.82,11.26,13.36,11.26,13.36,0,0-1.45-.56-5.28-1.37-3.84-.81-9.35,1.49-13.73,5.39-4.38,3.89-5.26,5.37-3.83,7.14.57.71,1.44.95,2.3.96,1.4.03,2.76-.53,3.82-1.45,7.1-6.14,12.25-3.9,12.25-3.9l1.25,1.32s-6.99.52-9.38,4.75c-.39.69-.59,1.37-.68,2.02-1.9,1.61-2.91,4.23-2.54,6.69.38,2.57,2.23,4.87,4.66,5.79,1.16.44,2.67.49,3.44-.47.41-.51.52-1.19.63-1.84.06-.34.13-.69.25-1.01l4.03,3.19s9.43,6.69,13.2,10.07l56.22,61.15c7.79,8.48,21.02,8.92,29.36.97h0c9.07-8.64,8.39-23.31-1.43-31.07Z"/>
                <g>
                  <path class="st43" d="M165.14,299.44c-1.02,1.46-3.19,1.63-4.88,1.05-1.69-.58-3.13-1.71-4.78-2.4-4.92-2.08-10.91-.04-15.72-2.36-.67-.32-1.4-.93-1.22-1.66.16-.67.97-.92,1.65-1.05,5.79-1.11,11.58-2.21,17.37-3.32"/>
                  <path class="st40" d="M157.56,289.7c-.01-.07-.69,0-1.92.17-1.22.17-2.98.45-5.15.82-2.26.4-4.82.85-7.62,1.35-.72.13-1.45.27-2.2.4-.69.18-1.67.11-2.42,1.08-.35.5-.26,1.25.07,1.67.31.44.7.71,1.11.93.8.38,1.6.68,2.46.87,3.43.77,6.67.34,9.51.62,1.42.12,2.74.38,3.9.85,1.15.47,2.17,1.12,3.17,1.62,1.97,1.11,4.05,1.21,5.23.67,1.22-.52,1.49-1.31,1.45-1.3-.07-.07-.45.58-1.58.93-1.13.37-2.91.2-4.76-.93-.95-.52-1.95-1.21-3.19-1.76-1.24-.54-2.65-.85-4.13-1-2.95-.33-6.2.04-9.36-.68-.79-.17-1.54-.46-2.23-.78-.66-.33-1.06-.88-.81-1.18.23-.37,1.03-.53,1.77-.66.74-.15,1.48-.29,2.19-.44,2.78-.57,5.33-1.1,7.58-1.56,2.15-.46,3.89-.85,5.09-1.14,1.2-.29,1.85-.48,1.84-.55Z"/>
                </g>
                <path class="st40" d="M137.64,291.38c-.08.11-.84-1.15-2.85-1.74-.99-.28-2.25-.25-3.52.24-1.28.47-2.55,1.34-3.82,2.35-1.27,1.01-2.51,2.01-3.82,2.66-1.3.64-2.62.98-3.75.88-1.15-.08-1.95-.75-2.27-1.27-.33-.54-.36-.88-.34-.89.06-.03.18.29.54.74.36.44,1.07.95,2.09.96,1.01.03,2.24-.32,3.45-.96,1.22-.64,2.41-1.62,3.7-2.64,1.28-1.02,2.63-1.92,4.02-2.4,1.38-.5,2.8-.48,3.86-.11,1.06.36,1.78.95,2.19,1.39.41.46.56.77.53.79Z"/>
                <path class="st40" d="M128.68,269.08c.08-.05.86.91,2.13,2.48,1.42,1.74,3.1,3.81,4.97,6.1,1.9,2.26,3.62,4.31,5.06,6.02,1.3,1.54,2.1,2.49,2.04,2.55-.06.06-.99-.78-2.38-2.25-1.4-1.46-3.25-3.54-5.22-5.91-1.96-2.37-3.66-4.59-4.83-6.23-1.17-1.64-1.83-2.71-1.76-2.76Z"/>
                <path class="st40" d="M137.16,296.6s-.35.14-.97.33c-.59.19-1.57.53-2.02,1.52-.22.48-.14,1.06.22,1.59.34.54.9,1,1.48,1.53.57.52,1.23,1.23,1.35,2.23.09.97-.34,1.95-1.09,2.6-.76.67-1.79.88-2.69.79-.91-.1-1.74-.43-2.39-.98-1.21-1.09-2.01-2.25-2.64-3.27-.61-1.03-.97-1.95-1.09-2.61-.12-.67-.03-1.05,0-1.04.06,0,.06.37.24.98.19.61.59,1.46,1.23,2.43.65.95,1.5,2.08,2.63,3.06,1.08.87,3.03,1.23,4.27.16.6-.52.95-1.32.88-2.05-.07-.73-.58-1.33-1.13-1.86-.55-.53-1.14-1.03-1.52-1.69-.41-.62-.5-1.47-.18-2.06.63-1.2,1.76-1.45,2.37-1.58.66-.12,1.02-.12,1.03-.08Z"/>
                <path class="st40" d="M133.33,306.64s.31.19.52.77c.2.56.27,1.56-.39,2.52-.64.93-1.99,1.6-3.48,1.45-1.48-.14-2.94-1.02-4-2.29-1.07-1.28-1.64-2.83-1.73-4.27-.1-1.44.27-2.73.75-3.68.48-.96,1.07-1.62,1.51-2.01.45-.39.74-.55.76-.52.09.09-1.03.86-1.86,2.73-.4.92-.69,2.12-.57,3.44.11,1.31.65,2.73,1.63,3.9.97,1.16,2.29,1.96,3.57,2.12,1.27.17,2.46-.37,3.04-1.13.59-.76.62-1.65.51-2.17-.12-.55-.33-.81-.28-.84Z"/>
                <path class="st40" d="M149.05,307.84s.34-.51,1.22-.99c.87-.47,2.3-.9,3.95-.6l-.32.48c-.39-.58-.77-1.22-1.12-1.91-1.97-3.86-1.95-7.46-1.79-7.44.2-.03.46,3.43,2.37,7.14.34.67.7,1.3,1.06,1.87l.4.63-.72-.15c-1.47-.31-2.81,0-3.67.34-.87.35-1.33.7-1.38.63Z"/>
                <path class="st40" d="M130.91,286.55c.17-.04.43,1.27-.28,2.67-.7,1.41-1.91,1.97-1.98,1.81-.11-.16.8-.88,1.4-2.1.63-1.21.67-2.37.86-2.38Z"/>
              </g>
              <g>
                <path class="st26" d="M232.13,387.05l38.82-26.89s-3.41,104.1-3.4,105.07c0,0-7.11,2.81-5.85,10.24l2.05,10.49c42.75,9.82,85.12,16.21,128.23.33l4.9-82.91,15.12-101.27-34.69-14.76-5.94-13.67-35.94,38.71-9.19-24.99.25-9.43-8.7,9.44-42.13,6.85-52.45,42.53-17.2-13.91-25.95,36.04,29.49,29.8c7.49,1.99,15.44,1.41,22.56-1.65Z"/>
                <path class="st13" d="M330.15,307.65c.09.11-1.56.5-2.52,2.81-.49,1.12-.74,2.57-.77,4.29-.08,1.7.03,3.74-.83,5.84l-.42,1.02-.44-1.02c-1.17-2.7-1.97-5.78-2.75-9.03-1.48-6.37-2.43-12.21-3.07-16.44-.62-4.23-.88-6.87-.74-6.89.14-.02.65,2.57,1.45,6.77.81,4.19,1.87,10,3.35,16.33.77,3.22,1.55,6.29,2.61,8.87h-.86c.8-1.8.77-3.77.91-5.49.09-1.74.44-3.33,1.04-4.48.58-1.18,1.39-1.91,2.01-2.25.63-.34,1.02-.36,1.02-.32Z"/>
                <path class="st13" d="M375.32,292.09c.05.05-.37.65-1.19,1.71-.82,1.06-2.03,2.57-3.54,4.42-3.02,3.7-7.25,8.76-11.96,14.32-2.69,3.14-5.24,6.11-7.51,8.76l-.58.68-.22-.86c-1.07-4.27-1.93-7.89-2.51-10.43-.24-1.27-.95-2-1.63-2.01-.66-.06-.9.32-.94.27-.05.02.14-.52.95-.56.38-.01.89.12,1.29.53.4.4.67.99.86,1.63.74,2.51,1.73,6.08,2.88,10.34l-.8-.18c2.25-2.67,4.77-5.67,7.43-8.83,4.72-5.55,9.03-10.54,12.19-14.12,1.58-1.79,2.87-3.23,3.78-4.2.91-.98,1.44-1.5,1.49-1.45Z"/>
                <path class="st13" d="M323.42,455.02s-.07-.45-.1-1.32c-.02-.97-.05-2.23-.09-3.79-.06-3.29-.06-8.05,0-13.93.14-11.76.69-28,2.03-45.9,1.34-17.9,3.21-34.05,4.82-45.7.8-5.82,1.51-10.53,2.06-13.77.27-1.54.48-2.77.65-3.73.16-.85.26-1.3.29-1.29s0,.46-.09,1.32c-.12.96-.27,2.21-.46,3.76-.43,3.38-1.02,8.07-1.74,13.81-1.43,11.66-3.18,27.8-4.52,45.68-1.33,17.87-2,34.09-2.32,45.84-.14,5.78-.25,10.5-.33,13.91-.04,1.56-.08,2.81-.11,3.78-.04.87-.07,1.32-.11,1.32Z"/>
                <path class="st13" d="M313.49,478.93c-.28.05-1.07-3.87-.91-8.75.14-4.87.76-8.75,1.01-8.73.31.02.15,3.95.01,8.76-.15,4.81.17,8.69-.11,8.73Z"/>
                <path class="st13" d="M363.48,450.3c.02.07-1.1.49-3.14,1.18-2.04.71-5.02,1.64-8.73,2.72-7.41,2.16-17.78,4.76-29.39,6.83-11.61,2.06-22.24,3.19-29.95,3.71-3.85.26-6.97.41-9.13.45-2.16.05-3.35.04-3.36-.03s1.19-.2,3.33-.37c2.32-.2,5.39-.46,9.1-.77,7.67-.71,18.25-1.95,29.83-4,11.57-2.06,21.93-4.54,29.37-6.52,3.59-.98,6.56-1.79,8.81-2.41,2.08-.58,3.24-.87,3.26-.8Z"/>
                <path class="st13" d="M270.84,384.01c-.28,0-.46-14.48-.4-32.33.06-17.86.34-32.33.63-32.33.28,0,.46,14.47.4,32.33-.06,17.85-.34,32.32-.63,32.32Z"/>
              </g>
            </g>
            <g class="st16">
              <path d="M338.78,315.71c2.16.06,4.33,1.34,4.73,3.46.39,2.12.1,4.34.65,6.43.55,2.08,2.45,4.11,4.56,3.68,1.28-.27,2.22-1.34,3.02-2.37,4.14-5.33,7.49-11.98,9.91-18.28-.06.15-10.9,12.51-10.9,12.51-.33-3.1-1.32-6.2-2.45-9.1-.37-.94-.78-2.54-1.7-2.96-1.48-.68-3.44,1.49-4.42,2.79-.98,1.3-3.12,3.56-3.42,3.67"/>
            </g>
            <g class="st16">
              <path d="M321.01,304.49c.36,6.8,1.42,13.92,3.97,20.23.26.64.55,1.3,1.06,1.76.52.46,1.34.66,1.91.28.42-.28,1.78-3.71,1.95-4.19,1.01-2.81,5.09-3.07,5.09-3.07,0,0-1.62-7.23-2.66-9.37-.47-.97-1.47-1.81-2.54-1.63-1.27.21-2.64,1.93-2.8,3.21-.61,5.05-.54,7.37-1.28,9.13-1.91-5.37-3.46-11.85-4.73-16.54"/>
            </g>
            <g class="st16">
              <path d="M351.19,453.55c2.03-1.09,2.28-4.2.94-6.07-1.34-1.87-3.86-2.62-6.14-2.34-2.28.29-4.36,1.46-6.22,2.81-1.86,1.35-3.59,2.89-5.55,4.1-4.82,2.96-10.69,3.64-16.35,3.73-5.66.09-11.38-.32-16.94.76-5.56,1.08-11.11,3.94-13.79,8.93,0,0,48.37-3.52,64.06-11.91Z"/>
            </g>
          </g>
          <path class="st26" d="M412.01,302.09s14.64,10.43,18.19,19.88c3.55,9.46,16.62,74.33,18.76,85.41,2.69,13.92,2.77,31.16-17.28,37.7-7.46,2.43-53.14-1.29-53.14-1.29l1.48-32.45,24.67.94s-1.49-2.2,2.06-4.83l-7.83-42.21s2.9-44.82,3.25-45.88c.35-1.06,9.85-17.27,9.85-17.27Z"/>
          <path class="st13" d="M412.75,303.18c.16.3-6.13,2.17-11.47,7.86-5.43,5.6-7,11.97-7.31,11.83-.11-.02.11-1.63,1.07-4.05.94-2.41,2.75-5.6,5.5-8.49,2.76-2.88,5.85-4.84,8.22-5.9,2.37-1.07,3.96-1.36,3.99-1.25Z"/>
          <path class="st13" d="M420.74,418.8c-.17.04-.49-1.07-1.48-2.59-.97-1.52-2.68-3.4-5.01-4.9-2.32-1.5-4.73-2.33-6.52-2.57-1.79-.27-2.93-.05-2.96-.23-.04-.1,1.1-.59,3.03-.49,1.93.06,4.55.84,7.01,2.43,2.47,1.59,4.22,3.69,5.08,5.4.88,1.72.95,2.94.85,2.95Z"/>
          <path class="st13" d="M394.16,339.56c.07-.01.31.92.69,2.61.39,1.89.9,4.3,1.5,7.18,1.22,6.07,2.83,14.48,4.56,23.77,1.72,9.3,3.22,17.72,4.26,23.83.47,2.9.87,5.33,1.18,7.24.26,1.71.36,2.67.29,2.68-.07.01-.31-.92-.69-2.61-.39-1.89-.9-4.3-1.5-7.18-1.22-6.07-2.83-14.48-4.56-23.77-1.72-9.29-3.22-17.71-4.26-23.82-.47-2.91-.87-5.34-1.18-7.24-.26-1.71-.36-2.67-.29-2.68Z"/>
          <path class="st13" d="M378.53,443.79c-.07,0-.09-.89-.07-2.51.04-1.8.09-4.11.16-6.88.17-5.83.48-13.95.88-23.09l.02-.51.51.02c1.3.05,2.67.1,4.07.16,7.59.33,14.64.64,20.57.89h.14s.1.09.1.09c3.84,3.13,5.81,6.87,6.75,9.49.47,1.33.71,2.41.84,3.15.11.74.14,1.14.1,1.14-.12.02-.34-1.56-1.39-4.11-1.05-2.52-3.08-6.07-6.82-9.01l.25.09c-5.93-.21-12.98-.45-20.57-.72-1.39-.06-2.77-.11-4.07-.16l.53-.49c-.43,9.14-.86,17.25-1.22,23.07-.19,2.77-.35,5.06-.47,6.86-.13,1.61-.23,2.49-.3,2.49Z"/>
        </g>
        <g>
          <g>
            <path class="st25" d="M342.47,404.5l-19.1-38.92c-1.3-2.64-3.99-4.32-6.93-4.32h-47.99c-1.78,0-2.92,1.9-2.08,3.47l32.48,60.64c.91,1.7,2.68,2.76,4.61,2.76h49.77l-10.77-23.63Z"/>
            <path class="st13" d="M266.7,365.02s.33.06.96.08c.73.01,1.64.03,2.75.05,2.51,0,5.94,0,10.11,0,8.64-.07,20.36-.17,33.31-.29,1.59.06,3.15.32,4.43,1.07,1.29.73,2.21,1.97,2.94,3.26,1.39,2.66,2.57,5.43,3.78,7.96,2.38,5.08,4.54,9.67,6.37,13.57,1.8,3.76,3.28,6.85,4.36,9.12.5.99.9,1.81,1.23,2.46.29.56.46.84.48.83.03-.01-.08-.33-.32-.91-.28-.67-.64-1.51-1.07-2.53-1.02-2.3-2.41-5.42-4.1-9.24-1.78-3.92-3.87-8.54-6.19-13.65-1.21-2.56-2.32-5.26-3.77-8.05-.76-1.36-1.77-2.74-3.26-3.6-1.48-.87-3.19-1.13-4.84-1.2-13.07.09-24.82.37-33.36.55-4.17.12-7.59.21-10.1.28-1.11.05-2.02.09-2.75.12-.63.04-.96.07-.96.1Z"/>
            <path class="st20" d="M296.26,373.54c-1.16.6-1.21,1.56-.72,2.41.49.84,1.6,1.22,2.54.96.62-.17,1.2-.64,1.32-1.28.12-.63-.46-2-1.47-2.21,0,0-1.1-.18-1.68.12Z"/>
          </g>
          <path class="st43" d="M379.47,412.62l-11.94-1.16s-5.4-6.13-7.53-7.99c-2.13-1.86-14.28-7.82-14.28-7.82,0,0-6.32-6.71-7.15-6.61-.84.1-3.42.89-2.3,4.23,1.08,3.21,2.86,7.5,4.17,9.52l-24.02,3.42c-1.51.22-2.9,1.04-3.7,2.35-.53.88-.69,1.79.51,2.22,2.66.95,13.19,2.23,13.19,2.23l-4.71-.63s-.46,4.49,2.68,6.22c3.12,1.72,3.37,2.09,3.37,2.09,0,0,.64,4.12,2.09,5.64,1.45,1.52,15.86,6.87,15.86,6.87,0,0,8.98,1.52,13.34.79l19.48,2.96.94-24.32Z"/>
          <path class="st40" d="M338.13,403.17c.04.24,3.09,0,6.86-.05,3.77-.04,6.87-.22,6.86-.48-.01-.21-3.06-.41-6.88-.38-3.82.05-6.88.68-6.84.91Z"/>
          <path class="st40" d="M342.63,413.48c.04-.27-4.49-.94-10.09-.91-2.8-.02-5.32.03-7.14.05-1.82.02-2.95,0-2.97.13-.01.11,1.11.35,2.95.48,1.83.14,4.37.18,7.16.2,5.58-.03,10.06.25,10.1.05Z"/>
          <path class="st40" d="M343.58,421.36c-.03-.25-3.55.06-7.88-.17-4.33-.21-7.8-.87-7.86-.62-.06.21,3.39,1.27,7.82,1.48,4.42.23,7.96-.47,7.92-.69Z"/>
          <path class="st40" d="M343.19,430.36c.24.01.47-.98.53-2.21.05-1.23-.09-2.24-.33-2.25-.24-.01-.47.98-.53,2.21-.05,1.23.09,2.23.33,2.25Z"/>
          <path class="st40" d="M344.07,419.53c.24-.05.27-.85.59-1.72.29-.88.76-1.53.6-1.72-.13-.19-1.03.31-1.41,1.44-.39,1.12,0,2.07.22,2Z"/>
          <path class="st40" d="M345.55,408.62c.24,0,.43-.54.65-1.14.21-.61.41-1.14.22-1.3-.17-.16-.76.24-1.03,1.01-.28.77-.07,1.44.16,1.43Z"/>
        </g>
      </g>
      <g id="Capa_2">
        <path class="st20" d="M373.37,354.58l-5.04-6.44,6.53-4.92,4.73,6.06c.17.21.13.51-.08.68,0,0-.01,0-.02.01l-6.13,4.61Z"/>
        <polygon class="st20" points="370.85 351.37 368.33 348.14 371.6 345.68 374.12 348.9 370.85 351.37"/>
        <path class="st20" d="M376.63,352.12l2.87-2.16c.22-.16.26-.46.1-.68,0,0,0-.01-.01-.02l-2.21-2.83-3.27,2.47,2.52,3.22Z"/>
        <path class="st20" d="M358.02,352.57l6.53-4.92-5.04-6.44-6.14,4.64c-.22.16-.26.46-.11.67,0,0,0,.01.01.02l4.73,6.03Z"/>
        <polygon class="st20" points="361.28 350.11 364.55 347.65 362.03 344.43 358.76 346.89 361.28 350.11"/>
        <path class="st20" d="M355.5,349.35l-2.21-2.83c-.17-.21-.14-.51.07-.68,0,0,.01,0,.02-.01l2.87-2.16,2.52,3.23-3.26,2.46Z"/>
        <path class="st20" d="M371.11,356.32l-4.92-6.53-6.44,5.04,4.62,6.14c.16.22.46.26.68.1,0,0,.01,0,.02-.01l6.04-4.73Z"/>
        <polygon class="st20" points="368.65 353.05 366.19 349.79 362.97 352.31 365.43 355.57 368.65 353.05"/>
        <path class="st20" d="M367.89,358.84l-2.83,2.21c-.21.17-.51.13-.68-.08,0,0,0-.01-.01-.02l-2.16-2.87,3.23-2.52,2.46,3.26Z"/>
        <path class="st20" d="M361.77,339.47l4.92,6.53,6.44-5.04-4.62-6.13c-.16-.22-.46-.26-.67-.11,0,0-.01,0-.02.01l-6.04,4.73Z"/>
        <polygon class="st20" points="364.23 342.74 366.69 346 369.91 343.48 367.45 340.22 364.23 342.74"/>
        <path class="st20" d="M364.99,336.95l2.83-2.21c.21-.17.51-.14.68.07,0,0,0,.01.01.02l2.16,2.87-3.23,2.52-2.46-3.26Z"/>
      </g>
      <g>
        <g class="st12">
          <path class="st42" d="M76.87,149.22c-.5-.23-1.42-.58-2.62-.59-1.04,0-1.85.25-2.35.44-14.35,15-28.71,30.01-43.06,45.01-.25.46-.83,1.68-.62,3.25.12.93.48,1.63.73,2.05,26.83,26.12,43.83,42.58,44.79,43.04.8.39,1.54.49,2.22.49,1.47,0,2.58-.6,3.12-.95,20.11-20.75,42.53-44.09,42.77-44.61.47-1.02.49-1.96.49-2.42,0,0,.13-1.37-.5-2.59-.13-.24-23.54-22.59-44.99-43.14ZM120.63,192.41c.61,1.19.48,2.52.48,2.52,0,.45-.01,1.35-.48,2.35-.24.51-22.08,23.25-41.67,43.47-.53.34-1.61.93-3.04.92-.66,0-1.38-.1-2.16-.48-.94-.45-17.47-16.45-43.57-41.86-.25-.41-.59-1.09-.71-1.99-.2-1.53.36-2.72.6-3.17,13.98-14.62,27.97-29.24,41.95-43.85.48-.19,1.28-.44,2.29-.43,1.16,0,2.05.34,2.55.57,20.86,19.98,43.64,41.72,43.76,41.95Z"/>
          <path class="st20" d="M120.63,192.41c.61,1.19.48,2.52.48,2.52,0,.45-.01,1.35-.48,2.35-.24.51-22.08,23.25-41.67,43.47-.53.34-1.61.93-3.04.92-.66,0-1.38-.1-2.16-.48-.94-.45-17.47-16.45-43.57-41.86-.25-.41-.59-1.09-.71-1.99-.2-1.53.36-2.72.6-3.17,13.98-14.62,27.97-29.24,41.95-43.85.48-.19,1.28-.44,2.29-.43,1.16,0,2.05.34,2.55.57,20.86,19.98,43.64,41.72,43.76,41.95Z"/>
        </g>
        <path class="st30" d="M59.44,180.59l-12.31,13.4c-.21.3-.71,1.06-.82,2.06-.14,1.34.54,2.13.7,2.31,4.51,4.14,9.01,8.28,13.52,12.43l12.68-13.79c.25-.43.65-1.23.55-2.19-.1-1-.69-1.72-1.09-2.15-1.36-1.48-6.34-6.06-13.23-12.06Z"/>
        <path class="st5" d="M75.64,203.9c-2.82,3.06-5.63,6.12-8.45,9.18-.34.48-.83,1.33-.7,2.32.09.71.47,1.21.71,1.52.96,1.18,4.39,4.43,9.22,8.61,2.81-3.05,5.61-6.1,8.42-9.15.27-.47.7-1.38.54-2.47-.13-.91-.63-1.55-.98-1.95-1.25-1.45-4.42-4.41-8.76-8.06Z"/>
        <path class="st14" d="M85.48,193.18l-3.59,3.9c-.17.26-.57.94-.58,1.88-.01,1.08.49,1.83.66,2.07,3.1,2.85,6.2,5.7,9.3,8.55l3.35-3.65c.19-.33.6-1.15.54-2.27-.06-1.16-.57-1.96-.79-2.26-2.97-2.74-5.94-5.48-8.9-8.23Z"/>
        <path class="st31" d="M94.47,183.41l-3.59,3.9c-.17.26-.57.94-.58,1.88-.01,1.08.49,1.83.66,2.07,3.1,2.85,6.2,5.7,9.3,8.55l3.35-3.65c.19-.33.6-1.15.54-2.27-.06-1.16-.57-1.96-.79-2.26-2.97-2.74-5.94-5.48-8.9-8.23Z"/>
        <path class="st17" d="M89.84,179.18l-3.93-3.55c-.26-.17-.94-.56-1.89-.57-1.08,0-1.82.5-2.07.68-2.82,3.13-5.65,6.25-8.47,9.38l3.68,3.32c.33.18,1.16.59,2.28.52,1.16-.07,1.95-.59,2.25-.81,2.72-2.99,5.43-5.98,8.15-8.97Z"/>
        <path class="st21" d="M80.04,170.17l-3.93-3.55c-.26-.17-.94-.56-1.89-.57-1.08,0-1.82.5-2.07.68-2.82,3.13-5.65,6.25-8.47,9.38l3.68,3.32c.33.18,1.16.59,2.28.52,1.16-.07,1.95-.59,2.25-.81,2.72-2.99,5.43-5.98,8.15-8.97Z"/>
      </g>
      <g class="st29">
        <path class="st42" d="M610.07,149.23c-.5-.23-1.42-.58-2.62-.59-1.04,0-1.85.25-2.35.44-14.35,15-28.71,30.01-43.06,45.01-.25.46-.83,1.68-.62,3.25.12.93.48,1.63.73,2.05,26.83,26.12,43.83,42.58,44.79,43.04.8.39,1.54.49,2.22.49,1.47,0,2.58-.6,3.12-.95,20.11-20.75,42.53-44.09,42.77-44.61.47-1.02.49-1.96.49-2.42,0,0,.13-1.37-.5-2.59-.13-.24-23.54-22.59-44.99-43.14ZM653.82,192.42c.61,1.19.48,2.52.48,2.52,0,.45-.01,1.35-.48,2.35-.24.51-22.08,23.25-41.67,43.47-.53.34-1.61.93-3.04.92-.66,0-1.38-.1-2.16-.48-.94-.45-17.47-16.45-43.57-41.86-.25-.41-.59-1.09-.71-1.99-.2-1.53.36-2.72.6-3.17,13.98-14.62,27.97-29.24,41.95-43.85.48-.19,1.28-.44,2.29-.43,1.16,0,2.05.34,2.55.57,20.86,19.98,43.64,41.72,43.76,41.95Z"/>
        <path class="st20" d="M653.82,192.42c.61,1.19.48,2.52.48,2.52,0,.45-.01,1.35-.48,2.35-.24.51-22.08,23.25-41.67,43.47-.53.34-1.61.93-3.04.92-.66,0-1.38-.1-2.16-.48-.94-.45-17.47-16.45-43.57-41.86-.25-.41-.59-1.09-.71-1.99-.2-1.53.36-2.72.6-3.17,13.98-14.62,27.97-29.24,41.95-43.85.48-.19,1.28-.44,2.29-.43,1.16,0,2.05.34,2.55.57,20.86,19.98,43.64,41.72,43.76,41.95Z"/>
      </g>
      <g>
        <path class="st34" d="M610.3,192.13l-11.84-11.14c-.27-.19-.97-.61-1.96-.61-1.33,0-2.21.78-2.41.97-4.76,5.05-9.51,10.1-14.27,15.15l12.18,11.47c.15.12.91.69,1.98.57.91-.11,1.47-.65,1.62-.81,4.89-5.2,9.79-10.39,14.68-15.59Z"/>
        <path class="st15" d="M637.12,194.84l-11.84-11.14c-.29-.16-1.08-.5-2.38-.17-1.76.45-3.18,1.81-3.51,2.13-8,8.49-15.99,16.99-23.99,25.48l12.18,11.47c.16.11.96.63,2.42.1,1.23-.45,2.16-1.38,2.42-1.65,8.23-8.74,16.46-17.48,24.69-26.22Z"/>
        <path class="st7" d="M623.38,193.84l-11.84-11.14c-.28-.17-1.02-.56-2.15-.4-1.53.21-2.67,1.26-2.93,1.52-6.28,6.67-12.56,13.34-18.84,20.01l12.18,11.47c.15.11.94.67,2.19.35,1.06-.27,1.79-.99,2-1.21,6.46-6.86,12.92-13.73,19.38-20.59Z"/>
      </g>
    </g>
  </g>
</svg>