<?xml version="1.0" encoding="UTF-8"?>
<svg xmlns="http://www.w3.org/2000/svg" version="1.1" xmlns:xlink="http://www.w3.org/1999/xlink" viewBox="0 0 900 624.71">
  <!-- Generator: Adobe Illustrator 30.2.1, SVG Export Plug-In . SVG Version: 2.1.1 Build 1)  -->
  <defs>
    <style>
      .st0 {
        fill: #263238;
      }

      .st1 {
        mix-blend-mode: color-burn;
        opacity: .38;
      }

      .st2 {
        fill: #ad0449;
      }

      .st3 {
        opacity: .3;
      }

      .st4 {
        fill: #c27460;
      }

      .st5 {
        fill: #fff;
      }

      .st6 {
        fill: #e0e0e0;
      }

      .st7 {
        fill: none;
      }

      .st8 {
        fill: #455a64;
      }

      .st9 {
        filter: url(#drop-shadow-1);
      }

      .st10 {
        fill: #7c4235;
      }

      .st11 {
        isolation: isolate;
      }

      .st12 {
        fill: #bd0043;
      }

      .st13 {
        fill: #ebebeb;
      }

      .st14 {
        fill: #f5f5f5;
      }
    </style>
    <filter id="drop-shadow-1" x="353" y="158.94" width="222" height="80" filterUnits="userSpaceOnUse">
      <feOffset dx="5" dy="5"/>
      <feGaussianBlur result="blur" stdDeviation="3"/>
      <feFlood flood-color="#828282" flood-opacity=".48"/>
      <feComposite in2="blur" operator="in"/>
      <feComposite in="SourceGraphic"/>
    </filter>
  </defs>
  <g class="st11">
    <g id="Capa_1">
      <path class="st13" d="M183.73,351.46c3.35-2.02,6.92-3.56,10.59-4.6l2.18-10.49,17.72-.31,2.55,10.4c3.71.91,7.33,2.32,10.75,4.23l8.95-5.87,12.75,12.31-5.55,9.15c2.03,3.35,3.56,6.92,4.6,10.6l10.49,2.18.31,17.72-10.4,2.55c-.91,3.71-2.32,7.33-4.23,10.75l5.87,8.96-12.31,12.75-9.15-5.55c-3.35,2.02-6.92,3.56-10.6,4.6l-2.18,10.49-17.72.31-2.55-10.4c-3.71-.92-7.33-2.32-10.75-4.23l-8.95,5.87-12.75-12.31,5.55-9.15c-2.02-3.35-3.56-6.92-4.6-10.6l-10.49-2.18-.31-17.72,10.4-2.55c.91-3.71,2.32-7.33,4.23-10.75l-5.87-8.95,12.31-12.75,9.16,5.55h0ZM193.18,375.06c-7.29,7.55-7.08,19.59.47,26.88,7.55,7.29,19.59,7.08,26.88-.47,7.29-7.55,7.08-19.59-.47-26.88-7.55-7.29-19.59-7.08-26.88.47Z"/>
      <path class="st6" d="M63.95,111.53c2.13-1.28,4.39-2.26,6.72-2.92l1.38-6.65,11.24-.2,1.62,6.6c2.36.58,4.65,1.47,6.82,2.68l5.68-3.72,8.09,7.81-3.52,5.81c1.28,2.13,2.26,4.39,2.92,6.72l6.65,1.38.2,11.24-6.6,1.62c-.58,2.35-1.47,4.65-2.68,6.82l3.72,5.68-7.81,8.09-5.81-3.52c-2.13,1.28-4.39,2.26-6.72,2.92l-1.38,6.65-11.24.2-1.62-6.6c-2.36-.58-4.65-1.47-6.82-2.68l-5.68,3.72-8.09-7.81,3.52-5.81c-1.28-2.13-2.26-4.39-2.92-6.72l-6.65-1.38-.2-11.24,6.6-1.62c.58-2.35,1.47-4.65,2.68-6.82l-3.72-5.68,7.81-8.09,5.81,3.52h0ZM69.94,126.5c-4.63,4.79-4.49,12.43.3,17.05,4.79,4.63,12.43,4.49,17.05-.3,4.63-4.79,4.49-12.43-.3-17.05-4.79-4.63-12.43-4.49-17.05.3Z"/>
      <path class="st6" d="M775.72,116.88c2.86-1.73,5.91-3.04,9.05-3.93l1.86-8.95,15.13-.27,2.18,8.88c3.17.78,6.26,1.98,9.18,3.61l7.65-5.01,10.88,10.51-4.74,7.82c1.73,2.86,3.04,5.91,3.93,9.05l8.95,1.86.27,15.13-8.88,2.18c-.78,3.17-1.98,6.26-3.61,9.18l5.01,7.65-10.51,10.89-7.82-4.74c-2.86,1.73-5.91,3.04-9.05,3.93l-1.86,8.95-15.13.27-2.18-8.88c-3.17-.78-6.26-1.98-9.18-3.61l-7.65,5.01-10.89-10.51,4.74-7.82c-1.73-2.86-3.04-5.91-3.93-9.05l-8.95-1.86-.27-15.13,8.88-2.18c.78-3.17,1.98-6.26,3.61-9.18l-5.01-7.65,10.51-10.89,7.82,4.74h0ZM783.78,137.03c-6.23,6.45-6.05,16.72.4,22.95,6.45,6.23,16.72,6.05,22.95-.4,6.23-6.45,6.05-16.72-.4-22.95-6.45-6.23-16.72-6.05-22.95.4Z"/>
      <path class="st14" d="M561.87,357.34c2.47-1.49,5.1-2.63,7.82-3.4l1.61-7.74,13.07-.23,1.88,7.67c2.74.67,5.41,1.71,7.93,3.12l6.61-4.33,9.4,9.08-4.09,6.75c1.49,2.47,2.63,5.1,3.4,7.82l7.74,1.61.23,13.07-7.67,1.88c-.67,2.74-1.71,5.41-3.12,7.93l4.33,6.61-9.08,9.41-6.75-4.09c-2.47,1.49-5.1,2.63-7.82,3.4l-1.61,7.74-13.07.23-1.88-7.68c-2.74-.68-5.41-1.71-7.93-3.12l-6.61,4.33-9.41-9.08,4.09-6.75c-1.49-2.47-2.63-5.1-3.4-7.82l-7.74-1.61-.23-13.07,7.68-1.88c.67-2.74,1.71-5.41,3.12-7.93l-4.33-6.61,9.08-9.41,6.75,4.1h0ZM568.84,374.75c-5.38,5.57-5.22,14.45.35,19.83,5.57,5.38,14.45,5.22,19.83-.35,5.38-5.57,5.22-14.45-.35-19.83-5.57-5.38-14.45-5.22-19.83.35Z"/>
      <path class="st6" d="M830.24,66.62c1.13-.68,2.33-1.2,3.57-1.55l.74-3.53,5.97-.1.86,3.51c1.25.31,2.47.78,3.62,1.43l3.02-1.98,4.3,4.15-1.87,3.09c.68,1.13,1.2,2.33,1.55,3.57l3.53.74.11,5.97-3.51.86c-.31,1.25-.78,2.47-1.43,3.62l1.98,3.02-4.15,4.3-3.09-1.87c-1.13.68-2.33,1.2-3.57,1.55l-.74,3.53-5.97.1-.86-3.51c-1.25-.31-2.47-.78-3.62-1.43l-3.02,1.98-4.3-4.15,1.87-3.09c-.68-1.13-1.2-2.33-1.55-3.57l-3.53-.74-.1-5.97,3.51-.86c.31-1.25.78-2.47,1.43-3.62l-1.98-3.02,4.15-4.3,3.09,1.87h0ZM833.43,74.58c-2.46,2.55-2.39,6.6.16,9.06,2.55,2.46,6.6,2.39,9.06-.16,2.46-2.55,2.39-6.6-.16-9.06-2.55-2.46-6.6-2.39-9.06.16Z"/>
      <path class="st14" d="M823.06,252.74c1.13-.68,2.33-1.2,3.57-1.55l.74-3.53,5.97-.1.86,3.51c1.25.31,2.47.78,3.62,1.43l3.02-1.98,4.3,4.15-1.87,3.08c.68,1.13,1.2,2.33,1.55,3.57l3.53.74.1,5.97-3.51.86c-.31,1.25-.78,2.47-1.43,3.62l1.98,3.02-4.15,4.3-3.09-1.87c-1.13.68-2.33,1.2-3.57,1.55l-.74,3.53-5.97.1-.86-3.51c-1.25-.31-2.47-.78-3.62-1.43l-3.02,1.98-4.3-4.15,1.87-3.09c-.68-1.13-1.2-2.33-1.55-3.57l-3.53-.74-.1-5.97,3.51-.86c.31-1.25.78-2.47,1.43-3.62l-1.98-3.02,4.15-4.3,3.09,1.87h0ZM826.25,260.7c-2.46,2.55-2.39,6.6.16,9.06s6.6,2.39,9.06-.16,2.39-6.6-.16-9.06c-2.55-2.46-6.6-2.39-9.06.16Z"/>
      <g>
        <path class="st14" d="M808.71,325.43c.43,26.74-20.88,48.84-47.49,49.27-26.61.43-48.62-20.97-49.04-47.71-.43-26.74,20.88-48.84,47.49-49.27,26.62-.43,48.62,20.97,49.04,47.71ZM737.36,326.58c.2,12.78,10.72,23.02,23.45,22.81,12.73-.21,22.91-10.77,22.71-23.56-.2-12.78-10.72-23.02-23.45-22.81-12.73.21-22.91,10.77-22.71,23.56Z"/>
        <path class="st8" d="M808.71,325.43c.43,26.74-20.88,48.84-47.49,49.27l-.4-25.31c12.73-.21,22.91-10.77,22.71-23.56-.2-12.78-10.72-23.02-23.45-22.81l-.4-25.31c26.62-.43,48.62,20.97,49.04,47.71Z"/>
        <g>
          <path class="st7" d="M808.71,325.43c.43,26.74-20.88,48.84-47.49,49.27-26.61.43-48.62-20.97-49.04-47.71-.43-26.74,20.88-48.84,47.49-49.27,26.62-.43,48.62,20.97,49.04,47.71ZM737.36,326.58c.2,12.78,10.72,23.02,23.45,22.81,12.73-.21,22.91-10.77,22.71-23.56-.2-12.78-10.72-23.02-23.45-22.81-12.73.21-22.91,10.77-22.71,23.56Z"/>
          <path class="st0" d="M737.36,326.58s-.02-.13-.02-.37c0-.29,0-.65,0-1.1,0-.49.01-1.09.12-1.79.08-.71.16-1.52.4-2.42.35-1.81,1.13-3.97,2.4-6.27,1.28-2.29,3.16-4.7,5.75-6.78,2.59-2.06,5.89-3.83,9.73-4.61,3.82-.75,8.16-.71,12.32.79,2.09.69,4.12,1.75,5.98,3.1.96.64,1.81,1.45,2.69,2.22.8.86,1.64,1.7,2.34,2.68,2.94,3.8,4.65,8.71,4.78,13.79.04,5.09-1.51,10.06-4.33,13.95-.66,1-1.47,1.87-2.25,2.76-.86.81-1.68,1.64-2.62,2.31-1.82,1.41-3.81,2.54-5.88,3.29-4.11,1.64-8.44,1.81-12.28,1.19-3.87-.65-7.22-2.32-9.87-4.29-2.66-1.99-4.62-4.34-5.97-6.59-1.34-2.26-2.19-4.39-2.6-6.19-.27-.89-.37-1.7-.48-2.4-.13-.7-.17-1.3-.18-1.79-.02-.45-.03-.82-.04-1.1,0-.25,0-.38,0-.38.12-.01,0,2.06.94,5.6.44,1.77,1.32,3.86,2.67,6.06,1.36,2.19,3.31,4.48,5.93,6.41,2.62,1.91,5.91,3.51,9.69,4.13,3.75.59,7.98.39,11.97-1.22,2.01-.74,3.94-1.84,5.71-3.22.91-.65,1.71-1.47,2.54-2.25.75-.86,1.54-1.71,2.18-2.69,2.73-3.79,4.23-8.61,4.2-13.56-.12-4.94-1.78-9.71-4.63-13.41-.67-.95-1.49-1.78-2.27-2.61-.86-.76-1.68-1.54-2.61-2.17-1.81-1.32-3.78-2.36-5.81-3.04-4.04-1.48-8.27-1.54-12-.83-3.76.73-6.99,2.45-9.55,4.44-2.56,2.01-4.43,4.36-5.72,6.59-1.28,2.25-2.09,4.36-2.47,6.15-.83,3.57-.64,5.64-.76,5.63Z"/>
          <path class="st0" d="M808.71,325.43s-.04-.26-.09-.78c-.04-.54-.11-1.3-.19-2.29-.04-.51-.08-1.07-.13-1.69-.07-.62-.22-1.29-.34-2.01-.25-1.45-.5-3.14-1.08-4.97-.91-3.72-2.72-8.11-5.54-12.75-2.84-4.62-6.91-9.44-12.43-13.5-5.49-4.02-12.41-7.42-20.36-8.72-1.99-.25-4.01-.63-6.09-.61-1.04-.02-2.08-.1-3.14-.07-1.05.07-2.11.14-3.18.22-.53.05-1.07.05-1.6.13l-1.6.27c-1.07.2-2.15.34-3.22.58-2.11.61-4.3,1.09-6.37,2-2.14.73-4.15,1.84-6.21,2.87-1,.58-1.96,1.23-2.96,1.85-1.01.59-1.93,1.33-2.86,2.06-1.93,1.38-3.6,3.09-5.36,4.74-.79.91-1.59,1.82-2.39,2.73l-.6.69-.53.74-1.07,1.49-1.08,1.5-.94,1.6-.94,1.61-.47.81-.39.85c-.52,1.13-1.05,2.27-1.57,3.42-.41,1.19-.83,2.38-1.24,3.58-1.48,4.85-2.24,9.98-2.23,15.2.15,5.21,1.07,10.32,2.71,15.12.45,1.18.91,2.36,1.36,3.54.56,1.13,1.12,2.25,1.68,3.37l.42.84.5.79.99,1.58.99,1.57,1.13,1.46,1.12,1.46.56.73.62.67c.83.89,1.66,1.78,2.48,2.66,1.81,1.59,3.54,3.25,5.51,4.57.95.7,1.89,1.41,2.92,1.96,1.01.58,2,1.21,3.01,1.75,2.1.97,4.14,2.01,6.3,2.67,2.1.84,4.3,1.25,6.43,1.79,1.08.21,2.17.32,3.24.48l1.61.22c.53.07,1.07.05,1.61.08,1.07.04,2.13.08,3.18.11,1.05,0,2.1-.12,3.13-.17,2.08-.04,4.08-.49,6.07-.81,7.9-1.56,14.71-5.17,20.07-9.37,5.38-4.24,9.29-9.18,11.99-13.89,2.67-4.73,4.34-9.17,5.13-12.92.53-1.85.72-3.54.92-5.01.1-.73.22-1.4.27-2.02.03-.62.05-1.18.07-1.69.05-.99.09-1.76.11-2.3.03-.52.06-.78.06-.78,0,0,.01.27,0,.78-.01.54-.03,1.31-.05,2.3-.01.51-.03,1.08-.04,1.7-.04.62-.16,1.3-.24,2.04-.19,1.47-.36,3.18-.87,5.04-.75,3.78-2.4,8.26-5.06,13.05-2.68,4.76-6.6,9.77-12.02,14.08-5.39,4.26-12.26,7.94-20.25,9.55-2.01.32-4.03.78-6.14.84-1.05.06-2.1.18-3.17.18-1.07-.04-2.14-.07-3.22-.11-.54-.03-1.09-.01-1.63-.08l-1.63-.22c-1.09-.16-2.19-.27-3.28-.48-2.16-.54-4.39-.95-6.52-1.8-2.2-.66-4.26-1.72-6.39-2.7-1.03-.55-2.03-1.18-3.06-1.77-1.05-.56-2-1.28-2.97-1.99-2-1.33-3.75-3.01-5.59-4.62-.83-.89-1.67-1.79-2.52-2.69l-.63-.68-.57-.74-1.14-1.48-1.14-1.48-1-1.59-1-1.6-.5-.8-.43-.85c-.57-1.13-1.13-2.27-1.71-3.41-.46-1.19-.92-2.39-1.38-3.59-1.66-4.87-2.6-10.05-2.75-15.33-.01-5.28.76-10.49,2.26-15.41.42-1.21.84-2.42,1.26-3.63.53-1.16,1.07-2.31,1.6-3.46l.4-.86.48-.82.95-1.63.95-1.62,1.09-1.52,1.09-1.51.54-.75.61-.7c.81-.93,1.62-1.85,2.43-2.77,1.78-1.67,3.48-3.4,5.43-4.8.94-.74,1.87-1.48,2.9-2.08,1.01-.62,1.98-1.28,3-1.87,2.1-1.05,4.13-2.17,6.3-2.9,2.1-.92,4.32-1.4,6.46-2.01,1.08-.25,2.19-.39,3.27-.59l1.62-.27c.54-.08,1.08-.09,1.62-.13,1.08-.07,2.15-.14,3.22-.21,1.06-.03,2.12.06,3.17.08,2.11-.02,4.15.38,6.16.64,8.04,1.34,15.02,4.8,20.55,8.88,5.55,4.13,9.63,9.01,12.46,13.68,2.81,4.7,4.6,9.13,5.48,12.88.57,1.85.79,3.55,1.03,5.01.11.73.24,1.41.31,2.03.04.62.07,1.19.1,1.7.05.99.09,1.76.12,2.3.02.52.02.78.02.78Z"/>
        </g>
        <g>
          <path class="st12" d="M765.55,378.59c-31.14.5-55.98-23.66-56.48-54.94l29.47-.48c.24,14.96,11.62,24.37,26.51,24.13l.5,31.29Z"/>
          <path class="st0" d="M765.55,378.59s-.02-.21-.04-.58c-.01-.41-.03-.95-.05-1.65-.04-1.48-.09-3.58-.16-6.27-.12-5.44-.29-13.22-.5-22.78l.25.24c-2.83.02-5.84-.26-8.87-1.08-3.02-.82-6.07-2.2-8.79-4.28-2.71-2.07-5.06-4.84-6.66-8.13-1.61-3.28-2.46-7.04-2.52-10.88l.33.32c-7.22.12-14.91.25-22.82.38-2.28.04-4.54.07-6.65.11l.33-.34c.17,6.1,1.22,11.99,3,17.43.5,1.34,1,2.66,1.49,3.98.56,1.29,1.21,2.51,1.8,3.75.56,1.26,1.3,2.4,2.01,3.53.73,1.12,1.34,2.31,2.18,3.32.79,1.04,1.58,2.07,2.35,3.08.82.97,1.71,1.86,2.54,2.78.42.45.84.9,1.25,1.35.46.4.91.8,1.36,1.2.9.79,1.78,1.57,2.65,2.34,3.7,2.78,7.33,5.16,10.93,6.74.89.41,1.76.82,2.61,1.21.87.34,1.74.61,2.57.91.83.29,1.65.57,2.43.85.79.25,1.59.4,2.34.6.76.18,1.49.36,2.19.53.35.09.7.17,1.03.25.34.06.68.1,1.01.15,1.32.19,2.52.36,3.61.51,1.09.2,2.04.17,2.87.23.83.04,1.53.08,2.12.11.55.03.99.06,1.32.07.3.02.46.03.47.04,0,0-.14.01-.42,0-.32,0-.75,0-1.3-.01-.59,0-1.31-.02-2.15-.03-.85-.03-1.85.01-2.93-.17-1.09-.14-2.31-.29-3.63-.45-.33-.05-.67-.08-1.02-.14-.34-.08-.69-.16-1.04-.24-.71-.16-1.45-.33-2.21-.51-.76-.19-1.56-.33-2.36-.57-.79-.27-1.61-.55-2.46-.83-.84-.29-1.72-.56-2.6-.9-.86-.39-1.74-.79-2.64-1.2-3.65-1.57-7.32-3.95-11.07-6.74-.88-.77-1.78-1.55-2.69-2.35-.46-.4-.91-.8-1.38-1.21-.42-.45-.85-.9-1.27-1.36-.84-.92-1.74-1.82-2.58-2.8-.78-1.02-1.58-2.06-2.38-3.1-.86-1.01-1.48-2.21-2.22-3.35-.72-1.15-1.47-2.3-2.04-3.57-.6-1.25-1.27-2.49-1.83-3.79-.5-1.33-1.01-2.67-1.52-4.02-1.81-5.49-2.88-11.45-3.06-17.62v-.33s.33,0,.33,0c2.11-.03,4.37-.07,6.65-.11,7.91-.12,15.6-.24,22.82-.36h.32s0,.32,0,.32c.05,3.76.87,7.42,2.43,10.62,1.55,3.2,3.82,5.91,6.46,7.93,2.64,2.04,5.61,3.4,8.57,4.22,2.97.82,5.92,1.11,8.71,1.11h.25v.24c.1,9.62.18,17.46.24,22.93.02,2.67.03,4.76.04,6.22,0,.68,0,1.21,0,1.61,0,.36,0,.54-.02.53Z"/>
        </g>
      </g>
      <g>
        <rect class="st5" x="535.34" y="47.17" width="255.47" height="190.97"/>
        <rect class="st6" x="535.34" y="47.17" width="255.47" height="23.61"/>
        <circle class="st5" cx="549.33" cy="58.97" r="3.4"/>
        <circle class="st5" cx="560.8" cy="58.97" r="3.4"/>
        <circle class="st5" cx="572.27" cy="58.97" r="3.4"/>
        <path class="st0" d="M790.81,238.14s-.02-1.2-.03-3.49c0-2.3-.02-5.7-.03-10.14-.02-8.89-.04-21.92-.07-38.58-.03-33.28-.08-80.99-.14-138.76l.27.27c-72.04.02-160.27.04-255.45.06h-.02l.33-.33c-.01,68.63-.02,133.65-.03,190.97l-.3-.3c75.65.06,139.48.11,184.41.15,22.48.03,40.23.06,52.37.08,6.07.02,10.73.03,13.89.04,1.57,0,2.77.01,3.58.02.8,0,1.22.02,1.22.02,0,0-.39.01-1.19.02-.8,0-1.99,0-3.55.02-3.14,0-7.79.02-13.83.04-12.12.02-29.85.05-52.3.08-44.98.04-108.87.09-184.61.15h-.3s0-.3,0-.3c0-57.33-.02-122.34-.03-190.97v-.33h.36c95.18.02,183.41.04,255.45.06h.27v.27c-.06,57.85-.11,105.62-.14,138.94-.03,16.63-.05,29.64-.07,38.51-.01,4.42-.02,7.8-.03,10.09-.01,2.28-.03,3.43-.03,3.43Z"/>
        <path class="st6" d="M776.74,162.26c0,.18-50.84.33-113.54.33s-113.55-.15-113.55-.33,50.83-.33,113.55-.33,113.54.15,113.54.33Z"/>
        <path class="st6" d="M776.74,142.65c0,.18-50.84.33-113.54.33s-113.55-.15-113.55-.33,50.83-.33,113.55-.33,113.54.15,113.54.33Z"/>
        <path class="st6" d="M776.74,123.05c0,.18-50.84.33-113.54.33s-113.55-.15-113.55-.33,50.83-.33,113.55-.33,113.54.15,113.54.33Z"/>
        <path class="st6" d="M776.74,103.44c0,.18-50.84.33-113.54.33s-113.55-.15-113.55-.33,50.83-.33,113.55-.33,113.54.15,113.54.33Z"/>
        <path class="st8" d="M760.78,161.53c-4.43-10.68-7.46-22.35-10.85-33.41-2.95-9.63-3.23-14.13-5.76-22.27-3.99-12.81-14.56-14.23-22.25-10.76-6.85,3.09-9.8,11.14-12.08,18.39l-8.15,25.99c-1.29,4.1-2.6,8.27-4.97,11.85-2.37,3.58-5.97,6.54-10.19,7.1-6.94.92-13.16-4.9-16.13-11.33-2.97-6.43-3.79-13.68-6.45-20.25-2.65-6.57-8.12-12.87-15.12-13-8.62-.16-14.48,8.64-18.06,16.59-4.51,10.01-8.15,20.42-10.87,31.08-.93,3.63-1.77,7.35-3.61,10.6-1.84,3.25-4.91,6.03-8.58,6.48-4.73.58-9.13-2.79-11.88-6.74-2.75-3.95-4.45-8.58-7.27-12.48-2.82-3.9-7.36-7.14-12.06-6.32-4.22.74-7.24,4.43-9.74,7.96-6.74,9.53-12.59,19.71-17.44,30.36h234.9c-10.82-3.73-19.01-19.16-23.44-29.84Z"/>
        <rect class="st12" x="604.23" y="206.75" width="11.09" height="11.09"/>
        <path class="st0" d="M684.7,212.3h-57.85c-.7,0-1.27-.57-1.27-1.27h0c0-.7.57-1.27,1.27-1.27h57.85c.7,0,1.27.57,1.27,1.27h0c0,.7-.57,1.27-1.27,1.27Z"/>
        <path class="st0" d="M774.03,191.37s-.29.02-.85.03c-.58,0-1.41.02-2.48.03-2.2.01-5.41.04-9.54.06-8.3.03-20.28.06-35.08.11-29.64.03-70.54.06-115.73.1-21.62,0-42.26-.02-61.04-.02h-.31v-.31c.05-30.1.09-55.75.12-73.9.04-9.05.07-16.23.09-21.17.02-2.44.04-4.33.05-5.63.01-.62.02-1.1.03-1.45,0-.33.03-.49.03-.49,0,0,.02.17.03.49,0,.35.01.83.03,1.45.01,1.3.03,3.19.05,5.63.02,4.94.05,12.12.09,21.17.03,18.15.07,43.81.12,73.9l-.31-.31c18.79,0,39.42-.02,61.04-.02,45.18.04,86.09.07,115.73.1,14.79.04,26.77.08,35.08.11,4.13.03,7.33.05,9.54.06,1.07.01,1.9.03,2.48.03.56.01.85.03.85.03Z"/>
        <g class="st3">
          <polygon class="st5" points="746.44 114.46 663.08 191.37 704.76 191.37 754.95 144.91 746.44 114.46"/>
        </g>
        <g class="st3">
          <polyline class="st5" points="673 151.44 627.14 191.37 615.32 191.37 669.49 144.92 674.2 152.92"/>
        </g>
        <path class="st0" d="M549.33,191.37s2.29-5.69,7.71-15.34c2.74-4.81,6.26-10.59,10.91-16.94,1.2-1.56,2.56-3.12,4.28-4.38,1.7-1.26,3.89-2.1,6.18-1.99,2.29.1,4.52,1.08,6.42,2.5,1.92,1.42,3.54,3.3,4.87,5.41,2.71,4.16,4.44,9.19,8.03,13.18,1.8,1.93,4.07,3.63,6.73,4.3,1.32.32,2.73.37,4.08.05,1.35-.31,2.63-.95,3.76-1.82,2.28-1.73,3.92-4.24,5-7,1.11-2.76,1.76-5.74,2.54-8.74,1.55-6,3.45-12.1,5.72-18.24,1.13-3.07,2.36-6.15,3.69-9.22,1.32-3.07,2.73-6.19,4.56-9.11,1.83-2.9,4.01-5.73,6.91-7.8,1.44-1.03,3.06-1.88,4.82-2.32,1.76-.42,3.61-.5,5.4-.16,3.62.69,6.74,3,9.07,5.79,2.37,2.81,4.04,6.18,5.19,9.68,1.18,3.5,1.99,7.12,3.01,10.69,1.03,3.55,2.23,7.13,4.3,10.22,2.06,3.07,4.82,5.77,8.21,7.14,3.36,1.42,7.3,1.09,10.34-.84,3.1-1.86,5.37-4.82,6.95-8.01,1.6-3.21,2.62-6.65,3.69-10.04,2.13-6.78,4.22-13.45,6.27-19.97,1.04-3.26,1.98-6.51,3.15-9.67,1.16-3.15,2.57-6.22,4.56-8.87,1-1.32,2.15-2.53,3.48-3.5,1.32-.99,2.82-1.7,4.34-2.23,1.53-.53,3.12-.82,4.71-.95,1.6-.1,3.19.06,4.73.4,3.06.79,5.83,2.54,7.72,4.94,1.95,2.36,3.15,5.18,4,7.96,1.72,5.58,2.66,11.13,4.04,16.33.67,2.61,1.45,5.12,2.2,7.6.73,2.48,1.45,4.91,2.15,7.28,2.77,9.48,5.44,18.02,8.55,25.22,3.09,7.2,6.42,13.12,9.72,17.54,3.28,4.44,6.53,7.32,8.97,8.88,1.25.74,2.21,1.28,2.91,1.54.68.3,1.03.47,1.03.47,0,0-.36-.13-1.05-.4-.71-.24-1.69-.77-2.96-1.49-2.48-1.53-5.78-4.41-9.11-8.84-3.35-4.42-6.73-10.34-9.86-17.55-3.15-7.21-5.86-15.76-8.66-25.24-.71-2.37-1.43-4.79-2.17-7.27-.75-2.47-1.54-5-2.22-7.62-1.4-5.22-2.35-10.77-4.07-16.3-.85-2.75-2.01-5.48-3.91-7.76-1.84-2.32-4.49-3.98-7.42-4.73-1.48-.32-3.01-.47-4.56-.37-1.54.13-3.07.41-4.56.93-2.98.98-5.63,2.92-7.53,5.53-1.94,2.58-3.32,5.59-4.47,8.72-1.15,3.12-2.09,6.38-3.13,9.64-2.04,6.53-4.13,13.19-6.26,19.98-1.07,3.38-2.09,6.86-3.72,10.14-1.61,3.26-3.96,6.33-7.2,8.28-1.61.96-3.43,1.65-5.34,1.78-1.9.17-3.83-.17-5.6-.89-3.56-1.45-6.4-4.23-8.51-7.39-2.14-3.2-3.35-6.84-4.38-10.41-1.03-3.59-1.84-7.2-3-10.66-1.13-3.47-2.76-6.74-5.06-9.47-2.27-2.72-5.27-4.93-8.69-5.58-1.7-.33-3.45-.25-5.12.14-1.67.41-3.21,1.22-4.6,2.21-2.8,1.99-4.94,4.76-6.74,7.61-1.81,2.88-3.2,5.95-4.52,9.02-1.32,3.07-2.56,6.13-3.69,9.19-2.27,6.11-4.17,12.19-5.73,18.17-.79,2.98-1.44,5.99-2.58,8.81-1.11,2.81-2.81,5.43-5.19,7.23-1.18.9-2.53,1.58-3.97,1.91-1.44.33-2.93.28-4.33-.06-2.81-.71-5.13-2.48-6.98-4.47-3.68-4.12-5.38-9.16-8.05-13.27-1.3-2.08-2.88-3.91-4.74-5.3-1.84-1.39-3.99-2.34-6.17-2.44-2.18-.12-4.27.67-5.93,1.89-1.68,1.21-3.02,2.74-4.22,4.28-4.66,6.3-8.21,12.07-10.98,16.84-2.76,4.79-4.7,8.62-5.99,11.22-.63,1.3-1.11,2.29-1.44,2.98-.32.67-.5,1.01-.5,1.01Z"/>
      </g>
      <g>
        <rect class="st5" x="219.51" y="309.9" width="229.81" height="138.13"/>
        <rect class="st6" x="219.51" y="309.9" width="229.81" height="21.23"/>
        <path class="st5" d="M235.15,320.51c0,1.69-1.37,3.06-3.06,3.06s-3.06-1.37-3.06-3.06,1.37-3.06,3.06-3.06,3.06,1.37,3.06,3.06Z"/>
        <path class="st5" d="M245.47,320.51c0,1.69-1.37,3.06-3.06,3.06s-3.06-1.37-3.06-3.06,1.37-3.06,3.06-3.06,3.06,1.37,3.06,3.06Z"/>
        <path class="st5" d="M255.78,320.51c0,1.69-1.37,3.06-3.06,3.06s-3.06-1.37-3.06-3.06,1.37-3.06,3.06-3.06,3.06,1.37,3.06,3.06Z"/>
        <path class="st0" d="M449.31,448.03s-.02-.85-.03-2.49c0-1.64-.02-4.07-.03-7.24-.02-6.35-.04-15.69-.07-27.67-.03-23.94-.08-58.44-.14-100.74l.26.26c-62.06.02-142.36.05-229.79.07h-.02l.33-.33c0,48.93-.02,95.63-.02,138.13l-.31-.31c67.39.06,124.8.11,165.38.15,20.3.04,36.39.06,47.42.08,5.51.02,9.75.03,12.63.04,1.43,0,2.52.01,3.26.02.73,0,1.12.02,1.12.02,0,0-.36.01-1.08.02-.74,0-1.81.01-3.23.02-2.86,0-7.08.02-12.57.04-11.01.02-27.08.05-47.35.08-40.63.04-98.11.09-165.58.15h-.31s0-.31,0-.31c0-42.5-.02-89.2-.02-138.13v-.33h.35c87.42.03,167.73.05,229.79.07h.26s0,.26,0,.26c-.06,42.36-.1,76.92-.14,100.9-.03,11.96-.05,21.27-.07,27.61-.01,3.15-.02,5.56-.03,7.19,0,1.62-.03,2.44-.03,2.44Z"/>
        <g>
          <rect class="st12" x="244.68" y="354.39" width="9.77" height="71.52"/>
          <rect class="st12" x="263.54" y="378.68" width="9.77" height="47.23"/>
          <rect class="st12" x="282.39" y="363.28" width="9.77" height="62.99"/>
          <rect class="st12" x="301.25" y="357.15" width="9.77" height="68.76"/>
          <rect class="st12" x="320.1" y="380.14" width="9.77" height="45.78"/>
          <rect class="st12" x="338.96" y="389.11" width="9.77" height="36.8"/>
          <rect class="st12" x="357.81" y="361.73" width="9.77" height="64.18"/>
          <rect class="st12" x="376.67" y="373.3" width="9.77" height="52.61"/>
          <rect class="st12" x="395.52" y="364.06" width="9.77" height="61.85"/>
          <rect class="st12" x="414.38" y="383.77" width="9.77" height="42.14"/>
          <g class="st3">
            <rect class="st5" x="263.54" y="378.68" width="9.77" height="47.23"/>
          </g>
          <g class="st3">
            <rect class="st5" x="301.25" y="357.15" width="9.77" height="68.76"/>
          </g>
          <g class="st3">
            <rect class="st5" x="338.96" y="389.11" width="9.77" height="36.8"/>
          </g>
          <g class="st3">
            <rect class="st5" x="376.67" y="373.3" width="9.77" height="52.61"/>
          </g>
          <g class="st3">
            <rect class="st5" x="414.38" y="383.77" width="9.77" height="42.14"/>
          </g>
        </g>
        <path class="st0" d="M438.17,425.91c0,.18-45.45.33-101.51.33s-101.52-.15-101.52-.33,45.44-.33,101.52-.33,101.51.15,101.51.33Z"/>
      </g>
      <g>
        <rect class="st5" x="44.06" y="208.89" width="122.46" height="122.46"/>
        <g>
          <path class="st8" d="M107.9,279.66l33.77.47c-.26,18-15.42,32.66-33.77,32.66-.07,0-.13,0-.2,0l.2-33.13Z"/>
          <path class="st12" d="M102.56,274.85l-.47,33.12c-18.35-.25-33.3-15.13-33.3-33.12s15.25-33.13,33.77-33.13,33.77,14.95,33.77,33.13h-33.77Z"/>
        </g>
        <rect class="st6" x="44.06" y="208.89" width="122.34" height="24.09"/>
        <circle class="st5" cx="58.33" cy="220.94" r="3.47"/>
        <circle class="st5" cx="70.03" cy="220.94" r="3.47"/>
        <path class="st5" d="M85.21,220.94c0,1.92-1.55,3.47-3.47,3.47s-3.47-1.55-3.47-3.47,1.55-3.47,3.47-3.47,3.47,1.55,3.47,3.47Z"/>
        <path class="st0" d="M166.51,331.35s-.01-.2-.02-.58c0-.4,0-.96-.02-1.7,0-1.51-.02-3.71-.03-6.58-.02-5.77-.04-14.19-.08-24.91-.04-21.43-.09-52-.15-88.68l.29.29c-35.59.01-77.61.03-122.44.05h-.01l.33-.33c-.02,44.84-.03,86.86-.05,122.46l-.29-.29c36.68.06,67.26.11,88.68.15,10.72.03,19.15.06,24.91.08,2.87.01,5.08.03,6.58.03.74,0,1.3.01,1.7.02.38,0,.58.02.58.02,0,0-.18.01-.55.02-.39,0-.94,0-1.67.02-1.49,0-3.68.02-6.53.03-5.75.02-14.15.04-24.84.08-21.47.04-52.11.09-88.87.15h-.29s0-.29,0-.29c-.01-35.59-.03-77.61-.05-122.46v-.33s.33,0,.33,0h.01c44.83.02,86.85.03,122.44.05h.29s0,.29,0,.29c-.06,36.75-.11,67.39-.15,88.86-.03,10.69-.06,19.1-.08,24.85-.01,2.85-.03,5.03-.03,6.53,0,.72-.01,1.28-.02,1.67,0,.37-.02.55-.02.55Z"/>
      </g>
      <g>
        <rect class="st5" x="131.97" y="40.7" width="333.89" height="240.96"/>
        <rect class="st13" x="302.77" y="95.32" width="126.77" height="55.55" rx="18.58" ry="18.58"/>
        <g>
          <path class="st14" d="M155.89,157.35c-.46-28.61,22.34-52.26,50.82-52.72,28.48-.46,52.02,22.44,52.48,51.05.46,28.61-22.34,52.26-50.82,52.72-28.48.46-52.02-22.44-52.48-51.05ZM232.24,156.12c-.22-13.68-11.48-24.63-25.09-24.41-13.62.22-24.52,11.53-24.3,25.21.22,13.68,11.47,24.63,25.09,24.41,13.62-.22,24.52-11.53,24.3-25.21Z"/>
          <path class="st8" d="M155.9,157.35c-.46-28.61,22.34-52.26,50.82-52.72l.43,27.08c-13.62.22-24.52,11.53-24.3,25.21.22,13.68,11.47,24.63,25.09,24.41l.43,27.08c-28.48.46-52.02-22.44-52.48-51.05Z"/>
          <g>
            <path class="st7" d="M155.89,157.35c-.46-28.61,22.34-52.26,50.82-52.72,28.48-.46,52.02,22.44,52.48,51.05.46,28.61-22.34,52.26-50.82,52.72-28.48.46-52.02-22.44-52.48-51.05ZM232.24,156.12c-.22-13.68-11.48-24.63-25.09-24.41-13.62.22-24.52,11.53-24.3,25.21.22,13.68,11.47,24.63,25.09,24.41,13.62-.22,24.52-11.53,24.3-25.21Z"/>
            <path class="st0" d="M232.24,156.12s.02.14.02.4c0,.3,0,.69,0,1.18,0,.52-.01,1.16-.13,1.92-.09.75-.17,1.63-.43,2.59-.38,1.94-1.21,4.25-2.57,6.71-1.37,2.45-3.38,5.03-6.16,7.25-2.77,2.2-6.29,4.1-10.41,4.93-4.08.8-8.72.76-13.17-.85-1.13-.34-2.19-.88-3.29-1.39-1.04-.61-2.13-1.17-3.1-1.93-1.03-.68-1.93-1.55-2.88-2.38-.86-.92-1.76-1.82-2.5-2.87-1.52-2.05-2.86-4.33-3.69-6.85-.86-2.51-1.34-5.17-1.42-7.89,0-2.72.39-5.4,1.16-7.94.75-2.55,2.01-4.87,3.47-6.97.71-1.07,1.58-2,2.41-2.95.92-.86,1.79-1.75,2.8-2.47.95-.79,2.02-1.39,3.04-2.03,1.08-.54,2.13-1.11,3.24-1.49,4.39-1.75,9.03-1.94,13.13-1.27,4.14.7,7.72,2.48,10.56,4.59,2.85,2.13,4.94,4.64,6.38,7.04,1.44,2.42,2.35,4.69,2.79,6.62.29.95.4,1.82.51,2.57.14.75.18,1.39.19,1.91.02.49.03.88.05,1.18,0,.27,0,.4,0,.4-.01,0-.03-.14-.06-.4-.03-.3-.07-.69-.11-1.17-.03-.52-.09-1.15-.25-1.89-.14-.74-.26-1.6-.57-2.54-.47-1.9-1.41-4.13-2.85-6.49-1.46-2.35-3.54-4.8-6.35-6.86-2.8-2.04-6.32-3.76-10.37-4.42-4.02-.63-8.54-.42-12.82,1.3-1.09.37-2.11.94-3.16,1.46-.99.63-2.04,1.21-2.96,1.99-.98.7-1.83,1.57-2.72,2.41-.81.92-1.65,1.83-2.34,2.88-1.41,2.05-2.64,4.31-3.37,6.79-.75,2.47-1.14,5.08-1.13,7.73.13,5.29,1.91,10.41,4.96,14.36.72,1.02,1.59,1.9,2.43,2.8.92.81,1.8,1.65,2.8,2.32.94.75,2.01,1.29,3.02,1.89,1.07.49,2.1,1.03,3.2,1.36,4.33,1.58,8.86,1.64,12.85.89,4.02-.79,7.49-2.62,10.22-4.75,2.74-2.15,4.74-4.67,6.13-7.06,1.37-2.41,2.23-4.67,2.64-6.58.27-.94.38-1.81.49-2.55.14-.74.18-1.38.19-1.9.03-.49.05-.87.07-1.17.02-.26.04-.4.05-.4Z"/>
            <path class="st0" d="M155.89,157.35s.04.28.09.84c.05.58.11,1.39.2,2.45.04.54.09,1.14.14,1.81.08.66.23,1.38.36,2.16.14.78.28,1.62.44,2.51.12.9.47,1.82.72,2.81.97,3.98,2.91,8.68,5.93,13.65,3.04,4.95,7.4,10.1,13.3,14.45.74.54,1.49,1.08,2.25,1.63.78.51,1.62.96,2.44,1.46.84.46,1.64,1.02,2.53,1.42.89.41,1.79.83,2.69,1.25.45.21.91.42,1.37.63.48.17.95.33,1.44.5.96.34,1.93.67,2.91,1.01.99.32,2.02.51,3.04.77,1.03.22,2.05.57,3.13.66,2.13.27,4.29.68,6.52.65,1.11.02,2.23.11,3.36.08,1.13-.08,2.26-.15,3.4-.23.57-.05,1.15-.05,1.72-.14l1.71-.29c1.14-.21,2.31-.36,3.45-.63,2.26-.65,4.6-1.17,6.82-2.14,2.29-.78,4.44-1.97,6.65-3.08,1.07-.62,2.1-1.32,3.16-1.98,1.08-.63,2.07-1.42,3.06-2.2,2.06-1.47,3.86-3.31,5.73-5.08.85-.97,1.7-1.95,2.56-2.93l.64-.74.57-.8,1.15-1.6,1.15-1.6,1-1.71,1-1.72.5-.86.42-.91c.56-1.21,1.12-2.43,1.68-3.66.44-1.27.88-2.55,1.33-3.83,1.59-5.19,2.4-10.69,2.39-16.27-.16-5.58-1.15-11.05-2.9-16.19-.49-1.27-.97-2.53-1.45-3.79-.6-1.21-1.2-2.41-1.8-3.6l-.45-.9-.53-.85-1.06-1.69-1.06-1.68-1.21-1.57-1.2-1.56-.6-.78-.67-.71c-.89-.95-1.77-1.9-2.65-2.84-1.93-1.71-3.79-3.48-5.9-4.89-1.02-.75-2.03-1.51-3.13-2.1-1.08-.63-2.14-1.29-3.23-1.88-2.25-1.04-4.43-2.16-6.75-2.86-2.25-.9-4.61-1.34-6.89-1.92-1.15-.23-2.32-.34-3.47-.51l-1.72-.24c-.57-.07-1.15-.05-1.72-.09-1.14-.04-2.28-.08-3.41-.12-1.13,0-2.24.13-3.35.18-2.23.05-4.37.53-6.5.87-1.07.13-2.08.52-3.1.76-1.01.3-2.04.52-3.02.87-.97.37-1.93.74-2.88,1.11-.48.18-.95.36-1.42.55-.45.23-.9.45-1.35.68-.89.45-1.78.89-2.65,1.33-.88.43-1.66,1.01-2.48,1.5-.8.52-1.63,1-2.39,1.54-.74.57-1.47,1.14-2.2,1.7-5.76,4.54-9.94,9.83-12.83,14.87-2.85,5.06-4.65,9.82-5.49,13.83-.22,1-.54,1.93-.63,2.83-.13.9-.25,1.74-.36,2.52-.1.78-.23,1.5-.29,2.17-.03.66-.05,1.27-.08,1.81-.05,1.06-.09,1.88-.12,2.46-.03.55-.06.84-.06.84,0,0-.01-.28,0-.84.01-.58.03-1.4.05-2.47.01-.54.03-1.15.05-1.82.05-.67.17-1.39.26-2.18.1-.79.21-1.63.33-2.54.08-.91.39-1.84.6-2.85.81-4.04,2.57-8.84,5.42-13.96,2.87-5.09,7.07-10.45,12.86-15.06.73-.57,1.47-1.14,2.21-1.72.77-.55,1.6-1.03,2.41-1.56.83-.5,1.62-1.09,2.5-1.53.88-.45,1.77-.9,2.67-1.35.45-.23.9-.46,1.36-.69.47-.18.95-.37,1.43-.56.96-.37,1.93-.75,2.91-1.13.98-.36,2.02-.59,3.05-.89,1.04-.25,2.05-.65,3.13-.78,2.15-.35,4.31-.84,6.56-.89,1.12-.06,2.25-.19,3.39-.19,1.14.04,2.29.08,3.45.12.58.03,1.16.01,1.74.08l1.74.24c1.16.17,2.34.29,3.51.51,2.31.58,4.7,1.02,6.97,1.93,2.35.71,4.56,1.84,6.84,2.89,1.1.59,2.17,1.26,3.27,1.89,1.12.6,2.14,1.37,3.17,2.12,2.14,1.42,4.01,3.22,5.97,4.94.89.95,1.79,1.91,2.69,2.88l.68.72.61.79,1.22,1.58,1.22,1.59,1.07,1.7,1.07,1.71.54.86.46.91c.61,1.21,1.21,2.43,1.82,3.65.49,1.27.98,2.55,1.47,3.84,1.78,5.21,2.78,10.75,2.94,16.4.02,5.65-.81,11.22-2.42,16.48-.45,1.3-.9,2.59-1.35,3.88-.57,1.24-1.14,2.47-1.71,3.7l-.43.92-.51.87-1.02,1.74-1.02,1.73-1.17,1.62-1.16,1.62-.58.8-.65.74c-.87.99-1.74,1.98-2.6,2.96-1.9,1.79-3.72,3.64-5.81,5.13-1.01.79-2,1.59-3.1,2.22-1.08.67-2.12,1.37-3.21,2-2.24,1.12-4.41,2.32-6.74,3.1-2.25.98-4.62,1.5-6.91,2.15-1.16.27-2.34.42-3.49.63l-1.73.29c-.58.09-1.16.09-1.74.14-1.16.08-2.3.15-3.44.23-1.14.03-2.27-.06-3.39-.08-2.25.02-4.43-.4-6.59-.68-1.09-.1-2.11-.46-3.16-.68-1.03-.27-2.08-.46-3.07-.79-.99-.35-1.97-.69-2.94-1.03-.49-.17-.97-.34-1.45-.51-.46-.21-.92-.43-1.38-.64-.91-.43-1.82-.85-2.71-1.27-.9-.41-1.71-.97-2.55-1.45-.83-.5-1.67-.96-2.46-1.48-.76-.56-1.52-1.11-2.26-1.65-5.94-4.41-10.3-9.63-13.34-14.63-3.01-5.02-4.93-9.76-5.86-13.78-.24-1-.58-1.92-.69-2.83-.15-.9-.28-1.74-.41-2.53-.12-.78-.26-1.5-.33-2.17-.04-.67-.07-1.27-.1-1.82-.06-1.07-.1-1.88-.13-2.46-.03-.55-.02-.84-.02-.84Z"/>
          </g>
          <g>
            <path class="st12" d="M202.08,100.47c33.32-.54,59.9,25.32,60.43,58.79l-31.53.51c-.26-16-12.43-26.08-28.36-25.82l-.54-33.48Z"/>
            <path class="st0" d="M202.08,100.46s.02.22.04.62c.01.43.03,1.02.06,1.76.04,1.57.1,3.83.17,6.71.12,5.81.3,14.15.52,24.38l-.25-.24c3.03-.02,6.24.28,9.48,1.16,3.23.88,6.49,2.35,9.39,4.58,2.9,2.21,5.41,5.18,7.12,8.69,1.72,3.51,2.63,7.52,2.69,11.63l-.33-.32c7.73-.13,15.95-.26,24.42-.4,2.44-.04,4.85-.08,7.11-.11l-.33.34c-.19-6.53-1.31-12.84-3.21-18.66-.54-1.43-1.07-2.85-1.6-4.26-.6-1.38-1.3-2.69-1.93-4.01-.6-1.35-1.39-2.56-2.15-3.78-.78-1.2-1.43-2.47-2.34-3.55-.85-1.11-1.69-2.21-2.51-3.3-.88-1.04-1.83-1.99-2.72-2.97-.45-.48-.9-.97-1.34-1.44-.49-.43-.97-.86-1.45-1.29-.96-.85-1.91-1.68-2.84-2.51-3.96-2.98-7.84-5.53-11.7-7.22-.95-.44-1.89-.87-2.79-1.29-.93-.36-1.86-.66-2.75-.98-.89-.31-1.76-.61-2.6-.91-.85-.27-1.7-.43-2.51-.64-.81-.2-1.59-.38-2.34-.57-.38-.09-.75-.18-1.11-.27-.37-.07-.73-.11-1.08-.16-1.41-.2-2.7-.38-3.86-.54-1.16-.21-2.18-.19-3.08-.24-.89-.04-1.64-.08-2.27-.11-.6-.03-1.06-.06-1.41-.08-.32-.02-.49-.03-.5-.04,0,0,.15,0,.45,0,.34,0,.8,0,1.39.02.63.01,1.4.02,2.29.04.91.03,1.98-.01,3.14.18,1.17.15,2.47.31,3.89.49.36.05.72.08,1.09.15.36.08.74.17,1.12.26.76.17,1.55.36,2.36.54.81.2,1.67.35,2.53.62.85.29,1.73.58,2.63.89.9.31,1.84.6,2.78.96.92.42,1.86.84,2.82,1.28,3.9,1.68,7.83,4.22,11.84,7.21.94.82,1.9,1.66,2.88,2.51.49.43.98.86,1.47,1.29.45.48.9.96,1.36,1.45.9.98,1.86,1.95,2.76,2.99.84,1.09,1.69,2.2,2.55,3.32.92,1.08,1.58,2.37,2.37,3.58.77,1.23,1.58,2.46,2.18,3.82.64,1.34,1.36,2.66,1.96,4.05.54,1.42,1.08,2.85,1.62,4.3,1.94,5.88,3.08,12.25,3.27,18.85v.33s-.33,0-.33,0c-2.26.04-4.68.08-7.11.12-8.47.13-16.69.26-24.42.38h-.32s0-.32,0-.32c-.06-4.03-.93-7.95-2.61-11.37-1.66-3.43-4.1-6.33-6.92-8.5-2.83-2.18-6.01-3.64-9.18-4.52-3.18-.88-6.34-1.19-9.33-1.19h-.25v-.24c-.11-10.3-.2-18.68-.26-24.53-.02-2.86-.03-5.1-.04-6.66,0-.73,0-1.3,0-1.72,0-.38,0-.58.02-.57Z"/>
          </g>
        </g>
        <rect class="st6" x="131.97" y="40.7" width="333.89" height="32.18"/>
        <path class="st0" d="M414.63,113.96h-93.84c-1.11,0-2-.9-2-2h0c0-1.11.9-2,2-2h93.84c1.11,0,2,.9,2,2h0c0,1.11-.9,2-2,2Z"/>
        <path class="st0" d="M414.63,124.6h-93.84c-1.11,0-2-.9-2-2h0c0-1.11.9-2,2-2h93.84c1.11,0,2,.9,2,2h0c0,1.11-.9,2-2,2Z"/>
        <path class="st0" d="M363.44,135.24h-42.65c-1.11,0-2-.9-2-2h0c0-1.11.9-2,2-2h42.65c1.11,0,2,.9,2,2h0c0,1.11-.9,2-2,2Z"/>
        <rect class="st13" x="302.77" y="163.28" width="126.77" height="55.55" rx="18.58" ry="18.58"/>
        <path class="st13" d="M417.22,253.49h-104.8c-6.07,0-10.98-4.92-10.98-10.98h0c0-6.07,4.92-10.98,10.98-10.98h104.8c6.07,0,10.98,4.92,10.98,10.98h0c0,6.07-4.92,10.98-10.98,10.98Z"/>
        <path class="st0" d="M414.01,182.42h-93.84c-1.11,0-2-.9-2-2h0c0-1.11.9-2,2-2h93.84c1.11,0,2,.9,2,2h0c0,1.11-.9,2-2,2Z"/>
        <path class="st0" d="M410.02,244.75h-93.84c-1.11,0-2-.9-2-2h0c0-1.11.9-2,2-2h93.84c1.11,0,2,.9,2,2h0c0,1.11-.9,2-2,2Z"/>
        <path class="st0" d="M414.01,193.06h-93.84c-1.11,0-2-.9-2-2h0c0-1.11.9-2,2-2h93.84c1.11,0,2,.9,2,2h0c0,1.11-.9,2-2,2Z"/>
        <path class="st0" d="M362.82,203.71h-42.65c-1.11,0-2-.9-2-2h0c0-1.11.9-2,2-2h42.65c1.11,0,2,.9,2,2h0c0,1.11-.9,2-2,2Z"/>
        <path class="st0" d="M296.22,107.19s-.62.09-1.75.13c-1.26.03-2.86.06-4.78.11-4.04.06-9.62.1-15.78.1-2.53,0-4.95-.01-7.19-.02l.22-.09c-3.14,3.1-5.84,5.75-7.78,7.61-.91.86-1.67,1.57-2.28,2.15-.54.49-.84.75-.87.72s.23-.33.72-.87c.58-.62,1.3-1.37,2.15-2.28,1.86-1.93,4.5-4.64,7.61-7.78l.09-.09h.13c2.23,0,4.66-.01,7.19-.02,6.16,0,11.74.04,15.78.1,1.92.04,3.52.08,4.78.11,1.13.04,1.75.08,1.75.13Z"/>
        <circle class="st0" cx="294.84" cy="107.29" r="2.67"/>
        <circle class="st0" cx="294.84" cy="187.45" r="2.67"/>
        <path class="st0" d="M293.06,187.91c0,.09-1.71.16-4.48.2-2.77.04-6.58.05-10.8.03-4.12-.04-7.85-.08-10.8-.11-1.26-.03-2.35-.05-3.27-.07-.79-.02-1.15-.03-1.2-.06-.03-.14,1.72-.28,4.47-.34,2.77-.08,6.59-.11,10.81-.09,4.22.02,8.04.08,10.8.16,2.76.08,4.47.18,4.47.27Z"/>
        <g>
          <rect class="st8" x="172.6" y="246.51" width="8.74" height="8.74"/>
          <rect class="st6" x="201.93" y="246.51" width="8.74" height="8.74"/>
          <rect class="st12" x="233.75" y="246.51" width="8.74" height="8.74"/>
        </g>
        <path class="st5" d="M154.69,56.79c0,2.56-1.99,4.64-4.45,4.64s-4.45-2.08-4.45-4.64,1.99-4.64,4.45-4.64,4.45,2.08,4.45,4.64Z"/>
        <path class="st5" d="M169.69,56.79c0,2.56-1.99,4.64-4.45,4.64s-4.45-2.08-4.45-4.64,1.99-4.64,4.45-4.64,4.45,2.08,4.45,4.64Z"/>
        <path class="st5" d="M184.68,56.79c0,2.56-1.99,4.64-4.45,4.64s-4.45-2.08-4.45-4.64,1.99-4.64,4.45-4.64,4.45,2.08,4.45,4.64Z"/>
        <path class="st0" d="M465.86,281.66c0-2.24-.11-94.81-.27-240.96l.27.27c-93.43.02-209,.04-333.87.06h-.03l.33-.33c-.01,86.37-.02,168.28-.03,240.96l-.3-.3c197.44.18,331.21.3,333.89.3-2.68,0-136.46.12-333.89.3h-.3s0-.3,0-.3c0-72.68-.02-154.59-.03-240.96v-.33h.36c124.86.02,240.43.05,333.87.06h.27v.27c-.17,146.15-.27,238.72-.27,240.96Z"/>
      </g>
      <g>
        <rect class="st5" x="365.55" y="199.48" width="237.83" height="177.79"/>
        <rect class="st6" x="364.8" y="199.48" width="237.83" height="21.98"/>
        <circle class="st5" cx="377.82" cy="210.47" r="3.17"/>
        <circle class="st5" cx="388.49" cy="210.47" r="3.17"/>
        <circle class="st5" cx="399.17" cy="210.47" r="3.17"/>
        <path class="st0" d="M602.63,377.27s-.02-1.12-.03-3.25c0-2.14-.02-5.31-.03-9.44-.02-8.27-.04-20.41-.07-35.91-.03-30.98-.08-75.39-.14-129.18l.27.27c-67.07.02-149.2.04-237.81.06h-.02l.33-.33c-.01,63.89-.02,124.42-.03,177.79l-.3-.3c70.42.06,129.84.11,171.67.15,20.93.03,37.45.06,48.76.08,5.65.02,9.99.03,12.93.04,1.46,0,2.58.01,3.33.02.75,0,1.14.02,1.14.02,0,0-.37.01-1.11.02-.75,0-1.85,0-3.3.02-2.93,0-7.25.02-12.87.04-11.29.02-27.79.05-48.69.08-41.87.04-101.36.09-171.86.15h-.3s0-.3,0-.3c0-53.37-.02-113.89-.03-177.79v-.33s.33,0,.33,0h.02c88.61.02,170.74.04,237.81.06h.27s0,.27,0,.27c-.06,53.86-.11,98.33-.14,129.35-.03,15.48-.05,27.59-.07,35.85-.01,4.11-.02,7.26-.03,9.39-.01,2.12-.03,3.19-.03,3.19Z"/>
        <path class="st6" d="M589.53,306.63c0,.18-47.33.33-105.7.33s-105.71-.15-105.71-.33,47.32-.33,105.71-.33,105.7.15,105.7.33Z"/>
        <path class="st6" d="M589.53,288.37c0,.18-47.33.33-105.7.33s-105.71-.15-105.71-.33,47.32-.33,105.71-.33,105.7.15,105.7.33Z"/>
        <path class="st6" d="M589.53,270.12c0,.18-47.33.33-105.7.33s-105.71-.15-105.71-.33,47.32-.33,105.71-.33,105.7.15,105.7.33Z"/>
        <path class="st6" d="M589.53,251.87c0,.18-47.33.33-105.7.33s-105.71-.15-105.71-.33,47.32-.33,105.71-.33,105.7.15,105.7.33Z"/>
        <rect class="st12" x="396" y="298.35" width="17.59" height="35.37"/>
        <rect class="st8" x="459.13" y="298.35" width="17.59" height="35.37"/>
        <rect class="st8" x="554.88" y="310.41" width="17.59" height="23.31"/>
        <rect class="st6" x="522.26" y="281.6" width="17.59" height="52.12"/>
        <rect class="st12" x="489.99" y="261.31" width="17.59" height="72.42"/>
        <rect class="st6" x="426.31" y="281.6" width="17.59" height="52.12"/>
        <path class="st0" d="M587.01,333.72s-.27.02-.79.03c-.54,0-1.31.02-2.31.03-2.05.01-5.04.04-8.88.06-7.73.03-18.89.06-32.65.11-27.59.03-65.67.06-107.73.1-20.13,0-39.34-.02-56.83-.02h-.31s0-.31,0-.31c.05-28.02.09-51.9.12-68.8.04-8.42.07-15.1.09-19.71.02-2.27.04-4.03.05-5.24.01-.58.02-1.02.03-1.35,0-.3.03-.46.03-.46,0,0,.02.15.03.46,0,.33.01.77.03,1.35.01,1.21.03,2.97.05,5.24.02,4.6.05,11.28.09,19.71.03,16.9.07,40.78.12,68.8l-.31-.31c17.49,0,36.7-.02,56.83-.02,42.06.04,80.14.07,107.73.1,13.77.04,24.92.08,32.65.11,3.84.03,6.82.05,8.88.06,1,.01,1.76.03,2.31.03.52.01.79.03.79.03Z"/>
        <g>
          <rect class="st12" x="414.78" y="351.67" width="7.73" height="7.73"/>
          <rect class="st6" x="462.02" y="351.42" width="7.73" height="7.73"/>
          <rect class="st8" x="513.12" y="351.67" width="7.73" height="7.73"/>
          <path class="st0" d="M448.11,355.29c0,.18-4.71.33-10.52.33s-10.52-.15-10.52-.33,4.71-.33,10.52-.33,10.52.15,10.52.33Z"/>
          <path class="st0" d="M494.99,355.29c0,.18-4.71.33-10.52.33s-10.52-.15-10.52-.33,4.71-.33,10.52-.33,10.52.15,10.52.33Z"/>
          <path class="st0" d="M544.89,355.29c0,.18-4.71.33-10.52.33s-10.52-.15-10.52-.33,4.71-.33,10.52-.33,10.52.15,10.52.33Z"/>
        </g>
      </g>
      <g>
        <g class="st9">
          <rect class="st12" x="357.75" y="163.29" width="202.77" height="61.15" rx="11.85" ry="11.85"/>
          <g class="st1">
            <path class="st2" d="M386.4,163.29l-27.71,53.93c1.8,4.25,6.01,7.23,10.91,7.23h27.61l31.42-61.15h-42.23Z"/>
            <polygon class="st2" points="452.09 163.29 420.66 224.45 462.89 224.45 494.32 163.29 452.09 163.29"/>
            <path class="st2" d="M548.67,163.29h-30.89l-31.42,61.15h42.23l29.19-56.8c-2.17-2.64-5.42-4.35-9.11-4.35Z"/>
          </g>
        </g>
        <g>
          <path class="st5" d="M510.36,212.85c-9.44,0-17.09-7.65-17.09-17.09s7.65-17.09,17.09-17.09,17.09,7.65,17.09,17.09h0c0,9.44-7.65,17.09-17.09,17.09ZM510.36,205.78c5.54,0,10.03-4.49,10.03-10.03s-4.49-10.03-10.03-10.03-10.03,4.49-10.03,10.03,4.49,10.03,10.03,10.03ZM474.58,212.85c-9.44,0-17.09-7.65-17.09-17.09s7.65-17.09,17.09-17.09,17.09,7.65,17.09,17.09h0c0,9.44-7.65,17.09-17.09,17.09ZM474.58,205.78c5.54,0,10.03-4.49,10.03-10.03s-4.49-10.03-10.03-10.03-10.03,4.49-10.03,10.03,4.49,10.03,10.03,10.03ZM455.89,195.53c0,9.55-7.66,17.32-17.09,17.32s-17.09-7.75-17.09-17.3,6.95-16.89,17.09-16.89c3.74,0,7.2.8,10.03,2.87v-9.91c0-1.89,1.66-3.44,3.53-3.44s3.53,1.55,3.53,3.44v23.91ZM438.79,205.78c5.54,0,10.03-4.49,10.03-10.03s-4.49-10.03-10.03-10.03-10.03,4.49-10.03,10.03,4.49,10.03,10.03,10.03Z"/>
          <path class="st5" d="M403.01,212.85c-9.44,0-17.09-7.65-17.09-17.09s7.65-17.09,17.09-17.09,17.09,7.65,17.09,17.09h0c0,9.44-7.65,17.09-17.09,17.09ZM403.01,205.78c5.54,0,10.03-4.49,10.03-10.03s-4.49-10.03-10.03-10.03-10.03,4.49-10.03,10.03,4.49,10.03,10.03,10.03Z"/>
        </g>
      </g>
      <g>
        <g>
          <path class="st0" d="M704.47,144.38c-.51-.64-1.38-.86-2.19-.95-2.34-.27-4.76.2-6.83,1.32,3.1-3.01,3.61-8.23,1.38-11.94-2.23-3.7-6.86-5.7-11.14-5.05-4.27.65-8.01,3.77-9.69,7.75-1.68,3.98-1.37,8.69.55,12.56l7.13,1.87c3.28,2.24,7.24,3.46,11.21,3.45,1.6,0,3.34-.27,4.42-1.45,1.08-1.18.9-3.49-.63-3.98,1.47.33,3.05.65,4.44.06,1.39-.58,2.3-2.48,1.36-3.65Z"/>
          <path class="st0" d="M667.5,135.02c-4.41-1.36-9.36-.85-13.4,1.38-2.25-2.89-6.11-4.43-9.73-3.87s-6.84,3.18-8.13,6.6c-3.85-1.55-8.71.1-10.82,3.67-2.11,3.57-1.19,8.63,2.03,11.24-3.14,1.31-5.62,4.12-6.53,7.4-.9,3.28-.21,6.97,1.82,9.7-3.37,1.63-3.94,6.19-3.45,9.9.5,3.71,1.57,7.69-.1,11.04-1.29,2.59-3.94,4.19-5.75,6.45-1.81,2.25-2.45,6.13,0,7.66-4.18.56-7.41,5.02-6.65,9.17.76,4.15,5.37,7.16,9.48,6.2-1.37,2.92-.78,6.52,1.02,9.2,1.8,2.68,4.66,4.51,7.69,5.6,8.73,3.16,19.31.18,25.1-7.08l27.67-85.55c-2.07-4.12-5.87-7.34-10.28-8.71Z"/>
          <g>
            <path class="st4" d="M680.66,158.72l.37-4.62-27.44-6.95c-8.5-1.42-18.27,6.6-19.33,15.16-1.18,9.51-2.24,21.16-1.53,28.35,1.41,14.45,12.28,16.94,12.28,16.94l-.79,14.22,31.64,2.3,4.81-65.39Z"/>
            <path class="st0" d="M637.61,174.98c-.09.97.65,1.84,1.66,1.96,1.01.11,1.9-.57,1.99-1.54.09-.97-.65-1.84-1.66-1.96-1.01-.12-1.9.58-1.99,1.54Z"/>
            <path class="st0" d="M636.92,168.58c.21.25,1.67-.69,3.64-.57,1.97.1,3.36,1.2,3.59.97.11-.1-.09-.55-.7-1.04-.59-.49-1.63-1-2.86-1.07-1.23-.07-2.29.32-2.92.75-.64.43-.87.85-.76.96Z"/>
            <path class="st0" d="M655.55,175.95c-.09.97.65,1.84,1.66,1.96,1.01.11,1.9-.57,1.99-1.54.09-.97-.65-1.84-1.66-1.96-1.01-.12-1.9.57-1.99,1.54Z"/>
            <path class="st0" d="M656.32,170.12c.21.25,1.67-.69,3.64-.57,1.97.1,3.36,1.2,3.59.97.11-.1-.09-.55-.7-1.04-.59-.5-1.63-1-2.86-1.07-1.23-.07-2.29.32-2.92.75-.63.43-.87.85-.76.96Z"/>
            <path class="st0" d="M648.26,184.34c.02-.11-1.2-.4-3.17-.77-.5-.08-.97-.21-1.04-.56-.1-.37.15-.9.43-1.48.55-1.19,1.12-2.44,1.72-3.75,2.4-5.35,4.17-9.75,3.96-9.85-.22-.1-2.34,4.16-4.74,9.51-.58,1.32-1.13,2.58-1.66,3.78-.23.56-.59,1.19-.38,1.96.11.38.47.68.79.79.32.12.6.14.85.17,2,.23,3.24.31,3.25.2Z"/>
            <path class="st10" d="M645,207.64s10.09,1.2,19.97-3.96c0,0-5.44,9.73-20.18,7.53l.21-3.57Z"/>
            <path class="st0" d="M656.77,163.3c.2.54,2.17.28,4.49.56,2.33.23,4.2.91,4.51.43.14-.23-.19-.74-.95-1.26-.75-.52-1.95-1.01-3.34-1.17-1.39-.15-2.67.07-3.52.41-.85.34-1.28.77-1.2,1.02Z"/>
            <path class="st0" d="M637.39,163.69c.32.47,1.71.1,3.35.19,1.64.03,3,.51,3.35.06.16-.22-.03-.68-.61-1.15-.57-.46-1.54-.88-2.67-.92-1.13-.04-2.13.3-2.73.72-.61.42-.83.87-.69,1.1Z"/>
            <path class="st0" d="M634.31,152.02c3.23-4.23,7.91-7.32,13.07-8.63l23.18,2.91,1.97-.03c.44-1.46,2.9-2.23,2.9-2.23,2.18-1.67,9.72-1.76,14.98,3.74,1.9,1.98,3.24,6.97,3.29,9.71.02,1.04-1.1,2.46-.23,3.03.3.2,2.81.15,3.16.23,5.9,1.29,9.58,6.52,8.51,14.33-.05.39-.19.79-.13,1.18.1.62.6,1.08,1.03,1.54,2.81,2.97,3.49,7.75,1.62,11.39-.58,1.12-1.38,2.17-1.58,3.42-.36,2.23,1.27,4.22,2.53,6.09,3.78,5.62,4.59,13.77.16,18.89-1.08,1.24-2.47,2.35-2.87,3.95-.2.78-.13,1.6-.13,2.4.03,4.08-2.12,8.64-6.11,9.5-2.21.48-4.9-.15-6.48,1.48-.69.71-.98,1.7-1.41,2.58-1.67,3.37-5.94,5.21-9.53,4.1-3.6-1.11-4.79-15.7-4.27-19.43-4.36-1.58-7.58-1.86-7.38-6.5,0,0,.67-7.97-.62-11.85-1.29-3.88,1.3-12.15,2.77-16.16,1.47-4.01-.28-13.35-.68-17.07-.07-.65.06-1.77.31-3.18h0s0,0,0,0c.16-.9.37-1.92.62-3.01.09-1.02.93-6.44.91-7.39-.06-3.51-4.42-1.63-7.74-.51-.8.27-1.65.43-2.5.45-2.74.08-5.48-1.22-7.16-3.39-3.14,3.35-8.22,4.74-12.63,3.45-1.79,2.5-3.61,5.03-5.99,6.97-2.38,1.94-5.44,3.26-8.49,2.92-.09-5.32,1.66-10.65,4.89-14.88Z"/>
            <path class="st10" d="M649.7,189.13c.65-.96,1.85-1.52,3.06-1.45.85.05,1.72.41,2.26,1.07.55.66.7,1.63.27,2.3-.49.76-1.57.99-2.51.77-.94-.22-1.76-.79-2.55-1.35-.22-.16-.44-.32-.58-.55-.14-.22-.18-.52-.03-.72"/>
            <path class="st0" d="M654.41,185.56c-.32,0-.21,2.1-1.94,3.68-1.72,1.59-3.98,1.46-3.98,1.76-.02.13.52.38,1.47.36.93-.01,2.27-.38,3.33-1.35,1.05-.97,1.46-2.22,1.49-3.08.04-.88-.22-1.39-.37-1.37Z"/>
          </g>
        </g>
        <g>
          <path class="st8" d="M610.43,562.68l2.61,27.17s-29.61,11.06-29.93,16.54l55.98.15-.03-4.09-2.35-13.98-3.46-27.15-22.82,1.36Z"/>
          <path class="st6" d="M629.89,585.64c1.11.3,1.88,1.55,1.62,2.67-.25,1.12-1.51,1.91-2.63,1.63-1.11-.28-2.08-1.75-1.71-2.83.38-1.09,1.91-1.94,2.92-1.4"/>
          <path class="st0" d="M639.09,606.54l-.03-4.09-53.7,1.03s-2.55,1.12-2.26,2.91l55.98.15Z"/>
          <path class="st0" d="M612.11,589.56c0,.28,1.41.4,2.79,1.3,1.4.86,2.12,2.07,2.37,1.96.26-.06-.16-1.73-1.85-2.78-1.68-1.07-3.37-.73-3.31-.48Z"/>
          <path class="st0" d="M606.1,592.06c-.06.27,1.15.74,2.1,1.92.99,1.15,1.23,2.43,1.51,2.42.26.04.45-1.6-.76-3.04-1.2-1.46-2.85-1.57-2.85-1.3Z"/>
          <path class="st0" d="M602.71,599.26c.25.06.64-1.34-.08-2.87-.71-1.54-2.03-2.14-2.15-1.9-.16.23.69,1.05,1.27,2.32.6,1.25.69,2.43.96,2.46Z"/>
          <path class="st0" d="M610.12,583.03c.12.26,1.4-.13,2.98-.03,1.58.07,2.82.6,2.96.36.16-.2-1.04-1.24-2.91-1.33-1.86-.11-3.17.78-3.04,1Z"/>
        </g>
        <g>
          <path class="st8" d="M679.23,563.45l2.4,26.71s-29.16,10.69-29.51,16.06l55,.49v-4.02s-2.23-13.74-2.23-13.74l-3.24-26.69-22.43,1.2Z"/>
          <path class="st6" d="M698.2,586.12c1.09.3,1.84,1.53,1.58,2.63-.26,1.1-1.5,1.87-2.59,1.59-1.09-.28-2.04-1.73-1.66-2.79.38-1.06,1.89-1.89,2.88-1.35"/>
          <path class="st0" d="M707.12,606.71v-4.02s-52.77.69-52.77.69c0,0-2.51,1.08-2.23,2.85l55,.49Z"/>
          <path class="st0" d="M680.71,589.87c0,.28,1.38.4,2.73,1.29,1.37.85,2.07,2.05,2.32,1.94.25-.05-.15-1.7-1.8-2.74-1.64-1.06-3.31-.74-3.25-.49Z"/>
          <path class="st0" d="M674.8,592.29c-.06.27,1.12.74,2.05,1.9.96,1.14,1.19,2.4,1.47,2.39.26.04.45-1.56-.73-2.99-1.17-1.44-2.79-1.56-2.79-1.3Z"/>
          <path class="st0" d="M671.42,599.34c.25.06.64-1.31-.06-2.82-.69-1.51-1.98-2.11-2.1-1.88-.16.23.68,1.04,1.23,2.28.58,1.23.66,2.39.93,2.42Z"/>
          <path class="st0" d="M678.8,583.44c.11.25,1.38-.12,2.93-.01,1.56.08,2.76.61,2.91.37.16-.2-1.02-1.22-2.85-1.33-1.83-.12-3.12.75-2.99.97Z"/>
        </g>
        <g>
          <path class="st0" d="M609.22,326.41s-13.27,38.43-13.73,67.02c-.46,28.59-.92,74.05,5.03,124.2,5.95,50.15,8.69,70.3,8.69,70.3h30.2s3.2-31.4,2.75-59.52c-.46-28.12-2.66-37.03.04-67.96,2.7-30.93,6.97-49.51,11.47-58.89,0,0,12.47-14.82,13.38-35.15.92-20.33-6.28-37.8-6.28-37.8l-51.57-2.22Z"/>
          <path class="st0" d="M636.05,380.33c.5,1.54,9.46,64.55,16,92.34,6.54,27.79,13.81,35.15,15.09,57.75,1.47,26,8.61,57.51,8.61,57.51h32.16s-4.52-48.06-9.04-85.63c-4.52-37.57-11.05-83.89-10.05-97.79,1-13.9,3.52-31.06,0-50.53-3.52-19.47-11.12-24.6-11.12-24.6l-27.28-1.23-14.36,52.17Z"/>
          <path class="st8" d="M666.32,344.29s.19.33.5.98c.35.64.67,1.65,1.09,2.96.74,2.64,1.24,6.62,1.06,11.52-.16,4.89-.97,10.7-2.64,16.96-.85,3.12-1.96,6.36-3.51,9.54-1.54,3.19-3.68,6.19-5.81,9.22-4.37,6.02-6.53,12.88-8.16,19.07-1.59,6.23-2.44,11.98-3.05,16.81-.59,4.84-.95,8.77-1.22,11.48-.13,1.31-.24,2.35-.31,3.13-.08.71-.13,1.09-.15,1.09-.02,0-.02-.38.02-1.1.05-.78.11-1.82.19-3.14.19-2.72.47-6.66,1-11.52.55-4.85,1.36-10.63,2.92-16.91.79-3.14,1.77-6.4,3.04-9.69.65-1.64,1.38-3.29,2.24-4.9.87-1.61,1.86-3.18,2.92-4.71,2.15-3.05,4.25-5.99,5.77-9.13,1.53-3.13,2.64-6.32,3.5-9.41,1.69-6.2,2.55-11.96,2.77-16.81.24-4.85-.18-8.8-.84-11.43-.37-1.3-.66-2.32-.96-2.97-.26-.66-.39-1.02-.37-1.03Z"/>
        </g>
        <path class="st4" d="M538.47,247.93c5.55,3.32,15.56,6.42,15.56,6.42l11.23-8.97s-8.03-14.68-10.62-18.84c-.7-1.12-1.76-3.25-2.09-4.44-.87-3.12-3.16-1.8-3.58.67-.12.7.37,3.05.7,3.96,1,2.77.78,4.76.78,4.76,0,0-.82-.7-2.84-2.05-2.2-1.48-9.63-7.68-12.77-10.27-4.69-3.88-7.05-1.47-6.44.03.76,1.86,12.4,10.01,11.98,11.41,0,0-2.24,1.27-2.56,2.72-.32,1.45.02,2.89.02,2.89,0,0-2.1.21-2.66,1.55-.56,1.35.16,3.25.16,3.25,0,0-1.95.18-2.17,1.24-.22,1.06,1.12,3.19,5.29,5.68Z"/>
        <g>
          <g>
            <path class="st12" d="M563.39,241.35c.17.51,24.08,24.98,24.08,24.98,0,0,19.95-22.47,26.02-30.74,6.07-8.27,15.28-18.41,23.21-20.3,7.93-1.9,18.95,3.21,18.95,3.21l-14.04,28.88-17.73,24.38s-19.16,24.07-28.27,27.78c-9.11,3.71-18.03-1.62-21.91-5.67-3.88-4.05-26.9-39.04-26.9-39.04l16.6-13.48Z"/>
            <path class="st12" d="M696.58,224.82l-55.01-9.53s-15.27,26.89-20.99,55.15c-5.71,28.26-12.23,56.49-12.23,56.49l50.82,6.26c5.29.65,10.65.58,15.92-.22l5.29-.8-4.35-17.94c7.26-18.14,12.56-33.63,15.71-46.42,6.83-27.76,4.84-42.98,4.84-42.98Z"/>
            <path class="st0" d="M640.29,251.69s-.29.46-.89,1.2c-.7.85-1.56,1.91-2.58,3.15-2.18,2.66-5.13,6.38-8.4,10.49-3.27,4.11-6.29,7.79-8.57,10.38-1.14,1.3-2.07,2.33-2.75,3.02-.67.69-1.06,1.06-1.09,1.03-.03-.03.29-.46.89-1.2.7-.85,1.56-1.91,2.58-3.15,2.18-2.66,5.13-6.38,8.4-10.49,3.27-4.11,6.29-7.79,8.57-10.37,1.14-1.3,2.07-2.33,2.75-3.02.67-.69,1.06-1.06,1.09-1.03Z"/>
          </g>
          <path class="st0" d="M675.19,315.04c.02.08-1.28.52-3.45.99-2.17.47-5.21.93-8.6,1.07-3.39.13-6.46-.1-8.66-.4-2.2-.3-3.53-.64-3.52-.72.02-.1,1.37.07,3.57.25,2.19.18,5.23.33,8.58.2,3.35-.13,6.37-.51,8.54-.86,2.17-.35,3.51-.63,3.54-.53Z"/>
          <path class="st0" d="M586.93,280.91c-.18,0-.29-3.12-.23-6.97.05-3.85.25-6.96.43-6.96.18,0,.29,3.12.23,6.97-.06,3.85-.25,6.96-.43,6.96Z"/>
          <g class="st3">
            <path d="M694.81,231.06l-34.37-3.07c-1.25,2.89.59,6.69,3.64,7.49-1.84,3.24-1.9,7.43-.15,10.73,1.75,3.29,5.26,5.58,8.98,5.87.92.07,1.87.03,2.74.34,1.91.69,2.82,2.78,3.96,4.45,1.51,2.2,3.79,3.94,6.41,4.44,2.62.51,5.54-.34,7.23-2.4,1.68-2.05,1.96-4.88,2.1-7.53.34-6.78.16-13.58-.53-20.33Z"/>
          </g>
          <g class="st3">
            <path d="M618.5,278.52c5.61-1.14,10.77-4.33,14.3-8.83,3.53-4.5,5.38-10.28,5.14-16-7.2,7.8-13.26,17.8-19.43,24.83Z"/>
          </g>
        </g>
        <g>
          <path class="st0" d="M702.71,209.87l-29.33-32.64c1.07,8.28-2.05,16.53-5.8,23.99-2.13,4.25-4.52,9.3-2.27,13.49-1.83,2.04-3.69,4.13-4.84,6.62-1.15,2.49-1.52,5.49-.32,7.96,1.21,2.47,4.27,4.08,6.83,3.1-1.21,3.33-.21,7.35,2.42,9.72,2.63,2.37,6.74,2.94,9.92,1.38.8,3.37,2.62,6.6,5.48,8.55,2.86,1.95,6.84,2.4,9.83.64,2.98-1.76,4.5-5.89,2.9-8.96,6.45-1.43,10.49-8.38,10.68-14.99.19-6.61-2.58-12.91-5.49-18.85Z"/>
          <path class="st8" d="M642.04,156.04s-.16.09-.48.19c-.33.08-.84.18-1.49.1-1.28-.11-3.25-.95-4.44-3.05-.6-1.03-.85-2.4-.61-3.79.24-1.39.94-2.77,2.01-3.91,1.06-1.15,2.55-2.04,4.21-2.42,1.66-.4,3.46-.36,5.2.05,1.01.24,1.98.6,2.86,1.01l-.45.18c1.23-3.02,3.64-5.21,6.14-6.33,2.52-1.15,5.11-1.17,7.08-.74,2,.43,3.45,1.26,4.35,1.92.45.33.78.62.98.83.21.21.31.32.29.34-.04.04-.49-.37-1.41-.97-.92-.58-2.36-1.33-4.3-1.69-1.92-.36-4.37-.29-6.75.84-2.36,1.09-4.62,3.2-5.77,6.04l-.13.33-.32-.15c-.84-.4-1.76-.73-2.72-.96-1.65-.39-3.35-.43-4.9-.07-1.55.35-2.91,1.15-3.92,2.21-1.01,1.05-1.68,2.32-1.92,3.59-.23,1.27-.04,2.5.48,3.47,1.04,1.97,2.86,2.84,4.06,3.02,1.24.21,1.93-.13,1.94-.04Z"/>
          <path class="st8" d="M704.23,176.57c-.05-.03.25-.61.56-1.73.3-1.12.59-2.83.26-4.9-.32-2.05-1.32-4.49-3.44-6.33-2.06-1.84-5.16-3.07-8.4-2.74l-.49.05.14-.48c.27-.94.45-1.96.5-3.01.18-3.63-1.14-7.09-3.19-9.46-2.03-2.42-4.75-3.68-7.06-4.22-2.34-.55-4.32-.4-5.64-.17-1.33.24-2.03.51-2.05.45,0-.02.16-.1.5-.24.33-.14.84-.31,1.51-.47,1.33-.31,3.36-.54,5.79-.03,2.39.5,5.26,1.76,7.42,4.28,2.17,2.47,3.57,6.08,3.39,9.89-.05,1.1-.25,2.18-.54,3.17l-.35-.43c3.46-.35,6.71.99,8.86,2.95,2.21,1.97,3.21,4.57,3.48,6.7.28,2.16-.08,3.91-.47,5.03-.19.56-.38.99-.54,1.26-.15.27-.24.41-.26.4Z"/>
          <path class="st8" d="M658.44,154.94s-.34-.09-.82-.47c-.48-.38-1.1-1.05-1.57-2.06-.46-1-.76-2.34-.53-3.81.22-1.47,1.05-2.97,2.3-4.11,1.26-1.14,2.8-1.82,4.25-2.02,1.45-.22,2.77-.04,3.82.25,1.05.3,1.84.7,2.35,1.02.51.32.76.55.74.58-.06.11-1.16-.68-3.21-1.15-1.02-.22-2.27-.34-3.61-.1-1.34.22-2.74.86-3.9,1.91-1.15,1.05-1.91,2.4-2.14,3.72-.24,1.32-.02,2.57.36,3.52.78,1.94,2.05,2.62,1.95,2.71Z"/>
          <path class="st8" d="M676.22,232.49s-.15-.07-.41-.25c-.26-.18-.61-.48-1.04-.89-.84-.84-1.94-2.24-2.69-4.27-.74-2.01-1.09-4.7-.26-7.47.83-2.75,2.85-5.45,5.76-7.07,1.15-.65,2.38-1.09,3.6-1.32l-.18.55c-1.95-2.18-2.59-5.06-2.24-7.46.33-2.45,1.7-4.33,3.06-5.47,1.39-1.16,2.78-1.66,3.73-1.88.48-.11.86-.15,1.11-.16.26-.01.39,0,.39.02,0,.05-.53.1-1.45.37-.91.28-2.22.83-3.51,1.98-1.27,1.13-2.5,2.93-2.77,5.21-.29,2.25.34,4.94,2.15,6.94l.4.44-.58.11c-1.15.22-2.31.64-3.39,1.25-2.75,1.53-4.69,4.08-5.5,6.67-.82,2.61-.54,5.18.12,7.13.67,1.97,1.67,3.37,2.43,4.25.78.87,1.3,1.27,1.26,1.32Z"/>
          <path class="st0" d="M675.74,160.66l-.92-4.14c-3.11,5.91-4.16,12.87-2.95,19.43.57,3.05,1.58,6.32.26,9.13-.9,1.92-2.75,3.23-3.81,5.07-1.34,2.32-.35,8.44-.7,9.64-.78,2.74-3.44,4.5-4.07,7.81-.63,3.31.17,7.32,3.15,8.9,5.61-9.25,11.34-18.85,12.66-29.59,1.09-8.84-.93-17.77-3.64-26.25Z"/>
          <path class="st8" d="M692.73,182.82s-.17.03-.48.03c-.31,0-.77-.04-1.36-.14-1.15-.21-2.92-.64-4.59-2.07-.82-.72-1.57-1.7-2.01-2.92-.44-1.2-.55-2.71.07-4.08.6-1.34,1.83-2.55,3.46-2.88.81-.15,1.69-.09,2.47.35.78.42,1.35,1.36,1.2,2.33-.07.49-.36.93-.75,1.21-.4.28-.86.38-1.29.41-.87.03-1.68-.21-2.39-.57-1.39-.71-2.58-1.68-3.51-2.77-1.89-2.17-2.7-4.77-2.77-6.91-.1-2.16.42-3.87.88-4.96.24-.55.46-.95.63-1.22.17-.26.27-.39.29-.38.05.03-.29.59-.68,1.69-.38,1.09-.81,2.76-.65,4.83.13,2.05.95,4.49,2.77,6.53.89,1.02,2.02,1.93,3.34,2.59.63.32,1.36.52,2.06.49.7-.01,1.32-.41,1.42-1.06.1-.65-.27-1.33-.87-1.65-.59-.35-1.34-.41-2.02-.29-1.37.27-2.49,1.32-3.02,2.49-.56,1.19-.49,2.53-.11,3.64.38,1.13,1.06,2.06,1.8,2.75,1.53,1.38,3.21,1.89,4.33,2.16,1.14.27,1.79.31,1.79.37Z"/>
        </g>
      </g>
    </g>
  </g>
</svg>