<?xml version="1.0" encoding="UTF-8"?>
<svg id="Capa_1" xmlns="http://www.w3.org/2000/svg" version="1.1" viewBox="0 0 900 789.22">
  <!-- Generator: Adobe Illustrator 30.2.1, SVG Export Plug-In . SVG Version: 2.1.1 Build 1)  -->
  <defs>
    <style>
      .st0 {
        fill: #fafafa;
      }

      .st1 {
        fill: #263238;
      }

      .st2 {
        opacity: .3;
      }

      .st3 {
        fill: #8f8f8f;
      }

      .st4 {
        fill: #fff;
      }

      .st5 {
        fill: #e0e0e0;
      }

      .st6 {
        fill: #455a64;
      }

      .st7 {
        fill: #e0e0e0;
      }

      .st8 {
        fill: #bd0043;
      }

      .st9 {
        fill: #ff9a6c;
      }

      .st10 {
        fill: #ffc09d;
      }

      .st11 {
        fill: #e4a900;
      }

      .st12 {
        fill: #714b67;
      }
    </style>
  </defs>
  <g>
    <path class="st11" d="M607.13,117.85c0,.8-.65,1.44-1.45,1.45h-89.86c-.8,0-1.44-.65-1.45-1.45v-20.01c0-.8.65-1.44,1.45-1.45h89.9c.8,0,1.44.65,1.45,1.45l-.04,20.01Z"/>
    <path class="st4" d="M528.25,111.47c.24,0,.47,0,.7-.04.21-.02.42-.06.62-.12.21-.04.37-.12.54-.17l.5-.25v-2.15h-1.49c-.15,0-.27-.1-.29-.25v-.75h2.98v3.73c-.24.17-.49.32-.75.46-.27.14-.54.25-.83.33-.31.09-.63.16-.95.21-.37.05-.74.08-1.12.08-.67,0-1.33-.12-1.95-.37-.57-.24-1.09-.59-1.53-1.04-.43-.46-.76-.99-.99-1.57-.25-.65-.38-1.34-.37-2.03,0-.69.11-1.38.33-2.03.23-.58.57-1.12.99-1.57.43-.46.97-.8,1.57-.99.66-.26,1.36-.38,2.07-.37.36,0,.72.03,1.08.08.31.04.62.12.91.25.29.12.54.25.79.37s.46.33.66.5l-.37.58c-.06.11-.17.17-.29.17-.09,0-.17-.04-.25-.08-.14-.05-.27-.14-.37-.25-.16-.09-.33-.17-.5-.25-.23-.09-.46-.16-.7-.21-.33-.05-.66-.08-.99-.08-.51,0-1.01.08-1.49.25-.44.15-.83.42-1.12.79-.32.34-.56.75-.7,1.2-.17.51-.26,1.04-.25,1.57,0,.56.08,1.12.25,1.66.16.46.41.89.75,1.24.33.32.71.59,1.12.79.45.24.95.35,1.45.33Z"/>
    <path class="st4" d="M536.46,105.43c.47,0,.93.08,1.37.25.39.16.74.4,1.04.7.3.32.53.7.66,1.12.16.47.23.96.21,1.45,0,.49-.07.98-.21,1.45-.16.41-.38.79-.66,1.12-.29.3-.65.54-1.04.7-.88.33-1.85.33-2.73,0-.39-.16-.74-.4-1.04-.7-.3-.32-.53-.7-.66-1.12-.33-.94-.33-1.96,0-2.9.14-.42.36-.8.66-1.12.29-.3.65-.54,1.04-.7.44-.17.9-.25,1.37-.25ZM536.46,111.56c.59.05,1.16-.2,1.53-.66.66-1.18.66-2.63,0-3.81-.36-.47-.94-.72-1.53-.66-.31-.01-.62.04-.91.17-.24.12-.45.29-.62.5-.18.25-.31.53-.37.83-.08.35-.13.71-.12,1.08,0,.36.03.73.12,1.08.07.3.2.58.37.83.17.21.38.38.62.5.29.12.6.17.91.17Z"/>
    <path class="st4" d="M542.59,102.44v9.98h-1.2v-9.98h1.2Z"/>
    <path class="st4" d="M549.55,112.43c-.16.01-.3-.09-.33-.25l-.12-.83c-.27.35-.61.65-.99.87-.39.22-.84.33-1.28.33-.37,0-.73-.07-1.08-.21-.32-.16-.6-.39-.83-.66-.24-.34-.43-.72-.54-1.12-.12-.5-.18-1.02-.17-1.53,0-.48.07-.95.21-1.41.11-.41.31-.79.58-1.12.25-.33.58-.58.95-.75.39-.18.81-.28,1.24-.29.37,0,.74.07,1.08.21.31.15.57.36.79.62v-3.81h1.2v9.98l-.7-.04h0ZM547.19,111.56c.37.02.73-.08,1.04-.29.32-.21.61-.47.83-.79v-3.31c-.19-.27-.44-.49-.75-.62-.27-.12-.57-.18-.87-.17-.57-.02-1.12.23-1.49.66-.36.58-.54,1.26-.5,1.95,0,.39.04.78.12,1.16.07.28.18.54.33.79.14.2.32.35.54.46.24.09.49.15.75.17h0Z"/>
    <path class="st4" d="M556.55,108.78v3.65h-1.33v-9.74h2.86c.55,0,1.09.07,1.62.21.42.1.81.32,1.12.62.3.25.53.58.66.95.29.81.28,1.69-.04,2.49-.15.37-.39.7-.7.95-.32.29-.7.51-1.12.62-.51.16-1.04.23-1.57.21l-1.49.04h0ZM556.55,107.75h1.57c.34.01.68-.04.99-.17.27-.08.51-.22.7-.41.2-.17.35-.38.46-.62.1-.27.15-.55.17-.83.03-.54-.18-1.07-.58-1.45-.49-.39-1.11-.58-1.74-.54h-1.57v4.02Z"/>
    <path class="st4" d="M567.9,112.43h-.54c-.1,0-.2,0-.29-.04-.09-.05-.14-.15-.12-.25l-.12-.62c-.17.17-.37.29-.54.46-.17.13-.35.24-.54.33-.2.09-.41.16-.62.21-.23.05-.47.08-.7.08-.25,0-.51-.04-.75-.12-.22-.08-.43-.19-.62-.33-.17-.17-.31-.36-.41-.58-.1-.26-.16-.54-.17-.83,0-.28.08-.55.21-.79.18-.27.42-.5.7-.66.41-.24.86-.4,1.33-.5.65-.14,1.32-.21,1.99-.21v-.54c.03-.43-.09-.85-.33-1.2-.25-.28-.62-.43-.99-.41-.25,0-.51.04-.75.12-.21.08-.37.17-.54.25-.14.06-.26.15-.37.25-.09.08-.21.12-.33.12-.08,0-.15-.03-.21-.08-.04-.04-.12-.08-.17-.17l-.21-.37c.71-.71,1.68-1.12,2.69-1.12.36,0,.71.07,1.04.21.29.12.54.3.75.54.22.23.38.52.46.83.12.35.18.71.17,1.08v4.35h0ZM564.79,111.68c.2,0,.39-.03.58-.08.17-.04.33-.12.5-.17.16-.08.31-.18.46-.29.15-.11.29-.24.41-.37v-1.41c-.47,0-.94.03-1.41.12-.33.06-.65.16-.95.29-.21.09-.39.23-.54.41-.12.15-.18.35-.17.54,0,.16.03.31.08.46.04.13.13.25.25.33.1.1.23.16.37.17h.41Z"/>
    <path class="st4" d="M569.72,112.43v-6.88h.7c.1,0,.2.03.29.08.06.07.09.16.08.25l.08,1.08c.2-.44.5-.82.87-1.12.34-.26.77-.41,1.2-.41.17,0,.34.03.5.08.15.03.29.09.41.17l-.17.91c-.04.12-.08.17-.21.17-.1-.01-.2-.04-.29-.08-.17-.05-.36-.08-.54-.08-.38-.02-.75.12-1.04.37-.33.29-.58.66-.7,1.08v4.39h-1.2Z"/>
    <path class="st4" d="M577.3,112.55c-.46.02-.91-.14-1.24-.46-.32-.36-.49-.84-.46-1.33v-4.23h-.83c-.06,0-.13-.03-.17-.08-.05-.06-.08-.13-.08-.21v-.5l1.12-.12.29-2.11c0-.06.03-.13.08-.17.06-.05.13-.08.21-.08h.62v2.36h1.99v.87h-1.99v4.14c0,.24.07.47.21.66.15.13.34.21.54.21.11,0,.22,0,.33-.04l.25-.12c.06-.03.12-.07.17-.12.03-.03.08-.05.12-.04.07.01.13.06.17.12l.37.58c-.22.2-.47.35-.75.46-.3.12-.63.19-.95.21Z"/>
    <path class="st4" d="M580.29,112.43v-6.88h.7c.16-.01.3.09.33.25l.08.75c.28-.32.62-.59.99-.79.4-.21.84-.31,1.28-.29.34-.02.69.05.99.21.28.11.53.29.7.54.18.26.34.53.46.83.1.35.16.71.17,1.08v4.39h-1.2v-4.39c.03-.43-.1-.86-.37-1.2-.27-.3-.67-.45-1.08-.41-.35,0-.69.08-.99.25-.32.2-.61.43-.87.7v5.05l-1.2-.08h0Z"/>
    <path class="st4" d="M590.52,105.43c.4,0,.79.07,1.16.21.34.13.65.33.91.58.26.27.46.6.58.95.14.41.21.85.21,1.28,0,.21,0,.33-.04.37s-.12.08-.25.08h-4.56c0,.38.06.75.17,1.12.09.29.25.56.46.79.19.2.42.37.66.5.27.12.57.18.87.17.27,0,.53-.04.79-.12.21-.08.41-.17.58-.25.13-.08.27-.15.41-.21.08-.07.18-.11.29-.12.1,0,.19.05.25.12l.33.46c-.16.17-.34.33-.54.46-.21.13-.43.25-.66.33-.24.09-.49.16-.75.21-.25.05-.5.08-.75.08-.45,0-.9-.08-1.33-.25-.39-.16-.74-.4-1.04-.7-.32-.32-.54-.72-.66-1.16-.17-.51-.26-1.04-.25-1.57,0-.45.07-.9.21-1.33.15-.39.36-.75.62-1.08.29-.29.62-.53.99-.7.43-.12.88-.19,1.33-.21ZM590.56,106.34c-.5-.03-1,.15-1.37.5-.36.39-.58.88-.62,1.41h3.73c0-.27-.04-.53-.12-.79-.09-.22-.2-.43-.33-.62-.16-.16-.34-.3-.54-.41-.25-.05-.5-.08-.75-.08h0Z"/>
    <path class="st4" d="M594.91,112.43v-6.88h.7c.1,0,.2.03.29.08.06.07.09.16.08.25l.08,1.08c.2-.44.5-.82.87-1.12.34-.26.77-.41,1.2-.41.17,0,.34.03.5.08.15.03.29.09.41.17l-.17.91c-.04.12-.08.17-.21.17-.1-.01-.2-.04-.29-.08-.17-.05-.36-.08-.54-.08-.38-.02-.75.12-1.04.37-.33.29-.58.66-.7,1.08v4.39h-1.2Z"/>
    <path class="st3" d="M587.12,48.13c-11.44,0-20.71,9.27-20.71,20.71s9.27,20.71,20.71,20.71,20.71-9.27,20.71-20.71-9.27-20.71-20.71-20.71ZM587.12,81.27c-6.86,0-12.43-5.56-12.43-12.43s5.56-12.43,12.43-12.43,12.43,5.56,12.43,12.43h0c0,6.86-5.56,12.43-12.43,12.43Z"/>
    <path class="st3" d="M543.62,48.13c-11.44,0-20.71,9.27-20.71,20.71s9.27,20.71,20.71,20.71,20.71-9.27,20.71-20.71-9.27-20.71-20.71-20.71ZM543.62,81.27c-6.86,0-12.43-5.56-12.43-12.43s5.56-12.43,12.43-12.43,12.43,5.56,12.43,12.43h0c0,6.86-5.56,12.43-12.43,12.43Z"/>
    <path class="st12" d="M456.62,48.13c-11.44,0-20.71,9.27-20.71,20.71s9.27,20.71,20.71,20.71,20.71-9.27,20.71-20.71-9.27-20.71-20.71-20.71ZM456.62,81.27c-6.86,0-12.43-5.56-12.43-12.43s5.56-12.43,12.43-12.43,12.43,5.56,12.43,12.43h0c0,6.86-5.56,12.43-12.43,12.43Z"/>
    <path class="st3" d="M516.69,35.66c-2.29,0-4.14,1.85-4.14,4.14v12.43c-9.15-6.86-22.14-5.01-29,4.14-6.86,9.15-5.01,22.14,4.14,29,9.15,6.86,22.14,5.01,29-4.14,2.68-3.57,4.13-7.92,4.14-12.39h0v-29.04c0-2.29-1.85-4.14-4.14-4.14ZM500.12,81.23c-6.86,0-12.43-5.56-12.43-12.43s5.56-12.43,12.43-12.43,12.43,5.56,12.43,12.43h0c0,6.86-5.56,12.43-12.43,12.43Z"/>
  </g>
  <g>
    <path class="st8" d="M630.52,42.02c5.8-6.33,14.5-9.89,23.08-9.45,8.58.44,16.87,4.87,22,11.76,2.23,2.99,3.86,6.37,6.05,9.39,2.18,3.02,5.1,5.75,8.73,6.57,5.8,1.31,11.41-2.48,16.16-6.06-2.11,9.47-6.29,18.87-13.84,24.96-7.55,6.09-18.96,8.02-27.07,2.71-4.21-2.76-7.35-7.22-12.09-8.9-4.06-1.44-8.66-.54-12.48,1.45-3.82,1.99-7.01,4.99-10.15,7.94"/>
    <path class="st1" d="M630.45,31.64c-.35,0-.63,27.31-.63,61,0,33.7.28,61.01.63,61.01s.63-27.31.63-61.01c0-33.69-.28-61-.63-61Z"/>
    <path class="st1" d="M678.37,77.34c.35,0,.63-4.85.63-10.84,0-5.99-.28-10.84-.63-10.84s-.63,4.85-.63,10.84c0,5.99.28,10.84.63,10.84Z"/>
    <path class="st1" d="M682.38,79.05c.35,0,.63-2.43.63-5.43,0-3-.28-5.43-.63-5.43s-.63,2.43-.63,5.43.28,5.43.63,5.43Z"/>
    <path class="st4" d="M664.15,59.75l-6.33-6.22,6.33-6.22,5.95,5.86c.21.2.22.53.01.74,0,0,0,.01-.01.01l-5.95,5.82Z"/>
    <path class="st4" d="M647.34,59.75l6.33-6.22-6.33-6.22-5.95,5.86c-.21.2-.22.53-.02.74,0,0,.01.01.02.02l5.95,5.82Z"/>
    <path class="st4" d="M661.96,61.93l-6.22-6.33-6.22,6.33,5.84,5.95c.2.21.53.22.74.01,0,0,.01,0,.01-.01l5.84-5.95Z"/>
    <path class="st4" d="M649.53,45.13l6.22,6.33,6.22-6.33-5.84-5.95c-.2-.21-.53-.22-.74-.02,0,0-.01.01-.02.02l-5.84,5.95Z"/>
  </g>
  <path class="st7" d="M368.42,130.3c-2.5-6.67-5.04-13.42-9.24-19.17-4.2-5.75-10.34-10.45-17.4-11.32-7.06-.86-14.89,2.95-17.19,9.68-1.01-15.18-3.16-30.75-10.76-43.93-7.6-13.18-21.77-23.53-36.96-22.6-14.32.88-26.57,11.51-33.38,24.13-6.81,12.62-9.15,27.1-11.38,41.27-5.43-6.66-16.88-4.57-22.55,1.89-5.66,6.46-7.1,15.49-8.3,23.99h170.73l-3.56-3.95Z"/>
  <path class="st7" d="M887.97,258.72c-1.99-5.3-4.01-10.67-7.35-15.24-3.34-4.57-8.22-8.31-13.84-9-5.62-.69-11.84,2.34-13.67,7.7-.81-12.07-2.52-24.45-8.56-34.93-6.04-10.48-17.31-18.71-29.38-17.97-11.38.7-21.13,9.15-26.54,19.19-5.42,10.04-7.27,21.55-9.05,32.81-4.31-5.29-13.43-3.63-17.93,1.5-4.5,5.14-5.64,12.31-6.6,19.08h135.75l-2.83-3.14Z"/>
  <path class="st1" d="M853.88,779.13c0,.25-187.2.46-418.07.46s-418.11-.21-418.11-.46,187.16-.46,418.11-.46,418.07.21,418.07.46Z"/>
  <g>
    <path class="st4" d="M837.7,396.25c-1.68-4.49-3.4-9.04-6.23-12.91-2.83-3.87-6.96-7.04-11.72-7.62s-10.03,1.99-11.58,6.52c-.68-10.22-2.13-20.71-7.25-29.59-5.12-8.88-14.67-15.85-24.89-15.22-9.64.59-17.9,7.75-22.49,16.25-4.59,8.5-6.16,18.26-7.67,27.8-3.66-4.49-11.37-3.08-15.19,1.27-3.82,4.35-4.78,10.43-5.59,16.16h115.01l-2.4-2.66Z"/>
    <path class="st1" d="M837.7,396.25s.21.19.62.62c.43.46,1.03,1.11,1.85,1.98l.14.15h-.21c-11.84.17-56.92.31-115.01.35h-.51s.07-.51.07-.51c.38-2.72.8-5.5,1.57-8.25.77-2.74,1.93-5.49,3.83-7.78,1.9-2.32,4.7-3.88,7.7-4.38,1.5-.25,3.08-.22,4.58.22,1.5.42,2.91,1.3,3.91,2.53l-.81.22c.23-1.45.49-3.02.74-4.59.93-5.59,2.06-11.13,3.92-16.37,1.83-5.23,4.5-10.16,8.15-14.15,3.6-4,8.16-7.11,13.19-8.51,5.03-1.44,10.39-.87,14.91,1.08,4.55,1.94,8.4,5.01,11.38,8.54,3,3.55,5.12,7.58,6.6,11.61,2.97,8.11,3.69,16.11,4.18,23.2l-.61-.08c1.18-3.34,4.17-5.45,7.09-6.28,2.97-.89,6.02-.46,8.48.59,4.99,2.17,7.93,6.07,9.77,9.24,1.85,3.24,2.83,5.96,3.52,7.77.32.88.56,1.57.74,2.08.16.47.23.71.22.72-.01,0-.12-.22-.31-.69-.2-.5-.48-1.18-.83-2.05-.75-1.79-1.78-4.48-3.65-7.66-1.86-3.11-4.81-6.9-9.66-8.96-2.4-1-5.3-1.38-8.13-.5-2.79.81-5.59,2.84-6.65,5.94l-.5,1.44-.12-1.52c-.53-7.06-1.29-15-4.26-22.98-1.48-3.97-3.57-7.9-6.51-11.35-2.93-3.44-6.69-6.43-11.1-8.29-4.39-1.87-9.52-2.41-14.35-1.01-4.84,1.35-9.25,4.37-12.76,8.27-3.55,3.89-6.15,8.7-7.95,13.86-1.82,5.16-2.94,10.64-3.87,16.22-.25,1.57-.51,3.13-.74,4.58l-.17,1.02-.64-.8c-1.78-2.22-4.88-2.91-7.63-2.43-2.78.46-5.39,1.91-7.14,4.06-1.79,2.16-2.91,4.78-3.66,7.45-.75,2.68-1.16,5.42-1.55,8.14l-.44-.51c58.08.04,103.17.18,115.01.35l-.07.16c-.79-.9-1.37-1.58-1.79-2.05-.38-.45-.54-.67-.54-.67Z"/>
  </g>
  <g>
    <path class="st4" d="M143.02,190.84c-1.99-5.3-4.01-10.68-7.35-15.25-3.34-4.57-8.22-8.32-13.85-9.01-5.62-.69-11.85,2.35-13.68,7.71-.81-12.08-2.52-24.47-8.56-34.95-6.05-10.49-17.32-18.72-29.41-17.98-11.39.7-21.14,9.16-26.56,19.2-5.42,10.04-7.28,21.56-9.06,32.84-4.32-5.3-13.44-3.63-17.94,1.51-4.51,5.14-5.65,12.32-6.61,19.09h135.86l-2.83-3.14Z"/>
    <path class="st1" d="M143.02,190.84s.25.23.73.74c.5.53,1.21,1.3,2.18,2.34l.14.15h-.21c-13.98.17-67.24.31-135.86.35h-.51s.07-.51.07-.51c.45-3.21.94-6.49,1.85-9.74.9-3.23,2.28-6.46,4.51-9.16,2.23-2.73,5.52-4.55,9.04-5.14,1.76-.29,3.61-.25,5.37.25,1.76.5,3.4,1.52,4.58,2.97l-.81.22c.28-1.71.58-3.56.88-5.42,1.1-6.61,2.43-13.14,4.62-19.33,2.16-6.17,5.3-11.99,9.61-16.69,4.25-4.71,9.62-8.38,15.54-10.03,5.92-1.7,12.23-1.02,17.56,1.27,5.36,2.28,9.9,5.9,13.42,10.07,3.54,4.18,6.04,8.93,7.79,13.69,3.51,9.57,4.36,19.02,4.95,27.39l-.61-.08c1.38-3.93,4.9-6.41,8.33-7.39,3.5-1.05,7.09-.55,9.99.69,2.93,1.23,5.29,3.09,7.16,5.01,1.88,1.93,3.27,3.98,4.37,5.88,2.18,3.82,3.35,7.03,4.17,9.17.38,1.05.68,1.87.89,2.45.19.55.27.85.27.85,0,0-.13-.26-.35-.81-.23-.58-.55-1.38-.97-2.42-.88-2.11-2.09-5.3-4.3-9.06-1.12-1.87-2.51-3.88-4.38-5.76-1.86-1.88-4.19-3.67-7.05-4.85-2.83-1.18-6.28-1.63-9.64-.6-3.31.96-6.63,3.37-7.9,7.05l-.5,1.44-.11-1.52c-.63-8.34-1.52-17.73-5.02-27.17-1.75-4.69-4.22-9.35-7.69-13.43-3.46-4.08-7.91-7.61-13.14-9.81-5.2-2.22-11.28-2.86-17-1.2-5.73,1.6-10.96,5.17-15.11,9.79-4.2,4.61-7.28,10.29-9.41,16.39-2.16,6.1-3.48,12.58-4.58,19.17-.3,1.85-.6,3.7-.87,5.41l-.17,1.02-.64-.8c-2.13-2.66-5.82-3.47-9.09-2.9-3.3.55-6.41,2.27-8.49,4.82-2.13,2.56-3.46,5.67-4.34,8.83-.89,3.17-1.38,6.41-1.83,9.62l-.44-.51c68.61.04,121.87.18,135.86.35l-.07.16c-.94-1.07-1.63-1.87-2.12-2.42-.45-.53-.65-.79-.65-.79Z"/>
  </g>
  <g>
    <path class="st4" d="M184.76,301.37c-1.2-3.2-2.42-6.44-4.43-9.2s-4.96-5.01-8.35-5.43c-3.39-.41-7.14,1.41-8.25,4.64-.49-7.28-1.52-14.75-5.16-21.07-3.64-6.32-10.44-11.29-17.73-10.84-6.87.42-12.75,5.52-16.01,11.57-3.27,6.05-4.39,13-5.46,19.79-2.6-3.19-8.1-2.19-10.82.91-2.72,3.1-3.4,7.43-3.98,11.51h81.89l-1.71-1.89Z"/>
    <path class="st1" d="M184.76,301.37s.16.13.45.43c.32.34.75.79,1.32,1.4l.14.15h-.21c-8.43.18-40.53.31-81.89.36h-.52s.07-.51.07-.51c.56-3.82,1.12-8.1,3.87-11.48,1.37-1.68,3.39-2.8,5.56-3.16,2.13-.38,4.68.15,6.17,2.01l-.81.22c.17-1.03.35-2.15.53-3.27.66-3.99,1.47-7.94,2.79-11.68,1.31-3.74,3.22-7.27,5.83-10.12,2.58-2.86,5.84-5.09,9.45-6.09,3.61-1.04,7.46-.62,10.7.78,3.26,1.39,6.01,3.59,8.14,6.12,2.14,2.54,3.66,5.42,4.71,8.3,2.12,5.8,2.62,11.5,2.97,16.55l-.61-.08c.86-2.42,3.01-3.93,5.11-4.52,2.14-.64,4.33-.33,6.09.43,3.57,1.56,5.67,4.35,6.97,6.62,1.31,2.32,2,4.26,2.49,5.55.22.62.39,1.1.52,1.48.11.33.16.51.15.52-.01,0-.09-.15-.23-.48-.15-.37-.35-.85-.6-1.45-.54-1.27-1.28-3.18-2.62-5.44-1.33-2.21-3.43-4.89-6.86-6.34-1.7-.7-3.74-.96-5.74-.35-1.97.58-3.93,2.01-4.67,4.18l-.49,1.44-.12-1.53c-.39-5.02-.93-10.67-3.04-16.33-1.05-2.82-2.54-5.6-4.62-8.05-2.08-2.44-4.74-4.55-7.86-5.86-3.11-1.32-6.72-1.7-10.14-.71-3.42.95-6.54,3.09-9.02,5.85-2.51,2.76-4.35,6.16-5.63,9.82-1.29,3.66-2.09,7.56-2.75,11.53-.18,1.12-.36,2.23-.53,3.26l-.17,1.02-.64-.81c-1.23-1.54-3.38-2.02-5.31-1.68-1.95.32-3.78,1.34-5.01,2.84-2.53,3.1-3.13,7.22-3.69,11.03l-.44-.51c41.36.04,73.46.18,81.89.35l-.07.16c-.55-.63-.96-1.11-1.26-1.47-.27-.32-.39-.48-.37-.49Z"/>
  </g>
  <g>
    <polygon class="st7" points="224.62 383.47 568.82 143.68 639.74 143.68 639.74 569.26 399.08 569.26 224.62 383.47"/>
    <polygon class="st0" points="353.6 485.91 543.31 291.93 532.08 281.84 575.12 265.28 567.06 312.42 556.44 302.74 378.98 557.64 353.6 485.91"/>
    <polygon class="st7" points="501.69 779.13 76.91 779.13 76.91 390.43 153.6 390.43 501.69 723.22 501.69 779.13"/>
    <g>
      <rect class="st5" x="102.9" y="375.57" width="194.35" height="14.86"/>
      <path class="st1" d="M297.25,390.43s-.02-.34-.03-.98c0-.67-.02-1.61-.04-2.84-.02-2.52-.05-6.21-.1-11.03l.17.17c-30.13.17-105.82.29-194.34.29h0l.46-.46c0,5.09,0,10.14,0,14.86l-.46-.46c54.3.08,102.82.14,137.79.19,17.49.06,31.6.1,41.37.14,4.86.03,8.64.05,11.23.06,1.27.01,2.24.02,2.93.03.66.01,1.02.03,1.02.03,0,0-.31.02-.96.03-.68,0-1.63.02-2.87.03-2.57.01-6.32.04-11.13.06-9.74.03-23.81.08-41.26.14-35.06.05-83.69.12-138.13.19h-.46s0-.46,0-.46c0-4.72,0-9.77,0-14.86v-.46s.46,0,.46,0h0c88.52,0,164.21.12,194.34.29h.17s0,.17,0,.17c-.04,4.86-.07,8.59-.1,11.13-.02,1.22-.03,2.14-.04,2.81-.01.62-.03.92-.03.92Z"/>
    </g>
    <path class="st1" d="M76.91,779.13c-.25,0-.46-87.02-.46-194.34s.21-194.36.46-194.36.46,87,.46,194.36-.21,194.34-.46,194.34Z"/>
    <path class="st1" d="M583.7,143.36s.32-.03.96-.04c.66,0,1.6-.02,2.83-.04,2.53-.02,6.21-.04,10.99-.08,9.62-.03,23.62-.08,41.26-.13h.29s0,.29,0,.29c.04,43.31.1,109.92.17,184.44-.05,66.41-.1,126.52-.13,170.07-.06,21.74-.11,39.34-.15,51.54-.04,6.06-.07,10.78-.09,14.01-.02,1.58-.03,2.79-.05,3.64-.02.82-.05,1.24-.05,1.24,0,0-.03-.42-.05-1.24-.01-.85-.03-2.06-.05-3.64-.02-3.23-.05-7.95-.09-14.01-.03-12.2-.08-29.8-.15-51.54-.03-43.54-.08-103.66-.13-170.07.07-74.52.13-141.13.17-184.44l.29.29c-17.64-.06-31.64-.1-41.26-.13-4.78-.03-8.46-.06-10.99-.08-1.23-.02-2.17-.03-2.83-.04-.64-.01-.96-.04-.96-.04Z"/>
    <g>
      <rect class="st5" x="76.91" y="390.43" width="194.35" height="14.86"/>
      <path class="st1" d="M271.26,405.29s-.02-.34-.03-.98c0-.67-.02-1.61-.04-2.84-.02-2.52-.05-6.21-.1-11.03l.17.17c-30.13.17-105.82.29-194.34.29h0l.46-.46c0,5.09,0,10.14,0,14.86l-.46-.46c54.3.08,102.82.14,137.79.19,17.49.06,31.6.1,41.37.14,4.86.03,8.64.05,11.23.06,1.27.01,2.24.02,2.93.03.66.01,1.02.03,1.02.03,0,0-.31.02-.96.03-.68,0-1.63.02-2.87.03-2.57.01-6.32.04-11.13.06-9.74.03-23.81.08-41.26.14-35.06.05-83.69.12-138.13.19h-.46s0-.46,0-.46c0-4.72,0-9.77,0-14.86v-.46h.47c88.52,0,164.21.12,194.34.29h.17s0,.17,0,.17c-.04,4.86-.07,8.59-.1,11.13-.02,1.22-.03,2.14-.04,2.81-.01.62-.03.92-.03.92Z"/>
    </g>
    <g>
      <rect class="st5" x="128.03" y="360.72" width="194.35" height="14.86"/>
      <path class="st1" d="M322.38,375.57s-.02-.34-.03-.98c0-.67-.02-1.61-.04-2.84-.02-2.52-.05-6.21-.1-11.03l.17.17c-30.13.17-105.82.29-194.34.29h0l.46-.46c0,5.09,0,10.14,0,14.86l-.46-.46c54.3.08,102.82.14,137.79.19,17.49.06,31.6.1,41.37.14,4.86.03,8.64.05,11.23.06,1.27.01,2.24.02,2.93.03.66.01,1.02.03,1.02.03,0,0-.31.02-.96.03-.68,0-1.63.02-2.87.03-2.57.01-6.32.04-11.13.06-9.74.03-23.81.08-41.26.14-35.06.05-83.69.12-138.13.19h-.46s0-.46,0-.46c0-4.72,0-9.77,0-14.86v-.46h.47c88.52,0,164.21.12,194.34.29h.17s0,.17,0,.17c-.04,4.86-.07,8.59-.1,11.13-.02,1.22-.03,2.14-.04,2.81-.01.62-.03.92-.03.92Z"/>
    </g>
    <g>
      <rect class="st5" x="153.6" y="346.59" width="194.35" height="14.13"/>
      <path class="st1" d="M347.94,360.72s-.02-.32-.03-.92c0-.63-.02-1.52-.04-2.69-.02-2.39-.05-5.9-.09-10.51l.16.16c-29.33.17-105.32.3-194.34.3h0l.46-.46c0,4.84,0,9.64,0,14.13l-.46-.46c54.27.08,102.79.14,137.77.19,17.5.06,31.61.1,41.38.14,4.86.03,8.64.05,11.24.06,1.27.01,2.24.02,2.93.03.66.01,1.02.03,1.02.03,0,0-.31.02-.96.03-.68,0-1.63.02-2.87.03-2.58.01-6.32.04-11.14.06-9.75.03-23.82.08-41.27.14-35.07.05-83.7.12-138.11.19h-.46s0-.46,0-.46c0-4.49,0-9.29,0-14.13v-.46h.47c89.01,0,165.01.12,194.34.3h.16s0,.16,0,.16c-.04,4.66-.07,8.2-.09,10.61-.02,1.15-.03,2.03-.04,2.65-.01.59-.03.87-.03.87Z"/>
    </g>
    <g>
      <rect class="st5" x="179.16" y="331.73" width="186.42" height="14.86"/>
      <path class="st1" d="M365.57,346.59s-.02-.35-.03-.99c0-.68-.02-1.62-.04-2.86-.02-2.53-.06-6.22-.1-11.01l.17.17c-29.57.17-101.91.29-186.41.29h0l.46-.46c0,5.09,0,10.13,0,14.86l-.46-.46c52.11.08,98.64.14,132.18.19,16.78.06,30.3.1,39.67.14,4.66.03,8.28.05,10.77.06,1.21.01,2.14.02,2.81.03.64.01.98.03.98.03,0,0-.3.02-.92.03-.65,0-1.57.02-2.75.03-2.47.01-6.06.04-10.67.06-9.34.03-22.83.08-39.56.14-33.63.05-80.28.12-132.52.19h-.46s0-.46,0-.46c0-4.72,0-9.77,0-14.86v-.46s.46,0,.46,0h0c84.5,0,156.84.12,186.41.29h.17s0,.17,0,.17c-.04,4.83-.08,8.56-.1,11.11-.02,1.22-.03,2.15-.04,2.82-.01.63-.03.93-.03.93Z"/>
    </g>
    <g>
      <rect class="st5" x="204.72" y="316.88" width="172.86" height="14.86"/>
      <path class="st1" d="M377.58,331.73s-.02-.35-.03-1.01c-.01-.69-.02-1.64-.04-2.88-.02-2.54-.06-6.23-.1-10.97l.18.18c-28.53.16-95.19.28-172.85.28h0l.46-.46c0,5.09,0,10.13,0,14.86l-.46-.46c48.36.08,91.5.14,122.59.19,15.55.06,28.08.1,36.77.14,4.31.03,7.67.05,9.98.06,1.12.01,1.98.02,2.61.03.59.01.91.03.91.03,0,0-.28.02-.85.03-.61,0-1.45.02-2.55.03-2.29.01-5.61.04-9.88.06-8.66.03-21.16.08-36.66.14-31.18.05-74.44.12-122.93.19h-.46s0-.46,0-.46c0-4.73,0-9.77,0-14.86v-.46s.46,0,.46,0h0c77.67,0,144.32.12,172.85.28h.18s0,.18,0,.18c-.04,4.78-.08,8.5-.1,11.07-.02,1.22-.03,2.17-.04,2.84-.01.64-.03.94-.03.94Z"/>
    </g>
    <g>
      <rect class="st5" x="230.28" y="302.75" width="164.46" height="14.13"/>
      <path class="st1" d="M394.74,316.88s-.02-.34-.03-.96c-.01-.65-.02-1.57-.04-2.74-.02-2.42-.06-5.93-.1-10.42l.18.18c-27.14.16-90.56.28-164.45.28h0c-.1.1.87-.87.46-.46h0v.9s0,.91,0,.91v1.81c0,1.2,0,2.39,0,3.58,0,2.37,0,4.69,0,6.94l-.46-.46c46,.08,87.04.14,116.63.19,14.79.06,26.72.1,34.98.14,4.1.03,7.29.05,9.5.06,1.06.01,1.89.02,2.48.03.56.01.87.03.87.03,0,0-.26.02-.8.03-.58,0-1.39.02-2.42.03-2.18.01-5.34.04-9.4.06-8.24.03-20.13.08-34.88.14-29.67.05-70.83.12-116.96.19h-.46s0-.46,0-.46c0-2.25,0-4.57,0-6.94,0-1.18,0-2.38,0-3.58v-3.59h0v-.02c-.41.41.56-.56.46-.46h0c73.89,0,137.31.12,164.45.28h.18s0,.18,0,.18c-.04,4.54-.08,8.08-.1,10.53-.02,1.16-.03,2.06-.04,2.7-.01.6-.03.9-.03.9Z"/>
    </g>
    <g>
      <rect class="st5" x="256.24" y="288.14" width="155.47" height="14.61"/>
      <path class="st1" d="M411.71,302.75s-.02-.34-.04-.98c-.01-.67-.02-1.61-.04-2.83-.02-2.5-.06-6.12-.11-10.8l.19.19c-26.18.16-85.96.27-155.46.27h0c.92-.92.25-.25.46-.46h0v3.73c0,1.24,0,2.48,0,3.7,0,2.45,0,4.85,0,7.18l-.46-.46c43.53.08,82.33.15,110.28.19,13.97.06,25.24.1,33.05.14,3.87.03,6.89.05,8.97.06,1,.01,1.78.02,2.34.03.53.01.82.03.82.03,0,0-.25.02-.76.03-.55,0-1.31.02-2.28.03-2.07.01-5.04.04-8.87.06-7.79.03-19.02.08-32.94.14-28.04.05-66.95.12-110.62.19h-.46s0-.46,0-.46c0-2.33,0-4.73,0-7.18,0-1.22,0-2.46,0-3.7v-3.27s0-.23,0-.23v-.21h0v-.02c.21-.21-.46.46.46-.46h0c69.51,0,129.29.11,155.46.27h.19s0,.19,0,.19c-.05,4.73-.08,8.39-.11,10.91-.02,1.2-.03,2.12-.04,2.78-.01.62-.04.92-.04.92Z"/>
    </g>
    <g>
      <rect class="st5" x="281.56" y="274.58" width="146.92" height="13.56"/>
      <path class="st1" d="M428.48,288.14s-.02-.32-.04-.92c-.01-.63-.02-1.5-.04-2.62-.02-2.32-.06-5.69-.1-10.02l.18.18c-24.63.16-81.16.28-146.92.28h0c-.1.1.87-.87.46-.46h0v3.46c0,1.15,0,2.3,0,3.43,0,2.27,0,4.5,0,6.66l-.46-.46c41.12.08,77.78.15,104.2.19,13.21.06,23.85.1,31.24.14,3.66.03,6.51.05,8.49.06.94.01,1.68.02,2.22.03.5.01.78.03.78.03.01.01-.23.02-.71.03-.52,0-1.24.02-2.16.03-1.96.01-4.77.04-8.38.06-7.37.03-17.97.08-31.13.14-26.51.05-63.28.12-104.53.19h-.46s0-.46,0-.46c0-2.16,0-4.39,0-6.66,0-1.14,0-2.28,0-3.43v-2.6s0-.44,0-.44v-.41h0v-.02c-.41.41.56-.56.46-.46h0c65.76,0,122.28.11,146.92.28h.19s0,.18,0,.18c-.05,4.38-.08,7.77-.1,10.12-.02,1.11-.03,1.96-.04,2.58-.01.58-.04.85-.04.85Z"/>
    </g>
    <g>
      <rect class="st5" x="307.61" y="261.12" width="137.14" height="13.56"/>
      <path class="st1" d="M444.76,274.68s-.02-.32-.04-.91c-.01-.63-.03-1.5-.04-2.62-.03-2.32-.06-5.68-.11-10.03l.19.19c-23.37.16-76.01.27-137.14.27h0c.92-.92.25-.25.46-.46h0v3.46c0,1.15,0,2.3,0,3.43,0,2.27,0,4.5,0,6.66l-.46-.46c38.41.08,72.62.15,97.28.2,12.32.06,22.25.1,29.15.14,3.41.03,6.06.05,7.92.06.88.01,1.56.02,2.07.03.47.01.71.02.73.03s-.21.02-.66.03c-.49,0-1.16.02-2.01.03-1.83.01-4.45.04-7.81.06-6.87.03-16.77.08-29.04.14-24.74.05-59.07.12-97.61.2h-.46s0-.46,0-.46c0-2.16,0-4.39,0-6.66,0-1.14,0-2.28,0-3.43v-1.73s0-.87,0-.87v-.84h0v-.02c.2-.21-.46.46.46-.46h0c61.13,0,113.77.11,137.14.27h.19s0,.19,0,.19c-.05,4.39-.08,7.79-.11,10.13-.02,1.1-.03,1.96-.04,2.58-.01.57-.04.85-.04.85Z"/>
    </g>
    <g>
      <rect class="st5" x="335.51" y="247.57" width="125.33" height="13.56"/>
      <path class="st1" d="M460.84,261.12s-.02-.32-.04-.91c-.01-.63-.03-1.5-.05-2.61-.03-2.32-.06-5.68-.11-10.03l.2.2c-21.85.16-69.78.26-125.32.26h0c.2-.2-.46.46.46-.46h0v3.46c0,1.15,0,2.3,0,3.43,0,2.27,0,4.5,0,6.66l-.46-.46c35.14.08,66.4.15,88.92.2,11.25.06,20.31.1,26.62.14,3.11.03,5.53.05,7.23.06.8.01,1.42.02,1.89.03.43.01.65.02.66.03.01.01-.19.02-.6.03-.45,0-1.06.02-1.83.03-1.68.01-4.07.04-7.13.06-6.28.03-15.31.08-26.52.14-22.61.05-53.98.12-89.25.2h-.46s0-.46,0-.46c0-2.16,0-4.39,0-6.66,0-1.13,0-2.28,0-3.43v-1.73s0-.87,0-.87v-.84h0v-.02c.92-.92.26-.25.46-.46h0c55.54,0,103.48.11,125.32.26h.2s0,.2,0,.2c-.05,4.4-.09,7.8-.11,10.15-.02,1.1-.03,1.95-.05,2.57-.01.57-.03.85-.04.84Z"/>
    </g>
    <g>
      <rect class="st5" x="358.9" y="234.76" width="117.31" height="12.8"/>
      <path class="st1" d="M476.21,247.57s-.02-.3-.04-.86c-.01-.6-.03-1.42-.05-2.47-.03-2.2-.06-5.37-.11-9.47l.2.2c-20.5.16-65.35.26-117.3.26h0c.2-.2-.46.46.46-.46h0v.82s0,.82,0,.82v1.64c0,1.09,0,2.17,0,3.24,0,2.14,0,4.25,0,6.29l-.46-.46c32.89.08,62.14.15,83.22.2,10.52.06,19.01.1,24.92.14,2.9.03,5.17.05,6.77.06.74.01,1.33.02,1.77.03.4.01.61.02.62.03.01.01-.18.02-.56.03-.43,0-1,.02-1.71.03-1.57.01-3.81.04-6.67.06-5.88.03-14.33.08-24.81.14-21.17.05-50.54.12-83.56.2h-.46s0-.46,0-.46c0-2.04,0-4.15,0-6.29,0-1.07,0-2.15,0-3.24v-1.64s0-.82,0-.82v-.8h0v-.02c.92-.92.26-.25.46-.46h0c51.96,0,96.81.11,117.3.26h.2s0,.2,0,.2c-.05,4.15-.09,7.36-.11,9.59-.02,1.03-.04,1.83-.05,2.43-.01.54-.03.81-.04.79Z"/>
    </g>
    <g>
      <rect class="st5" x="378.98" y="223.33" width="112.08" height="11.43"/>
      <path class="st1" d="M491.06,234.76s-.02-.27-.04-.78c-.01-.54-.03-1.28-.05-2.21-.03-1.97-.06-4.8-.11-8.45l.19.19c-19.25.16-62.21.27-112.08.27h0c.92-.92.25-.25.46-.46h0v2.92c0,.97,0,1.94,0,2.89,0,1.91,0,3.79,0,5.62l-.46-.46c31.39.08,59.33.15,79.48.2,10.06.06,18.17.1,23.83.14,2.77.03,4.94.05,6.48.06.71.01,1.27.02,1.7.03.39.01.59.02.6.03.01.01-.17.02-.54.03-.41,0-.95.02-1.64.03-1.51.01-3.64.04-6.37.06-5.63.03-13.71.08-23.72.14-20.24.05-48.3.12-79.82.2h-.46s0-.46,0-.46c0-1.82,0-3.7,0-5.62,0-.96,0-1.92,0-2.89v-2.9h0c.2-.22-.46.44.46-.48h0c49.86,0,92.83.11,112.08.27h.19s0,.19,0,.19c-.05,3.7-.08,6.56-.11,8.56-.02.92-.03,1.63-.05,2.17-.01.48-.03.72-.04.71Z"/>
    </g>
    <g>
      <rect class="st5" x="398.17" y="211.93" width="106.57" height="11.43"/>
      <path class="st1" d="M504.74,223.36s-.02-.27-.04-.77c-.01-.55-.03-1.27-.05-2.21-.03-1.97-.06-4.8-.11-8.45l.19.19c-18.54.16-59.31.26-106.57.26h0c.2-.2-.46.46.46-.46h0v2.92c0,.97,0,1.94,0,2.89,0,1.91,0,3.79,0,5.62l-.46-.46c29.86.08,56.42.15,75.58.2,9.56.06,17.26.1,22.65.14,2.63.03,4.69.05,6.16.06.67.01,1.2.02,1.61.03.37.01.56.02.57.03.01.01-.16.02-.51.03-.4,0-.91.02-1.55.03-1.44.01-3.46.04-6.05.06-5.36.03-13.03.08-22.54.14-19.25.05-45.93.12-75.92.2h-.46s0-.46,0-.46c0-1.82,0-3.7,0-5.62,0-.96,0-1.92,0-2.89v-1.46s0-.73,0-.73v-.71h0v-.02c.92-.92.26-.25.46-.46h0c47.26,0,88.03.11,106.57.26h.2s0,.2,0,.2c-.05,3.7-.08,6.56-.11,8.56-.02.91-.03,1.63-.05,2.16-.01.48-.03.72-.04.71Z"/>
    </g>
    <g>
      <rect class="st5" x="417.55" y="200.53" width="100.78" height="11.43"/>
      <path class="st1" d="M518.33,211.96s-.03-.27-.04-.77c-.01-.55-.03-1.28-.05-2.21-.03-1.97-.06-4.8-.11-8.45l.2.2c-17.79.15-56.26.26-100.77.26h0c.2-.2-.46.46.46-.46h0v2.92c0,.97,0,1.94,0,2.89,0,1.91,0,3.79,0,5.62l-.46-.46c28.25.08,53.37.15,71.48.2,9.03.06,16.32.1,21.41.14,2.48.03,4.43.05,5.82.06.63.01,1.13.02,1.53.03.35.01.53.02.54.03s-.15.02-.48.03c-.38,0-.86.02-1.47.03-1.36.01-3.28.04-5.72.06-5.07.03-12.31.08-21.3.14-18.2.05-43.43.12-71.81.2h-.46s0-.46,0-.46c0-1.82,0-3.7,0-5.62,0-.96,0-1.92,0-2.89v-2.19s0-.37,0-.37v-.34h0v-.02c.92-.92.26-.25.46-.46h0c44.51,0,82.98.11,100.77.26h.2s0,.2,0,.2c-.05,3.7-.09,6.57-.11,8.57-.02.91-.04,1.63-.05,2.16-.01.48-.03.72-.04.7Z"/>
    </g>
    <g>
      <rect class="st5" x="440.16" y="189.09" width="92.47" height="11.43"/>
      <path class="st1" d="M532.64,200.53s-.03-.28-.04-.78c-.01-.55-.03-1.28-.05-2.21-.03-1.98-.07-4.8-.12-8.45l.21.21c-16.72.15-51.88.25-92.47.25h0c-.41.41.56-.56.46-.46h0v2.92c0,.97,0,1.94,0,2.89,0,1.91,0,3.79,0,5.62l-.46-.46c25.95.08,48.98.15,65.61.2,8.28.06,14.95.1,19.63.13,2.27.03,4.06.05,5.34.06.57.01,1.04.02,1.4.03.32.01.49.02.5.03.01.01-.14.02-.44.03-.35,0-.79.02-1.34.03-1.26.02-3.01.04-5.24.06-4.65.03-11.29.08-19.53.13-16.71.05-39.86.12-65.94.2h-.46s0-.46,0-.46c0-1.83,0-3.71,0-5.62,0-.96,0-1.92,0-2.89v-2.19s0-.37,0-.37v-.34h0v-.02c-.1.1.87-.87.46-.46h0c40.59,0,75.74.1,92.47.25h.21s0,.21,0,.21c-.05,3.7-.09,6.56-.12,8.57-.02.91-.04,1.62-.05,2.16-.01.48-.03.72-.04.7Z"/>
    </g>
    <g>
      <rect class="st5" x="459.57" y="177.66" width="85.86" height="11.43"/>
      <path class="st1" d="M545.43,189.09s-.03-.28-.04-.78c-.01-.55-.03-1.28-.05-2.21-.03-1.98-.07-4.8-.12-8.44l.21.21c-15.88.15-48.4.25-85.86.25h0c-.41.41.56-.56.46-.46h0v2.92c0,.97,0,1.93,0,2.89,0,1.91,0,3.79,0,5.62l-.46-.46c24.11.08,45.49.15,60.93.2,7.68.06,13.87.1,18.22.13,2.1.03,3.76.05,4.95.06.53.01.96.02,1.3.03.3.01.45.02.46.03s-.13.02-.4.03c-.33,0-.74.02-1.24.03-1.17.01-2.79.04-4.85.06-4.32.03-10.48.08-18.11.13-15.52.05-37.01.12-61.25.2h-.46s0-.46,0-.46c0-1.83,0-3.71,0-5.62,0-.96,0-1.92,0-2.89v-1.46s0-.73,0-.73v-.71h0v-.02c-.1.1.87-.87.46-.46h0c37.46,0,69.98.1,85.86.25h.22s0,.21,0,.21c-.05,3.69-.09,6.56-.12,8.57-.02.91-.04,1.62-.05,2.16-.01.48-.03.72-.04.7Z"/>
    </g>
    <g>
      <rect class="st5" x="479.87" y="166.23" width="80.08" height="11.43"/>
      <path class="st1" d="M559.96,177.66s-.03-.28-.04-.78c-.01-.56-.03-1.29-.05-2.21-.03-1.99-.07-4.81-.12-8.44l.22.22c-15.14.14-45.35.24-80.08.24h0c-.41.41.56-.56.46-.46h0v2.92c0,.97,0,1.93,0,2.89,0,1.91,0,3.79,0,5.62l-.46-.46c22.51.08,42.44.15,56.84.2,7.15.06,12.92.1,16.98.13,1.95.03,3.5.05,4.62.06.49.01.89.02,1.21.03.28.01.42.02.43.03.01.01-.12.02-.37.03-.31,0-.69.02-1.15.03-1.1.02-2.61.04-4.52.06-4.04.03-9.77.08-16.88.13-14.48.05-34.53.12-57.16.2h-.46s0-.46,0-.46c0-1.83,0-3.71,0-5.62,0-.96,0-1.92,0-2.89v-1.46s0-.73,0-.73v-.37s0-.18,0-.18v-.16h0v-.02c-.1.1.87-.87.46-.46h0c34.73,0,64.94.1,80.08.24h.22s0,.22,0,.22c-.05,3.68-.09,6.55-.12,8.56-.02.9-.04,1.62-.05,2.17-.02.48-.03.72-.04.7Z"/>
    </g>
    <g>
      <rect class="st5" x="500.36" y="154.8" width="71.47" height="11.43"/>
      <path class="st1" d="M571.83,166.23s-.03-.28-.05-.79c-.01-.57-.03-1.3-.05-2.23-.03-2-.07-4.82-.13-8.42l.23.23c-14.04.14-40.81.23-71.47.23h0c-.1.1.87-.87.46-.46h0v1.46s0,1.46,0,1.46c0,.97,0,1.93,0,2.89,0,1.91,0,3.79,0,5.62l-.45-.45c20.11.08,37.89.15,50.74.2,6.37.06,11.51.1,15.14.13,1.73.03,3.1.05,4.12.06.43.01.79.02,1.08.03.25.01.38.02.39.03.02.02-.44.04-1.35.06-.99.02-2.33.04-4.02.06-3.61.03-8.71.08-15.04.13-12.93.05-30.82.12-51.06.2h-.45s0-.46,0-.46c0-1.83,0-3.71,0-5.62,0-.96,0-1.92,0-2.89v-1.46s0-.73,0-.73v-.71h0v-.02c-.41.41.56-.56.46-.46h0c30.65,0,57.42.09,71.47.23h.23s0,.23,0,.23c-.06,3.66-.1,6.52-.13,8.55-.02.9-.04,1.62-.05,2.17-.02.48-.03.72-.05.71Z"/>
    </g>
    <g>
      <rect class="st5" x="521.63" y="143.36" width="63.77" height="11.43"/>
      <path class="st1" d="M585.4,154.8s-.03-.29-.05-.8c-.01-.58-.03-1.32-.06-2.24-.03-2.01-.08-4.83-.14-8.39l.24.24c-13.07.13-36.76.22-63.77.22h0c-.1.1.87-.87.46-.46h0v1.46s0,1.46,0,1.46c0,.97,0,1.93,0,2.89,0,1.91,0,3.79,0,5.63l-.45-.45c17.97.08,33.82.15,45.28.2,5.67.06,10.25.1,13.5.13,1.53.03,2.76.05,3.67.06.84.02,1.3.04,1.32.06.02.02-.39.04-1.2.06-.89.02-2.08.04-3.57.06-3.23.03-7.77.08-13.39.13-11.55.05-27.51.12-45.61.2h-.45s0-.45,0-.45c0-1.84,0-3.72,0-5.63,0-.96,0-1.92,0-2.89v-1.46s0-.73,0-.73v-.71h0v-.02c-.41.41.56-.56.46-.46h0c27.01,0,50.7.09,63.77.22h.25s0,.24,0,.24c-.06,3.62-.1,6.48-.14,8.53-.02.9-.04,1.62-.06,2.19-.02.49-.03.73-.05.71Z"/>
    </g>
    <g>
      <rect class="st5" x="91.62" y="405.29" width="194.35" height="17.64"/>
      <path class="st1" d="M285.96,422.93s-.02-.41-.04-1.18c-.01-.8-.02-1.93-.04-3.41-.02-3.01-.06-7.39-.1-13.04l.18.18c-32.6.05-107.33.15-194.34.28h0l.46-.46c0,6.04,0,12.02,0,17.64l-.46-.46c54.42.08,102.93.15,137.88.19,17.48.06,31.56.1,41.31.14,4.85.03,8.62.05,11.21.06,1.26.01,2.23.02,2.93.03.66.01,1.02.03,1.02.03,0,0-.31.02-.95.03-.68,0-1.63.02-2.87.03-2.57.01-6.3.04-11.11.06-9.72.03-23.77.08-41.21.14-35.03.05-83.66.12-138.21.19h-.46s0-.46,0-.46c0-5.61,0-11.6,0-17.64v-.46s.46,0,.46,0h0c87,.12,161.73.23,194.34.28h.18s0,.18,0,.18c-.05,5.7-.08,10.12-.1,13.15-.02,1.46-.03,2.58-.04,3.37-.01.75-.04,1.12-.04,1.12Z"/>
    </g>
    <g>
      <rect class="st5" x="106.32" y="422.93" width="198.44" height="17.34"/>
      <path class="st1" d="M304.77,440.26s-.02-.41-.04-1.17c-.01-.79-.02-1.91-.04-3.36-.02-2.96-.06-7.27-.1-12.81l.18.18c-33.01.05-109.41.15-198.43.28h-.01l.46-.46c0,5.94,0,11.82,0,17.34l-.46-.46c55.54.08,105.08.14,140.77.19,17.85.06,32.24.1,42.2.14,4.95.03,8.8.05,11.45.06,1.29.01,2.28.02,2.99.03.68.01,1.04.03,1.04.03,0,0-.32.02-.98.03-.69,0-1.66.02-2.93.03-2.62.01-6.44.04-11.35.06-9.93.03-24.28.08-42.09.14-35.78.05-85.43.12-141.1.19h-.46s0-.46,0-.46c0-5.52,0-11.4,0-17.34v-.46h.47c89.02.13,165.42.23,198.43.28h.18s0,.18,0,.18c-.04,5.59-.08,9.93-.1,12.91-.02,1.44-.03,2.54-.04,3.32-.01.74-.04,1.1-.04,1.1Z"/>
    </g>
    <g>
      <rect class="st5" x="124.21" y="440.36" width="200.81" height="21.23"/>
      <path class="st1" d="M325.02,461.59s-.02-.49-.04-1.41c-.01-.95-.03-2.3-.05-4.08-.03-3.6-.06-8.88-.11-15.74l.19.19c-34.92.05-111.72.15-200.8.27h-.01l.46-.46c0,7.27,0,14.46,0,21.23l-.46-.46c56.35.08,106.48.15,142.56.2,18.05.06,32.58.1,42.63.14,5,.03,8.89.05,11.56.06,1.3.01,2.3.02,3.01.03.68.01,1.05.03,1.05.03,0,0-.32.02-.98.03-.7,0-1.68.02-2.95.03-2.65.01-6.5.04-11.45.06-10.03.03-24.52.08-42.53.14-36.17.05-86.42.12-142.89.2h-.46s0-.46,0-.46c0-6.77,0-13.96,0-21.23v-.46h.47c89.08.12,165.88.22,200.8.27h.2s0,.19,0,.19c-.05,6.91-.09,12.23-.11,15.85-.02,1.76-.04,3.1-.05,4.04-.01.9-.04,1.34-.04,1.34Z"/>
    </g>
    <g>
      <rect class="st5" x="145.54" y="461.69" width="203.39" height="24.37"/>
      <path class="st1" d="M348.93,486.06s-.03-.56-.04-1.61c-.01-1.08-.03-2.64-.05-4.68-.03-4.13-.07-10.19-.12-18.08l.2.2c-36.56.05-113.94.14-203.38.26h-.01l.46-.46c0,8.35,0,16.59,0,24.37l-.46-.46c57.18.08,107.96.15,144.48.2,18.27.06,32.96.1,43.13.13,5.06.03,8.99.05,11.68.06,1.32.01,2.33.02,3.05.03.69.01,1.06.03,1.06.03,0,0-.33.02-1,.03-.7,0-1.69.02-2.99.03-2.67.01-6.57.04-11.58.06-10.14.03-24.8.08-43.02.13-36.6.05-87.5.12-144.81.2h-.46s0-.46,0-.46c0-7.78,0-16.02,0-24.37v-.46h.47c89.44.11,166.82.21,203.38.26h.21s0,.2,0,.2c-.05,7.94-.09,14.05-.12,18.2-.02,2.02-.04,3.56-.05,4.63-.01,1.03-.04,1.54-.04,1.54Z"/>
    </g>
    <g>
      <rect class="st5" x="171.37" y="486.1" width="226.6" height="31.81"/>
      <path class="st1" d="M397.96,517.91s-.03-.72-.04-2.1c-.01-1.4-.03-3.44-.05-6.11-.03-5.38-.07-13.3-.12-23.59l.22.22c-42.68.05-128.21.14-226.58.24h-.01l.46-.46c0,10.9,0,21.63,0,31.81l-.46-.46c63.88.08,120.46.15,161.1.2,20.33.06,36.67.1,47.97.13,5.63.03,9.99.05,12.98.06,1.47.01,2.59.02,3.38.03.76.01,1.17.03,1.17.03,0,0-.36.02-1.11.03-.78,0-1.88.02-3.32.03-2.97.01-7.29.04-12.88.06-11.27.03-27.57.08-47.86.13-40.72.05-97.42.12-161.43.2h-.46s0-.46,0-.46c0-10.17,0-20.91,0-31.81v-.46h.47c98.37.11,183.9.2,226.58.24h.22s0,.22,0,.22c-.05,10.34-.09,18.3-.12,23.72-.02,2.65-.04,4.68-.05,6.07-.02,1.36-.04,2.02-.04,2.02Z"/>
    </g>
    <g>
      <rect class="st5" x="202.14" y="518.15" width="247.99" height="31.49"/>
      <path class="st1" d="M450.13,549.64s-.03-.71-.04-2.07c-.01-1.38-.03-3.4-.05-6.04-.03-5.32-.07-13.17-.12-23.38l.21.21c-45.29.05-139.4.14-247.97.25h-.01l.46-.46c0,10.79,0,21.43,0,31.49l-.46-.46c69.8.08,131.73.15,176.24.2,22.27.06,40.17.1,52.54.13,6.17.03,10.95.05,14.22.06,1.61.01,2.84.02,3.7.03.84.01,1.28.03,1.28.03,0,0-.4.02-1.22.03-.85,0-2.06.02-3.64.03-3.25.01-8,.04-14.12.06-12.34.03-30.21.08-52.44.13-44.59.05-106.63.12-176.57.2h-.46s0-.46,0-.46c0-10.06,0-20.7,0-31.49v-.46h.47c108.58.11,202.68.2,247.97.25h.21s0,.21,0,.21c-.05,10.27-.09,18.15-.12,23.5-.02,2.63-.04,4.62-.05,5.99-.01,1.34-.04,2-.04,2Z"/>
    </g>
    <g>
      <rect class="st5" x="230.02" y="549.64" width="271.66" height="32.07"/>
      <path class="st1" d="M501.69,581.71s-.03-.72-.04-2.11c-.01-1.4-.03-3.45-.05-6.15-.03-5.42-.06-13.41-.12-23.81l.2.2c-48.57.05-152.03.14-271.65.26h-.01l.46-.46c0,10.99,0,21.84,0,32.07l-.46-.46c76.39.08,144.24.15,193.01.2,24.41.06,44.04.1,57.6.13,6.77.03,12.01.05,15.59.06,1.77.01,3.12.02,4.06.03.92.01,1.4.03,1.4.03,0,0-.44.02-1.34.03-.92,0-2.26.02-4,.03-3.56.01-8.77.04-15.49.06-13.53.03-33.13.08-57.49.13-48.86.05-116.83.12-193.34.2h-.46s0-.46,0-.46c0-10.23,0-21.08,0-32.07v-.46h.47c119.62.11,223.08.21,271.65.26h.2s0,.2,0,.2c-.05,10.46-.09,18.49-.12,23.93-.02,2.68-.04,4.71-.05,6.1-.01,1.36-.04,2.04-.04,2.04Z"/>
    </g>
    <g>
      <rect class="st5" x="266.11" y="581.71" width="292.31" height="32.07"/>
      <path class="st1" d="M558.42,613.78s-.02-.72-.04-2.11c-.01-1.4-.03-3.45-.05-6.15-.03-5.42-.06-13.41-.11-23.81l.2.2c-51.23.05-162.91.15-292.3.26h-.02l.46-.46c0,10.99,0,21.84,0,32.07l-.46-.46c82.11.08,155.12.15,207.63.2,26.27.06,47.41.1,62.01.14,7.29.03,12.94.05,16.79.06,1.91.01,3.36.02,4.37.03.99.01,1.51.03,1.51.03,0,0-.48.02-1.45.03-.99,0-2.43.02-4.31.03-3.83.01-9.45.04-16.69.06-14.57.03-35.68.08-61.9.14-52.59.05-125.72.12-207.96.2h-.46s0-.46,0-.46c0-10.23,0-21.08,0-32.07v-.46h.47c129.39.12,241.07.22,292.3.26h.2v.2c-.05,10.45-.09,18.48-.11,23.92-.02,2.68-.04,4.71-.05,6.11-.01,1.36-.04,2.04-.04,2.04Z"/>
    </g>
    <g>
      <rect class="st5" x="302.73" y="613.78" width="333.65" height="41.27"/>
      <path class="st1" d="M636.39,655.05s-.03-.92-.04-2.7c-.01-1.79-.03-4.43-.05-7.91-.03-6.96-.07-17.25-.12-30.66l.21.21c-60.42.05-187.22.14-333.63.25h-.02l.46-.46c0,14.14,0,28.09,0,41.27l-.46-.46c93.91.08,177.25.15,237.15.2,29.97.06,54.07.1,70.69.13,8.31.03,14.74.05,19.13.06,2.17.01,3.83.02,4.97.03,1.12.01,1.71.03,1.71.03,0,0-.55.02-1.65.03-1.13,0-2.77.02-4.92.03-4.36.01-10.76.04-19.02.06-16.6.03-40.66.08-70.59.13-59.98.05-143.44.12-237.48.2h-.46s0-.46,0-.46c0-13.18,0-27.13,0-41.27v-.46h.48c146.41.11,273.22.21,333.63.25h.21s0,.21,0,.21c-.05,13.46-.09,23.79-.12,30.78-.02,3.45-.04,6.08-.05,7.86-.01,1.76-.04,2.63-.04,2.63Z"/>
    </g>
    <g>
      <rect class="st5" x="348.48" y="655.32" width="360.32" height="41.27"/>
      <path class="st1" d="M708.8,696.59s-.03-.92-.04-2.7c-.01-1.79-.03-4.43-.05-7.91-.03-6.96-.06-17.25-.11-30.66l.2.2c-63.84.05-201.28.14-360.3.26h-.02l.46-.46c0,14.14,0,28.1,0,41.27l-.46-.46c101.3.08,191.31.15,256.02.2,32.38.06,58.42.1,76.4.14,8.98.03,15.94.05,20.67.06,2.35.01,4.15.02,5.38.03,1.21.01,1.85.03,1.85.03,0,0-.59.02-1.79.03-1.22,0-2.99.02-5.32.03-4.71.01-11.64.04-20.57.06-17.95.03-43.95.08-76.29.13-64.8.05-154.92.12-256.35.2h-.46s0-.46,0-.46c0-13.17,0-27.13,0-41.27v-.46h.48c159.02.11,296.46.21,360.3.26h.2s0,.2,0,.2c-.05,13.46-.09,23.79-.11,30.78-.02,3.46-.04,6.08-.05,7.86-.01,1.76-.04,2.63-.04,2.63Z"/>
    </g>
    <g>
      <rect class="st5" x="390.7" y="696.59" width="385.34" height="41.27"/>
      <path class="st1" d="M776.04,737.86s-.02-.92-.04-2.71c-.01-1.79-.03-4.43-.05-7.91-.03-6.96-.06-17.26-.11-30.65l.19.19c-67.06.05-214.46.15-385.32.26h-.02l.46-.46c0,14.14,0,28.11,0,41.27l-.46-.46c108.23.08,204.5.15,273.73.2,34.64.06,62.51.1,81.75.14,9.61.03,17.06.05,22.13.06,2.52.01,4.44.02,5.76.03,1.3.01,1.98.03,1.98.03,0,0-.64.02-1.92.03-1.3,0-3.2.02-5.7.03-5.04.01-12.46.04-22.02.06-19.21.03-47.04.08-81.64.14-69.32.05-165.7.12-274.06.2h-.46s0-.46,0-.46c0-13.16,0-27.13,0-41.27v-.46h.48c170.86.12,318.26.22,385.32.26h.2s0,.19,0,.19c-.05,13.45-.09,23.78-.11,30.77-.02,3.46-.04,6.08-.05,7.87-.01,1.76-.04,2.64-.04,2.64Z"/>
    </g>
    <g>
      <rect class="st5" x="482.63" y="737.86" width="344.65" height="41.27"/>
      <path class="st1" d="M827.28,779.13s-.03-.92-.04-2.7c-.01-1.79-.03-4.43-.05-7.91-.03-6.96-.07-17.25-.12-30.66l.2.2c-61.83.05-193.02.14-344.63.26h-.02l.46-.46c0,14.14,0,28.1,0,41.27l-.46-.46c96.95.08,183.05.15,244.93.2,30.96.06,55.86.1,73.04.13,8.58.03,15.24.05,19.76.06,2.25.01,3.96.02,5.14.03,1.16.01,1.77.03,1.77.03,0,0-.57.02-1.71.03-1.16,0-2.86.02-5.08.03-4.5.01-11.12.04-19.66.06-17.16.03-42.02.08-72.94.13-61.96.05-148.17.12-245.26.2h-.46s0-.46,0-.46c0-13.17,0-27.13,0-41.27v-.46s.46,0,.46,0h.02c151.61.11,282.8.21,344.63.26h.2s0,.2,0,.2c-.05,13.46-.09,23.79-.12,30.78-.02,3.45-.04,6.08-.05,7.86-.01,1.76-.04,2.63-.04,2.63Z"/>
    </g>
    <polygon class="st2" points="634.61 738.32 655.75 779.12 615.71 779.12 594.89 737.84 634.61 738.32"/>
    <polygon class="st2" points="700.71 738.32 721.85 779.12 685.1 779.12 663.51 737.87 700.71 738.32"/>
    <polygon class="st2" points="668.69 696.08 689.83 737.86 649.8 737.86 631.92 696.6 668.69 696.08"/>
    <polygon class="st0" points="262.34 755.12 151.05 614.3 135.8 627.14 128.31 564.53 182.19 586.98 167.59 599.1 322.1 755.12 262.34 755.12"/>
    <polygon class="st2" points="599.99 697.06 621.13 737.86 581.1 737.86 562.79 696.61 599.99 697.06"/>
  </g>
  <g>
    <g>
      <rect class="st6" x="655.24" y="559.2" width="76.77" height="57.47"/>
      <rect class="st2" x="725.57" y="559.2" width="6.44" height="57.47"/>
      <path class="st1" d="M723.91,561.79s-.12.29-.43.8c-.3.51-.77,1.25-1.41,2.18-1.27,1.86-3.21,4.5-5.98,7.45-2.76,2.96-6.45,6.09-10.84,9.13-4.39,3.19-10.27,4.98-16.42,5.46-1.55.12-3.07.18-4.58.17-1.54-.02-3.04-.26-4.47-.66-2.86-.79-5.38-2.19-7.56-3.76-4.37-3.18-7.44-7-9.78-10.27-2.33-3.3-3.94-6.14-5.02-8.12-.54-.99-.94-1.77-1.2-2.3-.26-.53-.38-.82-.35-.84.03-.02.2.24.52.75.36.6.81,1.33,1.34,2.21,1.17,1.91,2.86,4.69,5.24,7.91,2.38,3.19,5.46,6.91,9.74,9.96,2.14,1.51,4.58,2.84,7.31,3.58,2.71.81,5.69.65,8.73.44,6.05-.48,11.74-2.19,16.02-5.25,4.38-2.97,8.06-6.01,10.85-8.88,2.8-2.86,4.8-5.42,6.15-7.21,1.36-1.79,2.06-2.81,2.13-2.77Z"/>
    </g>
    <g>
      <g>
        <path class="st6" d="M610.76,657.57l.02,24.41s-26.32,10.19-26.55,15.08l49.98-.45-.07-3.65-2.24-12.45,1.11-24.2-22.25,1.27Z"/>
        <path class="st1" d="M634.21,696.61l-.07-3.65-47.93,1.48s-2.26,1.02-1.98,2.62l49.98-.45Z"/>
        <path class="st1" d="M609.95,681.73c.01.25,1.26.34,2.5,1.13,1.26.75,1.91,1.83,2.14,1.72.23-.05-.16-1.54-1.68-2.46-1.51-.94-3.02-.62-2.96-.39Z"/>
        <path class="st1" d="M604.61,684.03c-.05.24,1.03.65,1.9,1.7.89,1.02,1.12,2.16,1.37,2.14.24.04.39-1.43-.71-2.71-1.09-1.29-2.56-1.37-2.56-1.13Z"/>
        <path class="st1" d="M601.66,690.49c.23.05.56-1.2-.1-2.56-.65-1.36-1.84-1.89-1.94-1.68-.14.21.63.93,1.16,2.05.55,1.11.64,2.16.89,2.18Z"/>
        <path class="st1" d="M610.58,676.13c.11.23,1.25-.13,2.66-.06,1.41.05,2.52.51,2.65.29.14-.18-.94-1.09-2.61-1.16-1.66-.08-2.83.73-2.7.93Z"/>
      </g>
      <path class="st2" d="M619.22,696.61s1.68-2.1,3.71-6.93c2.03-4.83,4.34-6.07,4.62-6.64.28-.57-.56-5.38-.56-5.38h5.04s-.19,1.8,0,3.2c.19,1.4,2.12,12.45,2.12,12.45l.06,3.29h-14.99Z"/>
    </g>
    <g>
      <g>
        <path class="st6" d="M693.06,731.21l7.67,23.13s-23.58,15.51-22.77,20.34l48.76-10.99-.84-3.56-4.82-11.7-8.41-22.94-19.59,5.72Z"/>
        <path class="st1" d="M726.72,763.69l-.84-3.56-46.54,11.57s-2,1.48-1.38,2.98l48.76-10.99Z"/>
        <path class="st1" d="M695.13,757.64c0,.25,1.15.42,2.21,1.26,1.09.81,1.55,1.87,1.79,1.81.24-.01.08-1.48-1.27-2.5-1.33-1.03-2.79-.8-2.74-.57Z"/>
        <path class="st1" d="M693.61,764.58c.23,0,.29-1.29-.64-2.48-.92-1.2-2.19-1.46-2.25-1.23-.09.23.81.78,1.56,1.76.77.97,1.08,1.98,1.33,1.95Z"/>
        <path class="st1" d="M696.83,748.98c.15.2,1.19-.4,2.59-.62,1.39-.25,2.57-.04,2.65-.28.1-.21-1.15-.87-2.79-.58-1.64.27-2.61,1.31-2.44,1.48Z"/>
      </g>
      <path class="st2" d="M712.13,767s1.15-2.43,2.02-7.59c.87-5.16,2.83-6.9,2.97-7.52.14-.62-2.13-6.09-2.13-6.09l4.74-.86s.96,2.39,1.46,3.71c.5,1.32,4.71,11.72,4.71,11.72l.82,3.19-14.59,3.43Z"/>
    </g>
    <path class="st10" d="M611.62,540.64l-7.46-14.09c-.48.8-13.9,6.58-14.71,8.75-.81,2.17-.27,7.87,0,8.82s1.63.85,1.63.85c0,0,.27,3.22.95,4.03.68.81,2.08,0,2.08,0,0,0,1.31,2.44,3.07,1.49,0,0,.11,1.9,2.02,2.03,1.91.14,4.63-1.08,4.63-1.08,0,0,3.93-3.39,2.98-4.48l-.95-1.09s4.73-1.38,5.76-5.23Z"/>
    <g>
      <path class="st1" d="M667.69,325.73c-1.09-2-3.55-3.14-5.78-2.68-2.67-2.03-6.77-1.86-9.27.37-2-1.13-4.6-1.13-6.61,0-2,1.14-3.33,3.37-3.38,5.67-2.9,1.64-4.97,1.71-5.79,3.07-1.19,2-.57,4.82,1.09,6.46-2.49.87-4.08,3.76-3.47,6.33.61,2.56,3.33,4.44,5.95,4.09l26.37-16.99c1.59-1.62,1.96-4.31.87-6.31Z"/>
      <g>
        <g>
          <path class="st10" d="M663.17,328.33l-1.18.02c-11.89.24-21.6,9.58-22.31,21.45-.66,11.04-1.25,23.25-1.06,29.16.4,12.24,12.69,13.9,12.69,13.9l.18,10.81,26.43-2.58,3.9-48.43c.84-12.74-5.88-23.84-18.63-24.32Z"/>
          <path class="st9" d="M651.2,392.84s7.83.31,15.95-5.02c0,0-3.59,8.89-15.83,8.04l-.11-3.01Z"/>
          <path class="st1" d="M643.15,360.28c-.01.92.76,1.7,1.72,1.73.96.03,1.76-.69,1.77-1.61.01-.92-.76-1.7-1.72-1.73-.97-.03-1.76.69-1.77,1.61Z"/>
          <path class="st1" d="M642.43,355.74c.22.22,1.53-.78,3.41-.82,1.88-.06,3.28.88,3.48.64.1-.1-.13-.51-.74-.94-.6-.42-1.62-.83-2.79-.8-1.17.03-2.15.48-2.71.94-.57.46-.76.87-.65.97Z"/>
          <path class="st1" d="M659.78,360.28c-.01.92.76,1.7,1.72,1.73.96.03,1.76-.69,1.77-1.61.01-.92-.76-1.7-1.72-1.73-.96-.03-1.76.69-1.77,1.61Z"/>
          <path class="st1" d="M660.93,355.71c.22.22,1.53-.78,3.41-.82,1.88-.06,3.28.88,3.48.64.1-.1-.13-.51-.74-.94-.6-.42-1.62-.83-2.79-.8-1.17.03-2.15.48-2.71.94-.57.46-.76.87-.65.97Z"/>
          <path class="st1" d="M654.39,369.81c0-.11-1.17-.29-3.07-.49-.48-.04-.94-.13-1.03-.45-.12-.34.07-.87.29-1.43.43-1.17.88-2.4,1.35-3.69,1.87-5.25,3.21-9.56,3-9.64-.21-.07-1.9,4.12-3.76,9.37-.45,1.29-.88,2.53-1.29,3.71-.17.55-.47,1.18-.21,1.89.14.36.49.61.8.69.31.09.58.09.82.1,1.91.06,3.09.05,3.1-.06Z"/>
          <path class="st1" d="M659.95,371c-.31-.01-.27,2.03-1.99,3.52-1.72,1.49-3.9,1.31-3.91,1.59-.03.13.49.39,1.41.39.9.01,2.21-.3,3.26-1.21,1.05-.91,1.48-2.11,1.54-2.95.06-.86-.18-1.36-.32-1.34Z"/>
          <path class="st1" d="M660.29,348.35c.2.51,2.07.23,4.28.45,2.22.18,4.01.79,4.29.32.13-.22-.19-.7-.92-1.18-.72-.48-1.87-.93-3.2-1.05-1.33-.12-2.54.12-3.33.46-.8.34-1.2.75-1.12.99Z"/>
          <path class="st1" d="M642.06,350.35c.34.42,1.63-.05,3.19-.1,1.56-.11,2.88.23,3.18-.23.13-.22-.09-.64-.67-1.04-.58-.39-1.53-.7-2.6-.65-1.07.06-1.99.46-2.52.91-.54.45-.71.89-.56,1.1Z"/>
          <path class="st1" d="M640.55,343.41s3.07-7.73,6.73-9.6c4.43-2.26,6.46,2.62,10.7,1.34,4.24-1.28,8.47-3.45,12.9-.24,4.85,3.51,2.66,6.09,3.07,11.52,1.65,22,5.8,28.15,6.73,17.75.1-1.14,3.24-2.11,3.61-6.92.48-6.24.56-13.81-.92-18.2-1.25-3.7-3.42-6.23-7.29-8.99-6.1-4.36-14.36-4.28-19.96-3.6-5.6.68-16.28,7.35-15.57,16.95Z"/>
          <path class="st10" d="M680.08,364.61c.04-1.89,1.64-3.42,3.52-3.28,2.29.17,4.86,1.42,4.8,6.14-.1,8.38-8.49,6.55-8.5,6.31,0-.16.1-5.67.17-9.17Z"/>
          <path class="st9" d="M681.76,370.66s.14.1.39.22c.24.11.65.19,1.09.03.89-.31,1.65-1.71,1.71-3.22.03-.76-.12-1.49-.38-2.09-.25-.62-.64-1.05-1.08-1.13-.44-.11-.76.16-.87.39-.12.23-.06.4-.11.41-.02.02-.18-.14-.11-.49.04-.17.14-.36.34-.52.2-.16.5-.24.81-.2.65.05,1.22.65,1.51,1.32.33.67.51,1.48.48,2.34-.07,1.69-.96,3.26-2.17,3.59-.59.15-1.08-.04-1.33-.24-.26-.21-.3-.4-.27-.41Z"/>
        </g>
        <path class="st1" d="M679.58,348.4c-1.07.76-2.2,1.55-3.51,1.71-1.31.16-2.82-.57-3.07-1.86-.11-.58.02-1.26-.38-1.7-.47-.53-1.31-.34-2.01-.25-2.43.31-4.96-1.36-5.62-3.72-.6.94-2.05.93-3,.35-.95-.59-1.58-1.57-2.33-2.39-.75-.83-1.8-1.56-2.9-1.38-.62.1-1.19.48-1.81.44-1.1-.08-1.66-1.35-1.85-2.44-.19-1.09-.34-2.36-1.29-2.93-.87-.53-1.99-.19-2.99-.02-1.01.17-2.32-.04-2.6-1.03-.15-.52.07-1.07.34-1.53,1.26-2.08,4.09-3.05,6.36-2.18.76-2.78,3.31-4.99,6.17-5.35,2.86-.36,5.87,1.14,7.3,3.65,1.74-1.64,4.29-2.37,6.63-1.88,2.34.48,4.4,2.16,5.34,4.36,2.03-.58,4.36.16,5.69,1.8,1.32,1.64,1.56,4.08.57,5.94,1.52.83,2.84,2.3,2.91,4.03.07,1.73-1.59,3.49-3.27,3.07.7,1.34.19,3.18-1.1,3.96-1.29.78-3.16.38-4.02-.87"/>
      </g>
      <path class="st6" d="M684.87,345.04s.17.7-.49,1.62c-.33.44-.89.9-1.66,1.03-.75.14-1.68-.02-2.4-.64l.35-.06c-.4.73-.93,1.47-1.63,2.12-.45.41-.95.77-1.51.98-.55.23-1.17.26-1.68.19-1.06-.1-2-.65-2.44-1.34-.46-.67-.61-1.31-.71-1.73-.09-.43-.11-.67-.08-.67.04,0,.11.22.26.62.15.4.36.99.81,1.58.82,1.18,3.42,1.74,5.03.01.65-.6,1.16-1.31,1.55-1.99l.14-.25.21.19c.59.53,1.38.7,2.03.6.66-.09,1.17-.46,1.5-.83.66-.78.64-1.46.71-1.44Z"/>
      <path class="st6" d="M668.66,326.25s-.22.06-.59.23c-.36.17-.89.49-1.28,1.13l-.1.16-.12-.15c-.8-1.03-2.14-2.36-4.12-3.19-.98-.41-2.11-.68-3.31-.66-1.19.02-2.43.39-3.52,1.09-.85.54-1.56,1.25-2.07,2.04-.5.8-.8,1.68-.87,2.54l-.02.27-.25-.06c-1.27-.32-2.54-.05-3.47.49-.94.54-1.53,1.36-1.86,2.08-.65,1.49-.39,2.5-.47,2.49-.02,0-.09-.23-.12-.68-.02-.45.02-1.13.34-1.91.31-.78.91-1.67,1.92-2.29.99-.61,2.37-.94,3.77-.61l-.28.2c.06-.94.38-1.9.91-2.77.55-.86,1.3-1.62,2.21-2.2,1.16-.74,2.5-1.14,3.78-1.15,1.28-.02,2.47.29,3.49.73,2.05.91,3.39,2.33,4.16,3.43h-.22c.46-.67,1.05-.98,1.45-1.11.41-.13.64-.12.64-.1Z"/>
    </g>
    <g>
      <path class="st1" d="M646.57,537.57c-1.66.72-42.55,12.32-45.87,28.9-3.32,16.58,4.82,113.32,4.82,113.32l33.66.77-4.21-88.11-1.38-3.59,5.25-3.08,11.61-6.59,6.08-36.86-9.95-4.76Z"/>
      <path class="st6" d="M628.41,592.82c-.02.05-.5-.08-1.33-.43-.83-.34-2.01-.9-3.4-1.71-1.39-.81-2.99-1.88-4.64-3.24-.82-.68-1.66-1.43-2.48-2.25-.4-.42-.84-.79-1.23-1.37-.4-.55-.59-1.52-.03-2.22.26-.37.81-.56,1.22-.49.41.05.72.22.99.35.53.26,1.06.52,1.57.77,1.02.51,2.01,1,2.97,1.48,1.81.92,3.49,1.78,5,2.55,2.83,1.47,4.56,2.44,4.5,2.56-.06.11-1.88-.65-4.79-1.97-1.54-.72-3.24-1.51-5.08-2.37-.96-.46-1.96-.94-2.99-1.43-.52-.25-1.04-.5-1.58-.76-.55-.28-.92-.36-1.08-.11-.54.67.37,1.6,1.18,2.38.8.81,1.6,1.55,2.39,2.23,1.58,1.36,3.11,2.47,4.44,3.33,2.65,1.73,4.46,2.56,4.39,2.69Z"/>
      <path class="st6" d="M628.66,611.18c-.09.08-1.19-.98-2.85-2.81-1.66-1.82-3.87-4.42-6.18-7.39-2.31-2.97-4.28-5.76-5.64-7.82-1.36-2.06-2.11-3.39-2.01-3.46.11-.07,1.05,1.12,2.54,3.08,1.71,2.24,3.67,4.8,5.83,7.63,2.21,2.79,4.2,5.33,5.95,7.54,1.53,1.93,2.45,3.14,2.36,3.23Z"/>
    </g>
    <g>
      <g>
        <path class="st1" d="M644.1,553.64c-.51,1.26,5.89,83.54,9.73,92.68,3.84,9.14,37.94,106.06,37.94,106.06l33.8-9.58s-21.55-78.02-24.88-91.13c-3.33-13.11-6.66-16.38-6.66-16.38,0,0-1.02-48.64-.77-53.68.26-5.04,11.28-18.25,14.09-26.77,2.81-8.51-63.24-1.21-63.24-1.21Z"/>
        <path class="st6" d="M644.1,553.64s.24-.05.7-.11c.49-.06,1.18-.14,2.08-.25,1.86-.19,4.58-.47,8.09-.84,7.08-.64,17.44-1.61,30.6-1.94,3.29-.06,6.75-.08,10.38.1,1.81.09,3.67.23,5.56.5.94.14,1.89.31,2.84.57.94.28,1.92.58,2.75,1.32.41.36.71.98.61,1.58-.11.6-.33.98-.5,1.49-.36.95-.79,1.88-1.24,2.8-.9,1.86-1.96,3.66-3.04,5.49-2.18,3.65-4.62,7.31-6.85,11.22-1.05,1.95-2.26,4.02-2.47,6.2-.06,2.3-.02,4.68,0,7.07.07,4.79.14,9.72.21,14.76.2,10.09.41,20.67.62,31.66l-.12-.29c1.37,1.6,2.17,3.37,3.01,5.18.8,1.82,1.48,3.69,2.1,5.6,1.22,3.82,2.16,7.76,3.28,11.69,2.16,7.89,4.37,15.96,6.62,24.2,4.5,16.48,9.18,33.61,13.98,51.17.9,3.3,1.79,6.58,2.68,9.84l.12.44-.44.12c-11.54,3.27-22.84,6.47-33.8,9.57l-.41.12-.14-.4c-9.77-27.63-18.94-53.57-27.21-76.96-2.1-5.83-4.13-11.51-6.11-17.01-1.01-2.74-2-5.44-2.97-8.09-.51-1.32-1.01-2.62-1.5-3.91-.41-1.35-.86-2.71-1.07-4.06-1.08-5.38-1.7-10.61-2.33-15.62-.6-5.01-1.12-9.82-1.59-14.4-1.84-18.33-2.98-33.04-3.7-43.16-.36-5.06-.58-8.98-.72-11.63-.05-1.33-.09-2.33-.09-3.02.03-.7.06-1.02.06-1.02,0,0,.02.37.03,1.03.04.7.1,1.7.17,3.01.2,2.68.49,6.58.87,11.62.82,10.11,2.05,24.82,3.96,43.13.49,4.58,1.02,9.38,1.65,14.38.65,5,1.29,10.23,2.37,15.55.22,1.36.65,2.62,1.04,3.93.51,1.3,1.04,2.61,1.53,3.93.98,2.65,1.98,5.35,3,8.09,1.99,5.5,4.04,11.17,6.15,17,8.3,23.37,17.51,49.31,27.32,76.92l-.55-.28c10.96-3.11,22.26-6.31,33.79-9.58l-.32.56c-.89-3.26-1.79-6.54-2.69-9.84-4.79-17.57-9.47-34.71-13.96-51.19-2.25-8.24-4.45-16.32-6.6-24.21-1.12-3.94-2.05-7.87-3.25-11.64-.61-1.89-1.28-3.74-2.07-5.52-.79-1.75-1.67-3.57-2.82-4.93l-.12-.14v-.15c-.2-11-.39-21.57-.56-31.67-.06-5.05-.12-9.97-.18-14.77,0-2.4-.04-4.76.03-7.11.26-2.5,1.51-4.52,2.58-6.51,2.26-3.95,4.72-7.59,6.9-11.22,1.08-1.82,2.14-3.61,3.04-5.43.45-.91.88-1.82,1.23-2.75.15-.45.41-.96.47-1.35.06-.4-.1-.77-.42-1.06-.65-.59-1.59-.92-2.48-1.18-.91-.25-1.84-.43-2.77-.57-1.86-.28-3.7-.43-5.5-.52-3.61-.19-7.06-.2-10.34-.15-13.13.26-23.5,1.15-30.59,1.7-3.52.31-6.23.54-8.1.7-.9.08-1.59.14-2.08.18-.47.04-.71.04-.71.04Z"/>
      </g>
      <path class="st6" d="M690.72,640.15c.04.1-1.32.82-3.74,1.36-1.21.26-2.68.45-4.32.46-.82,0-1.68-.04-2.57-.15-.43-.06-.97-.1-1.48-.46-.26-.19-.46-.45-.56-.77-.11-.32-.07-.77.16-1.06.48-.59,1.06-.64,1.48-.76.44-.1.88-.2,1.31-.3.86-.18,1.7-.33,2.51-.45,1.6-.24,3.06-.37,4.29-.42,2.45-.1,3.96.07,3.96.18,0,.14-1.51.2-3.91.46-1.2.14-2.63.32-4.2.61-.78.14-1.61.31-2.45.5-.42.1-.85.2-1.29.31-.44.1-.85.24-.95.4-.11.11-.03.39.2.57.23.18.62.25,1.05.3.85.11,1.68.18,2.47.2,1.58.04,3-.08,4.19-.25,2.38-.36,3.8-.86,3.85-.72Z"/>
    </g>
    <path class="st2" d="M624.88,563.83l1.28,3.07s66.95-3.76,72.55-5.66c5.6-1.91,6.58-4.36,6.58-4.36l-80.41,6.95Z"/>
    <g>
      <path class="st6" d="M711.72,426.72c.15,1.41,6.73,43.95,7.62,56.95.9,13-10.76,61.3-10.76,61.3l-19.28-4.8,8.52-100.89,6.53-23.75s6.77,5.51,7.37,11.19Z"/>
      <path class="st2" d="M711.72,426.72c.15,1.41,6.73,43.95,7.62,56.95.9,13-10.76,61.3-10.76,61.3l-19.28-4.8,8.52-100.89,6.53-23.75s6.77,5.51,7.37,11.19Z"/>
      <path class="st6" d="M679.93,396.13l-.71-4.86s-23.11-.2-28.03,8.58l-7.17,3.65s-17.37,25.73-19.13,59.72c-1.93,37.18-5.01,100.51-.08,100.32,4.95-.2,64.5-3.31,69.44-4.37,4.93-1.06,23.1-3.07,23.1-3.07l-14.19-71.62s3.69-64.08,3.25-66.93c-.45-2.85-17.08-15.88-26.45-21.42Z"/>
      <path class="st1" d="M633.29,518.77s.58-.16,1.75-.35c1.34-.2,3.03-.46,5.08-.77,4.36-.63,10.57-1.5,17.78-2.43l.51-.07v.51c-.05,1.54-.12,3.12-.24,4.76-.06.82-.14,1.65-.25,2.49-.06.42-.12.85-.21,1.28-.04.21-.1.44-.16.66,0,.08-.13.32-.24.46-.11.11-.22.19-.34.28-1.22.67-2.38.82-3.55,1.07-1.16.21-2.3.37-3.43.51-2.25.27-4.42.45-6.5.58-4.15.25-7.87.4-11.05.24-.2-.01-.4-.03-.6-.06-.2-.03-.51-.12-.69-.35-.31-.45-.29-.87-.29-1.24.03-.75.19-1.41.34-2.02.32-1.22.69-2.23,1-3.05.31-.82.58-1.45.76-1.87.18-.41.29-.66.32-.63.08.02-.21.96-.74,2.62-.26.83-.57,1.86-.84,3.06-.13.6-.25,1.25-.26,1.91,0,.32.05.68.19.84.06.12.48.14.86.16,3.09.07,6.83-.14,10.95-.44,2.06-.16,4.22-.35,6.45-.63,1.11-.14,2.24-.3,3.37-.51,1.1-.22,2.33-.45,3.21-.94l.15-.12s.02.03.05-.11c.05-.19.1-.38.14-.58.08-.4.14-.81.2-1.21.11-.82.19-1.64.25-2.44.13-1.62.21-3.2.26-4.72l.5.45c-7.07.86-13.2,1.56-17.6,2.03-2.09.21-3.82.39-5.18.53-1.22.11-1.9.16-1.94.12Z"/>
      <path class="st2" d="M622.14,534.29v5.57s18.7-16.77,24.26-28.59c13.52-28.78,11.06-39.87,11.06-39.87l-35.31,62.88Z"/>
      <path class="st6" d="M644.01,403.5c-1.81.28-11.66,7.08-12.11,22.33-.45,15.25-3.59,55.6-3.59,55.6,0,0-3.14,2.69-4.04,5.83-.9,3.14-6.73,16.59-6.73,16.59,0,0-4.48.32-5.83,3.3-1.35,2.98-11.82,20.43-11.82,20.43,0,0,11.37,13.58,15.41,15.56,0,0,32.73-36.17,38.56-52.75,5.83-16.58,10.76-48.87,11.21-56.49s-13-31.65-21.08-30.4Z"/>
      <path class="st1" d="M679.93,396.13c-.03.14-1.64-.07-4.27,0-2.62.04-6.25.32-10.23.85-3.98.54-7.55,1.23-10.1,1.86-2.56.61-4.09,1.16-4.15,1.03-.05-.1,1.42-.88,3.97-1.66,2.54-.8,6.14-1.59,10.15-2.14,4.02-.53,7.7-.72,10.36-.59,2.67.1,4.28.55,4.26.66Z"/>
      <g class="st2">
        <path d="M631.09,441.95c-2.56,8.81-5.46,32.69-5.45,41.86l2.67-2.39,2.78-39.47"/>
      </g>
      <path class="st1" d="M682.22,560.25c-.25.01-.92-9.11-1.49-20.36-.57-11.26-.82-20.4-.57-20.41.25-.01.92,9.1,1.49,20.37.57,11.26.82,20.4.57,20.41Z"/>
      <g class="st2">
        <path d="M711.3,556.79c-2.52-12.42-6.47-30.21-11.09-42.51,1.01,14.08,3.8,43.37,4.13,43.37l6.96-.86Z"/>
      </g>
      <path class="st1" d="M665.09,433.89s.01.21,0,.63c-.02.42-.04,1.04-.12,1.85-.13,1.63-.4,4.02-.8,7.09-.83,6.15-2.17,15.04-4.43,25.94-1.14,5.45-2.5,11.41-4.39,17.7-1.78,6.38-5.44,12.56-9.56,18.67-8.37,12.22-18.74,24.82-30.13,37.66l-.24.27-.3-.17c-1.51-.83-2.78-2-4.06-3.19-4.17-4-7.9-8.26-11.5-12.49l-.21-.24.17-.28c2.72-4.59,5.38-9.09,7.98-13.49,1.27-2.21,2.56-4.39,3.67-6.57.47-1.21,1.55-2.26,2.69-2.82,1.17-.59,2.38-.91,3.66-1.04l-.36.26c1.77-4.08,3.46-8.06,5.03-11.94.38-.97.75-1.93,1.13-2.89.38-.94.6-1.91,1.04-2.91.92-1.9,2.23-3.46,3.72-4.8l-.13.26c1.33-16.79,2.34-30.68,2.99-40.38.3-4.81.54-8.59.71-11.24.07-1.25.13-2.24.17-2.95.04-.67.09-1.01.09-1.01,0,0,.03.35.02,1.01-.01.72-.03,1.7-.06,2.96-.08,2.59-.24,6.4-.5,11.25-.52,9.71-1.42,23.61-2.67,40.41v.15s-.13.11-.13.11c-1.38,1.26-2.67,2.8-3.5,4.56-.38.85-.62,1.89-1,2.86-.37.96-.75,1.93-1.12,2.91-1.55,3.89-3.24,7.88-5,11.98l-.1.23-.26.03c-2.23.26-4.76,1.16-5.63,3.39-1.15,2.26-2.42,4.41-3.69,6.64-2.56,4.42-5.23,8.92-7.97,13.51l-.04-.53c3.58,4.19,7.31,8.45,11.43,12.4,1.24,1.16,2.54,2.33,3.83,3.03l-.54.1c11.37-12.8,21.75-25.37,30.12-37.51,4.13-6.1,7.74-12.12,9.54-18.42,1.91-6.25,3.3-12.19,4.48-17.61,2.33-10.87,3.77-19.73,4.71-25.86.45-3.06.78-5.45.97-7.06.09-.77.16-1.38.21-1.84.05-.41.08-.63.1-.63Z"/>
      <path class="st1" d="M661.04,410.71c-.22.18-2.18-3.17-6.31-5.06-4.09-1.98-7.92-1.37-7.92-1.65-.02-.1.89-.42,2.44-.46,1.54-.05,3.71.27,5.87,1.29,2.15,1.02,3.78,2.49,4.72,3.71.95,1.22,1.29,2.13,1.19,2.18Z"/>
      <path class="st1" d="M713.76,532.4s-.13-.33-.3-.96c-.18-.74-.41-1.66-.7-2.8-.6-2.56-1.41-6.07-2.4-10.36-1.97-8.88-4.65-20.97-7.63-34.37v-.05s-.01-.05-.01-.05c0-.33,0-.69.01-1.05.24-14.05,1.34-26.71,1.98-35.87.34-4.49.62-8.16.83-10.85.1-1.2.18-2.17.25-2.95.07-.67.12-1.03.15-1.03.03,0,.04.36.04,1.03-.02.78-.05,1.76-.08,2.96-.09,2.57-.28,6.28-.54,10.87-.48,9.17-1.47,21.84-1.71,35.84,0,.36,0,.71-.01,1.04v-.1c2.86,13.42,5.45,25.53,7.35,34.43.88,4.31,1.6,7.84,2.12,10.42.22,1.15.39,2.09.53,2.84.11.65.16,1,.12,1Z"/>
      <path class="st1" d="M708.88,436.44c.24.1-.51,2.38-1.49,5.16-.98,2.78-1.82,5.03-2.07,4.96-.24-.07.21-2.45,1.2-5.27.99-2.81,2.13-4.96,2.35-4.86Z"/>
    </g>
  </g>
  <g>
    <path class="st6" d="M272.66,731.34c2.19.95,3.81,2.98,4.62,5.23.81,2.25.88,4.71.61,7.08-.52,4.6-3.13,9.24-5.94,12.91-3.87-3.38-4.76-9.27-5.02-12.29-.42-4.77,1.73-13.64,5.74-12.93"/>
    <path class="st6" d="M276.44,764.14c-.62-2.6.46-5.45,2.46-7.22,1.99-1.78,4.78-2.53,7.44-2.32,1.23.09,2.56.45,3.27,1.47.66.95.59,2.27.05,3.29-.53,1.02-1.46,1.79-2.44,2.4-3.35,2.1-6.99,3.52-10.78,2.39"/>
    <path class="st1" d="M271.48,778.23s.03-.34.14-.94c.12-.66.28-1.52.47-2.55.43-2.13.98-5.19,2.63-8.15,1.63-2.96,3.92-5.14,5.85-6.22.96-.55,1.79-.88,2.39-1.06.29-.1.53-.14.69-.17.16-.03.24-.05.25-.03.03.07-1.34.32-3.2,1.47-1.86,1.11-4.07,3.27-5.68,6.18-1.63,2.9-2.21,5.92-2.69,8.04-.23,1.07-.42,1.94-.57,2.53-.15.6-.24.92-.27.92Z"/>
    <path class="st1" d="M271.62,738.24s.03.14.05.41c.02.31.04.7.07,1.18.06,1.03.12,2.52.17,4.36.12,3.68.21,8.77.19,14.4-.03,5.62-.16,10.71-.31,14.4-.07,1.84-.15,3.33-.21,4.36-.03.49-.06.88-.08,1.18-.02.27-.04.41-.05.41-.01,0-.02-.14-.02-.41,0-.31.01-.7.02-1.19.03-1.07.06-2.55.11-4.36.09-3.68.19-8.77.22-14.39.02-5.62-.03-10.71-.09-14.39-.03-1.81-.05-3.29-.07-4.36,0-.49,0-.88,0-1.19,0-.27,0-.41.02-.41Z"/>
    <path class="st6" d="M269.75,766.94c-.88-5.56-4.63-10.59-9.71-13.02-1.29-.62-2.98-1.02-4.05-.06-1.06.96-.83,2.69-.31,4.03,2.17,5.57,7.99,9.5,13.97,9.43"/>
    <path class="st1" d="M260.67,758.28s.3.11.82.36c.26.12.58.28.93.49.35.22.77.43,1.18.74.42.3.89.62,1.35,1.02.48.37.95.83,1.44,1.31.95.98,1.91,2.16,2.73,3.51.81,1.36,1.39,2.76,1.8,4.07.18.66.36,1.29.45,1.89.13.6.18,1.16.23,1.68.07.51.05.98.06,1.39.02.41,0,.76-.03,1.05-.04.58-.08.89-.1.89-.08,0,.06-1.28-.17-3.31-.07-.51-.13-1.06-.27-1.65-.1-.59-.29-1.21-.48-1.85-.42-1.28-1-2.65-1.79-3.99-.81-1.33-1.74-2.49-2.67-3.47-.48-.48-.93-.93-1.4-1.31-.44-.41-.9-.73-1.31-1.04-1.66-1.19-2.83-1.72-2.79-1.79Z"/>
  </g>
</svg>