<?xml version="1.0" encoding="UTF-8"?>
<svg id="Capa_1" xmlns="http://www.w3.org/2000/svg" version="1.1" viewBox="0 0 900 900">
  <!-- Generator: Adobe Illustrator 30.2.1, SVG Export Plug-In . SVG Version: 2.1.1 Build 1)  -->
  <defs>
    <style>
      .st0 {
        fill: #263238;
      }

      .st1 {
        opacity: .3;
      }

      .st2 {
        fill: #fff;
      }

      .st3 {
        fill: #ac0340;
      }
    </style>
  </defs>
  <path class="st3" d="M280.57,451.03c-55.53-31.79-113.58-60.77-176.05-74.61-8.76-1.94-17.79-3.58-26.66-2.23-8.87,1.35-17.66,6.22-21.55,14.3-5.35,11.1-.18,24.39,6.62,34.66,15.02,22.66,37.51,39.19,60.17,54.22,62.04,41.14,128.74,74.67,195.25,108.09-8.43-47.34-25.02-88.07-37.79-134.43"/>
  <path class="st3" d="M706.33,573.39c18.14,61.36,40.04,122.44,75.61,175.63,4.99,7.46,10.38,14.89,17.72,20.04,7.34,5.15,17.05,7.72,25.46,4.57,11.54-4.32,16.99-17.5,19.18-29.62,4.82-26.76,0-54.25-5.99-80.78-16.38-72.61-41.39-142.95-66.34-213.09-26.64,40.03-42.82,80.93-65.64,123.25"/>
  <g>
    <path class="st3" d="M279.74,449.77s4.37,425.02,242.89,433.34c238.52,8.32,248.52-430.29,248.52-433.34,0,0-28.17-63.39-245.7-60.91-217.53,2.48-245.7,60.91-245.7,60.91Z"/>
    <g>
      <g>
        <path class="st0" d="M596.58,618.57c-3.31,45.3-42.72,79.34-88.01,76.02-45.3-3.31-79.34-42.72-76.02-88.01,3.31-45.3,42.72-79.33,88.01-76.02,45.3,3.31,79.34,42.72,76.02,88.01Z"/>
        <path class="st2" d="M574.33,616.94c-2.41,33.01-31.13,57.81-64.14,55.4-33.01-2.41-57.81-31.13-55.4-64.14,2.41-33.01,31.13-57.81,64.14-55.4,33.01,2.41,57.81,31.13,55.4,64.14Z"/>
      </g>
      <g>
        <path class="st3" d="M538.3,629.48l-19.79-19.44,19.79-19.44,18.6,18.27c.66.65.66,1.7,0,2.35l-18.6,18.27Z"/>
        <polygon class="st3" points="528.4 619.76 518.51 610.04 528.4 600.32 538.3 610.04 528.4 619.76"/>
        <path class="st3" d="M548.2,619.76l8.7-8.55c.66-.65.66-1.7,0-2.35l-8.7-8.55-9.9,9.72,9.9,9.72Z"/>
        <path class="st3" d="M485.76,629.48l19.79-19.44-19.79-19.44-18.6,18.27c-.66.65-.66,1.7,0,2.35l18.6,18.27Z"/>
        <polygon class="st3" points="495.65 619.76 505.55 610.04 495.65 600.32 485.76 610.04 495.65 619.76"/>
        <path class="st3" d="M475.86,619.76l-8.7-8.55c-.66-.65-.66-1.7,0-2.35l8.7-8.55,9.9,9.72-9.9,9.72Z"/>
        <path class="st3" d="M531.47,636.31l-19.44-19.79-19.44,19.79,18.27,18.6c.65.66,1.7.66,2.35,0l18.27-18.6Z"/>
        <polygon class="st3" points="521.75 626.42 512.03 616.52 502.31 626.42 512.03 636.31 521.75 626.42"/>
        <path class="st3" d="M521.75,646.21l-8.55,8.7c-.65.66-1.7.66-2.35,0l-8.55-8.7,9.72-9.9,9.72,9.9Z"/>
        <path class="st3" d="M492.59,583.77l19.44,19.79,19.44-19.79-18.27-18.6c-.65-.66-1.7-.66-2.35,0l-18.27,18.6Z"/>
        <polygon class="st3" points="502.31 593.66 512.03 603.56 521.75 593.66 512.03 583.77 502.31 593.66"/>
        <path class="st3" d="M502.31,573.87l8.55-8.7c.65-.66,1.7-.66,2.35,0l8.55,8.7-9.72,9.9-9.72-9.9Z"/>
      </g>
    </g>
    <path class="st0" d="M278.75,449.39s.43.1,1.25.37c.89.3,2.09.71,3.61,1.23,3.25,1.15,7.89,2.78,13.82,4.87,3,1.07,6.33,2.26,9.97,3.56,3.67,1.23,7.72,2.38,12.03,3.72,8.66,2.57,18.41,5.9,29.49,8.51,5.51,1.41,11.28,2.89,17.29,4.44,6.02,1.51,12.38,2.64,18.91,4.06,13.04,3,27.19,5.03,42.02,7.43,29.78,4.05,62.77,6.82,97.47,6.97,34.72-.14,67.71-2.91,97.5-6.95,14.84-2.4,28.99-4.43,42.03-7.43,6.53-1.42,12.9-2.54,18.92-4.06,6.01-1.54,11.78-3.02,17.29-4.43,11.08-2.6,20.83-5.93,29.49-8.5,4.31-1.34,8.36-2.5,12.03-3.72,3.64-1.3,6.97-2.49,9.97-3.56,5.93-2.09,10.57-3.73,13.82-4.87,1.52-.52,2.72-.92,3.61-1.23.82-.27,1.24-.39,1.25-.36.01.03-.39.2-1.19.53-.88.34-2.05.8-3.55,1.38-3.22,1.22-7.83,2.95-13.72,5.17-2.99,1.11-6.31,2.35-9.93,3.7-3.66,1.27-7.7,2.47-12,3.86-8.65,2.66-18.38,6.07-29.46,8.76-5.51,1.45-11.28,2.97-17.3,4.55-6.02,1.55-12.39,2.71-18.93,4.16-13.05,3.06-27.23,5.15-42.09,7.6-29.84,4.14-62.92,6.96-97.72,7.1-34.79-.15-67.85-2.98-97.69-7.12-14.87-2.45-29.03-4.54-42.09-7.6-6.54-1.45-12.91-2.61-18.93-4.16-6.01-1.58-11.78-3.1-17.29-4.55-11.08-2.69-20.82-6.1-29.46-8.76-4.31-1.39-8.34-2.59-12-3.86-3.62-1.35-6.94-2.59-9.93-3.7-5.89-2.22-10.5-3.96-13.72-5.17-1.5-.58-2.68-1.04-3.55-1.38-.8-.32-1.2-.5-1.19-.53Z"/>
    <g class="st1">
      <path d="M279.74,449.77s28.17-58.43,245.7-60.91c217.53-2.48,245.7,60.91,245.7,60.91,0,0-219.43,108.22-491.4,0Z"/>
    </g>
    <path class="st2" d="M354.54,752.25s-.16-.2-.41-.62c-.29-.52-.64-1.15-1.06-1.91-.97-1.83-2.28-4.31-3.94-7.43-.85-1.64-1.78-3.44-2.79-5.4-.94-2.02-1.96-4.21-3.05-6.56-2.21-4.7-4.69-10.06-7.1-16.14-1.24-3.03-2.54-6.19-3.89-9.49-1.24-3.35-2.53-6.83-3.86-10.43-2.78-7.16-5.14-15.03-7.92-23.21-5.08-16.51-10.06-34.85-14.44-54.3-4.28-19.48-7.56-38.19-10.14-55.27-2.38-17.11-4.28-32.55-5.31-45.57-.63-6.5-1.01-12.39-1.34-17.57-.36-5.17-.61-9.63-.71-13.28-.12-3.53-.21-6.34-.28-8.4-.01-.87-.02-1.59-.03-2.19,0-.49.02-.75.05-.75s.07.25.13.74c.05.59.12,1.31.2,2.18.15,2.06.34,4.86.59,8.38.21,3.64.55,8.09,1,13.25.41,5.17.88,11.04,1.58,17.53,1.19,12.99,3.2,28.39,5.66,45.45,2.66,17.03,5.98,35.7,10.25,55.13,4.36,19.41,9.29,37.71,14.28,54.2,2.73,8.17,5.04,16.04,7.76,23.2,1.3,3.6,2.55,7.08,3.76,10.43,1.31,3.3,2.58,6.47,3.78,9.5,2.33,6.09,4.73,11.47,6.85,16.2,1.04,2.36,2.01,4.57,2.91,6.6.96,1.98,1.85,3.8,2.65,5.45,1.53,3.18,2.75,5.71,3.65,7.57.36.8.66,1.45.91,1.99.2.45.29.69.26.7Z"/>
    <path class="st2" d="M469.47,854.45c-.02.12-1.37-.06-3.8-.46-2.43-.37-5.91-1.19-10.14-2.45-4.24-1.23-9.16-3.1-14.46-5.55-5.26-2.53-10.87-5.68-16.41-9.53-5.5-3.91-10.37-8.12-14.53-12.21-4.1-4.16-7.53-8.16-10.12-11.72-2.61-3.55-4.56-6.54-5.73-8.71-1.21-2.15-1.82-3.36-1.72-3.42.28-.16,2.99,4.55,8.4,11.4,2.68,3.44,6.16,7.3,10.26,11.34,4.16,3.98,8.99,8.09,14.41,11.94,5.45,3.8,10.96,6.94,16.11,9.51,5.19,2.49,10,4.46,14.15,5.82,8.27,2.78,13.63,3.73,13.57,4.05Z"/>
    <path class="st2" d="M519.19,704.5c0,.06-.78.14-2.27.23-1.49.03-3.7.36-6.55.19-5.69-.01-13.98-.93-23.77-3.86-4.9-1.44-10.09-3.58-15.48-6.23-5.28-2.85-10.84-6.12-16.1-10.39-10.61-8.35-20.45-20.06-26.81-34.39-6.13-14.43-7.97-29.63-6.83-43.08.46-6.76,1.87-13.06,3.4-18.86,1.75-5.75,3.72-11,6.02-15.56,4.54-9.15,9.53-15.83,13.41-20,1.82-2.19,3.57-3.58,4.61-4.66,1.09-1.03,1.68-1.54,1.72-1.5.13.13-2.16,2.3-5.83,6.59-3.69,4.27-8.48,10.98-12.83,20.08-2.2,4.54-4.08,9.74-5.75,15.42-1.45,5.74-2.78,11.95-3.19,18.6-1.04,13.24.82,28.14,6.82,42.28,6.23,14.04,15.85,25.57,26.23,33.85,5.14,4.24,10.59,7.5,15.77,10.36,5.29,2.66,10.37,4.84,15.19,6.33,9.62,3.04,17.79,4.12,23.43,4.34,5.64.24,8.79.05,8.8.24Z"/>
    <g>
      <path class="st3" d="M508.9,7.84s-207.95-2.5-240.87,177.61c-32.92,180.11,142.94,183.47,193.52,186.88,22.94,1.55,72,1.71,115.3.95,95.86-1.66,163.59-20.22,186.64-109.15,2.69-10.37,4.5-21.02,5.18-31.85,6.1-97.47-59.89-229.24-259.78-224.44Z"/>
      <path class="st0" d="M659.75,282.16l-302.11,4.72c-31.67.49-57.74-24.77-58.23-56.44h0c-.49-31.67,24.78-57.74,56.44-58.23l302.11-4.72c31.67-.49,57.74,24.77,58.23,56.44h0c.49,31.67-24.78,57.74-56.44,58.23Z"/>
      <path class="st2" d="M420.33,224.18c-1.95,9.97-11.62,16.48-21.6,14.52-9.97-1.95-16.48-11.62-14.52-21.6,1.95-9.97,11.62-16.48,21.6-14.52,9.97,1.95,16.48,11.62,14.52,21.6Z"/>
      <path class="st2" d="M631.39,220.81c-1.95,9.97-11.62,16.48-21.6,14.52-9.97-1.95-16.48-11.62-14.52-21.6,1.95-9.97,11.62-16.48,21.6-14.52,9.97,1.95,16.48,11.62,14.52,21.6Z"/>
      <path class="st2" d="M473.24,215.69c1.37.15.69,6.58,4.7,15.14,1.94,4.25,5.17,8.89,9.77,12.84,4.56,3.95,10.63,6.98,17.29,7.67,6.67.53,13.19-1.35,18.4-4.41,5.24-3.05,9.26-7.03,11.93-10.86,5.5-7.69,5.99-14.14,7.37-14.04.53.01,1.09,1.64,1.1,4.68.02,3.04-.86,7.49-3.35,12.43-2.46,4.94-6.74,10.23-12.92,14.37-6.11,4.14-14.4,6.95-23.29,6.23-8.88-.9-16.52-5.17-21.77-10.34-5.32-5.19-8.58-11.17-10.1-16.48-1.55-5.31-1.61-9.84-1.04-12.83.55-2.99,1.4-4.49,1.93-4.41Z"/>
      <path class="st2" d="M482.58,21.31s-.25.07-.75.13c-.6.05-1.32.12-2.2.2-1.93.2-4.79.26-8.44.7-7.32.66-17.89,2.11-30.69,5.09-12.8,2.96-27.76,7.75-43.52,15.05-15.75,7.27-32.18,17.25-47.68,29.93-15.4,12.81-28.32,27.06-38.45,41.14-10.16,14.09-17.71,27.87-23.04,39.87-5.35,12-8.78,22.1-10.82,29.16-1.12,3.5-1.73,6.3-2.29,8.16-.25.85-.45,1.55-.61,2.12-.15.48-.24.72-.26.71s0-.26.1-.75c.12-.59.27-1.29.45-2.16.46-1.88.96-4.71,1.99-8.26,1.85-7.14,5.11-17.34,10.36-29.47,5.22-12.13,12.71-26.06,22.87-40.3,10.13-14.24,23.11-28.62,38.64-41.54,15.62-12.79,32.21-22.8,48.1-30.04,15.9-7.27,31-11.98,43.9-14.81,12.9-2.85,23.54-4.11,30.9-4.58,3.67-.34,6.55-.29,8.48-.38.88-.01,1.61-.02,2.21-.03.5,0,.75.02.75.05Z"/>
      <path class="st2" d="M279.1,270.81c-.19.08-1.45-2.34-2.96-6.47-1.51-4.13-3.18-10-4.23-16.64-1.04-6.65-1.24-12.75-1.06-17.14.17-4.39.63-7.08.84-7.06.53.02-.2,10.85,1.89,23.94,2.01,13.11,6.02,23.19,5.52,23.37Z"/>
      <path class="st2" d="M609.83,156.93c0,.47-39.8.84-88.87.84s-88.88-.38-88.88-.84,39.79-.84,88.88-.84,88.87.38,88.87.84Z"/>
      <path class="st2" d="M458.17,359.59c0,.06-.51.14-1.5.24-1.19.1-2.62.23-4.34.37-1.88.16-4.19.31-6.88.35-2.68.06-5.74.21-9.12.11-6.76-.02-14.81-.48-23.71-1.42-8.89-1.04-18.61-2.61-28.67-4.95-10.05-2.4-19.46-5.33-27.87-8.37-8.38-3.13-15.8-6.3-21.86-9.31-3.07-1.41-5.74-2.92-8.12-4.17-2.38-1.23-4.38-2.4-6-3.38-1.47-.9-2.69-1.65-3.71-2.27-.84-.54-1.26-.84-1.23-.89s.51.16,1.41.6c1.06.55,2.33,1.2,3.86,1.99,1.66.89,3.7,1.97,6.11,3.12,2.41,1.17,5.1,2.59,8.19,3.92,6.1,2.85,13.51,5.9,21.87,8.92,8.39,2.94,17.75,5.8,27.73,8.19,10,2.32,19.65,3.93,28.47,5.04,8.83,1.02,16.83,1.61,23.56,1.77,3.36.18,6.41.11,9.08.14,2.68.05,4.98,0,6.86-.07,1.72-.02,3.15-.04,4.34-.06.99,0,1.52.04,1.52.09Z"/>
    </g>
    <path class="st2" d="M712.44,475.73s-.25.15-.77.35c-.62.23-1.38.52-2.33.87-2.19.78-5.2,1.85-9.02,3.21-3.91,1.41-8.72,3.06-14.39,4.72-5.66,1.69-12.05,3.81-19.26,5.6-3.6.95-7.36,1.95-11.28,2.98-3.93,1.02-8.07,1.86-12.32,2.85-8.5,2.06-17.71,3.68-27.37,5.5-19.39,3.27-40.86,6.01-63.51,7.47-22.67,1.32-44.32,1.23-63.96.36-9.81-.63-19.15-1.11-27.84-2.11-4.35-.46-8.56-.79-12.58-1.32-4.02-.55-7.88-1.08-11.56-1.58-7.38-.9-13.98-2.22-19.8-3.21-5.83-.96-10.8-2-14.86-2.92-3.95-.88-7.08-1.58-9.34-2.08-.98-.24-1.78-.43-2.42-.58-.54-.14-.82-.23-.81-.25,0-.03.29,0,.85.09.65.11,1.46.25,2.45.42,2.28.43,5.42,1.02,9.4,1.77,4.07.82,9.06,1.77,14.89,2.64,5.83.9,12.43,2.13,19.8,2.95,3.68.47,7.54.96,11.55,1.47,4.02.5,8.22.79,12.56,1.22,8.68.94,17.99,1.37,27.78,1.95,19.6.79,41.18.83,63.79-.49,22.59-1.46,44-4.14,63.35-7.32,9.64-1.78,18.83-3.34,27.33-5.34,4.25-.96,8.39-1.76,12.32-2.75,3.92-1,7.69-1.96,11.28-2.87,7.22-1.72,13.62-3.75,19.3-5.35,5.68-1.57,10.52-3.13,14.46-4.44,3.86-1.23,6.9-2.2,9.11-2.91.97-.29,1.75-.53,2.39-.72.54-.15.82-.22.83-.19Z"/>
  </g>
</svg>