<?xml version="1.0" encoding="UTF-8"?>
<svg id="Capa_1" xmlns="http://www.w3.org/2000/svg" version="1.1" viewBox="0 0 500 500">
  <!-- Generator: Adobe Illustrator 30.2.1, SVG Export Plug-In . SVG Version: 2.1.1 Build 1)  -->
  <defs>
    <style>
      .st0 {
        opacity: .6;
      }

      .st1 {
        fill: #263238;
      }

      .st2 {
        fill: #fff;
      }

      .st3 {
        opacity: .2;
      }

      .st4 {
        fill: #ffbe9d;
      }

      .st5 {
        fill: #ac0340;
      }

      .st6 {
        fill: #b78876;
      }

      .st7 {
        fill: #e0e0e0;
      }

      .st8 {
        fill: #d1734a;
      }

      .st9 {
        opacity: .3;
      }

      .st10 {
        fill: #455a64;
      }

      .st11 {
        fill: #ebebeb;
      }

      .st12 {
        fill: #936754;
      }

      .st13 {
        fill: #f5f5f5;
      }

      .st14 {
        fill: #7c5142;
      }

      .st15 {
        fill: #fafafa;
      }

      .st16 {
        fill: #eb996e;
      }
    </style>
  </defs>
  <g id="freepik--background-complete--inject-3">
    <rect class="st7" x="349.43" y="56.87" width="70.31" height="101.91"/>
    <rect class="st13" x="345.91" y="56.87" width="70.31" height="101.91"/>
    <rect class="st2" x="354.65" y="67.9" width="52.84" height="79.84"/>
    <path class="st7" d="M407.49,147.74v-5.9c0-3.83,0-9.4-.05-16.45,0-14.07,0-34-.09-57.49l.18.18h-52.88l.19-.19v79.84l-.15-.15,38.46.08h14.41-14.29l-38.55.08h-.16v-80.18h53.2v.17c0,23.53-.06,43.5-.08,57.61,0,7,0,12.59-.05,16.4v5.46c0,.26-.14.54-.14.54Z"/>
    <path class="st7" d="M416.42,56.87c-.37.64-.78,1.25-1.25,1.82-.82,1.09-2,2.57-3.3,4.18-1.3,1.61-2.56,3-3.48,4-.47.57-.98,1.1-1.54,1.58.4-.62.84-1.21,1.34-1.76l3.38-4.1,3.43-4.07c.43-.59.9-1.14,1.42-1.65Z"/>
    <path class="st2" d="M407.76,147.48c2.63,4.18,5.73,8.04,9.24,11.52"/>
    <path class="st7" d="M417,159c-.58-.43-1.12-.92-1.6-1.46-1.23-1.24-2.39-2.55-3.48-3.92-1.09-1.37-2.11-2.79-3.06-4.26-.43-.59-.79-1.22-1.07-1.89.47.55.9,1.13,1.29,1.74.78,1.09,1.87,2.58,3.14,4.17s2.48,3,3.37,4c.51.51.98,1.05,1.41,1.62Z"/>
    <path class="st2" d="M345.9,158.7l9.21-11.36"/>
    <path class="st7" d="M355.11,147.34c-1.39,2.01-2.88,3.94-4.46,5.8-1.49,1.93-3.07,3.79-4.75,5.56,1.38-2.01,2.87-3.95,4.46-5.8,1.48-1.94,3.07-3.79,4.75-5.56Z"/>
    <path class="st7" d="M345.91,56.87c1.59,1.69,3.08,3.48,4.47,5.34,1.49,1.78,2.88,3.65,4.17,5.58-1.58-1.7-3.08-3.48-4.47-5.34-1.49-1.79-2.88-3.65-4.17-5.58Z"/>
    <rect class="st7" x="373.33" y="84.11" width="17.69" height="50.24"/>
    <polygon class="st7" points="239.47 45.85 239.47 112.06 144.37 112.06 140.94 46.31 239.47 45.85"/>
    <rect class="st2" x="140.94" y="46.31" width="95.1" height="65.61"/>
    <path class="st7" d="M236.5,112.38h-96V45.86h96v66.52ZM141.39,111.47h94.2V46.76h-94.2v64.71Z"/>
    <rect class="st2" x="151.24" y="54.46" width="74.5" height="49.31"/>
    <path class="st7" d="M225.74,54.46h-20.87l-53.63.11.22-.22v49.31h0l-.24-.23h74.5l-.18.18c0-15,.07-27.31.1-35.87v-13.44,13.32c0,8.6.06,20.94.1,36v.38h-.19l-74.5.05h-.05v-.24h0v-49.52h.21l53.77.1,15.31.06h5.45Z"/>
    <path class="st7" d="M140.94,46.13c.59.28,1.14.64,1.64,1.06,1,.7,2.29,1.7,3.73,2.84s2.68,2.23,3.57,3c.51.41.97.87,1.36,1.39-.09.1-2.37-1.78-5.23-4.06-1.78-1.3-3.47-2.71-5.07-4.23Z"/>
    <path class="st7" d="M236,46.31c-1.56,1.54-3.23,2.96-5,4.26-1.67,1.43-3.44,2.73-5.3,3.89,1.57-1.53,3.24-2.96,5-4.26,1.67-1.42,3.44-2.72,5.3-3.89Z"/>
    <path class="st2" d="M236,111.93l-10.6-8.59"/>
    <path class="st7" d="M225.37,103.34c1.91,1.24,3.72,2.62,5.44,4.11,1.82,1.38,3.54,2.87,5.16,4.48-1.91-1.25-3.73-2.62-5.45-4.11-1.82-1.37-3.54-2.87-5.15-4.48Z"/>
    <path class="st7" d="M140.94,111.92c1.55-1.52,3.2-2.92,4.95-4.21,1.66-1.41,3.41-2.69,5.25-3.85-1.56,1.52-3.23,2.93-5,4.22-1.64,1.41-3.37,2.69-5.2,3.84Z"/>
    <rect class="st7" x="166.37" y="69.83" width="46.88" height="16.51"/>
    <path class="st13" d="M62.53,432.48c.94-3.71-1.51-7.41-4.25-10.08s-6-5.06-7.43-8.6c-2.33-5.74.71-13.21-3.23-18-2.32-2.81-6.45-3.74-8.51-6.74-.95-1.66-1.59-3.49-1.87-5.38-2.23-9.55-6.98-18.32-13.76-25.4-.4,8.53,1.51,17,5.52,24.54,1.6,3,3.57,5.94,4.11,9.31.88,5.46-2.14,11.11-.76,16.47,1.57,6.14,8.49,10.21,8.85,16.53.31,5.34-4.32,10.06-3.94,15.39.29,2.27,1.11,4.44,2.41,6.33,4.17,6.84,10.27,11.54,19.47,11.34l11.27.33-7.88-26.04Z"/>
    <path class="st7" d="M72.65,458.8c1.03.15,2.09.12,3.11-.09,1.25-.18,2.47-.5,3.65-.94,1.63-.58,3.16-1.42,4.51-2.5.81-.66,1.45-1.52,1.85-2.49.34-1.09.51-2.23.51-3.37.01-1.22.09-2.44.24-3.65.22-1.29.68-2.52,1.36-3.63,1.31-2.34,3.51-4.56,4.2-7.74s.18-6.49-.36-9.87-1.07-7.06.2-10.59,3.65-6.73,4.86-10.71.61-8.33.84-12.59c.07-2.16.56-4.29,1.44-6.27.9-2,2.15-3.89,3.13-6,2-4.26,2.3-9.07,2.82-13.79.25-2.38.51-4.78.77-7.21.15-2.44.55-4.86,1.21-7.21.74-2.38,1.63-4.72,2.65-7,.54-1.18.97-2.4,1.29-3.65.19-1.29.3-2.58.34-3.88.11-2.6,0-5.21-.34-7.8-.32-2.6-.81-5.17-1.1-7.78v-.45l-.06-.52-.46.24c-2.37,1.23-4.42,2.99-6,5.15-1.55,2.11-2.79,4.43-3.69,6.89-1.86,4.86-2.5,9.93-3.43,14.78s-2.09,9.62-4.55,13.66c-1.22,2-2.71,3.85-4,5.82-1.39,1.91-2.33,4.11-2.76,6.44-.64,4.77,2,8.94,1.48,13.16-.24,2.07-.92,4.07-2,5.86-1,1.81-2.2,3.49-3.34,5.17-1.16,1.65-2.16,3.39-3,5.22-.78,1.79-1.24,3.71-1.35,5.66-.26,3.8.3,7.4,0,10.81-.3,3.24-1.22,6.39-2.72,9.27-1.41,2.8-2.95,5.32-4.17,7.8-.63,1.22-1.22,2.41-1.69,3.6-.45,1.15-.79,2.35-1,3.57-.31,2.13-.31,4.3,0,6.43.31,2.98,1.44,5.82,3.27,8.19.28.36.58.69.91,1,.23.23.48.44.75.62.42.31.64.45.64.45-.8-.64-1.54-1.36-2.19-2.15-1.75-2.38-2.83-5.19-3.11-8.13-.26-2.11-.22-4.24.11-6.34.21-1.19.54-2.36,1-3.48.5-1.21,1.07-2.4,1.7-3.55,1.26-2.42,2.78-4.93,4.16-7.73,1.55-2.94,2.5-6.17,2.79-9.48.28-3.48-.26-7.09,0-10.8.12-1.89.57-3.74,1.33-5.47.84-1.79,1.85-3.5,3-5.11,1.13-1.68,2.34-3.36,3.38-5.2,1.13-1.86,1.86-3.94,2.12-6.1.52-4.5-2.12-8.7-1.46-13.14.41-2.23,1.3-4.34,2.62-6.18,1.28-1.93,2.77-3.77,4-5.83,2.54-4.16,3.75-9,4.66-13.89s1.58-9.9,3.4-14.65c.87-2.4,2.09-4.66,3.6-6.71,1.52-2.07,3.5-3.76,5.78-4.94l-.52-.29v.46c.3,2.63.78,5.21,1.1,7.78.33,2.55.45,5.11.34,7.68-.04,1.26-.15,2.51-.32,3.76-.32,1.21-.74,2.38-1.25,3.52-1.03,2.3-1.92,4.66-2.67,7.07-.66,2.39-1.07,4.85-1.23,7.33-.25,2.43-.51,4.84-.76,7.22-.51,4.73-.84,9.47-2.74,13.58-.94,2.05-2.19,3.94-3.12,6-.9,2.05-1.4,4.26-1.47,6.5-.22,4.35.37,8.6-.79,12.46s-3.58,7.05-4.81,10.7-.73,7.48-.17,10.85,1.12,6.69.41,9.69-2.76,5.23-4.1,7.64c-.7,1.16-1.17,2.44-1.38,3.78-.14,1.22-.21,2.46-.21,3.69,0,1.11-.16,2.21-.47,3.27-.37.93-.96,1.75-1.73,2.39-1.32,1.07-2.81,1.92-4.4,2.51-1.17.45-2.38.79-3.61,1-.76.14-1.52.22-2.29.24-.44-.02-.71-.01-.71-.01Z"/>
    <path class="st7" d="M107.51,325.83c-.05.11-.09.22-.11.34-.06.27-.14.6-.24,1-.22.89-.47,2.23-.89,3.91s-1.44,3.56-2.31,5.9-1.8,5-2.63,8-1.58,6.36-2.36,9.94-1.6,7.4-3.55,11c-.91,1.84-1.94,3.7-2.75,5.73-.8,2.08-1.34,4.26-1.59,6.48-.55,4.58-1.33,9.14-2.35,13.64-2.21,9.25-4.31,18.06-6.23,26.08l-5.22,21.27c-1.44,6-2.62,10.9-3.45,14.35-.39,1.66-.69,3-.91,3.91l-.22,1c-.01.12-.01.23,0,.35,0,0,.06-.11.13-.34s.17-.59.28-1c.26-.94.6-2.24,1-3.88.88-3.43,2.14-8.3,3.68-14.3s3.35-13.25,5.37-21.23,4.06-16.83,6.29-26.08c1.03-4.52,1.81-9.1,2.34-13.71.24-2.16.76-4.29,1.53-6.32.78-2,1.8-3.83,2.71-5.68,2-3.69,2.77-7.64,3.54-11.2s1.46-6.92,2.26-9.92,1.67-5.69,2.52-8,1.8-4.24,2.2-6,.59-3.05.76-3.95c.07-.42.13-.76.17-1,.02-.1.03-.19.03-.29Z"/>
    <path class="st7" d="M74.64,458.82c7.36-4.41,9.36-17.71,6.26-25.68s-8.53-15.25-9.41-23.77c-.67-6.55,1.43-13.29-.13-19.68-2.11-8.63-10.58-15.28-10.53-24.16,0-5,2.83-9.69,2.58-14.67-.31-6.11-5-10.93-8-16.29-4.41-8.21-4.8-17.95-6.41-27.17s-5.14-19.1-13.35-23.59c-1.17,7.85-3.2,13.23-2.49,23.85.25,3.81,4.73,11.09,5.38,19.44.38,5,.66,10,1,15s.66,9.81,2.43,14.36c1.36,3.48,3.53,6.63,4.54,10.23,1.9,6.76-.51,14.12,1,21,1.31,5.81,5.36,10.79,6.22,16.69,1.2,8.27-4.11,16.91-1.32,24.8,1.38,3.92,4.63,7.05,5.56,11.09.73,3.14,0,6.47.64,9.62,1.06,5.08,10.79,9,16,8.63"/>
    <path class="st11" d="M37.75,291.58c-.02.15-.02.29,0,.44,0,.33.1.76.17,1.29.17,1.13.37,2.8.77,4.94s1.55,4.59,2.46,7.52,1.91,6.29,2.75,10.06,1.59,7.95,2.35,12.45,1.6,9.39,3.86,14.06c1,2.35,2.22,4.7,3.1,7.2.86,2.57,1.4,5.24,1.6,7.95.44,5.75,1.19,11.46,2.25,17.13,2.32,11.6,4.53,22.66,6.55,32.72,2.02,10.06,4,19,5.63,26.64s2.93,13.66,3.85,17.95c.47,2.08.83,3.71,1.09,4.87.12.53.22.94.3,1.27.03.14.07.28.12.42.02-.15.02-.29,0-.44-.06-.32-.13-.75-.23-1.28-.23-1.16-.55-2.81-1-4.9-.87-4.29-2.11-10.43-3.63-18s-3.42-16.65-5.48-26.68-4.19-21.11-6.48-32.71c-1.06-5.65-1.82-11.35-2.27-17.08-.21-2.76-.76-5.48-1.65-8.1-.91-2.56-2.1-4.92-3.14-7.24-2.25-4.61-3.06-9.42-3.87-13.9s-1.55-8.67-2.45-12.45c-.79-3.41-1.74-6.77-2.87-10.08-1-2.94-2.11-5.34-2.57-7.45s-.68-3.78-.9-4.9l-.2-1.28c-.02-.14-.06-.28-.11-.42Z"/>
    <path class="st13" d="M419.84,446c-18.29-10.87-23.89-33.12-24.7-53.43-.14-3.39-.77-6.93.62-10s5-5.39,8.13-4.19c2.6,1,3.91,3.84,5.49,6.15,2.11,3.09,5.06,5.51,8.49,7,2.24,1,4.95,1.45,7,.12,2.8-1.83,2.85-5.88,2.58-9.25-.5-6.26-1-12.53-1.51-18.8-.26-3.36-.53-6.8.28-10.07s2.91-6.4,6-7.54,7.23.42,8.15,3.67c.23,1.38.36,2.78.4,4.18.2,1.39,1,2.89,2.32,3.18s2.65-.76,3.58-1.82c3.22-3.65,5.25-8.2,7.14-12.72s3.68-9.12,6.56-13.06,7-7.2,11.82-7.83,10.15,2,11.72,6.61-.84,9.67-3.57,13.73c-4.04,6.03-8.92,11.44-14.51,16.07-1.1.72-1.94,1.77-2.4,3-.57,2.29,1.72,4.36,4,4.94,2.57.65,5.27.19,7.92.3s5.57,1.06,6.74,3.47c1.64,3.34-1,7.15-3.63,9.72-5.32,5.15-11.49,9.34-18.23,12.4-2.4,1.09-5,2.07-6.82,4s-2.85,5-1.47,7.28,4.54,2.81,7.09,2.14,4.78-2.25,7.18-3.37c4.49-2.08,10.49-2.2,13.74,1.57,2.14,2.49,2.58,6.13,1.83,9.33-.9,3.17-2.42,6.13-4.49,8.7-6.67,9.34-15.71,16.75-26.18,21.45-10.45,4.51-20.32,6.25-31.26,3.14"/>
    <path class="st7" d="M423.14,447c.15-8.08-1.26-3.6,1-14,2.55-11.29,5.75-22.42,9.57-33.34,1-2.91,2-5.78,3-8.61s1.94-5.63,3.06-8.31c2.16-5.13,4.59-10.14,7.3-15,2.55-4.67,5.15-9,7.6-13s4.83-7.75,7.14-11.05c3.6-5.22,7.61-10.15,12-14.73,1.55-1.62,2.79-2.84,3.64-3.66l1-.92c.11-.11.23-.21.35-.3-.09.12-.2.24-.31.35l-.93,1c-.82.85-2,2.09-3.56,3.74-4.31,4.64-8.26,9.59-11.82,14.82-2.28,3.3-4.62,7-7.06,11.06s-5,8.39-7.54,13.06c-2.68,4.86-5.1,9.87-7.24,15-1.11,2.67-2.06,5.44-3,8.27s-2,5.71-2.95,8.61c-3.82,10.9-7.02,22-9.6,33.26-2.27,10.4-.91,5.88-1.11,13.93"/>
    <path class="st7" d="M439.89,382.64c-.19-.45-.34-.93-.43-1.41-.25-.91-.56-2.25-.92-3.91-.72-3.31-1.56-7.92-2.47-13s-1.82-9.68-2.59-13c-.38-1.65-.7-3-.93-3.9-.15-.47-.25-.96-.3-1.45.23.44.4.9.53,1.38.3.9.69,2.22,1.13,3.86.88,3.28,1.86,7.87,2.77,13s1.68,9.56,2.29,13c.29,1.57.53,2.89.73,3.95.12.48.19.98.19,1.48Z"/>
    <path class="st7" d="M482.55,371.37c-.56.16-1.13.27-1.71.33-1.1.18-2.7.44-4.66.81-3.93.72-9.32,1.91-15.22,3.47s-11.16,3.24-14.94,4.55c-1.9.64-3.42,1.2-4.47,1.58-.53.23-1.09.41-1.66.53.5-.3,1.03-.55,1.57-.76,1-.45,2.53-1.08,4.41-1.77,3.75-1.42,9-3.15,14.93-4.73,5.04-1.37,10.15-2.47,15.31-3.31,2-.32,3.59-.51,4.7-.61.58-.09,1.16-.12,1.74-.09Z"/>
    <path class="st7" d="M424.6,432.1c-.13-.15-.24-.32-.33-.5-.24-.41-.52-.91-.86-1.51-.74-1.32-1.75-3.25-3-5.65-2.45-4.8-5.63-11.54-9-19s-6.52-14.25-8.87-19.09c-1.15-2.36-2.09-4.3-2.8-5.73l-.74-1.62c-.1-.17-.18-.36-.22-.56.13.15.24.32.33.5.23.41.51.91.86,1.51.73,1.32,1.75,3.25,3,5.65,2.46,4.8,5.64,11.54,9,19s6.53,14.25,8.87,19.09c1.16,2.36,2.1,4.29,2.8,5.73.31.63.55,1.14.76,1.57.09.19.16.4.2.61Z"/>
    <path class="st7" d="M480.71,409.33c-.17.12-.35.22-.55.28l-1.63.68c-1.5.62-3.53,1.45-6,2.45-5.07,2.07-12,5-19.74,8.27s-14.71,6.13-19.83,8.1c-2.56,1-4.64,1.75-6.08,2.26l-1.67.57c-.19.08-.39.14-.6.16.17-.11.36-.21.55-.28l1.63-.68,6-2.45c5.07-2.07,12-5,19.75-8.26s14.71-6.14,19.82-8.1c2.56-1,4.64-1.76,6.09-2.26l1.67-.58c.19-.08.39-.13.59-.16Z"/>
  </g>
  <g id="freepik--Floor--inject-3">
    <path class="st1" d="M470.58,456.21c0,.14-98.21.26-219.33.26s-219.36-.12-219.36-.26,98.19-.26,219.36-.26,219.33.12,219.33.26Z"/>
  </g>
  <g id="freepik--character-4--inject-3">
    <path class="st1" d="M387.34,99.08c-7.17-3.08-15.51,1.32-18.73,6.2s-4.61,10.72-5.53,16.52c-1.89,11.91-2.18,24.01-.88,36,.38,3.53,1.07,7.37,3.77,9.68s6.3,2.38,9.62,1.8c3-.52,6.05-1.66,8-4,3-3.59,2.61-8.81,2.29-13.48-1.11-16.11.59-32.28,5-47.81"/>
    <path class="st1" d="M371.71,105.6c3.29-6.54,13.29-10.07,21.37-7.88,6.82,1.84,14.11,8.84,14.61,16,.71,10.44-4.93,21.1-1.59,31,3.89,11.54,18.21,17.13,21.87,28.74,1.52,4.85.95,10.12-1.57,14.54-1.29,2.23-3.26,4.29-5.81,4.71-3.17.51-6.1-1.62-8.6-3.64-6.77-5.44-13.65-11-18.37-18.3-5.55-8.59-7.69-19-7.78-29.26s1.74-20.37,3.56-30.43"/>
    <path class="st12" d="M400.24,118.27c1.06-8.44-4.92-16.15-13.36-17.22-.16-.02-.33-.04-.49-.05-8.21-.78-15.52,5.34-16.75,13.5-1.08,7.15-2,14.38-2,17,.1,7.91,4.73,11,6.6,11.91.67.24,1.37.42,2.08.52h0s.01.04,0,.06l-1.76,9.08c-.8,5.95,2.53,11.25,8.46,12.12s10.62-3.7,11.53-9.65l5.69-37.27Z"/>
    <path class="st1" d="M371.47,118.44c-.1.67.34,1.3,1,1.43.66.14,1.31-.28,1.45-.94,0,0,0,0,0,0,.1-.67-.34-1.29-1-1.43-.65-.15-1.29.25-1.44.9,0,.01,0,.03,0,.04Z"/>
    <path class="st1" d="M371.47,116.66c.13.18,1.17-.38,2.51-.18s2.22,1,2.39.87,0-.38-.41-.75c-.52-.49-1.18-.8-1.89-.9-.69-.1-1.38.02-2,.34-.49.26-.67.53-.6.62Z"/>
    <path class="st1" d="M384.14,120.49c-.1.67.34,1.3,1,1.43.65.15,1.29-.25,1.44-.89,0-.01,0-.02,0-.04.11-.67-.33-1.3-1-1.43-.65-.15-1.29.25-1.44.89,0,.01,0,.02,0,.04Z"/>
    <path class="st1" d="M384.59,118.82c.13.19,1.18-.37,2.51-.17s2.23,1,2.4.87,0-.38-.42-.76c-.52-.48-1.18-.79-1.88-.89-.69-.1-1.39.02-2,.34-.49.26-.67.53-.61.61Z"/>
    <path class="st1" d="M378.28,128c-.67-.32-1.38-.56-2.11-.71-.34-.08-.65-.2-.68-.44.03-.36.16-.71.38-1,.44-.78.9-1.6,1.39-2.45,1.26-2.07,2.35-4.24,3.26-6.48-1.42,1.96-2.68,4.04-3.77,6.2-.48.86-.93,1.69-1.35,2.48-.3.4-.45.9-.4,1.4.07.26.25.47.49.58.18.08.37.14.57.17.73.18,1.47.27,2.22.25Z"/>
    <path class="st14" d="M376.41,144s5.11,1.17,12.14-1.77c0,0-3,6.54-12.62,4.21l.48-2.44Z"/>
    <path class="st14" d="M378.38,131.35c.61-.57,1.48-.79,2.29-.58.58.13,1.09.49,1.41,1,.3.51.25,1.15-.13,1.61-.51.43-1.23.5-1.82.19-.6-.32-1.13-.75-1.56-1.27-.14-.13-.25-.28-.33-.45-.07-.17-.04-.36.08-.5"/>
    <path class="st1" d="M382.09,129.54c-.22,0-.43,1.41-1.83,2.26s-2.91.47-2.95.67.3.33.95.45c.85.13,1.72-.04,2.46-.48.71-.43,1.22-1.11,1.44-1.91.14-.6.03-.98-.07-.99Z"/>
    <path class="st1" d="M384.33,116.39c.08.38,1.44.41,3,.83s2.76,1,3,.73c.12-.14-.05-.52-.51-.94-.62-.54-1.35-.92-2.15-1.12-.79-.22-1.62-.24-2.42-.07-.62.18-.95.39-.92.57Z"/>
    <path class="st1" d="M372.36,114c.19.34,1.16.16,2.27.31s2,.5,2.28.21,0-.46-.36-.81c-.49-.44-1.11-.71-1.77-.77-.65-.09-1.31.04-1.89.35-.44.24-.61.54-.53.71Z"/>
    <path class="st1" d="M375.79,102c.99,6.13,5.36,11.16,11.29,13l-.45-2.24c2.62,5.13,7.08,9.09,12.48,11.09,4.44-7.53,1.93-17.23-5.6-21.66-5.55-3.27-12.53-2.85-17.65,1.07"/>
    <path class="st1" d="M427,179.59c.6-.74,1.12-1.55,1.54-2.41,1.06-2.39,1.34-5.05.79-7.6-.35-1.76-1.01-3.46-1.93-5-1.07-1.76-2.34-3.39-3.78-4.86-3-3.18-7-6-10.57-9.58-1.81-1.72-3.28-3.75-4.36-6-.95-2.12-1.58-4.37-1.87-6.67-.39-3.88-.39-7.8,0-11.68.25-3.31.51-6,.68-7.83.09-.89.15-1.59.2-2.13.02-.25.05-.5.11-.74.03.25.03.5,0,.75,0,.54-.06,1.25-.11,2.13-.12,1.91-.3,4.58-.52,7.84-.32,3.86-.26,7.75.16,11.6.29,2.25.92,4.45,1.85,6.52,1.06,2.2,2.5,4.19,4.27,5.88,3.56,3.55,7.52,6.37,10.55,9.6,1.46,1.51,2.74,3.19,3.8,5,.93,1.58,1.59,3.32,1.93,5.12.52,2.62.16,5.34-1,7.75-.33.64-.73,1.24-1.19,1.79-.17.19-.35.36-.55.52Z"/>
    <path class="st5" d="M434.68,425.1l4.74,23.24,9.05,17.3c.63,1.19.17,2.66-1.01,3.28-.05.03-.1.05-.16.08h0c-.72.31-1.55.26-2.22-.14-4.3-2.58-20.07-12.15-20.32-13.87-.3-2-6.63-24.18-6.63-24.18l16.55-5.71Z"/>
    <g class="st0">
      <path class="st2" d="M447.3,469l-22.9-15.57.22,1c.19.85.68,1.6,1.38,2.12,1.86,1.39,7.08,5.12,19,12.35.7.42,1.55.46,2.29.12v-.02Z"/>
    </g>
    <g class="st0">
      <path class="st2" d="M427.45,444.88c.69.3,1.04,1.07.81,1.78-.27.71-1.05,1.07-1.76.83-.72-.32-1.09-1.14-.85-1.89.36-.7,1.21-.99,1.92-.66"/>
    </g>
    <path class="st1" d="M439.71,460.09c.39-.85.94-1.62,1.62-2.26.77-.53,1.63-.91,2.54-1.12,0-.06-.32-.17-.88-.12-1.49.16-2.75,1.18-3.22,2.61-.16.53-.12.88-.06.89Z"/>
    <path class="st1" d="M442.06,462.81c.14.07.71-.85,1.82-1.46.72-.31,1.45-.58,2.2-.81-.83-.28-1.74-.15-2.45.36-1.27.7-1.7,1.87-1.57,1.91Z"/>
    <path class="st1" d="M435.74,456.82c.82-.89,1.71-1.71,2.66-2.45,1.05-.6,2.13-1.13,3.25-1.58-2.58.07-4.88,1.63-5.91,4v.03Z"/>
    <path class="st1" d="M433.71,449.88c.09.12,1.25-.7,2.9-1.14s3.05-.34,3.07-.5c-2.15-.61-4.46.02-6,1.64h.03Z"/>
    <path class="st1" d="M432.14,443.09c.94-.55,1.95-.97,3-1.26,1.08-.13,2.17-.11,3.24.07,0-.06-.29-.29-.89-.48-1.61-.46-3.35-.13-4.68.9-.5.39-.71.73-.67.77Z"/>
    <path class="st1" d="M434.79,440.54c.01-.3-.04-.6-.16-.88-.26-.78-.68-1.51-1.22-2.13-.36-.48-.87-.84-1.45-1-.39-.06-.79.11-1,.45-.19.35-.23.75-.13,1.13.48,1.58,2,2.6,3.64,2.43,1.6-.2,2.92-1.35,3.35-2.9.11-.39.04-.81-.19-1.14-.27-.3-.71-.41-1.09-.27-.54.25-1,.65-1.34,1.14-.51.65-.91,1.38-1.17,2.16-.12.28-.18.58-.18.88.41-1.01.96-1.96,1.63-2.81.31-.43.72-.77,1.19-1,.21-.09.46-.03.6.15.13.23.16.5.08.75-.41,1.34-1.56,2.32-2.95,2.5-1.38.13-2.67-.69-3.12-2-.08-.26-.06-.54.05-.79.11-.2.34-.31.56-.26.49.15.93.45,1.25.85.71.81,1.27,1.73,1.65,2.74Z"/>
    <path class="st5" d="M371.93,427.54l1.1,18.87s-18.81,7.46-18.95,11l36.67-.82-.5-29.48-18.32.43Z"/>
    <g class="st0">
      <path class="st2" d="M384.34,444.57c.73.2,1.2.93,1.07,1.68-.17.75-.91,1.22-1.66,1.08-.78-.21-1.27-.99-1.13-1.79.27-.76,1.09-1.17,1.86-.93"/>
    </g>
    <g class="st0">
      <path class="st2" d="M390.75,456.56l-.16-3-35.1,1.89s-1.62.75-1.41,1.9l36.67-.79Z"/>
    </g>
    <path class="st1" d="M372.44,446.24c0,.18.9.24,1.8.79s1.38,1.3,1.54,1.23-.13-1.11-1.22-1.76-2.17-.43-2.12-.26Z"/>
    <path class="st1" d="M368.62,447.91c0,.18.75.47,1.37,1.21s.82,1.54,1,1.53.27-1-.52-1.94-1.85-.97-1.85-.8Z"/>
    <path class="st1" d="M366.54,452.57c.17,0,.4-.87-.09-1.84s-1.32-1.34-1.4-1.19.46.66.84,1.47.47,1.54.65,1.56Z"/>
    <path class="st1" d="M372.66,441.91c.08.16.9-.11,1.91-.06s1.81.35,1.9.19-.68-.78-1.88-.81-2.02.54-1.93.68Z"/>
    <g class="st9">
      <polygon points="372.16 431.27 372.35 434.64 390.37 434.07 390.32 431.04 372.16 431.27"/>
    </g>
    <path class="st1" d="M372.51,438.1c.61.15,1.24.13,1.84-.05.66-.13,1.3-.35,1.91-.64.35-.17.68-.36,1-.58.2-.12.38-.27.54-.44.26-.27.28-.7.06-1-.19-.25-.48-.39-.79-.39-.23,0-.47.04-.69.11-.39.11-.77.25-1.13.42-.61.29-1.18.68-1.67,1.15-.83.8-1.11,1.48-1.05,1.51s.49-.51,1.34-1.18c.49-.4,1.04-.74,1.62-1,.32-.14.66-.26,1-.35.39-.11.72-.12.82.05s.05.09,0,.21c-.12.12-.25.23-.4.32-.32.21-.66.41-1,.58-.56.29-1.15.53-1.76.72-.56.14-1.11.33-1.64.56Z"/>
    <path class="st1" d="M372.75,438.35c.33-.54.48-1.16.44-1.79.02-.68-.08-1.36-.29-2-.13-.39-.29-.76-.49-1.11-.22-.49-.67-.82-1.2-.9-.33.02-.62.23-.75.53-.09.22-.15.45-.18.68-.14,1.11.17,2.23.86,3.12.74.93,1.49,1.13,1.5,1.07s-.57-.43-1.14-1.33c-.33-.52-.54-1.1-.62-1.71-.05-.35-.05-.71,0-1.06.05-.39.19-.71.33-.67s.5.27.66.58c.18.32.34.66.48,1,.22.58.35,1.2.39,1.82.09,1.07-.09,1.74.01,1.77Z"/>
    <path class="st1" d="M400.44,225.59s10.78,23.41,12.41,30.24,31.73,187.29,31.73,187.29l-27.66,1.68-37.56-176.54,15.11,175.26-27.21,2.27s-20.57-185.2-19.7-190.42c1.32-7.89,8-30.59,8-30.59l44.88.81Z"/>
    <path class="st10" d="M379.14,267.13s0,.15-.23.3c-.34.17-.76.13-1.06-.1-.4-.42-.63-.98-.65-1.56l-.36-2.15c-.53-3.19-1.22-7.61-1.94-12.48s-1.37-9.3-1.8-12.5c-.19-1.53-.35-2.81-.48-3.8-.08-.46-.12-.93-.11-1.4.15.45.25.9.31,1.37.17,1,.38,2.25.64,3.77.53,3.19,1.22,7.6,2,12.48s1.36,9.3,1.79,12.5c.1.79.2,1.51.28,2.16,0,.53.17,1.04.5,1.45.24.22.59.29.89.17.15-.1.19-.23.22-.21Z"/>
    <path class="st10" d="M376.31,237s0-.16.26-.31c.33-.19.72-.25,1.09-.16.6.12,1.06.59,1.16,1.19.13.74-.23,1.48-.89,1.84-.67.3-1.46.17-2-.34-.43-.41-.61-1.01-.47-1.59.24-1,.92-1.18.91-1.12-.27.34-.46.75-.55,1.18-.07.44.1.89.43,1.18.4.35.97.44,1.46.23.46-.26.72-.77.65-1.3-.06-.43-.36-.79-.78-.92-.42-.11-.87-.07-1.27.12Z"/>
    <path class="st12" d="M328.69,122.19l-16.95-26.19h0l-5.16-8.62s-1.53-8.64-2.26-11.07c-1.52-5-2-4.87-2.52-4.59-1.48.74,2.33,8.9.49,7.62s-3.5-10.52-5-9.69c-2,1.1,2.17,9.56,2.47,10.31s-.77,1.19-1,.51c-.34-1-4.11-11.24-6.07-10.18-1.08.58.15,2.43.15,2.43,0,0,4.24,9.33,3.3,9.8s-3.63-4.93-4.4-6.81-2-2.25-2.5-1.23c-.37.7,1.86,6.52,2.67,8.37s3.11,6.86,0,5.31-6.15-1.55-7-1c-.46.4-.51,1.09-.11,1.55.22.25.54.39.88.38,1.17.15,2.32.46,3.41.93.89.34,1.72.83,2.44,1.45.85.72,1.53,1.37,2.1,1.93l4.21,8.75h0l18.59,36.49,38.93,32.24,9.82-17.7-36.49-30.99Z"/>
    <path class="st12" d="M429.24,268.37c.24.77.5,1.67.75,2.75.22.93.28,1.89.17,2.84-.08,1.18-.33,2.35-.73,3.46-.48,1,.49,2,1.36,1.56s2.25-3.14,2.31-6.65,3.47.84,4.74,2.41,5.43,6.21,6.22,6.2c1.16,0,1.35-1.26.05-2.79s-4.89-6.4-4-7,7.19,7.42,7.19,7.42c0,0,1.08,1.94,2.1,1.25,1.83-1.26-5.55-9.31-6.28-10.06-.5-.52.41-1.24.92-.65s6.15,8.17,8,6.91c1.44-1-6-6.68-6.31-8.9s5.21,4.91,6.55,3.93c.49-.37.82-.71-2.94-4.34-1.82-1.77-8.8-7.09-8.8-7.09l-14.79-48.62-18.36.3,21.85,57.07Z"/>
    <path class="st5" d="M372.44,153.15h0c-2.99-1.15-5.91-2.45-8.76-3.91l-29.12-22.06-13,17.36s33.23,30,33.78,29.84,17.1-21.23,17.1-21.23Z"/>
    <path class="st5" d="M374.64,153.08l-2.2.07c-6.36.21-11.92,4.37-13.93,10.41-2.22,6.68-2.09,8.86-3.63,13.85-3.68,11.92,2.93,26.39,2.93,26.39l-2.28,21,44.91.81,2.26-25.28,8.39-37.85s-1.86-8.12-9-8.78c-3.7-.36-27.45-.62-27.45-.62Z"/>
    <path class="st5" d="M403.41,154.34s10.64-.05,13.88,12.22,9.71,44.54,9.71,44.54l-20.16,6.06-10.84-44.29c-.75-2.51-1.05-5.14-.87-7.75.33-4.43,1.99-10.18,8.28-10.78Z"/>
    <polygon class="st5" points="371.45 153.68 375 146.89 381 150.29 381 153.24 382.9 150.29 397.05 146.89 397.05 155.28 380.53 157.08 371.45 153.68"/>
    <path class="st1" d="M360.37,164c-.21.5-.46.98-.75,1.44-.26.45-.57,1-.88,1.67s-.72,1.4-1.06,2.27-.76,1.79-1.09,2.83-.68,2.15-1,3.32c-1.33,5.16-1.67,10.52-1,15.81.18,1.21.32,2.37.58,3.43.19.99.43,1.97.72,2.94.22.91.53,1.69.76,2.39.19.6.41,1.19.66,1.77.22.5.41,1.01.55,1.53-.28-.46-.53-.95-.74-1.45-.28-.57-.53-1.15-.75-1.75-.25-.7-.59-1.48-.83-2.38-.32-.99-.59-1.99-.8-3-.27-1.07-.43-2.23-.63-3.46-.34-2.65-.43-5.33-.28-8,.19-2.68.63-5.35,1.31-7.95.35-1.19.66-2.32,1.07-3.35.34-.96.73-1.91,1.17-2.83.34-.77.72-1.52,1.13-2.25.3-.57.63-1.12,1-1.65.25-.47.53-.91.86-1.33Z"/>
    <path class="st1" d="M379.94,149.76c-.09.7-.27,1.39-.53,2.05-.39,1.25-1,3-1.62,4.84-.11.29-.21.58-.31.86l-.11.3-.27-.16c-1.29-.78-2.49-1.7-3.58-2.75-.47-.4-.87-.87-1.18-1.4,1.59,1.34,3.26,2.57,5,3.7l-.38.14.31-.87c.66-1.88,1.29-3.57,1.76-4.78.22-.68.52-1.33.91-1.93Z"/>
    <path class="st1" d="M391.56,156c-.68.38-1.4.68-2.14.91-1.34.51-3.2,1.17-5.29,1.88l-.3.11v-.57c-.33-2.24-.59-4.27-.76-5.74-.14-.79-.2-1.6-.17-2.4.26.76.44,1.55.53,2.35.26,1.45.59,3.48.92,5.71v.26l-.34-.21c2.09-.7,4-1.31,5.35-1.73.71-.28,1.45-.47,2.2-.57Z"/>
    <path class="st1" d="M399,216.63c2,2.14,2.52,5.27,1.31,7.94.15-1.36.15-2.72,0-4.08-.3-1.33-.74-2.62-1.31-3.86Z"/>
    <path class="st15" d="M425.29,204c-.93.39-1.89.68-2.88.88-1.8.47-4.3,1-7.09,1.57s-5.34.89-7.18,1.11c-.99.16-2,.24-3,.22.98-.28,1.99-.48,3-.59,1.82-.31,4.35-.73,7.13-1.25s5.29-1,7.11-1.41c.95-.25,1.93-.43,2.91-.53Z"/>
    <path class="st15" d="M423,191.72c-.96.47-1.97.84-3,1.1-1.86.58-4.46,1.28-7.34,2s-5.49,1.35-7.37,1.84c-1,.31-2.03.56-3.06.74.96-.46,1.97-.83,3-1.09,1.86-.59,4.46-1.29,7.34-2s5.49-1.34,7.37-1.84c1-.32,2.02-.57,3.06-.75Z"/>
    <path class="st1" d="M406.82,217.16c-.16-.38-.28-.77-.37-1.17-.21-.86-.49-1.94-.81-3.23-.66-2.73-1.54-6.51-2.49-10.69s-1.76-8-2.34-10.73c-.26-1.29-.47-2.38-.65-3.26-.1-.4-.15-.8-.17-1.21.17.37.3.76.37,1.16l.81,3.23c.67,2.73,1.55,6.51,2.49,10.7s1.77,8,2.34,10.72c.26,1.3.48,2.39.65,3.27.11.39.17.8.17,1.21Z"/>
    <path class="st15" d="M421.92,182.3c0,.14-15.07-.15-33.65-.65s-33.64-1-33.64-1.16,15.07.14,33.65.64,33.64,1.02,33.64,1.17Z"/>
    <path class="st15" d="M416.76,165.17c-.19.06-.38.09-.58.09l-1.67.14c-1.46.12-3.56.26-6.17.42-5.21.31-12.41.65-20.37.87s-15.17.26-20.38.23c-2.61,0-4.72,0-6.18-.08l-1.68-.06c-.2,0-.39-.02-.59-.05.2-.03.39-.03.59,0l1.68-.05,6.17-.08c5.22-.06,12.42-.17,20.38-.38s15.15-.5,20.36-.72l6.18-.25h1.68c.19-.05.38-.08.58-.08Z"/>
    <path class="st15" d="M344.75,165.94c-.11-.1,3.33-4.24,7.67-9.25s8-9,8.07-8.91-3.33,4.23-7.67,9.25-7.96,8.97-8.07,8.91Z"/>
    <path class="st15" d="M401.15,201c0,.15-10.28-.76-22.93-2s-22.9-2.4-22.89-2.55,10.28.77,22.94,2,22.89,2.45,22.88,2.55Z"/>
    <path class="st15" d="M401.66,214.88c0,.15-10,0-22.26-.24s-22.25-.62-22.25-.76,10,0,22.26.24,22.25.62,22.25.76Z"/>
    <path class="st1" d="M371.45,224.64c-.02-.25-.02-.49,0-.74v-2.11c0-1.84.14-4.5.36-7.78.11-1.64.25-3.43.45-5.35s.49-4,.76-6.12c.54-4.31,1-9.06,1.5-14,.68-8.54,1.9-17.02,3.65-25.41.73-3.2,1.48-5.76,2-7.51.28-.83.51-1.5.69-2,.06-.24.16-.47.27-.69-.03.25-.09.49-.17.72-.16.51-.35,1.19-.6,2-.5,1.76-1.19,4.33-1.87,7.53-1.63,8.39-2.8,16.86-3.49,25.37-.5,5-1,9.74-1.54,14-.29,2.15-.59,4.19-.81,6.1s-.38,3.71-.52,5.34c-.26,3.27-.41,5.92-.51,7.75l-.12,2.11c.01.26,0,.53-.05.79Z"/>
    <rect class="st15" x="387.68" y="180.48" width="10.88" height="2.83"/>
    <g class="st9">
      <path d="M400.3,189.09c-4.88,7.65-4.58,17.52.76,24.86.67-4.67,1.33-9.33,2-14"/>
    </g>
    <path class="st1" d="M394,119.23c1.28,2.63.65,5.78-.28,8.56-.93,2.78-2.12,5.59-1.88,8.51.22,2.71,1.68,5.2,1.94,7.91.45,4.56-2.47,8.7-3.67,13.13-1.52,5.8-.06,11.98,3.89,16.49.35.5.9.82,1.51.89.71-.1,1.27-.65,1.37-1.36.08-.69.07-1.39-.05-2.07-.55-6.54,5.74-11.78,6.65-18.28.6-4.23-1.15-8.41-1.41-12.67-.33-5.36,1.69-10.56,2.35-15.89.3-1.82.2-3.68-.31-5.45-.53-1.79-1.9-3.21-3.68-3.79-1.84-.51-3.76.44-4.47,2.21"/>
  </g>
  <g id="freepik--character-3--inject-3">
    <path class="st16" d="M272.91,159.29l-21.17,13.4,15-41.05,4.05-8.09c.54-.68,1.2-1.46,2-2.35.7-.76,1.53-1.39,2.45-1.87,1.11-.65,2.31-1.13,3.56-1.44.66-.05,1.15-.62,1.1-1.27-.03-.37-.22-.7-.53-.91-.95-.5-4.18-.11-7.37,2s-1.36-3.63-.72-5.72,2.29-8.64,1.8-9.35c-.72-1-1.95-.45-2.54,1.65s-2.78,8.28-3.86,7.89,2.29-11,2.29-11c0,0,1.09-2.15-.15-2.64-2.24-.88-5,10.64-5.23,11.74-.16.77-1.36.39-1.14-.42s3.61-10.49,1.34-11.41c-1.75-.71-2.36,9.46-4.17,11.07s1.25-7.66-.45-8.27c-.63-.23-1.13-.31-2.11,5.27-.48,2.71-1,12.21-1,12.21l-4.93,9.72.12.11-20.18,42.62c-3.87,10.22,2.45,18.48,8.78,22.22h0c5.91,3.49,13.3,3.28,19-.54l24.45-16.33-10.39-17.24Z"/>
    <path class="st16" d="M386.72,249.22c.51.75,1.07,1.65,1.69,2.73.53.93.89,1.95,1.07,3,.29,1.31.39,2.66.3,4-.17.66.22,1.34.89,1.51.39.1.8,0,1.11-.25.8-.78,1.43-4.1.4-7.91s4-.19,5.87,1.1,7.82,5,8.67,4.74c1.24-.38,1.07-1.79-.83-3s-7.29-5.36-6.57-6.31,10.12,5.74,10.12,5.74c0,0,1.77,1.75,2.65.68,1.58-1.93-8.93-8.3-9.94-8.88-.71-.4,0-1.46.78-1s9.21,6.88,10.84,4.93c1.25-1.5-8.59-5.32-9.61-7.62s7.17,3.66,8.31,2.18c.42-.55.66-1-4.54-3.76-2.52-1.34-11.74-4.88-11.74-4.88l-56.55-73-16.4,14.78,63.48,71.22Z"/>
    <path class="st10" d="M286.09,427.81l1.08,18.52s-18.47,7.32-18.6,10.76l36-.18-.51-29.55-17.97.45Z"/>
    <g class="st0">
      <path class="st2" d="M298.26,444.52c.72.21,1.17.92,1.06,1.66-.18.73-.9,1.2-1.64,1.06-.77-.21-1.24-.98-1.1-1.76.26-.75,1.07-1.15,1.82-.91"/>
    </g>
    <g class="st0">
      <path class="st2" d="M304.57,456.91v-3l-34.57,1.33s-1.59.73-1.38,1.85l35.95-.18Z"/>
    </g>
    <path class="st1" d="M286.58,446.16c0,.18.89.24,1.77.78s1.35,1.28,1.51,1.2-.12-1.08-1.2-1.72-2.12-.42-2.08-.26Z"/>
    <path class="st1" d="M282.84,447.81c0,.17.73.45,1.35,1.18s.8,1.51,1,1.5.27-1-.51-1.9-1.84-.95-1.84-.78Z"/>
    <path class="st1" d="M280.8,452.37c.16,0,.38-.85-.09-1.8s-1.3-1.32-1.37-1.17.45.65.82,1.44.46,1.52.64,1.53Z"/>
    <path class="st1" d="M286.8,441.91c.08.16.88-.1,1.88-.05s1.77.34,1.86.19-.67-.77-1.84-.8-1.99.53-1.9.66Z"/>
    <path class="st1" d="M286.65,438.17c.6.15,1.22.14,1.81-.05.65-.13,1.28-.33,1.87-.62.35-.17.68-.36,1-.57.2-.11.39-.26.54-.44.23-.26.25-.64.06-.93-.19-.24-.47-.39-.78-.39-.23,0-.46.04-.68.11-.38.1-.75.24-1.11.41-.6.29-1.15.67-1.64,1.13-.81.79-1.08,1.45-1,1.49s.47-.51,1.31-1.16c.48-.38,1.02-.7,1.58-.95.33-.14.66-.25,1-.34.38-.11.71-.12.81.05s0,.09,0,.2c-.11.13-.24.23-.39.32-.3.21-.62.4-.94.57-.55.29-1.13.52-1.73.7-.58.12-1.15.28-1.71.47Z"/>
    <path class="st1" d="M286.89,438.42c.33-.52.49-1.13.44-1.75.01-.68-.08-1.35-.29-2-.13-.38-.29-.74-.49-1.08-.21-.48-.65-.81-1.17-.89-.33.02-.61.22-.74.52-.08.22-.14.44-.17.67-.07.4-.07.81,0,1.21.11.67.39,1.31.81,1.85.72.91,1.46,1.11,1.47,1s-.56-.42-1.12-1.3c-.32-.51-.52-1.08-.61-1.68-.04-.35-.04-.7,0-1.05.05-.38.19-.69.33-.66s.49.28.65.58c.18.32.34.65.46,1,.22.57.35,1.18.39,1.79.15,1.1-.06,1.77.04,1.79Z"/>
    <path class="st10" d="M348.38,427.54l1.41,18.5s-18.33,7.65-18.4,11.09l36-1.44-2.9-28.84-16.11.69Z"/>
    <g class="st0">
      <path class="st2" d="M360.85,444c.72.19,1.19.89,1.08,1.63-.16.73-.87,1.21-1.61,1.09-.77-.2-1.26-.95-1.14-1.74.25-.75,1.04-1.16,1.8-.94"/>
    </g>
    <g class="st0">
      <path class="st2" d="M367.36,455.69l-.22-2.92-34.41,2.48s-1.57.76-1.34,1.88l35.97-1.44Z"/>
    </g>
    <path class="st1" d="M349.2,445.88c0,.18.89.22,1.78.75s1.38,1.25,1.54,1.18-.15-1.08-1.23-1.71-2.14-.38-2.09-.22Z"/>
    <path class="st1" d="M345.49,447.6c0,.17.74.43,1.36,1.15s.83,1.5,1,1.49.25-1-.55-1.89-1.81-.92-1.81-.75Z"/>
    <path class="st1" d="M343.53,452.2c.16,0,.37-.86-.12-1.8s-1.33-1.3-1.4-1.15.46.65.85,1.43.49,1.51.67,1.52Z"/>
    <path class="st1" d="M349.34,441.63c.08.16.88-.12,1.88-.09s1.78.31,1.86.16-.68-.76-1.85-.77-1.98.57-1.89.7Z"/>
    <path class="st1" d="M349.13,437.89c.6.15,1.22.12,1.8-.08.64-.14,1.27-.36,1.86-.65.35-.17.68-.37,1-.59.2-.12.38-.27.53-.45.22-.28.22-.66,0-.94-.19-.23-.48-.37-.78-.37-.23,0-.45.05-.67.12-.38.11-.75.26-1.11.43-.6.3-1.14.69-1.62,1.16-.8.81-1.06,1.47-1,1.5s.47-.51,1.29-1.18c.76-.62,1.64-1.08,2.59-1.33.38-.11.71-.13.81,0s0,.08,0,.2c-.12.12-.25.23-.39.32-.3.21-.61.41-.93.59-.55.3-1.12.54-1.71.73-.57.14-1.13.32-1.67.54Z"/>
    <path class="st1" d="M349.37,438.14c.31-.53.45-1.15.4-1.76,0-.68-.1-1.36-.32-2-.13-.37-.3-.73-.51-1.07-.21-.48-.66-.8-1.18-.86-.33.02-.61.22-.73.53-.09.21-.14.44-.16.67-.05.4-.03.81.05,1.21.12.67.41,1.3.84,1.83.74.9,1.48,1.08,1.49,1s-.57-.4-1.14-1.28c-.33-.5-.55-1.07-.64-1.66-.05-.35-.05-.7,0-1.05,0-.38.17-.7.32-.66s.49.26.65.56c.19.32.36.65.49,1,.22.57.36,1.17.42,1.78.08,1.07-.08,1.73.02,1.76Z"/>
    <path class="st16" d="M318.75,114.12l-3.53,40.95-20.51-1.64c-.13-2.39,0-11.66,0-11.66,0,0-8.53-1.32-8.63-9.85-.06-4.15.54-12.71,1.16-20.42.69-8.58,8.11-15.02,16.7-14.5h0c8.7.5,15.35,7.96,14.84,16.66,0,.15-.02.3-.03.46Z"/>
    <path class="st8" d="M294.74,141.65c3.94.08,7.81-1.03,11.12-3.16,0,0-2.63,6.14-11.14,5.37l.02-2.21Z"/>
    <path class="st1" d="M289.3,118.54c.14.16,1.1-.47,2.41-.41s2.24.78,2.39.62-.07-.36-.47-.68c-1.11-.85-2.64-.93-3.83-.18-.42.29-.57.57-.5.65Z"/>
    <path class="st1" d="M301.3,118.72c.16.15,1.06-.56,2.37-.59s2.29.59,2.43.43-.09-.36-.52-.65c-.58-.38-1.26-.57-1.95-.54-.68.02-1.34.25-1.88.67-.39.32-.52.61-.45.68Z"/>
    <path class="st1" d="M297.23,126.65c-.69-.22-1.41-.35-2.13-.39-.34,0-.65-.1-.71-.33-.03-.35.05-.7.22-1,.32-.81.65-1.66,1-2.55.92-2.16,1.66-4.39,2.23-6.67-1.09,2.08-2.01,4.25-2.76,6.48-.33.89-.64,1.74-.95,2.56-.2.4-.26.87-.17,1.31.1.24.3.42.55.49.19.05.38.08.57.08.71.09,1.44.1,2.15.02Z"/>
    <path class="st1" d="M301.09,127.55c-.22,0-.22,1.41-1.44,2.42s-2.73.86-2.74,1.06.34.27,1,.29c.83,0,1.64-.27,2.29-.8.61-.5,1.01-1.22,1.11-2,.03-.62-.13-.98-.22-.97Z"/>
    <path class="st1" d="M301.65,112.65c.13.36,1.44.19,3,.38s2.78.6,3,.28c.09-.15-.13-.49-.63-.83-.67-.43-1.43-.7-2.22-.78-.78-.09-1.58,0-2.32.28-.6.23-.88.51-.83.67Z"/>
    <path class="st1" d="M289.59,113.25c.27.35,1.3,0,2.55,0s2.31.23,2.55-.12c.11-.18-.06-.52-.52-.84-1.27-.79-2.89-.74-4.11.12-.44.32-.59.68-.47.84Z"/>
    <path class="st1" d="M309.49,104.77h0c1.36,1.07,2.26,2.62,2.5,4.34v.17c.34,2.43.27,4.91.63,7.34.23,2.47,1.29,4.78,3,6.57.74.69,2,1.17,2.65.36.21-.34.32-.72.31-1.12.45-5.87,2.06-11.08,2-17.23,0-1.67-.79-3.24-2.15-4.21-1.28-.93-2.85-1.88-4.28-1.21s-3.28,3.36-4.39,4.49"/>
    <path class="st16" d="M315.87,118c.15-.06,5.86-1.73,5.68,4.1s-6,4.45-6,4.28.32-8.38.32-8.38Z"/>
    <path class="st8" d="M317.39,124.2s.1.08.27.16c.24.1.52.1.76,0,.78-.46,1.26-1.31,1.24-2.22.03-.5-.06-1-.24-1.46-.1-.37-.38-.67-.74-.8-.24-.08-.5.03-.61.26-.08.16-.05.27-.08.28s-.12-.1-.07-.34c.04-.14.12-.27.24-.36.17-.12.37-.16.57-.13.47.12.85.48,1,.94.24.51.34,1.08.3,1.64.02,1.06-.59,2.04-1.56,2.47-.32.08-.66.01-.93-.18-.14-.11-.17-.25-.15-.26Z"/>
    <path class="st1" d="M314.45,100.73c1.43-2.34-2.5-5.69-5.38-6.59s-6.67.49-9.54,1.44c-1.8.6-3.61,1.44-5.51,1.36-1.27-.13-2.52-.45-3.7-.94-1.18-.5-2.45-.75-3.73-.74-1.3.03-2.48.78-3.07,1.95-.48,1.12.04,2.41,1.15,2.89.11.05.21.08.33.11-1.39-.75-3.12-.24-3.88,1.15-.75,1.39-.24,3.12,1.15,3.88.6.33,1.29.43,1.96.28-.83-.63-2.1.41-2,1.45.23,1.04.99,1.88,2,2.21,2.43,1.06,5.27.72,7.79-.12s4.85-2.17,7.34-3.08,6.68-2.54,9.18-1.66c1.85.65,3.13,2.87,4.17,2.38,1-.53,1.69-1.5,1.85-2.62.14-1.11.1-2.23-.11-3.32"/>
    <path class="st10" d="M284.29,100s.3.43.93,1.12c.9.94,2.01,1.65,3.24,2.08,1.8.66,3.79.59,5.54-.2,2-.89,3.68-2.67,5.64-4.35,1.81-1.7,4.09-2.8,6.55-3.14,2.06-.25,4.12.46,5.58,1.93.94,1.02,1.42,2.39,1.32,3.77-.03.37-.11.73-.25,1.07-.1.23-.17.34-.19.33.11-.46.19-.93.22-1.41,0-1.3-.5-2.55-1.4-3.48-1.39-1.33-3.3-1.96-5.2-1.72-2.35.38-4.54,1.45-6.27,3.09-1.92,1.64-3.67,3.47-5.79,4.39-1.88.83-4.01.88-5.92.12-1.27-.47-2.4-1.27-3.27-2.32-.23-.28-.44-.59-.61-.91-.06-.12-.1-.24-.12-.37Z"/>
    <path class="st10" d="M317.36,117.73s-.25-.16-.47-.62c-.3-.66-.4-1.4-.29-2.12.12-1.88,1.79-3.89,2-6.49.17-1.2-.04-2.42-.6-3.5-.5-.85-1.26-1.51-2.17-1.87-.61-.26-1.28-.35-1.94-.27-.47.08-.72.19-.74.14s.2-.21.69-.36c.71-.18,1.45-.14,2.14.1,1.03.36,1.91,1.07,2.48,2,.65,1.15.92,2.48.76,3.8-.15,1.28-.53,2.53-1.12,3.68-.48.89-.83,1.84-1.05,2.82-.18.91-.07,1.85.31,2.69Z"/>
    <polygon class="st1" points="334.95 246.34 368.47 441.36 342.04 444.58 304.51 270.61 307.64 442.07 282.33 442.07 272.32 244.63 334.95 246.34"/>
    <path class="st5" d="M274.8,184.27l-9.45,5.87-10.72-20.6c4.71-3.4,19.81-13.12,23.64-15.62.95-.64,1.95-1.18,3-1.63,2.55-1,5.22-1.65,7.94-1.94,2.42-.33,4.26-.49,5.45-.64,6.89,2.18,14.28,2.18,21.17,0h0c.83,0,1.64.1,2.42.19h0c7,1,13.79,5.91,18,10.47l16.68,15-16.36,19.56-5.06-6,1.19,27.63,4.83,34.36h-65.35s-.14-8.1.45-19.36c.84-15.84,1.67-40.47,1.67-40.47"/>
    <path class="st1" d="M274.16,201.64c.25-1.5.39-3.03.42-4.55.19-2.8.44-6.68.79-11s.74-8.14,1-10.94c.22-1.5.33-3.02.33-4.54-.41,1.47-.69,2.96-.84,4.48-.41,2.79-.87,6.66-1.23,10.94s-.52,8.18-.58,11c-.1,1.54-.06,3.08.11,4.61Z"/>
    <path class="st1" d="M330.32,174.38c-.18,1.03-.23,2.08-.16,3.13,0,1.93.12,4.6.33,7.54s.51,5.59.79,7.5c.07,1.05.28,2.08.63,3.07.07-1.04.03-2.09-.12-3.12-.17-2.21-.36-4.73-.57-7.51s-.38-5.3-.55-7.5c0-1.05-.12-2.09-.35-3.11Z"/>
    <path class="st15" d="M335.16,159.59c-.84-.25-1.72-.37-2.6-.37-2.41.14-4.72.99-6.65,2.43-1.27.84-2.57,1.89-4,2.95-1.56,1.13-3.24,2.1-5,2.89-1.97.84-4.03,1.45-6.13,1.84-2.27.38-4.57.5-6.86.36-2.29-.14-4.56-.56-6.75-1.26-1.04-.33-2.06-.72-3.06-1.16-.95-.44-1.87-.93-2.76-1.48-3.55-2.09-5.91-5-8.4-6.72-1.89-1.49-4.25-2.27-6.66-2.18-.88.1-1.73.34-2.53.71l.15-.1c.14-.1.29-.19.45-.26.6-.29,1.25-.48,1.91-.55,2.47-.17,4.92.57,6.89,2.07,2.57,1.74,4.95,4.61,8.43,6.62.88.54,1.79,1.02,2.73,1.44.98.43,1.98.8,3,1.12,2.15.68,4.38,1.09,6.63,1.23,2.25.14,4.51.03,6.73-.34,2.06-.38,4.07-.97,6-1.78,1.74-.76,3.4-1.7,4.95-2.8,1.46-1,2.78-2.08,4.08-2.91,2-1.44,4.39-2.25,6.85-2.32.68,0,1.35.1,2,.3.16.05.32.11.48.18.07.05.12.08.12.09Z"/>
    <path class="st15" d="M274.9,180.62c-.08,0-.72-.86-2-2-.77-.69-1.6-1.3-2.49-1.83-1.1-.63-2.26-1.15-3.46-1.54-1.21-.37-2.45-.62-3.71-.73-1.03-.08-2.07-.06-3.1.05-1.75.21-2.8.59-2.83.49s.24-.15.71-.32c.67-.25,1.36-.42,2.07-.53,1.05-.17,2.12-.23,3.18-.17,1.3.09,2.59.33,3.84.71,1.24.41,2.43.95,3.54,1.63.91.57,1.75,1.24,2.51,2,.29.28.57.58.82.9.21.23.4.47.57.73.24.35.38.58.35.61Z"/>
    <path class="st15" d="M330.1,190.25c-.15.12-.32.22-.5.3l-1.49.78-1.09.56c-.41.19-.86.36-1.34.57-1,.39-2,.89-3.29,1.28l-2,.65c-.68.22-1.41.38-2.15.59-1.48.43-3.11.7-4.82,1-3.72.57-7.49.8-11.25.69-3.76-.18-7.5-.7-11.17-1.56-1.68-.46-3.28-.87-4.72-1.42-.73-.26-1.44-.47-2.1-.75l-1.9-.81c-1.22-.48-2.25-1.07-3.18-1.54-.46-.24-.9-.45-1.28-.67l-1-.64-1.43-.9c-.17-.09-.34-.21-.48-.35.19.07.37.16.54.26l1.47.81,1.06.6c.39.21.83.4,1.29.63.94.44,2,1,3.2,1.46l1.89.78c.66.26,1.37.46,2.1.72,1.44.52,3,.91,4.69,1.35,7.28,1.75,14.84,2.06,22.24.89,1.69-.31,3.31-.56,4.78-1,.74-.2,1.47-.34,2.15-.55l1.95-.62c1.25-.36,2.33-.84,3.3-1.2.48-.19.94-.35,1.35-.53l1.1-.51,1.53-.69c.17-.09.36-.15.55-.18Z"/>
    <path class="st15" d="M348,173.42c-1.01-.15-2.03-.24-3.05-.25-2.45.12-4.84.83-6.95,2.09-2.11,1.28-4.06,2.8-5.83,4.52-.72.74-1.49,1.43-2.31,2.05.61-.83,1.29-1.61,2.05-2.31,1.72-1.83,3.68-3.41,5.83-4.71,2.18-1.3,4.67-2,7.21-2,.76,0,1.52.11,2.26.31.28.05.55.15.79.3Z"/>
    <path class="st15" d="M331.42,211.32c-.17.11-.35.2-.54.27l-1.58.71c-.68.31-1.53.67-2.54,1s-2.13.81-3.42,1.18l-2,.61c-.71.21-1.45.36-2.22.56-1.53.41-3.19.7-4.94,1-7.61,1.3-15.37,1.37-23,.2-1.75-.31-3.42-.57-5-1-.77-.19-1.52-.33-2.22-.53l-2-.58c-1.3-.34-2.44-.78-3.45-1.12s-1.87-.68-2.56-1l-1.59-.67c-.19-.07-.37-.16-.54-.27.2.03.4.09.58.17l1.63.59c.7.26,1.55.58,2.57.89s2.16.72,3.46,1l2,.54c.71.18,1.46.32,2.22.49,1.53.37,3.2.61,4.94.9,7.59,1.12,15.32,1.05,22.89-.19,1.74-.32,3.4-.59,4.92-1,.76-.19,1.51-.33,2.21-.53l2-.58c1.29-.34,2.43-.77,3.44-1.1s1.86-.65,2.56-.93l1.61-.61c.19-.03.38-.03.57,0Z"/>
    <path class="st15" d="M335.18,237.56c-.21.03-.43.03-.64,0l-1.8-.23c-1.56-.22-3.83-.49-6.64-.78s-6.16-.55-9.88-.74-7.83-.24-12.13-.15-8.4.36-12.11.69-7.05.75-9.84,1.17-5.05.79-6.6,1.08l-1.79.3c-.21.04-.42.07-.63.08.19-.09.4-.15.61-.18l1.77-.4c1.54-.35,3.79-.78,6.58-1.24s6.13-.91,9.85-1.29,7.83-.63,12.15-.73,8.43,0,12.16.19,7.09.51,9.9.86,5.07.66,6.63.94l1.79.33c.21.02.42.05.62.1Z"/>
  </g>
  <g id="freepik--character-1--inject-3">
    <path class="st1" d="M105.41,100.83c-9,0-16.74,6.35-18.52,15.17-.77,4.44.07,9.27-2,13.28-2.71,5.32-9.82,7.77-11.41,13.53-1.34,4.81,1.82,10,.47,14.83-1,3.48-4.09,5.93-5.61,9.2-1.48,3.23-1.22,7,.69,10,1.99,2.95,5.46,4.55,9,4.13,2.19-.32,4.17-1.43,6.28-2.12,4.55-1.49,9.49-1,14.23-.29s9.61,1.43,14.27.33,9.13-4.55,9.83-9.29c.45-3.07-.71-6.12-1.66-9.08-6.21-19.55-3.34-40.88-7.75-60.91"/>
    <path class="st1" d="M88.05,118.84c-1.19-1.55-2.59-2.93-4.17-4.08-1.6-1.16-3.57-1.67-5.53-1.44-1.98.28-3.6,1.74-4.09,3.68-.36,1.96.94,3.84,2.9,4.2.03,0,.07.01.1.02-1.46-.55-3.09.2-3.64,1.66-.06.15-.1.31-.13.47-.18,1.71.79,3.34,2.38,4,1.58.61,3.34.56,4.89-.13,1.53-.69,2.95-1.58,4.24-2.65l4.54-3.43"/>
    <path class="st10" d="M72.37,175.66c-.28-.07-.54-.19-.78-.35-.69-.48-1.22-1.16-1.51-1.95-.48-1.25-.51-2.62-.09-3.89.61-1.63,1.57-3.11,2.81-4.34,1.5-1.43,2.84-3.01,4-4.72,1.12-2.08,1.39-4.51.75-6.78-.45-2.45-1.45-5-1.43-7.81.01-1.45.44-2.87,1.23-4.09.85-1.21,1.95-2.23,3.21-3,2.5-1.59,5.25-2.45,7.46-4,1.09-.71,2.01-1.64,2.71-2.73.64-1.11,1.07-2.33,1.27-3.6.28-2.36.43-4.73.46-7.11.09-2.09.45-4.17,1.06-6.17.84-2.96,2.67-5.53,5.19-7.3.68-.47,1.43-.84,2.21-1.1.2-.07.4-.13.61-.17h.22c-1.04.35-2.04.84-2.95,1.45-2.43,1.78-4.19,4.33-5,7.24-.58,1.98-.92,4.03-1,6.09,0,2.39-.14,4.78-.42,7.16-.2,1.31-.64,2.57-1.3,3.72-.72,1.2-1.7,2.22-2.86,3-2.29,1.62-5.05,2.49-7.47,4-1.17.72-2.19,1.67-2.99,2.79-.74,1.13-1.14,2.46-1.15,3.81,0,2.69.94,5.22,1.39,7.71.27,1.22.35,2.48.25,3.73-.11,1.19-.48,2.34-1.1,3.36-1.18,1.73-2.55,3.32-4.08,4.75-1.22,1.18-2.18,2.61-2.81,4.18-.43,1.21-.43,2.52,0,3.73.26.77.74,1.44,1.38,1.93.46.34.75.43.73.46Z"/>
    <path class="st10" d="M86.39,125c.44-1.25.74-2.55.88-3.87-.03-1.33-.21-2.65-.54-3.93,1.54,2.41,1.4,5.53-.34,7.8Z"/>
    <path class="st10" d="M91.6,157.48s-.13-.12-.36-.38c-.32-.41-.57-.86-.76-1.34-.6-1.81-.57-3.77.08-5.56.68-2.33,2.47-4.6,4.24-7.13.94-1.3,1.71-2.72,2.28-4.22.54-1.64.82-3.35.82-5.08.06-3.56-.62-6.94-.83-10.06-.3-2.79.04-5.61,1-8.24.66-1.78,1.8-3.33,3.29-4.5.41-.3.85-.57,1.32-.78.16-.08.33-.14.5-.18-.59.34-1.15.71-1.69,1.12-1.41,1.19-2.47,2.74-3.08,4.48-.87,2.59-1.15,5.35-.82,8.07.23,3.08.93,6.46.87,10.1,0,1.78-.29,3.55-.86,5.24-.59,1.54-1.39,2.99-2.37,4.32-1.81,2.54-3.58,4.74-4.28,7-.67,1.72-.75,3.61-.24,5.38.23.62.52,1.21.89,1.76Z"/>
    <path class="st1" d="M65.19,159.55s.1.16.29.46c.3.42.69.76,1.14,1,.72.38,1.53.55,2.34.48,1.07-.09,2.07-.58,2.78-1.39.85-.99,1.4-2.21,1.56-3.51.17-1.5.05-3.02-.36-4.47-.39-1.56-1-3.15-1.44-4.88-.56-1.78-.7-3.67-.41-5.51.4-1.84,1.28-3.53,2.57-4.9,1.17-1.26,2.46-2.39,3.87-3.37,1.31-1,2.62-1.78,3.78-2.63,1.06-.78,2.07-1.63,3-2.56,1.42-1.3,2.48-2.94,3.08-4.76.18-.68.31-1.38.39-2.08.06.72,0,1.44-.19,2.13-.54,1.9-1.57,3.63-3,5-.93.96-1.93,1.85-3,2.65-1.16.87-2.46,1.7-3.75,2.67-1.39.97-2.68,2.08-3.84,3.31-1.21,1.31-2.06,2.92-2.44,4.66-.26,1.77-.13,3.58.39,5.29.45,1.68,1,3.29,1.41,4.89.42,1.51.53,3.09.32,4.65-.18,1.37-.76,2.66-1.68,3.69-.78.85-1.85,1.36-3,1.43-.86.05-1.72-.16-2.46-.6-.48-.26-.86-.66-1.12-1.14-.08-.12-.14-.24-.17-.38-.05-.08-.07-.13-.06-.13Z"/>
    <path class="st1" d="M128.54,110.37c.76,5.16,2.16,10.26,4.39,13.46,1.79,2.56,5.28,4,5.81,7.14.45,2.6-1.11,5.19-.86,7.81.4,4.15,5,6.67,6.26,10.62,1.08,3.29-.41,7-2.92,9.4s-5.87,3.65-9.21,4.55c-4.77,1.29-10.56,1.68-14-1.88-2.35-2.45-2.87-6.07-3.17-9.44-.8-9-.77-18.11-.73-27.17"/>
    <path class="st4" d="M97.35,119.05c-1.07-8.5,4.96-16.26,13.47-17.33.18-.02.36-.04.53-.06,8.28-.79,15.64,5.37,16.88,13.6,1.09,7.21,2,14.49,2,17.13-.1,8-4.77,11.08-6.66,12-.68.24-1.38.42-2.09.52h0s-.05.03-.05.06l1.77,9.15c.8,6-2.54,11.34-8.53,12.22s-10.7-3.73-11.62-9.73l-5.7-37.56Z"/>
    <path class="st1" d="M126.59,118.74c-.13.19-1.18-.38-2.53-.18s-2.24,1-2.41.88,0-.38.42-.76c.53-.49,1.19-.8,1.9-.9.69-.1,1.38.02,2,.34.51.26.69.54.62.62Z"/>
    <path class="st1" d="M114.43,121.12c-.13.19-1.18-.38-2.53-.18s-2.24,1-2.41.88,0-.38.42-.76c.53-.49,1.19-.8,1.9-.9.69-.1,1.38.02,2,.34.5.26.69.5.62.62Z"/>
    <path class="st1" d="M119.48,128.9c.68-.33,1.39-.57,2.13-.72.34-.08.66-.2.68-.44-.02-.37-.15-.72-.38-1-.44-.79-.91-1.61-1.4-2.47-1.27-2.09-2.37-4.27-3.29-6.53.15-.08,1.85,2.72,3.81,6.25l1.36,2.49c.28.38.42.86.38,1.33-.07.26-.25.48-.5.59-.18.08-.37.13-.57.16-.72.21-1.47.33-2.22.34Z"/>
    <path class="st16" d="M121.37,144.93s-5.15,1.18-12.23-1.78c0,0,3,6.58,12.71,4.24l-.48-2.46Z"/>
    <path class="st16" d="M119.38,132.23c-.62-.58-1.49-.8-2.31-.58-.58.13-1.09.49-1.41,1-.31.52-.25,1.17.13,1.63.51.43,1.24.5,1.83.19.6-.32,1.14-.75,1.57-1.28.14-.13.25-.29.33-.46.08-.17.05-.36-.07-.5"/>
    <path class="st1" d="M115.64,130.41c.22,0,.44,1.42,1.84,2.28s2.94.47,3,.67-.31.33-1,.45c-.85.13-1.73-.04-2.47-.48-.72-.43-1.24-1.12-1.45-1.92-.13-.61-.02-.99.08-1Z"/>
    <path class="st1" d="M113.74,117.27c-.08.38-1.46.41-3,.83s-2.77,1-3,.74,0-.52.52-1c1.27-1.09,2.96-1.53,4.6-1.2.57.2.91.44.88.63Z"/>
    <path class="st1" d="M125.45,115c-.19.34-1.17.16-2.29.31s-2,.51-2.3.22c-.11-.14,0-.47.36-.82.51-.41,1.13-.66,1.78-.71.66-.08,1.32.05,1.91.35.45.21.63.51.54.65Z"/>
    <path class="st1" d="M124.24,119.88c-.1.67.34,1.3,1,1.43.65.14,1.29-.26,1.43-.91,0-.01,0-.02,0-.03.1-.67-.34-1.3-1-1.43-.65-.14-1.29.26-1.43.91,0,.01,0,.02,0,.03Z"/>
    <path class="st1" d="M111.9,122.18c-.12.67.33,1.31,1,1.43.65.15,1.29-.25,1.44-.89,0-.01,0-.02,0-.04.1-.67-.34-1.3-1-1.43-.64-.16-1.28.24-1.44.87,0,.02,0,.04-.01.06Z"/>
    <path class="st4" d="M98.22,156.91l30.32-5.91-.86,16.9s-13.49,4.19-14,4.44-9.32,0-9.32,0l-6.14-15.43Z"/>
    <path class="st4" d="M64.62,271.7c-.23.77-.47,1.67-.71,2.76-.2.93-.25,1.89-.12,2.84.1,1.18.36,2.34.79,3.44.49,1-.46,2-1.34,1.59s-2.3-3.1-2.42-6.61-3.46.9-4.7,2.48-5.32,6.3-6.11,6.31c-1.16,0-1.38-1.24-.1-2.79s4.79-6.48,3.92-7.1-7.08,7.54-7.08,7.54c0,0-1,2-2.07,1.28-1.85-1.22,5.4-9.4,6.11-10.16.49-.53-.43-1.23-.93-.63s-6,8.27-7.91,7c-1.46-.95,5.9-6.78,6.16-9s-5.13,5-6.48,4c-.51-.36-.83-.69,2.86-4.39,1.79-1.79,8.68-7.23,8.68-7.23l14-48.85h18.35l-20.9,57.52Z"/>
    <path class="st4" d="M153.79,143.9s26.15-10.4,30.3-13.61,30.25-26.68,30.25-26.68l3.47-2.92c.43-.67.91-1.48,1.44-2.46.45-.84.75-1.75.89-2.69.23-1.17.29-2.36.19-3.54-.15-.59.2-1.19.79-1.34.32-.08.66-.02.93.18.72.68,1.36,3.61.52,7s3.57.09,5.2-1.1,6.84-4.6,7.6-4.38c1.12.31,1,1.56-.67,2.7s-6.38,4.92-5.71,5.75,8.87-5.31,8.87-5.31c0,0,1.54-1.59,2.34-.66,1.45,1.68-7.76,7.56-8.65,8.1-.62.37.07,1.3.71.86s8.05-6.3,9.54-4.6c1.14,1.3-7.53,4.9-8.39,7s6.3-3.4,7.34-2.11c.39.48.61.89-3.95,3.44-2.22,1.23-10.34,4.57-10.34,4.57l-.86.89-34.77,36.01-31.92,12.77-5.12-17.87Z"/>
    <path class="st5" d="M56,418.21l-5.1,23.15-9.33,17.15c-.64,1.18-.21,2.65.97,3.3.05.03.1.05.15.07h0c.71.33,1.54.29,2.22-.1,4.34-2.51,20.26-11.82,20.54-13.53.33-2,7-24.07,7-24.07l-16.45-5.97Z"/>
    <g class="st0">
      <path class="st2" d="M42.69,461.88l23.15-15.19-.24,1c-.21.84-.71,1.58-1.41,2.09-1.88,1.36-7.17,5-19.21,12-.7.41-1.56.44-2.29.09h0Z"/>
    </g>
    <g class="st0">
      <path class="st2" d="M62.93,438.1c-.69.29-1.06,1.05-.85,1.77.26.71,1.03,1.08,1.75.86.73-.31,1.12-1.12.89-1.88-.35-.71-1.2-1.01-1.92-.69"/>
    </g>
    <path class="st1" d="M50.42,453.11c-.38-.86-.91-1.63-1.58-2.29-.76-.54-1.62-.94-2.53-1.16,0-.06.33-.17.89-.11.74.09,1.43.39,2,.87.57.47.99,1.09,1.21,1.79.12.54.07.89.01.9Z"/>
    <path class="st1" d="M48,455.79c-.13.07-.69-.86-1.8-1.49s-2.17-.69-2.17-.85c.83-.27,1.74-.12,2.44.4,1.28.73,1.69,1.9,1.53,1.94Z"/>
    <path class="st1" d="M54.44,449.9c-.81-.9-1.68-1.73-2.62-2.49-1.03-.63-2.11-1.17-3.22-1.63,1.28-.02,2.53.41,3.52,1.22,1.1.66,1.92,1.69,2.32,2.9Z"/>
    <path class="st1" d="M56.59,443c-.1.13-1.24-.72-2.88-1.18s-3.05-.39-3.07-.55c1.04-.36,2.18-.34,3.21.05,1.08.22,2.05.81,2.74,1.68Z"/>
    <path class="st1" d="M58.26,436.23c-.94-.57-1.94-1.01-3-1.31-1.07-.15-2.17-.15-3.24,0,0-.06.29-.29.9-.46.8-.22,1.64-.24,2.45-.07.8.16,1.56.5,2.21,1,.53.46.73.8.68.84Z"/>
    <path class="st1" d="M55.66,433.64c0-.3.05-.6.18-.88.28-.78.7-1.49,1.25-2.11.37-.48.88-.83,1.47-1,.4-.06.79.13,1,.48.17.35.21.75.11,1.13-.5,1.57-2.04,2.56-3.67,2.36-1.59-.23-2.89-1.39-3.3-2.95-.1-.39-.03-.8.21-1.13.28-.3.71-.4,1.09-.26.54.26,1,.66,1.33,1.16.5.66.88,1.39,1.13,2.18.12.28.17.58.16.88-.4-1.02-.95-1.97-1.62-2.83-.31-.42-.71-.77-1.18-1-.21-.09-.45-.04-.6.14-.13.23-.16.5-.09.75.39,1.34,1.52,2.32,2.89,2.53,1.39.15,2.7-.68,3.16-2,.09-.26.09-.53,0-.79-.11-.2-.33-.31-.55-.27-.5.14-.94.42-1.26.82-.74.82-1.32,1.76-1.71,2.79Z"/>
    <path class="st5" d="M128.2,426.74l-.7,18.54s18.61,6.94,18.81,10.38l-36-.07-.09-28.94,17.98.09Z"/>
    <g class="st0">
      <path class="st2" d="M116.37,443.7c-.71.22-1.14.94-1,1.67.2.71.92,1.15,1.65,1,.76-.23,1.22-1,1.07-1.78-.28-.74-1.08-1.12-1.83-.88"/>
    </g>
    <g class="st0">
      <path class="st2" d="M110.31,455.59l.11-2.92,34.47,1.16s1.6.7,1.42,1.83l-36-.07Z"/>
    </g>
    <path class="st1" d="M128.08,445.1c0,.17-.88.25-1.75.81s-1.33,1.3-1.49,1.24.1-1.09,1.16-1.75,2.12-.46,2.08-.3Z"/>
    <path class="st1" d="M131.85,446.67c0,.17-.72.46-1.32,1.21s-.77,1.52-.94,1.52-.29-1,.47-1.92,1.79-.98,1.79-.81Z"/>
    <path class="st1" d="M134,451.19c-.16,0-.4-.84,0-1.8s1.28-1.35,1.35-1.2-.44.66-.8,1.45-.39,1.53-.55,1.55Z"/>
    <path class="st1" d="M127.77,440.85c-.07.16-.88-.08-1.87,0s-1.77.38-1.86.23.65-.78,1.83-.84,1.99.48,1.9.61Z"/>
    <g class="st9">
      <polygon points="128.06 430.41 127.94 433.71 110.24 433.52 110.23 430.54 128.06 430.41"/>
    </g>
    <path class="st1" d="M127.85,437.11c-.59.16-1.22.16-1.81,0-1.03-.2-2.02-.59-2.92-1.14-.2-.11-.38-.25-.54-.42-.23-.26-.26-.64-.08-.94.18-.24.47-.39.77-.4.23,0,.46.03.68.1,1.04.24,2,.75,2.78,1.48.83.77,1.12,1.43,1.06,1.46s-.49-.49-1.34-1.13c-.49-.37-1.03-.68-1.6-.91-.32-.13-.66-.24-1-.32-.38-.1-.7-.1-.8.07s0,.09,0,.2c.12.12.25.23.4.31.32.2.65.39,1,.54.56.28,1.14.51,1.74.68.56.1,1.12.24,1.66.42Z"/>
    <path class="st1" d="M127.62,437.36c-.07,0-.41-.6-.48-1.74-.02-.68.06-1.35.25-2,.12-.38.28-.75.47-1.1.2-.48.64-.83,1.15-.91.33.01.62.21.75.51.09.21.15.43.18.66.06.4.06.81,0,1.21-.1.68-.36,1.32-.77,1.87-.71.93-1.44,1.14-1.46,1.08s.56-.43,1.1-1.33c.31-.51.51-1.09.57-1.69.05-.33.05-.67,0-1,0-.38-.2-.69-.34-.65s-.48.28-.63.59c-.18.32-.33.65-.45,1-.21.58-.32,1.19-.35,1.8-.08,1.02.1,1.68.01,1.7Z"/>
    <path class="st1" d="M93.07,223.18s-11.38,18-13,24.86c-1.47,6.17-26.37,140.25-31.52,168-.53,2.85,1.17,5.64,3.95,6.47l22.5,6.78c3.01.89,6.18-.82,7.07-3.83.04-.15.08-.3.12-.46l27.81-129.86-8.13,128.7c-.23,3.63,2.52,6.76,6.14,6.99.21.01.42.02.64.01l22.06-.68c3.36-.15,6.07-2.8,6.29-6.16,1.92-31,10.54-172,8.81-176.41-1.95-5-7.06-22.26-7.06-22.26l-45.68-2.15Z"/>
    <path class="st10" d="M84.07,418.69c-.46-.01-.93-.07-1.38-.17-.89-.14-2.16-.38-3.72-.7-3.13-.64-7.42-1.65-12.11-3s-8.86-2.82-11.86-3.97c-1.49-.57-2.69-1.05-3.51-1.41-.44-.16-.86-.36-1.26-.59.46.09.9.23,1.33.41l3.57,1.24c3,1.05,7.18,2.44,11.85,3.8s8.94,2.43,12,3.16l3.68.86c.48.08.95.21,1.41.37Z"/>
    <path class="st10" d="M56.15,410.47c-.78-.6-1.3-1.49-1.43-2.47-.3-.93-.23-1.94.18-2.83.16,0,0,1.27.33,2.72s1.04,2.49.92,2.58Z"/>
    <path class="st10" d="M58.92,405.69c.16.89.07,1.82-.27,2.66-.17.89-.61,1.71-1.24,2.36.17-.86.41-1.7.74-2.51.17-.86.43-1.7.77-2.51Z"/>
    <path class="st10" d="M129.58,412.47c.38.73.6,1.52.64,2.34.22.79.27,1.62.13,2.43-.59-1.52-.85-3.14-.77-4.77Z"/>
    <path class="st10" d="M132.27,411.21c.31,1.65.29,3.35-.07,5-.25-.81-.33-1.67-.23-2.52-.07-.84.03-1.68.3-2.48Z"/>
    <path class="st10" d="M119.86,229.45c.03.24.03.47,0,.71,0,.51,0,1.19-.07,2-.07,1.76-.23,4.3-.45,7.44-.46,6.28-1.32,14.95-2.72,24.45-1.4,9.5-3,18.06-4.32,24.22-.64,3.08-1.18,5.57-1.58,7.29-.19.81-.35,1.47-.46,2-.05.23-.11.46-.2.68,0-.24.03-.47.09-.7.1-.51.22-1.17.37-2,.35-1.78.83-4.27,1.42-7.31,1.19-6.18,2.77-14.73,4.17-24.22s2.31-18.14,2.86-24.41c.25-3.09.46-5.61.62-7.42.07-.83.12-1.51.17-2,.01-.25.05-.49.1-.73Z"/>
    <path class="st10" d="M140,229.43c-.16.05-.33.07-.5.06l-1.45.07c-1.25.05-3.07.1-5.32.14-4.49.07-10.7.07-17.56-.12s-13.06-.54-17.54-.86c-2.25-.17-4.06-.31-5.31-.44l-1.44-.15c-.17,0-.34-.04-.5-.09.17-.02.34-.02.51,0l1.45.06,5.31.27c4.48.23,10.68.51,17.53.71s13.06.25,17.55.27h6.77c.17,0,.34.03.5.08Z"/>
    <path class="st10" d="M123.69,229.21c.04.57.04,1.13,0,1.7,0,1.18-.09,2.74-.15,4.63-.15,3.91-.39,9.3-.7,15.26-.16,3-.27,5.82-.47,8.41-.11,2.32-.7,4.6-1.75,6.68-.74,1.39-1.85,2.55-3.2,3.37-.37.21-.76.39-1.16.52-.14.05-.29.08-.44.09,0-.06.59-.19,1.49-.78,1.27-.85,2.3-2.02,3-3.38.97-2.05,1.51-4.27,1.59-6.54.17-2.57.27-5.42.43-8.39.31-6,.61-11.36.85-15.26.13-1.88.24-3.44.32-4.62.02-.57.08-1.13.19-1.69Z"/>
    <path class="st10" d="M98,240.31c.06.38.06.78,0,1.16-.09,1.05-.28,2.09-.56,3.11-1.88,6.93-7.52,12.2-14.56,13.6-1.03.21-2.08.33-3.14.34-.39.03-.78,0-1.16-.08,1.42-.13,2.83-.34,4.22-.62,6.82-1.55,12.28-6.65,14.29-13.35.37-1.37.68-2.76.91-4.16Z"/>
    <path class="st10" d="M145.7,259.13s-.29,0-.79-.2c-.69-.23-1.36-.53-2-.88-.97-.52-1.88-1.13-2.73-1.83-1.03-.86-1.98-1.83-2.81-2.89-.81-1.08-1.51-2.24-2.08-3.46-.46-1-.81-2.04-1.06-3.11-.18-.72-.29-1.44-.34-2.18-.04-.27-.04-.55,0-.82.1,0,.18,1.14.68,2.91.3,1.03.68,2.04,1.15,3,.58,1.18,1.27,2.3,2.06,3.34.81,1.03,1.71,1.99,2.7,2.85.81.69,1.68,1.32,2.6,1.87,1.56.93,2.65,1.27,2.62,1.4Z"/>
    <path class="st10" d="M105.66,243.58v.45c0,.29-.1.76-.17,1.32-.16,1.17-.39,2.86-.69,5-.6,4.37-1.55,10.69-2.78,18.49-2.45,15.59-6.2,37.08-11,60.67s-10.02,44.85-13.92,60.15c-1.95,7.64-3.58,13.82-4.76,18.07-.58,2.11-1,3.76-1.35,4.9l-.37,1.27c-.04.15-.08.29-.14.43,0,0,0-.15.09-.44s.18-.74.32-1.29c.29-1.15.71-2.8,1.26-4.92,1.11-4.27,2.69-10.46,4.59-18.11,3.81-15.32,8.81-36.54,13.68-60.13s8.65-45.06,11.2-60.63c1.28-7.79,2.27-14.1,2.94-18.46.34-2.16.6-3.85.79-5l.21-1.3c.06-.32.1-.47.1-.47Z"/>
    <path class="st10" d="M124,418.56c0-.14,0-.28,0-.42,0-.31.06-.72.09-1.24.1-1.12.23-2.72.41-4.78.37-4.16.91-10.15,1.57-17.53,1.32-14.81,3.39-35.25,4.95-57.87.77-11.32,1.29-22.11,1.51-31.94s.16-18.67,0-26.1-.57-13.43-.86-17.58c-.15-2.05-.26-3.65-.35-4.77,0-.53-.05-.94-.07-1.24-.02-.14-.02-.29,0-.43.03.14.05.28.06.42,0,.3.07.71.13,1.24.1,1.12.25,2.72.44,4.77.36,4.14.75,10.15,1,17.58s.35,16.29.14,26.12-.7,20.64-1.47,32c-1.56,22.64-3.69,43.07-5.1,57.87-.74,7.38-1.33,13.36-1.74,17.52-.22,2.05-.38,3.65-.5,4.77-.06.52-.11.93-.14,1.23-.01.13-.04.26-.07.38Z"/>
    <path class="st10" d="M137.61,416.23c0,.15-7.9,1.14-17.69,2.21s-17.74,1.84-17.76,1.7,7.91-1.14,17.7-2.21,17.74-1.84,17.75-1.7Z"/>
    <path class="st1" d="M107.88,105.47c-3,3.6-3.83,8.54-2.17,12.92,1.13,2.88,3.34,5.52,3.15,8.61-.23,3.83-4.14,6.82-3.92,10.65.24,4.32,5.76,7,5.76,11.36s-2.66,6.06-7.79,7c-3.29.6-5.12-3.47-6.75-6.39s-2.16-6.32-2.5-9.62c-.55-5.52-.64-11.08-.25-16.61.3-4.47,1-9.06,3.29-12.89,2.44-3.97,6.43-6.75,11-7.65"/>
    <path class="st1" d="M129.75,113.47c-1.65,2.52-6.88,1-10-.77-3.43,2.18-7.98,1.25-10.27-2.12-1.81,2.3-5.48,1.54-6.82-1s-.59-6.17,1.25-8.45c1.86-2.12,4.41-3.5,7.19-3.91,6.54-1.26,13.2,1.5,16.94,7,1.74,2.63,2.79,6.17,1.75,9.32"/>
    <path class="st10" d="M129.8,113c-.09.06-1-1.57-3-3.79-2.52-2.92-5.81-5.07-9.5-6.22-3.71-1.07-7.68-.76-11.19.86-1.42.73-2.7,1.7-3.78,2.87,0,0,0-.11.17-.29.18-.27.38-.52.61-.75.81-.88,1.77-1.61,2.83-2.15,3.57-1.77,7.68-2.12,11.5-1,2.08.61,4.04,1.59,5.79,2.87,1.42,1.05,2.71,2.26,3.85,3.61.76.9,1.45,1.87,2.06,2.88.26.34.48.72.66,1.11Z"/>
    <path class="st10" d="M114.27,114c-.08,0-.28-.89-.9-2.22-.78-1.75-2.02-3.25-3.59-4.34-1.59-1.05-3.51-1.5-5.4-1.26-.78.15-1.55.36-2.29.63,0,0,.16-.18.53-.39.53-.29,1.1-.5,1.7-.61,2-.36,4.06.07,5.75,1.19,1.65,1.14,2.91,2.76,3.63,4.63.35.74.54,1.55.57,2.37Z"/>
    <path class="st5" d="M98.22,156.91s-13.5,3.85-18.55,12.17-20.67,66.92-20.67,66.92l17.86,2,14.86-39,3.67,12.19-2.34,12,45.72,2.14,3.23-52.55,48.83-23.78,5.5-5.7-14.2-15-5.42,5.06-49,17.95s1.82,14.48-11.39,16.58-18.1-10.98-18.1-10.98Z"/>
    <path class="st1" d="M86.67,181.69c.14,0,2.18,6.38,4.57,14.35s4.2,14.45,4.06,14.5-2.18-6.39-4.56-14.35-4.21-14.46-4.07-14.5Z"/>
    <path class="st1" d="M150.74,161.29c-2.03,1.57-3.88,3.38-5.5,5.37-1.48,2.11-2.7,4.38-3.65,6.77.06-.77.26-1.52.57-2.22,1.3-3.5,3.6-6.54,6.6-8.76.59-.49,1.26-.88,1.98-1.16Z"/>
    <g class="st3">
      <path d="M87.53,184.45c-1.05,4.93-1.57,9.96-1.55,15-.04,1.25.1,2.5.43,3.7.33,1.22,1.13,2.25,2.23,2.87,1.35-1.94,2.75-4,3-6.36.04-1.65-.22-3.3-.77-4.86-1.03-3.62-2.06-7.24-3.1-10.86"/>
    </g>
    <path class="st1" d="M99.5,154.08c2.42,1.69,3.23,4.94,3.12,7.88s-1,5.82-1.11,8.77.61,6.19,3,7.94l11.62-3.94c-2.29-1.31-2.77-4.45-2.27-7s1.71-5,1.84-7.66c.37-6.91-4.6-12.81-6.92-15.62"/>
  </g>
  <g id="freepik--character-2--inject-3">
    <polygon class="st5" points="147.21 430.32 142.71 456.06 164.97 456.06 167.43 431.72 147.21 430.32"/>
    <path class="st1" d="M165.42,454c-1.07.18-2.16.24-3.24.19-2,0-4.77,0-7.82-.15l-7.81-.33c-1.09.01-2.17-.07-3.24-.26,1.07-.17,2.16-.22,3.25-.17,2,0,4.77,0,7.82.15l7.81.32c1.08-.01,2.16.07,3.23.25Z"/>
    <g class="st0">
      <polyline class="st2" points="142.71 456.06 164.97 456.06 165.18 453.95 143.11 453.4 142.71 455.81"/>
    </g>
    <path class="st1" d="M153.58,453.94c.23-3.29.63-6.57,1.22-9.82.4-3.27.98-6.52,1.73-9.73-.23,3.29-.64,6.56-1.22,9.81-.41,3.27-.99,6.52-1.73,9.74Z"/>
    <path class="st1" d="M164.19,453.9c.22-1.57.09-3.16-.38-4.67-.54-1.62-1.51-3.05-2.81-4.15-1.62-1.31-3.65-2.02-5.73-2-2.08-.03-4.12.63-5.79,1.88-1.35,1.05-2.42,2.43-3.1,4-.62,1.46-.95,3.02-1,4.61,0,0,0-.11-.07-.33-.03-.33-.03-.67,0-1,.04-1.19.29-2.36.74-3.46.67-1.65,1.76-3.09,3.15-4.2,1.75-1.33,3.89-2.04,6.09-2,4.1-.05,7.74,2.65,8.88,6.59.35,1.14.46,2.34.33,3.52-.03.32-.09.64-.18.95-.07.16-.11.27-.13.26Z"/>
    <path class="st5" d="M242.94,423.13l5.41,17.74s19.86.46,21.18,3.64l-34,11.73-9.57-27.3,16.98-5.81Z"/>
    <g class="st0">
      <path class="st2" d="M237.32,443c-.6.44-.78,1.26-.41,1.91.41.63,1.25.82,1.89.43.63-.46.81-1.32.43-2-.5-.6-1.38-.7-2-.23"/>
    </g>
    <g class="st0">
      <path class="st2" d="M235.5,456.24l-.86-2.79,32.95-10.2s1.74.14,1.94,1.26l-34.03,11.73Z"/>
    </g>
    <path class="st1" d="M248.85,440.51c.05.17-.76.53-1.39,1.35s-.83,1.66-1,1.65-.26-1.06.52-2,1.85-1.17,1.87-1Z"/>
    <path class="st1" d="M252.92,440.75c.1.15-.52.68-.85,1.58s-.23,1.7-.39,1.75-.6-.86-.18-2,1.37-1.48,1.42-1.33Z"/>
    <path class="st1" d="M256.42,444.33c-.13.09-.65-.66-.54-1.72s.77-1.69.88-1.58-.19.77-.27,1.64.09,1.58-.07,1.66Z"/>
    <path class="st1" d="M247.16,436.6c0,.18-.86.21-1.77.6s-1.55.93-1.69.82.37-.95,1.45-1.39,2.05-.19,2.01-.03Z"/>
    <g class="st9">
      <polygon points="244.01 426.64 244.98 429.8 228.2 435.42 227.21 432.61 244.01 426.64"/>
    </g>
    <path class="st1" d="M246,433c-.51.34-1.1.54-1.71.58-.66.1-1.33.13-2,.07-.39-.04-.78-.1-1.16-.18-.23-.05-.45-.12-.66-.23-.31-.17-.46-.52-.38-.86.09-.29.31-.52.6-.63.22-.07.44-.12.67-.13.4-.04.79-.04,1.19,0,.66.06,1.31.22,1.92.49,1,.46,1.53,1,1.48,1s-.62-.31-1.63-.64c-.59-.18-1.2-.3-1.81-.33-.36-.03-.73-.03-1.09,0-.39,0-.7.13-.73.32s0,.1.1.18c.15.08.31.13.48.16.37.09.73.16,1.08.21.62.08,1.24.1,1.86.06.59-.06,1.19-.09,1.79-.07Z"/>
    <path class="st1" d="M245.87,433.35c-.05,0-.58-.43-1-1.49-.25-.62-.38-1.27-.41-1.94-.01-.4.01-.8.08-1.19.03-.52.33-.99.79-1.23.31-.1.66-.01.88.23.15.17.29.36.39.56.5.98.6,2.11.27,3.16-.36,1.11-1,1.55-1,1.5.23-.52.43-1.06.6-1.61.13-.59.13-1.2,0-1.79-.07-.35-.19-.69-.37-1-.18-.34-.41-.59-.54-.51s-.36.43-.4.77c-.07.35-.1.71-.1,1.07,0,.61.09,1.22.25,1.81.25,1.05.69,1.61.56,1.66Z"/>
    <path class="st6" d="M143.14,198.81l-6.41,13.19c-2.9,5.97-1.85,13.11,2.64,18h0c3.49,3.79,8.59,5.69,13.71,5.11l24.92-2.84v-14.82l-24.52.71,6.13-10.79-16.47-8.56Z"/>
    <path class="st1" d="M174.71,151.9c-4.11-6.94-5.29-16.19-6.33-24.19-.49-3.77-1.35-9.13,1.3-11.49,2.84-2.52,3.11-6.41,6.37-8.36s7.68-2.11,10.76.12"/>
    <path class="st6" d="M186.09,176.5h0c6.13.48,11.5-4.1,11.98-10.24.01-.14.02-.28.02-.41.25-6.06.47-12.19.47-12.19,0,0,9.2-.84,9.89-9.93s.45-30.1.45-30.1h0c-10.24-5.18-22.48-4.41-32,2l.48,32-.06,17.23c.03,5.75,3.02,11.14,8.77,11.64Z"/>
    <path class="st1" d="M199.44,132.6c-1.57-1.95-4.11-2.74-6.21-1.38-2.13,1.47-2.88,4.27-1.78,6.61.95,1.7,2.56,2.92,4.45,3.38,1.73.39,2.9,2.01,2.72,3.77-.27,2.29-4.07,3.13-5.79,5-2.67,2.93-8.53,4.16-12.47,4.61s-3.41.48-5.65-2.71c-1.51-2.16-2.28-4.75-2.19-7.39l-.36-20.12c-.14-2.42.02-4.84.48-7.22.47-2.41,1.83-4.55,3.82-6,2.22-1.45,5-1.56,7.55-2.37,3.15-1,5.83-3.09,8.78-4.59s6.57-2.39,9.53-.9c2.12,1.07,3.54,3.2,5.6,4.38,2.93,1.68,6.94,1.31,8.35,5.64.48,1.51.46,3.13-.06,4.63-2,5.88-9.31,8.23-14.55,5.67-.1,1,.87,3.22-.19,6.36-.34,1-.46,2.54-2,2.57"/>
    <path class="st14" d="M197.79,138.27s0,.17-.12.39c-.24.31-.61.49-1,.51-1.33-.08-2.36-1.19-2.35-2.52-.05-.71.2-1.4.68-1.92.38-.41.87-.7,1.42-.82.94-.19,1.48.15,1.44.21s-.56,0-1.31.23c-.98.32-1.62,1.24-1.58,2.27,0,1.01.72,1.89,1.71,2.09.74.04,1.05-.5,1.11-.44Z"/>
    <path class="st1" d="M175.41,117.42c5.39-2.34,7.87-8.62,5.52-14.01-2.34-5.39-8.62-7.87-14.01-5.52-4.77,2.07-7.35,7.29-6.09,12.34.23.61.23,1.27,0,1.88-.39.67-1.3.76-2,1-2.57,1-2.92,4.89-1,6.9s5,2.29,7.68,1.58c-.65,2.33,1.45,4.83,3.86,5.11,2.48.13,4.82-1.12,6.1-3.24,1.23-2.1,1.94-4.47,2.07-6.91"/>
    <path class="st13" d="M181.58,106.36c.05.3.05.62,0,.92-.04.85-.16,1.69-.36,2.52-1.31,5.59-5.65,9.96-11.22,11.33-.82.2-1.66.32-2.51.36-.31.06-.62.06-.93,0,0-.09,1.32-.11,3.35-.68,5.36-1.5,9.54-5.7,11-11.07.56-2.06.57-3.39.67-3.38Z"/>
    <path class="st10" d="M171.5,97.93s.09-.06.27-.1c.27-.07.55-.1.83-.09,1.05.05,2.05.43,2.87,1.09.57.45,1.05.99,1.43,1.6.43.71.72,1.49.88,2.3.32,1.84.24,3.74-.22,5.55-.73,3.28-2.19,6.36-4.27,9-.61.8-1.28,1.55-2,2.24-.25.28-.55.51-.87.7-.07-.07,1.13-1.12,2.63-3.16,1.95-2.67,3.33-5.71,4.05-8.94.45-1.74.54-3.56.26-5.34-.14-.76-.4-1.5-.78-2.18-.34-.58-.78-1.1-1.29-1.53-.77-.62-1.71-.99-2.7-1.07-.69-.12-1.09,0-1.09-.07Z"/>
    <path class="st10" d="M160.42,112.44s.08-.27.33-.68c.36-.58.79-1.12,1.27-1.61,3.29-3.36,8.4-4.17,12.57-2,.61.31,1.18.69,1.71,1.12.37.31.54.51.52.54s-.85-.64-2.39-1.33c-4.08-1.88-8.9-1.09-12.16,2-1.27,1.08-1.77,2.01-1.85,1.96Z"/>
    <path class="st10" d="M178.32,116c.05-.06,1.2.87,3.18,2.2,2.57,1.74,5.3,3.23,8.15,4.46,1.56.68,3.16,1.28,4.79,1.79,1.29.47,2.63.76,4,.87.92.04,1.84-.19,2.63-.66.55-.34.77-.65.81-.62s-.15.37-.7.79c-.8.57-1.76.87-2.74.86-1.42-.05-2.83-.32-4.18-.79-4.66-1.38-9.06-3.54-13-6.39-1-.71-1.72-1.33-2.23-1.77-.27-.22-.51-.46-.71-.74Z"/>
    <path class="st1" d="M175.58,104.5c-.1-.42-.13-.84-.1-1.27,0-1.16.22-2.32.63-3.41.6-1.67,1.83-3.04,3.42-3.82.95-.48,2.01-.67,3.07-.55,1.14.14,2.19.67,3,1.48.8.79,1.39,1.78,1.7,2.87.27,1,.34,2.05.22,3.08-.23,1.72-.82,3.37-1.74,4.85-.61.98-1.27,1.93-2,2.83-.24.36-.52.7-.84,1,.19-.38.42-.74.68-1.08.45-.67,1.13-1.63,1.83-2.89.84-1.45,1.38-3.06,1.59-4.72.1-.97.02-1.95-.24-2.89-.3-1-.84-1.9-1.57-2.64-.73-.73-1.68-1.2-2.7-1.35-.96-.11-1.92.06-2.79.48-1.5.72-2.68,1.98-3.29,3.53-.42,1.05-.68,2.16-.77,3.29-.01.4-.05.81-.1,1.21Z"/>
    <path class="st6" d="M279.36,83.45c-1.48-.75-5.75,7.19-5.82,5s6.34-9.09,4.76-9.81c-2.06-.94-6.37,7.45-6.78,8.13s-1.42.11-1-.49c.59-.86,6.55-10,4.54-11-1.12-.52-1.86,1.57-1.86,1.57,0,0-4.95,9-5.89,8.5s1.78-5.85,2.83-7.59.63-2.92-.51-2.75c-.78.12-4.12,5.39-5.11,7.14s-3.64,6.6-4.28,3.15-2.44-5.86-3.37-6.18c-.6-.12-1.19.26-1.31.86-.07.32.01.65.21.91.58,1.03,1.02,2.14,1.3,3.29.26.92.36,1.88.3,2.83-.08,1.1-.19,2-.3,2.83l-1.95,4.09s-14.12,32.15-16.53,36.79-22,24.92-22,24.92l4.13,23.73,31.75-34.37,16.77-47.2.41-1.17s6-6.39,7.52-8.43c3.11-4.2,2.74-4.47,2.19-4.75Z"/>
    <path class="st10" d="M162.11,242.62s-10,22.6-12.14,45l-10.57,143.67,35.27,3.71,10.33-148.93s32.36,150.27,33.63,150.27,28.39-10.1,28.39-10.1l-31.9-182.89-53.01-.73Z"/>
    <path class="st1" d="M200,289.73c0,.17-7.19-1.43-16-3.57s-15.86-4-15.81-4.19,7.18,1.42,16,3.56,15.81,4.02,15.81,4.2Z"/>
    <path class="st15" d="M176.73,403.9s-.12,0-.37.07c-.35.05-.71.09-1.07.1-1.32.05-2.64-.04-3.94-.24-1.93-.32-3.83-.78-5.69-1.38-2.1-.66-4.37-1.49-6.76-2.28-2.24-.75-4.55-1.3-6.89-1.65-1.91-.26-3.84-.26-5.75,0-1.76.29-3.46.83-5.06,1.61.09-.09.19-.16.3-.22.3-.2.61-.38.93-.54,1.19-.59,2.46-1,3.77-1.21,1.94-.31,3.92-.33,5.87-.07,2.38.32,4.72.87,7,1.64l6.75,2.31c1.83.62,3.7,1.11,5.6,1.47,1.76.27,3.53.4,5.31.39Z"/>
    <path class="st15" d="M176.87,391.78c-.48.03-.96.03-1.44,0-1.3-.04-2.61,0-3.91.11-3.3.24-7.75,1.31-12.72,2.34-2.35.48-4.73.79-7.12.91-1.96.1-3.92-.03-5.85-.39-1.3-.25-2.56-.66-3.77-1.2-.33-.15-.64-.32-.95-.5-.11-.05-.22-.12-.31-.21,1.64.69,3.35,1.2,5.1,1.54,3.24.61,7.85.36,12.8-.66s9.45-2.05,12.8-2.19c1.31-.09,2.63-.07,3.94.05.48,0,.96.08,1.43.2Z"/>
    <path class="st15" d="M239.76,377.75c-.05.12-.11.22-.19.32-.21.29-.44.57-.7.82-.97.91-2.13,1.6-3.4,2-1.88.59-3.85.8-5.81.61-2.2-.16-4.56-.69-7-1.1-2.31-.41-4.67-.48-7-.19-1.9.25-3.76.74-5.53,1.47-1.62.71-3.19,1.54-4.69,2.48,0,0,.08-.1.26-.26s.47-.38.85-.64c1.07-.76,2.22-1.4,3.43-1.92,1.79-.79,3.68-1.33,5.62-1.6,2.37-.33,4.78-.28,7.14.15,2.5.41,4.83.95,7,1.13,1.9.21,3.82.04,5.66-.48,1.24-.36,2.38-.97,3.37-1.79.65-.61.95-1.03.99-1Z"/>
    <path class="st15" d="M245.09,404.23c-.27.4-.58.77-.93,1.1-.9.96-1.88,1.83-2.93,2.62-3.48,2.63-7.54,4.4-11.83,5.17-4.29.75-8.7.51-12.89-.7-1.26-.36-2.5-.82-3.69-1.38-.45-.18-.87-.42-1.26-.7.46.14.91.31,1.34.51,1.21.48,2.44.89,3.7,1.22,4.15,1.09,8.48,1.27,12.71.53,4.22-.77,8.21-2.45,11.7-4.94,2.67-1.93,3.99-3.51,4.08-3.43Z"/>
    <path class="st15" d="M236.34,366.72h-1.39c-1.26.06-2.5.35-3.66.85-1.71.76-3.31,1.75-4.75,2.95-1.66,1.33-3.38,2.95-5.42,4.39-1.91,1.4-4.13,2.32-6.47,2.66-1.89.26-3.82.26-5.71,0-1.61-.2-2.9-.47-3.78-.66-.47-.08-.92-.19-1.37-.35.47,0,.94.06,1.4.16.9.12,2.19.33,3.79.48,1.86.21,3.74.18,5.6-.08,2.26-.36,4.41-1.26,6.25-2.62,2-1.41,3.72-3,5.41-4.33,1.49-1.21,3.14-2.2,4.92-2.92,1.2-.49,2.49-.73,3.79-.71.34.01.67.05,1,.12.13,0,.26.02.39.06Z"/>
    <path class="st15" d="M179.87,361s-.1.09-.32.22c-.32.19-.66.36-1,.5-1.25.54-2.58.87-3.94,1-2,.19-4.02.1-6-.27-2.41-.45-4.79-1.05-7.13-1.81-2.31-.75-4.67-1.37-7.05-1.85-1.94-.39-3.92-.53-5.9-.41-1.82.17-3.6.62-5.28,1.33.1-.09.21-.16.33-.21.32-.19.65-.36,1-.5,1.25-.53,2.58-.87,3.94-1,2-.18,4.02-.08,6,.3,2.41.46,4.79,1.07,7.13,1.82,2.3.75,4.63,1.36,7,1.84,1.94.38,3.93.51,5.9.38,1.83-.17,3.63-.62,5.32-1.34Z"/>
    <path class="st15" d="M231.62,336.41s0,.14-.1.38c-.12.34-.26.68-.43,1-.64,1.22-1.49,2.31-2.52,3.22-1.52,1.35-3.28,2.41-5.18,3.14-2.33.85-4.75,1.41-7.21,1.69-2.6.34-5.08.56-7.31.9-1.98.23-3.94.58-5.88,1.05-1.29.37-2.49.99-3.53,1.83-.36.35-.74.69-1.13,1,.06-.11.14-.22.23-.31.24-.28.5-.55.77-.8,1.02-.91,2.23-1.6,3.54-2,1.95-.54,3.93-.93,5.93-1.17,2.24-.38,4.73-.6,7.31-1,2.42-.28,4.81-.82,7.11-1.62,1.86-.7,3.59-1.71,5.11-3,1.38-1.2,2.5-2.67,3.29-4.31Z"/>
    <path class="st15" d="M145.44,333.52c1.55,1.01,3.23,1.8,5,2.34,1.93.55,3.94.73,5.94.52,2.43-.33,4.78-1.14,6.9-2.37,2.31-1.24,4.44-2.6,6.56-3.54,1.86-.87,3.88-1.38,5.93-1.49,1.39-.08,2.79.16,4.07.71.35.15.69.34,1,.56.12.06.22.14.31.24,0,.05-.47-.26-1.36-.61-1.28-.46-2.64-.65-4-.54-2,.16-3.95.69-5.75,1.56-2.06,1-4.18,2.32-6.52,3.57-2.18,1.27-4.6,2.08-7.1,2.38-2.05.2-4.12-.02-6.08-.63-1.32-.4-2.58-1-3.73-1.76-.32-.2-.62-.43-.9-.67-.19-.17-.28-.26-.27-.27Z"/>
    <path class="st15" d="M225.94,307.23c-.22.45-.48.87-.78,1.26-.81,1.08-1.71,2.08-2.7,3-3.32,3.03-7.46,5.03-11.91,5.74-2.44.31-4.9.31-7.34,0-1.96-.22-3.94-.2-5.9.06-1.31.2-2.57.64-3.71,1.32-.8.5-1.17.88-1.2.85s.07-.12.24-.3c.27-.26.55-.5.85-.72,1.13-.76,2.41-1.27,3.75-1.51,1.98-.33,4-.39,6-.18,2.4.27,4.83.24,7.23-.08,4.35-.7,8.42-2.6,11.75-5.5,1.34-1.22,2.58-2.54,3.72-3.94Z"/>
    <path class="st15" d="M181.32,304.72c-1.64-.55-3.34-.89-5.07-1-1.87-.05-3.72.25-5.48.89-1,.35-2,.91-3.05,1.35-.57.24-1.17.4-1.78.47-.64.06-1.29-.03-1.9-.25-1.12-.49-2.18-1.09-3.16-1.81-.94-.58-1.95-1.05-3-1.39-1.77-.59-3.64-.84-5.5-.73-1.71.15-3.39.52-5,1.11,0,0,.1-.08.31-.19.32-.17.66-.31,1-.43,1.2-.46,2.47-.75,3.75-.86,1.91-.16,3.84.06,5.67.64,1.08.34,2.12.82,3.09,1.42.96.68,1.98,1.27,3.06,1.75,1.09.36,2.28.29,3.32-.2,1.05-.42,2-1,3.08-1.33,1.81-.64,3.73-.91,5.65-.81,1.29.07,2.56.32,3.78.74.34.11.68.25,1,.4.13.15.24.21.23.23Z"/>
    <path class="st15" d="M225.94,301.13c-.32.4-.69.76-1.08,1.09-1.01.96-2.09,1.86-3.22,2.68-.72.51-1.5,1.1-2.4,1.62-.45.27-.9.57-1.38.84l-1.52.79c-2.29,1.13-4.69,2-7.17,2.61-2.49.57-5.03.86-7.58.86l-1.71-.05c-.56,0-1.09-.1-1.61-.14-1.05-.07-2-.28-2.87-.42-1.37-.24-2.73-.58-4.06-1-.49-.14-.97-.32-1.44-.54,0-.11,2.1.63,5.56,1.22.87.12,1.82.3,2.85.35.51,0,1,.1,1.59.11h1.69c2.51-.03,5.01-.32,7.46-.88,2.44-.6,4.81-1.45,7.07-2.54l1.51-.76c.49-.26.94-.55,1.39-.81.9-.49,1.67-1.07,2.41-1.55,1.43-1,2.56-1.88,3.3-2.53.38-.35.78-.67,1.21-.95Z"/>
    <path class="st15" d="M219.87,272.51c-.2.16-.42.29-.65.4l-1.92,1c-1.68.87-4.11,2.14-7.24,3.46-3.65,1.6-7.51,2.67-11.47,3.18-2.35.26-4.72.22-7.06-.12-2.49-.44-4.94-1.11-7.31-2-4.87-1.77-9.33-3.88-13.65-5-3.81-1.01-7.78-1.32-11.7-.92-2.65.27-5.26.84-7.77,1.72-.89.32-1.57.58-2,.77-.23.11-.47.2-.72.27.2-.11.41-.2.62-.27.44-.23,1.12-.52,2-.87,2.51-.96,5.13-1.6,7.8-1.9,3.97-.45,8-.18,11.87.82,4.37,1.11,8.86,3.21,13.69,5,2.34.87,4.76,1.52,7.22,1.95,2.29.35,4.62.4,6.93.16,3.92-.49,7.75-1.51,11.38-3.05,3.13-1.27,5.58-2.48,7.29-3.3l2-.95c.22-.13.45-.25.69-.35Z"/>
    <path class="st15" d="M217.79,257.6c-.55-.66-1.18-1.25-1.88-1.75-2.01-1.23-4.34-1.84-6.7-1.76-1.62,0-3.22.28-4.74.83-1.65.59-3.37,1.34-5.17,2.16-3.86,1.95-7.91,3.48-12.09,4.58-10.02,2.48-20.59,1.52-30-2.73-.77-.36-1.34-.66-1.74-.86-.21-.09-.4-.21-.58-.34.22.06.43.14.63.24l1.77.78c2.18.9,4.43,1.65,6.71,2.25,3.39.86,6.87,1.35,10.37,1.46,4.28.15,8.57-.29,12.73-1.3,4.14-1.09,8.16-2.6,12-4.5,1.81-.81,3.55-1.56,5.23-2.13,1.57-.56,3.22-.83,4.88-.8,2.42-.04,4.79.66,6.81,2,.53.38,1,.84,1.4,1.35.14.16.26.34.37.52Z"/>
    <path class="st5" d="M237.93,164.76l-14.06-18.48-.62.45-22.43,14.12-23.94.83s-16.79,0-23.09,13.23c-.69,1.45-14.48,29-14.48,29l21.29,7.81,3.45-9.84,4.4,22.32-6.34,18.4,53.36,2.86-4.47-26.72,4-32,22.93-21.98Z"/>
    <path class="st1" d="M200.78,207.85c.07.51.07,1.03,0,1.54-.13,1.4-.47,2.78-1,4.08-1.83,4.33-5.14,7.88-9.34,10-4.19,2.02-8.83,2.95-13.48,2.7-1.4-.05-2.79-.19-4.17-.43-.51-.05-1.01-.17-1.49-.35,0-.12,2.17.29,5.67.32,4.55.11,9.06-.85,13.17-2.82,4.07-2.05,7.32-5.43,9.22-9.57.69-1.76,1.17-3.6,1.42-5.47Z"/>
    <path class="st1" d="M168.66,225.23c-.18,0-2.74-11.55-5.72-25.87s-5.26-26-5.08-26,2.73,11.55,5.72,25.87,5.26,25.96,5.08,26Z"/>
    <g class="st3">
      <path d="M175.24,226.15c-.58-2.1,1.06-4.25,3-5.19s4.21-1.06,6.33-1.56c4.14-.98,7.79-3.41,10.29-6.85.33-.47.73-1,1.3-1,.57.02,1.06.44,1.17,1,.2.65.23,1.34.1,2-1,5.12-5.13,7.26-9.36,9.53s-7.62,2.49-12.86,2.07"/>
    </g>
  </g>
  <g>
    <path class="st2" d="M321.21,184.81l-3.77-3.7,3.77-3.71,3.55,3.49c.12.12.13.32,0,.44,0,0,0,0,0,0l-3.55,3.47Z"/>
    <polygon class="st2" points="319.33 182.95 317.44 181.1 319.33 179.25 321.21 181.1 319.33 182.95"/>
    <path class="st2" d="M323.1,182.95l1.66-1.63c.12-.12.13-.32,0-.44,0,0,0,0,0,0l-1.66-1.63-1.89,1.86,1.89,1.85Z"/>
    <path class="st2" d="M311.2,184.81l3.77-3.7-3.77-3.71-3.54,3.49c-.12.12-.13.32-.01.44,0,0,0,0,.01.01l3.54,3.47Z"/>
    <polygon class="st2" points="313.08 182.95 314.97 181.1 313.08 179.25 311.2 181.1 313.08 182.95"/>
    <path class="st2" d="M309.31,182.95l-1.66-1.63c-.12-.12-.13-.32-.01-.44,0,0,0,0,.01-.01l1.66-1.63,1.89,1.86-1.89,1.85Z"/>
    <path class="st2" d="M319.91,186.11l-3.7-3.77-3.71,3.77,3.48,3.55c.12.12.32.13.44,0,0,0,0,0,0,0l3.48-3.55Z"/>
    <polygon class="st2" points="318.06 184.22 316.21 182.34 314.35 184.22 316.21 186.11 318.06 184.22"/>
    <path class="st2" d="M318.06,187.99l-1.63,1.66c-.12.12-.32.13-.44,0,0,0,0,0,0,0l-1.63-1.66,1.86-1.89,1.85,1.89Z"/>
    <path class="st2" d="M312.5,176.09l3.71,3.77,3.7-3.77-3.48-3.54c-.12-.12-.32-.13-.44-.01,0,0,0,0-.01.01l-3.48,3.54Z"/>
    <polygon class="st2" points="314.35 177.98 316.21 179.86 318.06 177.98 316.21 176.09 314.35 177.98"/>
    <path class="st2" d="M314.35,174.21l1.63-1.66c.12-.12.32-.13.44-.01,0,0,0,0,.01.01l1.63,1.66-1.86,1.89-1.85-1.89Z"/>
  </g>
  <g>
    <path class="st2" d="M132.67,184.74l-3.77-3.7,3.77-3.71,3.55,3.49c.12.12.13.32,0,.44,0,0,0,0,0,0l-3.55,3.47Z"/>
    <polygon class="st2" points="130.79 182.89 128.9 181.04 130.79 179.18 132.67 181.04 130.79 182.89"/>
    <path class="st2" d="M134.56,182.89l1.66-1.63c.12-.12.13-.32,0-.44,0,0,0,0,0,0l-1.66-1.63-1.89,1.86,1.89,1.85Z"/>
    <path class="st2" d="M122.66,184.74l3.77-3.7-3.77-3.71-3.54,3.49c-.12.12-.13.32-.01.44,0,0,0,0,.01.01l3.54,3.47Z"/>
    <polygon class="st2" points="124.54 182.89 126.43 181.04 124.54 179.18 122.66 181.04 124.54 182.89"/>
    <path class="st2" d="M120.77,182.89l-1.66-1.63c-.12-.12-.13-.32-.01-.44,0,0,0,0,.01-.01l1.66-1.63,1.89,1.86-1.89,1.85Z"/>
    <path class="st2" d="M131.37,186.04l-3.7-3.77-3.71,3.77,3.48,3.55c.12.12.32.13.44,0,0,0,0,0,0,0l3.48-3.55Z"/>
    <polygon class="st2" points="129.52 184.16 127.67 182.27 125.81 184.16 127.67 186.04 129.52 184.16"/>
    <path class="st2" d="M129.52,187.93l-1.63,1.66c-.12.12-.32.13-.44,0,0,0,0,0,0,0l-1.63-1.66,1.86-1.89,1.85,1.89Z"/>
    <path class="st2" d="M123.96,176.03l3.71,3.77,3.7-3.77-3.48-3.54c-.12-.12-.32-.13-.44-.01,0,0,0,0-.01.01l-3.48,3.54Z"/>
    <polygon class="st2" points="125.81 177.91 127.67 179.8 129.52 177.91 127.67 176.03 125.81 177.91"/>
    <path class="st2" d="M125.81,174.14l1.63-1.66c.12-.12.32-.13.44-.01,0,0,0,0,.01.01l1.63,1.66-1.86,1.89-1.85-1.89Z"/>
  </g>
</svg>