<?xml version="1.0" encoding="UTF-8"?>
<svg id="Capa_1" xmlns="http://www.w3.org/2000/svg" version="1.1" viewBox="0 0 900 900">
  <!-- Generator: Adobe Illustrator 30.2.1, SVG Export Plug-In . SVG Version: 2.1.1 Build 1)  -->
  <defs>
    <style>
      .st0 {
        opacity: .6;
      }

      .st1 {
        fill: #973032;
      }

      .st2 {
        opacity: .3;
      }

      .st3 {
        fill: #c27460;
      }

      .st4 {
        fill: #fff;
      }

      .st5 {
        fill: #375a64;
      }

      .st6 {
        fill: #dee0e2;
      }

      .st7 {
        fill: #1a2e35;
      }

      .st8 {
        fill: #bc2e41;
      }

      .st9 {
        fill: #7c4235;
      }

      .st10 {
        fill: #bd0043;
      }

      .st11 {
        fill: #ae2f3d;
      }

      .st12 {
        fill: #c8ced3;
      }

      .st13 {
        fill: #d5d9dc;
      }

      .st14 {
        fill: #e1e1e1;
      }
    </style>
  </defs>
  <g>
    <g>
      <g>
        <path class="st3" d="M583.21,148.51l-18.92-69.31c-4.15-17.39-17.72-29.48-35-24.85l-1.57.52c-15.81,5.24-24.96,21.74-21,37.92,3.68,15.06,7.93,31.64,10.64,39.48,5.6,16.22,22.73,13.35,22.73,13.35.04-.01,2.97,10,4.35,14.84l-.64,12.42,12.62-7.18,26.8-17.19Z"/>
        <path class="st9" d="M540.08,145.62s10.47-2.8,19.13-13.3c0,0-1.04,13.93-17.78,17.85l-1.35-4.56Z"/>
        <path class="st7" d="M517.18,107.53c.36,1.24,1.72,1.96,3.02,1.6,1.3-.36,2.07-1.65,1.7-2.89-.36-1.24-1.72-1.96-3.02-1.61-1.3.36-2.07,1.65-1.7,2.89Z"/>
        <path class="st7" d="M512.56,98.83c.39.21,1.72-1.68,4.22-2.5,2.49-.86,4.75-.18,4.92-.58.09-.18-.39-.63-1.38-.95-.98-.32-2.51-.44-4.07.09-1.56.53-2.68,1.53-3.24,2.37-.57.85-.65,1.48-.47,1.57Z"/>
        <path class="st7" d="M538.63,100.09c.36,1.24,1.72,1.96,3.02,1.6,1.3-.35,2.07-1.65,1.7-2.89-.36-1.24-1.72-1.96-3.02-1.61-1.3.36-2.07,1.65-1.7,2.89Z"/>
        <path class="st7" d="M537.28,91.28c.39.21,1.72-1.68,4.22-2.5,2.49-.86,4.75-.18,4.92-.58.09-.18-.38-.63-1.38-.95-.98-.32-2.51-.44-4.07.08-1.56.53-2.68,1.53-3.24,2.37-.57.85-.65,1.48-.47,1.57Z"/>
        <path class="st7" d="M534.68,113.49c-.04-.15-1.68.1-4.31.61-.66.15-1.31.22-1.56-.18-.3-.41-.26-1.19-.2-2.04.09-1.75.18-3.58.28-5.49.33-7.8.34-14.13.03-14.14-.31,0-.84,6.3-1.16,14.1-.07,1.92-.13,3.75-.19,5.5,0,.81-.14,1.77.5,2.62.33.42.91.61,1.36.59.45-.01.81-.12,1.14-.21,2.58-.7,4.16-1.21,4.12-1.36Z"/>
        <path class="st7" d="M533.88,83.72c.55.53,2.76-.95,5.69-1.99,2.92-1.1,5.55-1.4,5.63-2.16.03-.36-.66-.77-1.87-.94-1.2-.18-2.93-.06-4.68.59-1.75.65-3.14,1.67-3.95,2.58-.81.92-1.07,1.67-.82,1.93Z"/>
        <path class="st7" d="M510,91.51c.7.41,2.56-.83,5.02-1.63,2.43-.88,4.67-1.05,4.96-1.8.12-.36-.39-.82-1.47-1.08-1.07-.26-2.71-.22-4.39.35-1.68.58-2.98,1.56-3.65,2.41-.68.86-.79,1.54-.47,1.75Z"/>
        <path class="st3" d="M566.95,91.7c.24-.21,10.09-7.02,13.43,4.23,3.33,11.25-8.65,12.28-8.77,11.96-.12-.32-4.66-16.2-4.66-16.2Z"/>
        <path class="st9" d="M573.79,102.61c.04-.05.24.08.61.13.37.05.95-.01,1.47-.4,1.06-.79,1.5-2.97.96-5.02-.27-1.03-.78-1.94-1.38-2.64-.59-.72-1.29-1.14-1.92-1.07-.64.04-.95.52-1,.88-.06.36.08.56.03.6-.02.04-.3-.12-.34-.61-.02-.24.03-.54.23-.84.2-.3.57-.53,1-.61.89-.2,1.9.37,2.56,1.14.71.76,1.3,1.78,1.61,2.94.6,2.29.07,4.75-1.42,5.71-.73.44-1.46.4-1.88.23-.43-.18-.56-.41-.53-.44Z"/>
        <path class="st7" d="M543.08,112.78c-.4.09.33,2.68-1.37,5.15-1.7,2.47-4.54,2.96-4.46,3.33,0,.17.76.33,1.93.03,1.16-.28,2.72-1.12,3.77-2.63,1.04-1.51,1.2-3.18.98-4.27-.21-1.11-.68-1.67-.85-1.61Z"/>
      </g>
      <g>
        <path class="st7" d="M479.69,84.46c-.02-.72.3-1.4.79-1.93,1.06-1.15,2.58-1.49,4-1.94,3.55-1.12,6.82-3.09,9.52-5.66-1.28-.23-2.52-.6-3.66-1.22-2.36-1.27-4.23-3.74-4.13-6.41.02-.5.14-1.06.56-1.34.66-.44,1.52.08,2.2.5,2.23,1.37,4.02,1.71,6.44.72,1.5-.62,2.9-1.42,3.9-2.54.03-.07.06-.13.09-.2.4-.78.8-1.52,1.2-2.25,0,0,0,0,0,0h0c2.98-5.46,5.75-9.45,9.04-12.07,4.83-3.85,13.75-7.49,19.92-7.69,6.17-.21,12.7,2.9,15.25,8.53,2.4-3.67,7.23-5.09,11.61-4.68l.09-.07c4.82.25,8.66,4.11,11.28,8.17.14.22.28.45.42.67,2.17,1.89,4.77,3.3,7.57,3.97.49.12,1.07.28,1.26.74.19.46-.09.98-.4,1.38-.82,1.06-1.89,1.91-3.09,2.52.71.94,1.49,1.82,2.36,2.63.74.69,1.62,1.51,1.45,2.5-.13.77-.9,1.3-1.67,1.41-.77.11-1.55-.1-2.3-.31.83,1.02,1.67,2.04,2.5,3.05-1.49.74-3.16,1.11-4.83,1.1.31,4.43,1.92,12.33,1.69,15.46-2.97.94-3.79.83-5.15,1.78-1.75,1.23.02,4.45-2.81,4.23-1.44-.11-4.88-4.41-5.7-5.6-5.47-7.87-9.21-16.92-10.89-26.35-2.38-1.38-5.02-2.31-7.75-2.7l.25.12c-5.07-.22-10.74-.24-14.46,3.22-2.88,2.69-3.83,6.79-5.52,10.35-3.21,6.74-7.79,11.2-14.85,13.64.84,5.16,3.07,13.33,4.21,18.04l-6.72-8.09v.04c-.47-.45-.9-.92-1.32-1.39l-.14-.14v-.02c-.67-.76-1.32-1.53-2.1-2.25-.01.02-.02.04-.03.05-1.85,2.96-6.56.68-5.38-2.61.23-.65.56-1.27.98-1.82-.83,1.42-2.38,2.45-4.02,2.43-1.64-.01-3.26-1.19-3.6-2.79-.23-1.1.25-2.28,1.09-2.99-1.98.76-4.19.94-6.25.46-1.36-.32-2.82-1.06-2.86-2.64Z"/>
        <path class="st5" d="M540.2,54.38c-.02.05.82.23,2.1,1.02,1.27.79,2.9,2.33,4.16,4.71.63,1.18,1.22,2.54,1.67,4.06.46,1.51.82,3.17,1.22,4.92.4,1.74.82,3.59,1.49,5.43.34.92.73,1.84,1.22,2.74.49.88,1.04,1.82,1.99,2.41.76.49,1.79.5,2.56.09.78-.39,1.38-1.05,1.74-1.8.69-1.55.49-3.2.34-4.66l-.33.14c.93,1.07,1.88,2.13,3.03,2.85,1.14.73,2.5,1.04,3.72.79.61-.12,1.18-.4,1.61-.8.44-.41.69-.95.81-1.48.11-.54.09-1.08-.09-1.56-.17-.48-.5-.89-.91-1.12l-.13.21c1.7,1.07,3.27,1.44,4.33,1.6.53.08.94.09,1.22.1.28,0,.42,0,.42-.02,0-.01-.14-.03-.42-.05-.28-.03-.68-.07-1.21-.16-1.04-.19-2.57-.6-4.22-1.67l-.13.21c.73.42,1.07,1.44.84,2.41-.12.48-.35.97-.74,1.32-.39.36-.91.6-1.46.71-1.12.22-2.4-.07-3.47-.77-1.09-.69-2.01-1.72-2.94-2.8l-.39-.46.06.6c.15,1.46.32,3.05-.32,4.45-.32.68-.87,1.27-1.55,1.61-.68.35-1.51.34-2.17-.07-.83-.51-1.37-1.4-1.84-2.26-.48-.87-.87-1.77-1.2-2.68-.66-1.81-1.09-3.64-1.5-5.38-.4-1.74-.78-3.4-1.26-4.93-.47-1.53-1.08-2.9-1.74-4.1-1.31-2.4-3.01-3.95-4.32-4.71-1.33-.76-2.18-.88-2.18-.88Z"/>
        <path class="st5" d="M494.07,85.6s.05.03.17.07c.14.05.3.11.5.18.22.08.5.17.83.24.33.08.72.18,1.16.23,1.75.27,4.41.26,7.42-.84,2.98-1.08,6.31-3.24,8.84-6.63,2.58-3.35,4.43-7.69,5.6-12.38.6-2.35.97-4.68,1.48-6.89.51-2.21,1.16-4.3,2.18-6.11,1-1.81,2.33-3.32,3.88-4.29.77-.5,1.6-.81,2.41-1.03.82-.2,1.64-.26,2.42-.24,1.56.05,2.94.49,4.05,1.04,1.11.55,1.96,1.24,2.58,1.85,1.2,1.29,1.53,2.25,1.59,2.21,0,0-.02-.06-.06-.17-.06-.13-.14-.29-.23-.48-.21-.42-.59-1-1.18-1.67-.61-.64-1.46-1.36-2.59-1.95-1.12-.58-2.53-1.05-4.14-1.13-.8-.03-1.65.03-2.51.23-.85.22-1.72.54-2.52,1.05-1.61,1-3,2.55-4.03,4.4-1.05,1.84-1.73,3.98-2.24,6.2-.52,2.23-.89,4.55-1.49,6.88-1.16,4.66-2.98,8.95-5.5,12.26-2.48,3.35-5.71,5.49-8.64,6.59-2.95,1.11-5.57,1.17-7.3.95-1.75-.23-2.66-.62-2.68-.56Z"/>
        <path class="st5" d="M490.41,78.81s.25.11.71.23c.46.13,1.15.26,2.01.37.86.11,1.89.14,3.04.08,1.14-.08,2.4-.26,3.68-.59,1.28-.35,2.46-.81,3.49-1.31,1.02-.52,1.91-1.05,2.6-1.57.7-.51,1.23-.97,1.57-1.31.34-.34.52-.54.5-.56-.05-.06-.82.68-2.24,1.63-.7.48-1.59.98-2.6,1.47-1.02.47-2.18.91-3.43,1.25-1.26.32-2.48.51-3.6.61-1.12.08-2.14.07-2.99,0-1.7-.13-2.73-.39-2.75-.32Z"/>
      </g>
    </g>
    <path class="st3" d="M474.1,212.62s-2.6,44.72-2.6,48.77c-.01,10.83,8.07,20.33,18.7,21.79,10.63,1.46,19.92-5.69,25.03-15.06,5.11-9.37,4.48-44.16,4.48-44.16l-30.59-.04-5.05-13.98-9.97,2.69Z"/>
    <g>
      <g>
        <g>
          <path class="st7" d="M557.14,577.78l1.28,33.57s-33.7,12.57-34.07,18.8l65.19-.14.16-52.39-32.55.16Z"/>
          <path class="st14" d="M578.57,608.48c1.26.34,2.14,1.76,1.85,3.03-.29,1.28-1.72,2.18-2.99,1.86-1.27-.32-2.37-1.99-1.94-3.22.43-1.23,2.17-2.2,3.33-1.59"/>
          <path class="st5" d="M589.54,630.01l-.19-5.28-62.43,2.11s-2.9,1.27-2.57,3.31l65.19-.14Z"/>
          <path class="st4" d="M557.36,611.02c.01.32,1.6.46,3.17,1.48,1.59.98,2.41,2.36,2.7,2.23.29-.06-.19-1.96-2.11-3.17-1.91-1.22-3.83-.83-3.76-.54Z"/>
          <path class="st4" d="M550.53,613.86c-.07.31,1.31.85,2.39,2.19,1.12,1.31,1.4,2.77,1.72,2.75.3.05.52-1.81-.86-3.46-1.36-1.66-3.24-1.79-3.24-1.48Z"/>
          <path class="st4" d="M546.67,622.05c.29.07.73-1.52-.09-3.27-.81-1.75-2.31-2.43-2.45-2.17-.18.26.79,1.2,1.44,2.64.69,1.42.78,2.77,1.1,2.8Z"/>
          <path class="st4" d="M557.92,603.34c.13.29,1.59-.15,3.39-.03,1.8.08,3.2.68,3.37.41.18-.23-1.19-1.41-3.31-1.52-2.12-.13-3.61.89-3.45,1.14Z"/>
        </g>
        <g>
          <path class="st7" d="M634.51,573.58l3.53,40.49-6.44,32.83c-.46,2.37,1.17,4.63,3.56,4.93h0c1.34.17,2.67-.31,3.58-1.31,5.81-6.33,27.06-29.74,26.64-32.69-.49-3.42-.89-42.96-.89-42.96l-29.99-1.3Z"/>
          <path class="st5" d="M635.16,651.84l30.05-36.73.11,1.72c.1,1.49-.33,2.96-1.22,4.15-2.38,3.19-9.15,11.86-25.23,29.55-.94,1.03-2.33,1.52-3.7,1.31h0Z"/>
          <g class="st0">
            <path class="st4" d="M656.04,602.55c-.97.77-1.21,2.33-.48,3.33.73,1,2.31,1.25,3.29.5.98-.75,1.32-2.61.49-3.53-.84-.91-2.71-1.11-3.49-.14"/>
          </g>
          <path class="st4" d="M643.29,633.52c-.22.13-1.27-1.94-3.76-2.93-2.46-1.06-4.66-.35-4.73-.59-.04-.1.45-.45,1.39-.64.93-.2,2.31-.15,3.68.41,1.36.57,2.37,1.51,2.89,2.31.53.8.63,1.4.53,1.44Z"/>
          <path class="st4" d="M640.75,639.14c-.18.19-1.57-1.05-3.7-1.51-2.13-.51-3.91,0-3.99-.26-.13-.2,1.77-1.19,4.19-.61,2.43.55,3.71,2.26,3.5,2.38Z"/>
          <path class="st4" d="M648.23,626.21c-.18.2-2.3-1.71-5.56-2.72-3.24-1.07-6.08-.75-6.11-1.02-.08-.21,2.9-.97,6.38.17,3.49,1.1,5.48,3.45,5.29,3.57Z"/>
          <path class="st4" d="M648.18,613.81c-.09.25-2.39-.54-5.32-.46-2.92.04-5.19.93-5.29.68-.12-.19,2.13-1.52,5.27-1.58,3.14-.08,5.45,1.16,5.34,1.35Z"/>
          <path class="st4" d="M647.45,601.9c-.11.24-2.45-.96-5.52-.63-3.08.27-5.14,1.91-5.29,1.7-.07-.08.34-.62,1.24-1.22.89-.6,2.31-1.2,3.97-1.37,1.66-.16,3.16.15,4.16.56,1,.41,1.51.86,1.45.95Z"/>
          <path class="st4" d="M641.85,599c-.05,0-.18-.54-.15-1.53.03-.99.22-2.45.96-4.1.39-.78.78-1.78,1.88-2.39.55-.31,1.39-.25,1.91.25.51.49.7,1.15.76,1.79.12,2.58-1.93,5.21-4.8,5.77-2.89.51-5.63-.99-6.92-3.13-.29-.56-.51-1.25-.24-1.96.27-.71,1.07-1.04,1.66-.98,1.22.1,2.02.75,2.76,1.22,1.47,1.03,2.41,2.16,2.97,2.97.56.82.76,1.34.71,1.36-.14.12-1.15-1.93-4.03-3.81-.72-.43-1.56-.98-2.43-1-.43-.02-.78.18-.91.53-.13.34-.02.84.23,1.28,1.09,1.76,3.6,3.11,6.03,2.65,2.43-.44,4.22-2.76,4.15-4.84-.03-.5-.19-.99-.48-1.27-.28-.27-.69-.33-1.05-.15-.77.37-1.24,1.25-1.63,1.99-1.52,3.09-1.19,5.38-1.38,5.35Z"/>
        </g>
        <g>
          <path class="st7" d="M526.78,304.11s-4.94,19.14-3.15,42.45c.69,9.02,31.14,258.59,31.14,258.59h41.1l-11.55-234.56,3.37.73s22.44,100.04,24.27,116.24c1.65,14.56,20.57,120.32,20.57,120.32l37.58.43-12-139.9-13.97-134.24-5.26-39.08-112.09,9.01Z"/>
          <path class="st5" d="M585.81,354.67s-.07.12-.27.28c-.2.15-.53.35-1,.47-.93.27-2.48.13-3.9-.92-1.48-1.04-2.36-3.1-2.66-5.31-.29-2.23-.34-4.64-.51-7.18-.28-5.08-.48-9.67-.59-13-.11-3.33-.12-5.39-.01-5.4.11,0,.32,2.05.58,5.37.25,3.32.55,7.92.82,12.99.16,2.53.19,4.98.44,7.12.25,2.13,1.01,4,2.28,4.96,1.24,1.01,2.63,1.22,3.49,1.07.89-.14,1.29-.52,1.33-.45Z"/>
        </g>
      </g>
      <path class="st10" d="M631.69,258.75l4-76.04-6.54-5.18-3.48-31.38-45.24-7.8s2.32,10.39-9.5,17.02c-15.18,8.52-29.35-4.7-29.35-4.7,0,0-30.56,10.1-36.31,16.75-5.75,6.65-8.91,15.28-8.91,15.28l-15.61,46.4,34.2,4.46,8.21,106.94,120.96-25.71.55-11.49-12.99-44.56Z"/>
    </g>
    <path class="st7" d="M513.94,188.37c.32-.01,1.09,11.91,1.72,26.62.63,14.72.88,26.66.56,26.67-.32.01-1.09-11.9-1.72-26.62-.63-14.71-.88-26.66-.56-26.67Z"/>
    <g>
      <rect class="st5" x="478.25" y="182.85" width="16.96" height="685.71"/>
      <rect class="st5" x="587.92" y="182.85" width="15.71" height="685.71"/>
      <rect class="st5" x="491.99" y="213.5" width="111.2" height="13.48"/>
      <rect class="st5" x="491.79" y="256.6" width="111.2" height="13.48"/>
      <rect class="st5" x="491.79" y="309.46" width="111.2" height="13.48"/>
      <rect class="st5" x="491.79" y="362.32" width="111.2" height="13.48"/>
      <rect class="st5" x="491.79" y="415.19" width="111.2" height="13.48"/>
      <rect class="st5" x="491.79" y="468.05" width="111.2" height="13.48"/>
      <rect class="st5" x="491.79" y="520.91" width="111.2" height="13.48"/>
      <rect class="st5" x="491.79" y="573.77" width="111.2" height="13.48"/>
      <rect class="st5" x="491.79" y="626.63" width="111.2" height="13.48"/>
      <rect class="st5" x="491.79" y="679.5" width="111.2" height="13.48"/>
      <rect class="st5" x="491.79" y="732.36" width="111.2" height="13.48"/>
      <rect class="st5" x="491.79" y="783.18" width="111.2" height="13.48"/>
    </g>
    <g>
      <path class="st11" d="M652.07,511.44l-91.12-89.51,91.12-89.51,85.61,84.1c3.04,2.99,3.04,7.83,0,10.82l-85.61,84.1Z"/>
      <polygon class="st1" points="606.51 466.68 560.95 421.93 606.51 377.17 652.07 421.93 606.51 466.68"/>
      <path class="st8" d="M697.63,466.68l40.05-39.34c3.04-2.99,3.04-7.83,0-10.82l-40.05-39.34-45.56,44.75,45.56,44.75Z"/>
      <path class="st11" d="M410.15,511.44l91.12-89.51-91.12-89.51-85.61,84.1c-3.04,2.99-3.04,7.83,0,10.82l85.61,84.1Z"/>
      <polygon class="st1" points="455.71 466.68 501.28 421.93 455.71 377.17 410.15 421.93 455.71 466.68"/>
      <path class="st8" d="M364.59,466.68l-40.05-39.34c-3.04-2.99-3.04-7.83,0-10.82l40.05-39.34,45.56,44.75-45.56,44.75Z"/>
      <path class="st11" d="M620.62,542.89l-89.51-91.12-89.51,91.12,84.1,85.61c2.99,3.04,7.83,3.04,10.82,0l84.1-85.61Z"/>
      <polygon class="st1" points="575.87 497.33 531.11 451.76 486.36 497.33 531.11 542.89 575.87 497.33"/>
      <path class="st8" d="M575.87,588.45l-39.34,40.05c-2.99,3.04-7.83,3.04-10.82,0l-39.34-40.05,44.75-45.56,44.75,45.56Z"/>
      <path class="st13" d="M441.6,300.97l89.51,91.12,89.51-91.12-84.1-85.61c-2.99-3.04-7.83-3.04-10.82,0l-84.1,85.61Z"/>
      <polygon class="st12" points="486.36 346.53 531.11 392.09 575.87 346.53 531.11 300.97 486.36 346.53"/>
      <path class="st6" d="M486.36,255.41l39.34-40.05c2.99-3.04,7.83-3.04,10.82,0l39.34,40.05-44.75,45.56-44.75-45.56Z"/>
    </g>
    <g>
      <path class="st3" d="M577.27,242.52l50.52-16.26-19.1-46.27,36.87.71s26.61,51.91,16.54,67.07c-9.17,13.8-76.68,14.51-76.68,14.51l-8.16-19.75Z"/>
      <g>
        <path class="st3" d="M586.47,241.84s-31.62-8.69-32.66-8.72c-1.03-.03-16.23,1-18.1,3.6-1.87,2.6-5.78,16.95-5.78,16.95,0,0,3.3,2.74,7.56-3.59l4.26-6.33,6.9-1.25s-6.26,6.51-7.15,8.89c-.89,2.38-.66,9.92,1.58,10.71,2.24.79,4.14.11,4.14.11,0,0-1.21,5.85,5.56,6.13,0,0,2.45,3.41,5.85,3.69,3.4.28,8.32-2.47,8.32-2.47,0,0,1.77-2.45-1.01-4.02-2.79-1.57-6.42-1.16-6.42-1.16l1.42-2.88s5.68-1.96,10.28-1.91c2.9.03,11.81,5.22,16.25,4.12,3.76-.93,2.58-8.8.64-12.16h0c-.29-.5-.66-.96-1.08-1.36l-.58-8.33Z"/>
        <path class="st9" d="M557.93,254.14s-.22.08-.59.3c-.36.22-.87.57-1.44,1.07-1.14.99-2.51,2.67-3.28,4.88-.77,2.21-.73,4.38-.45,5.86.14.75.32,1.33.47,1.73.15.4.26.6.28.6.06-.02-.3-.89-.52-2.36-.22-1.46-.22-3.57.53-5.72.75-2.14,2.05-3.8,3.13-4.81,1.08-1.02,1.9-1.48,1.87-1.53Z"/>
        <path class="st9" d="M555.25,247.2s-.23.1-.62.32c-.2.11-.43.25-.69.45-.26.19-.57.39-.88.65-.64.5-1.34,1.17-2.04,1.98-.69.82-1.39,1.78-1.99,2.86-.59,1.09-1.04,2.19-1.36,3.21-.31,1.03-.5,1.98-.59,2.78-.06.4-.07.77-.09,1.09-.02.32-.02.6,0,.82.01.45.03.7.06.7.06,0,.03-1,.27-2.58.11-.79.33-1.72.65-2.73.34-1,.78-2.07,1.36-3.14.6-1.06,1.29-2.27,1.96-3.08.68-.8,1.34-1.22,1.94-1.74,1.21-1.05,2.08-1.55,2.04-1.6Z"/>
        <path class="st9" d="M552.99,238.87s-.38-.02-.93.18c-.56.2-1.29.61-1.92,1.27-.85.9-1.03,1.49-1.17,1.98-.17.57-.17.94-.13.94.1.03.32-1.44,1.54-2.7,1.19-1.28,2.65-1.58,2.61-1.67Z"/>
      </g>
      <path class="st9" d="M647.79,235.33c-.1.05-.69-1.32-2.17-3.18-1.45-1.85-3.93-4.12-7.27-5.47-3.33-1.39-6.73-1.17-9.02-.69-2.32.48-3.69,1.07-3.73.96-.02-.04.31-.22.93-.49.62-.27,1.54-.61,2.71-.9,2.31-.6,5.86-.91,9.35.55,3.47,1.41,5.99,3.82,7.39,5.78.71.98,1.18,1.84,1.46,2.46.28.61.39.97.36.99Z"/>
    </g>
    <path class="st10" d="M603.64,168.85c-.58-19.53,20.74-31.19,32.16-15.33.06.09.13.18.19.27,10.76,15.33,23.76,51.57,23.76,51.57l-43.19,6.71-10.4-29.22c-1.55-5.07-2.39-9.09-2.53-14Z"/>
    <path class="st7" d="M622.01,146.16c.04.12-2.01.55-4.95,2.07-2.92,1.49-6.71,4.29-9.46,8.52-2.75,4.23-3.78,8.83-3.96,12.11-.2,3.31.24,5.35.11,5.36-.04,0-.18-.49-.33-1.42-.15-.92-.28-2.28-.23-3.97.07-3.34,1.05-8.08,3.88-12.43,2.83-4.35,6.76-7.16,9.79-8.58,1.52-.72,2.81-1.16,3.72-1.4.91-.24,1.42-.31,1.43-.28Z"/>
    <g>
      <g>
        <path class="st3" d="M496.24,201.77c-.78-.8-1.85-1.26-2.94-1.54,1.31.08,2.44-1.22,2.46-2.53.02-1.31-.86-2.52-1.97-3.22-1.12-.69-2.45-.96-3.75-1.11-1.31-.15-3.75-.45-5.02-.8l-9.4-.47c-1.63.61-1.9,5.59.28,6.55-1.2.39-1.89.24-2.7,1.21-.81.97-1.22,2.31-.89,3.53.33,1.22,1.51,2.21,2.77,2.14-1.65,1.02-2.54,3.15-2.11,5.04.26,1.14.99,2.15,1.94,2.81.48.33,1.01.57,1.58.72.2.05.44.14.65.12.1-.01.19-.05.29-.1.42-.22.79-.51,1.22-.71.16-.07.33-.14.5-.2.77-.28,1.59-.43,2.4-.49.38-.03.79.03,1.16-.05.25-.06.45-.22.68-.32,1.48-.61,3.22-.47,4.78-.42,1.76.06,3.62.03,5.12-.88,1.5-.92,2.39-3.06,1.39-4.5,1.1.22,2.23-.64,2.51-1.72s-.17-2.27-.95-3.07Z"/>
        <path class="st3" d="M475.46,218.69c-.04,1.08.19,2.27.99,2.99.96.86.52,1.65,1.8,1.55.28-1.5.94-2.61,1.22-4.11.06-.32,1.72-.88,1.91-1.14.49-.69,2.15-.58,2.95-.86,1.39-.48,2.07-2.27,1.56-3.65-.51-1.38-1.98-2.27-3.46-2.34-1.47-.07-2.91.58-4.04,1.53-1.76,1.48-2.86,3.73-2.94,6.03Z"/>
        <path class="st9" d="M474.63,205.54c.01-.28,4.51-.28,10.05,0,5.54.28,10.01.74,9.99,1.02-.01.28-4.51.28-10.05,0-5.53-.28-10.01-.74-9.99-1.02Z"/>
        <path class="st9" d="M475.58,198.63c-.01-.27,4.08-.64,9.12-.2,5.04.43,9.01,1.49,8.95,1.75-.06.29-4.07-.31-9.04-.73-4.97-.44-9.02-.53-9.03-.82Z"/>
      </g>
      <path class="st9" d="M476.51,191.88c0-.29,3.41-.41,7.53.12,4.12.53,7.41,1.16,7.38,1.43-.03.29-3.41.11-7.5-.41-4.09-.52-7.41-.86-7.41-1.14Z"/>
      <path class="st9" d="M476.16,216.53c-.12,0-.28-.72.19-1.76.44-1.03,1.65-2.2,3.23-2.76,1.6-.55,2.98-.73,4.14-.69,1.25.12,1.61,1.03,1.45,1.05-.11.08-.54-.41-1.47-.33-.9.12-2.38.43-3.75.92-1.41.51-2.43,1.37-2.97,2.17-.55.78-.66,1.42-.82,1.4Z"/>
    </g>
  </g>
  <g>
    <path class="st7" d="M295.07,361.69c.1-2.67-1.55-5.29-3.95-6.44-.24-.4-.5-.79-.81-1.15-2.47-5.49-5.86-10.57-9.98-14.97,3.02-1.5,3.12-6.12,1.05-8.78-2.08-2.66-5.47-3.84-8.68-4.9,2.55.03,3.87-3.5,2.69-5.76-1.18-2.26-3.77-3.37-6.21-4.1-3.58-1.07-7.29-1.71-11.02-1.9-2.21-3.92-8.8-7.34-13.21-8.2-16.99-3.32-28.35-2.58-43.68,14.88-2.32-2.46-5.76-3.9-9.17-3.88-4.49.02-8.8,2.33-11.74,5.71-5.46-.1-10.76,3.75-12.34,8.98-6.77-1.45-14.28,1.85-17.81,7.8-3.52,5.96-2.79,14.13,1.73,19.36-3.12,3.88-1.91,10.43,2.39,12.95-1.05,3.16-1.79,6.43-2.14,9.74-.23,2.2-.26,4.6,1,6.43,1.26,1.82,4.26,2.54,5.68.84-.77,1.93-.28,4.31,1.2,5.77-2,.56-1.81,3.83-.05,4.94,1.76,1.11,4.05.69,6.05.13,2-.56,4.16-1.22,6.11-.49.08.62-.06,1.08-.33,1.45-2.75,3.69-2.49,8.79,1.02,11.76.33.27.63.53.9.76,1.59,1.36,4.86,2.14,6.9,2.62,5.16,1.22,7.76.08,13.03-.48-.55,3.63,9.56,8.8,17.19-.75,6.2.08,11.82,0,17.21-.31,2.36,4.62,6.91,8.46,12.08,8.42,3.09-.02,6.04-1.39,9.12-1.58,2.52-.15,5.02.49,7.53.72,9.81.9,19.85-5.18,23.61-14.28,5.68,2.08,12.73-1.15,14.86-6.8,2.14-5.65-1.02-12.74-6.65-14.93,3.92-.57,7.22-4.07,7.56-8.02.34-3.95-2.31-7.96-6.07-9.2,2.74-.81,4.82-3.49,4.92-6.34Z"/>
    <g>
      <path class="st10" d="M282.78,461.82s27.35,24.65,27.25,22.91c-.1-1.74,52.26-24.95,52.26-24.95v34.12s-52.67,28.52-54.63,26.99c-1.96-1.53-29.35-34.14-29.35-34.14l4.47-24.93Z"/>
      <g class="st2">
        <path d="M282.78,461.82s27.35,24.65,27.25,22.91c-.1-1.74,52.26-24.95,52.26-24.95v34.12s-52.67,28.52-54.63,26.99c-1.96-1.53-29.35-34.14-29.35-34.14l4.47-24.93Z"/>
      </g>
    </g>
    <g>
      <path class="st3" d="M199.77,341.3l25.44-16.52c10.43-4.5,21.73,6.56,25.78,17.17,4.5,11.79,9.52,26.36,10.89,35.78,2.75,18.93-12.17,28.12-12.17,28.12,0-.02,3.34,11.05,3.34,11.05.85,8.95-8.21,11.48-8.21,11.48-24.79,7.09-30.14-6.54-30.14-6.54l-17.98-69.04c-1.09-3.27-.13-10.13,3.04-11.49Z"/>
      <path class="st7" d="M240.63,374.33c-.05-.14,1.41-.89,3.82-1.99.62-.26,1.18-.58,1.15-1.04,0-.51-.47-1.11-1.01-1.75-1.08-1.35-2.2-2.77-3.39-4.26-4.75-6.08-8.41-11.16-8.16-11.35.25-.19,4.3,4.59,9.06,10.67,1.16,1.5,2.26,2.94,3.32,4.31.47.65,1.13,1.34,1.11,2.39-.02.53-.38,1.02-.76,1.25-.37.25-.72.37-1.03.49-2.48.92-4.04,1.42-4.1,1.28Z"/>
      <path class="st9" d="M249.72,405.85s-10.1,1.97-24.37-1.52c0,0,7.26,10.42,25.98,7.01l-1.61-5.49Z"/>
      <path class="st7" d="M222.51,349.06c-.04.75-2.62,1.21-5.43,2.47-2.84,1.2-4.93,2.79-5.5,2.31-.26-.24-.05-1,.7-1.95.74-.95,2.05-2.04,3.75-2.78,1.69-.74,3.39-.96,4.58-.86,1.21.1,1.91.46,1.91.82Z"/>
      <path class="st7" d="M246.64,342.3c-.26.7-2.16.65-4.23,1.26-2.09.54-3.69,1.56-4.28,1.1-.27-.23-.17-.88.43-1.66.59-.77,1.71-1.59,3.14-1.99,1.43-.4,2.82-.27,3.72.09.91.35,1.33.86,1.22,1.2Z"/>
      <path class="st7" d="M261.51,348.57c-.93-2.82-2.59-5.49-5.1-7.07-1.37-.86-2.96-1.38-4.24-2.38-2.76-2.16-3.46-5.99-5.19-9.03-2.24-3.93-6.48-6.65-10.98-7.04-3.75-.32-7.59.86-11.25,0-2.71-.64-5.09-2.35-7.83-2.83-5.34-.93-10.22,2.97-14.02,6.83.05,3.81,3.12,6.31,6.08,8.7,2.96,2.4,7,3.4,10.74,2.65,2.9-.58,6.06-2.1,8.6-.59,2.67,1.59,2.84,5.57,5.22,7.57,3.4,2.86,8.69.04,12.97,1.24,3.3.92,5.41,4.03,7.63,6.64,2.23,2.61,5.54,5.07,8.81,4.04-.26-2.95-.52-5.94-1.44-8.75Z"/>
      <path class="st7" d="M211.73,331.69c-8.37,2.06-16.33,5.77-23.3,10.84-2.08,1.51-4.17,3.29-4.94,5.74-.67,2.16-.21,4.49.39,6.67,1.88,6.82,6.83,14.47,11.1,20.11l9.89,2.87c6.17-3.28.16-13.85-1.65-19.46,4.06-3.22,5.99-8.9,4.73-13.93,3.13-3.4,4.56-8.28,3.77-12.83Z"/>
      <path class="st3" d="M204.1,375.49c-1.29-3.84-6.29-3.34-9.12-.44-1.55,1.59-2.37,4.14-1.04,8.24,3.55,10.91,13.77,5.1,13.68,4.78-.05-.2-2.02-8.07-3.52-12.57Z"/>
      <path class="st9" d="M202.95,385.01c-.06-.02-.15.2-.42.45-.27.24-.77.52-1.41.49-1.29-.05-2.85-1.56-3.55-3.51-.35-.98-.45-2-.35-2.89.07-.91.41-1.63.95-1.92.53-.32,1.06-.11,1.29.16.25.26.25.5.31.5.04.02.17-.26-.06-.68-.12-.2-.33-.42-.65-.54-.33-.13-.75-.11-1.14.06-.82.33-1.33,1.35-1.44,2.34-.15,1-.06,2.15.33,3.25.78,2.18,2.58,3.87,4.3,3.81.83-.05,1.4-.49,1.64-.85.25-.38.23-.64.18-.65Z"/>
      <path class="st7" d="M229.95,364.77c.43,1.24-.26,2.63-1.55,3.11-1.29.47-2.68-.14-3.11-1.39-.43-1.24.26-2.63,1.55-3.11,1.29-.48,2.68.15,3.11,1.39Z"/>
      <path class="st7" d="M252.06,358.61c.43,1.24-.26,2.63-1.55,3.11-1.29.47-2.68-.14-3.11-1.39-.43-1.24.26-2.63,1.55-3.11,1.29-.48,2.68.15,3.11,1.39Z"/>
      <path class="st7" d="M248.58,350.75c-.14.42-2.33-.33-4.66.57-2.34.86-3.51,2.88-3.89,2.65-.18-.1-.14-.78.36-1.69.49-.9,1.5-1.97,2.96-2.52,1.46-.55,2.92-.4,3.87-.05.97.35,1.44.84,1.36,1.04Z"/>
      <path class="st7" d="M226.28,357.02c-.09.5-2.72.19-5.22,1.73-2.52,1.5-3.51,4-3.98,3.84-.22-.06-.3-.83.12-1.94.4-1.1,1.37-2.53,2.94-3.48,1.57-.95,3.26-1.14,4.4-.97,1.16.16,1.79.59,1.74.82Z"/>
      <path class="st9" d="M230.9,382.72c-.11-1.7,1.16-3.4,2.83-3.71,1.23-.23,2.54.26,3.39,1.18.85.91,1.26,2.2,1.18,3.45l.02.27c-.74,1.53-2.52,2.51-4.2,2.26-1.68-.25-3.12-1.75-3.23-3.44Z"/>
      <path class="st7" d="M240.28,383.39c-.12-.41-2.78.51-5.47-1.11-2.69-1.62-3.38-4.57-3.76-4.46-.18.02-.3.81.09,2.03.37,1.19,1.34,2.78,2.99,3.77,1.65.99,3.4,1.05,4.53.76,1.15-.29,1.71-.81,1.63-.99Z"/>
    </g>
    <g>
      <g>
        <path class="st5" d="M294.97,832.81l-3.17,33s35.97,13.44,36.36,20.09l-68,.18.04-4.97,2.85-16.98,4.2-32.97,27.72,1.65Z"/>
        <path class="st14" d="M271.34,860.69c-1.35.36-2.28,1.88-1.97,3.24.31,1.36,1.84,2.33,3.19,1.98,1.35-.34,2.53-2.12,2.07-3.44-.46-1.32-2.32-2.35-3.55-1.7"/>
        <path class="st7" d="M260.16,886.08l.04-4.97,65.22,1.25s3.09,1.36,2.74,3.54l-68,.18Z"/>
        <path class="st7" d="M292.93,865.46c-.01.34-1.71.49-3.39,1.58-1.7,1.04-2.57,2.51-2.88,2.38-.31-.07.2-2.1,2.25-3.38,2.04-1.3,4.09-.89,4.02-.58Z"/>
        <path class="st7" d="M300.22,868.5c.08.33-1.4.9-2.55,2.34-1.2,1.4-1.5,2.95-1.83,2.94-.32.05-.55-1.94.92-3.69,1.46-1.77,3.46-1.91,3.46-1.58Z"/>
        <path class="st7" d="M304.35,877.24c-.31.07-.78-1.63.1-3.49.86-1.87,2.47-2.6,2.61-2.31.19.28-.84,1.28-1.54,2.81-.73,1.52-.83,2.95-1.17,2.99Z"/>
        <path class="st7" d="M295.34,857.52c-.14.31-1.7-.16-3.62-.04-1.92.09-3.42.73-3.6.44-.2-.25,1.27-1.5,3.53-1.62,2.26-.13,3.85.95,3.69,1.22Z"/>
      </g>
      <g>
        <path class="st5" d="M211.41,833.74l-2.91,32.44s35.42,12.98,35.84,19.51l-66.8.59v-4.89s2.71-16.69,2.71-16.69l3.93-32.42,27.24,1.46Z"/>
        <path class="st14" d="M188.36,861.28c-1.32.37-2.23,1.86-1.92,3.19.31,1.34,1.82,2.27,3.15,1.93,1.33-.34,2.47-2.1,2.01-3.39s-2.29-2.3-3.5-1.64"/>
        <path class="st7" d="M177.54,886.29v-4.89s64.09.84,64.09.84c0,0,3.05,1.31,2.71,3.46l-66.8.59Z"/>
        <path class="st7" d="M209.6,865.83c0,.33-1.68.49-3.32,1.57-1.67,1.04-2.51,2.49-2.82,2.35-.31-.06.18-2.06,2.19-3.33,2-1.29,4.01-.9,3.94-.59Z"/>
        <path class="st7" d="M216.78,868.77c.08.32-1.37.9-2.49,2.31-1.17,1.38-1.45,2.91-1.78,2.9-.31.05-.55-1.9.89-3.63,1.42-1.75,3.38-1.89,3.39-1.57Z"/>
        <path class="st7" d="M220.89,877.34c-.3.07-.77-1.59.08-3.43.84-1.84,2.41-2.56,2.55-2.29.19.27-.82,1.26-1.5,2.77-.71,1.5-.8,2.91-1.13,2.94Z"/>
        <path class="st7" d="M211.93,858.02c-.14.3-1.67-.15-3.56-.02-1.89.1-3.36.74-3.53.45-.19-.24,1.23-1.48,3.46-1.61,2.22-.15,3.79.91,3.63,1.17Z"/>
      </g>
      <path class="st7" d="M296.44,545.84s16.12,46.68,16.67,81.4c.56,34.72,1.11,89.94-6.11,150.86-7.22,60.91-10.56,85.39-10.56,85.39h-36.68s-3.89-38.14-3.33-72.3c.56-34.16,3.23-44.97-.05-82.54-3.28-37.57-8.47-60.14-13.94-71.52,0,0-15.14-18-16.25-42.69-1.11-24.69,7.63-45.91,7.63-45.91l62.63-2.69Z"/>
      <path class="st7" d="M263.85,611.33c-.61,1.88-11.49,78.41-19.44,112.16-7.94,33.76-16.78,42.69-18.32,70.15-1.78,31.58-10.45,69.85-10.45,69.85h-39.06s5.49-58.38,10.99-104.01c5.49-45.63,13.43-101.89,12.21-118.77-1.22-16.88-4.27-37.72,0-61.37,4.27-23.65,13.51-29.88,13.51-29.88l33.14-1.5,17.44,63.37Z"/>
      <path class="st5" d="M227.08,567.55s-.23.4-.61,1.19c-.42.77-.82,2-1.33,3.59-.9,3.21-1.5,8.04-1.29,13.99.19,5.94,1.18,13,3.21,20.6,1.03,3.79,2.38,7.72,4.26,11.59,1.87,3.88,4.47,7.52,7.06,11.2,5.31,7.31,7.93,15.64,9.92,23.17,1.93,7.57,2.97,14.55,3.71,20.42.72,5.87,1.15,10.65,1.48,13.95.16,1.59.29,2.86.38,3.8.1.87.16,1.32.19,1.32.03,0,.02-.46-.02-1.33-.06-.94-.13-2.21-.23-3.81-.23-3.31-.57-8.09-1.22-13.99-.67-5.89-1.65-12.91-3.55-20.54-.95-3.81-2.15-7.77-3.7-11.77-.79-2-1.68-3.99-2.73-5.95-1.05-1.95-2.26-3.86-3.55-5.72-2.61-3.71-5.16-7.28-7.01-11.09-1.86-3.8-3.21-7.68-4.25-11.43-2.06-7.53-3.1-14.53-3.36-20.42-.29-5.9.22-10.69,1.02-13.89.45-1.58.8-2.82,1.17-3.61.32-.81.48-1.24.45-1.25Z"/>
    </g>
    <g>
      <path class="st10" d="M211.56,419.03l30.32-2.43s33.82,26.94,40.76,61.26c6.94,34.32,14.85,68.61,14.85,68.61l-61.72,7.6c-6.43.79-12.93.7-19.33-.27l-6.43-.97,5.29-21.79s-9.78-41.23-13.6-56.77c-8.29-33.72,9.87-55.24,9.87-55.24Z"/>
      <g class="st2">
        <path d="M269.7,484.6l25.02,49.02c-6.48-.23-11.1-2.92-15.5-7.68-4.41-4.76-7.46-10.59-10.4-16.37-7.44-14.64-14.61-29.88-16.1-46.23,6.19,6.64,11.87,13.75,16.97,21.25Z"/>
      </g>
      <path class="st3" d="M366.32,463.92c-2.78,1.01-2.83,1.14-2.83,1.14,0,0,.32-2.41,2.31-5.38.65-.97,1.92-3.61,1.98-4.47.22-3.03-2.1-5.26-4.03-1.83-.74,1.31-2.61,3.5-3.76,4.62-4.26,4.15-18.01,19.11-18.01,19.11l10.62,13.86s12.72-.74,20.22-3.03c5.65-1.72,7.86-3.84,7.9-5.16.04-1.31-2.2-2.09-2.2-2.09,0,0,1.4-2.03,1.14-3.78-.27-1.75-2.68-2.61-2.68-2.61,0,0,.82-1.59.87-3.4.05-1.8-2.22-3.96-2.22-3.96,0,0,3.75-1.41,1.67-4.66-.59-.92-2.35-1.38-5.6-.35-2.01.64-5.36,1.98-5.36,1.98Z"/>
      <path class="st10" d="M343.96,472.4c-.37.53-36.44,21.17-36.44,21.17,0,0-16.89-32.14-22.3-43.37-5.34-11.09-11.92-26.87-20.55-31.72-8.63-4.86-22.8-1.89-22.8-1.89l5.76,41.84,14,30.16s16.62,33.22,25.73,40.94c8.31,7.04,21.2,4.22,27.08.78,5.88-3.44,44.42-36.64,44.42-36.64l-14.9-21.27Z"/>
      <path class="st7" d="M247.63,458.92s.1.36.36,1c.31.72.7,1.65,1.19,2.8,1.06,2.42,2.62,5.9,4.61,10.18,3.98,8.55,9.72,20.27,16.52,32.96,3.43,6.32,6.56,12.47,10.44,17.45,1.92,2.49,4.03,4.65,6.24,6.38,2.23,1.73,4.62,2.92,6.9,3.6,4.6,1.41,8.58,1.07,11.16.58,1.3-.26,2.29-.56,2.95-.8.65-.24.99-.38.98-.41-.03-.08-1.4.45-3.98.88-2.56.39-6.47.62-10.92-.83-2.22-.7-4.51-1.89-6.65-3.58-2.14-1.71-4.18-3.85-6.05-6.31-3.77-4.92-6.88-11.06-10.31-17.37-6.79-12.68-12.61-24.34-16.73-32.82-2.01-4.18-3.66-7.59-4.85-10.06-.55-1.12-.99-2.03-1.33-2.73-.31-.62-.49-.94-.52-.93Z"/>
      <path class="st7" d="M200.78,459.86c-.06,0-.02.87.17,2.4.19,1.54.5,3.76.93,6.49.85,5.47,2.13,13.01,3.71,21.3,1.57,8.3,3.15,15.79,4.42,21.17.65,2.69,1.18,4.87,1.61,6.36.41,1.49.67,2.31.73,2.3.06-.01-.09-.86-.41-2.37-.35-1.67-.8-3.82-1.35-6.41-1.13-5.41-2.61-12.91-4.18-21.2-1.53-8.22-2.91-15.66-3.95-21.25-.48-2.6-.88-4.77-1.19-6.44-.29-1.52-.44-2.35-.5-2.35Z"/>
    </g>
    <path class="st7" d="M165.68,365.43c-5.07.93-10.19,2.43-14.27,5.58-4.08,3.15-6.97,8.23-6.37,13.35.6,5.12,5.43,9.73,10.55,9.06-4.42,3.15-6.25,9.46-4.21,14.49,2.04,5.03,7.76,8.27,13.12,7.45-5.03,3.53-3.9,11.95.75,15.96,4.65,4.01,11.26,4.69,17.4,4.67,5.09,6.6,14.09,9.92,22.25,8.22,8.16-1.7,15.08-8.35,17.1-16.44,6.66-1.22,11.7-8.21,10.74-14.91-.96-6.7-7.75-12.01-14.49-11.31.21-3.52-1.47-7.09-4.31-9.17s-6.73-3.97-11.76-2.08c0,0-5.68.98-8.17-2.58-2.49-3.56-5.17-12.69-5.17-12.69l-23.17-9.58Z"/>
    <path class="st7" d="M358.86,493.67s-.44-.46-1.16-1.42c-.79-1.07-1.81-2.46-3.09-4.19-2.71-3.79-6.47-9.03-11.03-15.4l.61.13c-9.79,5.73-22.23,13-35.75,20.91-.22.13-.43.25-.63.37l-.54.31-.28-.55c-8.26-16.42-15.71-31.25-21.19-42.14-2.61-5.31-4.74-9.65-6.29-12.81-.68-1.43-1.22-2.59-1.66-3.51-.37-.81-.54-1.24-.51-1.26.04-.02.28.38.72,1.15.48.89,1.1,2.02,1.85,3.41,1.63,3.12,3.88,7.4,6.62,12.64,5.56,10.85,13.12,25.62,21.5,41.98l-.81-.24c.2-.12.41-.24.63-.37,13.56-7.82,26.04-15.02,35.87-20.69l.37-.21.24.35c4.43,6.46,8.07,11.78,10.71,15.63,1.19,1.79,2.15,3.23,2.88,4.33.65,1,.97,1.54.94,1.57Z"/>
    <path class="st7" d="M303.94,507.56c-.32-.07.1-3.2.93-7,.83-3.8,1.75-6.82,2.07-6.75.31.07-.1,3.2-.93,7-.83,3.8-1.75,6.82-2.07,6.75Z"/>
  </g>
</svg>