<?xml version="1.0" encoding="UTF-8"?>
<svg id="Capa_1" xmlns="http://www.w3.org/2000/svg" version="1.1" viewBox="0 0 500 500">
  <!-- Generator: Adobe Illustrator 30.2.1, SVG Export Plug-In . SVG Version: 2.1.1 Build 1)  -->
  <defs>
    <style>
      .st0 {
        opacity: .61;
      }

      .st1 {
        opacity: .6;
      }

      .st2 {
        fill: #263238;
      }

      .st3 {
        fill: #fff;
      }

      .st4 {
        fill: #ffbe9d;
      }

      .st5 {
        fill: #ac0340;
      }

      .st6 {
        fill: #e0e0e0;
      }

      .st7 {
        fill: #c78976;
      }

      .st8 {
        fill: #ffd6bd;
      }

      .st9 {
        fill: #8b5d54;
      }

      .st10, .st11 {
        opacity: .3;
      }

      .st11 {
        isolation: isolate;
      }

      .st12 {
        fill: #455a64;
      }

      .st13 {
        fill: #ebebeb;
      }

      .st14 {
        fill: #f5f5f5;
      }

      .st15 {
        fill: #eb996e;
      }

      .st16 {
        fill: #ffb394;
      }
    </style>
  </defs>
  <g id="freepik--background-complete--inject-38">
    <path class="st13" d="M53.62,365.16s-6.24,2.52,1,15.76,12.11,19.75,12.11,19.75c0,0,1.29,3.08-1.32,3.63s-8.4-.22-9.48,3,1.37,6.43,6.34,9.06,15.64,8.77,16.61,9.33,1.91,2,.2,2.64-14.66,2.35-13.49,8.44,16.21,11.14,17.85,11.72,2,1.26,1.93,2.15-4.52,1-8.18,1.68-7.8,2-6.83,5.47,10,10.54,31.49,12.09l10,.06,5.23-8.58c10-19.06,8.81-30.47,6.38-33.12s-5.77.13-8.25,2.9-4.93,6.43-5.75,6-1.17-1.08-.8-2.77,4-17.13-.5-21.35-12.84,5.88-14.31,7-2.16-.47-2.13-1.57.46-13.43.86-19-.89-9.36-4.33-10.18-5.73,4.54-7.58,6.46-3.78-.81-3.78-.81c0,0-2.93-7.61-10.36-20.71s-13-9-13-9"/>
    <path class="st6" d="M112.38,472.3c-5.42-9.64-14.76-26.94-22.85-41.75s-15.44-28.21-20.81-37.88l-6.37-11.44-1.73-3.11c-.19-.35-.34-.62-.44-.82-.07-.1-.13-.2-.18-.3l.17.27.47.8,1.78,3.08c1.54,2.68,3.75,6.57,6.45,11.4,5.42,9.64,12.79,23,20.89,37.83s17.41,32.13,22.77,41.8"/>
    <path class="st6" d="M63.94,408.72c.24.04.47.1.7.18.45.13,1.09.34,1.88.6,1.57.53,3.73,1.32,6.09,2.24l6,2.36,1.83.71c.23.07.46.16.67.28-.24-.03-.48-.09-.71-.17-.44-.13-1.08-.34-1.87-.61-1.57-.55-3.72-1.37-6.08-2.28l-6.06-2.32-1.79-.71c-.23-.06-.45-.16-.66-.28Z"/>
    <path class="st6" d="M81.82,414.44c-.08,0,1.36-4.55,3.21-10.09s3.41-10,3.49-10-1.35,4.55-3.2,10.09-3.41,10.02-3.5,10Z"/>
    <path class="st6" d="M93.23,437.74c.1-.23.23-.44.39-.63l1.14-1.65c1-1.4,2.29-3.33,3.67-5.51s2.57-4.21,3.41-5.68l1-1.74c.11-.22.24-.42.39-.62-.07.24-.17.47-.29.68-.21.43-.52,1-.92,1.79-.79,1.5-2,3.54-3.34,5.73s-2.74,4.11-3.75,5.48c-.51.68-.92,1.22-1.22,1.59-.14.2-.3.39-.48.56Z"/>
    <path class="st6" d="M75.92,436.13c.23-.02.45-.02.68,0l1.85.1c1.57.1,3.73.26,6.11.45s4.54.38,6.1.53l1.85.2c.23.01.45.05.67.11-.23.02-.45.02-.68,0l-1.85-.1c-1.57-.1-3.73-.25-6.11-.44s-4.54-.38-6.1-.54l-1.85-.19c-.23-.01-.45-.05-.67-.12Z"/>
    <path class="st6" d="M83.37,458c.29-.03.59-.03.88,0l2.37.12c2,.11,4.78.29,7.84.51s5.82.42,7.82.59l2.37.22c.29.02.58.06.87.12-.29.03-.58.03-.87,0l-2.38-.12c-2-.11-4.78-.29-7.84-.5s-5.82-.43-7.82-.6l-2.37-.22c-.29,0-.58-.05-.87-.12Z"/>
    <path class="st6" d="M105,459.35c.13-.28.29-.55.47-.8l1.38-2.15c1.16-1.81,2.74-4.32,4.42-7.14s3.13-5.41,4.17-7.3c.5-.9.92-1.65,1.23-2.23.14-.28.31-.55.49-.8-.1.3-.23.58-.38.86-.26.54-.65,1.32-1.14,2.28-1,1.91-2.42,4.52-4.1,7.35s-3.3,5.32-4.51,7.1c-.6.89-1.1,1.61-1.46,2.09-.16.27-.35.51-.57.74Z"/>
    <circle class="st13" cx="292.32" cy="98.73" r="44.86"/>
    <path class="st14" d="M255,98.73c0-20.62,16.72-37.34,37.34-37.34s37.34,16.72,37.34,37.34-16.72,37.34-37.34,37.34h0c-20.61-.02-37.32-16.73-37.34-37.34ZM261.39,98.73c0,17.09,13.86,30.95,30.95,30.95,17.09,0,30.95-13.86,30.95-30.95s-13.86-30.95-30.95-30.95c-17.09.02-30.94,13.86-30.97,30.95h.02Z"/>
    <path class="st14" d="M278.82,97.74c0-7.59,6.16-13.75,13.75-13.75s13.75,6.16,13.75,13.75-6.16,13.75-13.75,13.75h0c-7.59-.01-13.74-6.16-13.75-13.75ZM285.21,97.74c0,4.06,3.3,7.36,7.36,7.36s7.36-3.3,7.36-7.36-3.3-7.36-7.36-7.36h0c-4.06,0-7.35,3.3-7.36,7.36h0Z"/>
    <polygon class="st6" points="292.57 97.74 309.95 97.74 306.92 103.11 347.83 121.86 346.45 124.16 305.4 105.62 302.59 110.95 292.57 97.74"/>
    <path class="st6" d="M347.83,121.86l.43-.43c2.15-2.08,5.26-2.85,8.13-2l16.31,4.75-9.08,4,3.65,9.71-15.27-5.49c-3.45-1.23-5.69-4.58-5.51-8.24h0l1.34-2.3Z"/>
    <path class="st6" d="M79.34,180.44c1.94-1.18,4.03-2.08,6.21-2.7l1.28-6.15,10.38-.18,1.5,6.1c2.2.55,4.31,1.38,6.29,2.49l5.25-3.44,7.47,7.21-3.25,5.37c1.17,1.94,2.08,4.03,2.7,6.21l6.14,1.28.19,10.37-6.09,1.5c-.55,2.2-1.38,4.32-2.48,6.3l3.44,5.25-7.22,7.47-5.36-3.25c-1.94,1.16-4.03,2.07-6.21,2.7l-1.28,6.14-10.39.19-1.49-6.1c-2.2-.54-4.32-1.38-6.3-2.48l-5.25,3.44-7.47-7.22,3.25-5.36c-1.17-1.94-2.08-4.03-2.7-6.21l-6.15-1.28-.18-10.39,6.1-1.49c.54-2.2,1.38-4.32,2.48-6.3l-3.44-5.25,7.24-7.47,5.37,3.25h-.03ZM84.87,194.27c-4.28,4.43-4.16,11.49.26,15.77,4.43,4.28,11.49,4.16,15.77-.26,4.28-4.43,4.16-11.49-.26-15.77,0,0,0,0,0,0-4.43-4.28-11.48-4.15-15.76.27Z"/>
    <path class="st13" d="M60.9,240.3c1.16-.7,2.41-1.25,3.72-1.62l.77-3.68,6.21-.11.9,3.65c1.31.32,2.58.81,3.77,1.46l3.14-2,4.48,4.31-2,3.22c.7,1.16,1.25,2.41,1.61,3.71l3.68.77.11,6.22-3.65.89c-.32,1.32-.82,2.59-1.48,3.77l2.11,3.11-4.27,4.48-3.21-2c-1.18.72-2.46,1.29-3.79,1.67l-.77,3.68-6.21.1-.9-3.65c-1.32-.32-2.59-.82-3.77-1.48l-3.14,2.06-4.47-4.32,1.94-3.21c-.7-1.16-1.24-2.41-1.61-3.72l-3.68-.76-.11-6.22,3.65-.9c.33-1.3.84-2.56,1.5-3.73l-2.06-3.14,4.32-4.47,3.21,2v-.09ZM64.22,248.58c-2.56,2.65-2.48,6.87.17,9.43,2.65,2.56,6.87,2.48,9.43-.17,2.56-2.65,2.48-6.87-.17-9.43,0,0,0,0,0,0-2.65-2.56-6.87-2.48-9.43.17Z"/>
    <path class="st13" d="M64.22,248.58c.35-.43.77-.8,1.24-1.09,1.29-.83,2.83-1.18,4.35-1,1.07.09,2.09.43,3,1,1.02.67,1.85,1.6,2.39,2.69.3.59.5,1.23.61,1.88.1.66.1,1.34,0,2-.36,3.01-2.65,5.43-5.64,5.94-.66.1-1.34.1-2,0-.65-.08-1.29-.27-1.89-.54-2.12-.95-3.6-2.92-3.93-5.22-.23-1.52.08-3.07.87-4.38.26-.48.6-.91,1-1.28-.33.43-.64.88-.92,1.35-.71,1.3-.97,2.8-.74,4.27.35,2.18,1.78,4.04,3.81,4.93.57.26,1.18.43,1.8.5.64.11,1.3.11,1.94,0,1.36-.24,2.61-.89,3.57-1.88.96-.99,1.57-2.26,1.75-3.63.11-.64.11-1.3,0-1.94-.09-.62-.29-1.22-.57-1.78-.96-1.99-2.86-3.36-5.06-3.63-1.47-.19-2.97.12-4.24.88-.46.28-.91.6-1.34.93Z"/>
    <path class="st13" d="M60.9,240.29c-.07-.03-.14-.06-.2-.1l-.62-.36-2.42-1.43h.08l-4.3,4.5v-.12l2.08,3.13v.12c-.65,1.18-1.14,2.43-1.46,3.74v.08h-.07l-3.65.9.1-.13c0,2,.08,4,.13,6.21l-.12-.14,3.68.76h.09v.09c.37,1.29.91,2.52,1.6,3.67l.06.09-.06.09-1.94,3.21v-.21l4.48,4.31h-.22l3.14-2.06.09-.06.1.05c1.17.65,2.43,1.14,3.73,1.46h.1v.11l.9,3.65-.19-.14,6.22-.11-.18.15.76-3.68v-.12h.11c1.29-.36,2.52-.9,3.66-1.59h0l.1-.06.1.06,3.21,1.95h-.24l4.32-4.48v.24l-2.02-3.07-.06-.1.05-.1c.66-1.17,1.15-2.42,1.47-3.72v-.11h.11l3.68-.97-.14.18c0-2.12-.07-4.2-.1-6.22l.14.17-3.68-.77h-.1v-.1c-.36-1.29-.9-2.53-1.59-3.68v-.17l2-3.21v.2l-4.47-4.33h.18l-3.14,2h-.15c-1.17-.66-2.43-1.15-3.73-1.48h-.08v-.07c-.32-1.33-.61-2.52-.89-3.65l.12.08-6.22.09.08-.07c-.31,1.46-.57,2.67-.79,3.67h0c-.98.27-1.93.64-2.84,1.09l-.67.35c-.07.05-.15.08-.23.11l.21-.14.66-.37c.9-.49,1.85-.88,2.83-1.16h0c.2-1,.45-2.22.74-3.69v-.06h.07l6.21-.13h.09v.08l.91,3.65-.09-.09c1.33.32,2.61.82,3.81,1.48h-.24l3.13-2.07.1-.06.08.08,4.49,4.46.09.09-.07.11-1.94,3.21v-.17c.71,1.18,1.26,2.44,1.64,3.76l-.13-.12,3.68.76h.14v.19c.04,2,.08,4.07.11,6.21v.15h-.14l-3.65.9.13-.13c-.32,1.33-.83,2.61-1.5,3.81v-.19l2.06,3.14.08.13-.11.11-4.31,4.47-.11.11-.13-.08-3.21-1.95h.19c-1.17.71-2.44,1.26-3.76,1.63l.14-.14c-.27,1.26-.53,2.51-.77,3.67v.15h-.15l-6.22.1h-.15v-.14c-.3-1.26-.61-2.51-.89-3.65l.14.13c-1.33-.33-2.62-.83-3.82-1.5h.19l-3.2,2.07-.12.08-.11-.1-4.46-4.33-.1-.09.07-.12c.68-1.11,1.35-2.21,2-3.21v.17c-.71-1.17-1.25-2.44-1.62-3.76l.11.12-3.72-.76h-.12v-.12c0-2.18-.07-4.26-.1-6.22v-.11h.11l3.65-.89-.09.09c.33-1.32.84-2.6,1.5-3.79v.04l-2.05-3.15v-.12l4.35-4.45h0l2.37,1.47.61.38.29.16Z"/>
    <polygon class="st14" points="414.86 227.87 414.98 211.46 430.81 215.29 414.86 227.87"/>
    <rect class="st14" x="428.6" y="215.89" width="9.25" height="37.41" transform="translate(-52.23 318.57) rotate(-38.25)"/>
    <polygon class="st13" points="394.17 268.06 396.39 234.84 427.99 244.49 394.17 268.06"/>
    <rect class="st13" x="421.19" y="245.91" width="18.78" height="75.93" transform="translate(-84.99 297.14) rotate(-34.87)"/>
  </g>
  <g id="freepik--Floor--inject-38">
    <path class="st2" d="M474.69,470.48c0,.14-97.7.26-218.19.26s-218.22-.12-218.22-.26,97.68-.26,218.22-.26,218.19.12,218.19.26Z"/>
  </g>
  <g id="freepik--Plant--inject-38">
    <path class="st12" d="M367.17,427.17c2.09.79,3.76,2.39,4.64,4.44.86,2.04,1.24,4.24,1.12,6.45-.13,4.26-2.16,8.72-4.46,12.31-3.81-2.8-5.09-8.14-5.56-10.89-.75-4.34.52-12.65,4.26-12.31"/>
    <path class="st12" d="M373.19,457c-.7-2.41-.06-5.01,1.69-6.82,1.77-1.76,4.16-2.73,6.65-2.71,1.15-.11,2.29.29,3.11,1.1.63.87.75,2.02.3,3-.46.97-1.17,1.79-2.05,2.4-2.91,2.19-6.13,3.77-9.7,3"/>
    <path class="st2" d="M369.73,470.3c-.02-.29-.02-.59,0-.88.06-.62.14-1.42.23-2.38.18-2.64.79-5.23,1.79-7.68,1.05-2.45,2.74-4.57,4.88-6.16.66-.46,1.37-.85,2.11-1.16.26-.11.48-.16.62-.21l.22-.05c-.99.44-1.93.97-2.82,1.59-2.06,1.61-3.69,3.71-4.73,6.11-.99,2.42-1.61,4.98-1.85,7.59-.13,1-.24,1.81-.33,2.37-.01.29-.05.58-.12.86Z"/>
    <path class="st2" d="M366.76,433.59c.04.12.06.24.07.37,0,.28.1.64.16,1.08.13.94.3,2.3.5,4,.39,3.37.88,8,1.29,13.19s.68,9.85.83,13.24c.07,1.69.12,3.07.14,4v1.48c-.01-.13-.01-.25,0-.38,0-.28,0-.64-.08-1.09-.06-1-.14-2.35-.24-4-.2-3.39-.51-8.06-.92-13.22s-.86-9.82-1.2-13.2c-.16-1.66-.3-3-.4-4l-.1-1.09c-.03-.12-.05-.25-.05-.38Z"/>
    <path class="st12" d="M367.26,460.07c-1.31-5.11-5-9.28-9.91-11.2-1.24-.46-2.82-.7-3.72.26s-.55,2.54,0,3.72c2.58,5.03,7.92,8.01,13.55,7.57"/>
    <path class="st2" d="M358.26,452.83c.27.06.53.15.78.26.3.11.6.24.89.38.39.18.77.37,1.14.59.45.25.89.53,1.32.83.5.33.97.7,1.42,1.09,2.1,1.78,3.73,4.05,4.75,6.6.22.56.41,1.12.56,1.7.15.5.26,1.01.35,1.52.08.42.13.85.16,1.28.04.33.06.67.06,1,.02.28.02.55,0,.83-.07,0-.05-1.18-.42-3-.1-.46-.2-1-.37-1.49-.17-.56-.36-1.12-.58-1.66-1.04-2.5-2.63-4.72-4.67-6.5-.48-.4-.93-.78-1.39-1.09-.41-.31-.84-.59-1.28-.85-1.64-1.04-2.75-1.43-2.72-1.49Z"/>
  </g>
  <g id="freepik--speech-bubble--inject-38">
    <path class="st3" d="M377.05,188.15l11.69-6.63c14.73,9.08,34.03,4.5,43.11-10.23s4.5-34.03-10.23-43.11c-14.73-9.08-34.03-4.5-43.11,10.23-6.85,11.11-6.09,25.29,1.89,35.61h0l-3.35,14.13Z"/>
    <path class="st2" d="M377.05,188.15c.21-.89,1.19-5.24,3.21-14.17v-.2l.16.13h0l-.18.18c-3.41-4.35-5.6-9.53-6.35-15-.24-1.66-.32-3.33-.26-5,.05-.86.07-1.73.15-2.6s.26-1.76.39-2.65c1.55-7.89,6.05-14.89,12.57-19.59,3.61-2.61,7.74-4.41,12.1-5.3,4.64-.91,9.42-.78,14,.37,4.77,1.19,9.19,3.49,12.89,6.72,3.79,3.28,6.75,7.42,8.62,12.08,1.76,4.45,2.5,9.23,2.16,14-.31,4.52-1.61,8.92-3.81,12.89-3.95,7.16-10.5,12.53-18.3,14.99-3.31.97-6.74,1.43-10.19,1.36-5.5-.16-10.86-1.78-15.53-4.69h.12l-11.75,6.52,11.63-6.74h.13c4.65,2.83,9.96,4.4,15.41,4.55,3.4.05,6.8-.42,10.06-1.39,7.66-2.43,14.1-7.69,18-14.71,2.16-3.91,3.43-8.24,3.73-12.7.33-4.71-.4-9.43-2.14-13.82-1.84-4.58-4.75-8.65-8.48-11.88-3.64-3.18-7.99-5.44-12.68-6.61-4.49-1.13-9.18-1.26-13.72-.37-4.3.86-8.36,2.63-11.92,5.19-6.44,4.62-10.88,11.52-12.43,19.29-.14.88-.27,1.75-.41,2.61s-.1,1.72-.15,2.57c-.07,1.64.01,3.28.23,4.9.72,5.43,2.85,10.57,6.19,14.91l.62.8-.8-.62h0l.2-.07-3.47,14.05Z"/>
    <path class="st5" d="M400,152h1.83l4-5.56v-3.64s2.83-.18,2.49,4.6,0,3.57,0,3.57c0,0,6,0,6.5.54s.53,6.34.59,9.58c.08,1.6-.94,3.06-2.48,3.52-.21.06-.42.09-.64.09-1.5,0-9.15-1.22-9.15-1.22h-3.14v-11.48Z"/>
    <polygon class="st5" points="394.78 151.01 395.91 163.52 399.04 163.52 399.04 151.26 394.78 151.01"/>
  </g>
  <g id="freepik--Characters--inject-38">
    <path class="st5" d="M148.25,207.16l-15,5.5-7.91,16.66c-.37,3.44-9,38.17-9,38.17l-8.65,30.91c16.56,7.57,38.52,18.37,60.51,17.5l2.8-26.52,15.08-57.63-11.51-22.86-3.94-.53-22.38-1.2Z"/>
    <path class="st12" d="M78.48,433.13l-11.31,14.74s11.2,16.44,9.37,19.37l-29.37-20.88,16.66-23.7,14.65,10.47Z"/>
    <g class="st1">
      <path class="st3" d="M59,440.14c-.71-.24-1.49.1-1.81.78-.25.71.08,1.49.76,1.8.76.25,1.58-.11,1.9-.84.2-.77-.24-1.55-1-1.78"/>
    </g>
    <g class="st1">
      <path class="st3" d="M47.17,446.36l1.77-2.36,27.5,20.9s.91,1.5.1,2.31l-29.37-20.85Z"/>
    </g>
    <path class="st2" d="M67.76,448.06c-.11.14-.87-.3-1.91-.34s-1.83.29-1.93.14.71-.83,2-.75,1.96.89,1.84.95Z"/>
    <path class="st2" d="M69.93,451.53c-.06.16-.86,0-1.78.22s-1.51.8-1.65.7.35-1,1.49-1.29,2.01.23,1.94.37Z"/>
    <path class="st2" d="M69.06,456.46c-.15-.06.16-.92,1.09-1.44s1.82-.36,1.79-.2-.74.29-1.49.73-1.24,1-1.39.91Z"/>
    <path class="st2" d="M70,444.42c-.15.08-.67-.58-1.52-1.1s-1.66-.72-1.65-.89,1-.26,2,.37,1.28,1.55,1.17,1.62Z"/>
    <g class="st10">
      <polygon points="73.34 440.26 71.33 442.89 56.98 432.49 58.69 430.05 73.34 440.26"/>
    </g>
    <path class="st2" d="M72.19,441.4c0,.06-.68-.25-1.47-1-.46-.47-.87-1-1.2-1.57-.2-.32-.38-.66-.53-1-.1-.21-.16-.43-.2-.66-.04-.35.15-.68.48-.81.29-.09.61-.05.86.12.19.13.36.29.5.47.67.78,1.14,1.71,1.37,2.71.19.59.19,1.22,0,1.81-.1,0-.11-.68-.44-1.69-.29-.94-.78-1.81-1.44-2.54-.25-.3-.52-.49-.7-.41s-.08.05-.08.19c.02.17.08.33.15.48.13.34.28.68.46,1,.29.55.62,1.07,1,1.56.77.83,1.29,1.26,1.24,1.34Z"/>
    <path class="st2" d="M71.85,441.47c.03-.61.25-1.2.62-1.69.36-.56.82-1.06,1.35-1.47.31-.24.65-.45,1-.63.44-.28,1-.31,1.47-.08.26.2.39.53.32.85-.05.23-.12.44-.23.65-.49.97-1.35,1.71-2.38,2.06-.58.24-1.23.24-1.81,0,.56-.12,1.11-.27,1.66-.45.55-.25,1.04-.6,1.45-1.05.23-.26.42-.56.58-.87.17-.35.23-.68.1-.73-.29-.1-.6-.06-.86.11-.33.15-.64.33-.93.54-.52.36-.98.79-1.36,1.29-.66.86-.83,1.51-.98,1.47Z"/>
    <path class="st12" d="M167.83,443l-6.51,16.38s18.7,6.77,18.94,10.21l-36,.29,5.62-26.79,17.95-.09Z"/>
    <g class="st1">
      <path class="st3" d="M150.16,457.94c-.71.23-1.14.96-1,1.69.21.72.94,1.16,1.67,1,.76-.24,1.21-1.01,1.05-1.79-.29-.75-1.13-1.12-1.88-.84"/>
    </g>
    <g class="st1">
      <path class="st3" d="M144.21,469.91l.61-2.91,34,.8s1.61.69,1.44,1.82l-36.05.29Z"/>
    </g>
    <path class="st2" d="M161.9,459.23c0,.17-.89.26-1.75.83s-1.31,1.32-1.48,1.25.1-1.09,1.15-1.76,2.11-.49,2.08-.32Z"/>
    <path class="st2" d="M165.69,460.76c0,.17-.72.48-1.31,1.22s-.76,1.54-.93,1.54-.3-1,.46-1.92,1.78-1.01,1.78-.84Z"/>
    <path class="st2" d="M167.87,465.27c-.16,0-.41-.84,0-1.81s1.26-1.36,1.34-1.21-.43.66-.78,1.46-.38,1.54-.56,1.56Z"/>
    <path class="st2" d="M163.29,455.88c-.07.16-.88-.07-1.88,0s-1.76.4-1.86.25.65-.79,1.82-.86,2,.47,1.92.61Z"/>
    <path class="st2" d="M163.63,453.73c-.59.16-1.21.16-1.8,0-.65-.11-1.28-.3-1.89-.56-.36-.16-.71-.34-1.05-.55-.2-.11-.38-.25-.54-.42-.24-.25-.28-.64-.09-.93.18-.25.46-.4.77-.41.23,0,.45.03.67.09.39.09.77.21,1.13.37.61.27,1.17.64,1.67,1.08.85.77,1.14,1.43,1.08,1.46s-.49-.49-1.35-1.12c-.5-.37-1.04-.66-1.62-.89-.32-.13-.66-.24-1-.32-.38-.09-.7-.09-.8.08s0,.09,0,.2c.12.12.25.22.4.31.32.19.66.37,1,.53.56.27,1.15.5,1.75.66.57.1,1.13.24,1.67.42Z"/>
    <path class="st2" d="M163.59,453.73c-.35-.51-.52-1.12-.49-1.74-.04-.67.04-1.35.23-2,.11-.38.26-.75.45-1.1.19-.49.62-.84,1.14-.92.33,0,.63.2.76.5.1.21.16.43.19.66.06.4.06.81,0,1.21-.09.68-.34,1.32-.75,1.87-.7.94-1.43,1.16-1.45,1.1s.55-.43,1.09-1.33c.3-.52.49-1.1.55-1.7.05-.35.05-.7,0-1.05-.06-.38-.2-.69-.35-.65s-.48.29-.62.6c-.18.32-.33.65-.44,1-.2.58-.31,1.19-.34,1.8-.07,1.02.12,1.72.03,1.75Z"/>
    <path class="st8" d="M210,147.67l-5.54,37.67-25.39,24.34,9.41,16.21,28.81-26.89c2.17-1.65,3.7-4.01,4.32-6.67v-38.97l-.19-12.68-11.42,6.99Z"/>
    <path class="st2" d="M108.36,295.47c-.74,1.53-14.36,72.3-14.36,72.3l-38.11,62,19.81,14.43,47.09-61.37,25.74-78-40.17-9.36Z"/>
    <path class="st2" d="M160.11,302.83c1.11.74,30.27,61.58,29.9,66s-22.35,85.65-22.35,85.65l-22.39-4.12,13.87-79.23-26.31-36.94,8.59-33.61,18.69,2.25Z"/>
    <polygon class="st5" points="190.65 196.25 176.2 208.25 173.5 208.68 184.38 232.71 204.44 216.52 190.65 196.25"/>
    <path class="st5" d="M148.25,207.16l-15,5.5-7.91,16.66c-.37,3.44-9,38.17-9,38.17l-8.65,30.91c16.56,7.57,38.52,18.37,60.51,17.5l2.8-26.52,15.22-58.15-11.65-22.34-3.94-.53-22.38-1.2Z"/>
    <path class="st8" d="M170.27,211.7c.36-2.78.67-5.09.72-5.37,0,0,9.5.35,11.39-8.85.92-4.45,2.06-13.75,3-22.19.99-9.06-5.13-17.36-14.07-19.09l-.89-.17c-9.7-1.29-16.22,6.22-17.25,15.95l-4.66,35.53s9,8,14.23,10.61c6.77,3.33,7.53-6.42,7.53-6.42Z"/>
    <path class="st16" d="M171,206.2c-4.27-.75-8.23-2.74-11.36-5.74,0,0,1.56,7.18,10.92,8.13l.44-2.39Z"/>
    <path class="st2" d="M183.11,179.62c-.19.16-1.44-.38-3.17-.26s-3,.81-3.18.68.1-.34.65-.66c.78-.43,1.64-.67,2.53-.72.86-.07,1.73.06,2.53.39.53.25.74.5.64.57Z"/>
    <path class="st2" d="M168.61,178.4c-.24.06-1.12-1-2.72-1.62s-3-.6-3.13-.81.23-.25.86-.29c.88-.03,1.76.14,2.58.48.8.32,1.52.82,2.09,1.46.38.46.44.76.32.78Z"/>
    <path class="st2" d="M167.74,180.79c-.08.55-.59.92-1.14.84-.01,0-.03,0-.04,0-.55-.07-.94-.57-.87-1.11,0,0,0,0,0,0,.08-.55.59-.92,1.14-.84.01,0,.03,0,.04,0,.55.07.94.57.87,1.11,0,0,0,0,0,0Z"/>
    <path class="st2" d="M181.71,183.29c-.08.55-.58.93-1.13.85-.02,0-.03,0-.05,0-.55-.07-.94-.57-.87-1.11,0,0,0,0,0,0,.08-.55.58-.93,1.13-.85.02,0,.03,0,.05,0,.55.07.94.57.87,1.11,0,0,0,0,0,0Z"/>
    <path class="st2" d="M171.66,188.51c.79-.1,1.59-.1,2.38,0,.37,0,.72,0,.83-.21.11-.36.11-.76,0-1.12-.17-.94-.35-1.93-.54-3-.73-4.21-1.18-7.64-1-7.67s.9,3.36,1.62,7.57c.18,1,.34,2,.49,3,.15.48.12,1-.08,1.46-.16.24-.42.39-.7.41-.21.03-.42.03-.63,0-.81-.04-1.6-.19-2.37-.44Z"/>
    <path class="st2" d="M169.07,171.29c-.19.32-1.4-.08-2.9-.18s-2.77.08-2.91-.27c0-.17.22-.46.76-.71.71-.3,1.49-.42,2.26-.35.77.05,1.51.29,2.17.69.49.33.71.66.62.82Z"/>
    <path class="st2" d="M183.51,175.92c-.19.27-1.37-.19-2.84-.41s-2.71-.18-2.83-.49c-.05-.15.22-.37.76-.53.72-.2,1.48-.23,2.22-.11.75.12,1.46.39,2.1.79.48.33.68.63.59.75Z"/>
    <path class="st8" d="M152.61,179c-.15-.1-6-3.1-7,3.24s5.56,6.05,5.6,5.87,1.4-9.11,1.4-9.11Z"/>
    <path class="st16" d="M149.67,185.36s-.13.06-.33.12c-.28.07-.58.02-.83-.12-.75-.67-1.08-1.68-.87-2.66.07-.55.27-1.07.57-1.53.19-.39.57-.66,1-.71.28-.03.54.14.61.41.05.19,0,.31,0,.32s.16-.08.15-.35c-.01-.16-.08-.32-.19-.44-.15-.16-.36-.26-.58-.26-.55.02-1.04.32-1.31.8-.36.51-.59,1.09-.67,1.71-.25,1.14.21,2.33,1.17,3,.32.15.68.15,1,0,.24-.14.3-.27.28-.29Z"/>
    <path class="st2" d="M169.63,192.74c.09-.15-1.12-.67-1.85-2-.31-.56-.54-1.15-.69-1.77-.13-.48-.24-.79-.31-.77s-.09.32,0,.84c.04.7.25,1.39.6,2,.35.61.86,1.1,1.48,1.44.42.26.75.31.77.26Z"/>
    <path class="st2" d="M198.7,168.42c-.06-.4-.27-.76-.6-1-.71-.42-1.51-.65-2.33-.66-2.47-.34-4.8-1.36-6.73-2.95-.81-1.52-1.74-2.96-2.79-4.33-2.47-3.24-4.55-5.49-6.83-6.74-3.53-1.77-7.48-2.55-11.42-2.24-3.33.46-6.54,2.74-7.39,6-1.63-1.75-4.35-2.06-6.66-1.43h-.06c-2.56.58-4.26,3-5.29,5.44s-1.65,5.06-3.24,7.15c-.34.44-.73,1-.55,1.48.17.39.57.64,1,.6.43-.04.84-.17,1.21-.38-.35.63-.71,1.25-1.06,1.87.88.26,1.8.3,2.7.14.2,2.29.53,4.57,1,6.82.94.02,1.84.37,2.53,1,.77.88,1,2.38,2.48,2,.76-.2,1.61-1.65,1.94-2.36,2.21-4.78,3.37-9.98,3.39-15.24,1.15-.97,2.48-1.71,3.91-2.17l-.13.08c2.71-.59,5.75-1.13,8.07.38,1.8,1.17,2.69,3.29,3.93,5,2.32,3.25,5.87,5.42,9.82,6-.17,2.63-.83,6.3-1,8.93l2.7-3.93h0c.21-.29.4-.58.58-.87l.06-.09h0c.29-.47.57-1,.92-1.41h0c.64.65,1.68.66,2.33.02.51-.5.64-1.28.32-1.92-.19-.33-.42-.63-.7-.89.58.71,1.49,1.06,2.39.93.92-.15,1.61-.91,1.67-1.84,0-.62-.33-1.19-.86-1.5,1.14.22,2.32.11,3.4-.34.7-.17,1.42-.7,1.29-1.55Z"/>
    <path class="st12" d="M163.41,157.91c-.35.22-.69.48-1,.75-.84.8-1.46,1.8-1.79,2.91-.25.76-.43,1.54-.52,2.34-.11.85-.15,1.78-.19,2.75-.04,1.03-.14,2.05-.3,3.06-.09.54-.23,1.06-.4,1.58-.15.56-.44,1.07-.84,1.48-.37.33-.89.44-1.36.29-.45-.14-.83-.42-1.1-.81-.42-.75-.64-1.61-.62-2.47l.19.05c-.36.67-.82,1.28-1.36,1.81-.52.49-1.2.77-1.92.77-.33,0-.66-.1-.94-.28-.26-.18-.46-.43-.58-.72-.1-.27-.14-.56-.1-.85.05-.27.18-.51.39-.68l.09.1c-.63.57-1.37,1-2.18,1.26-.21.07-.42.12-.64.16-.08.01-.15.01-.23,0l.22-.06c.14,0,.36-.1.63-.2.78-.29,1.5-.72,2.11-1.29l.09.1c-.36.36-.46.91-.23,1.37.11.26.29.48.52.64.26.16.55.24.85.24.67,0,1.31-.26,1.79-.73.52-.53.97-1.13,1.32-1.78l.17-.28v.33c-.01.82.19,1.64.58,2.36.25.34.6.6,1,.72.4.13.84.03,1.16-.24.37-.39.64-.87.78-1.39.17-.51.3-1.02.39-1.55.16-.99.26-1.99.3-3,.06-1,.11-1.9.22-2.77.1-.8.29-1.59.55-2.36.36-1.13,1.01-2.14,1.88-2.93.32-.28.68-.51,1.07-.68Z"/>
    <path class="st12" d="M191.09,170.37h-.08l-.25.14c-.14.08-.28.15-.43.21-.2.09-.4.17-.6.23-1.31.42-2.71.5-4.06.24-2.01-.37-3.87-1.32-5.36-2.73-1.79-1.74-3.2-3.82-4.16-6.13-.55-1.2-1-2.42-1.44-3.56-.43-1.1-1.02-2.14-1.74-3.08-.66-.84-1.51-1.51-2.49-1.94-.44-.18-.91-.3-1.39-.33-.44-.03-.89,0-1.32.1-.75.16-1.46.48-2.08.93-.47.35-.88.76-1.21,1.24-.27.42-.48.87-.64,1.34v-.1l.07-.28c.12-.35.29-.68.48-1,.33-.49.74-.93,1.21-1.29.99-.78,2.23-1.17,3.48-1.1.5.03.99.14,1.45.33,1.01.44,1.9,1.13,2.57,2,.74.95,1.35,2,1.79,3.12.48,1.14.9,2.36,1.44,3.55.94,2.28,2.33,4.34,4.09,6.07,1.45,1.4,3.28,2.34,5.26,2.73,1.33.26,2.7.21,4-.17.94-.26,1.4-.55,1.41-.52Z"/>
    <path class="st12" d="M192.42,166.38s-.12.09-.36.2c-.32.15-.66.28-1,.38-.53.15-1.08.26-1.63.33-.67.05-1.33.05-2,0-.68-.07-1.35-.19-2-.38-.53-.16-1.05-.36-1.55-.6-.35-.16-.68-.34-1-.56-.12-.07-.23-.15-.32-.25,0,0,.5.29,1.35.67.5.22,1.01.4,1.53.55.66.17,1.33.28,2,.35.67.06,1.33.06,2,0,.54-.06,1.08-.15,1.61-.28.83-.21,1.36-.44,1.37-.41Z"/>
    <path class="st11" d="M129.28,237.52s12.55,18.17,21.56,18h3.16l1.5-2.7s20,4,24.44,2.42l-24.74-9.18-4.76,2.77-21.16-11.31Z"/>
    <path class="st8" d="M144.73,245.84s45,13.11,50.3,11.89,38.17-27.56,38.17-27.56l-7.42-8.93-33.95,18.76-40.74-12.93-6.36,18.77Z"/>
    <path class="st5" d="M133.43,212.59s-7.52,1.66-8.63,14c-1.32,14.75,27.81,26.29,27.81,26.29l14.39-24.06-33.57-16.23Z"/>
    <path class="st2" d="M149,222.21c.12.02.23.06.33.12l.91.41,3.43,1.61,12.21,5.86.22.1-.12.21c-2.84,4.92-6.2,10.74-9.8,17l-3.18,5.48-.11.18-.2-.07c-4.01-1.34-7.88-3.08-11.54-5.2-2.92-1.73-5.63-3.79-8.08-6.14-2.23-2.1-4.24-4.42-6-6.92.16.14.3.29.43.46l1.17,1.38c1.46,1.69,3.02,3.31,4.65,4.84,2.47,2.29,5.18,4.3,8.08,6,3.65,2.07,7.5,3.78,11.48,5.1l-.3.12,3.17-5.49c3.62-6.2,7-12,9.86-16.92l.1.31-12.13-6-3.38-1.72-.88-.47-.32-.25Z"/>
    <path class="st2" d="M184,225.89c-.15.05-1.39-3-3.21-6.57s-3.51-6.39-3.38-6.47c.51.51.94,1.1,1.28,1.73,1.86,2.92,3.43,6.02,4.67,9.25.3.66.52,1.35.64,2.06Z"/>
    <path class="st12" d="M75.68,444.21c.05-.11.12-.22.2-.31l.63-.87c.59-.77,1.41-1.88,2.47-3.3l9.16-12.07,30.39-39.72c1.38-1.8,2.74-3.58,4-5.25v.07l14.36-43.24,4.34-12.88c.51-1.49.91-2.65,1.19-3.48l.33-.89c.03-.11.07-.21.12-.3-.02.11-.04.21-.08.31-.07.23-.16.53-.27.92-.26.82-.63,2-1.11,3.5-1,3.07-2.42,7.47-4.19,12.94l-14.22,43.28v.08h0l-4,5.26-30.5,39.62-9.3,12-2.6,3.22-.68.83c-.07.1-.15.19-.24.28Z"/>
    <path class="st12" d="M167.59,367c-1.4.77-2.88,1.38-4.41,1.83-1.47.62-3.01,1.07-4.58,1.34,1.4-.78,2.87-1.4,4.4-1.87,1.48-.59,3.02-1.03,4.59-1.3Z"/>
    <path class="st12" d="M167.31,373.32c-1.33-.11-2.64-.39-3.9-.83-1.3-.28-2.56-.73-3.75-1.34,1.33.11,2.63.39,3.89.83,1.31.28,2.57.73,3.76,1.34Z"/>
    <path class="st2" d="M168,285c-.36.3-.74.57-1.15.79-.75.5-1.87,1.15-3.29,1.9-3.68,1.95-7.56,3.53-11.56,4.69-4.03,1.15-8.16,1.87-12.34,2.16-1.6.11-2.9.14-3.8.12-.46.02-.93,0-1.39-.07.46-.09.92-.13,1.39-.13.89,0,2.18-.13,3.77-.28,4.14-.41,8.23-1.18,12.23-2.3,3.99-1.15,7.88-2.65,11.6-4.49,1.44-.7,2.58-1.3,3.36-1.74.37-.26.77-.47,1.18-.65Z"/>
    <path class="st12" d="M316.31,443.61l6.69,16.32s-18.63,7-18.84,10.4l36-.09-5.9-26.72-17.95.09Z"/>
    <g class="st1">
      <path class="st3" d="M334.14,458.34c.71.23,1.14.95,1,1.68-.2.71-.92,1.15-1.65,1-.76-.24-1.22-1.01-1.07-1.79.28-.73,1.09-1.12,1.83-.87"/>
    </g>
    <g class="st1">
      <path class="st3" d="M340.21,470.25l-.64-2.91-34,1.16s-1.6.7-1.42,1.83l36.06-.08Z"/>
    </g>
    <path class="st2" d="M322.41,459.75c0,.17.89.25,1.76.82s1.33,1.3,1.49,1.23-.1-1.09-1.17-1.75-2.12-.46-2.08-.3Z"/>
    <path class="st2" d="M318.64,461.32c0,.17.72.47,1.32,1.21s.77,1.53,1,1.52.28-1-.48-1.91-1.84-.99-1.84-.82Z"/>
    <path class="st2" d="M316.5,465.85c.16,0,.4-.84-.05-1.8s-1.28-1.35-1.35-1.2.43.66.79,1.46.44,1.52.61,1.54Z"/>
    <path class="st2" d="M321,456.42c.07.16.88-.08,1.87,0s1.77.38,1.87.23-.66-.78-1.83-.84-2.01.47-1.91.61Z"/>
    <path class="st2" d="M320.62,454.27c.59.16,1.21.16,1.8,0,.65-.11,1.29-.31,1.89-.58.34-.16.68-.35,1-.55.2-.12.38-.26.54-.43.24-.26.27-.65.08-.94-.18-.24-.47-.39-.77-.4-.23,0-.46.04-.68.1-1.03.26-1.99.77-2.78,1.48-.84.78-1.12,1.44-1.06,1.47s.48-.49,1.33-1.13c.5-.37,1.04-.68,1.61-.92.33-.13.66-.24,1-.32.38-.1.7-.1.8.07s0,.09,0,.2c-.12.12-.25.23-.4.31-.31.2-.62.38-.95.55-.56.28-1.14.5-1.74.67-.57.1-1.12.24-1.67.42Z"/>
    <path class="st2" d="M320.67,454.27c.34-.52.5-1.13.47-1.75.03-.68-.05-1.35-.25-2-.12-.38-.28-.75-.47-1.1-.2-.48-.64-.83-1.15-.91-.33,0-.62.21-.75.51-.09.21-.16.43-.19.66-.15,1.09.13,2.19.78,3.08.71.93,1.44,1.14,1.46,1.08s-.56-.42-1.1-1.32c-.31-.52-.51-1.1-.58-1.7-.05-.33-.05-.67,0-1,.05-.38.19-.69.34-.65s.48.28.63.59c.18.32.33.65.45,1,.2.58.32,1.19.35,1.8.1,1.02-.09,1.68,0,1.71Z"/>
    <path class="st2" d="M339.9,308.31c-1,.52-38,52.3-48.69,66.55-2.03,2.58-2.79,5.94-2.06,9.14,4.73,18.4,24.14,74.95,24.14,74.95l26-5.4-16.29-67.55,40.34-43.27-4.56-34.39-18.88-.03Z"/>
    <path class="st12" d="M322.6,387c-1.19-.39-2.33-.94-3.37-1.64-1.13-.55-2.18-1.25-3.11-2.09,1.19.39,2.33.94,3.37,1.64,1.13.55,2.18,1.25,3.11,2.09Z"/>
    <path class="st7" d="M232.68,187.67c.17.1,1.68.85,3.1,1.55,1.65.82,3.02,2.11,3.94,3.7,1.07,1.85,2.38,4.09,2.49,4.18l5.35,4.15-7.28,10-2-1.62s-7.26-.38-10-1.71-5.27-3.49-4.95-4.44l.42-1.25c-.64-.96-.89-2.12-.7-3.26,0,0-1.66-1.92-1.36-3.28.27-1.28,1.28-2.27,2.56-2.51,0,0-.81-2.23,0-3.43.62-.77,1.48-1.31,2.45-1.54l6.81,2.94-.83-3.48Z"/>
    <path class="st12" d="M417.77,446.27l11.89,14.27s-10.51,16.88-8.57,19.73l28.5-22.06-17.62-23-14.2,11.06Z"/>
    <g class="st1">
      <path class="st3" d="M437.52,452.48c.7-.27,1.49.04,1.83.71.29.69,0,1.49-.68,1.82-.75.28-1.59-.05-1.94-.76-.23-.76.17-1.56.92-1.82"/>
    </g>
    <g class="st1">
      <path class="st3" d="M449.59,458.21l-1.87-2.21-26.63,22s-.84,1.54,0,2.32l28.5-22.11Z"/>
    </g>
    <path class="st2" d="M429.09,460.75c.11.14.85-.34,1.88-.42s1.85.22,1.94.06-.75-.79-2-.67-1.91.93-1.82,1.03Z"/>
    <path class="st2" d="M427.05,464.3c.08.16.86-.07,1.79.15s1.55.74,1.68.63-.39-1-1.55-1.22-1.97.31-1.92.44Z"/>
    <path class="st2" d="M428.13,469.19c.14-.06-.2-.91-1.15-1.39s-1.83-.29-1.8-.13.75.26,1.52.67,1.3.95,1.43.85Z"/>
    <path class="st2" d="M426.74,457.2c.15.08.64-.61,1.47-1.16s1.63-.78,1.61-1-1-.22-2,.45-1.24,1.65-1.08,1.71Z"/>
    <g class="st10">
      <polygon points="423.19 453.18 425.31 455.73 439.21 444.76 437.41 442.38 423.19 453.18"/>
    </g>
    <path class="st2" d="M424.39,454.27c0,.06.66-.28,1.42-1.11.45-.49.83-1.03,1.14-1.61.19-.34.35-.7.48-1.07.1-.21.15-.44.17-.67.04-.35-.18-.68-.51-.79-.29-.08-.6-.03-.85.15-.18.14-.34.3-.48.49-.25.31-.46.65-.65,1-.31.59-.53,1.22-.65,1.88-.17.6-.15,1.23.06,1.81.1,0,.08-.68.36-1.71.17-.6.41-1.17.72-1.7.18-.31.39-.61.63-.89.24-.31.49-.51.67-.44s.09,0,.09.18c-.02.17-.06.33-.12.49-.13.36-.27.69-.42,1-.28.56-.62,1.1-1,1.6-.61.87-1.12,1.32-1.06,1.39Z"/>
    <path class="st2" d="M424.73,454.33c-.06-.62-.3-1.2-.7-1.67-.38-.55-.86-1.02-1.4-1.41-.31-.23-.65-.42-1-.58-.45-.26-1.02-.26-1.47,0-.26.21-.37.54-.29.86.05.23.14.44.26.64.19.37.44.71.74,1,.49.47,1.09.82,1.75,1,.58.24,1.24.24,1.82,0-.57-.1-1.13-.22-1.68-.38-.56-.22-1.07-.56-1.49-1-.24-.25-.45-.54-.61-.85-.19-.33-.27-.67-.13-.72s.56-.07.86.08c.33.14.65.3.95.5.52.33.98.74,1.38,1.21.66.72.91,1.36,1.01,1.32Z"/>
    <path class="st2" d="M392.16,307.12c.56,1.56,7.18,81.49,7.18,81.49l44.56,59.05-18.9,13.21-50.37-51.72c-2.42-2.45-4.08-5.54-4.79-8.91l-18.62-88.55,40.94-4.57Z"/>
    <polygon class="st5" points="286.78 223.38 326.01 224.23 328.71 224.65 317.83 248.69 277.77 242.93 238.43 213.83 248.94 199.11 286.78 223.38"/>
    <path class="st5" d="M349.47,222.38l15.06,3.91c3.84,1.14,6.91,4.03,8.28,7.79l4.23,15.3,8.86,34.09,8.65,30.91c-15.4,7-27.61,16.64-46.94,17.24-2.7.09-5.39-.41-7.88-1.47l-12.64-5.37,4.12-19.42-15.08-57.63,11.51-22.87,3.93-.53,17.9-1.95Z"/>
    <path class="st2" d="M293.11,203.62c-.09-.59.02-1.2.33-1.71.82-1.11,1.98-1.92,3.3-2.31.18-1.82.05-3.65-.37-5.43-.6.25-1.27.31-1.91.18-.11,0-.21,0-.32,0-1.44-.09-2.27-1.87-1.92-3.28.49-1.37,1.37-2.57,2.52-3.45-.9.42-1.45,1.33-2.23,2s-2.14.79-2.6-.09c-.12-.28-.18-.58-.18-.88,0-.61-.07-1.22-.11-1.83-.09-.49.01-1,.28-1.42.26-.22.55-.42.85-.59.93-.67,1-2.14,1.9-2.82.75-.39,1.59-.58,2.44-.55.84-.11,1.79-.66,1.74-1.5-1.24-.12-2.43-.54-3.48-1.21-1.07-.71-1.49-2.08-1-3.27.58-.78,1.43-1.33,2.39-1.53,1-.35,2.38-.6,3,.27,1.27-.89,3.02-.58,3.91.69.03.04.06.09.09.13l2.5-1.27c-1-.5-2.24-.58-3.21-1.2s-1.44-2.22-.48-2.85c.35-.23.81-.26,1.12-.55s.35-.52.62-.64c.21-.06.44-.06.65,0l6.88,1.47-2.82-2.88c-.87-.89-1.78-2.21-1.09-3.24s2.37-.59,3,.44c.88-.59,2.07-.35,2.66.53.06.08.11.17.15.27.77-.74,2-.72,2.74.05.5.52.67,1.27.45,1.95.93-.34,1.94-.42,2.92-.23-.25-.9.27-1.83,1.17-2.08.31-.09.65-.08.96.01-.24-.54-.31-1.14-.2-1.72.16-.56.85-1,1.35-.7-.61-.92-.35-2.16.57-2.77.51-.33,1.14-.42,1.72-.23l.48-1.44c.91-.46,2.01-.33,2.8.31.59.58.6,1.54.02,2.14-.12.13-.27.23-.43.3.64-.26.9.84.72,1.51-.24.94-.49,1.89-.74,2.83.43-.92,1.45-1.42,2.44-1.2.37-.86,1.36-1.26,2.22-.89.02,0,.04.02.06.03.18-.74.92-1.2,1.66-1.02.31.08.59.26.79.52,0-.48.57-.74,1-.86.66-.26,1.38-.28,2.06-.08.64.28,1,1.24.48,1.7.43-.53,1.39-.19,1.64.44.2.68.09,1.41-.29,2-.37.58-.63,1.21-.78,1.88.42-.55,1.01-.94,1.69-1.09,1.12-.5,2.35-.72,3.58-.62,0-.53.64-.79,1.16-.87,1.63-.27,3.3-.06,4.8.62.7.32,1.45.92,1.35,1.68-.08.35-.25.66-.48.93-.89,1.18-1.79,2.36-2.68,3.55,2.16-.14,4.31.4,6.14,1.55.87-.03,1.74,0,2.61.1.83.26,1.3,1.63.49,1.94.67.22,1.12.86,1.1,1.57-.02.3-.14.58-.32.82-.04.21-.11.41-.22.59-.19.33-.45.62-.75.86-.19.63-.67,1.13-1.3,1.33.89.3,1.72.76,2.45,1.34.98.77,1.45,2.01,1.24,3.24,0,.07-.05.12-.07.19.07.43-.04.88-.3,1.23.24.22.4.5.46.82,2.04-.01,3.7,1.63,3.72,3.66,0,.73-.21,1.45-.62,2.07-.59.89-2.14,1.36-2.6.4-.08.95-.63,1.8-1.46,2.27,1.13,1.04,1.21,2.8.17,3.93-.05.06-.11.12-.17.17,1.51.68,2.18,2.46,1.5,3.97-.15.33-.36.63-.62.89.81.96.69,2.39-.27,3.2-.96.81-2.39.69-3.2-.27-.02.93-.3,1.83-.82,2.6-.55.74-1.6.89-2.34.34-.03-.02-.06-.04-.08-.07-.03,1.72-1.45,3.09-3.18,3.06-.19,0-.38-.02-.56-.06.49,1,.08,2.2-.92,2.69-1,.49-2.2.08-2.69-.92l-4.88,1.83c-1.07.43-2.17.77-3.3,1-1.46.25-2.96.15-4.37-.29-.44-.19-.91-.27-1.38-.25-.53.14-1.01.42-1.4.8-2.34,1.76-5.42,2.18-8.15,1.12-.41-.2-.84-.34-1.29-.41-.52.02-1.03.14-1.51.35-1.2.44-2.46.73-3.73.86-1.09.22-2.22-.03-3.12-.68-.82-.73-.82-2.35.21-2.72-.14-.71-.6-1.32-1.25-1.64-.68-.3-1.47-.03-1.82.62-.28.65.34,1.55,1,1.38-.81,1.18-2.92.77-3.47-.55-.44-1.42.3-2.94,1.69-3.47-.63-.86-1.05-1.86-1.21-2.91-.4,1.16-1.63,1.8-2.81,1.47-.19,1.09-.82,2.05-1.74,2.66-.97.6-2.22.43-3-.39-.58-.76-.44-1.84.32-2.43.13-.1.26-.18.41-.23-.84-.77-.9-2.07-.13-2.91.21-.23.48-.41.77-.53-.71-1.28-.46-2.87.6-3.87-.61.71-1.67.79-2.38.19-.07-.06-.13-.12-.19-.19-.25,1.21-1.84,1.56-3.07,1.35-1-.08-1.83-.81-2.03-1.8Z"/>
    <path class="st12" d="M293.11,203.62c.02.14.05.28.1.42.14.42.42.77.8,1,.63.34,1.34.5,2.05.48.46,0,.92-.09,1.34-.27.5-.21.88-.64,1-1.17h-.11c.63.74,1.74.83,2.48.2.07-.06.14-.13.2-.2l-.11-.1c-1.1,1.03-1.36,2.68-.63,4l.05-.13c-.69.24-1.19.83-1.32,1.54-.2.75.05,1.56.65,2.06v-.18c-.77.27-1.26,1.04-1.16,1.85.08.87.74,1.57,1.6,1.7.87.18,1.77-.08,2.42-.68.66-.63,1.1-1.45,1.28-2.35l-.16.09c1.25.36,2.57-.32,3-1.55h-.26c.16,1.09.58,2.12,1.23,3l.06-.2c-.66.27-1.2.75-1.55,1.37-.38.63-.48,1.4-.27,2.11.26.74.89,1.28,1.65,1.44.79.22,1.63-.05,2.13-.7l.22-.33-.38.1c-.39.11-.81-.27-.9-.7-.06-.45.22-.88.66-1,.47-.17.99-.07,1.37.25.4.33.68.79.79,1.3l.1-.18c-.37.14-.67.44-.79.82-.13.36-.16.75-.07,1.13.08.38.27.73.54,1,.29.27.63.47,1,.59.72.21,1.48.28,2.22.18.74-.07,1.48-.19,2.21-.36,1.48-.24,2.86-1.42,4.25-.49,1.49.61,3.12.79,4.7.51.8-.14,1.58-.39,2.32-.74.73-.39,1.41-.84,2.05-1.36.29-.21.65-.3,1-.27.39.08.78.19,1.16.32.82.23,1.67.35,2.52.36,1.73-.05,3.42-.44,5-1.15l4.9-1.83-.24-.08c.55,1.1,1.9,1.55,3,1s1.55-1.9,1-3l-.24.27c1.79.38,3.55-.77,3.93-2.57.05-.22.07-.45.07-.67l-.36.15c.37.36.89.51,1.39.4.5-.07.97-.31,1.31-.69.58-.81.9-1.77.92-2.76l-.37.12c.89,1.05,2.45,1.18,3.5.29,1.05-.89,1.18-2.45.29-3.5h0v.3c.79-.69,1.15-1.75.95-2.78-.13-1.1-.85-2.05-1.89-2.45l.07.37c1.22-1.12,1.31-3.01.19-4.24-.06-.07-.12-.13-.19-.19v.36c.9-.5,1.49-1.42,1.58-2.44l-.41.07c.12.25.32.45.57.56.25.09.51.12.77.08.49-.08.95-.3,1.31-.63.69-.73,1.05-1.7,1-2.7-.02-1.01-.45-1.96-1.19-2.65-.74-.71-1.72-1.1-2.74-1.1l.22.18c-.06-.36-.24-.69-.52-.94v.3c.3-.4.43-.91.35-1.4v.1c.34-1.14.04-2.37-.79-3.22-.82-.84-1.83-1.47-2.95-1.82v.42c.7-.22,1.25-.78,1.45-1.49l-.07.11c.51-.39.86-.95,1-1.57v.08c.35-.44.45-1.03.27-1.56-.18-.56-.61-.99-1.17-1.17v.42c.26-.1.46-.32.53-.59.05-.25.04-.5-.05-.74-.16-.47-.53-.84-1-1-.88-.1-1.76-.14-2.64-.11h.09c-1.88-1.17-4.07-1.72-6.28-1.59l.2.36c.38-.51.8-1.07,1.23-1.62l.93-1.23c.33-.41.64-.85.91-1.3.14-.28.17-.59.11-.89-.1-.29-.27-.55-.49-.75-.39-.38-.86-.67-1.38-.84-.97-.39-2.01-.6-3.06-.61-.52,0-1.04.04-1.56.12-.27.05-.54.15-.78.29-.29.16-.48.46-.51.79l.26-.21c-.99-.11-2,.02-2.93.37-.46.15-.91.3-1.37.49-.5.19-.93.54-1.2,1l.42.13c.09-.94.89-1.72,1.12-2.81.16-.57,0-1.19-.41-1.62-.23-.2-.51-.33-.81-.37-.33-.04-.65.09-.87.34l.31.3c.23-.21.35-.5.33-.81-.02-.28-.12-.54-.28-.77-.16-.23-.39-.4-.65-.5-.24-.1-.5-.14-.76-.14-.49.02-.97.1-1.44.24-.25.07-.48.17-.7.31-.26.16-.43.44-.44.75l.41-.1c-.49-.72-1.48-.9-2.2-.41-.34.23-.57.59-.65.99l.32-.17c-.94-.46-2.08-.07-2.54.87-.02.04-.04.09-.06.13l.27-.14c-1.09-.24-2.21.3-2.69,1.31l.4.15.63-2.39c.15-.42.2-.86.14-1.3-.03-.24-.11-.47-.25-.67-.08-.12-.21-.21-.35-.26-.14-.05-.3-.05-.44,0l.14.41c.57-.19.96-.7,1-1.3.07-.57-.12-1.13-.52-1.54-.86-.68-2.02-.8-3-.32h-.09v.09l-.48,1.45.27-.14c-1.14-.4-2.38.2-2.78,1.34-.23.65-.13,1.36.25,1.93l.28-.3c-.34-.18-.75-.16-1.06.06-.3.18-.52.47-.61.8-.12.61-.04,1.25.21,1.82l.28-.26c-.99-.33-2.06.21-2.39,1.21-.12.37-.13.76-.01,1.13l.23-.28c-1-.19-2.04-.11-3,.23l.27.25c.32-1.14-.33-2.32-1.47-2.64-.73-.21-1.51-.02-2.06.5l.33.07c-.47-1.07-1.72-1.55-2.78-1.08-.12.05-.23.11-.34.19h.29c-.28-.46-.71-.81-1.21-1-.5-.2-1.05-.2-1.55,0-.5.26-.81.76-.83,1.32-.06.56.07,1.12.35,1.6.54.78,1.16,1.49,1.86,2.13l1.92,2,.18-.32-4.25-.9-2.08-.44c-.35-.1-.72-.16-1.09-.17-.22.03-.42.15-.56.32-.12.15-.21.3-.31.4-.26.19-.56.33-.87.42-.37.15-.66.45-.78.83-.17.74.05,1.51.57,2.06.5.49,1.13.84,1.82,1,.63.16,1.25.36,1.85.62v-.32l-2.5,1.27.23.07c-.88-1.4-2.73-1.83-4.13-.95-.05.03-.09.06-.14.09h.23c-.44-.51-1.11-.75-1.77-.65-.6.07-1.2.22-1.76.44-.57.18-1.1.46-1.58.82-.49.39-.79.97-.82,1.59,0,1.19.67,2.29,1.72,2.85.97.49,2.02.81,3.1.94l-.12-.14c-.01.43-.26.81-.65,1-.39.22-.82.35-1.27.37-.46.03-.93.09-1.38.18-.47.1-.9.36-1.19.74-.58.75-.73,1.66-1.29,2.25-.26.31-.67.41-1,.73-.3.34-.45.79-.4,1.24,0,.82.09,1.63.14,2.41,0,.43.19.84.53,1.11.35.22.76.31,1.17.25.38-.05.75-.19,1.08-.4.3-.22.58-.47.83-.74.44-.53.96-.98,1.56-1.33l-.12-.18c-.64.56-1.22,1.18-1.74,1.85-.49.63-.8,1.38-.88,2.17-.05.74.18,1.47.63,2.06.41.57,1.09.87,1.79.79h0c.67.14,1.37.08,2-.18l-.11-.06c.43,1.77.56,3.59.4,5.4v-.05c-.83.31-1.61.72-2.32,1.24-.5.37-.89.86-1.15,1.43-.14.34-.2.7-.19,1.06,0,.12.02.23.05.35-.06-.47.01-.95.2-1.38.25-.55.65-1.03,1.14-1.39.71-.5,1.49-.91,2.31-1.2h0c.18-1.82.06-3.66-.36-5.44v-.09h-.08c-.59.24-1.24.29-1.87.16h0c-.64.07-1.26-.21-1.63-.73-.42-.56-.62-1.25-.58-1.94.09-.75.38-1.47.86-2.06.51-.66,1.09-1.26,1.72-1.8l.51-.47-.63.28c-.63.35-1.18.81-1.63,1.37-.24.26-.51.49-.8.7-.3.19-.64.32-1,.36-.35.06-.71-.02-1-.21-.27-.23-.43-.57-.42-.93,0-.78-.09-1.58-.14-2.39-.04-.38.08-.76.33-1.05.27-.25.72-.38,1-.73.63-.68.79-1.6,1.31-2.26s1.48-.74,2.39-.81c.49-.02.97-.16,1.39-.41.49-.24.8-.74.8-1.28v-.11h-.11c-1.05-.12-2.06-.43-3-.91-.95-.5-1.55-1.49-1.56-2.57.03-.53.29-1.02.71-1.35.45-.34.95-.6,1.49-.77.54-.2,1.11-.34,1.68-.41.55-.09,1.1.1,1.47.52l.11.14.13-.11c1.21-.84,2.86-.54,3.7.67.02.03.05.07.07.1l.08.14.15-.07,2.5-1.26.32-.16-.32-.16c-.62-.26-1.25-.47-1.9-.64-.62-.14-1.2-.44-1.66-.88-.43-.46-.62-1.09-.5-1.71.1-.28.31-.5.59-.61.36-.1.7-.26,1-.49.28-.3.41-.6.66-.61.34.02.67.07,1,.16l2.07.45,4.25.91.62.13-.44-.45-1.92-2c-.68-.62-1.28-1.31-1.8-2.06-.23-.36-.36-.79-.37-1.22,0-.42.24-.8.61-1,.84-.3,1.78.02,2.25.78l.12.19.17-.13c.79-.52,1.85-.3,2.37.48.05.08.09.15.13.24l.11.28.22-.21c.7-.65,1.81-.61,2.46.09.41.44.56,1.07.4,1.65l-.11.39.37-.14c.9-.32,1.87-.4,2.81-.22l.39.08-.16-.36c-.2-.8.28-1.61,1.08-1.81.25-.06.52-.06.77.01l.43.2-.15-.45c-.21-.5-.28-1.05-.2-1.58.11-.45.69-.83,1.05-.6l.83.52-.54-.82c-.52-.82-.28-1.91.54-2.43.44-.28.97-.35,1.46-.2l.2.07.07-.21c.16-.48.32-.95.48-1.44l-.11.12c.82-.41,1.8-.31,2.53.25.63.54.51,1.88-.29,2.1l.14.41c.1-.05.23-.01.28.09.09.14.16.3.18.47.05.38,0,.77-.14,1.13l-.63,2.39.41.15c.4-.81,1.29-1.25,2.18-1.08l.2.06.06-.19c.32-.75,1.19-1.1,1.94-.78.02,0,.04.02.06.03l.31.17v-.32c.18-.61.83-.96,1.45-.78.22.07.41.19.55.37l.49,1-.07-1.1c0-.29.41-.52.82-.63.42-.13.87-.21,1.31-.23.41-.04.81.14,1.06.46.25.29.25.71,0,1l.32.31c.21-.28.74-.2,1,.08.3.32.41.78.27,1.2-.16.93-1,1.7-1.13,2.85l-.14,1.09.56-1c.42-.72,1.44-.93,2.32-1.25.87-.32,1.8-.44,2.72-.35h.26v-.25c0-.34.48-.58.92-.66,1.47-.24,2.98-.08,4.37.46.46.16.87.41,1.22.74.33.29.43.75.26,1.15-.27.42-.56.83-.87,1.22l-.93,1.23-1.23,1.62-.3.39h.49c2.11-.13,4.21.4,6,1.52h0c.86-.02,1.72,0,2.57.09.34.13.6.41.71.75.12.35.05.69-.22.77l-.68.22.69.21c.42.14.74.46.88.88.14.4.06.84-.21,1.16h0v.05c-.13.53-.44,1-.89,1.32h-.06v.07c-.16.56-.59,1-1.14,1.18l-.65.18.63.24c1.05.33,2,.92,2.78,1.7.72.73.99,1.79.71,2.78v.11c.06.38-.03.76-.25,1.07l-.13.16.15.14c.2.18.34.42.39.68v.19h.19c.91.01,1.78.37,2.43,1,.65.61,1.03,1.46,1.05,2.35.05.86-.25,1.71-.82,2.36-.3.28-.67.46-1.07.52-.35.09-.72-.07-.89-.39l-.35-.78-.06.86c-.08.88-.59,1.66-1.35,2.09l-.29.15.25.2c1.04.96,1.1,2.59.14,3.63-.04.05-.09.09-.14.14l-.3.25.37.12c.88.35,1.5,1.16,1.61,2.1.18.88-.13,1.79-.8,2.39l-.17.14.14.16c.74.87.63,2.17-.24,2.91-.87.74-2.17.63-2.9-.24h0l-.31-.38-.06.49c0,.91-.29,1.79-.81,2.53-.49.63-1.4.74-2.04.25,0,0-.02-.01-.02-.02l-.4-.48v.62c0,.9-.41,1.75-1.14,2.28-.66.54-1.52.74-2.35.55l-.39-.11.16.38c.38.93-.07,1.99-1,2.37-.84.34-1.81.01-2.26-.77l-.08-.14-.16.06-4.9,1.83c-1.53.69-3.19,1.08-4.87,1.13-.82,0-1.63-.12-2.42-.34-.4-.14-.81-.25-1.22-.33-.45-.05-.91.07-1.28.34-.62.51-1.29.95-2,1.33-.71.34-1.46.58-2.23.71-1.51.27-3.08.11-4.5-.47-.36-.17-.74-.3-1.13-.37-.41-.04-.82.02-1.2.17-.69.27-1.41.5-2.13.68-.71.17-1.43.29-2.16.36-.7.09-1.41.03-2.08-.17-.65-.17-1.15-.69-1.31-1.34-.2-.62.07-1.29.65-1.59h.13v-.14c-.13-.58-.45-1.1-.9-1.48-.47-.39-1.1-.5-1.67-.29-.6.17-.97.77-.85,1.38.09.6.66,1.02,1.26.93l-.16-.23c-.43.55-1.14.78-1.81.58-.67-.13-1.22-.6-1.45-1.24-.31-1.31.4-2.65,1.65-3.14l.17-.07-.11-.14c-.62-.84-1.03-1.82-1.19-2.85l-.08-.57-.17.55c-.38,1.09-1.54,1.7-2.65,1.39h-.13v.14c-.16.84-.58,1.62-1.19,2.22-.6.56-1.43.8-2.23.64-.76-.11-1.35-.72-1.43-1.49-.09-.71.32-1.4,1-1.64l.19-.05-.16-.13c-.79-.77-.81-2.04-.04-2.83.18-.19.4-.34.64-.44h.11l-.06-.1c-.69-1.24-.45-2.79.58-3.77l-.11-.11c-.58.68-1.6.76-2.28.18-.06-.05-.12-.11-.18-.18l-.09-.12v.15c-.12.5-.47.9-.95,1.09-.41.18-.85.27-1.3.28-.69.03-1.38-.13-2-.45-.37-.21-.65-.54-.8-.93-.09-.29-.11-.44-.12-.44Z"/>
    <path class="st7" d="M349.83,223.41l-11.9-34.34c-2.83-9.35-10.63-15.49-19.89-12.41l-.84.34c-8.45,3.37-12.89,12.67-10.2,21.36,2.49,8.09,5.35,17,7.08,21.17,3.58,8.66,12.82,6.54,12.82,6.54,0,0,.75,2,1.66,4.64h0s1.48,8.71,8.29,6.62,12.98-13.92,12.98-13.92Z"/>
    <path class="st9" d="M326.84,226.09c4.02-1.61,7.49-4.35,10-7.87,0,0,0,7.7-9,10.38l-1-2.51Z"/>
    <path class="st2" d="M311.78,204.39c.26.68,1.02,1.02,1.7.78.67-.21,1.05-.93.84-1.6,0,0,0-.02,0-.03-.26-.68-1.02-1.02-1.7-.78-.67.21-1.05.93-.84,1.6,0,0,0,.02,0,.03Z"/>
    <path class="st2" d="M310.23,201.24c.22.1.89-1,2.22-1.5s2.59-.25,2.67-.47-.23-.33-.78-.48c-.74-.17-1.52-.1-2.22.18-.69.28-1.28.77-1.68,1.4-.29.48-.31.83-.21.87Z"/>
    <path class="st2" d="M324.24,200.4c.26.68,1.02,1.02,1.7.78.67-.21,1.05-.93.84-1.6,0,0,0-.02,0-.03-.26-.68-1.02-1.02-1.7-.78-.67.21-1.05.93-.84,1.6,0,0,0,.02,0,.03Z"/>
    <path class="st2" d="M323.55,196.56c.22.1.88-1,2.22-1.51s2.59-.25,2.67-.47-.23-.33-.79-.47c-.74-.17-1.51-.11-2.21.18-.7.27-1.29.76-1.69,1.4-.28.47-.3.82-.2.87Z"/>
    <path class="st2" d="M322.85,208.75c-.79.06-1.57.22-2.32.47-.36.1-.71.16-.86-.05-.17-.34-.23-.72-.18-1.1v-3c-.07-4.27-.27-7.71-.44-7.71s-.25,3.46-.18,7.72c0,1,.05,2,.08,3-.05.5.08,1,.36,1.41.2.2.48.3.76.27.21-.02.41-.07.61-.15.76-.2,1.48-.49,2.17-.86Z"/>
    <path class="st2" d="M321.43,192.16c.28.31,1.54-.39,3.19-.82s3.08-.51,3.16-.92c0-.19-.32-.45-1-.6-1.73-.32-3.52.17-4.84,1.33-.46.46-.64.85-.51,1.01Z"/>
    <path class="st2" d="M309,196.53c.35.22,1.16-.45,2.27-.88s2.14-.56,2.24-1c0-.2-.22-.45-.75-.58-.67-.14-1.37-.08-2,.19-.65.26-1.21.71-1.59,1.29-.34.51-.35.87-.17.98Z"/>
    <path class="st9" d="M322.89,212.7c.34.46.76.88,1.22,1.22.47.35,1.08.48,1.65.34.61-.17,1.08-.65,1.24-1.26.15-.6.1-1.24-.14-1.81-.2-.52-.65-1.07-1.19-.95-.22.06-.43.18-.59.35l-2.39,2"/>
    <path class="st2" d="M324.74,214.61c.51-.14.98-.36,1.41-.67.42-.35.7-.84.78-1.38.08-.66-.13-1.31-.56-1.81-.11-.13-.24-.24-.38-.33-.15-.08-.13-.08-.24,0s-.25.22-.38.32l-.4.34c-.51.43-1,.82-1.37,1.13-.4.39-.85.71-1.35.95-.05,0,.38-.52,1.11-1.22.36-.35.8-.77,1.3-1.22l.38-.35c.14-.12.24-.23.43-.37.12-.09.27-.13.42-.13.14.01.27.06.38.14.18.12.34.26.48.42.54.61.78,1.43.65,2.24-.11.64-.47,1.21-1,1.59-.34.25-.75.41-1.18.44-.32,0-.48-.06-.48-.09Z"/>
    <path class="st2" d="M301.88,192c-.13-.45-.24-.91-.31-1.38,0-.73.19-1.45.54-2.09,1-2.28,2.14-4.65,4-6,1.16-.82,2.54-1.21,3.7-2,.7-.54,1.36-1.13,2-1.74,2.79-2.29,6.14-3.79,9.7-4.36,1.97-.46,4-.57,6-.32,2.27.46,4.45,1.3,6.44,2.5,3.23,1.65,6.15,3.85,8.62,6.51,2.02,2.16,3.37,4.87,3.88,7.78.4,2.94-.57,6.09-2.76,7.36l-1.23-.79-1.93-1.14c.46.57.23.6-.2,1.13-.44.49-1.2.52-1.68.08-.03-.03-.05-.05-.08-.08-.26.71-1.43.4-1.52-.4-.45.46-1.37-.06-1.39-.79-.56.43-1.22-.47-1.75-1-.29-.3-.61-.59-.94-.85-1.02-.92-1.76-2.12-2.12-3.45-1.06-.87-1.84-2.03-2.26-3.33-.34-.8-.68-1.6-1-2.39l-.63-.44c.18.57-.03,1.19-.51,1.55-.46.27-.98.41-1.51.41l-1.57.15-.84.54c.42.76.57,1.63.44,2.49.03.57-.13,1.13-.46,1.6-.31.26-.77.23-1.03-.08-.09-.11-.15-.24-.17-.38-.24.38-.75.5-1.13.26-.05-.03-.09-.06-.13-.1-.4-.38-.67-.88-.78-1.43-.34-1.3-.3-2.67.13-3.94l-1.86,3.12c-.11.24-.29.44-.52.57.17.35.03.77-.32.94-.06.03-.12.05-.18.06-.41.01-.81-.11-1.14-.36-.82-.47-1.81-1.4-1.47-2.3-.31,0-.61-.42-.49-.75l-2.26,3.08c.24-.25.69.11.74.5,0,.38-.12.75-.35,1.05.38.34.63.79.74,1.28.39-.62,1.43,0,1.48.82.02.75-.46,1.43-1.18,1.66-.59.29-1.3.04-1.59-.55-.61.33-1.48-.37-1.47-1.16-.37.44-1-.27-1.23-.89-.37-1.09-.54-2.24-.49-3.39,0,.1-.12.18-.22.14-.04-.03-.07-.06-.1-.1-.14,1.4-.29,2.8-.43,4.2-.2,1.19-.17,2.42.08,3.6.13.48.27,1.16-.12,1.32-.11.03-.23.03-.34,0-1.41-.33-2.65-1.14-3.53-2.29-.34-.38-.62-.82-.82-1.29-.23-1.03-.38-2.08-.45-3.14Z"/>
    <path class="st12" d="M313.87,186c-.25-.14-.45-.35-.58-.6-.15-.29-.15-.62,0-.91.19-.37.58-.6,1-.58h.25l-.16-.2c-.3-.38-.33-.9-.07-1.31.32-.45.91-.6,1.4-.36l.13-.22s-.08-.07-.11-.12c-.11-.16-.13-.37-.07-.55.07-.18.2-.33.37-.41.17-.1.37-.14.57-.14.22.04.44.04.66,0,.25-.13.31-.36.42-.49.1-.14.22-.27.35-.39.25-.2.53-.36.84-.46.44-.15.92-.18,1.38-.07.33.08.49.18.51.16-.14-.12-.3-.21-.48-.26-.48-.15-.99-.15-1.47,0-.33.1-.64.26-.91.47-.15.13-.29.27-.41.43-.12.16-.2.35-.33.4-.19.03-.38.03-.57,0-.24,0-.47.05-.68.16-.23.11-.41.32-.5.56-.09.26-.05.55.1.78.05.07.12.14.19.19l.13-.23c-.67-.3-1.46,0-1.76.66-.2.44-.14.95.14,1.34l.09-.19c-.49,0-.94.29-1.16.73-.25.56-.03,1.22.51,1.52.13.09.22.09.22.09Z"/>
    <path class="st12" d="M308.13,189.36c-.27-.13-.5-.32-.68-.55-.2-.29-.27-.65-.21-1,.08-.44.37-.81.77-1l.17-.07-.16-.1c-.46-.26-.76-.72-.82-1.24,0-.27.12-.53.34-.7.2-.19.51-.24.76-.12l.93.55-.78-.75c-.28-.28-.42-.67-.38-1.06.03-.42.27-.8.64-1,.26-.15.56-.21.86-.16l.33.06-.21-.27c-.22-.42-.06-.93.35-1.15.02-.01.04-.02.07-.03.46-.15.95-.15,1.41,0l.28.06-.15-.24c-.19-.31-.19-.69,0-1,.18-.28.44-.5.74-.63.51-.24,1.05-.39,1.61-.43.5-.02.99.01,1.48.09-.12-.06-.25-.1-.38-.12-.94-.22-1.92-.12-2.79.28-.34.14-.64.38-.85.69-.24.37-.26.84-.05,1.22l.12-.18c-.51-.16-1.07-.15-1.57.05-.27.13-.49.37-.6.65-.14.3-.11.66.09.93l.12-.21c-.34-.05-.7.01-1,.18-.45.24-.74.69-.78,1.2-.04.47.13.93.47,1.26l.15-.2c-.35-.16-.76-.1-1.05.15-.27.22-.42.55-.41.9.07.59.42,1.12.95,1.4v-.18c-.45.22-.77.65-.85,1.15-.08.62.25,1.22.82,1.48.13.09.26.1.26.09Z"/>
    <path class="st12" d="M295.08,194.4c-.06-.26-.02-.54.13-.77.17-.27.43-.46.74-.54.42-.1.85-.12,1.27-.06h.15l-.06-.15c-.14-.51.09-1.06.57-1.3.58-.25,1.22-.33,1.85-.23l.86.07-.81-.3c-.44-.27-.58-.84-.31-1.28,0,0,0-.02.01-.02.35-.46.88-.75,1.45-.81h.07l.51-.1-.49-.15c-.49-.24-.7-.84-.45-1.34.03-.07.07-.13.12-.19.43-.43,1.08-.55,1.64-.31l.63.25-.5-.45c-.6-.56-.84-1.4-.63-2.19.17-.62.61-1.12,1.2-1.37.38-.17.8-.24,1.22-.19.29,0,.44.1.45.08l-.11-.06c-.11-.04-.22-.08-.33-.1-.42-.07-.86-.04-1.26.11-.65.25-1.14.78-1.34,1.45-.24.87,0,1.8.66,2.43l.12-.21c-.65-.29-1.42-.14-1.92.37-.25.29-.36.68-.28,1.06.06.41.34.75.72.89v-.26h-.08c-.66.08-1.25.45-1.62,1-.16.28-.21.61-.14.93.06.32.27.59.57.72l.06-.24c-.68-.11-1.38-.01-2,.28-.57.3-.83.96-.63,1.57l.09-.13c-.45-.04-.9,0-1.33.11-.33.1-.61.33-.78.63-.11.19-.16.41-.12.62.02.13.1.19.1.18Z"/>
    <path class="st12" d="M298.4,179.63c.12.03.24.03.36,0,.34-.04.68-.11,1-.23.46-.18.97-.25,1.46-.19.28.04.53.21.67.46.17.25.15.58-.05.81l.21.07c0-.34.3-.65.59-1,.29-.33.63-.62,1-.85.37-.22.82-.28,1.24-.16.39.09.69.39.79.78l.05.32.17-.28c.34-.53.85-.93,1.44-1.14.46-.18.96-.25,1.46-.21.44.05.87.18,1.27.38,0,0-.09-.1-.29-.22-.31-.16-.65-.27-1-.31-.52-.07-1.05-.01-1.55.16-.65.21-1.2.64-1.57,1.21l.22.05c-.09-.49-.47-.88-.95-1-.48-.15-1-.08-1.44.17-.41.24-.77.55-1.09.9-.16.16-.3.33-.44.51-.16.19-.23.43-.21.67v.25l.17-.18c.27-.3.3-.75.07-1.09-.17-.3-.48-.51-.82-.56-.53-.05-1.07.04-1.55.26-.31.12-.63.22-.95.29-.13.12-.26.11-.26.13Z"/>
    <path class="st12" d="M309.42,171.22c.22-.07.46-.1.69-.1.26,0,.52.09.74.22.29.16.52.41.64.72l.05.13.12-.08c.37-.18.81-.07,1.06.25.27.41.43.88.45,1.37l.07.51.19-.49v-.08c.14-.31.42-.53.75-.6.31-.08.65-.04.93.12.48.29.82.78.93,1.33.06.38.06.78,0,1.16-.02.15-.02.29,0,.44,0,0,.08-.14.14-.42.09-.4.11-.81.05-1.21-.09-.63-.46-1.18-1-1.51-.69-.4-1.57-.16-1.97.53-.01.02-.02.04-.03.06v.1h.25c-.02-.54-.2-1.06-.52-1.49-.33-.42-.92-.53-1.38-.27h.17c-.15-.35-.42-.64-.77-.8-.25-.13-.54-.2-.82-.19-.18,0-.36.05-.53.12-.16.13-.21.17-.21.18Z"/>
    <path class="st12" d="M322.58,175.65c.11-.03.22-.09.3-.17.25-.2.46-.46.6-.75.22-.44.3-.94.21-1.43-.07-.24-.07-.49,0-.73.09-.22.36-.42.47-.76.19-.66-.16-1.36-.81-1.6l.06.18c.35-.54.57-1.16.64-1.8.06-.24.06-.49,0-.73,0,0,0,.27-.12.71-.11.6-.35,1.18-.69,1.69l-.09.13.15.05c.51.2.79.76.64,1.29-.07.25-.31.43-.45.74-.1.28-.1.6,0,.88.08.44.03.89-.14,1.3-.19.38-.46.72-.77,1Z"/>
    <path class="st12" d="M326.44,176.92c.07.01.15.01.22,0,.2-.06.39-.14.58-.23.67-.35,1.21-.91,1.54-1.59l-.16.05c.5.34,1.11.46,1.7.35.32-.06.63-.19.9-.38.31-.19.54-.5.62-.86v-.39c0-.1.03-.2.09-.28.14-.17.31-.32.5-.42.21-.12.41-.27.57-.45.18-.19.25-.47.17-.72l-.12.15c.55.05,1.09-.09,1.54-.41.35-.23.63-.55.82-.92.12-.24.2-.49.23-.76.02-.1.02-.19,0-.29-.05.35-.16.69-.33,1-.2.34-.48.62-.81.83-.41.27-.91.39-1.4.34h-.19l.06.17c.04.18-.01.36-.14.49-.15.16-.33.29-.52.39-.23.12-.42.29-.58.5-.08.13-.13.27-.14.42,0,.12,0,.23,0,.35-.08.28-.26.53-.51.69-.24.17-.51.29-.8.34-.52.11-1.07.01-1.52-.28l-.11-.08-.05.12c-.3.65-.79,1.2-1.41,1.57-.46.2-.76.27-.75.3Z"/>
    <path class="st12" d="M348.48,178.89v-.1c.01-.09.01-.18,0-.27-.07-.36-.21-.7-.41-1-.3-.45-.67-.86-1.08-1.22-.24-.23-.51-.44-.79-.63-.16-.1-.34-.17-.53-.21-.22-.04-.45.02-.62.18l.19.06c-.18-.94-1.09-1.57-2.03-1.39-.45.08-.85.34-1.11.72l.23.05c-.1-.37-.38-.67-.74-.81-.38-.13-.79-.07-1.11.18-.18.13-.31.31-.38.52h.25c-.05-.23-.22-.43-.44-.52-.2-.09-.42-.11-.63-.07-.38.11-.72.31-1,.59h.17c-.36-.31-.83-.47-1.3-.44-.43.01-.86.13-1.23.35-.62.4-1.17.91-1.62,1.49l.16.08c.03-.16-.04-.32-.17-.42-.11-.08-.24-.14-.38-.15-.24-.03-.48,0-.7.09-.33.15-.64.35-.91.6-.18.14-.33.31-.47.49-.05.07-.09.14-.13.21.21-.22.43-.43.66-.62.28-.22.58-.4.91-.54.2-.07.4-.09.61-.06.22,0,.43.16.39.37l-.05.32.22-.24c.45-.56.99-1.03,1.59-1.42.34-.19.73-.3,1.12-.31.41-.02.82.12,1.13.39l.08.07.09-.07c.25-.25.55-.43.88-.53.32-.08.64.09.76.39l.09.45.16-.43c.18-.46.69-.7,1.16-.55.28.11.49.34.58.63l.07.27.16-.23c.47-.68,1.4-.86,2.09-.39.33.22.55.56.62.95v.21l.15-.15c.22-.24.61-.12.89,0,.27.17.53.37.77.59.41.33.78.72,1.09,1.15.29.41.48.88.56,1.37Z"/>
    <path class="st12" d="M349.21,186.64s0-.06.08-.19c.06-.19.11-.39.15-.59.07-.33.04-.68-.07-1-.08-.2-.2-.37-.35-.52-.19-.17-.43-.26-.68-.26l.09.12c.14-.44.02-.93-.31-1.26-.4-.37-.99-.44-1.46-.18l.17.15c.13-.41-.01-.86-.36-1.11-.36-.24-.81-.31-1.22-.19-.18.07-.37.12-.56.16-.17.02-.33-.06-.43-.2-.14-.17-.3-.32-.49-.44-.2-.13-.44-.18-.68-.16-.46.07-.91.19-1.35.36-.37.16-.8.16-1.17,0-.16-.09-.31-.25-.49-.38-.18-.14-.4-.22-.62-.25-.43-.05-.85.1-1.15.41l.19.11c.11-.43-.08-.89-.47-1.11-.32-.2-.71-.28-1.08-.2-.56.13-1.1.36-1.58.68-.31.2-.6.43-.87.68-.18.18-.27.28-.26.29s.4-.37,1.2-.85c.47-.29.99-.5,1.54-.61.32-.06.65,0,.93.18.3.18.45.53.37.87l-.15.47.34-.35c.26-.26.63-.38,1-.32.18.02.36.09.51.2.16.14.33.28.5.4.21.11.45.16.69.16.23-.02.46-.07.69-.13.41-.16.84-.28,1.28-.35.19-.01.37.03.54.12.16.11.31.25.43.41.16.19.4.29.65.27.2-.04.4-.1.59-.17.34-.1.7-.05,1,.14.26.18.38.51.29.82l-.12.32.29-.17c.38-.23.87-.18,1.2.12.26.26.36.64.28,1v.13h.13c.4.02.75.27.89.65.11.29.14.6.1.91-.14.58-.22.86-.2.86Z"/>
    <path class="st12" d="M355.06,199.55c.08-.04.15-.09.22-.15.18-.18.33-.39.44-.62.16-.37.2-.79.11-1.19-.13-.52-.46-.97-.92-1.25v.13c.2-.45.29-.95.29-1.44-.02-.28-.12-.55-.29-.78-.18-.25-.46-.42-.77-.45l.09.21c.34-.42.43-.99.24-1.49-.09-.29-.26-.54-.49-.74-.23-.19-.51-.3-.8-.33-.27,0-.42-.12-.5-.36-.08-.25-.21-.49-.38-.69-.33-.35-.76-.6-1.22-.73l-1.14-.4c-.56-.21-1.15-.3-1.75-.27-.16.01-.32.04-.47.09-.1,0-.15.07-.15.08.21-.04.42-.06.63-.07.58,0,1.15.13,1.68.35l1.12.43c.43.12.82.35,1.12.68.15.18.26.39.33.62.05.15.14.28.26.37.13.08.27.13.42.15.74.1,1.25.78,1.15,1.52-.03.22-.12.44-.25.62l-.17.2h.26c.49.08.85.5.84,1,0,.46-.08.92-.26,1.35v.09h.07c.42.24.73.64.86,1.11.1.36.08.74-.06,1.09-.12.32-.29.61-.51.87Z"/>
    <path class="st12" d="M326.4,186c.25-.13.48-.3.66-.52.23-.22.4-.48.5-.78.15-.38.12-.8-.07-1.16-.05-.09-.11-.16-.18-.23v.19c.27-.26.41-.63.38-1-.03-.3-.17-.58-.4-.77-.39-.32-.73-.26-.72-.24.22.09.42.21.6.37.4.38.42,1.01.05,1.41-.02.02-.03.03-.05.05l-.09.09.09.1c.05.05.1.11.13.17.16.31.19.67.07,1-.09.27-.23.52-.41.73-.36.3-.59.52-.56.59Z"/>
    <path class="st12" d="M319.78,185c-.23-.24-.39-.54-.44-.87-.07-.37.07-.75.36-1,.37-.3.88-.36,1.3-.13l.2.1v-.22c-.03-.28,0-.55.07-.82.07-.27.25-.5.5-.63.38-.17.94.07.93.43h.25c-.08-.51.03-1.03.32-1.45.25-.34.6-.59,1-.73.36-.11.74-.15,1.11-.11-.09-.05-.19-.09-.3-.1-.29-.04-.58-.02-.86.06-.43.12-.81.39-1.08.75-.35.46-.49,1.05-.4,1.62h.25c0-.29-.19-.55-.46-.65-.26-.12-.56-.12-.82,0-.32.15-.56.44-.64.79-.09.3-.12.61-.07.92l.17-.12c-.5-.23-1.09-.14-1.5.23-.31.29-.45.71-.38,1.13.05.26.17.51.36.7.03.02.12.1.13.1Z"/>
    <path class="st7" d="M339.74,195.82c.12-.13,5.27-4.16,7.45,1.87s-4.31,7-4.38,6.8-3.07-8.67-3.07-8.67Z"/>
    <path class="st9" d="M343.82,201.54s.13,0,.34.06c.29.01.57-.09.79-.27.61-.79.74-1.85.35-2.77-.17-.52-.45-1-.83-1.4-.26-.34-.67-.53-1.09-.51-.27.02-.49.24-.51.51,0,.2.06.3,0,.32s-.16,0-.2-.32c-.02-.16.01-.32.1-.46.12-.19.3-.32.52-.36.54-.08,1.08.12,1.44.53.45.43.8.96,1,1.55.46,1.08.22,2.32-.59,3.16-.29.2-.65.27-1,.19-.26-.09-.34-.21-.32-.23Z"/>
    <path class="st11" d="M326.67,288s12,1.43,20-3.85,18-25.82,18-25.82c0,0-20.05,23.16-39,26.14l1,3.53Z"/>
    <path class="st5" d="M349.43,238.61c-6.83,8.89-19.7,25.68-19.7,25.68l-47.63,7,2.49,15.78,47.32-2.71c6.97-.63,13.45-3.88,18.11-9.1,5.79-6.48,13.67-15.46,18.59-21.69,4.16-5.26,3.27-12.9-1.99-17.07-.3-.24-.61-.46-.93-.66h0c-5.31-3.46-12.39-2.25-16.26,2.77Z"/>
    <path class="st12" d="M369.8,400.24c-.14,0-3.21-14-6.85-31.33s-6.48-31.4-6.34-31.43,3.21,14,6.85,31.33,6.48,31.4,6.34,31.43Z"/>
    <path class="st12" d="M398.05,388.83c.11.1-.6,1-1.57,2s-1.86,1.76-2,1.66c.39-.76.93-1.44,1.58-2,1.02-1.01,1.94-1.76,1.99-1.66Z"/>
    <path class="st2" d="M357.08,229.6s-.15.23-.47.65l-1.42,1.86-5.47,7-19.82,25.31v.07h-.09l-47.62,7,.22-.29c.47,2.9,1,6,1.48,9.1.37,2.32.75,4.63,1.12,6.9l-.28-.22,50.43-3.13h0c3.08-.69,6.02-1.91,8.69-3.61,2.41-1.51,4.58-3.38,6.44-5.53l9.1-10.48,5.85-6.7,1.55-1.75c.35-.39.55-.58.55-.58,0,0-.16.22-.5.63l-1.5,1.79-5.76,6.77c-2.51,2.92-5.54,6.47-9,10.55-3.98,4.67-9.35,7.94-15.32,9.33h0l-50.42,3.22h-.24v-.24c-.37-2.27-.74-4.58-1.12-6.9-.5-3.12-1-6.2-1.48-9.1v-.26h.26l47.64-6.94-.14.08,20-25.17,5.56-7,1.47-1.82c.11-.34.29-.54.29-.54Z"/>
    <path class="st2" d="M363,283.39c-.16.37-.35.72-.59,1.05-.41.66-1,1.58-1.88,2.67-4.43,5.73-10.14,10.33-16.68,13.43-.98.47-1.98.9-3,1.27-.37.16-.75.28-1.14.36,0-.09,1.55-.71,4-2,6.39-3.25,12.02-7.79,16.56-13.33,1.73-2.08,2.62-3.5,2.73-3.45Z"/>
    <path class="st2" d="M367.34,290.47c.07.12-4.17,2.66-9.46,5.67s-9.65,5.35-9.72,5.23,4.16-2.67,9.46-5.68,9.65-5.35,9.72-5.22Z"/>
    <path class="st2" d="M319.8,262.42c-.15-.32-.26-.66-.34-1-.22-.77-.49-1.69-.81-2.78-.69-2.47-1.58-5.66-2.57-9.18s-1.86-6.84-2.47-9.21l-.69-2.8c-.1-.33-.16-.66-.19-1,.17.31.3.65.38,1,.22.65.51,1.59.86,2.76.69,2.34,1.62,5.58,2.61,9.18s1.84,6.85,2.43,9.22c.38,1.24.65,2.52.79,3.81Z"/>
    <g class="st10">
      <path d="M344.37,305.29c4.69-.49,9.47-.61,13.84-2.38s8.4-4.88,10.27-9.21c-7.69,4.56-15.75,8.43-24.11,11.59Z"/>
    </g>
    <path class="st4" d="M261.42,291.86c-.1.11-1,1-1.8,1.76-.95.9-1.64,2.04-2,3.3-.39,1.41-.64,2.51-.7,2.6l-1.92,6.19,7.2,5.28,1.15-5.21c1.66-.66,3.21-1.58,4.59-2.72,1.59-1.53,2.31-2.22,2.72-3.54.16-.5.08-1.04-.2-1.48,0,0-.09-2.84-1.12-2.93.3-.72.37-1.52.2-2.28-.66-1.43-2.65-1.32-2.65-1.32.3-.22.36-.64.14-.94-.06-.07-.13-.14-.21-.18-.43-.27-.99-.17-1.31.23l-4,3.57-.09-2.33Z"/>
    <path class="st5" d="M203.77,309.86c-2.95,4.64-2.06,10.74,2.08,14.36,9.49,8.28,35.2,22.68,39.06,22,5.57-.93,20.15-33.38,20.15-33.38l-10.85-8.94-13.56,22s-11.2-10.57-20-17.5c-5.32-4.21-13.28-4.3-16.93,1.43l.05.03Z"/>
    <path class="st2" d="M220.17,308c.14.09.27.19.39.3l1.08.91,4.13,3.55,15,13-.3.05,13.52-22,.15-.24.22.18,10.85,8.93.15.13-.08.18c-1.15,2.54-2.41,5.21-3.72,7.9-2.29,4.71-4.63,9.27-7.07,13.57-1.23,2.15-2.48,4.23-3.81,6.21-.67,1-1.35,2-2.1,2.86-.71.93-1.55,1.76-2.5,2.46-.5.37-1.11.55-1.73.51-.57-.06-1.13-.19-1.68-.37-1.07-.33-2.09-.74-3.08-1.15-2-.86-3.86-1.77-5.66-2.69-3.6-1.84-6.88-3.7-9.84-5.44-5.91-3.5-10.53-6.6-13.62-8.88-1.54-1.14-2.71-2.07-3.48-2.72-.39-.32-.68-.59-.87-.76-.1-.08-.19-.17-.28-.27.11.06.22.14.32.23l.89.72c.79.62,2,1.52,3.54,2.64,3.12,2.22,7.76,5.27,13.69,8.72,3,1.72,6.25,3.55,9.84,5.37,1.8.91,3.68,1.82,5.65,2.65,1,.41,2,.81,3,1.13.51.17,1.04.29,1.58.35.51.02,1.02-.13,1.43-.44.9-.68,1.7-1.47,2.38-2.37.73-.89,1.4-1.85,2.07-2.82,1.31-2,2.56-4,3.78-6.19,2.43-4.29,4.75-8.84,7-13.54,1.31-2.69,2.57-5.36,3.72-7.89l.07.3-10.83-8.94.36-.06-13.6,22-.13.2-.18-.16-14.89-13.17-4.05-3.63c-.45-.41-.8-.72-1-1-.11-.1-.22-.2-.31-.32Z"/>
    <path class="st8" d="M207.59,131.92c-.11.36-.26.69-.47,1-1.2,2.07-1.13,4.64.17,6.64l2.28,3.48.27,5.36,11.62,2.78-.54-9.44s1.92-4,1.94-6.68-.69-5.55-1.58-5.67l-1.15-.16c-.51-.89-1.33-1.54-2.31-1.84,0,0-.7-3.48-1.9-3.78s-2.27.93-2.27.93c0,0-1.49-2.84-2.75-2.65-1.49.21-2.59,1.49-2.58,3l-.77,7.36.04-.33Z"/>
    <path class="st6" d="M180.48,21.82c-.52-1.54-2.19-2.38-3.74-1.86-1.5.5-2.33,2.1-1.89,3.62l140.15,446.42,6.13.25L180.48,21.82Z"/>
    <path class="st5" d="M184.1,27.73s-37.24,25.39-66,27.68-61.45,4.49-78.59,23.73c0,0,63.31,9.93,66.87,18.35,0,0-37.84,30.06-43.57,47.31,0,0,27.22-9.64,32.84-12,18.66-7.91,54.94-4.39,68.76-9.37,15.3-5.53,29.79-21.06,42.39-23.47l-22.7-72.23Z"/>
    <g class="st0">
      <path class="st3" d="M166.64,91.18l-13.17-8.01,8.24-13.03,12.38,7.55c.43.26.58.82.32,1.25,0,.01-.01.02-.02.03l-7.76,12.21Z"/>
      <polygon class="st3" points="160.06 87.18 153.47 83.17 157.59 76.66 164.18 80.66 160.06 87.18"/>
      <path class="st3" d="M170.77,84.66l3.62-5.73c.27-.42.15-.99-.27-1.26-.01,0-.02-.01-.03-.02l-5.78-3.52-4.12,6.53,6.59,4Z"/>
      <path class="st3" d="M138.21,97.84l8.24-13.03-13.17-8.01-7.74,12.26c-.28.42-.16.98.26,1.26.01,0,.03.02.04.02l12.37,7.49Z"/>
      <polygon class="st3" points="142.34 91.33 146.46 84.81 139.87 80.81 135.75 87.32 142.34 91.33"/>
      <path class="st3" d="M131.63,93.83l-5.78-3.52c-.43-.25-.58-.81-.32-1.24,0-.01.02-.03.02-.04l3.62-5.73,6.59,4.02-4.12,6.51Z"/>
      <path class="st3" d="M163.81,95.74l-13.03-8.24-8.01,13.17,12.24,7.75c.42.27.99.15,1.26-.27,0-.01.01-.02.02-.03l7.51-12.38Z"/>
      <polygon class="st3" points="157.3 91.62 150.79 87.5 146.78 94.08 153.3 98.2 157.3 91.62"/>
      <path class="st3" d="M159.81,102.33l-3.52,5.78c-.26.43-.82.58-1.25.32-.01,0-.02-.01-.03-.02l-5.73-3.62,4.02-6.59,6.51,4.12Z"/>
      <path class="st3" d="M136.12,72.24l13.03,8.24,8.01-13.17-12.24-7.74c-.42-.28-.98-.16-1.26.26,0,.01-.02.03-.02.04l-7.51,12.37Z"/>
      <polygon class="st3" points="142.63 76.36 149.15 80.48 153.15 73.9 146.64 69.77 142.63 76.36"/>
      <path class="st3" d="M140.12,65.65l3.52-5.79c.25-.43.81-.58,1.24-.32.01,0,.03.02.04.02l5.73,3.62-4.01,6.59-6.51-4.12Z"/>
    </g>
    <path class="st2" d="M172.66,53.67c-.05.23-.13.46-.22.68l-.73,1.92c-.31.83-.72,1.85-1.24,3s-1.07,2.49-1.8,3.9c-.73,1.41-1.47,3-2.4,4.63s-1.92,3.36-3,5.17c-2.45,3.87-5.12,7.59-8,11.15-2.89,3.53-5.99,6.9-9.27,10.07-1.55,1.43-3,2.81-4.44,4s-2.78,2.31-4,3.29-2.43,1.81-3.46,2.55-1.93,1.35-2.68,1.83l-1.73,1.1c-.2.14-.4.26-.62.36.17-.17.36-.32.56-.44l1.68-1.19c.73-.5,1.62-1.12,2.62-1.89s2.18-1.59,3.4-2.61,2.59-2.08,4-3.33,2.87-2.59,4.4-4c3.26-3.18,6.33-6.54,9.22-10.06,2.87-3.54,5.54-7.24,8-11.08,1.1-1.79,2.16-3.48,3.05-5.12s1.72-3.16,2.44-4.58,1.32-2.72,1.86-3.86,1-2.14,1.32-3l.82-1.88c.06-.21.13-.41.22-.61Z"/>
    <path class="st2" d="M193.75,92.36c-.1-.17-.17-.36-.22-.55l-.53-1.58c-.46-1.46-1.09-3.45-1.87-5.88-1.55-5-3.66-11.84-5.94-19.44s-4.29-14.51-5.69-19.53c-.7-2.5-1.24-4.54-1.59-6-.17-.71-.29-1.26-.35-1.64-.03-.14-.05-.29-.06-.44,0,0,0-.13.06-.1h0c-.08-.1,0,.1.08.47l.45,1.61,1.74,5.91c1.52,5,3.57,11.9,5.84,19.48l5.79,19.49c.71,2.44,1.29,4.45,1.72,5.92.18.65.32,1.19.44,1.61.06.22.11.44.13.67Z"/>
    <g class="st10">
      <path d="M180.71,47.19c.42,9.15.85,18.35,2.9,27.28s5.81,17.64,12.14,24.26c-5.72-16.97-10.74-34.15-15.06-51.56"/>
    </g>
    <path class="st7" d="M257.34,266.74h7.43c1.26,0,2.47.46,3.41,1.3l5.66,5.09,8.26-.94,2.3,13.65-11.4-.43c-2.59.75-5.25,1.21-7.94,1.37-3,0-6.26-.92-6.37-1.92s-.15-1.31-.15-1.31c-.98-.6-1.69-1.54-2-2.65,0,0-3.92-.88-4.23-2.25s1.11-2.54,1.11-2.54c0,0-3.15-1.74-2.93-3.17.22-.92.8-1.72,1.61-2.2l6.19-.83-.95-3.17Z"/>
    <path class="st2" d="M239.05,261.24c2.72,3.73,3.45,8.55,1.95,12.92-.74,2.08-2,4.34-1,6.33s3.62,2.65,4.48,4.66c1,2.35-1.06,4.89-1.16,7.46-.03,2.49,1.76,4.63,4.22,5.05-3.32,1.48-6.99,2.02-10.6,1.55l-1.73-4.13c.56,1.57-.02,3.32-1.41,4.25-1.38.87-2.97,1.31-4.6,1.28-7.85.26-15.38-3.15-20.35-9.24"/>
    <path class="st2" d="M194.13,269.16c1.1-1.39,2.13-2.83,3.08-4.32,1.74-3.39,1.09-7.91,3.71-10.67,1.86-2,4.81-2.37,7.52-2.46s5.57,0,7.93-1.35c1.73-1,3-2.61,4.74-3.59,2.46-1.4,5.5-1.27,8.28-.7,2.88.49,5.58,1.72,7.85,3.56,2.28,1.89,3.52,4.75,3.35,7.7-.32,1.38-.53,2.79-.63,4.2.08,1.56.9,3,1.23,4.5.64,3.34-1.07,6.69-4.14,8.14l-26,19.62c-4.45.43-13.74-4.08-16.05-7.91s-3.33-12.98-.87-16.72Z"/>
    <path class="st4" d="M237.4,270.87c.74-5.85-1.74-13.68-7.62-14.17l-18.87,1.12c-1.79-.15-3.39,1.09-3.69,2.86l-6.35,43.77h-.12s1.73,13,14.35,11.58c2.5-.29,3.33.77,4.31-1.79h0l.06-.31c.77-3.24,2.21-9.93,2.21-9.93h0c.7-3.5,1-4.94,1-4.9s7.63.18,11-9.17c1.64-4.64,2.9-12.55,3.72-19.06Z"/>
    <path class="st2" d="M221.34,276.68c-.13.66-.76,1.1-1.43,1-.66-.07-1.14-.66-1.06-1.32,0-.01,0-.03,0-.04.13-.66.76-1.1,1.43-1,.66.07,1.14.66,1.06,1.32,0,.01,0,.03,0,.04Z"/>
    <path class="st2" d="M234,278.57c-.14.66-.76,1.1-1.43,1-.66-.07-1.14-.67-1.07-1.33,0,0,0-.02,0-.03.14-.66.76-1.1,1.43-1,.66.07,1.14.67,1.07,1.33,0,0,0,.02,0,.03Z"/>
    <path class="st2" d="M235.39,274.9c-.19.18-1.13-.83-2.6-1s-2.63.54-2.77.31.15-.45.66-.79c1.38-.91,3.22-.66,4.32.58.37.42.48.82.39.9Z"/>
    <path class="st2" d="M221.88,272.86c-.22.15-1.11-.95-2.65-1.3s-2.84.22-3,0,.2-.43.77-.7c.76-.34,1.62-.42,2.43-.23.81.19,1.53.64,2.05,1.28.43.48.52.88.4.95Z"/>
    <path class="st2" d="M224.73,283.18c.74-.09,1.5-.09,2.24,0,.35,0,.68,0,.78-.19.11-.34.11-.71,0-1.05-.16-.89-.33-1.81-.51-2.78-.53-2.37-.86-4.78-1-7.2.7,2.32,1.22,4.7,1.54,7.1.17,1,.32,1.9.47,2.79.14.45.11.94-.08,1.37-.15.22-.39.36-.65.39-.2.02-.39.02-.59,0-.75-.05-1.49-.19-2.2-.43Z"/>
    <path class="st15" d="M222.65,299.11c-4.55-.8-8.8-2.84-12.26-5.91,0,0,1.88,7.22,11.7,8.16l.56-2.25Z"/>
    <path class="st5" d="M223.56,286.28c-.4-.75-1.15-1.24-2-1.3-.61-.06-1.21.13-1.67.53-.45.38-.61,1.01-.4,1.56.34.57,1,.88,1.66.78.67-.11,1.31-.34,1.89-.7.17-.07.33-.18.46-.32.13-.13.16-.32.09-.49"/>
    <path class="st2" d="M220.64,283.36c.22,0,0,1.47,1,2.73s2.61,1.4,2.58,1.6-.39.22-1.05.11c-.85-.15-1.62-.59-2.17-1.25-.53-.64-.79-1.45-.73-2.28.05-.61.28-.94.37-.91Z"/>
    <path class="st2" d="M223,268.38c-.2.34-1.49-.09-3.09-.2s-2.94.08-3.09-.29c-.06-.17.22-.47.8-.72,1.54-.61,3.28-.47,4.71.37.49.34.72.68.67.84Z"/>
    <path class="st2" d="M235.15,270.69c-.32.25-1.31-.26-2.57-.52s-2.36-.24-2.55-.6c-.08-.17.15-.44.67-.64,1.44-.46,3.01-.11,4.13.9.38.4.47.74.32.86Z"/>
    <path class="st2" d="M206.72,258.14c1.35-.98,2.97-1.52,4.64-1.54,7.12-.74,14.31-.63,21.41.33.47,1.64-.84,3.34-2.4,4-1.62.52-3.3.79-5,.79-1.69.16-3.51.62-4.56,2s-1.06,3.49-2.1,5c-1.78,2.55-6,2.39-7.75,5-1.34,1.93-.72,4.55-1,6.89-.59,4.62-4.81,7.89-9.43,7.3-.36-.05-.72-.12-1.07-.21,1.74-8.25,3.48-16.49,5.21-24.74.33-1.81.74-3.65,2.05-4.82Z"/>
    <path class="st2" d="M184.79,274.21c1.6-.8,3.47-1.35,4.43-2.86,1.4-2.19.24-5.53,2.07-7.38,1.67-1.68,5-.67,6.57-2.42,1.25-1.37.69-3,1.38-4.34,1-1.37,2.76-1.95,4.37-1.44l6.73,19.08c-.43,5.67-.17,8.82-2.19,11.66-1.21,1.48-2.26,3.08-3.13,4.78-.87,1.75-.73,3.82.36,5.44-6.77-1.28-12-6.44-16.88-11.35l-5.11-5.2c-.58-.5-1.02-1.13-1.29-1.84-.49-1.72,1.1-3.34,2.69-4.13Z"/>
    <path class="st12" d="M188.78,283.71c.21.13.44.25.67.33.67.26,1.39.4,2.11.41,3.65.06,6.66-2.85,6.72-6.5,0-.08,0-.15,0-.23-.07-.95-.25-1.89-.56-2.8-.34-.93-.53-1.91-.58-2.9-.06-1.03.36-2.02,1.12-2.71.82-.65,2-.54,3.15-.68,1.3-.05,2.39-1,2.62-2.28.18-1.21.24-2.44.19-3.66.02-.59.17-1.17.44-1.69.3-.51.77-.9,1.33-1.09,1.18-.32,2.41-.32,3.59,0,1.22.28,2.49.25,3.69-.08,1.15-.35,2.19-1.01,3-1.9.72-.88,1.3-1.87,1.73-2.93.38-.98.87-1.93,1.45-2.81.59-.79,1.34-1.45,2.2-1.93,2.93-1.61,6.56-1.15,9,1.14.82.76,1.49,1.65,2,2.64.43.86.77,1.76,1,2.69,0-.06,0-.13,0-.19,0-.12,0-.31-.1-.55-.15-.69-.39-1.37-.71-2-.5-1.02-1.17-1.95-2-2.73-1.11-1.06-2.5-1.78-4-2.09-1.83-.34-3.72-.05-5.36.82-.91.49-1.7,1.17-2.32,2-.6.9-1.1,1.86-1.51,2.86-.41,1.03-.97,1.98-1.67,2.84-.77.84-1.76,1.46-2.86,1.78-1.15.32-2.35.34-3.51.06-1.24-.34-2.56-.34-3.8,0-.64.22-1.19.67-1.53,1.26-.31.58-.48,1.22-.5,1.87.05,1.2,0,2.4-.17,3.59-.19,1.13-1.15,1.96-2.29,2-.56.08-1.13.08-1.7.15-.58.05-1.14.26-1.62.6-.85.76-1.3,1.86-1.24,3,.05,1.02.26,2.04.61,3,.3.88.5,1.79.57,2.71.02.85-.12,1.7-.43,2.49-.52,1.38-1.51,2.54-2.79,3.27-.98.54-2.08.82-3.19.81-.94-.01-1.88-.21-2.75-.57Z"/>
    <path class="st2" d="M183,269.88c-.16.14-.28.3-.37.49-.26.54-.32,1.15-.16,1.72.23.94.97,1.67,1.92,1.88,1.24.31,2.55-.09,3.4-1.05.48-.54.82-1.2,1-1.9.18-.76.23-1.54.13-2.31-.13-1.58-.71-3.24-.28-4.92.17-.85.67-1.6,1.39-2.07.83-.37,1.77-.41,2.62-.1.95.34,1.95.5,2.95.48.54-.07,1.05-.3,1.45-.67.39-.37.69-.83.88-1.33.31-.97.5-1.98.56-3,.11-.95.41-1.87.9-2.69.93-1.56,2.43-2.71,4.18-3.21,1.62-.34,3.29-.27,4.88.2,1.43.39,2.9.55,4.38.48,1.22-.12,2.4-.49,3.48-1.07.81-.43,1.55-.99,2.19-1.65.56-.54,1.02-1.18,1.36-1.89-.43.64-.92,1.23-1.47,1.78-.65.63-1.39,1.15-2.19,1.56-1.05.56-2.2.9-3.39,1-1.45.05-2.9-.12-4.29-.52-1.64-.49-3.37-.57-5.05-.23-1.85.52-3.43,1.72-4.42,3.37-.53.86-.87,1.83-1,2.84-.06.99-.24,1.97-.54,2.92-.29.91-1.06,1.59-2,1.76-.96,0-1.91-.15-2.81-.47-.95-.33-1.99-.28-2.9.15-.81.52-1.37,1.36-1.55,2.31-.2.87-.22,1.76-.07,2.64.12.83.29,1.63.37,2.4.1.73.07,1.48-.09,2.2-.17.66-.49,1.27-.94,1.79-.78.89-1.99,1.27-3.14,1-.46-.11-.89-.34-1.23-.68-.68-.72-.88-1.76-.51-2.68.11-.18.23-.36.36-.53Z"/>
    <path class="st2" d="M251.84,292.81c.03.62-.14,1.22-.49,1.73-.41.57-1.06.94-1.76,1-.94.02-1.81-.5-2.25-1.33-.25-.47-.32-1.02-.2-1.54.14-.58.38-1.12.71-1.61.66-1,1.71-2.05,2-3.54.3-1.54-.07-3.12-1-4.38-.48-.66-1.08-1.22-1.77-1.65-.71-.43-1.47-.77-2.27-1-.77-.22-1.52-.51-2.23-.87-.67-.34-1.19-.9-1.48-1.59-.23-.69-.28-1.43-.12-2.14.15-.7.39-1.37.73-2,.7-1.17,1.26-2.42,1.65-3.72.25-1.18.14-2.42-.31-3.54-.4-.9-.97-1.72-1.67-2.42-.51-.52-.98-1.07-1.4-1.66-.34-.51-.58-1.09-.71-1.69v.12c-.01.12-.01.25,0,.37.1.46.28.9.54,1.29.41.61.87,1.19,1.37,1.72.66.69,1.19,1.49,1.56,2.37.42,1.07.51,2.25.25,3.37-.39,1.27-.95,2.49-1.65,3.62-.35.66-.61,1.36-.77,2.09-.18.78-.14,1.59.12,2.35.32.78.91,1.42,1.66,1.8.73.37,1.5.67,2.29.9.76.21,1.5.53,2.18.93.65.41,1.22.93,1.67,1.55.87,1.16,1.21,2.64.93,4.07-.24,1.37-1.22,2.36-1.91,3.44-.35.53-.6,1.11-.73,1.73-.13.59-.04,1.21.25,1.74.49.92,1.47,1.46,2.51,1.41.77-.07,1.46-.5,1.87-1.16.27-.39.42-.85.43-1.33.02-.14.02-.29,0-.43Z"/>
    <path class="st5" d="M121.8,440.41l19.46-4.13,3.24,16-14.3.32.14,12.9c6.42,1.81,7.32,5.06,7.32,5.06l-13.42-.31-11.68-23.75,9.24-6.09Z"/>
    <g class="st1">
      <polygon class="st3" points="112.56 446.46 124.24 470.21 137.66 470.52 136.2 468.47 125.29 467.62 114.52 445.17 112.56 446.46"/>
    </g>
    <path class="st2" d="M130.39,459.55c-.1.14-.87-.32-1.91-.31s-1.81.42-1.91.28.65-.89,1.92-.87c1.27.02,2.02.8,1.9.9Z"/>
    <path class="st2" d="M130.24,456.35c-.13.09-.71-.71-1.78-1s-1.93.24-2,.1.12-.28.5-.48c.51-.25,1.09-.32,1.65-.19.56.12,1.05.43,1.41.87.24.35.29.66.22.7Z"/>
    <path class="st2" d="M130.42,452.24c-.15.08-.59-.71-1.51-1.06s-1.78-.05-1.84-.2.14-.26.51-.39c1.03-.33,2.15.08,2.71,1,.19.41.2.63.13.65Z"/>
    <path class="st2" d="M131.41,452.24c-.16,0-.06-.89-.47-1.8s-1.05-1.43-1-1.58,1,.23,1.52,1.35.09,2.1-.05,2.03Z"/>
    <path class="st2" d="M133,450.72c-.2-.58-.31-1.19-.32-1.8-.06-.64-.12-1.3-.18-2-.06-.42-.06-.84,0-1.26.08-.28.25-.51.5-.66.28-.18.63-.18.91,0,.36.32.63.73.77,1.19.14.39.22.8.24,1.22.04.68-.08,1.37-.35,2-.48,1.09-1.16,1.49-1.18,1.44.29-.52.56-1.05.79-1.59.19-.59.26-1.22.2-1.84-.04-.36-.12-.72-.25-1.06-.1-.34-.29-.65-.55-.9-.08-.06-.2-.06-.28,0-.11.07-.19.18-.22.31-.05.36-.05.71,0,1.07v2c.08.63.05,1.26-.08,1.88Z"/>
    <path class="st2" d="M133.22,451.31c-.06,0,.34-.62,1.37-1,1.43-.45,2.99.1,3.81,1.36.06.17.04.36-.06.52-.08.13-.2.24-.35.29-.2.07-.41.11-.63.12-.98.09-1.97-.06-2.87-.45-1-.42-1.4-.91-1.36-1,.51.16,1.02.35,1.51.57.54.17,1.1.27,1.67.3.33.03.67.03,1,0,.16,0,.31-.04.46-.09.11-.07.08-.05.08-.09s-.14-.2-.27-.32c-.12-.12-.25-.22-.39-.31-.26-.18-.55-.33-.86-.42-.52-.17-1.08-.2-1.62-.09-.51.17-1.01.38-1.49.61Z"/>
    <g class="st1">
      <path class="st3" d="M123.28,446.29c-.01.88-.74,1.59-1.62,1.58s-1.59-.74-1.58-1.62.74-1.59,1.62-1.58c0,0,.01,0,.02,0,.88.02,1.57.74,1.56,1.62Z"/>
    </g>
    <path class="st5" d="M269.49,442.16l-.19,17.58s18.72,7,19,10.21h-35l-.84-27.4,17.03-.39Z"/>
    <g class="st1">
      <path class="st3" d="M258.72,458.53c-.67.23-1.06.92-.92,1.61.19.69.9,1.1,1.59.93.73-.22,1.16-.97,1-1.71-.28-.69-1.06-1.04-1.76-.78"/>
    </g>
    <g class="st1">
      <path class="st3" d="M253.3,470v-2.77l32.68.2s2.45,1.5,2.3,2.57h-34.98Z"/>
    </g>
    <path class="st2" d="M269.85,459.55c0,.17-.83.26-1.64.82s-1.22,1.27-1.37,1.2.06-1,1.05-1.68,1.99-.49,1.96-.34Z"/>
    <path class="st2" d="M273.47,460.94c0,.16-.68.46-1.22,1.18s-.69,1.47-.86,1.46-.3-.94.4-1.82,1.67-.98,1.68-.82Z"/>
    <path class="st2" d="M275.61,465.17c-.15,0-.41-.79,0-1.71s1.17-1.31,1.24-1.17-.39.63-.71,1.4-.37,1.46-.53,1.48Z"/>
    <path class="st2" d="M269.45,455.54c-.07.15-.84-.06-1.78,0s-1.66.4-1.75.26.6-.75,1.71-.84,1.9.45,1.82.58Z"/>
    <g class="st10">
      <polygon points="269.45 445.64 269.42 448.77 252.66 449.05 252.56 446.23 269.45 445.64"/>
    </g>
    <path class="st2" d="M269.42,452c-.56.16-1.15.16-1.71,0-.62-.09-1.22-.27-1.8-.51-.34-.14-.68-.3-1-.49-.2-.1-.37-.23-.53-.39-.23-.24-.27-.6-.1-.88.16-.24.43-.39.72-.4.22,0,.44.01.65.07.37.08.73.19,1.07.34.58.25,1.12.59,1.6,1,.81.71,1.09,1.33,1,1.36s-.47-.45-1.3-1c-.48-.34-.99-.62-1.54-.82-.32-.12-.66-.21-1-.27-.36-.09-.67-.08-.76.08s0,.09,0,.19c.12.11.25.2.39.28.31.19.62.35.92.5.53.25,1.09.44,1.66.59.59.07,1.16.19,1.73.35Z"/>
    <path class="st2" d="M269.21,452.24c-.33-.48-.5-1.06-.49-1.64-.08-1.01.12-2.02.59-2.92.17-.47.58-.81,1.07-.89.31,0,.59.17.72.45.1.2.16.41.19.63.06.38.06.77,0,1.15-.08.64-.32,1.25-.69,1.78-.64.9-1.33,1.12-1.35,1.06s.52-.42,1-1.28c.29-.5.46-1.05.5-1.62.03-.33.02-.67-.05-1-.07-.36-.21-.65-.34-.6s-.45.28-.59.57c-.15.3-.29.62-.4.94-.17.55-.27,1.13-.28,1.71.02,1.01.21,1.63.12,1.66Z"/>
    <path class="st2" d="M176.63,405c1.2,0,6.94,23.41,6.94,23.41l-53.08,7.91,3.37,21.17s62.67-4.19,67-5.17c7.64-1.74,13.42-9.13,13.17-18.83-.29-11.17-6.82-37.48-6.82-37.48l-30.58,8.99Z"/>
    <path class="st11" d="M210,408.82l-30.8,2.23s2.56,5.32,11.23,5.94,21.32,0,21.32,0l-1.75-8.17Z"/>
    <path class="st2" d="M275.71,387.09c-.82-9.61-8.9-16.98-18.55-16.91h-9.44l-51,2.64-27.72-8.43s-9.63,17.21-4.09,31.59c3.32,8.79,11.07,15.15,20.34,16.68,11.53,2,64.34-9.15,64.34-9.15v47l24-.62,2.17-61.89c-.01-.3-.03-.6-.05-.91Z"/>
    <path class="st12" d="M249.61,403.51l-.31.08-.93.19-3.58.67-13.17,2.37-19.54,3.46-11.55,2c-4.15.77-8.38,1.01-12.59.71-2.14-.15-4.26-.48-6.34-1-2.03-.48-4-1.21-5.86-2.16-3.48-1.92-6.4-4.71-8.46-8.11-1.9-3.03-3.22-6.38-3.89-9.89-.59-3.05-.7-6.17-.34-9.26.65-4.43,1.81-8.77,3.47-12.93.59-1.47,1.12-2.58,1.5-3.32.2-.37.35-.65.46-.83s.17-.28.18-.27c-.03.1-.08.2-.13.29-.11.22-.24.5-.41.86-.35.75-.85,1.87-1.41,3.34-1.58,4.16-2.68,8.49-3.29,12.9-.34,3.05-.21,6.12.39,9.13.68,3.45,2,6.75,3.88,9.72,2.03,3.33,4.89,6.06,8.31,7.94,1.83.93,3.76,1.64,5.75,2.11,2.05.51,4.15.85,6.26,1,4.17.28,8.36.05,12.47-.7l11.55-2,19.56-3.34,13.2-2.21,3.59-.58.94-.13c.09-.02.19-.04.29-.04Z"/>
    <path class="st12" d="M186.69,453.83h-.26l-.76.07-3,.25-11,.83-37.82,2.69h-.23v-.22c-.87-5.45-1.8-11.27-2.76-17.26l-.62-3.91v-.26h.26l53.1-7.8h0c2.84,1.39,5.5,3.13,7.9,5.19.83.72,1.43,1.32,1.82,1.73l.44.48c.09.11.14.17.13.17s-.06,0-.16-.14l-.47-.45c-.41-.39-1-1-1.86-1.67-2.43-1.98-5.09-3.66-7.93-5h.09l-53.06,8,.22-.3.62,3.91c.95,6,1.87,11.81,2.74,17.26l-.27-.22,37.83-2.5,11-.68,3-.16h1.05Z"/>
    <path class="st12" d="M254.93,397.76c-1.18.65-2.27,1.44-3.25,2.36-.86,1.03-1.58,2.17-2.15,3.38-.06,0,0-.49.21-1.21.7-1.9,2.14-3.43,4-4.24.7-.29,1.17-.35,1.19-.29Z"/>
    <path class="st12" d="M212.06,372.18c-.47.12-.95.19-1.43.21-.92.11-2.25.21-3.9.3-3.3.19-7.87.28-12.91.33s-9.6.13-12.89.32c-1.65.08-3,.18-3.9.26-.47.06-.95.09-1.43.08.46-.14.93-.24,1.41-.28.92-.14,2.25-.3,3.9-.43,3.29-.28,7.86-.41,12.91-.47s9.59-.08,12.89-.18l3.91-.13c.48-.04.96-.05,1.44,0Z"/>
    <path class="st5" d="M201.85,297.75l-.53.63c-7.1,1.5-12.78,6.83-14.72,13.82-1.94,6.86-2.54,19.54-6.51,36.73,0,0-9.75,8.82-11.57,15.46l28.17,8.49,15.37-.86,5.94-18.44c5.75,0,8.2-2.88,10.27-7.6,2.75-6.28-6.32-35.09-6.32-35.09l.65,4.92-20.75-18.06Z"/>
    <path class="st11" d="M226,322.05l6.87,13.95-4.21.64s-2.6-13.55-2.66-14.59Z"/>
    <path class="st2" d="M220.77,353.58s.49-.16,1.32-.53c1.17-.53,2.22-1.29,3.1-2.23,1.3-1.4,2.26-3.07,2.83-4.89.66-2.25.88-4.6.65-6.93-.22-2.36-.6-4.7-1.15-7-.47-2.12-.9-4.05-1.17-5.68-.22-1.29-.35-2.59-.4-3.9-.04-.47-.03-.95.05-1.42.08.47.13.94.15,1.42.12,1.29.31,2.58.57,3.85.31,1.62.77,3.52,1.27,5.65.58,2.3.98,4.64,1.2,7,.23,2.4-.01,4.82-.71,7.12-.6,1.87-1.63,3.59-3,5-.93.95-2.05,1.69-3.29,2.17-.32.13-.66.22-1,.29-.29.08-.42.1-.42.08Z"/>
    <path class="st11" d="M188.11,324.35s9.52,32.82,15.74,37.82c3.29,2.95,8.29,2.91,11.54-.09l1.15-5.65-28.43-32.08Z"/>
    <path class="st4" d="M278,321.73c-1.09-1-1.72-.62-1.72-.62,0,0,.58-2.66-.81-3.59-.42-.29-.66-.44-.78-.51-.14-.35-1-2.26-2.43-2.58,0,0-.19-2.5-1.24-2.73-2-.44-2.83,1.69-2.83,1.69l-3.59,6.86-1.71,7-29.4,13.65,3.14,13.48,33-17,5.88-5.64s3.57-9.04,2.49-10.01Z"/>
    <path class="st5" d="M190.29,314.46c0,1.05,16.59,44.35,24.44,47.37,2.99,1.17,48.27-15.83,48.27-15.83l-5.51-16.69s-31.66,10.64-32.72,10.6-10.95-27.43-10.95-27.43c0,0-6.21-13-15.54-8.95-5.98,2.61-7.99,10.93-7.99,10.93Z"/>
    <path class="st2" d="M224.76,339.93l.59-.22,1.72-.59,6.59-2.2,23.75-7.79.21-.07.07.2c1.67,5.06,3.54,10.69,5.53,16.68l.07.22-.22.09c-7.1,2.73-14.88,5.66-23,8.56-5,1.77-9.87,3.45-14.63,4.93-2.39.72-4.73,1.44-7.09,2-.58.14-1.17.25-1.77.33l-.9.13c-.34.04-.67.01-1-.08-1.12-.46-2.1-1.18-2.87-2.11-1.47-1.7-2.78-3.53-3.92-5.47-1.12-1.87-2.13-3.72-3.07-5.53-1.88-3.62-3.48-7.07-4.89-10.23-2.82-6.33-4.89-11.54-6.29-15.15-.7-1.81-1.23-3.22-1.57-4.18-.17-.46-.3-.82-.39-1.09-.05-.12-.09-.25-.12-.38.07.11.13.23.17.36l.43,1.08,1.67,4.13c1.46,3.59,3.58,8.78,6.44,15.08,1.43,3.15,3,6.58,4.93,10.18.94,1.8,2,3.64,3.08,5.49,1.13,1.91,2.43,3.71,3.88,5.38.71.87,1.62,1.56,2.66,2,.55.09,1.11.07,1.65-.06.58-.07,1.16-.19,1.73-.34,2.33-.51,4.67-1.24,7-2,4.75-1.48,9.62-3.17,14.6-4.93,8.15-2.9,15.93-5.81,23-8.53l-.15.3c-2-6-3.81-11.63-5.48-16.69l.28.14-23.81,7.62-6.63,2.08-1.74.53c-.27.09-.51.13-.51.13Z"/>
    <path class="st2" d="M200.89,303.17c.15-.04.3-.07.46-.06.44-.03.89-.03,1.33,0,1.65.06,3.26.53,4.69,1.36.97.6,1.84,1.35,2.58,2.22.86.97,1.65,2,2.36,3.08,1.54,2.52,2.88,5.16,4,7.9,2.5,5.76,4.32,11.15,5.6,15,.64,2,1.13,3.54,1.46,4.64.2.56.35,1.13.46,1.72-.25-.54-.47-1.09-.65-1.66l-1.62-4.58c-1.37-3.87-3.24-9.23-5.73-15-1.13-2.71-2.47-5.33-4-7.84-.68-1.07-1.45-2.1-2.28-3.06-.7-.85-1.52-1.59-2.45-2.19-1.37-.83-2.91-1.34-4.51-1.48-1.06-.03-1.7,0-1.7-.05Z"/>
    <path class="st15" d="M272.25,314.52c.13.07-.24,1-.82,2s-1.16,1.79-1.28,1.72.24-1,.82-2,1.16-1.79,1.28-1.72Z"/>
    <path class="st15" d="M274.29,316.92c.12.08-.31.87-.87,1.82s-1,1.71-1.17,1.65.15-.94.72-1.91,1.21-1.65,1.32-1.56Z"/>
    <path class="st15" d="M276.28,321.09c.13.06,0,.68-.38,1.39s-.72,1.22-.85,1.15.05-.68.39-1.38.72-1.25.84-1.16Z"/>
    <path class="st2" d="M224.83,339.5c.13.09-.85,1.6-1.57,3.67s-.93,3.85-1.09,3.84c-.14-1.36.06-2.74.6-4,.37-1.33,1.08-2.54,2.06-3.51Z"/>
    <path class="st7" d="M234,188.62l-7.88-3.19c-.75,1.32-.4,2.98.81,3.89,1.41,1.24,2.98,2.28,4.68,3.07,0,0,.9,4,2.92,6s6.58-1.18,6.58-1.18c0,0-.04-5.94-7.11-8.59Z"/>
    <path class="st8" d="M245.79,214.25c-.94-1.32-1.88-.53-1.88-.53,0,0,1.12-2.8-.23-4.07-.41-.39-.64-.6-.76-.7-.1-.41-.69-2.65-2.2-3.27,0,0,0-2.63-1.12-3.06-1.77-.67-3.75,1.35-3.75,1.35l-4.56,6.71-6.78,11.25,3.78,12,10.76-6.69,2.14-2.08s5.7-9.37,4.6-10.91Z"/>
    <path class="st16" d="M240.81,205.57c.12.08-.21.84-.74,1.7s-1.06,1.5-1.19,1.42.21-.83.75-1.69,1.06-1.51,1.18-1.43Z"/>
    <path class="st16" d="M242.9,208.66c-.03.96-.38,1.88-1,2.61-.9,1.3-2,1.95-2.1,1.83s.84-.91,1.67-2.13,1.29-2.36,1.43-2.31Z"/>
    <path class="st16" d="M243.86,213.28c.12.06-.1.84-.71,1.62s-1.31,1.18-1.39,1.07.42-.67,1-1.39.96-1.36,1.1-1.3Z"/>
    <path class="st7" d="M223.27,199.07c1.29,1.54,2.93,2.76,4.78,3.55.73.37,1.56.51,2.37.4.83-.15,1.43-.87,1.43-1.71-.13-.59-.47-1.11-.95-1.48l-3.57-3.44c.38.64.86,1.22,1.42,1.72.56.51,1.33.74,2.08.63.76-.15,1.3-.83,1.28-1.6-.1-.45-.32-.87-.64-1.21l-4.65-5.9"/>
    <path class="st9" d="M231.82,201.7s.06.18-.06.45c-.19.38-.5.69-.87.89-.54.31-1.15.48-1.78.49-.76-.03-1.5-.25-2.15-.65-1.66-.9-2.99-2.3-3.8-4,1.2,1.35,2.56,2.55,4.06,3.56.57.36,1.23.57,1.9.62.55.01,1.09-.1,1.59-.33.47-.22.86-.58,1.11-1.03Z"/>
    <path class="st9" d="M232,197.74s0,.17-.16.42c-.24.35-.59.59-1,.68-1.36.18-2.74-.2-3.81-1.07-1.01-.87-1.82-1.95-2.36-3.16-.28-.46-.48-.98-.58-1.51.07,0,.39.49.9,1.34.61,1.1,1.41,2.09,2.35,2.92.97.77,2.19,1.16,3.43,1.11.92-.12,1.17-.8,1.23-.73Z"/>
    <path class="st9" d="M230.67,203s.2,0,.45.24c.35.33.57.78.61,1.26.04.74-.32,1.45-.95,1.85-.79.42-1.72.44-2.53.06-1.4-.52-2.65-1.4-3.61-2.55-.44-.44-.76-.98-.94-1.57.07,0,.44.54,1.21,1.32.99,1.02,2.19,1.81,3.52,2.31.66.32,1.43.32,2.09,0,.51-.3.82-.84.84-1.43,0-.41-.14-.8-.39-1.13-.18-.23-.32-.36-.3-.36Z"/>
    <path class="st9" d="M236,199.06c-.94-.08-1.8-.54-2.4-1.26-.69-.73-1.2-1.62-1.49-2.58-.18-.56-.31-1.14-.39-1.72-.02-.27-.09-.53-.22-.77-.16-.21-.38-.36-.63-.44-1.12-.46-2.19-1.05-3.17-1.77-.77-.64-1.36-1.48-1.7-2.42-.27-.63-.35-1.33-.22-2,.04-.25.15-.48.32-.67,0,0-.07.25-.12.7-.05.63.08,1.26.36,1.83.38.86.97,1.61,1.72,2.18.96.67,2,1.23,3.08,1.68.35.12.65.34.86.64.16.31.26.65.29,1,.06.55.17,1.1.33,1.64.44,1.8,1.72,3.29,3.44,4l-.06-.04Z"/>
    <path class="st4" d="M260.91,292.08l6.13-4.75c1,.96,1.12,2.52.26,3.61-.93,1.44-2.06,2.74-3.36,3.86,0,0,.2,3.73-1.07,6s-6.07.6-6.07.6c0,0-1.48-5.24,4.11-9.32Z"/>
    <path class="st4" d="M270.33,298.26c-.75,1.24-1.78,2.29-3,3.07-.6.24-1.26.3-1.9.17-.6-.06-1.08-.54-1.13-1.15.08-.43.29-.82.61-1.12l2.37-2.67c-.24.48-.56.93-.93,1.32-.38.39-.91.6-1.46.57-.55-.07-.97-.52-1-1.08.05-.33.19-.64.39-.91l3-4.5"/>
    <path class="st4" d="M270.33,300.37c-.64,1.29-1.67,2.34-2.95,3-.49.29-1.06.4-1.62.29-.48-.16-.83-.56-.93-1.05-.08-.5.12-.99.52-1.3"/>
    <path class="st15" d="M265.35,301.28c.07.05-.4.4-.35,1.12.05.4.3.75.66.92.48.17,1.01.12,1.44-.14.91-.44,1.73-1.05,2.39-1.82.51-.6.76-1,.84-1s-.08.52-.55,1.21c-.62.9-1.47,1.61-2.46,2.08-.58.32-1.27.36-1.88.09-.5-.26-.81-.78-.81-1.34-.01-.37.13-.73.39-1,.18-.11.32-.15.33-.12Z"/>
    <path class="st15" d="M264.45,300.41c.24.28.54.49.88.62.36.13.75.18,1.13.13.47-.07.92-.26,1.3-.54,1-.83,1.92-1.74,2.76-2.73-.43,1.31-1.3,2.43-2.47,3.16-.45.33-.98.53-1.54.59-.46.03-.92-.06-1.33-.27-.29-.13-.53-.34-.68-.62-.1-.2-.08-.33-.05-.34Z"/>
    <path class="st15" d="M264.08,297.86c.08-.06.31.39,1,.4.87-.05,1.7-.4,2.34-1,.63-.64,1.14-1.39,1.53-2.2.33-.63.55-1,.61-1s0,.46-.27,1.14c-.32.92-.84,1.75-1.52,2.44-.73.69-1.72,1.06-2.73,1-.32-.04-.61-.2-.81-.46-.15-.18-.17-.31-.15-.32Z"/>
    <path class="st15" d="M261.66,301.76c.61-.52,1.12-1.15,1.49-1.86.35-.78.53-1.63.53-2.49,0-.51-.04-1.02-.11-1.53-.07-.31-.07-.62,0-.93.11-.32.32-.59.6-.79.84-.66,1.61-1.4,2.29-2.22.52-.68.87-1.48,1-2.33.1-.57.05-1.15-.14-1.7-.14-.37-.3-.55-.27-.58s.23.11.46.5c.28.56.39,1.2.31,1.82-.08.93-.41,1.81-.95,2.57-.68.87-1.47,1.66-2.34,2.34-.2.13-.36.32-.45.54-.05.23-.05.48,0,.71.07.53.1,1.07.09,1.61-.02.92-.25,1.83-.68,2.65-.36.79-1.02,1.4-1.83,1.69Z"/>
    <path class="st16" d="M217.3,128.17c.23.87.35,1.77.34,2.67.04,1-.08,1.99-.36,2.95-.17.59-.46,1.14-.86,1.6-.24.26-.55.44-.89.53-.38.1-.78.04-1.11-.17-.53-.44-.88-1.05-1-1.73-.14-.59-.25-1.16-.33-1.71-.15-.97-.22-1.95-.21-2.93-.05-.9.05-1.81.31-2.68.08,0,0,1,.06,2.67.05.96.15,1.91.31,2.86.1.54.21,1.09.36,1.66.09.55.36,1.05.78,1.42.46.24,1.02.12,1.34-.28.36-.4.62-.88.77-1.39.29-.91.44-1.85.45-2.8-.04-.89-.02-1.78.04-2.67Z"/>
    <path class="st16" d="M220.9,130.67c.13.47.18.97.12,1.46.01,1.21-.27,2.4-.83,3.47-.18.31-.39.6-.65.85-.26.27-.62.42-1,.43-.63-.05-1.16-.47-1.36-1.06-.2-.47-.23-1-.07-1.49.1,0,.09.58.41,1.34.17.41.56.69,1,.73.45,0,.88-.5,1.2-1.06.51-1.01.82-2.1.91-3.23.01-.49.11-.98.27-1.44Z"/>
    <path class="st8" d="M210,146.78c3.18-2,.52-12.81-1.46-15.35,2.17-2.2,3.16-4.67,1.62-7.35-2,2-5.41,4.49-6,10l.62,4.21,5.22,8.49Z"/>
    <path class="st16" d="M210.8,142.29c.16-.95.27-1.91.33-2.87.02-2.31-.76-4.56-2.19-6.38-.32-.41-.68-.8-1.07-1.15l-.23-.22.26-.18c1.59-1.13,2.56-2.93,2.61-4.88-.02-.79-.11-1.58-.27-2.35.14.17.24.37.29.58.2.57.31,1.17.32,1.77.02.91-.15,1.82-.52,2.66-.46,1.05-1.2,1.96-2.13,2.64v-.4c.41.37.79.77,1.13,1.21,1.52,1.9,2.28,4.29,2.14,6.72-.03.72-.16,1.44-.38,2.13-.05.26-.15.5-.29.72Z"/>
  </g>
</svg>