<?xml version="1.0" encoding="UTF-8"?>
<svg id="Capa_1" xmlns="http://www.w3.org/2000/svg" version="1.1" viewBox="0 0 900 900">
  <!-- Generator: Adobe Illustrator 30.2.1, SVG Export Plug-In . SVG Version: 2.1.1 Build 1)  -->
  <defs>
    <style>
      .st0 {
        opacity: .6;
      }

      .st1 {
        fill: #fafafa;
      }

      .st2 {
        fill: #973032;
      }

      .st3 {
        fill: #263238;
      }

      .st4 {
        stroke: #263238;
        stroke-miterlimit: 10;
        stroke-width: 3.13px;
      }

      .st4, .st5 {
        fill: none;
      }

      .st6 {
        font-size: 17.91px;
      }

      .st6, .st7 {
        fill: #1f2123;
      }

      .st8 {
        opacity: .3;
      }

      .st9 {
        fill: #fff;
      }

      .st10 {
        fill: #e0e0e0;
      }

      .st11 {
        fill: #dee0e2;
      }

      .st12 {
        fill: #455a64;
      }

      .st13 {
        fill: #bc2e41;
      }

      .st14 {
        fill: #e0e0e0;
      }

      .st15 {
        fill: #bd0043;
      }

      .st16 {
        fill: #d4d5d6;
      }

      .st17 {
        fill: #ae2f3d;
      }

      .st18 {
        opacity: .2;
      }

      .st19 {
        fill: #ff9a6c;
      }

      .st20 {
        fill: #f5f5f5;
      }

      .st21 {
        fill: #c8ced3;
      }

      .st22 {
        fill: #ffc09d;
      }

      .st23 {
        fill: #d5d9dc;
      }
    </style>
  </defs>
  <path class="st4" d="M173.26,222.53"/>
  <path class="st4" d="M90.23,227.23"/>
  <g>
    <g>
      <g>
        <path class="st14" d="M844.7,618.22l-77.25-29.42c-5.34-2.03-8.02-8.01-5.98-13.35l40.72-106.93c2.03-5.34,8.01-8.02,13.35-5.99l48.99,18.66,23.04,53.53-29.52,77.51c-2.03,5.34-8.01,8.02-13.35,5.99Z"/>
        <path class="st10" d="M864.53,481.19l-11.46,30.09c-1.89,4.97.6,10.52,5.56,12.41l28.93,11.02-23.04-53.53Z"/>
      </g>
      <path class="st9" d="M847.06,507.59c-.15.39-8.27-2.35-18.14-6.11-9.87-3.76-17.75-7.12-17.6-7.51.15-.39,8.27,2.35,18.14,6.11,9.87,3.76,17.75,7.12,17.6,7.51Z"/>
      <path class="st9" d="M863.66,533.4c-.15.39-13.44-4.32-29.68-10.5-16.25-6.19-29.29-11.52-29.15-11.9.15-.39,13.43,4.31,29.68,10.5,16.24,6.19,29.29,11.51,29.14,11.9Z"/>
      <path class="st9" d="M863.55,549.62c-.15.39-14.62-4.77-32.33-11.51-17.71-6.74-31.94-12.52-31.8-12.91.15-.39,14.62,4.77,32.33,11.51,17.7,6.74,31.94,12.52,31.79,12.91Z"/>
      <path class="st9" d="M858.44,563.03c-.15.39-14.62-4.77-32.33-11.51-17.71-6.74-31.94-12.52-31.8-12.91.15-.39,14.62,4.77,32.33,11.51,17.7,6.74,31.94,12.52,31.79,12.91Z"/>
      <path class="st9" d="M853.34,576.43c-.15.39-14.62-4.77-32.33-11.51-17.71-6.74-31.94-12.52-31.8-12.91.15-.39,14.62,4.77,32.33,11.51,17.7,6.74,31.94,12.52,31.79,12.91Z"/>
      <path class="st9" d="M848.23,589.84c-.15.39-14.62-4.77-32.33-11.51-17.71-6.74-31.94-12.52-31.8-12.91.15-.39,14.62,4.77,32.33,11.51,17.7,6.74,31.94,12.52,31.79,12.91Z"/>
    </g>
    <g>
      <g>
        <path class="st14" d="M391.85,801.79l-74,23.14c-5.11,1.6-10.55-1.25-12.15-6.36l-32.02-102.42c-1.6-5.11,1.25-10.55,6.36-12.15l46.93-14.67,48.03,26.08,23.21,74.24c1.6,5.11-1.25,10.55-6.36,12.15Z"/>
        <path class="st10" d="M300.66,775.79h96.93v31.89c0,3.62-2.94,6.55-6.55,6.55h-83.97c-3.53,0-6.4-2.87-6.4-6.4v-32.04h0Z" transform="translate(-221.34 140.41) rotate(-17.36)"/>
        <g>
          <path class="st9" d="M336.67,790.22l4.68,14.96-3.31,1.04-1.92-6.13-6.51,2.04,1.92,6.13-3.32,1.04-4.68-14.96,3.31-1.04,1.84,5.9,6.51-2.04-1.84-5.9,3.31-1.04Z"/>
          <path class="st9" d="M351.46,801.4c-.5.7-1.39,1.23-2.37,1.54-2.6.81-4.55-.1-5.4-2.84l-1.48-4.72-1.7.53-.8-2.56,1.7-.53-.87-2.8,3.19-1,.87,2.8,2.74-.86.8,2.56-2.74.86,1.46,4.68c.31.98.99,1.35,1.85,1.09.47-.15.89-.44,1.16-.83l1.59,2.08Z"/>
          <path class="st9" d="M369.98,789l2.06,6.58-3.19,1-1.9-6.07c-.58-1.86-1.65-2.47-2.94-2.06-1.43.45-2.14,1.72-1.49,3.77l1.8,5.77-3.19,1-1.9-6.07c-.58-1.86-1.61-2.48-2.94-2.06-1.41.44-2.12,1.72-1.47,3.77l1.8,5.77-3.19,1-3.59-11.5,3.05-.95.42,1.32c.51-1.24,1.58-2.13,2.99-2.58,1.53-.48,3.04-.27,4.21.75.51-1.45,1.73-2.6,3.38-3.12,2.62-.82,4.99.17,6.09,3.68Z"/>
          <path class="st9" d="M369.96,778.83l3.19-1,4.96,15.85-3.19,1-4.96-15.85Z"/>
        </g>
      </g>
      <g>
        <path class="st9" d="M321.76,739.45l-10.67,9.05,13.91,1.32,1.67,5.34-19.99-2.23-1.74-5.55,15.16-13.23,1.66,5.3Z"/>
        <path class="st9" d="M330.04,719.52l5.13-1.6.39,44.04-5.13,1.6-.39-44.04Z"/>
        <path class="st9" d="M359.12,730.44l1.74,5.55-15.16,13.23-1.67-5.34,10.68-9.01-13.93-1.36-1.65-5.3,19.99,2.24Z"/>
      </g>
      <g>
        <g class="st8">
          <path class="st9" d="M326.98,689.32l9.01,28.82c1.49,4.76,6.55,7.41,11.3,5.92l27.72-8.66-48.03-26.08Z"/>
        </g>
        <path class="st10" d="M337.16,720.56s1.82,7.1,10.5,6.92c.33,0,.65-.04.98-.08,3.82-.48,28.97-3.7,28.8-4.24-.19-.59-2.42-7.75-2.42-7.75l-27.72,8.67s-6.99,1.93-10.13-3.51Z"/>
      </g>
    </g>
    <g>
      <g>
        <rect class="st9" x="174.02" y="212.56" width="561.83" height="422.17"/>
        <path class="st3" d="M735.85,634.73s-.03-.68-.04-1.98c0-1.3-.02-3.23-.04-5.77-.02-5.08-.05-12.61-.09-22.45-.05-19.64-.12-48.49-.21-85.32-.1-73.55-.24-179-.42-306.66l.8.8c-158.61.05-352.58.11-561.78.18h-.05l.98-.98c-.03,151.78-.07,295.53-.1,422.17l-.88-.88c166.39.18,306.74.33,405.51.44,49.45.1,88.49.18,115.18.24,13.36.05,23.62.08,30.56.11,3.47.02,6.1.04,7.88.05.88.01,1.55.02,2.01.03.45,0,.69.03.69.03,0,0-.21.02-.64.03-.45,0-1.1.01-1.96.03-1.76.01-4.36.03-7.78.05-6.9.02-17.1.06-30.39.11-26.64.05-65.61.13-114.98.24-98.91.11-239.46.26-406.08.44h-.88s0-.88,0-.88c-.03-126.64-.06-270.38-.1-422.17v-.98s.98,0,.98,0h.05c209.2.07,403.17.13,561.78.18h.81s0,.8,0,.8c-.17,127.87-.32,233.49-.42,307.16-.09,36.75-.16,65.54-.21,85.14-.04,9.77-.07,17.25-.09,22.29-.02,2.5-.03,4.4-.04,5.68-.01,1.27-.04,1.89-.04,1.89Z"/>
      </g>
      <path class="st3" d="M733.04,264.26s-.48.07-1.42.1c-.97.02-2.36.05-4.17.09-3.69.04-9.09.1-16.02.17-13.91.11-34.05.16-58.93.16-49.76,0-118.5-.37-194.41-.99-75.93-.61-144.65-1.16-194.43-1.56-24.86-.2-44.98-.35-58.92-.46-6.94-.09-12.33-.15-16.02-.2-1.81-.04-3.2-.08-4.17-.1-.94-.03-1.42-.07-1.42-.1s.48-.07,1.42-.1c.97-.02,2.36-.05,4.17-.09,3.69-.04,9.08-.1,16.02-.17,13.91-.11,34.05-.16,58.93-.16,49.76,0,118.5.37,194.44.99,75.9.61,144.62,1.16,194.4,1.56,24.86.2,44.98.35,58.92.46,6.94.09,12.33.15,16.02.2,1.81.04,3.2.08,4.17.1.94.03,1.42.07,1.42.1Z"/>
      <path class="st3" d="M210.73,234.01c0,3.65-2.96,6.62-6.62,6.62s-6.62-2.96-6.62-6.62,2.96-6.62,6.62-6.62,6.62,2.96,6.62,6.62Z"/>
      <path class="st3" d="M237.19,234.01c0,3.65-2.96,6.62-6.62,6.62s-6.62-2.96-6.62-6.62,2.96-6.62,6.62-6.62,6.62,2.96,6.62,6.62Z"/>
      <circle class="st3" cx="257.03" cy="234.01" r="6.62"/>
    </g>
    <rect class="st14" x="271.96" y="509.33" width="115.45" height="86.43"/>
    <rect class="st14" x="398.75" y="509.33" width="115.45" height="86.43"/>
    <rect class="st14" x="546.52" y="509.33" width="115.45" height="86.43"/>
    <g>
      <path class="st20" d="M860.47,303.35c-3.52-65.16-71.61-97.94-106.45-102.17l-27.87,32.82c22.45-3.38,78.25,27.77,80.98,50.31,2.72,22.54-14.45,51.34-37.06,53.41-17.76,1.62-47.35-14.13-58.64-.32-28.47-25.36-77.11-23.27-103.3,4.44-20.14-7.21-43.53-4.69-61.68,6.64-18.15,11.33-30.68,31.23-33.05,52.5l104.85,60.87s43.71,39.16,73.5,15.02c10.17-8.25,14.05-20.08,15-31.48,1.99.23,4.02.12,5.95-.39,7.57-2.01,13.17-8.8,15.64-16.23.32-.95.57-1.93.8-2.91,25.46,5.59,60.19-.75,80.67-13.53,29.77-18.58,52.54-73.93,50.65-108.97Z"/>
      <path class="st3" d="M718.85,350.01s-.15-.16-.39-.51c-.26-.39-.61-.9-1.04-1.55-.45-.69-1.01-1.53-1.75-2.48-.73-.95-1.52-2.09-2.56-3.25-3.98-4.73-10.5-11.21-20.37-16.39-4.9-2.59-10.62-4.81-17-6.16-6.37-1.37-13.4-1.87-20.68-.93-14.49,1.72-30.06,8.86-41.38,21.5-1.57,1.69-2.94,3.53-4.24,5.22l-.25.33-.36-.18c-14.52-7.22-30.7-8.12-44.14-4.9-3.39.76-6.58,1.9-9.64,3.09-3,1.32-5.88,2.7-8.53,4.28-5.36,3.05-9.95,6.55-13.71,10.17-7.57,7.25-11.65,14.89-13.69,20.3-.56,1.35-.94,2.58-1.27,3.65-.36,1.06-.61,1.98-.78,2.72-.18.7-.33,1.26-.44,1.69-.1.38-.17.57-.18.57-.02,0,.01-.2.09-.59.09-.44.2-1,.35-1.71.14-.76.36-1.68.7-2.76.3-1.09.66-2.34,1.2-3.7,1.95-5.49,5.97-13.27,13.57-20.66,3.77-3.69,8.39-7.26,13.78-10.37,2.67-1.61,5.57-3.01,8.61-4.37,3.09-1.22,6.32-2.4,9.76-3.17,13.61-3.32,30.03-2.44,44.79,4.89l-.62.15c1.32-1.72,2.71-3.59,4.3-5.31,11.5-12.83,27.3-20.05,42-21.74,7.38-.93,14.52-.39,20.96,1.03,6.45,1.4,12.22,3.69,17.15,6.35,9.93,5.31,16.43,11.93,20.34,16.76,1.02,1.19,1.8,2.34,2.5,3.32.72.97,1.26,1.83,1.68,2.54.4.67.72,1.2.96,1.6.21.36.31.55.3.56Z"/>
      <path class="st3" d="M739.11,336.39c-.1.15-1.46-.84-3.94-1.77-1.23-.48-2.77-.85-4.49-1.1-1.73-.19-3.65-.23-5.65.03-1.99.29-3.84.84-5.45,1.49-1.59.7-2.97,1.47-4.03,2.26-2.14,1.56-3.18,2.88-3.32,2.77-.05-.04.17-.4.63-1.01.44-.63,1.22-1.43,2.27-2.31,1.04-.89,2.45-1.77,4.09-2.54,1.67-.73,3.59-1.33,5.68-1.63,2.09-.27,4.11-.21,5.91.05,1.8.3,3.38.77,4.63,1.35,1.25.56,2.21,1.13,2.81,1.61.61.47.92.75.88.8Z"/>
      <path class="st3" d="M768.74,376.02c-.04.08-1.06-.53-3.08-1.25-2-.7-5.08-1.48-8.94-1.27-3.82.2-8.48,1.49-12.45,4.8-3.96,3.24-7.23,8.41-7.92,14.44l-.09.78-.66-.42c-2.08-1.34-4.41-2.5-6.9-3.38-6.6-2.39-13.53-2.55-19.44-1.22-5.93,1.38-10.79,4.21-14.31,7.15-3.54,2.96-5.81,5.99-7.22,8.15-1.39,2.18-1.99,3.49-2.08,3.45-.03-.01.1-.35.38-.98.26-.64.73-1.54,1.38-2.67,1.32-2.24,3.54-5.39,7.1-8.47,3.53-3.07,8.47-6.04,14.55-7.5,6.05-1.42,13.18-1.28,19.97,1.18,2.56.91,4.96,2.11,7.09,3.49l-.74.35c.75-6.32,4.19-11.67,8.34-14.99,4.18-3.41,9.04-4.66,12.97-4.78,3.97-.13,7.09.77,9.09,1.58,1.01.41,1.75.8,2.24,1.09.49.29.73.46.72.48Z"/>
      <path class="st3" d="M849.96,265.29s.29.44.76,1.32c.45.89,1.18,2.17,1.98,3.88,1.56,3.45,3.64,8.55,5.27,15.14,1.64,6.58,2.76,14.63,2.85,23.6.02,4.48-.16,9.19-.71,14.04-.49,4.85-1.31,9.84-2.41,14.89-4.4,20.25-12.43,37.46-19.68,48.87-3.6,5.74-7.03,10.04-9.59,12.84-1.31,1.37-2.33,2.43-3.09,3.08-.74.67-1.14,1.01-1.16.98s.33-.41,1.02-1.12c.71-.69,1.68-1.79,2.94-3.19,2.46-2.85,5.79-7.19,9.29-12.95,7.06-11.44,14.94-28.6,19.31-48.72,1.09-5.02,1.92-9.97,2.41-14.79.56-4.81.76-9.48.76-13.93-.04-8.9-1.08-16.89-2.62-23.44-1.53-6.56-3.5-11.66-4.94-15.14-.74-1.73-1.41-3.04-1.81-3.95-.41-.91-.61-1.39-.58-1.41Z"/>
      <path class="st3" d="M797.94,267.84s.69.58,1.74,1.81c1.05,1.23,2.45,3.12,3.89,5.63,2.89,4.98,5.7,12.83,5.41,21.76-.29,8.94-3.59,16.59-6.8,21.38-1.6,2.42-3.12,4.21-4.25,5.37-1.13,1.16-1.82,1.73-1.85,1.69-.15-.14,2.51-2.57,5.52-7.43,3.01-4.8,6.12-12.32,6.4-21.04.28-8.71-2.35-16.41-5.04-21.4-2.69-5.05-5.19-7.64-5.03-7.77Z"/>
      <g>
        <g>
          <path class="st15" d="M728.98,217.32c4.79,7.36,11.08,13.71,18.33,18.65,4.74,3.22,10.85-1.55,8.94-6.95l-.05-.14c8.55,6.54,17.52,12.52,26.85,17.89,5.96,3.43,12.95-2.42,10.6-8.87-9.23-25.31-27.81-47.22-51.56-60.02l-13.12,39.46Z"/>
          <g class="st8">
            <path d="M739.81,218.22c.83,1.25,1.69,2.53,2.94,3.36,1.25.83,2.99,1.1,4.23.26,1.85-1.27,1.78-4.32,3.69-5.49,2.03-1.25,4.53.5,6.25,2.15,1.82,1.74,3.64,3.47,5.46,5.21,1.34,1.28,3.14,2.65,4.85,1.95,1.89-.78,2.01-3.41,1.6-5.41-1.91-9.29-8.71-17.44-17.52-20.97l-11.5,18.96Z"/>
          </g>
          <path class="st15" d="M812.23,263.03c-.17,3.3,2.63,6.47,5.92,6.71,3.3.23,6.52-2.51,6.81-5.8.3-3.29-2.39-6.56-5.67-6.92-3.29-.36-6.61,2.27-7.02,5.54"/>
        </g>
        <g>
          <path class="st20" d="M466.38,36.06c-5.29,8.25,6.31,37.11,32.9,74.06,26.18,36.38,56.36,56.77,56.36,56.77l153.37,98.39,25.92-40.41,15.03-23.42,25.92-40.41-139.18-89.28c-13.6-8.72-27.97-16.19-42.98-22.17-12.91-5.14-29.09-10.71-46.32-14.49-44.29-9.73-75.74-7.28-81.03.97"/>
          <g>
            <g>
              <g>
                <path class="st15" d="M679.78,99.39c.08-.03.27-.1.56-.19,33-11.09,69.26-6.54,98.56,12.26l18.38,11.79-48.78,20.24-68.73-44.09Z"/>
                <path class="st3" d="M679.78,99.39s.13.07.35.21c.24.15.57.36,1,.62.89.56,2.17,1.37,3.82,2.42,3.34,2.12,8.17,5.19,14.26,9.06,12.16,7.75,29.33,18.69,49.46,31.52l-.28-.02c13.68-5.69,28.71-11.93,44.45-18.47,1.48-.61,2.95-1.22,4.32-1.79l-.05.57c-3.66-2.35-7.27-4.67-10.83-6.95-3.57-2.26-7.03-4.6-10.55-6.66-6.99-4.2-14.17-7.49-21.22-9.97-7.05-2.52-14-4.1-20.55-5.1-3.27-.58-6.47-.78-9.53-1.09-3.08-.11-6.02-.34-8.84-.23-11.28.09-20.3,1.77-26.39,3.28-3.08.66-5.38,1.48-6.98,1.91-1.41.4-2.06.59-2.43.69,0,0,.18-.08.6-.24.43-.14,1.02-.33,1.79-.58,1.59-.47,3.88-1.33,6.96-2.03,6.08-1.58,15.12-3.34,26.45-3.49,2.83-.12,5.79.09,8.88.19,3.07.3,6.29.49,9.58,1.06,6.59.98,13.58,2.56,20.67,5.07,7.09,2.48,14.31,5.77,21.35,9.99,3.55,2.07,6.99,4.4,10.57,6.66,3.56,2.28,7.18,4.6,10.84,6.95l.52.34-.57.24c-1.37.57-2.84,1.18-4.32,1.79-15.74,6.52-30.78,12.75-44.47,18.42l-.15.06-.13-.09c-20.15-13.01-37.33-24.1-49.5-31.96-6.02-3.9-10.8-7-14.1-9.13-1.61-1.05-2.86-1.86-3.72-2.42-.4-.26-.71-.47-.95-.62-.21-.14-.31-.21-.3-.21Z"/>
              </g>
              <g>
                <path class="st15" d="M612.91,203.63c0,.09.03.28.06.59,3.63,34.15,22.62,64.78,51.52,83.32l18.13,11.63-1.92-52.05-67.79-43.49Z"/>
                <path class="st3" d="M612.91,203.63s.1.06.31.19c.23.15.54.34.95.59.86.55,2.1,1.33,3.7,2.34,3.27,2.08,8.01,5.09,13.98,8.88,12.05,7.68,29.06,18.52,49.01,31.23l.13.08v.16c.55,14.61,1.15,30.65,1.78,47.45.06,1.58.12,3.15.17,4.6l.02.62-.52-.34c-3.61-2.32-7.18-4.61-10.69-6.86-3.5-2.28-7-4.41-10.32-6.74-6.67-4.58-12.59-9.7-17.73-15.04-5.17-5.32-9.46-10.94-13.05-16.45-1.87-2.71-3.36-5.52-4.89-8.15-1.36-2.73-2.77-5.3-3.82-7.88-4.52-10.22-6.66-19.04-7.75-25.15-.64-3.04-.81-5.46-1.05-7.07-.09-.79-.17-1.4-.22-1.84-.03-.44-.03-.63-.03-.63.06.37.16,1.04.38,2.46.27,1.61.49,4.01,1.16,7.04,1.16,6.08,3.36,14.86,7.92,25.01,1.06,2.57,2.48,5.12,3.84,7.83,1.54,2.62,3.03,5.41,4.9,8.1,3.59,5.46,7.88,11.05,13.03,16.33,5.12,5.3,11.02,10.38,17.66,14.92,3.29,2.31,6.81,4.45,10.31,6.72,3.51,2.25,7.08,4.54,10.69,6.85l-.5.28c-.05-1.46-.11-3.03-.17-4.6-.61-16.8-1.19-32.84-1.72-47.45l.14.24c-19.78-12.77-36.65-23.67-48.6-31.38-5.97-3.87-10.71-6.94-13.99-9.06-1.62-1.05-2.87-1.86-3.74-2.43-.41-.27-.73-.48-.97-.64-.22-.15-.33-.22-.34-.23Z"/>
              </g>
              <path class="st15" d="M466.38,36.06c-4.33,6.22,1.92,25.09,17.16,50.33l41.26-55.58c-29.67-3.66-52.85-2.75-58.42,5.25Z"/>
            </g>
            <g>
              <line class="st20" x1="684.71" y1="249.7" x2="750.3" y2="146.11"/>
              <path class="st3" d="M750.3,146.11c.15.1-14.41,23.36-32.52,51.96-18.12,28.61-32.92,51.72-33.07,51.62s14.41-23.36,32.53-51.97c18.11-28.6,32.92-51.71,33.07-51.62Z"/>
            </g>
            <g>
              <line class="st20" x1="689.06" y1="253.14" x2="754.66" y2="149.56"/>
              <path class="st3" d="M754.66,149.56c.15.1-14.41,23.36-32.52,51.96-18.12,28.61-32.92,51.72-33.07,51.62-.15-.1,14.41-23.36,32.53-51.97,18.11-28.6,32.92-51.71,33.07-51.62Z"/>
            </g>
            <g>
              <line class="st20" x1="694.02" y1="256.21" x2="759.61" y2="152.62"/>
              <path class="st3" d="M759.61,152.62c.15.1-14.41,23.36-32.52,51.96-18.12,28.61-32.92,51.72-33.07,51.62-.15-.1,14.41-23.36,32.53-51.97,18.11-28.6,32.92-51.71,33.07-51.62Z"/>
            </g>
            <g>
              <line class="st20" x1="698.97" y1="259.27" x2="764.57" y2="155.69"/>
              <path class="st3" d="M764.57,155.69c.15.1-14.41,23.36-32.52,51.96-18.12,28.61-32.92,51.72-33.07,51.62-.15-.1,14.41-23.36,32.53-51.97,18.11-28.6,32.92-51.71,33.07-51.62Z"/>
            </g>
            <g>
              <line class="st20" x1="703.93" y1="262.34" x2="769.53" y2="158.75"/>
              <path class="st3" d="M769.53,158.75c.15.1-14.41,23.36-32.52,51.96-18.12,28.61-32.92,51.72-33.07,51.62-.15-.1,14.41-23.36,32.53-51.97,18.11-28.6,32.92-51.71,33.07-51.62Z"/>
            </g>
            <path class="st3" d="M646.59,151.38s.27.1.79.34c.53.23,1.23.68,2.16,1.21,1.85,1.09,4.49,2.72,7.73,4.77,6.49,4.09,15.38,9.84,25.16,16.25,9.79,6.41,18.61,12.27,24.98,16.54,3.13,2.12,5.68,3.84,7.52,5.09.84.58,1.51,1.05,2.03,1.41.46.33.69.51.68.53s-.27-.13-.75-.42c-.53-.33-1.23-.77-2.09-1.31-1.87-1.2-4.46-2.87-7.63-4.92-6.47-4.23-15.31-10-25.08-16.38-9.76-6.39-18.59-12.17-25.06-16.41-3.17-2.05-5.75-3.73-7.62-4.94-.91-.56-1.6-1.05-2.08-1.31-.48-.28-.74-.44-.73-.46Z"/>
            <path class="st3" d="M679.78,99.39c.15.1-14.55,23.33-32.84,51.88-18.29,28.56-33.24,51.63-33.39,51.53-.15-.1,14.55-23.32,32.84-51.88,18.29-28.55,33.23-51.63,33.39-51.53Z"/>
            <path class="st3" d="M702.53,175.47s-.13-.32-.05-.93c.08-.59.41-1.47,1.21-2.24.76-.76,2.18-1.37,3.65-.91,1.41.41,2.79,1.72,2.98,3.5.14,1.78-.97,3.32-2.29,3.99-1.36.72-2.87.38-3.76-.23-.93-.6-1.41-1.41-1.6-1.98-.19-.58-.16-.92-.13-.92.06,0,.11.32.36.82.24.5.74,1.19,1.61,1.68.84.49,2.11.72,3.24.09,1.11-.59,2.04-1.94,1.92-3.4-.15-1.45-1.31-2.61-2.51-2.98-1.23-.42-2.43.04-3.17.68-.76.64-1.12,1.41-1.27,1.95-.15.54-.15.87-.2.87Z"/>
            <path class="st3" d="M673.24,155.91s-.13-.32-.05-.93c.08-.59.41-1.47,1.21-2.24.76-.76,2.18-1.37,3.65-.91,1.41.41,2.79,1.72,2.98,3.5.14,1.78-.97,3.32-2.29,3.99-1.36.72-2.87.38-3.76-.23-.93-.6-1.41-1.41-1.6-1.98-.19-.58-.16-.92-.13-.92.06,0,.11.32.36.82.24.5.74,1.19,1.61,1.68.84.49,2.11.72,3.24.09,1.11-.59,2.04-1.94,1.92-3.4-.15-1.45-1.31-2.61-2.51-2.98-1.23-.42-2.43.04-3.17.68-.76.64-1.12,1.41-1.27,1.95-.15.54-.15.87-.2.87Z"/>
            <path class="st3" d="M616.84,142.29s-.13-.32-.05-.93c.08-.59.41-1.47,1.21-2.24.76-.76,2.18-1.37,3.65-.91,1.41.41,2.79,1.72,2.98,3.5.14,1.79-.97,3.32-2.29,3.99-1.36.72-2.87.38-3.76-.23-.93-.6-1.41-1.41-1.6-1.98-.19-.58-.16-.92-.13-.92.06,0,.11.32.36.82.24.5.74,1.19,1.61,1.68.84.49,2.11.72,3.24.09,1.11-.59,2.04-1.94,1.92-3.4-.15-1.45-1.31-2.61-2.51-2.98-1.23-.42-2.43.04-3.17.68-.76.64-1.12,1.41-1.27,1.95-.15.54-.15.87-.2.87Z"/>
            <path class="st3" d="M591.72,136.18c.11-.15,10.87,5.78,24.03,13.24,13.16,7.46,23.74,13.63,23.63,13.78-.11.15-10.87-5.78-24.03-13.24-13.16-7.46-23.74-13.63-23.63-13.77Z"/>
            <g class="st8">
              <path d="M678.93,245.99s-43.86-29.58-66.02-42.35c7.65,10.98,16.48,23.43,27.11,31.56,10.74,8.21,25.47,12.27,38.91,10.79Z"/>
            </g>
          </g>
          <g>
            <circle class="st9" cx="572.11" cy="104.97" r="37.1" transform="translate(310.12 624.29) rotate(-73.63)"/>
            <path class="st3" d="M609.15,107.09s-.03-.21-.05-.6c0-.45-.02-1.03-.04-1.76,0-.77-.01-1.73-.17-2.85-.12-1.12-.22-2.43-.57-3.85-.5-2.89-1.66-6.33-3.57-10.01-1.93-3.67-4.79-7.55-8.78-10.93-3.98-3.35-9.07-6.29-15.05-7.7-5.94-1.37-12.73-1.56-19.32.52-3.31.94-6.54,2.47-9.54,4.46-1.54.94-2.92,2.14-4.35,3.29-1.31,1.29-2.67,2.55-3.82,4.04-4.84,5.73-7.81,13.28-8.34,21.2-.38,7.93,1.72,15.77,5.87,22.02.97,1.61,2.19,3.01,3.34,4.45,1.29,1.31,2.52,2.66,3.95,3.77,2.75,2.32,5.79,4.2,8.97,5.51,6.31,2.82,13.07,3.4,19.13,2.72,6.1-.72,11.49-3.06,15.83-5.94,4.35-2.9,7.63-6.43,9.96-9.86,2.32-3.44,3.86-6.73,4.68-9.54.51-1.38.76-2.66,1.01-3.76.29-1.1.42-2.04.5-2.81.1-.72.18-1.3.24-1.75.06-.39.1-.6.11-.59s.01.2-.01.6c-.04.45-.08,1.03-.14,1.76-.05.78-.15,1.74-.41,2.85-.22,1.12-.44,2.42-.93,3.82-.78,2.86-2.29,6.21-4.59,9.73-2.32,3.51-5.62,7.13-10.03,10.13-4.39,2.97-9.88,5.4-16.11,6.17-6.19.74-13.11.18-19.59-2.69-3.27-1.34-6.38-3.26-9.21-5.62-1.47-1.13-2.73-2.51-4.06-3.85-1.19-1.47-2.43-2.91-3.44-4.55-2.06-3.23-3.82-6.78-4.78-10.64-1.01-3.84-1.44-7.88-1.26-11.95.54-8.13,3.6-15.89,8.58-21.75,1.18-1.52,2.59-2.81,3.93-4.13,1.47-1.18,2.88-2.41,4.47-3.37,3.08-2.03,6.39-3.58,9.79-4.54,6.76-2.11,13.7-1.88,19.77-.45,6.11,1.47,11.28,4.52,15.31,7.96,4.04,3.48,6.9,7.45,8.81,11.2,1.89,3.76,3.01,7.27,3.46,10.19.33,1.45.4,2.77.49,3.9.13,1.13.12,2.1.08,2.88-.02.73-.04,1.32-.06,1.77-.02.4-.04.6-.05.6Z"/>
          </g>
        </g>
        <path class="st3" d="M466.38,36.06s.08-.12.24-.36c.15-.25.43-.58.85-.98.83-.8,2.26-1.78,4.34-2.65,4.15-1.74,10.75-3.01,19.3-3.36,8.55-.38,19.07.11,31.2,1.68,12.12,1.6,25.89,4.13,40.8,8.34,7.45,2.12,15.19,4.65,23.15,7.59,7.96,2.94,16.16,6.31,24.41,10.34,8.25,4.03,16.6,8.63,24.9,13.89,8.26,5.29,16.78,10.74,25.54,16.34,35.01,22.44,73.81,47.31,115.05,73.73l.41.26-.26.41c-10.73,16.73-21.98,34.27-33.43,52.12-11.46,17.86-22.71,35.39-33.45,52.13l-.26.41-.41-.26c-41.22-26.47-80.01-51.37-115.01-73.85-8.75-5.62-17.26-11.09-25.51-16.39-4.13-2.65-8.19-5.26-12.18-7.83-3.96-2.67-7.62-5.58-11.18-8.48-14.18-11.69-26.03-24.02-35.91-35.95-9.76-12.04-17.59-23.63-24.02-34.03-6.41-10.41-11.28-19.74-14.59-27.63-3.33-7.88-5.05-14.37-5.27-18.87-.11-2.25.17-3.96.54-5.05.19-.55.37-.94.53-1.18.14-.25.23-.37.23-.37.05.03-.34.49-.67,1.58-.34,1.08-.59,2.78-.45,5.01.28,4.46,2.04,10.9,5.41,18.74,3.35,7.85,8.26,17.14,14.69,27.5,6.46,10.35,14.32,21.9,24.09,33.88,9.89,11.87,21.75,24.15,35.9,35.77,3.55,2.89,7.22,5.79,11.13,8.41,4,2.56,8.06,5.16,12.19,7.81,8.26,5.29,16.78,10.75,25.53,16.35,35.02,22.44,73.82,47.31,115.07,73.75l-.67.15c10.73-16.74,21.98-34.27,33.44-52.13,11.45-17.85,22.7-35.38,33.44-52.11l.15.67c-41.21-26.46-79.99-51.36-114.99-73.83-8.75-5.62-17.26-11.08-25.51-16.38-8.27-5.25-16.58-9.86-24.79-13.89-8.22-4.03-16.38-7.4-24.32-10.36-7.94-2.96-15.65-5.5-23.08-7.63-14.87-4.25-28.61-6.81-40.69-8.46-12.09-1.62-22.59-2.16-31.12-1.84-8.53.3-15.1,1.51-19.24,3.18-2.07.83-3.5,1.78-4.34,2.55-.85.76-1.11,1.31-1.16,1.27Z"/>
      </g>
    </g>
    <g>
      <g>
        <path class="st9" d="M618.27,461.85h-326.66c-21.33,0-38.62-17.29-38.62-38.62h0c0-21.33,17.29-38.62,38.62-38.62h326.66c21.33,0,38.62,17.29,38.62,38.62h0c0,21.33-17.29,38.62-38.62,38.62Z"/>
        <path class="st3" d="M618.27,461.85s.78-.07,2.31-.17c.76-.05,1.71-.07,2.83-.29,1.11-.21,2.43-.3,3.86-.74.72-.19,1.48-.39,2.29-.6.79-.25,1.6-.58,2.47-.9.43-.16.87-.33,1.32-.5.43-.21.87-.42,1.32-.64.89-.46,1.87-.84,2.77-1.45,3.76-2.16,7.76-5.34,11.2-9.83.85-1.12,1.73-2.28,2.45-3.58.82-1.25,1.48-2.62,2.14-4.04.72-1.39,1.13-2.95,1.73-4.48.2-.79.41-1.6.61-2.41l.31-1.23.19-1.26c.13-.85.26-1.7.39-2.57.04-.87.09-1.76.13-2.65l.06-1.35-.07-1.36c-.06-.91-.07-1.83-.17-2.75-.44-3.69-1.42-7.46-2.98-11.14-3.21-7.3-9.06-14.13-17.05-18.46-3.99-2.15-8.5-3.6-13.24-4.19-4.73-.54-9.72-.27-14.78-.33-81.08.04-193.06.09-316.74.14-3.82.08-7.61.61-11.25,1.69-3.61,1.17-7.04,2.82-10.19,4.9-3.1,2.15-5.86,4.74-8.25,7.62-2.37,2.91-4.21,6.19-5.66,9.61-1.43,3.44-2.2,7.1-2.63,10.76-.3,3.68-.11,7.38.55,10.98.79,3.57,1.92,7.07,3.63,10.28,1.75,3.17,3.79,6.2,6.33,8.76,5.01,5.17,11.41,8.9,18.29,10.54,1.69.52,3.47.64,5.2.95,1.76.07,3.49.25,5.27.21,3.54,0,7.07,0,10.58,0,14.03,0,27.76.01,41.16.02,53.6.04,101.86.08,142.4.1,40.52.07,73.31.12,96,.16,11.32.04,20.11.07,26.1.09,2.97.02,5.24.04,6.79.05,1.53.02,2.31.05,2.31.05,0,0-.78.03-2.31.05-1.55.01-3.82.03-6.79.05-5.99.02-14.78.05-26.1.09-22.69.04-55.48.09-96,.16-40.54.03-88.8.07-142.4.1-13.4,0-27.13.01-41.16.02-3.51,0-7.03,0-10.58,0-1.76.04-3.58-.14-5.37-.21-1.77-.31-3.59-.43-5.33-.97-7.05-1.68-13.62-5.51-18.76-10.8-2.6-2.63-4.7-5.72-6.49-8.98-1.76-3.29-2.92-6.88-3.73-10.54-.68-3.69-.88-7.48-.57-11.26.43-3.75,1.22-7.5,2.69-11.03,1.49-3.51,3.37-6.87,5.8-9.86,2.45-2.96,5.28-5.61,8.46-7.82,3.23-2.14,6.75-3.83,10.45-5.03,3.74-1.11,7.63-1.65,11.54-1.73,123.68.06,235.66.11,316.74.14,5.07.07,10.01-.19,14.86.37,4.82.61,9.4,2.1,13.45,4.29,8.11,4.42,14.03,11.37,17.25,18.79,1.57,3.74,2.55,7.56,2.98,11.3.1.94.11,1.87.16,2.79l.07,1.38-.07,1.36c-.05.9-.1,1.8-.14,2.68-.14.88-.27,1.74-.4,2.6l-.2,1.28-.32,1.24c-.21.82-.42,1.63-.63,2.44-.61,1.54-1.04,3.12-1.77,4.52-.67,1.43-1.35,2.82-2.18,4.08-.74,1.31-1.63,2.48-2.49,3.61-3.5,4.51-7.55,7.69-11.35,9.84-.91.61-1.9.99-2.81,1.44-.46.22-.9.43-1.34.64-.45.17-.9.33-1.33.49-.87.31-1.69.63-2.49.88-.81.2-1.58.4-2.3.58-1.44.43-2.77.5-3.88.7-1.12.2-2.07.21-2.84.24-1.53.06-2.31.07-2.31.07Z"/>
      </g>
      <g>
        <circle class="st9" cx="603.45" cy="421.12" r="17.19" transform="translate(-121.03 550.04) rotate(-45)"/>
        <path class="st3" d="M603.45,439.24c-9.99,0-18.13-8.13-18.13-18.13s8.13-18.13,18.13-18.13,18.13,8.13,18.13,18.13-8.13,18.13-18.13,18.13ZM603.45,404.87c-8.96,0-16.25,7.29-16.25,16.25s7.29,16.25,16.25,16.25,16.25-7.29,16.25-16.25-7.29-16.25-16.25-16.25Z"/>
      </g>
      <rect class="st3" x="623.63" y="427.26" width="1.88" height="17.2" transform="translate(-77.42 731.27) rotate(-57.73)"/>
    </g>
    <g>
      <g>
        <path class="st15" d="M78.72,344.33l-60.65-32.03c-4.19-2.21-5.79-7.4-3.58-11.6l44.33-83.95c2.21-4.19,7.4-5.79,11.6-3.58l38.46,20.31,13.57,46.41-32.13,60.85c-2.21,4.19-7.4,5.79-11.6,3.58Z"/>
        <g class="st8">
          <path class="st9" d="M108.88,233.49l-12.48,23.63c-2.06,3.9-.57,8.73,3.33,10.78l22.72,12-13.57-46.41Z"/>
        </g>
        <g class="st18">
          <path d="M95.62,259.36s-3.32,5.57,2.2,10.9c.21.2.43.39.66.56,2.69,2.1,20.38,15.88,20.61,15.43.26-.49,3.35-6.35,3.35-6.35l-22.72-12s-5.57-3.19-4.11-8.55Z"/>
        </g>
      </g>
      <path class="st1" d="M91.82,253.47c-.16.3-6.57-2.77-14.32-6.86-7.75-4.09-13.9-7.65-13.74-7.96.16-.3,6.57,2.77,14.32,6.86,7.75,4.09,13.9,7.65,13.74,7.96Z"/>
      <path class="st1" d="M102.89,276.4c-.16.3-10.63-4.91-23.38-11.64-12.75-6.74-22.96-12.44-22.8-12.74.16-.3,10.63,4.91,23.38,11.64,12.75,6.73,22.96,12.44,22.8,12.74Z"/>
      <path class="st1" d="M101.16,289.75c-.16.3-11.56-5.4-25.46-12.74-13.9-7.34-25.04-13.54-24.88-13.84.16-.3,11.56,5.4,25.46,12.74,13.9,7.34,25.04,13.54,24.88,13.84Z"/>
      <path class="st1" d="M95.6,300.27c-.16.3-11.56-5.4-25.46-12.74-13.9-7.34-25.04-13.54-24.88-13.84.16-.3,11.56,5.4,25.46,12.74,13.9,7.34,25.04,13.54,24.88,13.84Z"/>
      <path class="st1" d="M90.05,310.8c-.16.3-11.56-5.4-25.46-12.74-13.9-7.34-25.04-13.54-24.88-13.84.16-.3,11.56,5.4,25.46,12.74,13.9,7.34,25.04,13.54,24.88,13.84Z"/>
      <path class="st1" d="M84.49,321.32c-.16.3-11.56-5.4-25.46-12.74-13.9-7.34-25.04-13.54-24.88-13.84.16-.3,11.56,5.4,25.46,12.74,13.9,7.34,25.04,13.54,24.88,13.84Z"/>
    </g>
    <g>
      <g>
        <g>
          <path class="st16" d="M482.44,788.11c-5.35-.77-9.06-5.72-8.29-11.07l12.1-84.13c.62-4.28,4.82-7.22,9.39-6.56l7.91,1.14c3.23.46,6.41-.87,8.16-3.42l2.2-3.21c1.75-2.55,4.93-3.89,8.16-3.42l37.55,5.4c2.93.42,5.43,2.26,6.58,4.83l1.42,3.19c1.15,2.57,3.65,4.41,6.58,4.83l47.87,6.88c4.57.66,7.78,4.66,7.16,8.94l-12.37,86.05c-.77,5.35-5.72,9.06-11.07,8.29l-123.36-17.74Z"/>
          <g class="st8">
            <path class="st16" d="M482.44,788.11c-5.35-.77-9.06-5.72-8.29-11.07l12.1-84.13c.62-4.28,4.82-7.22,9.39-6.56l7.91,1.14c3.23.46,6.41-.87,8.16-3.42l2.2-3.21c1.75-2.55,4.93-3.89,8.16-3.42l37.55,5.4c2.93.42,5.43,2.26,6.58,4.83l1.42,3.19c1.15,2.57,3.65,4.41,6.58,4.83l47.87,6.88c4.57.66,7.78,4.66,7.16,8.94l-12.37,86.05c-.77,5.35-5.72,9.06-11.07,8.29l-123.36-17.74Z"/>
          </g>
        </g>
        <path class="st14" d="M569.49,695.01l-30.44-4.45-1.99-5.48c-1.29-3.55-4.59-6.16-8.54-6.72l-29.77-4.28c-5.3-.76-10.17,2.64-10.89,7.61l-.5,3.47-13.14,91.35c-.81,5.64,3.41,10.91,9.43,11.78l120.92,17.39c6.02.87,11.56-3,12.37-8.64l12.41-86.3c.55-3.85-2.12-7.42-5.97-7.97l-53.9-7.75Z"/>
      </g>
      <rect class="st9" x="519.38" y="727.25" width="72.7" height="30.59" transform="translate(111.34 -71.54) rotate(8.18)"/>
      <path class="st3" d="M580.89,744.33c-.04.27-11.14-1.11-24.79-3.07-13.66-1.96-24.69-3.77-24.65-4.04.04-.27,11.14,1.11,24.79,3.07,13.65,1.96,24.69,3.77,24.65,4.04Z"/>
      <path class="st3" d="M579.96,750.78c-.04.27-11.14-1.11-24.79-3.07-13.66-1.96-24.69-3.77-24.65-4.04.04-.27,11.14,1.11,24.79,3.07,13.65,1.96,24.69,3.77,24.65,4.04Z"/>
    </g>
    <g>
      <g>
        <g>
          <path class="st15" d="M700.81,750.71c-3.31,1.27-7.02-.39-8.29-3.7l-19.95-52.11c-1.01-2.65.46-5.68,3.29-6.76l4.9-1.88c2-.77,3.4-2.55,3.59-4.57l.24-2.54c.19-2.02,1.59-3.81,3.59-4.57l23.26-8.9c1.81-.69,3.83-.44,5.32.67l1.84,1.37c1.48,1.11,3.5,1.36,5.32.67l29.65-11.35c2.83-1.08,5.95.19,6.96,2.84l20.4,53.29c1.27,3.31-.39,7.02-3.7,8.29l-76.4,29.25Z"/>
          <g class="st8">
            <path d="M700.81,750.71c-3.31,1.27-7.02-.39-8.29-3.7l-19.95-52.11c-1.01-2.65.46-5.68,3.29-6.76l4.9-1.88c2-.77,3.4-2.55,3.59-4.57l.24-2.54c.19-2.02,1.59-3.81,3.59-4.57l23.26-8.9c1.81-.69,3.83-.44,5.32.67l1.84,1.37c1.48,1.11,3.5,1.36,5.32.67l29.65-11.35c2.83-1.08,5.95.19,6.96,2.84l20.4,53.29c1.27,3.31-.39,7.02-3.7,8.29l-76.4,29.25Z"/>
          </g>
        </g>
        <path class="st15" d="M720.97,669.51l-18.88,7.18-2.89-2.51c-1.88-1.63-4.6-2.06-7.04-1.13l-18.44,7.06c-3.28,1.26-4.99,4.77-3.81,7.84l.82,2.15,21.66,56.58c1.34,3.49,5.44,5.17,9.17,3.74l74.89-28.67c3.73-1.43,5.67-5.41,4.33-8.91l-20.46-53.45c-.91-2.38-3.59-3.58-5.97-2.66l-33.38,12.78Z"/>
      </g>
      <rect class="st9" x="704.41" y="691.13" width="47.72" height="20.08" transform="translate(-202.54 306.69) rotate(-20.95)"/>
      <path class="st3" d="M743.27,694.15c.1.25-6.68,3.08-15.14,6.32-8.46,3.24-15.39,5.66-15.49,5.4-.1-.25,6.68-3.08,15.14-6.32,8.46-3.24,15.39-5.66,15.49-5.4Z"/>
      <path class="st3" d="M744.8,698.15c.1.25-6.68,3.08-15.14,6.32-8.46,3.24-15.39,5.66-15.49,5.4-.1-.25,6.68-3.08,15.14-6.32,8.46-3.24,15.39-5.66,15.49-5.4Z"/>
    </g>
    <g>
      <g>
        <path class="st12" d="M213.21,812.6l-1.15,54.69,71.99,1.7c-.25-6.51-37.15-20.44-37.15-20.44l2.26-35.01-35.95-.94Z"/>
        <g class="st0">
          <path class="st9" d="M224.72,845.08c-1.4.33-2.4,1.79-2.12,3.12s1.85,2.31,3.26,2.01c1.41-.3,2.67-2.02,2.22-3.32-.45-1.3-2.34-2.35-3.63-1.74"/>
        </g>
        <g class="st0">
          <path class="st9" d="M212.06,867.29l.34-5.51,68.9,3.68s3.17,1.39,2.75,3.52l-71.99-1.7Z"/>
        </g>
        <path class="st3" d="M248.08,848.23c-.02.33-1.78.44-3.54,1.47-1.79.98-2.72,2.4-3.04,2.26-.32-.07.25-2.05,2.41-3.25,2.14-1.23,4.25-.78,4.17-.48Z"/>
        <path class="st3" d="M255.56,851.36c.07.32-1.47.85-2.7,2.23-1.27,1.34-1.62,2.85-1.96,2.83-.33.04-.52-1.91,1.04-3.59,1.55-1.7,3.62-1.79,3.62-1.47Z"/>
        <path class="st3" d="M259.62,860c-.32.06-.77-1.61.18-3.41.94-1.81,2.61-2.48,2.76-2.2.19.28-.9,1.23-1.66,2.72-.79,1.47-.93,2.87-1.28,2.89Z"/>
        <path class="st3" d="M247.66,840.2c-.16.3-1.76-.2-3.75-.12-1.99.04-3.56.64-3.73.35-.2-.25,1.35-1.44,3.69-1.5,2.34-.08,3.97,1.02,3.79,1.27Z"/>
        <path class="st3" d="M246.16,832.08c0,.14-1.39.31-3.61-.1-1.1-.21-2.39-.58-3.74-1.18-.67-.3-1.36-.66-2.04-1.09-.33-.21-.71-.42-1.07-.83-.38-.36-.58-1.24-.11-1.77.38-.51,1.04-.72,1.56-.72.53,0,.96.11,1.35.21.8.2,1.54.47,2.22.78,1.36.62,2.46,1.4,3.27,2.14,1.63,1.5,2.17,2.76,2.05,2.82-.16.11-.95-.95-2.62-2.2-.83-.62-1.9-1.27-3.17-1.79-.64-.26-1.33-.48-2.05-.65-.76-.21-1.41-.23-1.61.09-.07.12-.08.17.07.38.16.2.46.4.78.6.63.41,1.26.76,1.88,1.07,1.24.62,2.43,1.05,3.45,1.34,2.05.59,3.4.72,3.39.9Z"/>
        <path class="st3" d="M245.69,832.55c-.13.05-.79-1.16-.86-3.31-.03-1.07.12-2.36.59-3.72.24-.68.56-1.37.97-2.05.44-.66.98-1.55,2.35-1.67.71,0,1.29.53,1.48.99.23.47.26.86.34,1.26.11.8.08,1.58-.06,2.3-.26,1.44-.92,2.63-1.63,3.48-1.45,1.73-2.93,2.09-2.96,1.98-.11-.17,1.13-.78,2.25-2.45.55-.82,1.05-1.91,1.22-3.18.09-.63.09-1.3-.01-1.97-.09-.73-.37-1.32-.65-1.25-.36-.01-.98.52-1.29,1.09-.39.6-.7,1.22-.94,1.83-.48,1.22-.71,2.39-.79,3.38-.15,1.99.19,3.25,0,3.29Z"/>
      </g>
      <g>
        <path class="st12" d="M158.64,817.14l-6.88,54.27-71.47-8.87c1.2-6.4,39.74-14.77,39.74-14.77l2.9-34.97,35.7,4.34Z"/>
        <g class="st0">
          <path class="st9" d="M142.5,847.58c1.34.53,2.12,2.12,1.64,3.4-.48,1.28-2.17,2.02-3.52,1.51-1.35-.51-2.34-2.39-1.71-3.61.63-1.22,2.66-1.98,3.85-1.18"/>
        </g>
        <g class="st0">
          <path class="st9" d="M151.77,871.41l.47-5.5-68.69-6.45s-3.34.91-3.24,3.08l71.47,8.87Z"/>
        </g>
        <path class="st3" d="M118.93,847.28c-.03.33,1.7.7,3.29,1.97,1.62,1.23,2.33,2.77,2.67,2.68.33-.02.05-2.06-1.9-3.57-1.94-1.53-4.09-1.4-4.06-1.08Z"/>
        <path class="st3" d="M111.08,849.28c-.12.31,1.32,1.06,2.34,2.6,1.06,1.51,1.18,3.06,1.53,3.09.32.09.8-1.81-.5-3.71-1.28-1.91-3.32-2.3-3.37-1.99Z"/>
        <path class="st3" d="M105.79,857.24c.31.11.99-1.48.32-3.4-.66-1.92-2.22-2.84-2.4-2.58-.23.25.71,1.35,1.24,2.93.57,1.57.5,2.97.84,3.05Z"/>
        <path class="st3" d="M120.52,839.4c.11.32,1.77.06,3.72.43,1.96.33,3.42,1.15,3.64.89.23-.21-1.12-1.62-3.43-2.03-2.31-.42-4.07.42-3.93.7Z"/>
        <path class="st3" d="M123.2,831.59c-.02.14,1.33.51,3.58.43,1.12-.04,2.45-.22,3.88-.62.71-.2,1.45-.46,2.18-.78.35-.16.77-.31,1.18-.66.43-.3.75-1.14.37-1.74-.3-.56-.92-.87-1.44-.94-.52-.08-.96-.03-1.36,0-.82.08-1.59.24-2.31.45-1.44.42-2.64,1.02-3.55,1.64-1.83,1.25-2.55,2.41-2.44,2.49.15.13,1.08-.8,2.91-1.79.91-.49,2.06-.97,3.4-1.3.67-.16,1.38-.28,2.13-.34.78-.09,1.42-.02,1.58.32.06.13.06.18-.12.37-.19.17-.52.32-.87.48-.68.31-1.36.57-2.01.79-1.32.43-2.56.68-3.61.82-2.11.29-3.47.21-3.49.39Z"/>
        <path class="st3" d="M123.59,832.12c.12.07.95-1.03,1.34-3.15.19-1.05.23-2.35-.04-3.77-.14-.71-.35-1.44-.66-2.17-.34-.72-.74-1.68-2.08-1.99-.7-.11-1.35.34-1.61.76-.29.43-.39.81-.52,1.19-.23.77-.3,1.55-.28,2.28.05,1.47.53,2.74,1.1,3.69,1.18,1.92,2.59,2.5,2.64,2.39.14-.15-1-.94-1.87-2.75-.43-.89-.76-2.05-.75-3.32,0-.64.1-1.3.3-1.95.2-.7.55-1.25.83-1.14.36.04.89.65,1.12,1.26.29.65.51,1.31.66,1.94.3,1.28.35,2.47.28,3.46-.14,2-.67,3.18-.48,3.26Z"/>
      </g>
      <g>
        <path class="st3" d="M251.53,844.11"/>
        <path class="st3" d="M269.06,522.31l-112.1,3.58s-26.42,176.42-25.69,188.68l-16.29,127.97,47.41,1.66s7.46-41.5,12.66-69.9c3.46-18.9,9.77-46.62,11.49-62.4,1.71-15.78,29.44-125.98,29.44-125.98,0,0-2.05,127.92-2,133.18.05,5.25-5.48,125.01-5.48,125.01h47.07c2.43-21.61,8.21-108.1,9.45-125.58,2.25-31.55,9.33-120.71,10.37-143.49,1.03-22.78-6.32-52.72-6.32-52.72Z"/>
      </g>
      <path class="st12" d="M261.67,523.17c-.23,0-.41-1.8-.41-4.02s.18-4.02.41-4.02.41,1.8.41,4.02-.18,4.02-.41,4.02Z"/>
      <path class="st12" d="M266.32,525.29c-.21.03-.71-2.27-.46-5.15.23-2.88,1.1-5.07,1.31-5.01.23.07-.27,2.29-.49,5.07-.24,2.78-.12,5.06-.36,5.08Z"/>
      <path class="st12" d="M224.45,516.89c.03.14-1.25-.01-2.37,1.32-.52.63-.97,1.62-.77,2.66.16,1.03,1.15,1.91,2.37,2.14,1.22.24,2.46-.22,3-1.12.56-.89.51-1.97.25-2.75-.56-1.65-1.81-1.98-1.72-2.1,0-.04.31-.04.79.2.47.24,1.08.8,1.47,1.69.36.88.53,2.16-.15,3.35-.67,1.23-2.31,1.83-3.79,1.53-1.49-.26-2.79-1.43-2.97-2.82-.2-1.36.43-2.49,1.09-3.18.69-.69,1.46-.98,1.99-1.03.54-.06.82.06.81.1Z"/>
      <path class="st12" d="M172.78,711.54c-.09.21-5.46-1.8-12-4.49-6.55-2.69-11.78-5.04-11.69-5.25.09-.21,5.46,1.8,12.01,4.49,6.54,2.69,11.78,5.04,11.69,5.25Z"/>
      <g>
        <g>
          <path class="st3" d="M166.68,257.17c.37-6.53,4.38-10.54,10.01-13.87,5.62-3.33,12.91-3.66,18.82-.85,3.95,1.88,7.4,5.09,11.74,5.65,7.14.92,13.9-5.69,20.9-4.04,4.15.98,7.31,5.13,7.15,9.38-.16,4.26-3.62,8.16-7.83,8.82,4.68.68,7.32,6.59,5.59,10.99-1.73,4.4-6.64,6.95-11.36,7.05-4.72.1-9.26-1.82-13.35-4.2-4.09-2.37-7.9-5.22-12.16-7.26-4.26-2.04-9.16-3.23-13.73-2.02-6.18,1.64-10.56,7.48-12.17,13.67-1.61,6.19-.92,12.73.04,19.05.96,6.32,2.18,12.7,1.58,19.07-.07.75-.24,1.6-.89,1.97-.95.52-2.04-.37-2.74-1.2-7.9-9.36-13.93-20.29-17.64-31.96-2.16-6.78-3.35-13.38-.76-20,2.59-6.63,11.31-12.93,16.8-10.24"/>
          <g>
            <g>
              <path class="st22" d="M160.66,288.7l10.45,64.47c1.95,12.04,9.77,23.67,28.67,19.72h0c16.13-4.67,14.93-16.27,12.83-30.58,0,0,.05.55,0,0,0,0,17.75-4.62,16.16-22.66-.77-8.72-3.81-26.56-6.76-42.66-3.16-17.29-19.09-29.25-36.58-27.49l-1.74.17c-18.64,2.98-26.53,20.48-23.03,39.03Z"/>
              <path class="st19" d="M212.61,342.31s-11.29,1.81-24.17-4.58c0,0,7.08,13.41,24.9,9.98l-.73-5.4Z"/>
            </g>
            <g>
              <g>
                <g>
                  <path class="st3" d="M218.47,292.76c.19,1.35-.81,2.63-2.22,2.85-1.41.22-2.7-.7-2.89-2.05-.18-1.35.81-2.63,2.22-2.85,1.41-.22,2.7.7,2.89,2.06Z"/>
                  <path class="st3" d="M219.03,286.22c-.29.37-2.38-.88-5.15-.59-2.77.25-4.66,1.88-4.99,1.57-.16-.14.1-.77.92-1.51.81-.73,2.23-1.5,3.96-1.67,1.73-.16,3.24.32,4.14.89.92.57,1.27,1.15,1.12,1.31Z"/>
                </g>
                <g>
                  <path class="st3" d="M193.25,296.75c.18,1.35-.81,2.63-2.22,2.85-1.41.22-2.7-.7-2.89-2.05-.18-1.35.81-2.63,2.22-2.85,1.41-.22,2.7.7,2.89,2.06Z"/>
                  <path class="st3" d="M192.38,289.47c-.29.37-2.38-.88-5.15-.59-2.77.25-4.66,1.88-4.99,1.57-.16-.14.1-.77.92-1.51.81-.73,2.23-1.5,3.96-1.67,1.73-.16,3.24.33,4.14.89.91.57,1.27,1.15,1.13,1.31Z"/>
                </g>
                <path class="st3" d="M203.97,309.01c-.03-.16,1.66-.63,4.42-1.26.7-.14,1.36-.35,1.43-.85.12-.53-.26-1.26-.68-2.05-.84-1.64-1.71-3.37-2.63-5.18-3.68-7.38-6.41-13.47-6.11-13.62.3-.15,3.52,5.72,7.2,13.09.89,1.82,1.74,3.56,2.55,5.22.35.78.9,1.64.65,2.74-.14.55-.62.98-1.06,1.15-.44.18-.84.23-1.18.29-2.79.43-4.53.62-4.56.46Z"/>
              </g>
              <path class="st3" d="M191.48,278.55c-.2.78-3,.7-6.21,1.42-3.23.65-5.75,1.87-6.25,1.24-.22-.3.16-1.06,1.15-1.89.98-.83,2.58-1.69,4.51-2.11,1.93-.41,3.75-.28,4.98.08,1.24.36,1.9.89,1.82,1.26Z"/>
              <path class="st3" d="M217.21,278.31c-.42.68-2.4.22-4.7.42-2.3.12-4.19.85-4.71.24-.23-.3.01-.96.8-1.64.78-.68,2.13-1.3,3.71-1.41,1.58-.11,3.01.32,3.87.89.88.56,1.21,1.19,1.02,1.51Z"/>
            </g>
          </g>
          <g>
            <path class="st22" d="M163.48,301.9c-.32-.1-12.75-2.42-11.12,9.87,1.63,12.28,13.63,8.11,13.6,7.76-.03-.35-2.48-17.62-2.48-17.62Z"/>
            <path class="st19" d="M161.59,315.37c-.06-.03-.19.18-.53.39-.33.21-.92.4-1.6.25-1.36-.3-2.73-2.22-3.08-4.42-.18-1.11-.09-2.21.19-3.14.26-.95.75-1.65,1.39-1.86.63-.24,1.14.09,1.34.42.21.32.16.58.23.59.04.03.24-.24.07-.74-.08-.24-.27-.51-.59-.71-.33-.2-.78-.27-1.22-.16-.94.19-1.68,1.18-1.98,2.2-.36,1.04-.49,2.27-.29,3.52.41,2.46,1.98,4.61,3.83,4.89.89.11,1.58-.25,1.91-.59.34-.35.37-.64.32-.65Z"/>
          </g>
          <path class="st3" d="M220.54,260.18c-1.96-3.38-5.1-5.93-8.44-7.96-7.2-4.38-15.73-6.7-24.12-5.99-8.39.71-16.59,4.57-22.06,10.97-4.38,5.12-6.92,11.68-7.73,18.37-.81,6.69.04,13.52,1.89,20,.81,2.85,1.9,5.77,4.15,7.7,1.4,1.2,3.68,1.86,5.02.59.79-.75.99-1.91,1.15-2.99,1.42-9.75,2.73-20.21-1.68-29.02,2.05-3.31,4.5-6.44,7.7-8.65,3.2-2.21,7.23-3.42,11.04-2.66,5.66,1.14,9.59,6.14,14.34,9.42,6.8,4.68,15.92,5.8,23.65,2.88l-4.91-12.68Z"/>
        </g>
        <g>
          <path class="st19" d="M206.41,316.49c-.2,1.16-.4,2.33-.92,3.39-.52,1.05-1.4,1.99-2.54,2.28-1.21.31-2.54-.16-3.44-1.04-.89-.87-1.39-2.09-1.59-3.33-.18-1.12.05-2.54,1.12-2.9.45-.15.93-.07,1.4.02,2.09.38,4.18.76,6.27,1.13"/>
          <path class="st3" d="M205.1,321.73c-.07-.18-1.23.61-3.16.26-.94-.17-2.02-.66-2.77-1.63-.74-.96-1.15-2.38-.87-3.76.06-.34.19-.67.32-.97.18-.29.14-.27.4-.28.25.01.67.11,1,.17.35.06.69.13,1.03.19,1.34.24,2.55.44,3.57.6,2.04.31,3.31.43,3.34.29.03-.14-1.2-.52-3.2-1.02-1-.25-2.2-.53-3.53-.82-.33-.07-.68-.15-1.02-.22-.37-.07-.65-.17-1.15-.21-.24-.02-.57.01-.85.2-.28.19-.43.43-.53.64-.19.4-.34.8-.42,1.23-.35,1.72.18,3.43,1.14,4.58.98,1.17,2.34,1.67,3.43,1.76,1.11.1,1.99-.16,2.52-.43.54-.27.77-.52.74-.58Z"/>
        </g>
      </g>
      <g>
        <path class="st22" d="M250.9,289.97l2.91-.79,45.38,44.12,36.76,4.42s-.36-11.11-14.2-25.3c-12.34-12.65-41.21-27.74-50.98-35.5-2.44-1.94-4.23-2.53-4.23-2.53l-15.63,15.57Z"/>
        <g>
          <path class="st22" d="M250.88,268.98l-4.64-1.3-10.95-5.2-12.46,4.63s.28,4.26,3.56,3.1l-13.05,4.3s1.07,3.09,1.66,3.3c.59.21-7.66.9-7.66.9,0,0-.07,4.19,7.79,4.11,7.87-.08,10.83-1.41,10.83-1.41l6.27,1.67-.25,3.73-8.53-.12.39,4.78c1.25.59,10.99,1.68,10.99,1.68,0,0,13.17.19,16.74-1.52,3.56-1.72,8.12-4.21,8.12-4.21l6.84-13.02-15.66-5.42Z"/>
          <path class="st19" d="M239.13,271.2c-.08.1-.75-.26-1.88-.77-1.12-.55-2.73-1.19-4.43-2.35h.57c-.16.12-.33.23-.5.34-1.83,1.16-3.75,1.71-5.14,1.88-1.4.18-2.26.04-2.26-.08-.04-.29,3.43-.43,6.88-2.63.16-.1.32-.21.47-.31l.29-.19.28.2c1.52,1.07,3.12,1.85,4.17,2.55,1.07.68,1.64,1.26,1.56,1.36Z"/>
          <path class="st19" d="M235.11,277.82c.02.08-.83.3-2.11-.23-1.29-.47-2.67-1.82-4.45-2.64l.45-.04c-.75.51-1.6,1-2.51,1.43-2.59,1.24-5.19,1.67-7.04,1.73-1.86.06-2.99-.21-2.98-.33-.02-.3,4.63.09,9.61-2.29.87-.41,1.68-.87,2.41-1.33l.23-.15.22.11c2.02,1.02,3.21,2.41,4.33,2.96,1.07.62,1.85.63,1.85.76Z"/>
          <path class="st19" d="M246.78,281.91c-.05.16-.97-.13-2.45-.11-1.47,0-3.54.41-5.42,1.63-1.16.76-2.07,1.72-2.68,2.66l-.11.17-.17.03c-2.64.5-4.43.72-4.47.54-.04-.18,1.69-.73,4.29-1.39l-.28.2c.61-1.08,1.6-2.2,2.89-3.03,2.08-1.35,4.41-1.68,5.98-1.5,1.6.17,2.47.71,2.42.81Z"/>
          <g>
            <path class="st5" d="M266.54,274.4l-15.66-5.42-4.64-1.3-10.95-5.2-12.46,4.63s.28,4.26,3.56,3.1l-13.05,4.3s1.07,3.09,1.66,3.3c.59.21-7.66.9-7.66.9,0,0-.07,4.19,7.79,4.11,7.87-.08,10.83-1.41,10.83-1.41l6.27,1.67-.25,3.73-8.11-.35.84,5.26c1.25.59,10.13,1.43,10.13,1.43,0,0,13.17.19,16.74-1.52,3.56-1.72,8.12-4.21,8.12-4.21"/>
            <path class="st19" d="M259.7,287.42s-.12.1-.38.26c-.32.18-.7.4-1.17.66-1.12.61-2.64,1.43-4.55,2.47-.99.5-2.06,1.23-3.45,1.55-1.35.34-2.83.54-4.43.71-3.2.32-6.84.45-10.88.45h-.03c-1.56-.16-3.19-.33-4.9-.5-1.73-.24-3.42-.32-5.37-.91l-.19-.06-.04-.25c-.27-1.64-.56-3.43-.86-5.26l-.08-.52.53.02c2.56.1,5.3.21,8.11.33l-.47.42c.08-1.16.16-2.44.24-3.73l.34.48c-1.98-.52-4.1-1.09-6.27-1.66l.32-.03c-3.05,1.06-6.18,1.28-9.42,1.43-1.6.05-3.28.08-4.96-.25-1.64-.31-3.46-1.04-4.45-2.7-.27-.5-.46-.98-.49-1.62l-.02-.44.47-.04c1.95-.17,3.88-.34,5.78-.56.47-.05.95-.11,1.4-.19l.3-.06s0,0,0,0c-.01.02.04-.04-.11.09-.12.11-.15.32-.11.42-.04.17.34.39.27.33-.11-.05-.27-.15-.31-.2-.26-.26-.36-.48-.5-.7-.48-.9-.81-1.78-1.13-2.68l-.17-.46.47-.15c4.51-1.48,8.87-2.91,13.06-4.28l.3.87c-.51.15-1.05.3-1.64.18-.58-.09-1.11-.42-1.47-.84-.71-.87-.94-1.85-1.05-2.84l-.04-.33.33-.12c4.42-1.63,8.59-3.16,12.47-4.59l.16-.06.15.07c3.97,1.91,7.62,3.67,10.92,5.26l-.05-.02c1.6.46,3.13.9,4.57,1.32,1.41.5,2.74.97,3.98,1.41,2.45.88,4.57,1.64,6.33,2.28,1.66.61,2.98,1.1,3.97,1.47.9.34,1.37.54,1.36.57-.01.03-.5-.1-1.42-.39-1-.32-2.34-.75-4.02-1.3-1.78-.59-3.91-1.3-6.38-2.12-1.25-.42-2.58-.87-4-1.34-1.44-.39-2.97-.81-4.57-1.25h-.03s-.03-.02-.03-.02c-3.31-1.55-6.99-3.27-10.97-5.14h.31c-3.87,1.47-8.03,3.03-12.44,4.69l.29-.45c.09.81.34,1.72.84,2.31.5.6,1.29.68,2.11.39l.3.87c-4.18,1.39-8.54,2.83-13.04,4.33l.31-.62c.31.86.65,1.75,1.07,2.53.1.19.23.39.31.46.01.01.02.03,0,.01-.02,0-.09.13-.11.21v.02s0,0,0,0c.18-.49.07-.13.12-.23.04.02.09.05.14.09.09.08.15.19.17.28.03.11-.01.34-.14.46-.15.14-.12.09-.15.11-.07.03-.15.06-.18.07-.16.04-.27.06-.4.08-.49.08-.97.14-1.45.19-1.92.22-3.85.39-5.81.56l.45-.48c.01.32.16.77.36,1.12.74,1.26,2.27,1.95,3.79,2.23,1.54.3,3.13.28,4.73.23,3.15-.13,6.36-.39,9.06-1.33l.18-.06.14.04c2.16.58,4.29,1.15,6.26,1.68l.37.1-.03.38c-.09,1.29-.18,2.57-.26,3.72l-.03.44-.44-.02c-2.81-.13-5.55-.26-8.11-.38l.44-.5c.29,1.83.56,3.62.82,5.26l-.23-.31c1.56.48,3.46.65,5.11.89,1.7.19,3.33.38,4.87.55h-.03c4.01.05,7.65-.04,10.82-.3,1.58-.14,3.05-.31,4.36-.61,1.31-.26,2.37-.95,3.39-1.43,1.95-.96,3.5-1.73,4.63-2.29.49-.23.89-.42,1.22-.57.28-.12.42-.18.43-.16Z"/>
          </g>
          <path class="st19" d="M243.97,273.26c.2.16-1.69,2.69-4.83,4.91-3.13,2.24-6.14,3.2-6.22,2.96-.11-.26,2.63-1.59,5.65-3.76,3.04-2.15,5.19-4.31,5.4-4.11Z"/>
        </g>
      </g>
      <g>
        <path class="st15" d="M335.63,336.37l-36.44-3.06-42.95,16.35-9.46,5.75,13.44,45.89s67.32-39.66,70.18-43.06c8.81-10.45,5.23-21.87,5.23-21.87Z"/>
        <path class="st15" d="M141.14,370.13l-12.53,7.78,28.93,113.88-5.24,65.57c7.47,6.51,26.34,12.1,62.13,10.07,35.79-2.03,59.6-17.52,59.6-17.52l-3.43-67.54-8.13-76.22-9.21-52.1-27.54,1.99-10.72-6.36-4.81,2.41-6.17,17.11-16.08-11.61-18.8-9.06-6.87,12.82-21.12,8.78Z"/>
        <path class="st3" d="M253.26,367.3c.06-.02.41.88.99,2.53.58,1.65,1.35,4.06,2.24,7.06,1.77,6,3.89,14.4,5.57,23.81,1.67,9.41,2.57,18.03,2.98,24.27.2,3.12.31,5.65.33,7.4.03,1.75.01,2.72-.06,2.72s-.18-.96-.32-2.7c-.17-1.92-.38-4.4-.64-7.37-.58-6.21-1.59-14.78-3.25-24.16-1.67-9.37-3.67-17.76-5.27-23.79-.78-2.88-1.43-5.27-1.94-7.14-.46-1.68-.69-2.63-.63-2.65Z"/>
      </g>
      <path class="st3" d="M198.87,368.21c-.02.06-1-.15-2.59-.95-1.57-.81-3.78-2.29-5.69-4.87l.68-.19c-.29,4.51-1.23,10.36-3.35,16.45l-.21.61-.53-.36c-.42-.29-.87-.6-1.32-.91-6.48-4.47-12.31-8.56-16.5-11.56-1.95-1.42-3.61-2.62-4.94-3.59-1.15-.87-1.77-1.37-1.73-1.43.04-.06.73.34,1.95,1.11,1.38.9,3.09,2.02,5.11,3.34,4.29,2.85,10.19,6.85,16.67,11.32.45.31.9.62,1.32.91l-.74.24c2.1-6,3.11-11.74,3.53-16.19l.1-1.02.58.83c1.75,2.51,3.82,4.04,5.29,4.94,1.49.89,2.42,1.23,2.38,1.32Z"/>
      <path class="st3" d="M224.63,358.14c.15.14-2.39,3-6.12,6.95l-.34.36-.33-.38c-1.17-1.36-2.54-2.78-4.09-4.14-.78-.68-1.56-1.32-2.33-1.91-.39-.28-.77-.56-1.14-.84-.17-.12-.26-.11-.23-.11.01-.03-.09.08-.16.27-.63,1.6-1.22,3.09-1.76,4.48-1.03,2.54-1.73,4.09-1.86,4.04-.13-.05.34-1.68,1.21-4.28.48-1.41,1.01-2.94,1.57-4.56.09-.22.19-.58.65-.8.48-.19.88.04,1.09.17.43.29.81.56,1.21.86.8.59,1.61,1.24,2.41,1.94,1.59,1.4,2.98,2.88,4.14,4.3l-.67-.03c3.84-3.85,6.62-6.46,6.77-6.32Z"/>
      <g>
        <g>
          <g>
            <path class="st12" d="M217.16,562.59c15.46-2.92,31.94-1.22,47.26,5.91,18.87,8.78,33.19,24.39,40.33,43.95,7.13,19.56,6.22,40.72-2.56,59.59-18.13,38.96-64.58,55.9-103.54,37.77h0c-18.87-8.78-33.19-24.39-40.33-43.95-7.13-19.56-6.22-40.72,2.56-59.59,11-23.64,32.43-39.17,56.28-43.68ZM244.95,710.59c22.26-4.21,42.24-18.7,52.51-40.75,8.2-17.61,9.04-37.35,2.39-55.6-6.65-18.25-20.02-32.81-37.63-41-17.61-8.2-37.35-9.05-55.6-2.39-18.25,6.65-32.81,20.02-41,37.63-8.2,17.61-9.04,37.35-2.39,55.6,6.65,18.25,20.02,32.81,37.63,41,14.29,6.65,29.67,8.25,44.1,5.52Z"/>
            <path class="st12" d="M231.42,720.87c-11.74,0-23.42-2.56-34.36-7.65-19.78-9.21-34.8-25.57-42.27-46.07-7.48-20.5-6.52-42.68,2.68-62.47,11.07-23.78,33.12-40.9,58.99-45.79,16.85-3.19,33.98-1.05,49.55,6.2,19.78,9.21,34.79,25.57,42.27,46.07,7.48,20.5,6.52,42.69-2.68,62.47-9.19,19.75-25.56,34.75-46.08,42.24-9.16,3.34-18.64,5-28.1,5ZM231.58,570.17c-7.97,0-15.96,1.4-23.67,4.21-17.3,6.31-31.11,18.98-38.88,35.68-7.77,16.7-8.58,35.42-2.26,52.72,6.31,17.3,18.98,31.11,35.68,38.88,13.13,6.11,27.58,7.92,41.81,5.23h0c21.84-4.13,40.46-18.58,49.8-38.64,7.77-16.7,8.58-35.42,2.26-52.72-6.31-17.3-18.98-31.11-35.68-38.88-9.26-4.31-19.14-6.48-29.06-6.48Z"/>
          </g>
          <path class="st12" d="M41.97,563.01l.69-1.7c1.48-3.63,4.72-5.75,7.24-4.73l113.88,46.33c.56.23.75,1.07.42,1.88l-4.85,11.93c-.33.81-1.05,1.28-1.61,1.06l-113.88-46.33c-2.52-1.02-3.36-4.8-1.88-8.44Z"/>
        </g>
        <g>
          <g>
            <path class="st22" d="M148.34,431.89l-13.7,45.31,6.87,92.35-20.2,2.55s-23.15-78.7-20.84-92.82c2.31-14.13,11.66-55.63,11.66-55.63l36.21,8.24Z"/>
            <g>
              <path class="st22" d="M141.45,568.89l9.41,16.06,5.88,15.1-8.87-3.49s-3.8,18.17-5.29,18.65c-1.49.48-5.76-1-5.33-4.49,0,0-2.13,2.14-4.79,1.58-2.67-.55-3.3-2.28-3.01-5.59,0,0-3.11,2.53-4.97.95-1.86-1.58-1.68-4.32-1.68-4.32,0,0-4.05.35-4.6-1.75-.56-2.1-.7-8.09-.22-10.38.48-2.29,2.42-11.61,2.42-11.61l.92-7.51,20.15-3.21Z"/>
              <path class="st19" d="M139.24,600.25c-.23-.04-.86,2.27-1.41,5.16-.55,2.89-.81,5.27-.59,5.32.23.04.86-2.27,1.41-5.16.55-2.89.81-5.27.59-5.32Z"/>
              <path class="st19" d="M131,598.16c-.23-.05-.79,1.8-1.25,4.11-.46,2.32-.66,4.23-.43,4.28.23.05.79-1.79,1.25-4.11.47-2.32.66-4.23.43-4.28Z"/>
              <path class="st19" d="M124.13,596.22c-.25-.02-.44,1.63-.74,3.56-.32,1.93-.82,3.47-.59,3.57.19.09,1.08-1.37,1.42-3.43.31-2.05.12-3.69-.09-3.7Z"/>
              <path class="st19" d="M148.55,591.32c-.23-.04-.82,2.24-1.5,5.04-.68,2.81-1.19,5.1-.96,5.17.22.07,1.1-2.14,1.78-4.98.69-2.84.91-5.2.69-5.24Z"/>
            </g>
          </g>
          <path class="st15" d="M99.36,509.79c0-1.54-6.33-23.07-4.41-34.22,1.92-11.15,24.87-86.52,27.95-91.9,3.08-5.38,9.81-8.3,9.81-8.3,0,0,13.65,6.38,18.26,22.92,4.61,16.53,4.61,37.3,4.61,37.3l-18.46,45.76,2.2,25.99-39.97,2.47Z"/>
        </g>
        <path class="st3" d="M154.4,434.06c-.19-.02.17-3.38-.01-8.79-.07-2.71-.38-5.93-.91-9.46-.59-3.53-1.44-7.38-2.67-11.32-1.27-3.93-2.78-7.57-4.34-10.79-1.6-3.2-3.2-6-4.7-8.26-2.97-4.54-5.2-7.08-5.05-7.2.05-.04.64.56,1.65,1.7,1.03,1.13,2.41,2.87,3.98,5.11,1.59,2.23,3.27,5.03,4.94,8.25,1.62,3.24,3.18,6.92,4.46,10.9,1.25,3.99,2.08,7.9,2.63,11.48.49,3.59.73,6.85.71,9.58,0,2.73-.11,4.95-.31,6.46-.17,1.52-.3,2.35-.37,2.35Z"/>
        <path class="st3" d="M153.21,443.64c.12.05-.57,2.24-1.91,5.71-1.33,3.47-3.35,8.19-5.69,13.34-2.26,5.02-4.3,9.56-5.94,13.21-1.5,3.39-2.42,5.49-2.55,5.44-.12-.05.57-2.24,1.91-5.71,1.33-3.47,3.35-8.19,5.69-13.35,2.26-5.02,4.3-9.56,5.94-13.21,1.5-3.39,2.42-5.49,2.55-5.44Z"/>
        <path class="st3" d="M138.19,483.11c-.16.27-5.32-3.33-12.64-5.5-7.3-2.24-13.59-2.07-13.58-2.39,0-.12,1.56-.31,4.1-.22,2.53.09,6.04.55,9.77,1.67,3.72,1.12,6.9,2.67,9.06,4,2.17,1.32,3.37,2.34,3.3,2.44Z"/>
        <path class="st9" d="M258.31,612.73c.18.21-14.65,13.18-33.12,28.98-18.47,15.8-33.58,28.45-33.76,28.24-.18-.21,14.65-13.18,33.12-28.98,18.46-15.8,33.58-28.44,33.75-28.24Z"/>
        <path class="st9" d="M277.39,612.73c.18.21-12.31,11.23-27.89,24.62-15.58,13.4-28.36,24.09-28.53,23.88-.18-.21,12.31-11.23,27.9-24.62,15.58-13.39,28.35-24.08,28.53-23.88Z"/>
        <path class="st3" d="M305.47,639.15s-.05-.41-.11-1.2c-.05-.83-.13-1.99-.23-3.51-.05-.77-.1-1.64-.15-2.58-.1-.95-.3-1.97-.47-3.09-.18-1.12-.37-2.32-.57-3.6-.15-1.29-.63-2.61-.97-4.03-1.3-5.71-3.97-12.46-8.19-19.61-4.25-7.12-10.38-14.56-18.73-20.88-1.05-.78-2.11-1.57-3.18-2.37-1.12-.73-2.3-1.4-3.46-2.12-1.19-.68-2.31-1.5-3.59-2.07-1.26-.6-2.53-1.21-3.82-1.83-.64-.31-1.29-.61-1.94-.92-.68-.25-1.36-.49-2.04-.74-1.37-.5-2.75-1-4.14-1.51-1.41-.46-2.88-.76-4.33-1.16-1.47-.33-2.92-.85-4.45-1.01-3.04-.43-6.11-1.06-9.3-1.07-1.59-.05-3.18-.21-4.79-.18-1.61.08-3.23.17-4.86.25-.82.06-1.64.05-2.46.16l-2.45.38c-1.64.27-3.3.46-4.94.8-3.24.88-6.6,1.54-9.8,2.88-3.3,1.06-6.4,2.68-9.58,4.21-1.55.84-3.04,1.82-4.57,2.73-.75.48-1.55.89-2.27,1.43l-2.16,1.62c-2.99,2.05-5.6,4.61-8.33,7.08-2.47,2.73-5.07,5.41-7.2,8.51l-1.69,2.26-1.48,2.42-1.48,2.43c-.51.8-.98,1.63-1.37,2.5-.83,1.72-1.66,3.45-2.49,5.18-.66,1.81-1.33,3.62-1.99,5.44-2.39,7.37-3.68,15.2-3.79,23.17.1,7.97,1.39,15.81,3.79,23.18.67,1.82,1.33,3.63,1.99,5.44.83,1.73,1.67,3.46,2.49,5.18l.63,1.29.74,1.22,1.48,2.43,1.48,2.42,1.69,2.26c2.13,3.1,4.73,5.78,7.2,8.52,2.74,2.47,5.35,5.04,8.33,7.09l2.16,1.62c.72.54,1.52.95,2.27,1.44,1.54.91,3.02,1.89,4.58,2.73,3.19,1.53,6.29,3.16,9.58,4.21,3.2,1.34,6.56,1.99,9.8,2.88,1.64.34,3.31.53,4.94.8l2.45.38c.82.11,1.64.1,2.46.16,1.63.08,3.26.17,4.87.25,1.61.02,3.21-.13,4.79-.18,3.18-.02,6.26-.64,9.3-1.08,1.53-.16,2.98-.67,4.45-1.01,1.46-.4,2.93-.69,4.33-1.16,1.39-.51,2.77-1.01,4.14-1.51.68-.25,1.36-.5,2.04-.74.65-.31,1.3-.62,1.94-.92,1.29-.62,2.56-1.23,3.82-1.83,1.27-.58,2.4-1.4,3.59-2.07,1.16-.72,2.34-1.39,3.46-2.12,1.07-.8,2.13-1.59,3.18-2.37,8.35-6.32,14.48-13.76,18.72-20.88,4.21-7.15,6.89-13.9,8.19-19.61.33-1.43.81-2.74.97-4.03.2-1.28.39-2.48.57-3.6.17-1.12.37-2.14.47-3.09.06-.95.11-1.81.15-2.58.1-1.52.17-2.68.23-3.51.06-.79.11-1.2.11-1.2,0,0,.01.41-.01,1.2-.03.83-.07,2-.13,3.52-.03.78-.07,1.64-.11,2.6-.08.95-.27,1.98-.42,3.1-.16,1.12-.34,2.33-.53,3.62-.14,1.3-.61,2.62-.93,4.06-1.25,5.75-3.89,12.56-8.09,19.8-4.23,7.2-10.38,14.74-18.77,21.15-1.06.79-2.12,1.59-3.2,2.4-1.12.75-2.31,1.43-3.48,2.16-1.2.69-2.33,1.52-3.62,2.11-1.27.61-2.55,1.24-3.85,1.86-.65.31-1.3.62-1.96.94-.68.25-1.37.5-2.06.76-1.38.51-2.77,1.02-4.18,1.54-1.42.47-2.91.78-4.38,1.19-1.49.34-2.95.87-4.5,1.03-3.07.45-6.18,1.09-9.4,1.11-1.6.06-3.22.22-4.85.2-1.63-.08-3.27-.16-4.92-.24-.83-.06-1.66-.05-2.48-.16l-2.48-.38c-1.66-.27-3.34-.46-5.01-.8-3.29-.88-6.69-1.55-9.93-2.89-3.34-1.06-6.48-2.71-9.71-4.25-1.57-.85-3.08-1.84-4.64-2.76-.76-.49-1.58-.9-2.3-1.45l-2.19-1.64c-3.03-2.07-5.68-4.67-8.45-7.17-2.51-2.77-5.14-5.48-7.3-8.62l-1.71-2.29-1.5-2.45-1.5-2.46-.75-1.24-.64-1.3c-.84-1.74-1.68-3.49-2.53-5.25-.67-1.83-1.35-3.67-2.02-5.51-2.43-7.47-3.74-15.41-3.84-23.49.11-8.07,1.41-16.01,3.85-23.48.68-1.84,1.35-3.68,2.02-5.51.85-1.76,1.69-3.51,2.53-5.25.39-.89.87-1.73,1.39-2.54l1.5-2.46,1.5-2.45,1.71-2.29c2.16-3.14,4.79-5.85,7.3-8.62,2.77-2.5,5.42-5.09,8.45-7.16l2.19-1.64c.73-.55,1.54-.96,2.3-1.45,1.56-.92,3.06-1.91,4.64-2.76,3.23-1.54,6.37-3.19,9.71-4.25,3.24-1.34,6.64-2.01,9.92-2.89,1.67-.34,3.35-.53,5.01-.8l2.48-.38c.83-.11,1.66-.1,2.48-.16,1.65-.08,3.29-.16,4.92-.24,1.63-.02,3.24.14,4.85.2,3.22.03,6.33.67,9.4,1.11,1.55.16,3.01.69,4.5,1.03,1.47.4,2.96.71,4.38,1.19,1.41.52,2.8,1.03,4.18,1.54.69.25,1.38.51,2.06.76.66.31,1.31.63,1.96.94,1.3.63,2.58,1.25,3.85,1.86,1.28.59,2.42,1.42,3.62,2.11,1.17.73,2.36,1.41,3.48,2.16,1.08.81,2.15,1.61,3.2,2.4,8.4,6.41,14.54,13.95,18.78,21.15,4.2,7.23,6.84,14.04,8.09,19.8.32,1.44.79,2.76.93,4.06.19,1.29.37,2.5.53,3.62.15,1.12.34,2.15.42,3.1.04.95.08,1.82.11,2.6.06,1.52.1,2.69.13,3.52.02.79.01,1.2.01,1.2Z"/>
        <path class="st3" d="M278.18,678.4c-.06-.05.64-.92,1.85-2.52,1.22-1.59,2.89-3.97,4.71-7.05,3.64-6.12,7.56-15.43,8.7-26.3,1.14-10.87-.76-20.79-3.05-27.54-1.13-3.39-2.28-6.06-3.14-7.87-.86-1.81-1.36-2.81-1.29-2.85.03-.02.19.21.47.66.27.46.7,1.11,1.16,2.01.97,1.77,2.23,4.42,3.46,7.82,2.48,6.76,4.53,16.82,3.37,27.87-1.16,11.05-5.25,20.46-9.08,26.56-1.91,3.07-3.69,5.4-5,6.93-.64.78-1.2,1.34-1.55,1.73-.37.38-.57.57-.6.55Z"/>
        <path class="st3" d="M274.28,685.16c.13.23-.45.82-1.3,1.31-.85.49-1.65.69-1.78.46-.13-.23.45-.82,1.3-1.31.85-.49,1.65-.69,1.78-.46Z"/>
        <path class="st9" d="M177.3,670.81s-.19-.29-.46-.88c-.26-.6-.68-1.46-1.11-2.62-.91-2.3-2.03-5.71-2.98-10.04-1.94-8.6-2.72-21.2.83-34.35,3.55-13.15,10.57-23.64,16.58-30.1,3-3.26,5.69-5.65,7.64-7.18.95-.79,1.75-1.32,2.28-1.71.53-.38.82-.56.84-.53.05.07-1.01.92-2.87,2.54-1.86,1.61-4.46,4.06-7.36,7.35-5.82,6.52-12.65,16.92-16.15,29.89-3.5,12.96-2.84,25.39-1.1,33.95.86,4.31,1.87,7.73,2.67,10.06.79,2.33,1.28,3.61,1.2,3.64Z"/>
        <path class="st9" d="M220.96,578.62c.02.27-1.93.65-4.36.85-2.43.2-4.41.15-4.44-.12-.02-.27,1.93-.65,4.36-.85,2.43-.2,4.41-.15,4.44.12Z"/>
      </g>
    </g>
  </g>
  <g>
    <text class="st6" transform="translate(363.96 449.35)"><tspan x="0" y="0">BEST PARTNER</tspan></text>
    <g>
      <g>
        <path class="st7" d="M387.36,412.31l-6.52,15.2c-.03.08-.11.13-.2.13h-3.95c-.15,0-.25-.15-.19-.29l10.86-25.03c.07-.17.31-.17.38,0l10.9,25.03c.06.14-.04.29-.19.29h-3.99c-.09,0-.16-.05-.2-.13l-6.52-15.2c-.07-.17-.32-.17-.39,0Z"/>
        <path class="st7" d="M367.78,417.53l6.52-15.2c.03-.08.11-.13.2-.13h3.95c.15,0,.25.15.19.29l-10.86,25.03c-.07.17-.31.17-.38,0l-10.9-25.03c-.06-.14.04-.29.19-.29h3.99c.09,0,.16.05.2.13l6.52,15.2c.07.17.32.17.39,0Z"/>
        <path class="st7" d="M404.99,425.59c-1.01-.76-1.77-1.7-2.29-2.78-.59-1.18-.87-2.5-.87-3.92v-16.49c0-.11.09-.21.21-.21h3.61c.11,0,.21.09.21.21v16.49c0,1.53.55,2.71,1.6,3.51.97.76,2.39,1.22,3.92,1.22s2.92-.45,3.92-1.22c1.04-.8,1.56-1.98,1.56-3.51v-16.49c0-.11.09-.21.21-.21h3.65c.11,0,.21.09.21.21v16.49c0,1.42-.31,2.74-.87,3.92-.56,1.08-1.32,2.01-2.29,2.78-1.7,1.32-3.96,2.05-6.39,2.05s-4.69-.73-6.39-2.05Z"/>
        <path class="st7" d="M442.72,427.46l-6.49-9.51c-.08-.12-.27-.12-.35,0l-6.46,9.51c-.08.11-.2.18-.34.18h-4.41c-.16,0-.26-.18-.17-.32l8.96-13.18c.05-.07.05-.17,0-.24l-7.76-11.39c-.09-.14,0-.32.17-.32h4.41c.13,0,.26.07.34.18l5.26,7.73c.08.12.27.12.35,0l5.29-7.73c.08-.11.2-.18.34-.18h4.41c.16,0,.26.18.17.32l-7.79,11.39c-.05.07-.05.17,0,.24l8.99,13.18c.09.14,0,.32-.17.32h-4.41c-.13,0-.26-.07-.34-.18Z"/>
        <path class="st2" d="M461.68,402.19c-7.03,0-12.72,5.7-12.72,12.72s5.7,12.72,12.72,12.72,12.72-5.7,12.72-12.72-5.7-12.72-12.72-12.72ZM461.68,423.57c-4.78,0-8.65-3.87-8.65-8.65s3.87-8.65,8.65-8.65,8.65,3.87,8.65,8.65-3.87,8.65-8.65,8.65Z"/>
        <path class="st2" d="M491.33,402.19c-7.03,0-12.72,5.7-12.72,12.72s5.7,12.72,12.72,12.72,12.72-5.7,12.72-12.72-5.7-12.72-12.72-12.72ZM491.33,423.57c-4.78,0-8.65-3.87-8.65-8.65s3.87-8.65,8.65-8.65,8.65,3.87,8.65,8.65-3.87,8.65-8.65,8.65Z"/>
      </g>
      <g>
        <path class="st17" d="M338.8,422.55l-7.77-7.63,7.77-7.63,7.3,7.17c.26.25.26.67,0,.92l-7.3,7.17Z"/>
        <polygon class="st2" points="334.92 418.73 331.03 414.92 334.92 411.1 338.8 414.92 334.92 418.73"/>
        <path class="st13" d="M342.69,418.73l3.42-3.36c.26-.25.26-.67,0-.92l-3.42-3.36-3.89,3.82,3.89,3.82Z"/>
        <path class="st17" d="M318.17,422.55l7.77-7.63-7.77-7.63-7.3,7.17c-.26.25-.26.67,0,.92l7.3,7.17Z"/>
        <polygon class="st2" points="322.06 418.73 325.94 414.92 322.06 411.1 318.17 414.92 322.06 418.73"/>
        <path class="st13" d="M314.28,418.73l-3.42-3.36c-.26-.25-.26-.67,0-.92l3.42-3.36,3.89,3.82-3.89,3.82Z"/>
        <path class="st17" d="M336.12,425.23l-7.63-7.77-7.63,7.77,7.17,7.3c.25.26.67.26.92,0l7.17-7.3Z"/>
        <polygon class="st2" points="332.3 421.35 328.49 417.46 324.67 421.35 328.49 425.23 332.3 421.35"/>
        <path class="st13" d="M332.3,429.12l-3.36,3.42c-.25.26-.67.26-.92,0l-3.36-3.42,3.82-3.89,3.82,3.89Z"/>
        <path class="st23" d="M320.85,404.6l7.63,7.77,7.63-7.77-7.17-7.3c-.25-.26-.67-.26-.92,0l-7.17,7.3Z"/>
        <polygon class="st21" points="324.67 408.49 328.49 412.37 332.3 408.49 328.49 404.6 324.67 408.49"/>
        <path class="st11" d="M324.67,400.72l3.36-3.42c.25-.26.67-.26.92,0l3.36,3.42-3.82,3.89-3.82-3.89Z"/>
      </g>
    </g>
  </g>
</svg>