<?xml version="1.0" encoding="UTF-8"?>
<svg id="Capa_1" xmlns="http://www.w3.org/2000/svg" version="1.1" viewBox="0 0 900 557.14">
  <!-- Generator: Adobe Illustrator 30.2.1, SVG Export Plug-In . SVG Version: 2.1.1 Build 1)  -->
  <defs>
    <style>
      .st0 {
        opacity: .6;
      }

      .st1 {
        fill: #973032;
      }

      .st2 {
        fill: #263238;
      }

      .st3 {
        opacity: .3;
      }

      .st4 {
        fill: #8f8f8f;
      }

      .st5 {
        fill: #fff;
      }

      .st6 {
        fill: #dee0e2;
      }

      .st7 {
        fill: #bc2e41;
      }

      .st8 {
        fill: #e0e0e0;
      }

      .st9, .st10 {
        fill: #1f2123;
      }

      .st11 {
        fill: #bd0043;
      }

      .st12 {
        fill: #ae2f3d;
      }

      .st13 {
        fill: #f5f5f5;
      }

      .st14 {
        fill: #c8ced3;
      }

      .st10 {
        font-size: 17.03px;
      }

      .st15 {
        fill: #d5d9dc;
      }

      .st16 {
        fill: #714b67;
      }
    </style>
  </defs>
  <g>
    <g>
      <path class="st13" d="M834.9,173.45c-.18-1.86-.39-3.69-.64-5.52-.25-1.93-.54-3.86-.86-5.77.32,1.91.61,3.84.86,5.77.26,1.83.46,3.66.64,5.52Z"/>
      <path class="st13" d="M820.09,196.33c-1.6-3.61-1.96-7.61-3.02-11.4-.57-2.04-1.52-4.2-3.43-5.11-1.26-.59-2.76-.52-4.1-.93-4.82-1.44-6.14-8.18-10.71-10.27-1.44-.64-3.04-.77-4.59-.95-6.11-.72-12.43-2.84-16.28-7.63-1.26-1.55-2.22-3.38-3.77-4.64-1.57-1.26-4-1.81-5.52-.52,1.29,2.58,2.55,5.16,3.82,7.71,1.16,2.32,2.35,4.72,4.28,6.42,1.96,1.73,4.85,2.63,7.2,1.55.77-.36,1.55-.95,2.42-.85.62.08,1.16.52,1.57,1.01,3.33,3.69,2.24,9.8-1.01,13.57-3.22,3.74-8.02,5.7-12.64,7.53-1.65.64-3.4,1.32-5.16,1.01-3.2-.59-4.9-4.08-5.83-7.2-2.09-6.91-3.1-14.42-7.38-20.25-1.37-1.83-3.07-3.51-3.89-5.65-.88-2.32-.67-5.03-2.06-7.07-1.44-2.14-4.51-3.38-4.72-5.96-.13-1.81,1.37-3.4,3.02-4.18,1.65-.8,3.51-1.03,5.21-1.73.67-.28,1.42-.77,1.44-1.5,0-1.08-1.5-1.52-1.88-2.53-.41-1.14.75-2.19,1.24-3.3,1.06-2.53-1.57-5.08-4.13-6.11-2.53-1.03-5.6-1.78-6.78-4.26-.54-1.14-.59-2.45-.83-3.69-.59-3.12-2.89-6.14-6.04-6.66-3.17-.52-6.68,2.3-6.17,5.44.31,1.73,1.6,3.07,2.3,4.67.72,1.6.52,3.97-1.13,4.49-2.71.83-5.31-4.13-7.58-2.43.93,3.17,1.83,6.35,2.76,9.54-3.56,1.81-7.82-1.47-9.34-5.18-1.52-3.69-1.57-7.92-3.38-11.48-1.81-3.58-6.68-6.24-9.78-3.71-.15,4.59,5.91,6.45,8.59,10.16,1.93,2.68,1.65,7.04-1.21,8.74-2.84,1.7-7.35-1.26-6.27-4.38.39-1.08,1.29-1.99,1.39-3.15.1-1.44-1.11-2.61-2.22-3.53-1.73-1.47-3.46-2.92-5.18-4.36-1.11-.93-2.3-1.91-3.69-2.32-3.56-1.03-7.12,1.86-9,5.03-1.88,3.2-2.94,6.94-5.55,9.6-3.74,3.87-10.83,4.1-14.34.05-3.53-4.05-1.73-11.63,3.46-13.1,1.96-.54,4.44-.49,5.47-2.22,1.81-3.07-3.35-6.99-1.57-10.09,1.37-2.37,4.98-1.29,7.61-2.09,2.6-.8,4.08-3.43,5.62-5.7,1.52-2.24,3.92-4.51,6.6-3.92-.21-1.57-.41-3.28.28-4.69.7-1.44,2.66-2.37,3.95-1.44-1.32,2.17.26,5.18,2.55,6.27,2.3,1.08,4.98.83,7.51.54,2.53-.31,5.7-1.24,5.91-3.77.08-.83-.23-1.7.08-2.48,1.11-3.02,6.68,1.14,8.82-1.29,1.24-1.26-.13-3.51-1.86-3.92-1.7-.44-3.48.21-5.24.26-1.75.08-3.9-.85-3.97-2.61-.08-1.73,1.86-2.97,2.06-4.67.34-2.89-4.57-3.64-6.29-1.29-1.7,2.35-1.11,5.57-.59,8.43.54,2.86.8,6.24-1.32,8.25-.9,1.37-3.25.64-4.02-.8-.8-1.44-.62-3.2-.75-4.82-.13-1.65-.85-3.51-2.45-3.95-1.11-.31-2.3.23-3.43.39-4.49.54-7.61-5.26-6.19-9.54,1.39-4.31,5.47-7.07,9.42-9.26,2.89-1.6,6.47-3.1,9.34-1.47,1.34.75,2.27,2.04,3.59,2.81,2.27,1.34,5.08.85,7.69.9,4.1.1,8.15,1.68,11.22,4.36,1.16,1.06,2.24,2.81,1.34,4.08-.98,1.34-3.79,1.62-3.3,3.2,3.04,1.01,6.68-1.34,7.02-4.51,1.5.67,2.58,2.19,2.71,3.82,3.28-3.33,9.57-2.84,12.25,1.01.72,1.01,1.24,2.22,2.27,2.91,1.03.67,2.84.34,2.97-.88.05-.39-.08-.77-.21-1.14-.62-1.75-1.26-3.48-1.88-5.21,2.4-1.29,5.24.72,6.86,2.89,6.04,8.07,10.34,3.22,18.86,4.54,5.75.88,8.28,4.57,11.53,9.03,9.96,13.72,23.11,24.97,32.17,39.31.95,1.5,1.83,3.02,2.66,4.57-.15-.39-.28-.77-.44-1.16-3.56-9.36-7.97-18.31-13.15-26.75-1.11-1.81-2.24-3.59-3.4-5.34-.72-1.08-1.47-2.19-2.22-3.25-.95-1.39-1.96-2.73-2.97-4.08-.8-1.08-1.6-2.14-2.42-3.17-.57-.72-1.16-1.44-1.75-2.17-.62-.83-1.29-1.62-2.01-2.42l-2.17-2.5c-.21-.26-.44-.52-.7-.77-.75-.88-1.55-1.73-2.35-2.58-.05-.1-.13-.18-.23-.26-.21-.23-.44-.46-.67-.7-.64-.72-1.34-1.42-2.01-2.12-1.11-1.14-2.24-2.27-3.4-3.35-.95-.95-1.93-1.86-2.94-2.76-.88-.8-1.75-1.6-2.66-2.37-.88-.77-1.75-1.52-2.66-2.27-1.08-.93-2.19-1.83-3.33-2.73h-.03c-3.12-2.5-6.34-4.87-9.65-7.09-.83-.57-1.63-1.11-2.45-1.65-.83-.57-1.68-1.08-2.5-1.6-.85-.52-1.68-1.06-2.53-1.55-.85-.54-1.7-1.03-2.55-1.52-.7-.41-1.37-.8-2.06-1.16-.36-.23-.7-.41-1.06-.59-1.47-.83-2.97-1.63-4.46-2.37-.75-.39-1.5-.77-2.27-1.14-.95-.49-1.93-.95-2.91-1.39-.13-.08-.28-.15-.44-.21-.88-.41-1.75-.83-2.66-1.21-1.26-.54-2.53-1.08-3.79-1.6-1.44-.59-2.89-1.19-4.36-1.73-1.62-.62-3.25-1.21-4.9-1.75-1.65-.57-3.33-1.11-5-1.63-1.68-.52-3.35-.98-5.06-1.44-3.35-.9-6.76-1.7-10.19-2.4-.05-.03-.13-.03-.18-.05-1.32-.26-2.63-.52-3.95-.72-.1-.03-.18-.05-.26-.05-.57-.1-1.16-.21-1.75-.28-2.45-.41-4.93-.75-7.43-1.03-.28-.05-.59-.08-.9-.1-.72-.1-1.44-.15-2.19-.23-1.65-.15-3.3-.28-4.98-.39-1.73-.13-3.48-.21-5.24-.26-1.83-.08-3.66-.1-5.49-.1-4.85,0-9.65.21-14.39.65-1.14.08-2.24.18-3.35.31-1.16.13-2.32.26-3.48.41-1.16.15-2.32.31-3.46.49-1.16.18-2.3.36-3.46.57-.98.15-1.99.34-2.97.54-2.43.46-4.82.98-7.2,1.55-1.11.26-2.22.54-3.33.85-1.11.28-2.22.59-3.3.9-1.83.52-3.61,1.08-5.39,1.65h-.03c-1.44.49-2.91.98-4.33,1.47-.03,0-.08.03-.1.05-1.47.52-2.89,1.06-4.33,1.62-.08.03-.15.05-.23.08-1.32.52-2.63,1.06-3.92,1.6-1.62.67-3.22,1.39-4.8,2.12-1.34.62-2.66,1.24-3.95,1.88-1.39.7-2.79,1.39-4.15,2.12-.05.03-.1.05-.15.08-1.32.7-2.63,1.42-3.92,2.17-1.34.75-2.66,1.52-3.97,2.35h-.03c-1.24.75-2.45,1.5-3.66,2.27-.46.28-.9.59-1.37.9-1.29.83-2.53,1.68-3.79,2.55-1.55,1.06-3.04,2.17-4.54,3.28-1.32.98-2.61,1.99-3.87,2.99-7.3,5.83-14.11,12.25-20.27,19.22-2.19,2.42-4.26,4.9-6.27,7.43-1.7,2.17-3.35,4.36-4.93,6.63-1.42,1.97-2.79,3.99-4.1,6.03,1.32-2.04,2.69-4.06,4.1-6.03.41-.05.83-.1,1.24-.13,2.32-.18,4.77-.1,6.86-1.11,1.93-.95,3.3-2.68,5.06-3.92,4.49-3.2,11.84-3.79,13.05-9.16.41-1.81-.08-3.77.59-5.49,1.26-3.22,5.57-3.69,9.03-3.64,1.47,0,3.2.21,3.87,1.5.49.9.21,2.04-.15,2.99-2.12,6.04-6.4,11.25-11.84,14.55-4.49,2.73-10.34,4.85-11.58,9.96.62,1.73,3.77,1.6,4.02,3.41.18,1.44-1.68,2.19-2.35,3.48-.98,1.88,1.26,4.18,3.41,4.08,2.14-.1,3.92-1.65,5.49-3.1,4.69-4.36,9.62-9.05,11.32-15.24.72-2.55.98-5.55,3.04-7.25,2.45-2.01,6.84-.62,7.66,2.45,2.04-1.13,5.21-1.99,6.27.13.36.75.26,1.62.44,2.42.67,3.3,5.18,4.8,5.65,8.13.54,3.84-4.38,5.83-8.23,6.42-3.48.54-6.96,1.08-10.45,1.65-1.52.23-3.09.49-4.33,1.39-1.24.93-2.01,2.68-1.29,4.05.41.75,1.21,1.24,1.81,1.86,2.89,2.89.52,8.85-3.56,8.98-1.39.05-2.76-.46-4.15-.52-4.13-.18-7.4,3.46-9.36,7.09-1.96,3.64-3.43,7.79-6.73,10.27-5.31,4-14.47,3.07-17.05,9.21-1.03,2.48-.49,5.26-.08,7.92.41,2.63.59,5.57-.95,7.76-1.52,2.17-5.49,2.63-6.63.21-.49-1.06-.34-2.3-.15-3.43.62-3.82,1.21-7.63,1.81-11.45.44-2.84.83-6.01-.85-8.33-2.35-3.25-7.61-2.94-10.65-.34-3.02,2.61-4.28,6.68-5.13,10.58-.62,2.89-1.34,6.96-2.94,10.27h0c-.54,3.2-.98,6.45-1.32,9.73-.34,3.35-.57,6.68-.7,10.09.41-.34.85-.75,1.32-1.24,1.62-1.68,4.9-8.77,7.84-5.29.75.88.77,2.3.05,3.22-.9,1.16-2.71,1.42-3.4,2.68-.85,1.5.34,3.35,1.73,4.33,1.39,1.01,3.1,1.62,4.08,3.04,1.88,2.71.08,6.81,1.91,9.57,1.57,2.37,4.93,2.53,7.79,2.84.34.05.65.1.98.15.8-5.67,3.46-10.29,11.19-12.05,10.68-2.42,24.71,6.42,30.72,14.47,6.71,9,9.88,21.74,20.15,26.26,7.35,3.22,17.8,2.06,21.38,9.26,3.2,6.45-2.37,13.7-3.22,20.84-.54,4.72,1.01,9.41,1.37,14.13.34,4.75-1.06,10.27-5.36,12.25-2.4,1.08-5.42.95-7.35,2.76-3.43,3.25-.62,9.96-4.05,13.21-1.21,1.13-2.89,1.55-4.36,2.3-7.71,3.9-7.51,15.24-3.92,23.11.13.28.26.54.39.83,11.4,6.84,23.68,12.3,36.65,16.17,14.86,4.51,30.62,6.91,46.95,6.91,27.63,0,53.68-6.89,76.48-19.04h.03c4.95-2.66,9.78-5.55,14.42-8.69,7.2-4.82,13.95-10.21,20.25-16.1,4.36-4.08,8.51-8.38,12.38-12.92,2.73-3.15,5.31-6.42,7.79-9.78,1.26-1.73,2.5-3.46,3.66-5.24,3.56-5.21,6.81-10.65,9.72-16.28,4.23-8.1,7.76-16.61,10.55-25.43,2.86-8.9,4.95-18.13,6.22-27.63.49-3.66.88-7.38,1.13-11.12-1.78,1.73-4.1,2.97-6.55,2.91-3.92-.05-7.15-3.33-8.72-6.94Z"/>
      <path class="st13" d="M531.04,232.44c-.52-4.67,1.03-9.34,1.11-14.06.05-3.25-.18-6.68-.23-9.96-2.79-.13-5.57-.52-8.28-1.16-.57-.13-1.19-.31-1.52-.77-.36-.49-.31-1.14-.34-1.73-.21-3.66-3.74-6.09-6.91-7.92-1.62-.95-3.28-1.88-5.03-2.48,0,.39,0,.75.03,1.14.64,18.13,4.26,35.54,10.37,51.72,2.79,7.38,6.11,14.52,9.96,21.36,1.6,2.97,3.35,5.88,5.18,8.74,2.27,3.53,4.64,6.99,7.2,10.32,2.37,3.2,4.9,6.32,7.56,9.31,3.64,4.15,7.48,8.1,11.53,11.87,3.59,3.35,7.33,6.53,11.22,9.54-8.9-23.89-17.28-48.26-32.5-68.59-4-5.31-8.59-10.73-9.34-17.33Z"/>
      <path class="st13" d="M509.81,186.65c-.02.98-.05,1.96-.05,2.94,0,.8.03,1.59.04,2.39-.01-.8-.04-1.59-.04-2.39,0-.98.04-1.96.05-2.94Z"/>
      <g class="st0">
        <path class="st13" d="M582,324.97c1.37.93,2.76,1.83,4.16,2.71.98.62,1.96,1.21,2.97,1.81-1.01-.59-1.99-1.19-2.97-1.81-1.41-.88-2.79-1.78-4.16-2.71Z"/>
      </g>
      <path class="st8" d="M720.05,314.74c-1.03,0-2.05-.1-3.04-.32-3.36-.74-5.92-2.67-7.2-5.45-1.03-2.24-1.14-4.71-1.25-7.1-.07-1.62-.15-3.29-.52-4.85-.66-2.81-2.2-5.23-3.83-7.79-1.21-1.91-2.47-3.88-3.31-6.02-1.55-3.92-1.67-8.21-1.78-12.36l-.03-1c-.86-28.67-8.85-51.94-23.12-67.3-1.98-2.13-4.2-4.21-7-4.95-3.25-.86-6.94.41-8.97,3.09-.51.68-.94,1.46-1.35,2.21-.65,1.18-1.32,2.41-2.36,3.36-1.48,1.35-3.52,1.91-5.74,1.55-2.91-.46-5.72-2.4-7.15-4.94-2.53-4.46-2.07-9.96-1.71-14.37l1.47-17.79c.23-2.75.54-6.51,2.76-9.08,1.72-1.99,4.21-2.91,6.61-3.79,1.78-.66,3.62-1.33,5.1-2.44,2.86-2.14,4.12-5.51,5.46-9.09.75-1.99,1.52-4.05,2.59-5.88,1.94-3.32,6.52-5.57,10.22-5.03,1.75.26,3.04,1.13,3.75,2.5,1.76-3.31,3.94-5.31,6.64-6.08,5.89-1.69,13.08,2.97,20.02,7.48,6.34,4.12,12.33,8,17.03,7.15,1.18-.22,2.39-.55,3.55-.88,2.47-.7,5.03-1.42,7.65-1.05,6.85.96,10.34,8.39,12.62,14.75l11.14,31.13c1.39,3.87,3.17,8.13,6.86,9.56,1.44.56,3,.62,4.66.68,1.61.06,3.28.12,4.84.69,2.78,1.01,4.55,3.18,5.12,6.28.95,5.14-1.63,11.87-6,15.64h0c-2.02,1.75-4.31,3.31-6.53,4.82-5.04,3.43-9.79,6.67-11.85,11.99-1.1,2.85-1.23,6.03-1.37,9.11-.14,3.29-.28,6.7-1.59,9.8-1.12,2.68-3.02,4.91-4.85,7.06-1.12,1.32-2.28,2.68-3.24,4.13-3.57,5.37-4.56,12.04-5.51,18.49-.12.83-.25,1.65-.37,2.47-1.12,7.18-3.04,15.19-8.87,20.19-2.55,2.18-6.09,3.4-9.58,3.4Z"/>
      <g class="st0">
        <path class="st13" d="M509.91,182.81v-.03h0v.03c-.03.31-.05.59-.05.9-.04.97-.04,1.96-.05,2.94.02-.98.01-1.97.05-2.94,0-.31.03-.59.05-.9Z"/>
      </g>
      <g class="st0">
        <path class="st13" d="M509.8,191.98c.01.8.01,1.6.04,2.39h0c-.03-.79-.03-1.59-.04-2.39Z"/>
      </g>
      <path class="st8" d="M532.2,202.11c-.34-.05-.64-.1-.98-.15-2.86-.31-6.22-.46-7.79-2.84-1.83-2.76-.03-6.86-1.91-9.57-.98-1.42-2.68-2.04-4.08-3.04-1.39-.98-2.58-2.84-1.73-4.33.7-1.26,2.5-1.52,3.4-2.68.72-.93.7-2.35-.05-3.22-2.94-3.48-6.22,3.61-7.84,5.29-.46.49-.9.9-1.32,1.24v.03c-.03.31-.05.59-.05.9-.04.97-.04,1.96-.05,2.94-.02.98-.05,1.96-.05,2.94,0,.8.03,1.59.04,2.39.01.8.01,1.6.04,2.39,1.75.59,3.4,1.52,5.03,2.48,3.17,1.83,6.71,4.26,6.91,7.92.03.59-.03,1.24.34,1.73.33.46.95.64,1.52.77,2.71.64,5.49,1.03,8.28,1.16"/>
      <path class="st8" d="M531.92,208.43c.05,3.28.28,6.71.23,9.96-.08,4.72-1.62,9.39-1.11,14.06.75,6.6,5.34,12.02,9.34,17.33,15.22,20.33,23.6,44.7,32.5,68.59h.03c1.65,1.32,3.33,2.55,5.03,3.77,1.34.97,2.7,1.92,4.07,2.84,1.37.93,2.76,1.83,4.16,2.7.98.62,1.96,1.21,2.97,1.81-.13-.28-.26-.54-.39-.83-3.59-7.87-3.79-19.22,3.92-23.11,1.47-.75,3.15-1.16,4.36-2.3,3.43-3.25.62-9.96,4.05-13.21,1.93-1.81,4.95-1.68,7.35-2.76,4.31-1.99,5.7-7.51,5.37-12.25-.36-4.72-1.91-9.41-1.37-14.13.85-7.15,6.42-14.39,3.22-20.84-3.59-7.2-14.03-6.04-21.38-9.26-10.27-4.51-13.44-17.26-20.15-26.26-6.01-8.05-20.04-16.9-30.72-14.47-7.74,1.75-10.39,6.37-11.19,12.05"/>
      <path class="st8" d="M520,142.13c3.04-2.61,8.31-2.92,10.65.34,1.68,2.32,1.29,5.49.85,8.33-.59,3.82-1.19,7.63-1.81,11.45-.18,1.14-.34,2.37.15,3.43,1.13,2.42,5.11,1.96,6.63-.21,1.55-2.19,1.37-5.13.95-7.76-.41-2.66-.95-5.44.08-7.92,2.58-6.14,11.74-5.21,17.05-9.21,3.3-2.48,4.77-6.63,6.73-10.27,1.96-3.64,5.24-7.27,9.36-7.09,1.39.05,2.76.57,4.15.52,4.08-.13,6.45-6.09,3.56-8.98-.59-.62-1.39-1.11-1.81-1.86-.72-1.37.05-3.12,1.29-4.05,1.24-.9,2.81-1.16,4.33-1.39,3.48-.57,6.96-1.11,10.45-1.65,3.84-.59,8.77-2.58,8.23-6.42-.46-3.33-4.98-4.82-5.65-8.13-.18-.8-.08-1.68-.44-2.42-1.06-2.12-4.23-1.26-6.27-.13-.83-3.07-5.21-4.46-7.66-2.45-2.06,1.7-2.32,4.69-3.04,7.25-1.7,6.19-6.63,10.89-11.32,15.24-1.57,1.44-3.35,2.99-5.49,3.1-2.14.1-4.39-2.19-3.41-4.08.67-1.29,2.53-2.04,2.35-3.48-.26-1.81-3.4-1.68-4.02-3.41,1.24-5.11,7.09-7.22,11.58-9.96,5.44-3.3,9.72-8.51,11.84-14.55.36-.95.64-2.09.15-2.99-.67-1.29-2.4-1.5-3.87-1.5-3.46-.05-7.76.41-9.03,3.64-.67,1.73-.18,3.69-.59,5.49-1.21,5.37-8.56,5.96-13.05,9.16-1.75,1.24-3.12,2.97-5.06,3.92-2.09,1.01-4.54.93-6.86,1.11-.41.03-.83.08-1.24.13-1.42,1.97-2.79,3.99-4.1,6.03-1.32,2.04-2.59,4.12-3.81,6.22-5.78,9.88-10.52,20.43-14.14,31.52-1.26,3.86-2.38,7.78-3.35,11.76-.97,3.98-1.79,8.02-2.46,12.1,1.6-3.3,2.32-7.38,2.94-10.27.85-3.89,2.11-7.97,5.13-10.58Z"/>
      <path class="st8" d="M656.73,66.53c1.54-2.02,1.09-4.93,2.09-7.26,1.66-3.88,6.82-5.27,8.61-9.09.69-1.47.86-3.27,2.06-4.36,1-.91,2.48-1.1,3.56-1.92,2.4-1.84,1.41-6.03-1.14-7.66-6.39-4.08-18.16.64-23.68,4.63-7.1,5.14-14.05,11.33-23.5,10.72-2.6-.17-5.31-.88-7.75.04-2.44.92-3.94,4.58-1.84,6.13,1.17.86,2.83.62,4.14,1.23,2.44,1.13,2.68,4.65,1.49,7.06-1.19,2.41-3.33,4.21-4.74,6.5-1.36,2.22-1.99,4.88-1.75,7.47.16,1.8.8,3.67,2.21,4.8,2.94,2.35,7.41.34,9.9-2.48,2.49-2.82,4.21-6.46,7.44-8.39,1.61-.96,3.47-1.41,5.3-1.84,4.11-.98,8.21-1.95,12.32-2.93,1.96-.47,4.08-1.03,5.3-2.63Z"/>
      <g class="st0">
        <path class="st13" d="M835.65,187.35c-.01-2.35-.08-4.68-.21-6.99.13,2.32.2,4.64.21,6.99.05.75.05,1.5.05,2.24,0,3.61-.13,7.17-.34,10.73.21-3.56.34-7.12.34-10.73,0-.75,0-1.5-.05-2.24Z"/>
      </g>
      <g class="st0">
        <path class="st13" d="M825.46,132.67c.77,2.06,1.5,4.14,2.19,6.23-.69-2.09-1.42-4.17-2.19-6.23,0,0,.03-.03,0-.03t0,0s0,0,0,0v.03Z"/>
      </g>
      <path class="st8" d="M835.65,187.35c-.01-2.35-.08-4.68-.21-6.99-.13-2.31-.31-4.62-.54-6.91-.18-1.86-.39-3.69-.64-5.52-.25-1.93-.54-3.86-.86-5.77-.97-5.74-2.24-11.39-3.81-16.93-.61-2.13-1.25-4.24-1.94-6.33-.69-2.09-1.42-4.17-2.19-6.23v-.03s0,0,0,0c-.83-1.55-1.7-3.07-2.66-4.57-9.05-14.34-22.21-25.59-32.17-39.31-3.25-4.46-5.78-8.15-11.53-9.03-8.51-1.32-12.82,3.53-18.86-4.54-1.62-2.17-4.46-4.18-6.86-2.89.62,1.73,1.26,3.46,1.88,5.21.13.36.26.75.21,1.14-.13,1.21-1.93,1.55-2.97.88-1.03-.7-1.55-1.91-2.27-2.91-2.68-3.84-8.98-4.33-12.25-1.01-.13-1.62-1.21-3.15-2.71-3.82-.34,3.17-3.97,5.52-7.02,4.51-.49-1.57,2.32-1.86,3.3-3.2.9-1.26-.18-3.02-1.34-4.08-3.07-2.68-7.12-4.26-11.22-4.36-2.61-.05-5.42.44-7.69-.9-1.32-.77-2.24-2.06-3.59-2.81-2.86-1.63-6.45-.13-9.34,1.47-3.95,2.19-8.02,4.95-9.42,9.26-1.42,4.28,1.7,10.09,6.19,9.54,1.14-.15,2.32-.7,3.43-.39,1.6.44,2.32,2.3,2.45,3.95.13,1.62-.05,3.38.75,4.82.77,1.44,3.12,2.17,4.02.8,2.12-2.01,1.86-5.39,1.32-8.25-.52-2.86-1.11-6.09.59-8.43,1.73-2.35,6.63-1.6,6.29,1.29-.21,1.7-2.14,2.94-2.06,4.67.08,1.75,2.22,2.68,3.97,2.61,1.75-.05,3.53-.7,5.24-.26,1.73.41,3.1,2.66,1.86,3.92-2.14,2.42-7.71-1.73-8.82,1.29-.31.77,0,1.65-.08,2.48-.21,2.53-3.38,3.46-5.91,3.77-2.53.28-5.21.54-7.51-.54-2.3-1.08-3.87-4.1-2.55-6.27-1.29-.93-3.25,0-3.95,1.44-.7,1.42-.49,3.12-.28,4.69-2.68-.59-5.08,1.68-6.6,3.92-1.55,2.27-3.02,4.9-5.62,5.7-2.63.8-6.24-.28-7.61,2.09-1.78,3.1,3.38,7.02,1.57,10.09-1.03,1.73-3.51,1.68-5.47,2.22-5.18,1.47-6.99,9.05-3.46,13.1,3.51,4.05,10.6,3.82,14.34-.05,2.61-2.66,3.66-6.4,5.55-9.6,1.88-3.17,5.44-6.06,9-5.03,1.39.41,2.58,1.39,3.69,2.32,1.73,1.44,3.46,2.89,5.18,4.36,1.11.93,2.32,2.09,2.22,3.53-.1,1.16-1.01,2.06-1.39,3.15-1.08,3.12,3.43,6.09,6.27,4.38,2.86-1.7,3.15-6.06,1.21-8.74-2.68-3.71-8.74-5.57-8.59-10.16,3.1-2.53,7.97.13,9.78,3.71,1.81,3.56,1.86,7.79,3.38,11.48,1.52,3.71,5.78,6.99,9.34,5.18-.93-3.2-1.83-6.37-2.76-9.54,2.27-1.7,4.87,3.25,7.58,2.43,1.65-.52,1.86-2.89,1.13-4.49-.7-1.6-1.99-2.94-2.3-4.67-.52-3.15,2.99-5.96,6.17-5.44,3.15.52,5.44,3.53,6.04,6.66.23,1.24.28,2.55.83,3.69,1.19,2.48,4.26,3.22,6.78,4.26,2.55,1.03,5.18,3.59,4.13,6.11-.49,1.11-1.65,2.17-1.24,3.3.39,1.01,1.88,1.44,1.88,2.53-.03.72-.77,1.21-1.44,1.5-1.7.7-3.56.93-5.21,1.73-1.65.77-3.15,2.37-3.02,4.18.21,2.58,3.28,3.82,4.72,5.96,1.39,2.04,1.19,4.75,2.06,7.07.83,2.14,2.53,3.82,3.89,5.65,4.28,5.83,5.29,13.34,7.38,20.25.93,3.12,2.63,6.6,5.83,7.2,1.75.31,3.51-.36,5.16-1.01,4.62-1.83,9.41-3.79,12.64-7.53,3.25-3.77,4.33-9.88,1.01-13.57-.41-.49-.95-.93-1.57-1.01-.88-.1-1.65.49-2.42.85-2.35,1.08-5.24.18-7.2-1.55-1.93-1.7-3.12-4.1-4.28-6.42-1.26-2.55-2.53-5.13-3.82-7.71,1.52-1.29,3.95-.75,5.52.52,1.55,1.26,2.5,3.1,3.77,4.64,3.84,4.8,10.16,6.91,16.28,7.63,1.55.18,3.15.31,4.59.95,4.57,2.09,5.88,8.82,10.71,10.27,1.34.41,2.84.34,4.1.93,1.91.9,2.86,3.07,3.43,5.11,1.06,3.79,1.42,7.79,3.02,11.4,1.57,3.61,4.8,6.89,8.72,6.94,2.45.05,4.77-1.19,6.55-2.91v-.03c.21-3.56.34-7.12.34-10.73,0-.75,0-1.5-.05-2.24Z"/>
      <path class="st8" d="M769.67,255.01c-2.43.48-2.91,1.91-4.23,3.71-1.72,2.34-4.18,4.69-5.74,6.99-2.65,3.92-.26,10.03-3.75,13.32-.71.67-1.63,1.11-2.27,1.85-1.4,1.63-.88,4.39.83,5.69,1.71,1.3,4.23,1.21,6.07.11,1.85-1.09,3.08-3.03,3.72-5.08.46-1.48.72-3.15,1.89-4.17,2-1.75,5.1-.45,7.72-.82,11.18-1.57,6.38-23.7-4.25-21.61Z"/>
    </g>
    <g>
      <g>
        <g>
          <g>
            <rect class="st5" x="8.3" y="110.95" width="639.64" height="421.84"/>
            <path class="st2" d="M647.93,532.79s-.03-.68-.05-1.98c-.01-1.3-.03-3.22-.05-5.76-.02-5.08-.06-12.6-.1-22.43-.05-19.63-.13-48.45-.23-85.25-.11-73.49-.28-178.86-.48-306.42l.91.8c-180.58.05-401.41.11-639.58.18h-.05l1.12-.98c-.04,151.66-.08,295.3-.11,421.84l-1.01-.88c189.43.18,349.22.33,461.67.44,56.3.1,100.75.18,131.13.24,15.21.05,26.9.08,34.79.11,3.95.02,6.95.04,8.97.05,1.01.01,1.77.02,2.29.03.51,0,.79.03.79.03,0,0-.23.02-.73.03-.51,0-1.25.01-2.23.03-2,.01-4.96.03-8.86.05-7.85.02-19.47.06-34.59.11-30.33.05-74.7.13-130.9.24-112.61.11-272.62.26-462.32.44h-1.01s0-.88,0-.88c-.03-126.54-.07-270.17-.11-421.84v-.98s1.12,0,1.12,0h.05c238.18.07,459.01.13,639.58.18h.92s0,.8,0,.8c-.2,127.77-.36,233.31-.48,306.92-.1,36.73-.18,65.48-.23,85.07-.05,9.76-.08,17.23-.1,22.28-.02,2.5-.04,4.4-.05,5.68-.02,1.27-.05,1.89-.05,1.89Z"/>
          </g>
          <path class="st2" d="M644.73,169.94s-.55.08-1.62.11c-1.1.02-2.68.06-4.74.11-4.21.04-10.34.11-18.24.19-15.84.13-38.76.19-67.09.18-56.65,0-134.91-.42-221.33-1.12-86.44-.69-164.69-1.32-221.36-1.78-28.3-.22-51.21-.4-67.08-.53-7.9-.1-14.03-.17-18.24-.23-2.06-.05-3.64-.09-4.74-.12-1.07-.04-1.62-.08-1.62-.12s.55-.08,1.62-.11c1.1-.02,2.68-.06,4.74-.11,4.2-.04,10.34-.11,18.24-.19,15.84-.13,38.76-.19,67.09-.18,56.65,0,134.91.42,221.37,1.12,86.41.69,164.65,1.32,221.32,1.78,28.3.22,51.21.4,67.08.53,7.9.1,14.04.17,18.24.23,2.06.05,3.64.09,4.74.11,1.07.04,1.62.08,1.62.12Z"/>
          <path class="st2" d="M50.08,135.5c0,4.16-3.37,7.53-7.53,7.53s-7.53-3.37-7.53-7.53,3.37-7.53,7.53-7.53,7.53,3.37,7.53,7.53Z"/>
          <path class="st2" d="M80.21,135.5c0,4.16-3.37,7.53-7.53,7.53s-7.53-3.37-7.53-7.53,3.37-7.53,7.53-7.53,7.53,3.37,7.53,7.53Z"/>
          <circle class="st2" cx="102.8" cy="135.5" r="7.53"/>
        </g>
        <rect class="st8" x="53.74" y="262.12" width="163.84" height="119.64"/>
        <rect class="st8" x="251.03" y="262.12" width="163.84" height="119.64"/>
        <path class="st13" d="M880.78,417.48c15.88-57.02-33.13-104.95-61.85-118.69l-33.48,20.12c20.27,3.61,59.2,46.57,55,66.73-4.2,20.16-27.31,39.93-47.34,35.15-15.73-3.76-36.6-25.89-50.3-17.29-17.11-30.05-59.52-42.37-90.07-26.15-15.22-12.04-36.05-16.66-54.93-12.19-18.88,4.47-35.43,17.94-43.63,35.53,0,0-40.93,137.42,131.27,116.97,11.8-1.4,17.9-13.18,22.02-22.7,1.64.78,3.42,1.27,5.22,1.39,7.09.46,13.87-3.74,18.15-9.41.55-.73,1.05-1.49,1.53-2.27,20.26,12.19,51.94,16.82,73.26,11.77,30.98-7.33,66.61-48.3,75.15-78.96Z"/>
        <path class="st2" d="M745.53,416.49s-.08-.18-.18-.55c-.11-.41-.26-.95-.45-1.63-.18-.72-.42-1.61-.78-2.64-.35-1.03-.7-2.23-1.26-3.53-2.05-5.22-5.77-12.68-12.76-20-3.46-3.65-7.73-7.22-12.82-10.23-5.07-3.02-10.98-5.49-17.5-6.8-12.95-2.73-28.41-1.1-41.8,6.47-1.84,1-3.55,2.18-5.16,3.26l-.31.21-.26-.26c-10.38-10.41-24.03-15.89-36.52-17.02-3.13-.33-6.21-.27-9.18-.14-2.96.27-5.84.61-8.58,1.2-5.49,1.07-10.45,2.74-14.73,4.76-8.61,4.03-14.33,9.41-17.66,13.48-.87.99-1.56,1.94-2.15,2.77-.62.81-1.1,1.52-1.46,2.11-.36.55-.65.99-.87,1.32-.2.3-.31.44-.32.44-.01,0,.07-.17.25-.48.2-.35.47-.8.8-1.37.34-.61.8-1.34,1.4-2.17.58-.84,1.25-1.82,2.1-2.83,3.27-4.15,8.98-9.67,17.66-13.82,4.31-2.08,9.32-3.8,14.85-4.91,2.76-.61,5.66-.97,8.66-1.26,3.01-.15,6.13-.22,9.31.1,12.66,1.1,26.52,6.62,37.08,17.19l-.57-.05c1.63-1.1,3.37-2.3,5.24-3.31,13.61-7.7,29.28-9.31,42.41-6.5,6.61,1.34,12.59,3.88,17.71,6.97,5.14,3.08,9.44,6.71,12.9,10.43,6.99,7.44,10.66,15.02,12.62,20.3.54,1.32.86,2.54,1.19,3.58.34,1.04.55,1.94.7,2.67.15.69.27,1.24.36,1.66.08.37.11.57.09.57Z"/>
        <path class="st2" d="M766.89,410.67c-.13.1-1.01-1.15-2.87-2.67-.92-.77-2.13-1.54-3.54-2.25-1.43-.67-3.07-1.26-4.86-1.62-1.8-.33-3.54-.39-5.12-.3-1.57.14-2.98.4-4.12.78-2.29.72-3.57,1.56-3.66,1.41-.03-.05.26-.29.83-.68.56-.41,1.46-.88,2.62-1.32,1.16-.47,2.61-.81,4.26-1,1.64-.14,3.47-.1,5.35.24,1.87.38,3.59,1.01,5.06,1.76,1.45.78,2.68,1.64,3.58,2.5.91.85,1.57,1.61,1.94,2.2.39.58.57.91.52.94Z"/>
        <path class="st2" d="M780.86,453.32c-.06.05-.76-.76-2.28-1.97-1.52-1.19-3.94-2.75-7.31-3.68-3.34-.93-7.72-1.18-12.1.52-4.34,1.63-8.65,5.13-10.99,10.11l-.3.64-.44-.55c-1.39-1.75-3.07-3.43-4.94-4.91-4.98-3.97-10.89-6.12-16.35-6.69-5.49-.54-10.49.49-14.37,2-3.9,1.52-6.73,3.46-8.57,4.91-1.83,1.47-2.73,2.43-2.79,2.36-.02-.02.19-.27.61-.73.41-.47,1.07-1.11,1.96-1.9,1.79-1.55,4.61-3.6,8.56-5.22,3.92-1.62,9.03-2.74,14.68-2.23,5.61.54,11.7,2.72,16.82,6.8,1.93,1.52,3.65,3.25,5.08,5.06l-.74.09c2.47-5.21,6.99-8.81,11.52-10.47,4.58-1.72,9.12-1.38,12.53-.35,3.45,1.04,5.87,2.72,7.35,4,.75.64,1.28,1.19,1.61,1.59.33.39.5.6.48.62Z"/>
        <path class="st2" d="M882.8,381.72s.12.46.27,1.35c.13.89.39,2.21.57,3.91.34,3.41.65,8.4.14,14.54-.5,6.13-1.87,13.37-4.4,21.11-1.28,3.86-2.81,7.85-4.68,11.86-1.83,4.03-3.98,8.08-6.39,12.1-9.66,16.13-21.55,28.59-31.09,36.3-4.76,3.89-8.96,6.59-11.97,8.25-1.52.8-2.7,1.41-3.55,1.75-.83.36-1.27.54-1.28.51s.4-.26,1.2-.67c.81-.39,1.97-1.05,3.45-1.89,2.94-1.74,7.06-4.5,11.74-8.44,9.39-7.79,21.14-20.24,30.73-36.27,2.39-4,4.54-8.02,6.36-12.01,1.87-3.97,3.4-7.93,4.7-11.75,2.55-7.66,3.97-14.83,4.55-20.9.59-6.08.38-11.04.15-14.45-.13-1.7-.33-3.02-.41-3.92-.09-.9-.12-1.37-.09-1.38Z"/>
        <path class="st2" d="M837.34,368.81s.43.7.97,2.06c.55,1.36,1.2,3.39,1.71,5.97,1.04,5.12,1.17,12.68-1.66,20.28-2.84,7.6-7.9,13.22-12.04,16.4-2.08,1.61-3.9,2.72-5.21,3.38-1.3.67-2.06.96-2.08.91-.09-.16,2.9-1.48,6.9-4.79,3.98-3.26,8.84-8.81,11.61-16.22,2.77-7.41,2.75-14.79,1.88-19.86-.85-5.12-2.24-8.08-2.07-8.14Z"/>
        <rect class="st8" x="443.38" y="262.12" width="163.84" height="119.64"/>
        <g>
          <g>
            <path class="st11" d="M787.8,306.62c1.98,7.71,5.54,15,10.35,21.34,3.14,4.15,9.77,1.82,9.7-3.38v-.14c5.45,8.1,11.43,15.85,17.88,23.17,4.13,4.68,11.83,1.68,11.68-4.55-.59-24.43-10.2-48.66-26.9-66.55l-22.72,30.11Z"/>
            <g class="st3">
              <path d="M796.85,310.54c.35,1.31.72,2.66,1.55,3.74.83,1.07,2.25,1.82,3.56,1.45,1.96-.55,2.78-3.2,4.76-3.65,2.1-.48,3.75,1.75,4.75,3.66,1.06,2.02,2.12,4.04,3.18,6.06.78,1.49,1.93,3.19,3.61,3.08,1.85-.12,2.72-2.35,2.94-4.19,1.05-8.54-2.43-17.51-8.97-23.1l-15.38,12.96Z"/>
            </g>
            <path class="st11" d="M846.09,370.06c-1.11,2.79.38,6.32,3.15,7.48,2.76,1.16,6.33-.26,7.54-3.01,1.21-2.74-.15-6.33-2.87-7.59-2.72-1.26-6.34.03-7.64,2.73"/>
          </g>
          <g>
            <path class="st13" d="M614.69,74.65c-6.94,5.56-5.34,33.72,6.79,73.2,11.95,38.87,31.97,65.15,31.97,65.15l103.27,129.06,34.01-27.21,19.71-15.77,34.01-27.21-93.72-117.11c-9.16-11.44-19.34-22.03-30.51-31.53-9.6-8.16-21.9-17.64-35.6-25.89-35.24-21.21-62.98-28.23-69.93-22.67"/>
            <g>
              <g>
                <g>
                  <path class="st11" d="M779.74,190.99c.08,0,.26,0,.54,0,31.58.04,61.42,14.47,81.15,39.13l12.38,15.47-47.79,3.24-46.28-57.83Z"/>
                  <path class="st2" d="M779.74,190.99s.09.1.24.29c.17.2.39.47.67.83.6.74,1.47,1.81,2.58,3.19,2.25,2.79,5.52,6.83,9.63,11.92,8.2,10.19,19.78,24.57,33.37,41.44l-.23-.1c13.41-.92,28.14-1.92,43.56-2.97,1.45-.1,2.89-.2,4.23-.29l-.21.48c-2.46-3.08-4.9-6.12-7.29-9.12-2.41-2.98-4.71-5.99-7.13-8.78-4.79-5.64-10.01-10.55-15.35-14.72-5.32-4.21-10.84-7.59-16.18-10.35-2.64-1.45-5.34-2.55-7.88-3.71-2.61-.99-5.08-2.04-7.53-2.76-9.72-3.19-17.96-4.37-23.63-4.84-2.84-.33-5.05-.29-6.55-.39-1.33-.06-1.95-.09-2.29-.11,0,0,.18-.02.58-.03.41,0,.97.01,1.71.02,1.5.06,3.72-.01,6.57.28,5.69.41,13.97,1.52,23.74,4.67,2.47.72,4.95,1.76,7.58,2.74,2.56,1.15,5.27,2.24,7.93,3.69,5.38,2.76,10.93,6.14,16.29,10.35,5.38,4.19,10.63,9.11,15.45,14.78,2.45,2.81,4.74,5.81,7.15,8.79,2.4,2.99,4.83,6.04,7.3,9.12l.35.44-.56.04c-1.34.09-2.78.19-4.23.29-15.42,1.04-30.15,2.03-43.56,2.93h-.14s-.09-.1-.09-.1c-13.54-17.03-25.09-31.55-33.27-41.83-4.04-5.1-7.25-9.15-9.46-11.94-1.08-1.37-1.92-2.42-2.5-3.16-.27-.34-.48-.61-.63-.81-.14-.18-.21-.27-.2-.27Z"/>
                </g>
                <g>
                  <path class="st11" d="M692.02,261.19c-.02.08-.06.25-.12.52-6.79,30.4.64,62.24,20.11,86.56l12.21,15.26,13.45-45.29-45.65-57.05Z"/>
                  <path class="st2" d="M692.02,261.19s.07.08.21.25c.16.19.37.45.64.78.58.72,1.42,1.75,2.5,3.09,2.21,2.74,5.41,6.7,9.44,11.69,8.13,10.1,19.61,24.35,33.06,41.06l.09.11-.04.14c-3.77,12.71-7.91,26.67-12.24,41.29-.41,1.37-.81,2.74-1.19,4.01l-.16.54-.35-.44c-2.43-3.04-4.83-6.04-7.19-9-2.35-2.97-4.74-5.82-6.91-8.79-4.41-5.87-8.01-11.99-10.88-18.07-2.9-6.07-4.95-12.15-6.44-17.92-.82-2.87-1.29-5.72-1.84-8.43-.37-2.74-.84-5.36-1-7.88-.92-10.09-.2-18.3.64-23.86.34-2.8.88-4.92,1.15-6.38.15-.71.27-1.25.35-1.65.1-.39.16-.55.16-.55-.06.33-.16.94-.39,2.22-.23,1.46-.74,3.59-1.04,6.39-.77,5.56-1.42,13.74-.45,23.79.17,2.52.65,5.12,1.03,7.85.56,2.69,1.04,5.53,1.86,8.38,1.5,5.74,3.56,11.78,6.46,17.81,2.87,6.04,6.46,12.12,10.85,17.95,2.16,2.94,4.56,5.8,6.91,8.77,2.37,2.95,4.77,5.95,7.2,8.99l-.51.1c.38-1.27.78-2.63,1.19-4.01,4.35-14.61,8.5-28.57,12.28-41.28l.05.25c-13.3-16.72-24.63-30.98-32.66-41.07-4.01-5.06-7.19-9.07-9.39-11.85-1.08-1.37-1.92-2.43-2.51-3.17-.28-.35-.49-.62-.65-.83-.15-.19-.22-.29-.22-.3Z"/>
                </g>
                <path class="st11" d="M614.69,74.65c-5.53,4.09-5.63,22.12.14,48.24l51.59-35.8c-24.44-11.76-44.63-17.69-51.73-12.44Z"/>
              </g>
              <g>
                <line class="st13" x1="740.36" y1="321.6" x2="826.79" y2="251.61"/>
                <path class="st2" d="M826.79,251.61c.1.13-19.16,15.9-43.03,35.23-23.87,19.33-43.3,34.9-43.4,34.77s19.16-15.9,43.03-35.23c23.86-19.33,43.3-34.89,43.4-34.77Z"/>
              </g>
              <g>
                <line class="st13" x1="743.1" y1="325.83" x2="829.53" y2="255.83"/>
                <path class="st2" d="M829.53,255.83c.1.13-19.16,15.9-43.03,35.23-23.87,19.33-43.3,34.9-43.4,34.77-.1-.13,19.16-15.9,43.03-35.23,23.86-19.33,43.3-34.89,43.4-34.77Z"/>
              </g>
              <g>
                <line class="st13" x1="746.47" y1="329.9" x2="832.9" y2="259.9"/>
                <path class="st2" d="M832.9,259.9c.1.13-19.16,15.9-43.03,35.23-23.87,19.33-43.3,34.9-43.4,34.77-.1-.13,19.16-15.9,43.03-35.23,23.86-19.33,43.3-34.89,43.4-34.77Z"/>
              </g>
              <g>
                <line class="st13" x1="749.84" y1="333.97" x2="836.28" y2="263.98"/>
                <path class="st2" d="M836.28,263.98c.1.13-19.16,15.9-43.03,35.23-23.87,19.33-43.3,34.9-43.4,34.77-.1-.13,19.16-15.9,43.03-35.23,23.86-19.33,43.3-34.89,43.4-34.77Z"/>
              </g>
              <g>
                <line class="st13" x1="753.22" y1="338.05" x2="839.65" y2="268.05"/>
                <path class="st2" d="M839.65,268.05c.1.13-19.16,15.9-43.03,35.23-23.87,19.33-43.3,34.9-43.4,34.77-.1-.13,19.16-15.9,43.03-35.23,23.86-19.33,43.3-34.89,43.4-34.77Z"/>
              </g>
              <path class="st2" d="M736.13,226.05s.21.16.58.52c.39.35.86.94,1.51,1.67,1.27,1.47,3.07,3.64,5.26,6.34,4.39,5.4,10.36,12.92,16.91,21.27,6.55,8.35,12.43,15.95,16.67,21.46,2.07,2.73,3.77,4.95,4.99,6.55.55.74.99,1.34,1.33,1.8.3.42.45.64.43.65s-.2-.19-.53-.58c-.36-.44-.83-1.02-1.42-1.73-1.26-1.57-3-3.76-5.13-6.44-4.34-5.51-10.26-13.04-16.8-21.36-6.53-8.32-12.44-15.85-16.77-21.37-2.13-2.68-3.86-4.87-5.11-6.45-.62-.75-1.07-1.37-1.41-1.73-.33-.38-.51-.59-.5-.61Z"/>
              <path class="st2" d="M779.74,190.99c.1.13-19.28,15.83-43.27,35.06-24.01,19.24-43.55,34.73-43.65,34.6-.1-.13,19.27-15.82,43.28-35.06,24-19.23,43.54-34.73,43.64-34.6Z"/>
              <path class="st2" d="M777.21,262.98s-.02-.32.23-.81c.24-.49.78-1.15,1.69-1.57.88-.43,2.27-.55,3.4.27,1.1.76,1.9,2.28,1.55,3.87-.4,1.58-1.8,2.57-3.12,2.76-1.38.23-2.57-.51-3.16-1.28-.63-.79-.81-1.62-.8-2.16,0-.55.13-.84.16-.83.05,0,0,.3.07.81.07.5.3,1.24.89,1.91.58.67,1.61,1.24,2.76,1.02,1.12-.18,2.32-1.08,2.63-2.36.3-1.29-.37-2.62-1.29-3.29-.93-.71-2.1-.67-2.92-.33-.84.33-1.37.89-1.66,1.31-.29.42-.38.71-.43.69Z"/>
              <path class="st2" d="M757.72,237.67s-.02-.32.23-.81c.24-.49.78-1.15,1.69-1.57.88-.43,2.27-.55,3.4.27,1.1.76,1.9,2.28,1.55,3.87-.4,1.58-1.8,2.57-3.12,2.76-1.38.23-2.57-.51-3.16-1.28-.63-.79-.81-1.62-.8-2.16,0-.55.13-.84.16-.83.05,0,0,.3.07.81.07.5.3,1.24.89,1.91.58.67,1.61,1.24,2.76,1.02,1.12-.18,2.32-1.08,2.63-2.36.3-1.29-.37-2.63-1.29-3.29-.93-.71-2.1-.67-2.92-.33-.84.33-1.37.89-1.66,1.31-.29.42-.38.71-.43.69Z"/>
              <path class="st2" d="M713.19,209.6s-.02-.32.23-.81c.24-.49.78-1.15,1.69-1.57.88-.43,2.27-.55,3.4.27,1.1.76,1.9,2.28,1.55,3.87-.4,1.58-1.8,2.57-3.12,2.76-1.38.23-2.57-.51-3.16-1.28-.63-.79-.81-1.62-.8-2.16,0-.55.13-.84.16-.83.05,0,0,.3.07.81.06.5.3,1.24.89,1.91.58.67,1.61,1.24,2.76,1.02,1.12-.18,2.32-1.08,2.63-2.36.3-1.29-.37-2.62-1.29-3.29-.93-.71-2.1-.67-2.92-.33-.84.33-1.37.89-1.66,1.31-.29.42-.38.71-.43.69Z"/>
              <path class="st2" d="M693.38,197.06c.14-.09,7.66,8.12,16.81,18.35,9.15,10.23,16.45,18.6,16.31,18.69-.14.09-7.66-8.12-16.81-18.35-9.14-10.23-16.45-18.6-16.31-18.69Z"/>
              <g class="st3">
                <path d="M736.47,316.74s-29.11-38.14-44.45-55.55c3.39,11.66,7.37,24.92,14.14,34.99,6.84,10.17,18.33,17.94,30.31,20.56Z"/>
              </g>
            </g>
            <g>
              <circle class="st5" cx="685.57" cy="164.55" r="33.65" transform="translate(157.34 631.52) rotate(-54.97)"/>
              <path class="st2" d="M716.79,177.11s.03-.19.14-.53c.12-.39.28-.89.48-1.53.23-.66.49-1.49.68-2.5.22-1,.51-2.15.62-3.48.41-2.63.41-5.92-.16-9.64-.59-3.71-1.92-7.88-4.37-11.94-2.45-4.03-5.97-8.04-10.7-10.98-4.71-2.9-10.49-5.04-16.75-5.15-3.12-.15-6.33.23-9.49,1.07-1.6.36-3.13.99-4.69,1.57-1.5.73-3.04,1.42-4.46,2.36-5.82,3.52-10.57,9.14-13.32,15.8-2.63,6.71-3.1,14.06-1.34,20.63.37,1.66,1.01,3.22,1.58,4.79.73,1.5,1.39,3.02,2.3,4.38,1.69,2.79,3.75,5.29,6.11,7.34,4.6,4.26,10.25,6.71,15.66,7.89,5.46,1.15,10.77.7,15.33-.51,4.58-1.23,8.42-3.32,11.42-5.58,2.99-2.29,5.27-4.66,6.79-6.84.84-1.04,1.43-2.07,1.96-2.94.56-.86.95-1.64,1.24-2.28.29-.59.53-1.07.71-1.43.16-.32.26-.48.27-.48s-.05.18-.19.51c-.16.38-.37.86-.63,1.47-.27.65-.63,1.45-1.18,2.33-.51.9-1.08,1.95-1.91,3.01-1.5,2.23-3.77,4.67-6.77,7.03-3.02,2.34-6.9,4.5-11.55,5.79-4.63,1.28-10.05,1.77-15.64.63-5.53-1.16-11.32-3.65-16.06-8-2.42-2.1-4.54-4.65-6.29-7.51-.93-1.4-1.62-2.95-2.37-4.49-.59-1.6-1.25-3.21-1.63-4.91-.84-3.37-1.31-6.94-1.02-10.53.24-3.59,1.05-7.19,2.38-10.64,2.82-6.83,7.71-12.61,13.68-16.21,1.46-.96,3.04-1.67,4.58-2.41,1.61-.59,3.17-1.23,4.82-1.6,3.24-.85,6.54-1.23,9.73-1.06,6.42.15,12.32,2.36,17.12,5.35,4.82,3.04,8.39,7.15,10.85,11.28,2.46,4.16,3.77,8.4,4.32,12.18.54,3.78.48,7.12.02,9.76-.14,1.34-.46,2.49-.71,3.49-.22,1.01-.5,1.84-.77,2.5-.23.62-.42,1.12-.56,1.5-.13.34-.21.51-.22.5Z"/>
            </g>
          </g>
          <path class="st2" d="M614.69,74.65s.1-.09.31-.24c.21-.17.54-.37,1.01-.6.94-.45,2.46-.88,4.49-1.02,4.07-.29,10.11.53,17.56,2.71,7.46,2.16,16.36,5.63,26.33,10.5,9.95,4.89,21.05,11.06,32.65,19.01,5.79,3.98,11.7,8.4,17.69,13.24,5.99,4.84,12.06,10.11,17.98,15.97,5.92,5.85,11.76,12.23,17.37,19.16,5.57,6.94,11.31,14.1,17.21,21.46,23.58,29.44,49.72,62.08,77.49,96.75l.27.34-.34.27c-14.08,11.27-28.83,23.07-43.85,35.1-15.03,12.02-29.79,23.83-43.87,35.1l-.34.27-.27-.34c-27.75-34.71-53.86-67.37-77.42-96.84-5.89-7.37-11.61-14.54-17.17-21.49-2.78-3.48-5.51-6.9-8.2-10.26-2.63-3.45-4.93-7-7.15-10.53-8.79-14.16-15.4-28.2-20.44-41.32-4.9-13.18-8.26-25.42-10.77-36.21-2.49-10.81-3.96-20.24-4.52-27.98-.57-7.74-.17-13.81.94-17.74.55-1.96,1.29-3.36,1.93-4.18.32-.41.59-.7.8-.86.2-.18.3-.25.3-.25.04.04-.44.32-1.04,1.17-.61.83-1.32,2.22-1.84,4.18-1.05,3.91-1.41,9.96-.79,17.68.6,7.72,2.13,17.12,4.65,27.9,2.55,10.77,5.95,22.98,10.87,36.11,5.06,13.07,11.68,27.06,20.48,41.16,2.21,3.51,4.52,7.07,7.13,10.46,2.69,3.36,5.43,6.78,8.21,10.25,5.56,6.94,11.3,14.1,17.2,21.46,23.58,29.45,49.72,62.08,77.5,96.77l-.62-.07c14.08-11.27,28.84-23.08,43.86-35.11,15.02-12.02,29.78-23.82,43.86-35.09l-.07.62c-27.74-34.7-53.85-67.35-77.41-96.81-5.89-7.36-11.62-14.53-17.17-21.48-5.58-6.91-11.39-13.28-17.28-19.13-5.9-5.85-11.93-11.12-17.9-15.96-5.96-4.84-11.86-9.26-17.62-13.26-11.54-7.96-22.61-14.16-32.52-19.08-9.92-4.9-18.79-8.41-26.21-10.61-7.41-2.22-13.42-3.08-17.46-2.85-2.02.11-3.53.52-4.47.93-.95.41-1.33.8-1.36.76Z"/>
        </g>
      </g>
      <g>
        <text class="st10" transform="translate(102.91 237.18)"><tspan x="0" y="0">BEST PARTNER</tspan></text>
        <g>
          <g>
            <path class="st9" d="M125.15,201.95l-6.19,14.46c-.03.07-.11.12-.19.12h-3.76c-.14,0-.24-.14-.18-.27l10.33-23.8c.07-.16.29-.16.36,0l10.36,23.8c.06.13-.04.27-.18.27h-3.79c-.08,0-.16-.05-.19-.12l-6.2-14.46c-.07-.16-.3-.16-.37,0Z"/>
            <path class="st9" d="M106.53,206.92l6.19-14.46c.03-.07.11-.12.19-.12h3.76c.14,0,.24.14.18.27l-10.33,23.8c-.07.16-.29.16-.36,0l-10.36-23.8c-.06-.13.04-.27.18-.27h3.79c.08,0,.16.05.19.12l6.2,14.46c.07.16.3.16.37,0Z"/>
            <path class="st9" d="M141.92,214.59c-.96-.73-1.68-1.62-2.18-2.64-.56-1.12-.82-2.38-.82-3.73v-15.68c0-.11.09-.2.2-.2h3.44c.11,0,.2.09.2.2v15.68c0,1.45.53,2.57,1.52,3.33.92.73,2.28,1.16,3.73,1.16s2.77-.43,3.73-1.16c.99-.76,1.49-1.88,1.49-3.33v-15.68c0-.11.09-.2.2-.2h3.47c.11,0,.2.09.2.2v15.68c0,1.35-.3,2.61-.82,3.73-.53,1.02-1.25,1.91-2.18,2.64-1.62,1.25-3.76,1.95-6.07,1.95s-4.46-.69-6.07-1.95Z"/>
            <path class="st9" d="M177.79,216.36l-6.17-9.04c-.08-.12-.25-.12-.33,0l-6.14,9.04c-.07.11-.19.17-.32.17h-4.19c-.16,0-.25-.17-.16-.3l8.52-12.53c.05-.07.05-.16,0-.23l-7.38-10.83c-.09-.13,0-.3.16-.3h4.19c.13,0,.25.06.32.17l5,7.35c.08.12.25.12.33,0l5.03-7.35c.07-.11.19-.17.32-.17h4.19c.16,0,.25.17.16.3l-7.41,10.83c-.05.07-.05.16,0,.23l8.55,12.53c.09.13,0,.3-.16.3h-4.19c-.13,0-.25-.06-.32-.17Z"/>
            <path class="st1" d="M195.82,192.34c-6.68,0-12.1,5.42-12.1,12.1s5.42,12.1,12.1,12.1,12.1-5.42,12.1-12.1-5.42-12.1-12.1-12.1ZM195.82,212.66c-4.54,0-8.23-3.68-8.23-8.23s3.68-8.23,8.23-8.23,8.23,3.68,8.23,8.23-3.68,8.23-8.23,8.23Z"/>
            <path class="st1" d="M224.01,192.34c-6.68,0-12.1,5.42-12.1,12.1s5.42,12.1,12.1,12.1,12.1-5.42,12.1-12.1-5.42-12.1-12.1-12.1ZM224.01,212.66c-4.54,0-8.23-3.68-8.23-8.23s3.68-8.23,8.23-8.23,8.23,3.68,8.23,8.23-3.68,8.23-8.23,8.23Z"/>
          </g>
          <g>
            <path class="st12" d="M78.99,211.7l-7.39-7.26,7.39-7.26,6.94,6.82c.25.24.25.64,0,.88l-6.94,6.82Z"/>
            <polygon class="st1" points="75.29 208.07 71.6 204.44 75.29 200.81 78.99 204.44 75.29 208.07"/>
            <path class="st7" d="M82.68,208.07l3.25-3.19c.25-.24.25-.64,0-.88l-3.25-3.19-3.69,3.63,3.69,3.63Z"/>
            <path class="st12" d="M59.37,211.7l7.39-7.26-7.39-7.26-6.94,6.82c-.25.24-.25.64,0,.88l6.94,6.82Z"/>
            <polygon class="st1" points="63.06 208.07 66.76 204.44 63.06 200.81 59.37 204.44 63.06 208.07"/>
            <path class="st7" d="M55.67,208.07l-3.25-3.19c-.25-.24-.25-.64,0-.88l3.25-3.19,3.69,3.63-3.69,3.63Z"/>
            <path class="st12" d="M76.44,214.25l-7.26-7.39-7.26,7.39,6.82,6.94c.24.25.64.25.88,0l6.82-6.94Z"/>
            <polygon class="st1" points="72.81 210.55 69.18 206.86 65.55 210.55 69.18 214.25 72.81 210.55"/>
            <path class="st7" d="M72.81,217.94l-3.19,3.25c-.24.25-.64.25-.88,0l-3.19-3.25,3.63-3.69,3.63,3.69Z"/>
            <path class="st15" d="M61.92,194.63l7.26,7.39,7.26-7.39-6.82-6.94c-.24-.25-.64-.25-.88,0l-6.82,6.94Z"/>
            <polygon class="st14" points="65.55 198.32 69.18 202.02 72.81 198.32 69.18 194.63 65.55 198.32"/>
            <path class="st6" d="M65.55,190.93l3.19-3.25c.24-.25.64-.25.88,0l3.19,3.25-3.63,3.69-3.63-3.69Z"/>
          </g>
        </g>
      </g>
    </g>
    <g>
      <rect class="st11" x="51.38" y="410.03" width="556.24" height="67.55"/>
      <g>
        <path class="st5" d="M69.59,435.49v6.52h-7.23v-6.52h7.23ZM69.11,445.93v21.72h-6.26v-21.72h6.26Z"/>
        <path class="st5" d="M76.77,459.41v-32.16h10.27l13.53,26.96h1.45l-.88.79v-27.76h5.9v32.16h-10.31l-13.52-26.96h-1.5l.88-.79v27.76h-5.82Z"/>
        <path class="st5" d="M125.98,460.25c-2.11,0-3.98-.34-5.6-1.01-1.62-.68-2.98-1.59-4.1-2.75s-1.96-2.47-2.53-3.94c-.57-1.47-.86-3-.86-4.58v-.92c0-1.64.3-3.21.9-4.69.6-1.48,1.47-2.8,2.6-3.96,1.13-1.16,2.5-2.07,4.12-2.73,1.61-.66,3.44-.99,5.46-.99s3.85.33,5.46.99,2.99,1.57,4.12,2.73c1.13,1.16,1.99,2.48,2.58,3.96.59,1.48.88,3.05.88,4.69v.92c0,1.59-.29,3.11-.86,4.58-.57,1.47-1.42,2.78-2.53,3.94-1.12,1.16-2.48,2.08-4.1,2.75-1.62.67-3.47,1.01-5.55,1.01ZM125.98,455.01c1.5,0,2.76-.33,3.79-.99,1.03-.66,1.81-1.56,2.33-2.69s.79-2.42.79-3.86-.27-2.77-.81-3.9c-.54-1.13-1.34-2.03-2.38-2.69-1.04-.66-2.28-.99-3.72-.99s-2.68.33-3.72.99c-1.04.66-1.84,1.56-2.4,2.69-.56,1.13-.84,2.43-.84,3.9s.27,2.72.82,3.86c.54,1.13,1.33,2.03,2.36,2.69,1.03.66,2.29.99,3.79.99Z"/>
        <path class="st5" d="M153.08,460.16c-3.29,0-5.87-.7-7.73-2.09-1.87-1.39-2.84-3.33-2.93-5.79h5.51c.09.82.54,1.57,1.37,2.25.82.68,2.11,1.01,3.88,1.01,1.47,0,2.64-.26,3.5-.79.87-.53,1.3-1.25,1.3-2.16,0-.79-.33-1.42-.99-1.89-.66-.47-1.78-.78-3.37-.92l-2.11-.22c-2.67-.29-4.73-1.06-6.17-2.29-1.44-1.23-2.16-2.88-2.16-4.93,0-1.64.41-3.02,1.23-4.14.82-1.12,1.96-1.96,3.41-2.53,1.45-.57,3.12-.86,5-.86,2.94,0,5.32.65,7.14,1.94,1.82,1.29,2.78,3.19,2.86,5.68h-5.51c-.06-.82-.47-1.53-1.23-2.11-.76-.59-1.87-.88-3.3-.88-1.29,0-2.29.25-3,.75-.71.5-1.06,1.15-1.06,1.94s.29,1.35.86,1.76,1.5.69,2.8.84l2.11.22c2.82.29,5.03,1.07,6.63,2.33,1.6,1.26,2.4,2.97,2.4,5.11,0,1.59-.43,2.96-1.3,4.12-.87,1.16-2.08,2.06-3.63,2.71-1.56.65-3.39.97-5.51.97Z"/>
        <path class="st5" d="M180.08,460.25c-2.11,0-3.98-.34-5.6-1.01-1.62-.68-2.98-1.59-4.1-2.75s-1.96-2.47-2.53-3.94c-.57-1.47-.86-3-.86-4.58v-.92c0-1.64.3-3.21.9-4.69.6-1.48,1.47-2.8,2.6-3.96,1.13-1.16,2.5-2.07,4.12-2.73,1.61-.66,3.44-.99,5.46-.99s3.85.33,5.46.99,2.99,1.57,4.12,2.73c1.13,1.16,1.99,2.48,2.58,3.96.59,1.48.88,3.05.88,4.69v.92c0,1.59-.29,3.11-.86,4.58-.57,1.47-1.42,2.78-2.53,3.94-1.12,1.16-2.48,2.08-4.1,2.75-1.62.67-3.47,1.01-5.55,1.01ZM180.08,455.01c1.5,0,2.76-.33,3.79-.99,1.03-.66,1.81-1.56,2.33-2.69s.79-2.42.79-3.86-.27-2.77-.81-3.9c-.54-1.13-1.34-2.03-2.38-2.69-1.04-.66-2.28-.99-3.72-.99s-2.68.33-3.72.99c-1.04.66-1.84,1.56-2.4,2.69-.56,1.13-.84,2.43-.84,3.9s.27,2.72.82,3.86c.54,1.13,1.33,2.03,2.36,2.69,1.03.66,2.29.99,3.79.99Z"/>
        <path class="st5" d="M195.41,439.99v-4.49h16.92v4.49h-16.92ZM208.9,459.72c-2.2,0-4.02-.29-5.44-.86-1.43-.57-2.49-1.54-3.19-2.91-.71-1.37-1.06-3.21-1.06-5.53l.04-21.68h5.73l-.04,22.07c0,1.17.32,2.08.95,2.71.63.63,1.53.95,2.71.95h3.74v5.24h-3.44Z"/>
        <path class="st5" d="M217.49,459.41v-23.92h4.85v10.13h-.13c0-3.44.73-6.04,2.2-7.8,1.47-1.76,3.63-2.64,6.48-2.64h.88v5.33h-1.67c-2.06,0-3.65.55-4.78,1.65-1.13,1.1-1.7,2.7-1.7,4.78v12.47h-6.12Z"/>
        <path class="st5" d="M247.18,460.25c-2.11,0-3.98-.34-5.6-1.01-1.62-.68-2.98-1.59-4.1-2.75s-1.96-2.47-2.53-3.94c-.57-1.47-.86-3-.86-4.58v-.92c0-1.64.3-3.21.9-4.69.6-1.48,1.47-2.8,2.6-3.96,1.13-1.16,2.5-2.07,4.12-2.73,1.61-.66,3.44-.99,5.46-.99s3.85.33,5.46.99,2.99,1.57,4.12,2.73c1.13,1.16,1.99,2.48,2.58,3.96.59,1.48.88,3.05.88,4.69v.92c0,1.59-.29,3.11-.86,4.58-.57,1.47-1.42,2.78-2.53,3.94-1.12,1.16-2.48,2.08-4.1,2.75-1.62.67-3.47,1.01-5.55,1.01ZM247.18,455.01c1.5,0,2.76-.33,3.79-.99,1.03-.66,1.81-1.56,2.33-2.69s.79-2.42.79-3.86-.27-2.77-.81-3.9c-.54-1.13-1.34-2.03-2.38-2.69-1.04-.66-2.28-.99-3.72-.99s-2.68.33-3.72.99c-1.04.66-1.84,1.56-2.4,2.69-.56,1.13-.84,2.43-.84,3.9s.27,2.72.82,3.86c.54,1.13,1.33,2.03,2.36,2.69,1.03.66,2.29.99,3.79.99Z"/>
        <path class="st5" d="M274.27,460.16c-3.29,0-5.87-.7-7.73-2.09-1.87-1.39-2.84-3.33-2.93-5.79h5.51c.09.82.54,1.57,1.37,2.25.82.68,2.11,1.01,3.88,1.01,1.47,0,2.64-.26,3.5-.79.87-.53,1.3-1.25,1.3-2.16,0-.79-.33-1.42-.99-1.89-.66-.47-1.78-.78-3.37-.92l-2.11-.22c-2.67-.29-4.73-1.06-6.17-2.29-1.44-1.23-2.16-2.88-2.16-4.93,0-1.64.41-3.02,1.23-4.14.82-1.12,1.96-1.96,3.41-2.53,1.45-.57,3.12-.86,5-.86,2.94,0,5.32.65,7.14,1.94,1.82,1.29,2.78,3.19,2.86,5.68h-5.51c-.06-.82-.47-1.53-1.23-2.11-.76-.59-1.87-.88-3.3-.88-1.29,0-2.29.25-3,.75-.71.5-1.06,1.15-1.06,1.94s.29,1.35.86,1.76,1.5.69,2.8.84l2.11.22c2.82.29,5.03,1.07,6.63,2.33,1.6,1.26,2.4,2.97,2.4,5.11,0,1.59-.43,2.96-1.3,4.12-.87,1.16-2.08,2.06-3.63,2.71-1.56.65-3.39.97-5.51.97Z"/>
        <path class="st5" d="M296.21,439.99v-4.49h16.92v4.49h-16.92ZM309.7,459.72c-2.2,0-4.02-.29-5.44-.86-1.43-.57-2.49-1.54-3.19-2.91-.71-1.37-1.06-3.21-1.06-5.53l.04-21.68h5.73l-.04,22.07c0,1.17.32,2.08.95,2.71.63.63,1.53.95,2.71.95h3.74v5.24h-3.44Z"/>
        <path class="st5" d="M328.86,460.25c-2.06,0-3.85-.35-5.4-1.06-1.54-.7-2.82-1.65-3.83-2.84-1.01-1.19-1.78-2.52-2.29-3.99-.51-1.47-.77-2.97-.77-4.49v-.84c0-1.59.26-3.12.77-4.6.51-1.48,1.28-2.8,2.29-3.97,1.01-1.16,2.27-2.08,3.77-2.78,1.5-.69,3.23-1.04,5.2-1.04,2.58,0,4.75.57,6.5,1.7,1.75,1.13,3.06,2.61,3.94,4.45.88,1.84,1.32,3.81,1.32,5.93v2.2h-21.19v-3.75h17.36l-1.89,1.85c0-1.53-.22-2.83-.66-3.92-.44-1.09-1.11-1.92-2-2.51-.9-.59-2.02-.88-3.37-.88s-2.5.31-3.44.93c-.94.62-1.65,1.5-2.14,2.67-.48,1.16-.73,2.55-.73,4.16,0,1.5.23,2.83.71,3.99.47,1.16,1.19,2.07,2.16,2.73s2.2.99,3.7.99,2.72-.3,3.66-.9c.94-.6,1.54-1.34,1.81-2.22h5.64c-.35,1.65-1.03,3.08-2.03,4.32-1,1.23-2.27,2.19-3.81,2.86-1.54.67-3.3,1.01-5.26,1.01Z"/>
        <path class="st5" d="M361.77,460.03c-1.73,0-3.25-.31-4.56-.93-1.31-.62-2.32-1.5-3.04-2.64-.72-1.15-1.08-2.53-1.08-4.14,0-1.76.43-3.2,1.3-4.32.87-1.12,2.08-1.95,3.66-2.51,1.57-.56,3.41-.84,5.53-.84h5.55v3.66h-5.64c-1.41,0-2.49.35-3.24,1.04s-1.12,1.58-1.12,2.67.37,1.97,1.12,2.64,1.83,1.01,3.24,1.01c.85,0,1.64-.15,2.36-.46.72-.31,1.32-.84,1.81-1.59.48-.75.76-1.77.82-3.06l1.5,1.72c-.15,1.67-.55,3.08-1.21,4.23-.66,1.15-1.57,2.02-2.73,2.62-1.16.6-2.58.9-4.25.9ZM369.48,459.41v-7.09h-1.01v-7.89c0-1.38-.34-2.41-1.01-3.08-.68-.67-1.72-1.01-3.13-1.01-.73,0-1.62.01-2.64.04-1.03.03-2.06.07-3.11.11s-1.98.1-2.8.15v-5.2c.68-.06,1.44-.12,2.29-.18.85-.06,1.73-.1,2.62-.11s1.74-.02,2.53-.02c2.47,0,4.52.32,6.15.97,1.63.65,2.86,1.66,3.7,3.04.84,1.38,1.26,3.19,1.26,5.42v14.85h-4.85Z"/>
        <path class="st5" d="M385.25,458.89l-7.75-23.39h6.17l7.36,23.39h-5.77ZM379.88,468.84v-5.24h4.49c.85,0,1.56-.11,2.14-.33.57-.22,1.05-.57,1.43-1.06.38-.49.68-1.15.88-2l6.43-24.72h5.86l-7.09,26.04c-.47,1.79-1.13,3.22-1.98,4.3-.85,1.07-1.95,1.84-3.28,2.31-1.34.47-2.99.7-4.96.7h-3.92ZM387.32,458.89v-4.85h5.11v4.85h-5.11Z"/>
        <path class="st5" d="M413.49,460.16c-2.76,0-4.9-.91-6.41-2.73-1.51-1.82-2.27-4.52-2.27-8.11v-13.88h6.12v14.41c0,1.47.41,2.64,1.23,3.5.82.87,1.94,1.3,3.35,1.3s2.56-.46,3.46-1.37c.9-.91,1.34-2.14,1.34-3.7v-14.14h6.12v23.97h-4.85v-10.18h.48c0,2.41-.31,4.42-.92,6.04-.62,1.62-1.54,2.83-2.78,3.66-1.23.82-2.78,1.23-4.63,1.23h-.26Z"/>
        <path class="st5" d="M443.41,460.21c-1.67,0-3.22-.31-4.63-.92-1.41-.62-2.63-1.48-3.66-2.6-1.03-1.12-1.82-2.42-2.38-3.9-.56-1.48-.84-3.09-.84-4.82v-.92c0-1.7.27-3.3.81-4.8.54-1.5,1.31-2.8,2.29-3.92.98-1.12,2.17-1.99,3.57-2.62,1.39-.63,2.94-.95,4.65-.95,1.88,0,3.53.4,4.96,1.21,1.42.81,2.56,2.02,3.41,3.63.85,1.62,1.32,3.64,1.41,6.08l-1.81-2.12v-16.3h6.12v32.16h-4.85v-10.18h1.06c-.09,2.44-.59,4.47-1.5,6.1-.91,1.63-2.11,2.85-3.59,3.66-1.48.81-3.17,1.21-5.04,1.21ZM444.77,455.05c1.2,0,2.31-.27,3.3-.82,1-.54,1.8-1.34,2.4-2.38.6-1.04.9-2.27.9-3.68v-1.76c0-1.41-.31-2.59-.92-3.55-.62-.95-1.42-1.69-2.42-2.2-1-.51-2.09-.77-3.26-.77-1.32,0-2.49.32-3.5.95s-1.81,1.52-2.38,2.67-.86,2.48-.86,4.01.29,2.86.88,3.99c.59,1.13,1.39,2,2.4,2.62,1.01.62,2.17.93,3.46.93Z"/>
        <path class="st5" d="M471.07,460.03c-1.73,0-3.25-.31-4.56-.93-1.31-.62-2.32-1.5-3.04-2.64s-1.08-2.53-1.08-4.14c0-1.76.43-3.2,1.3-4.32.87-1.12,2.08-1.95,3.66-2.51,1.57-.56,3.42-.84,5.53-.84h5.55v3.66h-5.64c-1.41,0-2.49.35-3.24,1.04s-1.12,1.58-1.12,2.67.37,1.97,1.12,2.64,1.83,1.01,3.24,1.01c.85,0,1.64-.15,2.36-.46.72-.31,1.32-.84,1.81-1.59.48-.75.76-1.77.82-3.06l1.5,1.72c-.15,1.67-.55,3.08-1.21,4.23-.66,1.15-1.57,2.02-2.73,2.62-1.16.6-2.58.9-4.25.9ZM478.78,459.41v-7.09h-1.01v-7.89c0-1.38-.34-2.41-1.01-3.08-.68-.67-1.72-1.01-3.13-1.01-.73,0-1.62.01-2.64.04s-2.06.07-3.11.11c-1.04.04-1.98.1-2.8.15v-5.2c.68-.06,1.44-.12,2.29-.18.85-.06,1.72-.1,2.62-.11.9-.01,1.74-.02,2.53-.02,2.47,0,4.52.32,6.15.97,1.63.65,2.86,1.66,3.7,3.04s1.26,3.19,1.26,5.42v14.85h-4.85Z"/>
        <path class="st5" d="M490.19,459.41v-23.92h4.85v10.27h-.44c0-2.41.31-4.43.93-6.06.62-1.63,1.53-2.86,2.75-3.7s2.74-1.26,4.56-1.26h.26c1.85,0,3.38.42,4.6,1.26,1.22.84,2.13,2.07,2.73,3.7.6,1.63.9,3.65.9,6.06h-1.54c0-2.41.31-4.43.95-6.06.63-1.63,1.56-2.86,2.78-3.7,1.22-.84,2.74-1.26,4.56-1.26h.26c1.85,0,3.39.42,4.63,1.26,1.23.84,2.17,2.07,2.8,3.7.63,1.63.95,3.65.95,6.06v13.66h-6.12v-14.23c0-1.5-.38-2.69-1.15-3.59-.76-.9-1.85-1.34-3.26-1.34s-2.54.46-3.39,1.39c-.85.92-1.28,2.17-1.28,3.72v14.05h-6.12v-14.23c0-1.5-.38-2.69-1.15-3.59-.76-.9-1.85-1.34-3.26-1.34s-2.54.46-3.39,1.39c-.85.92-1.28,2.17-1.28,3.72v14.05h-6.12Z"/>
        <path class="st5" d="M544.78,460.25c-2.12,0-3.98-.34-5.6-1.01-1.62-.68-2.98-1.59-4.1-2.75-1.12-1.16-1.96-2.47-2.53-3.94-.57-1.47-.86-3-.86-4.58v-.92c0-1.64.3-3.21.9-4.69.6-1.48,1.47-2.8,2.6-3.96,1.13-1.16,2.5-2.07,4.12-2.73,1.61-.66,3.44-.99,5.46-.99s3.85.33,5.46.99c1.61.66,2.99,1.57,4.12,2.73,1.13,1.16,1.99,2.48,2.58,3.96.59,1.48.88,3.05.88,4.69v.92c0,1.59-.29,3.11-.86,4.58-.57,1.47-1.42,2.78-2.53,3.94-1.12,1.16-2.48,2.08-4.1,2.75-1.62.67-3.47,1.01-5.55,1.01ZM544.78,455.01c1.5,0,2.76-.33,3.79-.99,1.03-.66,1.81-1.56,2.33-2.69.53-1.13.79-2.42.79-3.86s-.27-2.77-.81-3.9c-.54-1.13-1.34-2.03-2.38-2.69-1.04-.66-2.28-.99-3.72-.99s-2.68.33-3.72.99c-1.04.66-1.84,1.56-2.4,2.69-.56,1.13-.84,2.43-.84,3.9s.27,2.72.81,3.86c.54,1.13,1.33,2.03,2.36,2.69,1.03.66,2.29.99,3.79.99Z"/>
        <path class="st5" d="M571.87,460.16c-3.29,0-5.87-.7-7.73-2.09s-2.84-3.33-2.93-5.79h5.51c.09.82.54,1.57,1.37,2.25.82.68,2.11,1.01,3.88,1.01,1.47,0,2.64-.26,3.5-.79s1.3-1.25,1.3-2.16c0-.79-.33-1.42-.99-1.89-.66-.47-1.78-.78-3.37-.92l-2.12-.22c-2.67-.29-4.73-1.06-6.17-2.29-1.44-1.23-2.16-2.88-2.16-4.93,0-1.64.41-3.02,1.23-4.14.82-1.12,1.96-1.96,3.41-2.53,1.45-.57,3.12-.86,5-.86,2.94,0,5.32.65,7.14,1.94,1.82,1.29,2.78,3.19,2.86,5.68h-5.51c-.06-.82-.47-1.53-1.23-2.11s-1.87-.88-3.3-.88c-1.29,0-2.29.25-3,.75-.71.5-1.06,1.15-1.06,1.94s.29,1.35.86,1.76c.57.41,1.5.69,2.8.84l2.11.22c2.82.29,5.03,1.07,6.63,2.33,1.6,1.26,2.4,2.97,2.4,5.11,0,1.59-.43,2.96-1.3,4.12s-2.08,2.06-3.63,2.71c-1.56.65-3.39.97-5.51.97Z"/>
        <path class="st5" d="M587.12,459.41v-6.52h7.23v6.52h-7.23ZM587.6,448.97v-21.72h6.26v21.72h-6.26Z"/>
      </g>
    </g>
  </g>
  <g>
    <path class="st4" d="M578.55,243.92c-9.66,0-17.49-7.83-17.49-17.49s7.83-17.49,17.49-17.49,17.49,7.83,17.49,17.49h0c0,9.66-7.83,17.49-17.49,17.49ZM578.55,236.69c5.67,0,10.26-4.59,10.26-10.26s-4.59-10.26-10.26-10.26-10.26,4.59-10.26,10.26,4.59,10.26,10.26,10.26ZM541.93,243.92c-9.66,0-17.49-7.83-17.49-17.49s7.83-17.49,17.49-17.49,17.49,7.83,17.49,17.49h0c0,9.66-7.83,17.49-17.49,17.49ZM541.93,236.69c5.67,0,10.26-4.59,10.26-10.26s-4.59-10.26-10.26-10.26-10.26,4.59-10.26,10.26,4.59,10.26,10.26,10.26ZM522.81,226.19c0,9.77-7.84,17.73-17.49,17.73s-17.49-7.93-17.49-17.7,7.11-17.28,17.49-17.28c3.83,0,7.37.82,10.26,2.94v-10.15c0-1.94,1.7-3.52,3.62-3.52s3.62,1.59,3.62,3.52v24.47ZM505.31,236.69c5.67,0,10.26-4.59,10.26-10.26s-4.59-10.26-10.26-10.26-10.26,4.59-10.26,10.26,4.59,10.26,10.26,10.26Z"/>
    <path class="st16" d="M468.69,243.92c-9.66,0-17.49-7.83-17.49-17.49s7.83-17.49,17.49-17.49,17.49,7.83,17.49,17.49h0c0,9.66-7.83,17.49-17.49,17.49ZM468.69,236.69c5.67,0,10.26-4.59,10.26-10.26s-4.59-10.26-10.26-10.26-10.26,4.59-10.26,10.26,4.59,10.26,10.26,10.26Z"/>
  </g>
</svg>