<?xml version="1.0" encoding="UTF-8"?>
<svg id="Capa_1" xmlns="http://www.w3.org/2000/svg" version="1.1" viewBox="0 0 900 735.82">
  <!-- Generator: Adobe Illustrator 30.2.1, SVG Export Plug-In . SVG Version: 2.1.1 Build 1)  -->
  <defs>
    <style>
      .st0 {
        fill: #dee1e2;
      }

      .st1 {
        fill: #263238;
      }

      .st2 {
        opacity: .3;
      }

      .st3 {
        fill: #c6ced3;
      }

      .st4 {
        fill: #fff;
      }

      .st5 {
        fill: #e0e0e0;
      }

      .st6 {
        fill: #455a64;
      }

      .st7 {
        fill: #ffbf9d;
      }

      .st8 {
        fill: #bd0043;
      }

      .st9 {
        fill: #ff9a6c;
      }

      .st10 {
        fill: #d5d9dc;
      }
    </style>
  </defs>
  <g>
    <g>
      <g>
        <rect class="st4" x="25.92" y="98.15" width="848.62" height="630.26"/>
        <path class="st1" d="M874.54,728.41c0-6.42-.31-248.72-.78-630.26l.78.78c-238.96.05-532.16.11-848.54.17h-.07l.95-.95c-.03,226.4-.06,440.9-.09,630.26l-.86-.86c502.47.51,841.04.85,848.62.86-7.57,0-346.14.35-848.62.86h-.86s0-.86,0-.86c-.03-189.36-.06-403.86-.09-630.26v-.95h1.02c316.39.06,609.59.12,848.54.17h.78v.78c-.47,381.53-.77,623.85-.78,630.26Z"/>
      </g>
      <path class="st5" d="M873.1,186.25c0,.52-188.1.95-420.09.95s-420.13-.42-420.13-.95,188.06-.95,420.13-.95,420.09.42,420.09.95Z"/>
      <path class="st5" d="M81.42,140.26c0,6.9-5.59,12.49-12.49,12.49s-12.49-5.59-12.49-12.49,5.59-12.49,12.49-12.49,12.49,5.59,12.49,12.49Z"/>
      <path class="st5" d="M119.05,140.26c0,6.9-5.59,12.49-12.49,12.49s-12.49-5.59-12.49-12.49,5.59-12.49,12.49-12.49,12.49,5.59,12.49,12.49Z"/>
      <path class="st5" d="M156.67,140.26c0,6.9-5.59,12.49-12.49,12.49s-12.49-5.59-12.49-12.49,5.59-12.49,12.49-12.49,12.49,5.59,12.49,12.49Z"/>
    </g>
    <g>
      <g>
        <path class="st1" d="M500.22,88.07c-2.84-10.26-8.41-20.32-17.6-25.68-4.36-2.55-9.32-3.91-13.76-6.33-5.35-2.92-9.77-7.26-14.78-10.73-12.32-8.54-28.39-11.44-42.92-7.77-14.53,3.68-27.28,13.88-34.06,27.25-10.35-7.89-28.29-4.56-40.53-.15-12.24,4.41-22.48,19-25.43,31.67l57.44,17.37c11.49,12.55,24.26,24.2,39.23,32.3,14.97,8.1,32.35,12.48,49.18,9.94,16.83-2.54,32.88-12.6,40.47-27.83,6.11-12.24,6.41-26.85,2.76-40.04Z"/>
        <path class="st1" d="M540.97,278.13c14.59-10.21,18.1-33.14,7.23-47.24-3.24-4.2-7.66-7.99-8.39-13.24-.45-3.23.62-6.44,1.39-9.61,5.17-21.05-3.41-44.81-20.83-57.71-.3-11.78-6.9-36.66-21.84-46.18l-67.86,9.54c3.09,71.46,2.88,143.07-.62,214.51-.54,10.95-.94,22.74,5.05,31.92,8.49,13.02,26.21,15.73,41.75,16.12,14.86.38,30.02-.26,44.05-5.17,14.03-4.92,26.94-14.64,32.82-28.3,9.05-21.03-.29-45.44-12.77-64.64Z"/>
        <path class="st7" d="M334.01,133.57l-2.05-15.21,89.55-27.94c27.89-6.23,61.66,18.55,66.71,46.67,5.6,31.25,11.21,69.62,10.18,93.53-2.07,48.08-37.57,58.26-37.57,58.26l3.63,28.51c3.68,28.85-16.72,55.22-45.57,58.91h0c-28.78,3.68-55.11-16.61-58.9-45.37l-25.98-197.34Z"/>
        <path class="st1" d="M482.08,172.44c.48,3.18-1.82,6.22-5.14,6.78-3.31.56-6.39-1.56-6.87-4.74-.48-3.18,1.82-6.22,5.13-6.78,3.32-.56,6.4,1.56,6.88,4.75Z"/>
        <path class="st1" d="M480.53,158.3c-.66.87-5.64-1.99-12.15-1.23-6.52.67-10.92,4.58-11.71,3.86-.39-.31.21-1.83,2.12-3.58,1.88-1.75,5.2-3.62,9.27-4.07,4.06-.44,7.65.66,9.79,1.96,2.18,1.31,3.02,2.66,2.7,3.05Z"/>
        <path class="st1" d="M421.24,180.72c.48,3.18-1.82,6.22-5.14,6.78-3.31.56-6.39-1.56-6.87-4.74-.48-3.18,1.82-6.22,5.13-6.78,3.32-.56,6.4,1.56,6.88,4.75Z"/>
        <path class="st1" d="M416.61,166.88c-.66.88-5.65-1.99-12.15-1.22-6.52.67-10.92,4.57-11.72,3.86-.39-.31.21-1.82,2.12-3.58,1.88-1.75,5.2-3.62,9.26-4.07,4.06-.45,7.65.66,9.79,1.96,2.18,1.31,3.02,2.66,2.7,3.05Z"/>
        <path class="st1" d="M445.82,212.49c-.07-.37,3.9-1.53,10.37-3.13,1.64-.36,3.18-.87,3.33-2.04.25-1.25-.65-2.96-1.68-4.8-2.03-3.85-4.15-7.88-6.38-12.11-8.91-17.26-15.56-31.52-14.87-31.87.7-.35,8.49,13.35,17.4,30.6,2.16,4.26,4.22,8.32,6.18,12.2.85,1.82,2.18,3.84,1.62,6.43-.31,1.29-1.42,2.34-2.46,2.75-1.03.45-1.96.57-2.78.72-6.57,1.12-10.66,1.62-10.73,1.25Z"/>
        <path class="st9" d="M460.82,289s-33.16,5.79-66.81-9.51c0,0,19.75,31.23,68.13,21.28l-1.32-11.78Z"/>
        <path class="st9" d="M444.87,228.51c-2.7-2.83-7-4.06-11.03-3.15-2.79.63-5.49,2.32-6.95,4.82-1.45,2.5-1.44,5.81.38,7.83,2.04,2.27,5.78,2.42,8.79,1.18,3.01-1.24,5.45-3.6,7.76-5.93.64-.65,1.29-1.32,1.64-2.14.35-.82.33-1.85-.29-2.42"/>
        <path class="st1" d="M427.16,219.2c1.05-.18,1.88,6.89,8.51,11.21,6.62,4.34,14.07,2.68,14.24,3.66.15.43-1.52,1.57-4.69,2.02-3.11.47-7.78-.01-11.84-2.66-4.05-2.65-6.11-6.58-6.68-9.45-.61-2.93-.02-4.77.47-4.78Z"/>
        <path class="st1" d="M415.36,141.15c-.44,1.85-7.04,1.75-14.58,3.55-7.58,1.65-13.48,4.6-14.68,3.12-.54-.71.34-2.5,2.64-4.5,2.27-2,6.03-4.08,10.56-5.12,4.53-1.03,8.82-.78,11.73.03,2.94.81,4.51,2.04,4.33,2.91Z"/>
        <path class="st1" d="M475.96,139.71c-.98,1.61-5.64.59-11.05,1.14-5.43.36-9.85,2.14-11.09.71-.55-.7,0-2.27,1.84-3.9,1.81-1.62,4.97-3.14,8.69-3.46,3.72-.31,7.09.66,9.14,1.96,2.08,1.3,2.89,2.75,2.46,3.54Z"/>
        <path class="st1" d="M344.17,86.15c-9.28,3.05-19.77,28.38-17.05,37.76,2.72,9.38,11.47,16.19,20.94,18.59,9.47,2.4,19.54.97,28.88-1.87,13.22-4.01,27.16-13.12,28.11-26.91,12.89,12.98,32.84,18.46,50.55,13.88,17.71-4.58,30.83-31.66,35.81-49.26l-147.24,7.8Z"/>
        <path class="st6" d="M435.82,180.97c-.21.01-.11-2.39-1.2-6.45-1.08-3.98-3.78-9.82-9.79-14.3-2.97-2.19-6.71-4.05-11-4.78-4.26-.71-9.06-.55-13.62,1.2-4.56,1.65-8.9,4.76-11.99,9.05-3.18,4.24-4.96,9.67-5.01,15.27.05,5.61,1.84,11.04,5.01,15.28,3.09,4.29,7.43,7.4,11.99,9.05,4.56,1.75,9.36,1.91,13.62,1.2,4.29-.73,8.02-2.59,11-4.78,6-4.49,8.71-10.32,9.79-14.3,1.09-4.06.98-6.46,1.2-6.45.07,0,.1.59.1,1.72.03,1.13-.11,2.81-.58,4.91-.88,4.15-3.49,10.33-9.69,15.19-3.07,2.37-6.98,4.41-11.52,5.26-4.51.82-9.62.72-14.51-1.1-4.89-1.72-9.56-5.01-12.89-9.59-3.42-4.52-5.36-10.37-5.41-16.38.05-6.01,1.99-11.85,5.41-16.37,3.33-4.58,8.01-7.88,12.89-9.59,4.89-1.82,10-1.93,14.51-1.1,4.54.85,8.45,2.88,11.52,5.26,6.2,4.86,8.8,11.04,9.69,15.19.47,2.1.61,3.78.58,4.91,0,1.13-.04,1.72-.1,1.72Z"/>
        <path class="st6" d="M502.88,168.89c-.21.01-.11-2.39-1.2-6.45-1.08-3.98-3.78-9.82-9.79-14.3-2.97-2.19-6.71-4.05-11-4.78-4.26-.71-9.06-.55-13.62,1.2-4.56,1.65-8.9,4.76-11.99,9.05-3.18,4.24-4.96,9.67-5.01,15.27.05,5.61,1.84,11.04,5.01,15.28,3.09,4.29,7.43,7.4,11.99,9.05,4.56,1.75,9.36,1.91,13.62,1.2,4.29-.73,8.02-2.59,11-4.78,6-4.49,8.71-10.32,9.79-14.3,1.09-4.06.98-6.46,1.2-6.45.07,0,.1.59.1,1.72.03,1.13-.11,2.81-.58,4.91-.88,4.15-3.49,10.33-9.69,15.19-3.07,2.37-6.98,4.41-11.52,5.26-4.51.82-9.62.72-14.51-1.1-4.89-1.72-9.56-5.01-12.89-9.6-3.42-4.52-5.36-10.37-5.41-16.38.05-6.01,1.99-11.85,5.41-16.37,3.33-4.58,8.01-7.88,12.89-9.59,4.89-1.82,10-1.93,14.51-1.1,4.54.85,8.45,2.88,11.52,5.26,6.2,4.86,8.8,11.04,9.69,15.19.47,2.1.61,3.78.58,4.91,0,1.13-.04,1.72-.1,1.72Z"/>
        <path class="st6" d="M431.82,166.23c-.23-.05-.26-1.29.63-3.04.86-1.72,2.83-3.88,5.78-4.81,2.96-.91,5.81-.25,7.49.67,1.73.93,2.4,1.97,2.24,2.14-.18.22-1.13-.4-2.77-.9-1.61-.52-4.01-.84-6.41-.1-2.4.75-4.19,2.38-5.22,3.72-1.05,1.34-1.48,2.39-1.76,2.32Z"/>
        <path class="st6" d="M381.34,187.3c.19.49-4.43,2.49-10.31,4.46-5.88,1.97-10.77,3.16-10.91,2.66-.15-.5,4.47-2.5,10.31-4.46,5.84-1.96,10.73-3.15,10.91-2.66Z"/>
      </g>
      <g>
        <path class="st7" d="M845.52,268.92c7.83-3.03,4.59-11.17,4.59-11.17l-29.11,8.77s15.45-6.26,23.37-12.74c7.92-6.48,3.97-12.11,3.97-12.11l-30,11.58-16.95,9.99-42.46,64.82s33.18,16.23,39.05,11.55c10.32-8.23,15.96-26.59,18.26-35.92,4.16-1.2,17.27-5.11,20.8-7.46,4.22-2.81,6.23-7.04,6.23-7.04l-23.12,4.4c3.35-.98,24.78-8.32,26.48-10.94,2.99-4.61,1.11-6.66,1.11-6.66l-29.04,4.53,2.99-2.18s16.26-6.48,23.81-9.4Z"/>
        <path class="st7" d="M738.59,336.4l-97.7,89.45c-12.13-2.8-160.89-91.72-160.89-91.72l-23.51,114.42s152.25,69.99,194.14,61.5c6.84-1.39,18.09-2.26,25.15-11.33,33.51-43.07,104.62-149.64,104.62-149.64l-41.81-12.68Z"/>
        <path class="st7" d="M804.97,331.91l-17.62-8.51,12.74-23.08,9.98-21.12,15.48-28.74-23.59,8.86c-2.79,1.19-5.23,3.06-7.12,5.44l-38.82,53.61-17.21,17.54,16.61,44.68,19.52-30.47,11.42-2.66c11.42-2.66,18.63-15.55,18.63-15.55Z"/>
        <g>
          <path class="st7" d="M776.62,295.61c8.11-4.06,16.59-7.38,25.31-9.89,2.85-.82,5.81-1.56,8.75-1.13,2.93.43,5.84,2.3,6.63,5.16.89,3.25-1.23,6.69-4.05,8.53-2.82,1.84-6.23,2.48-9.49,3.33-3.26.85-6.63,2.06-8.79,4.64-2.03,2.43-2.68,5.69-3.75,8.67-3.48,9.72-12.34,17.32-22.47,19.28"/>
          <path class="st9" d="M768.75,334.21c-.03-.15,1.56-.47,4.25-1.55,2.66-1.09,6.46-3.02,10.15-6.62,1.83-1.79,3.65-3.96,5.14-6.58,1.56-2.61,2.51-5.59,3.57-8.97.58-1.66,1.33-3.43,2.63-4.92,1.29-1.49,3.01-2.58,4.81-3.36,3.62-1.59,7.61-1.97,11.13-3.43,1.77-.72,3.33-1.72,4.46-3.1,1.14-1.36,1.84-3.05,1.76-4.67-.17-3.35-3.71-5.52-6.81-5.7-3.25-.26-6.41.78-9.35,1.59-2.94.86-5.66,1.73-8.12,2.59-4.92,1.72-8.83,3.33-11.52,4.47-2.69,1.14-4.18,1.78-4.24,1.67-.05-.1,1.34-.95,3.95-2.28,2.62-1.33,6.47-3.12,11.38-5,2.45-.94,5.17-1.89,8.12-2.81,2.93-.86,6.17-2.04,9.89-1.81,1.85.11,3.75.74,5.36,1.92,1.6,1.16,2.9,3.08,3.01,5.27.17,4.43-3.4,8.02-7.25,9.47-3.88,1.58-7.82,1.94-11.13,3.39-1.66.7-3.14,1.65-4.23,2.89-1.11,1.23-1.8,2.79-2.38,4.37-1.04,3.2-2.15,6.51-3.83,9.17-1.61,2.71-3.57,4.93-5.53,6.74-3.95,3.62-7.96,5.45-10.76,6.37-1.41.46-2.53.72-3.3.82-.77.12-1.17.15-1.19.09Z"/>
        </g>
      </g>
      <g>
        <path class="st1" d="M468.95,656.07h-200.23s-29.57,37.21-49.06,75.97l285.4,1.18c5.6-9.19-36.11-77.15-36.11-77.15Z"/>
        <path class="st6" d="M528.16,474c-6.78-89.64-29.02-145.96-29.02-145.96l-34.68-10.67h0c-5.24,22.91-42.58,30.48-63.83,20.45l-22.5-11.76c-72.18-10.83-68.45-4.84-85.13,5.19-14.5,8.71-13.17,73.74-13.17,73.74,0,0-35.98,169.43-34.02,196.61,1.96,27.18,22.91,54.46,22.91,54.46h200.23c20.16,0,25.92-45.59,24.51-62.13-1.4-16.54,36.92-90.47,34.69-119.93Z"/>
        <path class="st1" d="M338.01,530.44c-.08.1,1.08,1.16,3.36,2.84,2.28,1.67,5.75,3.89,10.36,6.04,4.6,2.16,10.4,4.12,17.09,5.13,6.68.94,14.25.89,21.85-.95,15.37-3.57,26.92-12.63,33.99-19.72,3.57-3.6,6.13-6.81,7.81-9.08,1.64-2.3,2.46-3.63,2.35-3.71-.3-.24-3.93,4.86-11.2,11.72-7.22,6.72-18.62,15.3-33.43,18.74-14.79,3.58-28.83.42-37.86-3.49-9.17-3.9-14.09-7.86-14.32-7.51Z"/>
        <g class="st2">
          <path d="M431.47,515.59c-1.52,15.12-8.75,29.8-20.57,39.35-11.82,9.55-28.24,13.52-42.85,9.34-14.61-4.18-26.73-16.81-29.26-31.79,10.3,4.69,20.76,9.43,31.95,11.13,23.85,3.61,49.32-8.42,61.7-29.12-.54.57-1.09,1.15-1.63,1.72"/>
        </g>
        <path class="st6" d="M202.91,469.88l100.9,47.31s41.13-91,44.67-103.43c3.53-12.44,14.64-32.13,3.26-58.07-11.38-25.94-41.87-35.47-58.75-24.41-37.76,24.73-90.08,138.61-90.08,138.61Z"/>
        <path class="st6" d="M520.19,474.68c4.71,0,58.81,28.3,58.81,28.3l30.8-102.03c-46-30.65-83.75-65.66-110.67-72.89l14.15,84.32,6.91,62.31Z"/>
        <path class="st1" d="M202.91,469.88c.03-.06.72.18,2,.71,1.48.63,3.32,1.41,5.59,2.37,5.06,2.25,11.97,5.31,20.39,9.05,17.36,7.92,40.93,18.66,66.97,30.53,2.8,1.29,5.57,2.57,8.17,3.77l-1.27.46c11.64-24,21.85-45.47,29.07-60.96,3.49-7.58,6.34-13.77,8.44-18.33.92-2,1.67-3.64,2.27-4.96.53-1.13.84-1.7.9-1.68.06.02-.13.65-.56,1.82-.43,1.17-1.06,2.9-1.96,5.1-1.76,4.41-4.45,10.76-7.9,18.59-6.92,15.65-16.92,37.23-28.53,61.27l-.41.85-.86-.4c-2.6-1.2-5.37-2.47-8.17-3.76-25.95-12.07-49.43-23-66.73-31.05-8.32-3.97-15.14-7.23-20.13-9.61-2.2-1.1-4-1.99-5.43-2.7-1.23-.64-1.87-1-1.84-1.06Z"/>
        <path class="st1" d="M510.91,390.9c.13-.03.85,2.21,2.09,6.28,1.34,4.36,3.13,10.18,5.31,17.23,4.37,14.5,10.74,34.96,11.04,58.5-.19,11.77-2.58,22.76-5.38,32.46-2.8,9.72-6.06,18.21-8.83,25.31-2.8,7.09-5.18,12.77-6.82,16.7-1.64,3.93-2.58,6.09-2.71,6.04-.06-.02.09-.6.43-1.66.44-1.27.96-2.8,1.59-4.64,1.58-4.28,3.69-9.99,6.25-16.91,2.6-7.14,5.71-15.65,8.4-25.31,2.68-9.64,4.98-20.49,5.16-32-.28-23.12-6.37-43.51-10.43-58.1-2.07-7.32-3.71-13.27-4.73-17.41-.53-2.06-.88-3.68-1.12-4.78-.23-1.1-.32-1.68-.26-1.7Z"/>
        <path class="st1" d="M425.6,370.57c-1.56-14.85-9.38-28.58-19.92-39.15-5.23-5.24-11.51-10.48-12.53-17.82-1.31-9.5,6.91-18.41,5.58-27.91-1.67-11.86-16.51-17.01-21.81-27.74-7.13-14.43,5.29-33.2-2.36-47.36-4.61-8.53-15.59-13.13-17.8-22.57-1.43-6.11,10.22-15.03,12.93-28.3,6.09-29.83,9.18-52.9-19.78-70.27l-16.92-23.19c-18.97,9.25-34.9,30.07-35.22,51.84-.15,10.28,5.11,20.6.64,29.86-6.25,12.92-20.8,20.88-25.2,34.54-6.29,19.55,11.03,41.43,3.47,60.52-4.46,11.26-16.21,17.69-23.59,27.29-11.56,15.05-10.37,38.45,2.66,52.25-18.44,12.42-26.97,37.76-19.79,58.8,3.02,8.85,9.85,17.62,19.18,18.14,13.37.74,20.99-14.39,30.77-23.52,15.21-14.2,41.85-13.5,56.29,1.47,10.29,10.67,14.44,26.73,26.43,35.45,12.07,8.78,29.99,7.19,41.59-2.2,11.6-9.4,16.94-25.27,15.38-40.11Z"/>
      </g>
      <g>
        <g>
          <path class="st7" d="M241.46,388.55"/>
          <path class="st7" d="M293.92,510.76c-19.11,31.4-32.44,49.46-32.44,49.46l171.37,104.37-19.97,46.38-222.26-91.48s-21.9-22.55-14.17-47.67l35.44-97.81,82.04,36.75Z"/>
        </g>
        <path class="st9" d="M219.79,576.16c.4.53,8.5-6.27,20.51-10.65,11.97-4.52,22.54-4.64,22.5-5.3.1-.5-10.83-1.34-23.23,3.32-12.44,4.55-20.18,12.32-19.78,12.63Z"/>
      </g>
      <path class="st7" d="M565.8,696.36l-42.74-20.45-83.41-6.62-6.8-4.72-19.97,46.38s21.87,10.45,33.32,11.39l70.13-2.13,36.67,3.85,12.81-27.71Z"/>
      <g>
        <g>
          <path class="st5" d="M806.25,531.72l-240.46,1.95c-7.8,0-15.25,3.75-16.42,11.46l-26.28,175.26h-123.86c-3.99,0-7.22,3.23-7.22,7.22s3.23,7.22,7.22,7.22h395.58l27.04-184.97c1.45-9.55-5.94-18.14-15.6-18.14Z"/>
          <path class="st1" d="M806.25,531.72s1.31-.17,3.79.36c2.41.56,6.2,2.05,9.19,6.09,1.49,1.98,2.62,4.62,2.97,7.68.39,3.1-.5,6.36-.88,9.89-1.01,7.08-2.17,15.24-3.47,24.41-5.29,36.74-12.92,89.7-22.3,154.8l-.09.64h-.64c-102.36.06-236.88.14-383.77.23h-10.33c-1.59.07-3.81-.02-5.46-1.04-1.71-.94-3.03-2.52-3.7-4.34-1.44-3.67.28-8.16,3.73-9.99,1.65-1,3.84-1.08,5.42-1.02h5.09c13.55,0,26.96,0,40.19,0,26.47,0,52.26.02,77.11.03l-.93.8c9.46-62.76,18.28-121.31,26.2-173.84.27-3.33,1.78-6.93,4.45-9.16,2.61-2.32,5.92-3.55,9.19-4.06,3.35-.51,6.53-.24,9.7-.34,3.17-.02,6.32-.04,9.44-.06,12.49-.08,24.56-.17,36.2-.24,23.27-.15,44.79-.28,64.34-.41,39.04-.2,70.16-.36,91.59-.47,10.65-.02,18.87-.03,24.5-.04,2.75.01,4.85.02,6.33.03,1.42.02,2.15.07,2.15.07,0,0-.73.06-2.15.1-1.48.03-3.58.07-6.33.13-5.63.08-13.85.2-24.5.35-21.43.24-52.55.58-91.59,1.02-19.54.19-41.06.41-64.34.64-11.64.11-23.72.23-36.2.35-3.12.03-6.27.06-9.44.09-3.16.11-6.42-.14-9.46.35-3.06.48-6.08,1.64-8.39,3.7-2.36,2.06-3.61,4.93-3.91,8.21-7.84,52.54-16.57,111.1-25.94,173.88l-.12.8h-.81c-24.85,0-50.63.02-77.11.03-13.24,0-26.64,0-40.19,0h-5.09c-1.79-.05-3.13.02-4.48.78-2.64,1.4-3.95,4.82-2.85,7.62.51,1.39,1.52,2.6,2.82,3.31,1.35.77,2.7.84,4.52.79,3.44,0,6.88,0,10.33,0,146.89.09,281.41.17,383.77.23l-.73.63c9.65-65.06,17.5-117.98,22.94-154.71,1.38-9.16,2.6-17.3,3.66-24.38.43-3.54,1.33-6.79.98-9.74-.31-2.95-1.37-5.53-2.79-7.48-2.85-3.98-6.53-5.51-8.89-6.13-2.43-.59-3.75-.47-3.74-.57Z"/>
        </g>
        <path class="st1" d="M532.83,733.22c.34.06,7.99-44.57,17.09-99.66,9.1-55.11,16.2-99.82,15.86-99.88-.34-.06-7.99,44.56-17.09,99.67-9.1,55.09-16.2,99.81-15.86,99.87Z"/>
      </g>
    </g>
  </g>
  <g>
    <path class="st8" d="M489.72,442.64l-12.22-11.84,12.06-12.01,11.48,11.13c.41.4.41,1.04,0,1.44l-11.33,11.28Z"/>
    <polygon class="st8" points="483.61 436.72 477.49 430.8 483.52 424.79 489.64 430.72 483.61 436.72"/>
    <path class="st8" d="M495.75,436.64l5.3-5.28c.4-.4.4-1.05,0-1.44l-5.37-5.21-6.03,6.01,6.11,5.92Z"/>
    <path class="st8" d="M457.48,442.86l12.06-12.01-12.22-11.84-11.33,11.28c-.4.4-.4,1.05,0,1.44l11.48,11.13Z"/>
    <polygon class="st8" points="463.51 436.86 469.54 430.85 463.43 424.93 457.4 430.94 463.51 436.86"/>
    <path class="st8" d="M451.37,436.94l-5.37-5.21c-.41-.4-.41-1.04,0-1.44l5.3-5.28,6.11,5.92-6.03,6.01Z"/>
    <path class="st8" d="M485.56,446.86l-12.01-12.06-11.84,12.22,11.28,11.33c.4.4,1.05.4,1.44,0l11.13-11.48Z"/>
    <polygon class="st8" points="479.55 440.83 473.55 434.8 467.62 440.91 473.63 446.94 479.55 440.83"/>
    <path class="st8" d="M479.63,452.97l-5.21,5.37c-.4.41-1.04.41-1.44,0l-5.28-5.3,5.92-6.11,6.01,6.03Z"/>
    <path class="st10" d="M461.48,414.79l12.01,12.06,11.84-12.22-11.28-11.33c-.4-.4-1.05-.4-1.44,0l-11.13,11.48Z"/>
    <polygon class="st3" points="467.49 420.82 473.49 426.85 479.41 420.74 473.41 414.71 467.49 420.82"/>
    <path class="st0" d="M467.4,408.68l5.21-5.37c.4-.41,1.04-.41,1.44,0l5.28,5.3-5.92,6.11-6.01-6.03Z"/>
  </g>
  <g>
    <path class="st6" d="M707.62,649.21l-16.48-15.97,16.26-16.2,15.49,15c.55.53.56,1.4.01,1.94l-15.28,15.22Z"/>
    <polygon class="st6" points="699.38 641.23 691.14 633.24 699.27 625.15 707.51 633.13 699.38 641.23"/>
    <path class="st6" d="M715.75,641.12l7.15-7.12c.54-.54.54-1.41-.01-1.94l-7.25-7.02-8.13,8.1,8.24,7.99Z"/>
    <path class="st6" d="M664.16,649.51l16.26-16.2-16.48-15.97-15.28,15.22c-.54.54-.54,1.41.01,1.94l15.49,15Z"/>
    <polygon class="st6" points="672.29 641.41 680.42 633.32 672.18 625.33 664.05 633.43 672.29 641.41"/>
    <path class="st6" d="M655.91,641.53l-7.25-7.02c-.55-.53-.56-1.4-.01-1.94l7.15-7.12,8.24,7.99-8.13,8.1Z"/>
    <path class="st6" d="M702.01,654.9l-16.2-16.26-15.97,16.48,15.22,15.28c.54.54,1.41.54,1.94-.01l15-15.49Z"/>
    <polygon class="st6" points="693.91 646.77 685.82 638.64 677.83 646.88 685.93 655.01 693.91 646.77"/>
    <path class="st6" d="M694.03,663.14l-7.02,7.25c-.53.55-1.4.56-1.94.01l-7.12-7.15,7.99-8.24,8.1,8.13Z"/>
    <path class="st6" d="M669.55,611.66l16.2,16.26,15.97-16.48-15.22-15.28c-.54-.54-1.41-.54-1.94.01l-15,15.49Z"/>
    <polygon class="st6" points="677.64 619.79 685.74 627.92 693.73 619.68 685.63 611.55 677.64 619.79"/>
    <path class="st6" d="M677.53,603.42l7.02-7.25c.53-.55,1.4-.56,1.94-.01l7.12,7.15-7.99,8.24-8.1-8.13Z"/>
  </g>
</svg>