<?xml version="1.0" encoding="UTF-8"?>
<svg id="Capa_1" xmlns="http://www.w3.org/2000/svg" version="1.1" viewBox="0 0 656.47 675.53">
  <!-- Generator: Adobe Illustrator 30.2.1, SVG Export Plug-In . SVG Version: 2.1.1 Build 1)  -->
  <defs>
    <style>
      .st0 {
        fill: #fafafa;
      }

      .st1 {
        fill: #bf654e;
      }

      .st2 {
        fill: #263238;
      }

      .st3 {
        fill: #fff;
      }

      .st4 {
        fill: #455a64;
      }

      .st5 {
        fill: #c78976;
      }

      .st6 {
        fill: #bd0043;
      }

      .st7 {
        opacity: .2;
      }
    </style>
  </defs>
  <g>
    <polyline class="st0" points="266.81 279.29 311.67 473.08 295.03 659.01 141.23 659.01 136.02 561.09 136.02 278.4 167.68 265.44 243.07 271.92"/>
    <g>
      <path class="st5" d="M479.9,392.44l70.29-142.87,8.03-24.53s21.32-54.19,22.71-59.66c1.6-6.32,5.03-7.06,7.32-6.32,3.57,1.17,5,6.29,3.79,11.75-.42,1.89-8.2,31.42-8.2,31.42,0,0,1.98-2.1,7.77-6.53,5.79-4.42,16.87-4.97,27.33-1.94,10.46,3.03,13.12,4.8,12.13,8.92-.4,1.65-1.66,2.74-3.08,3.45-2.33,1.17-5.05,1.31-7.56.62-16.82-4.62-23.67,3.25-23.67,3.25l-1.05,3.21s12.14-4.71,19.52.47c1.2.84,2.08,1.82,2.75,2.84,4.48,1.19,8.26,4.76,9.61,9.2,1.41,4.61.15,9.95-3.19,13.44-1.59,1.67-4.08,2.96-6.15,1.96-1.1-.53-1.82-1.58-2.53-2.58-.37-.52-.77-1.05-1.22-1.5l-4.2,8.58s-10.47,18.77-14.1,27.45l-45.4,147.51c-6.29,20.45-28.14,31.77-48.47,25.11h0c-22.12-7.24-32.71-32.38-22.44-53.26Z"/>
      <g>
        <path class="st5" d="M555.58,248.77c2.88,1.64,6.64.18,9.02-2.14,2.37-2.32,3.89-5.37,6.09-7.85,6.58-7.42,18.26-8.79,24.48-16.52.87-1.08,1.6-2.68.73-3.76-.81-1-2.36-.77-3.6-.44-10.6,2.77-21.19,5.55-31.79,8.32"/>
        <path class="st1" d="M560.51,226.38c-.03-.12,1.16-.56,3.35-1.25,2.19-.69,5.36-1.62,9.3-2.74,4.1-1.13,8.77-2.42,13.85-3.83,1.31-.35,2.65-.71,4.01-1.08,1.3-.25,2.88-1.14,4.92-.13.99.55,1.44,1.89,1.23,2.86-.17.98-.61,1.75-1.12,2.45-1.04,1.27-2.14,2.42-3.43,3.42-5.14,4.03-10.91,5.91-15.45,8.65-2.29,1.33-4.3,2.83-5.86,4.54-1.56,1.7-2.75,3.61-4.03,5.25-2.43,3.43-5.82,5.26-8.24,5.3-2.47.1-3.55-1-3.47-1.02.06-.18,1.21.61,3.39.3,2.19-.29,5.04-1.99,7.25-5.36,1.17-1.63,2.3-3.59,3.94-5.5,1.64-1.9,3.77-3.55,6.13-4.98,4.68-2.92,10.43-4.88,15.16-8.63,1.18-.91,2.22-2,3.11-3.08.84-1.08,1.08-2.33.41-2.63-.68-.44-2.14-.06-3.5.31-1.37.35-2.71.69-4.03,1.02-5.13,1.26-9.82,2.42-13.96,3.44-3.98.95-7.21,1.69-9.45,2.17-2.24.47-3.5.67-3.53.55Z"/>
      </g>
      <path class="st1" d="M595.27,213.27c.22.11.49-2.61,3.39-5.2,1.43-1.26,3.56-2.22,6.1-2.42,2.53-.23,5.35.2,8.29.89,2.94.67,5.82,1.36,8.54,1.4,2.7.03,5.17-.45,7-1.52,1.87-1.05,2.68-2.82,2.78-3.95.12-1.16-.1-1.77-.14-1.77-.12,0-.07.63-.32,1.68-.25,1.03-1.03,2.44-2.73,3.29-1.67.86-4.01,1.25-6.55,1.15-2.56-.1-5.34-.79-8.31-1.47-2.96-.69-5.94-1.13-8.66-.81-2.72.27-5.09,1.43-6.56,2.9-1.5,1.45-2.23,3.01-2.56,4.09-.33,1.1-.32,1.73-.25,1.74Z"/>
      <path class="st1" d="M592.47,168.7c-.17-.03-.72,2.22-1.59,5.86-.98,4.05-2.16,8.87-3.46,14.2-1.38,5.31-2.62,10.11-3.67,14.14-.96,3.62-1.54,5.86-1.37,5.91.15.05,1.03-2.1,2.2-5.67,1.17-3.56,2.62-8.54,4.02-14.09,1.39-5.55,2.47-10.62,3.12-14.32.66-3.69.91-6.01.75-6.03Z"/>
      <path class="st1" d="M600.25,221.64c.02.09.7-.05,1.89-.23,1.14-.15,3.06-.37,4.6.94.75.63,1.08,1.67.9,2.85-.14,1.18-.71,2.39-1.25,3.75-.53,1.33-1.09,3.05-.48,4.81.62,1.7,2.13,2.99,3.91,3.49,1.82.51,3.71.05,5.14-.82,1.45-.9,2.58-2.1,3.23-3.56,1.16-2.79,1.57-5.39,1.81-7.6.2-2.21.07-4.04-.26-5.25-.34-1.22-.79-1.78-.84-1.75-.1.05.2.66.38,1.84.18,1.18.17,2.93-.13,5.06-.33,2.11-.85,4.69-1.97,7.23-1.11,2.32-4.11,4.48-7.04,3.69-1.43-.39-2.65-1.45-3.12-2.72-.47-1.28-.1-2.7.4-4.01.49-1.32,1.08-2.65,1.21-4.05.19-1.37-.34-2.87-1.35-3.61-2.01-1.51-4.12-1.02-5.25-.75-1.2.33-1.81.62-1.8.69Z"/>
      <path class="st1" d="M614.7,235.41c-.05-.02-.38.56-.26,1.71.12,1.1.8,2.84,2.66,3.91,1.82,1.05,4.62,1.1,6.99-.35,2.37-1.43,4.11-4.07,4.87-7.05.77-3,.48-6.06-.52-8.54-.98-2.5-2.63-4.36-4.2-5.58-1.58-1.23-3.09-1.86-4.15-2.17-1.06-.3-1.68-.33-1.69-.26-.09.22,2.42.61,5.3,3.09,1.4,1.23,2.86,3.01,3.7,5.32.86,2.29,1.08,5.1.38,7.84-.7,2.73-2.27,5.12-4.29,6.4-2.01,1.3-4.42,1.34-6,.54-1.61-.81-2.36-2.26-2.59-3.24-.24-1.01-.1-1.61-.2-1.63Z"/>
      <path class="st1" d="M589.29,249.99c.03-.1-.97-.59-2.84-.68-1.83-.09-4.58.34-7.11,2.16l.92.54c.19-1.27.32-2.66.35-4.11.23-8.05-2.7-14.08-2.95-13.9-.36.1,1.97,6.12,1.74,13.87-.03,1.4-.14,2.74-.29,3.98l-.16,1.37,1.09-.82c2.23-1.69,4.71-2.25,6.42-2.36,1.74-.11,2.79.11,2.83-.05Z"/>
      <path class="st1" d="M602.68,199.78c-.31.07.29,2.48,2.6,4.25,2.3,1.8,4.79,1.77,4.77,1.45.05-.35-2.04-.83-4.03-2.41-2.02-1.53-3.02-3.43-3.34-3.3Z"/>
    </g>
    <g>
      <path class="st2" d="M118.44,166.65c-3.69-6.47-9.36-12.03-16.41-14.44-7.05-2.41-15.49-1.25-20.9,3.86-5.42,5.11-6.89,14.28-2.49,20.29-9.63-1.59-19.99,4.08-23.83,13.05-3.85,8.97-.82,20.38,6.97,26.26,7.79,5.88,19.6,5.67,27.17-.49,1.28,5.43,5.52,10.07,10.82,11.83,5.3,1.76,11.47.58,15.75-3.01,10.81-9.07,7.59-29.2,19.72-36.42"/>
      <path class="st2" d="M230.88,289c15.1,10.05,34.16,12.88,51.18,6.61,5.33-1.96,9.82-4.47,12.37-7.31,8.52-9.47,9.94-24.64,3.31-35.53-4.25-6.99-11.36-12.25-14.07-19.96-2.95-8.39-.02-17.57.31-26.47.63-17.05-9.45-34.04-24.71-41.67l-39.58,41.99,7.86,80.12,3.33,2.22Z"/>
      <path class="st2" d="M123.89,180.15c5.54,10.5,11.17,21.26,12.95,33,1.78,11.74-.98,24.86-9.93,32.66-7.39,6.43-17.76,8.35-25.68,14.12-11.66,8.49-16.1,23.77-17.59,38.12-1.49,14.35-.86,29.15-5.6,42.78-6.12,17.59-20.69,31.59-25.1,49.68-4.35,17.84,2.83,37.96,17.5,49.01,14.67,11.06,35.98,12.42,51.94,3.32,22.95-13.08,30.7-41.85,36.35-67.65,15.71-71.62,31.45-145.85,16.45-217.62"/>
      <g>
        <g>
          <path class="st2" d="M136.58,71.9c4.18-12.93,25.67-24.62,37.45-31.4,17.62-10.13,33.95-8.09,44.01.91,18.19-15.26,42.13-29.92,65.1-23.91,22.97,6,41.61,29.52,37.42,52.9-2.47,13.77-12,26.12-11.45,40.1.38,9.53,5.42,18.13,9.44,26.78,4.02,8.65,7.12,18.72,3.53,27.56-3.34,8.22-11.66,13.35-16.14,21.01-3.65,6.24-4.5,13.67-6.83,20.51-8.66,25.35-38.58,39.56-64.99,35.1-26.41-4.45-48.4-24.33-60.88-48.04-12.47-23.71-16.6-50.91-18.05-77.66"/>
          <g>
            <g>
              <path class="st5" d="M156.32,90.24l5.27,211.33c1.89,24.22,30.52,60,56.45,57.78h0c26.18-2.24,39.86-42.02,38.36-66.52-1.58-25.72-2.77-52.82-2.77-52.82,0,0,32.77-7.64,36.84-51.3,2.09-22.37-1.54-59.03-5.34-88.16-3.19-24.42-26.05-41.28-50.32-37.12"/>
              <path class="st1" d="M253.35,239.45s-28.95,3.75-58.87-11.7c0,0,16.37,29.09,59.36,22.26l-.49-10.55Z"/>
            </g>
            <path class="st2" d="M222.1,107.08c-.48,1.66-6.49,1.27-13.43,2.57-6.97,1.16-12.48,3.57-13.5,2.17-.46-.67.43-2.26,2.61-3.98,2.16-1.71,5.67-3.44,9.84-4.18,4.17-.73,8.06-.31,10.68.56,2.64.87,4.01,2.06,3.81,2.85Z"/>
            <path class="st2" d="M277.31,108.54c-.96,1.42-5.16.28-10.11.53-4.95.08-9.06,1.5-10.12.14-.47-.66.11-2.06,1.85-3.46,1.72-1.39,4.66-2.63,8.07-2.75,3.4-.11,6.42.93,8.23,2.2,1.84,1.28,2.5,2.64,2.08,3.33Z"/>
          </g>
          <path class="st1" d="M225.28,155.79c0,.87-.71,1.58-1.58,1.58s-1.58-.71-1.58-1.58.71-1.58,1.58-1.58,1.58.71,1.58,1.58Z"/>
          <path class="st1" d="M270.06,148.03c0,.87-.71,1.58-1.58,1.58s-1.58-.71-1.58-1.58.71-1.58,1.58-1.58,1.58.71,1.58,1.58Z"/>
          <path class="st1" d="M278.8,152.16c0,.87-.71,1.58-1.58,1.58s-1.58-.71-1.58-1.58.71-1.58,1.58-1.58,1.58.71,1.58,1.58Z"/>
          <path class="st1" d="M281.47,145.54c0,.87-.71,1.58-1.58,1.58s-1.58-.71-1.58-1.58.71-1.58,1.58-1.58,1.58.71,1.58,1.58Z"/>
          <path class="st1" d="M218.04,162.78c0,.87-.71,1.58-1.58,1.58s-1.58-.71-1.58-1.58.71-1.58,1.58-1.58,1.58.71,1.58,1.58Z"/>
          <path class="st1" d="M212.1,156.41c0,.87-.71,1.58-1.58,1.58s-1.58-.71-1.58-1.58.71-1.58,1.58-1.58,1.58.71,1.58,1.58Z"/>
          <path class="st2" d="M232.55,56.7c-3.9,34.43-29.44,65.44-62.47,75.88,10.66,15.36,3.95,44.58,4.22,68.98.26,22.68.24,29.16-14.45,40.72-12.14,2.93-19.14-30.34-28.17-39.63-9.02-9.29-17.66-20.75-16.99-33.68.31-6.05,2.68-11.84,3.01-17.89.37-6.71-1.78-13.26-2.97-19.87-5.26-29.26,9.91-60.72,35.39-76.02,25.48-15.3,59.5-14.26,84.78,1.39"/>
          <path class="st4" d="M118.72,147.83s-.4-.39-1.08-1.22c-.64-.85-1.46-2.24-2-4.22-1.17-3.94-.62-10.18,2.51-16.77,1.48-3.32,3.88-6.66,6.89-9.67,2.96-3.07,6.39-6.12,10.37-8.83,3.97-2.71,8.49-5.08,13.46-6.75,4.94-1.68,10.18-3,15.52-4.34,5.34-1.34,10.55-2.66,15.43-4.37,4.88-1.69,9.47-3.7,13.66-5.93,8.4-4.47,15.3-9.65,20.61-14.5,5.32-4.86,9.1-9.32,11.59-12.48,1.26-1.57,2.17-2.85,2.8-3.7.63-.85.98-1.29,1.01-1.27.03.02-.26.5-.84,1.39-.58.89-1.44,2.21-2.66,3.82-2.4,3.25-6.13,7.81-11.42,12.76-5.29,4.95-12.2,10.23-20.66,14.79-4.22,2.28-8.84,4.32-13.77,6.04-4.93,1.74-10.16,3.07-15.51,4.41-5.34,1.34-10.55,2.64-15.45,4.3-4.89,1.63-9.34,3.93-13.26,6.58-3.94,2.64-7.34,5.63-10.3,8.64-3.02,2.97-5.33,6.13-6.85,9.4-3.16,6.43-3.79,12.51-2.77,16.37.95,3.92,2.9,5.43,2.71,5.53Z"/>
          <path class="st4" d="M229.49,53.8s-.28.4-.89,1.09c-.6.7-1.54,1.7-2.75,2.97-2.44,2.52-6.09,6.07-11,10.02-4.93,3.87-11.11,8.29-18.89,11.4-3.9,1.56-8.19,2.52-12.62,3.42-4.44.89-9.06,1.58-13.79,2.3-9.45,1.4-18.46,2.87-26.28,5.52-7.79,2.67-14.33,6.44-19.02,10.52-4.72,4.06-7.64,8.3-9.18,11.41-.75,1.57-1.3,2.81-1.59,3.69-.32.86-.51,1.31-.54,1.3-.03,0,.09-.48.35-1.37.22-.9.73-2.17,1.43-3.79,1.45-3.2,4.32-7.57,9.06-11.77,4.71-4.22,11.31-8.1,19.19-10.86,7.9-2.73,16.97-4.24,26.43-5.64,4.73-.71,9.34-1.4,13.75-2.27,4.41-.88,8.65-1.81,12.47-3.31,7.67-3.01,13.84-7.33,18.79-11.1,4.93-3.85,8.64-7.31,11.16-9.74,1.19-1.18,2.15-2.12,2.87-2.83.66-.65,1.01-.98,1.04-.96Z"/>
          <path class="st4" d="M277.88,16.1c.02.22-3.72.35-9.48,1.88-1.44.39-3.01.84-4.63,1.49-1.66.55-3.35,1.36-5.14,2.16-3.52,1.75-7.24,3.99-10.81,6.79-3.54,2.85-6.56,5.96-9.06,9-1.19,1.57-2.36,3.02-3.27,4.52-1,1.44-1.79,2.87-2.49,4.18-2.8,5.27-3.76,8.88-3.98,8.81-.07-.02.17-.92.66-2.53.23-.81.55-1.79,1.03-2.89.47-1.1.93-2.39,1.66-3.71.68-1.35,1.44-2.82,2.42-4.3.89-1.54,2.06-3.04,3.25-4.65,2.5-3.11,5.56-6.31,9.16-9.2,3.64-2.85,7.43-5.1,11.03-6.84,1.84-.79,3.56-1.59,5.26-2.11,1.67-.62,3.27-1.04,4.74-1.39,1.45-.42,2.81-.57,3.99-.78,1.18-.22,2.2-.31,3.05-.35,1.68-.11,2.61-.14,2.61-.07Z"/>
          <path class="st4" d="M308.57,180.64s.08-.14.29-.38c.24-.28.54-.63.91-1.06.79-.93,1.99-2.29,3.35-4.16,1.33-1.87,2.95-4.27,3.83-7.42.43-1.56.63-3.31.4-5.13-.25-1.81-.91-3.67-1.96-5.42-2.06-3.57-5.44-6.68-8.53-10.52-3.07-3.85-5.91-8.34-8.14-13.42-2.24-5.07-3.93-10.7-4.72-16.69-.82-6-.55-12.25-.46-18.59.09-6.32-.08-12.55-1.68-18.26-1.58-5.7-4.6-10.73-8.25-14.74-3.65-4.03-7.98-7.06-12.41-9.01-4.42-1.99-8.93-2.85-13.04-3.01-8.29-.32-14.82,2.08-18.91,4.16-2.05,1.07-3.57,2.05-4.57,2.75-.46.33-.83.59-1.13.81-.26.18-.4.26-.41.25,0,0,1.83-1.88,5.93-4.15,4.07-2.21,10.66-4.75,19.11-4.52,4.19.12,8.82.95,13.35,2.95,4.54,1.96,8.99,5.04,12.75,9.15,3.76,4.09,6.87,9.24,8.51,15.1,1.66,5.86,1.83,12.19,1.74,18.54-.09,6.35-.35,12.55.43,18.45.76,5.89,2.41,11.45,4.59,16.45,2.17,5.01,4.95,9.45,7.94,13.28,3.01,3.8,6.4,6.97,8.49,10.68,1.07,1.83,1.74,3.79,1.97,5.7.22,1.91-.02,3.74-.49,5.36-.96,3.24-2.66,5.64-4.05,7.5-1.43,1.86-2.67,3.18-3.52,4.06-.4.4-.72.73-.98.99-.23.22-.35.33-.36.31Z"/>
          <path class="st2" d="M120.98,150.26s-.17-.06-.47-.21c-.35-.18-.78-.41-1.32-.7-1.14-.66-2.8-1.68-4.74-3.27-3.84-3.12-9.08-8.58-12.24-17.07-3.23-8.34-3.59-19.94,1.65-30.74,2.56-5.38,6.57-10.42,11.75-14.32,5.16-3.94,11.34-6.8,17.88-8.75,6.56-1.96,13.2-2.98,19.59-3.57,6.4-.61,12.58-.89,18.45-1.3,5.87-.41,11.43-.94,16.57-1.86,5.14-.88,9.83-2.21,13.97-3.79,8.31-3.16,14.16-7.58,17.63-11.1,1.71-1.8,2.92-3.3,3.69-4.36.35-.49.64-.89.87-1.21.2-.27.31-.4.33-.4,0,0-1.22,2.52-4.6,6.23-3.41,3.64-9.28,8.2-17.65,11.48-4.17,1.64-8.9,3.02-14.08,3.94-5.18.96-10.77,1.52-16.65,1.96-11.72.93-24.82,1.03-37.83,4.91-6.46,1.93-12.53,4.73-17.58,8.57-5.08,3.8-8.99,8.7-11.52,13.94-5.16,10.54-4.9,21.89-1.81,30.1,3.02,8.36,8.1,13.83,11.83,17.01,1.88,1.62,3.5,2.68,4.59,3.39.52.32.93.57,1.27.78.28.18.43.28.42.3Z"/>
        </g>
        <path class="st4" d="M112.94,305.14c-.07-.04.38-1.06,1.28-2.99.99-2.14,2.3-4.94,3.93-8.43,3.29-7.33,8.42-17.97,13.51-31.32,2.26-6.68,2.17-14.81-.84-22.55-1.47-3.88-3.59-7.67-6.24-11.22-1.33-1.77-2.78-3.52-4.38-5.1-1.66-1.62-3.3-3.51-4.75-5.44-5.83-7.81-9.69-17.78-10.16-28.42-.57-10.63,2.61-21.81,9.14-31.01,6.43-9.28,15.92-15.99,25.94-19.31,9.96-3.49,19.93-5.03,28.69-8.55,17.73-6.72,31.18-18.17,40.19-29.21,9.1-11.1,14.12-21.8,16.84-29.33,2.67-7.59,3.43-12.02,3.7-11.96.08.02-.1,1.12-.51,3.21-.33,2.11-1.17,5.15-2.34,9.04-2.49,7.69-7.33,18.65-16.42,30.07-9,11.35-22.59,23.18-40.7,30.18-9,3.66-19.03,5.27-28.7,8.7-9.7,3.26-18.62,9.6-24.8,18.5-6.25,8.8-9.29,19.43-8.77,29.57.42,10.17,4.08,19.74,9.6,27.24,1.42,1.89,2.85,3.59,4.51,5.23,1.69,1.7,3.17,3.51,4.54,5.37,2.72,3.72,4.9,7.69,6.4,11.77,3.08,8.13,3.07,16.78.6,23.73-5.4,13.57-10.69,23.92-14.26,31.21-1.82,3.61-3.29,6.39-4.32,8.25-1.03,1.86-1.63,2.81-1.7,2.78Z"/>
      </g>
      <g>
        <path class="st2" d="M276.29,132.51c.26,2.91-2,5.53-5.03,5.86-3.03.32-5.7-1.77-5.96-4.68-.26-2.91,1.99-5.54,5.03-5.86,3.04-.33,5.71,1.77,5.97,4.68Z"/>
        <path class="st2" d="M275.54,126.08c-.65.76-5-2.12-10.94-1.79-5.94.25-10.14,3.54-10.83,2.84-.33-.31.29-1.64,2.12-3.13,1.8-1.48,4.92-2.99,8.62-3.17,3.7-.18,6.89,1.02,8.76,2.32,1.9,1.31,2.59,2.58,2.27,2.92Z"/>
      </g>
      <g>
        <path class="st2" d="M217.15,136.61c.26,2.91-2,5.53-5.03,5.86-3.03.32-5.7-1.77-5.96-4.68-.26-2.91,1.99-5.54,5.03-5.86,3.04-.33,5.71,1.77,5.97,4.68Z"/>
        <path class="st2" d="M217.15,130.3c-.65.76-5-2.12-10.94-1.79-5.94.25-10.15,3.54-10.83,2.84-.33-.3.29-1.64,2.12-3.13,1.8-1.48,4.92-2.99,8.62-3.17,3.71-.18,6.89,1.02,8.76,2.32,1.9,1.31,2.59,2.58,2.27,2.92Z"/>
      </g>
      <path class="st2" d="M241.07,173.25c-.05-.34,3.62-1.17,9.57-2.25,1.51-.24,2.93-.62,3.13-1.67.3-1.12-.42-2.72-1.25-4.45-1.62-3.6-3.32-7.37-5.1-11.32-7.11-16.13-12.34-29.43-11.69-29.71.65-.28,6.95,12.57,14.06,28.7,1.72,3.98,3.36,7.77,4.92,11.4.67,1.7,1.76,3.6,1.11,5.92-.35,1.16-1.42,2.04-2.38,2.35-.96.35-1.81.41-2.56.49-6.01.64-9.75.87-9.79.53Z"/>
      <path class="st1" d="M239.32,187.71c-2.29-2.71-6.12-4.07-9.82-3.47-2.57.41-5.11,1.8-6.56,3.98-1.46,2.18-1.63,5.18-.09,7.11,1.72,2.17,5.1,2.51,7.9,1.56,2.8-.96,5.14-2.96,7.36-4.94.61-.55,1.24-1.12,1.61-1.85.36-.73.4-1.65-.13-2.21"/>
      <path class="st2" d="M223.79,178.29c.96-.11,1.32,6.35,7.09,10.63,5.76,4.3,12.6,3.21,12.7,4.11.11.4-1.47,1.33-4.37,1.57-2.84.25-7.05-.44-10.58-3.07-3.52-2.63-5.17-6.3-5.53-8.94-.39-2.69.25-4.32.69-4.31Z"/>
    </g>
    <g>
      <path class="st6" d="M334.02,423.22l150.63,70.75c5.73,2.15,11.82,3.17,17.94,2.98h0c.91-.03,1.81-.08,2.7-.16,24.38-2.14,28.6-23.39,35.84-45.87l53.23-161.64-62.64-17.85-65.96,122.55-146.88-99.54c-7.16-4.85-15.24-8.19-23.75-9.8l-28.33-5.36"/>
      <path class="st6" d="M266.81,279.29s34.91,137.2,29.29,191.96c-5.62,54.76-10.9,187.77-10.9,187.77h40.21s15.43,1.15,11.74-24.31c-4.9-33.8-3.51-74.13-3.51-74.13,0,0,0-39.16,2.34-75.55.97-15.09-.48-52.88-.48-52.88l-7.38-44.44,7.29-67.18-68.6-41.24Z"/>
      <path class="st2" d="M293.69,576.89s.05-.26.19-.74c.17-.55.4-1.25.68-2.14.65-1.96,1.56-4.7,2.71-8.2,2.31-7.13,5.81-17.43,8.88-30.47,1.52-6.52,2.87-13.74,3.65-21.56.79-7.83,1.02-16.24.79-25.09-.23-8.85-.87-18.13-1.71-27.74-.78-9.61-1.85-19.55-3.05-29.7-4.9-40.65-12.57-76.98-19.14-102.97-3.23-13.02-6.24-23.45-8.26-30.67-1.03-3.54-1.84-6.32-2.41-8.3-.25-.9-.44-1.61-.6-2.17-.13-.49-.18-.74-.16-.75.02,0,.12.24.28.71.18.54.42,1.25.72,2.13.63,1.96,1.51,4.72,2.64,8.23,2.16,7.19,5.31,17.59,8.65,30.59,6.79,25.97,14.62,62.33,19.52,103.04,1.2,10.17,2.26,20.12,3.03,29.75.83,9.62,1.44,18.93,1.64,27.82.2,8.89-.07,17.35-.91,25.23-.83,7.88-2.24,15.13-3.82,21.66-3.19,13.07-6.83,23.33-9.28,30.42-1.25,3.47-2.24,6.19-2.94,8.13-.33.87-.6,1.56-.8,2.1-.19.47-.29.71-.31.7Z"/>
      <path class="st2" d="M319.34,354.5s.23.42.54,1.26c.35.97.79,2.19,1.33,3.69,1.15,3.2,2.64,7.9,4.32,13.75,3.37,11.69,7.17,28.12,9.54,46.56,2.34,18.45,2.79,35.31,2.46,47.47-.16,6.08-.42,11-.73,14.39-.15,1.58-.26,2.87-.36,3.9-.1.89-.17,1.36-.21,1.35-.04,0-.06-.48-.04-1.37.03-1.03.07-2.33.12-3.91.16-3.39.29-8.31.33-14.37.1-12.13-.49-28.92-2.82-47.3-2.36-18.37-6.01-34.76-9.15-46.48-1.57-5.86-2.92-10.59-3.93-13.83-.45-1.52-.81-2.76-1.1-3.76-.24-.86-.35-1.32-.3-1.34Z"/>
      <path class="st2" d="M474.35,432.57c-.12.08-1.59-1.71-3.4-4.98-1.82-3.26-3.86-8.07-5.08-13.66-1.21-5.6-1.35-10.82-1.05-14.54.29-3.73.89-5.97,1.02-5.95.42.02-1.21,9.22,1.25,20.22,2.33,11.02,7.64,18.72,7.26,18.91Z"/>
      <g class="st7">
        <path d="M305.56,580.39c3.18-2.43,5.11-9.04,5.91-12.95,7.67-37.5,8.9-80.09-2.86-116.51,6.92,49.7.96,87.21-14.79,125.61"/>
      </g>
      <g class="st7">
        <path d="M463.78,393.08c-7.87,1.55-12.71,10.36-12.11,18.35.6,7.99,5.37,15.08,10.8,20.98,1.53,1.67,4,3.37,5.83,2.05,1.2-.87,1.34-2.58,1.26-4.05-.34-6.37-2.72-12.42-4.45-18.56-1.73-6.14-2.81-12.82-.58-18.8"/>
      </g>
    </g>
    <g>
      <polygon class="st0" points="160.57 260.51 235.67 351.09 255.09 269.83 266.81 279.29 278.57 330.29 233.28 370.48 201.72 376.67 171.53 365.76 149.84 272.74 160.57 260.51"/>
      <path class="st2" d="M295.33,486.69s-.18-.53-.39-1.55c-.22-1.15-.51-2.64-.87-4.48-.34-1.95-.82-4.33-1.45-7.07-.6-2.75-1.26-5.89-2.18-9.31-.44-1.72-.89-3.52-1.37-5.39-.54-1.86-1.1-3.79-1.67-5.79-1.09-4.02-2.56-8.22-3.98-12.68-3.07-8.85-6.76-18.46-11.16-28.34-4.46-9.85-9.19-19-13.77-27.17-2.39-4.02-4.56-7.92-6.84-11.41-1.11-1.76-2.18-3.46-3.22-5.1-1.08-1.6-2.12-3.13-3.12-4.6-1.95-2.96-3.86-5.54-5.51-7.81-1.63-2.3-3.09-4.24-4.32-5.79-1.14-1.49-2.06-2.7-2.77-3.63-.62-.84-.93-1.29-.9-1.32.03-.03.41.37,1.1,1.16.76.9,1.74,2.05,2.96,3.49,1.3,1.51,2.81,3.41,4.5,5.67,1.71,2.24,3.68,4.79,5.68,7.73,1.02,1.46,2.09,2.99,3.2,4.57,1.06,1.63,2.15,3.32,3.29,5.08,2.33,3.48,4.53,7.36,6.96,11.39,4.65,8.17,9.43,17.35,13.91,27.23,4.41,9.91,8.09,19.58,11.11,28.48,1.39,4.49,2.83,8.72,3.89,12.77.56,2.01,1.09,3.96,1.61,5.83.45,1.88.88,3.69,1.29,5.43.87,3.45,1.47,6.61,2,9.38.57,2.76.98,5.16,1.25,7.13.27,1.86.48,3.37.64,4.53.13,1.04.18,1.58.14,1.59Z"/>
      <path class="st2" d="M267.63,364.46c.22.27-4.84,4.74-11.29,9.99-6.46,5.25-11.87,9.29-12.08,9.02-.22-.27,4.84-4.74,11.3-9.99,6.45-5.25,11.86-9.29,12.08-9.02Z"/>
      <path class="st2" d="M269.19,376.25c.17.34-4.59,2.87-9.59,7.14-5.04,4.24-8.31,8.52-8.61,8.3-.27-.16,2.63-4.89,7.8-9.25,5.15-4.39,10.28-6.48,10.4-6.19Z"/>
    </g>
    <g>
      <path class="st6" d="M58.25,405.2s64.06,131.92,59.85,171.23l-15.74,82.57h59.31l24.42-.14c.67-35.13-3.43-130.65-5.58-196.64-2.15-65.99-28.2-193.1-28.2-193.1l-21.87,9.52c-31.32,1.55-73.41,20.28-81.75,66.6l9.55,59.96Z"/>
      <path class="st6" d="M49.7,340.01l-28.3,147.65-3.26,34.44c-3.4,35.84,22.05,68,57.71,72.94l180.71,31.9,36.83-57.71-182.95-60.77,24.08-107.7-84.82-60.74Z"/>
      <path class="st2" d="M79.38,595.66s.29.02.86.1c.61.1,1.44.23,2.51.39,2.26.38,5.52.92,9.74,1.62,8.55,1.47,20.96,3.6,36.59,6.29,31.36,5.48,75.66,13.22,127.59,22.29l-.59.26c11.45-17.97,23.88-37.46,36.8-57.73l.33.92c-9.04-3-18.62-6.18-28.32-9.41-57.93-19.29-111.49-37.13-154.59-51.48l-.41-.14.06-.42c5.29-34.61,9.64-63.1,12.68-82.98,1.54-9.88,2.75-17.62,3.58-22.94.42-2.6.75-4.6.98-6.01.23-1.36.38-2.05.38-2.05,0,0-.05.71-.23,2.07-.19,1.41-.47,3.42-.83,6.03-.77,5.33-1.89,13.08-3.31,22.98-2.94,19.9-7.14,48.41-12.25,83.05l-.34-.55c43.12,14.29,96.71,32.05,154.67,51.25,9.7,3.22,19.28,6.41,28.32,9.41l.76.25-.43.67c-12.94,20.26-25.39,39.74-36.86,57.69l-.21.33-.38-.07c-51.9-9.25-96.17-17.15-127.51-22.74-15.61-2.83-28-5.07-36.53-6.62-4.2-.78-7.46-1.39-9.71-1.81-1.07-.21-1.89-.37-2.5-.49-.56-.12-.84-.2-.84-.2Z"/>
      <path class="st2" d="M113.08,508.91c-.02.21-1.95.08-4.99.46-3.04.36-7.19,1.4-11.31,3.6-4.11,2.22-7.27,5.11-9.25,7.44-1.99,2.33-2.95,4.01-3.14,3.91-.12-.05.57-1.91,2.45-4.46,1.86-2.55,5.07-5.68,9.35-7.99,4.29-2.29,8.67-3.24,11.82-3.38,3.17-.15,5.09.3,5.07.42Z"/>
      <path class="st2" d="M127.1,347.67c-.23.05-.72-3.57-2.9-8.94-2.14-5.34-6.34-12.4-13.11-18.08-6.77-5.68-14.46-8.58-20.09-9.76-5.67-1.22-9.32-1.06-9.31-1.3,0-.08.9-.19,2.55-.2,1.64-.02,4.03.13,6.94.63,5.78.98,13.75,3.82,20.72,9.67,6.97,5.84,11.16,13.19,13.13,18.71,1.01,2.77,1.57,5.1,1.83,6.72.27,1.62.32,2.53.25,2.54Z"/>
      <path class="st2" d="M176.38,529.99s-.12-.19-.3-.59c-.2-.46-.46-1.05-.77-1.77-.69-1.65-1.64-3.94-2.85-6.85-2.4-5.97-5.91-14.63-9.41-25.62-3.43-10.98-6.88-24.46-7.36-39.79-.57-15.33,2.19-31.97,3.43-49.43,1.26-17.49-.28-34.23-2.69-49.21-2.48-15-5.8-28.3-8.81-39.4-3.03-11.1-5.72-20.02-7.55-26.19-.89-3.02-1.59-5.4-2.09-7.11-.21-.76-.38-1.37-.52-1.86-.11-.42-.16-.64-.13-.65.02,0,.11.2.26.61.17.48.37,1.08.63,1.82.56,1.7,1.33,4.06,2.31,7.05,1.98,6.13,4.79,15.02,7.94,26.1,3.12,11.09,6.54,24.41,9.09,39.45,2.49,15.03,4.06,31.88,2.8,49.49-1.25,17.56-4.03,34.13-3.52,49.32.42,15.18,3.74,28.58,7.06,39.56,3.38,10.99,6.76,19.68,9.02,25.7,1.12,2.94,2,5.26,2.63,6.93.27.74.49,1.34.66,1.81.14.41.21.63.19.63Z"/>
      <g class="st7">
        <path d="M157.27,524.28c-4.33-16.17-8.67-32.46-9.74-49.16s1.37-34.04,9.84-48.47c-5.4,35.56,4.05,72.82,21.21,104.43"/>
      </g>
      <g class="st7">
        <polygon points="109.5 621.52 186.16 619.28 186.39 614.55 113.44 601.88 109.5 621.52"/>
      </g>
      <g class="st7">
        <polygon points="124.78 413.01 119.56 511.47 110.45 508.44 124.78 413.01"/>
      </g>
    </g>
    <polygon class="st5" points="290.26 575.59 332.79 589.57 347.78 576.83 403.98 597.63 397.8 639.83 390.27 639.88 382.07 617.87 343.55 632.73 327.45 637.2 261.88 620.48 290.26 575.59"/>
    <path class="st2" d="M186.57,659.01v-4.69c0-5.23,4.24-9.48,9.48-9.48h127.71l55.3-160.97c2.15-6.26,8.04-10.47,14.67-10.47h242.02c1.1,0,1.88,1.09,1.51,2.13l-64.68,183.48H186.57Z"/>
  </g>
  <g>
    <path class="st3" d="M504.3,579.12l-9.37-9.96,10.13-9.19,8.81,9.38c.31.32.3.83-.02,1.15,0,0-.02.01-.02.02l-9.51,8.61Z"/>
    <polygon class="st3" points="499.61 574.15 494.92 569.17 499.99 564.57 504.67 569.55 499.61 574.15"/>
    <path class="st3" d="M509.36,574.53l4.44-4.04c.33-.3.36-.81.07-1.14,0,0-.01-.02-.02-.02l-4.11-4.38-5.06,4.61,4.69,4.98Z"/>
    <path class="st3" d="M478.42,578.11l10.13-9.19-9.37-9.96-9.51,8.66c-.33.29-.37.8-.07,1.14,0,.01.02.02.03.03l8.81,9.33Z"/>
    <polygon class="st3" points="483.48 573.51 488.54 568.92 483.85 563.94 478.79 568.53 483.48 573.51"/>
    <path class="st3" d="M473.73,573.13l-4.11-4.38c-.31-.32-.3-.83.02-1.14,0,0,.02-.02.03-.03l4.44-4.04,4.69,4.99-5.06,4.59Z"/>
    <path class="st3" d="M500.8,582.36l-9.19-10.13-9.96,9.37,8.64,9.52c.3.33.81.36,1.14.07,0,0,.02-.01.02-.02l9.35-8.81Z"/>
    <polygon class="st3" points="496.21 577.29 491.61 572.23 486.63 576.92 491.23 581.98 496.21 577.29"/>
    <path class="st3" d="M495.82,587.04l-4.38,4.11c-.32.31-.83.3-1.15-.02,0,0-.01-.02-.02-.02l-4.04-4.44,4.99-4.69,4.59,5.06Z"/>
    <path class="st3" d="M482.67,555.72l9.19,10.13,9.96-9.37-8.64-9.51c-.29-.33-.8-.37-1.14-.07-.01,0-.02.02-.03.03l-9.35,8.8Z"/>
    <polygon class="st3" points="487.26 560.79 491.86 565.85 496.84 561.16 492.24 556.1 487.26 560.79"/>
    <path class="st3" d="M487.65,551.04l4.38-4.12c.32-.31.83-.3,1.14.02,0,0,.02.02.03.03l4.04,4.44-4.99,4.69-4.6-5.06Z"/>
  </g>
</svg>