<?xml version="1.0" encoding="UTF-8"?>
<svg id="Capa_1" xmlns="http://www.w3.org/2000/svg" version="1.1" viewBox="0 0 553.41 900">
  <!-- Generator: Adobe Illustrator 30.2.1, SVG Export Plug-In . SVG Version: 2.1.1 Build 1)  -->
  <defs>
    <style>
      .st0 {
        fill: #973032;
      }

      .st1 {
        fill: #263238;
      }

      .st2 {
        opacity: .3;
      }

      .st3 {
        fill: #fff;
      }

      .st4 {
        fill: #7c4236;
      }

      .st5 {
        fill: #e0e0e0;
      }

      .st6 {
        fill: #dee0e2;
      }

      .st7 {
        fill: #455a64;
      }

      .st8 {
        fill: #ac0340;
      }

      .st9 {
        fill: #bc2e41;
      }

      .st10 {
        fill: #ae2f3d;
      }

      .st11 {
        fill: #c8ced3;
      }

      .st12 {
        fill: #d5d9dc;
      }

      .st13 {
        fill: #c17560;
      }
    </style>
  </defs>
  <g>
    <g>
      <path class="st3" d="M199.31,573.25h317.94c3.95,0,7.16,3.21,7.16,7.16v283.17c0,3.5-2.84,6.34-6.34,6.34H198.49c-3.5,0-6.34-2.84-6.34-6.34v-283.17c0-3.95,3.21-7.16,7.16-7.16Z"/>
      <path class="st5" d="M200.4,573.25h315.77c4.55,0,8.25,3.7,8.25,8.25v56.51c0,1.59-1.29,2.87-2.87,2.87H195.02c-1.59,0-2.87-1.29-2.87-2.87v-56.51c0-4.55,3.7-8.25,8.25-8.25Z"/>
      <path class="st3" d="M246.56,610.61c0,6.81-5.42,12.34-12.11,12.34s-12.11-5.52-12.11-12.34,5.42-12.34,12.11-12.34,12.11,5.52,12.11,12.34Z"/>
      <path class="st3" d="M283.72,610.61c0,6.81-5.42,12.34-12.11,12.34s-12.11-5.52-12.11-12.34,5.42-12.34,12.11-12.34,12.11,5.52,12.11,12.34Z"/>
      <path class="st3" d="M320.88,610.61c0,6.81-5.42,12.34-12.11,12.34s-12.1-5.52-12.1-12.34,5.42-12.34,12.1-12.34,12.11,5.52,12.11,12.34Z"/>
    </g>
    <path class="st1" d="M507.2,869.92c0-.09,1.08.01,3.13-.4,2.01-.4,5.09-1.37,8.13-4.07,2.98-2.63,5.84-7.29,5.67-13.26-.03-5.98-.06-12.86-.09-20.61-.07-31.07-.18-75.92-.31-131.33-.04-27.73-.08-58.1-.12-90.69,0-4.08,0-8.19-.01-12.33-.01-2.08.06-4.17-.18-6.13-.21-2-.85-3.93-1.68-5.76-1.67-3.68-4.63-6.76-8.18-8.78-1.8-.98-3.75-1.68-5.77-2.09-2.02-.42-4.1-.34-6.3-.35-17.37.01-35.24.03-53.56.04-36.66.02-75.13.04-115.02.06-19.94,0-40.24,0-60.84.02-10.3,0-20.67,0-31.12,0-5.22,0-10.46,0-15.72,0h-7.9c-2.64.04-5.32-.12-7.76.25-4.98.73-9.59,3.53-12.57,7.55-1.5,2-2.6,4.29-3.22,6.71-.66,2.42-.66,4.88-.64,7.54,0,10.45,0,20.82,0,31.13,0,20.6-.01,40.91-.02,60.85-.02,39.9-.04,78.38-.06,115.04,0,9.16-.01,18.22-.02,27.15,0,4.47,0,8.9-.01,13.31,0,2.2,0,4.4,0,6.58-.02,2.23-.03,4.28.49,6.29.97,4.01,3.52,7.57,6.93,9.78,1.7,1.11,3.6,1.91,5.58,2.32,1.96.43,4.01.33,6.15.35,8.42,0,16.71.02,24.86.03,32.6.04,62.97.08,90.7.12,55.41.13,100.26.24,131.32.31,15.47.08,27.49.14,35.7.18,4.04.04,7.14.07,9.29.1,2.09.03,3.16.1,3.16.1,0,0-1.07.07-3.16.1-2.15.02-5.24.06-9.29.1-8.22.04-20.24.1-35.7.18-31.06.07-75.91.18-131.32.31-27.73.04-58.1.08-90.7.12-8.15,0-16.44.02-24.86.03-2.06-.02-4.28.1-6.49-.37-2.18-.45-4.29-1.32-6.16-2.55-3.77-2.44-6.6-6.36-7.68-10.8-.58-2.21-.56-4.57-.55-6.7,0-2.19,0-4.38,0-6.58,0-4.4,0-8.84-.01-13.31,0-8.93-.01-17.98-.02-27.15-.02-36.66-.04-75.15-.06-115.04,0-19.95,0-40.25-.01-60.85,0-10.3,0-20.68,0-31.13-.02-2.55-.03-5.38.7-8.04.68-2.66,1.9-5.19,3.54-7.39,3.28-4.43,8.36-7.51,13.85-8.32,2.8-.41,5.43-.22,8.05-.27h7.9c5.26,0,10.49,0,15.72,0,10.44,0,20.82,0,31.12,0,20.6,0,40.89,0,60.84.01,39.89.02,78.36.04,115.02.06,18.33.01,36.2.03,53.56.04,2.13.02,4.41-.06,6.63.39,2.2.44,4.33,1.21,6.28,2.29,3.87,2.2,7.07,5.55,8.88,9.56.9,1.99,1.59,4.1,1.81,6.27.26,2.19.17,4.28.18,6.34,0,4.14,0,8.25-.01,12.33-.04,32.6-.08,62.96-.12,90.69-.13,55.41-.24,100.27-.31,131.33-.03,7.74-.06,14.63-.09,20.61.11,6.14-2.9,10.93-5.99,13.56-3.15,2.71-6.3,3.64-8.35,3.98-1.04.17-1.83.23-2.37.21-.53.01-.8-.01-.8-.01Z"/>
    <g>
      <path class="st10" d="M415.12,792.84l-41.14-40.41,41.14-40.41,38.65,37.97c1.37,1.35,1.37,3.54,0,4.89l-38.65,37.97Z"/>
      <polygon class="st0" points="394.55 772.64 373.98 752.43 394.55 732.23 415.12 752.43 394.55 772.64"/>
      <path class="st9" d="M435.69,772.64l18.08-17.76c1.37-1.35,1.37-3.54,0-4.89l-18.08-17.76-20.57,20.21,20.57,20.21Z"/>
      <path class="st10" d="M305.9,792.84l41.14-40.41-41.14-40.41-38.65,37.97c-1.37,1.35-1.37,3.54,0,4.89l38.65,37.97Z"/>
      <polygon class="st0" points="326.47 772.64 347.04 752.43 326.47 732.23 305.9 752.43 326.47 772.64"/>
      <path class="st9" d="M285.33,772.64l-18.08-17.76c-1.37-1.35-1.37-3.54,0-4.89l18.08-17.76,20.57,20.21-20.57,20.21Z"/>
      <path class="st10" d="M400.92,807.04l-40.41-41.14-40.41,41.14,37.97,38.65c1.35,1.37,3.54,1.37,4.89,0l37.97-38.65Z"/>
      <polygon class="st0" points="380.71 786.47 360.51 765.9 340.3 786.47 360.51 807.04 380.71 786.47"/>
      <path class="st9" d="M380.71,827.61l-17.76,18.08c-1.35,1.37-3.54,1.37-4.89,0l-17.76-18.08,20.21-20.57,20.21,20.57Z"/>
      <path class="st12" d="M320.1,697.82l40.41,41.14,40.41-41.14-37.97-38.65c-1.35-1.37-3.54-1.37-4.89,0l-37.97,38.65Z"/>
      <polygon class="st11" points="340.3 718.39 360.51 738.96 380.71 718.39 360.51 697.82 340.3 718.39"/>
      <path class="st6" d="M340.3,677.25l17.76-18.08c1.35-1.37,3.54-1.37,4.89,0l17.76,18.08-20.21,20.57-20.21-20.57Z"/>
    </g>
  </g>
  <g>
    <g>
      <path class="st1" d="M465.9,124.85c4.29-4.97,7.12-11.66,5.89-18.11-1.24-6.45-7.48-12.05-13.98-11.07,1.5-6.25-1.17-13.3-6.44-16.97-5.27-3.68-12.81-3.76-18.16-.19.53-3.16-1.89-6.69-5.64-8.35-2.93-1.3-13.83-.51-16.72,6.01l-10.69,53.5c-6.03,6.64-9.29,15.73-8.84,24.69.45,8.96,4.6,17.68,11.28,23.67-3.49,5.75-3.06,13.63,1.02,18.97,4.08,5.35,11.57,7.82,18.04,5.97,1.65,9.03,12.27,15.22,20.94,12.22,8.67-3,13.18-14.44,8.89-22.55,7.79,2.25,16.11-4.3,18.03-12.17,1.93-7.87-1.11-16.19-5.55-22.97,6.49-2.36,11.29-8.8,11.69-15.69.41-6.89-3.6-13.85-9.77-16.96Z"/>
      <g>
        <path class="st8" d="M420.82,84.36c7.43,2.14,9.14,8.04,10.83,12.95,3.65,10.57.47,26.5-5.19,36.15-5.66,9.64-12.06,14.66-23.07,16.63-.92-16.95-1.85-33.89-2.78-50.84l20.2-14.89Z"/>
        <g>
          <path class="st1" d="M425.95,113.42c4.8-6.69,3.75-16.91-2.32-22.48,3.08-4.15,1.72-10.35-1.68-14.25-3.41-3.89-8.34-6.03-13.11-8.04-2.97-11.75-16.53-19.63-28.21-16.39-6.43-8.81-19.55-9.79-29.92-6.39-2.53.83-5.06,1.88-7.72,1.96-1.95.06-3.88-.41-5.83-.61-10.7-1.08-21.02,6.77-24.84,16.82-.61,1.61-1.1,3.3-2.11,4.69-1.32,1.83-3.38,2.95-5.12,4.38-3.76,3.1-6.05,7.92-6.1,12.79-.04,4.14,1.43,8.49-.19,12.3-.81,1.91-2.34,3.48-2.95,5.47-1.78,5.75,4.71,11.35,3.74,17.29-.2,1.21-.7,2.35-1,3.54-.6,2.44-.28,5.09.88,7.32.9,1.72,2.31,3.27,2.49,5.2.14,1.46-.47,2.88-.72,4.33-.6,3.55,7.45,16.87,10.56,18.69l90.97-2.22c6.84-1.63,12.23-8.06,12.66-15.07.07-1.17.05-2.43.74-3.37.59-.8,1.57-1.2,2.43-1.7,5.75-3.34,6.19-11.4,5.35-18-.12-.92-.25-1.87-.04-2.78.3-1.32,1.24-2.38,2.03-3.48Z"/>
          <path class="st13" d="M399.9,114.42c-.27-16.1-10.98-34.26-27.23-41.6-10.24-4.63-18.11-4.4-23.43-4.84-11.92-.99-21.3,5.21-21.3,5.21-4.97,1.34-22.78,18.78-23.13,37.06-.38,20.31-.05,45.13,3.02,60.13,6.17,30.18,29.63,33.02,29.63,33.02,0-.05-.49,50.52-.49,50.52l46.09,35.27,15.52-58.98,1.32-115.8Z"/>
          <path class="st1" d="M314.25,134.47c.02,2.06,1.78,3.75,3.93,3.77,2.15.02,3.88-1.63,3.86-3.69-.02-2.06-1.78-3.75-3.93-3.77-2.15-.02-3.89,1.63-3.87,3.69Z"/>
          <path class="st1" d="M312.3,121.62c.51.49,3.36-1.83,7.56-2,4.19-.23,7.36,1.79,7.79,1.26.21-.24-.32-1.13-1.7-2.05-1.36-.91-3.65-1.76-6.27-1.63-2.61.13-4.77,1.19-5.99,2.23-1.25,1.05-1.64,1.99-1.39,2.2Z"/>
          <path class="st1" d="M338.3,153.66c0-.24-2.62-.57-6.87-.93-1.08-.06-2.1-.23-2.31-.95-.29-.76.11-1.94.57-3.21.89-2.64,1.83-5.4,2.81-8.3,3.89-11.8,6.65-21.49,6.17-21.64-.48-.15-4.01,9.29-7.9,21.1-.93,2.91-1.82,5.68-2.67,8.34-.35,1.24-.99,2.65-.37,4.23.32.79,1.14,1.33,1.83,1.49.7.18,1.3.16,1.83.17,4.26.04,6.9-.06,6.9-.3Z"/>
          <path class="st4" d="M337.46,203.41s20.64.42,40.36-12.65c0,0-9.89,21.9-40.43,20.39l.07-7.75Z"/>
          <path class="st1" d="M314.32,104.73c.75.99,3.93.17,7.7.31,3.77.03,6.92,1,7.7.04.35-.47-.11-1.45-1.45-2.42-1.33-.97-3.58-1.82-6.17-1.88-2.59-.06-4.88.69-6.23,1.6-1.38.91-1.87,1.87-1.54,2.35Z"/>
          <path class="st1" d="M360.67,134.89c.09,2.06-1.59,3.83-3.74,3.96-2.14.13-3.96-1.43-4.04-3.49-.09-2.06,1.59-3.83,3.73-3.96,2.15-.13,3.96,1.43,4.05,3.49Z"/>
          <path class="st1" d="M369.76,120.74c-.48.51-3.45-1.65-7.65-1.62-4.19-.02-7.26,2.16-7.72,1.65-.23-.23.26-1.15,1.6-2.13,1.31-.98,3.56-1.94,6.18-1.95,2.62,0,4.82.95,6.09,1.92,1.3.98,1.74,1.9,1.5,2.13Z"/>
          <path class="st1" d="M369.21,104.29c-.82.96-4.07,0-7.96-.03-3.89-.14-7.19.69-7.95-.3-.34-.48.18-1.44,1.61-2.35,1.41-.91,3.78-1.66,6.46-1.61,2.68.06,5,.91,6.36,1.87,1.38.97,1.84,1.95,1.48,2.42Z"/>
          <path class="st13" d="M396.27,143.44c-.09-2.26,2.29-7.71,4.51-8.16,5.93-1.19,16.71-1.19,17.47,13.97,1.05,20.71-19.96,17.5-20.03,16.9-.05-.46-1.62-14.89-1.95-22.71Z"/>
          <path class="st4" d="M403.55,158.29c.09-.07.37.23,1,.48.61.24,1.64.38,2.7-.08,2.15-.91,3.81-4.48,3.72-8.22-.04-1.89-.53-3.66-1.27-5.12-.71-1.48-1.74-2.49-2.86-2.63-1.11-.2-1.85.5-2.08,1.1-.25.59-.1,1-.2,1.04-.05.06-.46-.32-.34-1.19.06-.42.28-.92.75-1.34.48-.43,1.2-.67,1.97-.63,1.6.03,3.11,1.43,3.93,3.02.91,1.6,1.5,3.59,1.54,5.71.08,4.18-1.86,8.19-4.81,9.21-1.44.45-2.68.08-3.33-.38-.67-.48-.8-.94-.73-.98Z"/>
          <path class="st1" d="M300.23,110.75c4.07-2.8,6.59-6.47,6.12-11.39,2.81.71,5.48-2.99,6.99-5.46,1.51-2.47,3.45-3.77,3.2-6.66-.05-.57-.11-1.17.13-1.69.39-.81,1.36-1.11,2.21-1.42,4.36-1.57,7.78-5.51,8.72-10.04,4.53,1.75,9.49,2.35,14.3,1.73,2.28,3.02,6.17,4.74,9.93,4.42,3.77-.33,7.3-2.7,9.02-6.07,1.37,2.54,4.13,4.09,6.95,4.67,2.82.59,5.74.34,8.61.09-1,5.62,2.88,11.68,8.41,13.12.75.19,1.61.38,1.98,1.06.38.7.03,1.56-.22,2.32-1.6,4.82,1.8,10.66,6.78,11.64-3.28,2.77-2.66,8.84,1.1,10.9.77.42,1.78.93,1.7,1.81-.03.33-.23.63-.42.9-1.45,2.12-2.89,4.42-2.97,6.99-.08,2.57,1.78,5.36,4.34,5.36-1.29,1.26-2.48,2.85-2.44,4.65.05,1.8,1.95,3.56,3.6,2.84.7-.31,10.93-2.78,11.36-3.42,5.52-8.21-2.24-16.69-3.25-26.53-1.01-9.84-4.87-19.25-10.17-27.6-2.22-3.5-4.73-6.87-7.79-9.67-3.49-3.19-7.63-5.57-11.76-7.89-5.38-3.03-10.9-6.05-16.97-7.2-11.3-2.15-22.74,2.41-32.96,7.68-3.89,2-7.76,4.16-10.97,7.12-3.84,3.55-6.59,8.13-8.95,12.8-3.41,6.75-6.17,13.99-6.58,21.54"/>
          <path class="st7" d="M295.85,103.68s.17-.86,1.02-2.27c.41-.71,1-1.54,1.54-2.59.53-1.05.93-2.38,1-3.92.1-1.54-.1-3.25-.31-5.12-.21-1.87-.44-3.95-.1-6.16.32-2.2,1.11-4.5,2.45-6.64.67-1.07,1.48-2.1,2.42-3.04.94-.95,2.06-1.76,3.17-2.57,1.11-.82,2.23-1.69,3.03-2.85.81-1.16,1.29-2.56,1.8-3.98,1.03-2.87,2.58-5.7,4.7-8.22,2.1-2.52,4.68-4.83,7.77-6.52,1.51-.9,3.2-1.52,4.91-2.09,1.75-.46,3.56-.83,5.42-.84.93-.04,1.86.05,2.8.1.93.1,1.85.26,2.78.39,1.84.29,3.7.26,5.54-.23,1.84-.44,3.63-1.19,5.53-1.75,1.88-.6,3.84-.99,5.83-1.28,1.99-.29,4.03-.36,6.07-.31,2.05.08,4.1.38,6.13.86,4.01,1.04,7.96,3.11,10.72,6.45.27.33.54.66.81.99l-.34-.12c6.21-1.71,12.82-.29,17.99,2.86,5.21,3.14,9.17,8.14,10.59,13.77l-.17-.2c2.56,1.08,5.08,2.17,7.42,3.53,2.34,1.35,4.5,3,6.15,5.06,1.64,2.07,2.68,4.53,3,7.04.32,2.5-.21,5.12-1.69,7.09l-.03-.35c3.08,2.84,4.74,6.72,5.22,10.44.48,3.74-.15,7.42-1.72,10.39-.35.76-.85,1.43-1.29,2.11-.48.65-.97,1.26-1.35,1.91-.38.65-.62,1.34-.65,2.06-.04.72.07,1.44.15,2.15.34,2.85.39,5.51.11,7.87-.28,2.36-.88,4.45-1.79,6.07-.89,1.63-2.04,2.77-3.08,3.5-1.04.75-1.97,1.06-2.48,1.47-.53.37-.71.67-.73.66,0,0,.16-.32.68-.72.51-.43,1.44-.78,2.44-1.53,1.01-.73,2.12-1.87,2.97-3.48.87-1.6,1.44-3.66,1.7-6,.25-2.34.18-4.97-.17-7.8-.09-.71-.2-1.44-.17-2.21.02-.77.29-1.56.69-2.24.4-.69.89-1.31,1.36-1.95.43-.67.9-1.32,1.24-2.06,1.51-2.9,2.11-6.49,1.63-10.13-.48-3.62-2.11-7.39-5.1-10.12l-.17-.16.14-.19c1.38-1.85,1.88-4.32,1.57-6.71-.3-2.4-1.32-4.78-2.9-6.75-1.6-1.98-3.7-3.58-6-4.91-2.31-1.33-4.81-2.41-7.37-3.48l-.14-.06-.04-.14c-1.38-5.45-5.25-10.32-10.33-13.38-5.05-3.07-11.5-4.44-17.51-2.78l-.2.05-.14-.17c-.26-.32-.52-.63-.78-.95-2.66-3.22-6.48-5.23-10.4-6.25-1.98-.48-3.99-.77-6-.85-2.01-.05-4.01.02-5.96.3-1.95.29-3.89.66-5.74,1.26-1.86.54-3.67,1.29-5.56,1.75-.95.23-1.91.39-2.89.42-.98.03-1.94-.07-2.87-.19-.94-.13-1.85-.29-2.76-.39-.91-.06-1.82-.15-2.72-.11-1.81.01-3.57.37-5.28.81-1.67.55-3.32,1.15-4.8,2.03-3.03,1.64-5.57,3.9-7.64,6.36-2.08,2.47-3.61,5.24-4.64,8.06-.52,1.41-1.01,2.86-1.87,4.08-.87,1.23-2.03,2.12-3.15,2.94-1.13.81-2.22,1.59-3.14,2.52-.93.91-1.72,1.91-2.38,2.95-1.32,2.09-2.11,4.33-2.44,6.48-.35,2.16-.15,4.2.05,6.08.19,1.87.37,3.61.25,5.17-.08,1.56-.52,2.93-1.08,3.99-.57,1.06-1.17,1.88-1.6,2.57-.44.69-.72,1.24-.88,1.62-.17.38-.23.59-.25.58Z"/>
          <path class="st7" d="M370.71,48.11s-.56-.29-1.59-.74c-1.02-.44-2.58-.99-4.57-1.13-1.98-.15-4.41.11-6.77,1.27-2.34,1.15-4.58,3.18-5.97,5.87-.4.77-.73,1.59-.93,2.39-.19.79-.19,1.62.24,2.18l.53.68-.85-.2c-2.32-.55-4.67-.02-6.38,1.03-1.74,1.04-2.8,2.6-3.36,3.98-.57,1.39-.67,2.62-.67,3.45,0,.83.09,1.28.04,1.29-.02,0-.05-.11-.11-.32-.06-.21-.11-.54-.15-.96-.07-.84-.03-2.12.51-3.6.53-1.46,1.61-3.14,3.44-4.29,1.79-1.14,4.28-1.75,6.8-1.17l-.31.48c-.61-.79-.57-1.83-.36-2.69.22-.88.56-1.71.98-2.53,1.45-2.82,3.81-4.92,6.27-6.1,2.48-1.19,5.03-1.41,7.06-1.2,2.05.21,3.63.83,4.64,1.35.51.26.89.49,1.13.67.25.17.37.27.36.29Z"/>
          <path class="st7" d="M405.31,70.51s-.21.31-.69.77c-.49.46-1.23,1.1-2.28,1.73-1.04.62-2.42,1.25-4.08,1.41-1.64.17-3.6-.13-5.21-1.34l.46-.09c-.19.29-.38.58-.57.88-.21.29-.45.56-.67.85-1.46,1.64-3.27,2.79-5.04,3.44-1.77.66-3.49.88-4.91.82-1.43-.05-2.55-.35-3.3-.61-.74-.29-1.12-.5-1.1-.53.04-.13,1.64.7,4.41.7,1.37,0,3.01-.26,4.7-.92,1.69-.64,3.4-1.76,4.78-3.31.21-.27.44-.53.64-.8.18-.28.37-.56.54-.82l.19-.29.26.2c1.44,1.1,3.24,1.41,4.78,1.29,1.56-.12,2.89-.67,3.93-1.22,2.07-1.16,3.1-2.22,3.17-2.14Z"/>
          <path class="st7" d="M417.06,89.28s0,.13-.03.38c-.06.24-.17.61-.42,1.02-.48.83-1.57,1.87-3.25,2.36-1.69.51-3.81.26-5.95-.4-1.07-.33-2.18-.67-3.32-1.16-1.11-.49-2.33-1.21-2.97-2.49-.05-.11-.1-.22-.14-.33l.49.13c-1.93,1.64-3.93,3.08-5.99,3.94-2.05.89-4.13,1.1-5.8.84-1.67-.24-2.93-.9-3.65-1.48-.37-.29-.63-.55-.78-.74-.16-.19-.23-.29-.21-.31.04-.04.38.35,1.14.85.74.5,1.96,1.06,3.57,1.24,1.6.19,3.56-.05,5.51-.93,1.97-.86,3.91-2.27,5.82-3.89l.32-.27.18.4c.04.09.08.18.12.27.52,1.06,1.59,1.73,2.66,2.2,1.08.47,2.2.82,3.24,1.16,2.08.67,4.08.95,5.66.52,1.59-.41,2.65-1.32,3.16-2.06.53-.75.59-1.29.66-1.27Z"/>
        </g>
      </g>
      <path class="st4" d="M353.4,155.58c-4.18,1.41-9.7,3.87-13.29,6.37-.15,2.14,3.78,6.44,5.83,7.09,2.05.65,4.99,0,6.58-1.44,1.59-1.44,2.43-3.78,2.6-5.92.17-2.14-.9-4.11-1.71-6.1Z"/>
      <path class="st1" d="M346.55,169.25c-.01-.23,1.98.1,4.53-1.35,1.23-.72,2.57-1.92,3.31-3.63.76-1.69.87-3.89.14-5.91-.34-.92-.84-1.75-1.44-2.44l.71.14c-7.09,3.21-12.54,5.45-12.67,5.17s5.11-2.97,12.16-6.28l.41-.19.3.33c.73.8,1.31,1.77,1.71,2.84.84,2.34.68,4.87-.27,6.81-.93,1.97-2.52,3.24-3.93,3.93-2.95,1.38-5.02.68-4.95.58Z"/>
      <path class="st7" d="M409.22,166.25c.37,3.65-2.28,6.9-5.93,7.28-3.65.37-6.91-2.28-7.28-5.93-.37-3.65,2.28-6.91,5.93-7.28,3.65-.37,6.9,2.28,7.28,5.93Z"/>
    </g>
    <g>
      <g>
        <path class="st13" d="M140.45,433.19l10.64-16.09,17.09-8.57.64-.47c5.59-4.06,12.7-5.38,19.38-3.6,6.96,1.85,16.24,4.16,24.29,5.53l18.39-5.03v35.89l-92.75-5.86,2.31-1.8Z"/>
        <g>
          <path class="st4" d="M141.1,432.22c-.1-.13,1.41-1.49,3.92-3.58,2.51-2.1,6.03-4.93,9.96-8,1.28-.99,2.51-1.95,3.68-2.85l.11-.08.13-.02c3.8-.71,7.11-1.29,9.47-1.65,2.36-.36,3.78-.52,3.8-.39.03.13-1.34.53-3.66,1.08-2.32.56-5.6,1.27-9.39,2.05l.24-.11c-1.16.92-2.39,1.88-3.65,2.88-3.93,3.07-7.53,5.81-10.16,7.74-2.64,1.93-4.32,3.07-4.42,2.94Z"/>
          <path class="st4" d="M148.33,435.35c-.15-.28,5.82-3.88,13.34-8.05,1.12-.62,2.21-1.21,3.25-1.78l.11-.06h.12c6.81-.38,11.86-.48,11.87-.21.02.27-5,.82-11.8,1.32l.24-.07c-1.04.58-2.12,1.19-3.24,1.81-7.52,4.17-13.74,7.32-13.9,7.04Z"/>
        </g>
      </g>
      <g>
        <path class="st7" d="M32.49,331.66c3.11-1.75,7.03-.9,9.14,1.96l74.7,101.17,118.2,1.6c4.72.28,10.45,9.82,6.22,14.44l-133.48-1.82-77.06-107.07c-2.46-3.42-1.4-8.22,2.27-10.29Z"/>
        <path class="st1" d="M32.49,331.66s-.2.1-.59.32c-.37.25-.92.64-1.49,1.32-1.11,1.26-2.45,4.09-1.09,7.4.75,1.59,2,3,3.15,4.73,1.21,1.7,2.52,3.54,3.94,5.54,2.85,4,6.12,8.58,9.77,13.7,14.7,20.53,35.63,49.74,60.65,84.65l.16.23h.28c38.44.55,83.33,1.19,131.06,1.87.81.01,1.62.02,2.42.03h.28s.19-.2.19-.2c1.21-1.29,1.69-3.11,1.63-4.76-.06-1.68-.54-3.28-1.26-4.73-.73-1.45-1.67-2.78-2.86-3.9-1.16-1.08-2.71-2.1-4.48-2.1-6.15-.08-12.23-.16-18.26-.24-12.04-.16-23.83-.31-35.28-.46-22.91-.29-44.53-.56-64.36-.81l.43.22c-24.3-32.75-44.55-60.04-58.75-79.19-7.11-9.5-12.7-16.98-16.54-22.12-2.2-2.52-5.1-2.71-6.66-2.4-1.65.32-2.33.9-2.33.9.02.06.74-.47,2.36-.73,1.53-.25,4.32,0,6.37,2.45,3.79,5.18,9.29,12.71,16.29,22.28,14.11,19.21,34.24,46.59,58.39,79.45l.16.22h.27c19.83.29,41.44.61,64.34.94,11.45.16,23.23.33,35.27.5,6.02.08,12.11.17,18.25.25,1.37-.02,2.61.78,3.67,1.76,1.06,1,1.93,2.22,2.59,3.54,1.29,2.58,1.77,5.98-.17,8.09l.47-.2c-.79-.01-1.61-.02-2.42-.03-47.73-.62-92.61-1.21-131.06-1.71l.44.23c-25.16-34.8-46.22-63.93-61.01-84.39-3.7-5.09-7.01-9.65-9.89-13.62-1.44-1.98-2.78-3.81-4-5.49-1.17-1.7-2.47-3.16-3.18-4.62-1.35-3.13-.13-5.88.91-7.15,1.09-1.36,2-1.69,1.94-1.76Z"/>
      </g>
    </g>
    <g>
      <path class="st8" d="M390.55,214.49c6.37.71,15.26,4.81,19.86,9.27,7.51,7.28,12.97,17.25,15.9,26.05,3.95,11.84,2.18,58.54,2.18,72.07s-3.44,64.35-5.14,72.81c-1.7,8.46,1.1,21.03,5.02,29.21,7.03,14.67-3.93,22.19-3.93,22.19l-145.04-1.09.58-5.41c1-9.43-2.51-19.03,1.08-27.8,3.76-9.19,7.97-23.7,6.67-40.64-1.85-24.16-9.07-40.66-4.64-54.67,6.76-21.38,29.1-70.02,56.09-90.79,0,0,21.28-4.56,26.09-6.24,10.95-3.84,16.75-5.9,25.28-4.95Z"/>
      <path class="st8" d="M220.02,400.8l123.92-25.87,3.19-107.58s4.34-43.83,26.3-47.9l52.88,65.83c-2.95,33.18-.26,95.96-15.51,120.17-15.25,24.21-30.08,43.62-67.63,41.89-37.55-1.72-120.3-2.51-120.3-2.51l-2.86-44.04Z"/>
      <path class="st1" d="M343.7,375.34c-.29.23,2.68,4.11,5.18,9.52,2.54,5.39,3.6,10.16,3.97,10.08.31-.03-.22-5.05-2.83-10.61-2.58-5.58-6.09-9.21-6.31-8.99Z"/>
      <g class="st2">
        <path d="M347.99,262.75c-12.38,38.03-9.69,96.67-33.29,118.28l29.24-6.11s-.98-11.29-.25-20.66c2.37-30.07,2.66-60.64,4.29-91.52"/>
      </g>
      <path class="st1" d="M350.74,249.18s-1.04,2.91-2.17,8.63c-.56,2.86-1.12,6.42-1.51,10.65-.41,4.23-.47,9.12-.67,14.59-.7,21.95-1.71,53.46-2.94,91.86l.4-.48c-35.52,7.38-77.86,16.18-123.94,25.76l-.52.11.03.53c.91,14.1,1.87,28.93,2.85,44.04l.04.58h.58c4.77.06,9.91.12,15.07.18,21.54.27,42.56.6,62.86,1.03,10.15.22,20.12.48,29.88.8,9.72.25,19.37,1.17,28.71-.3,4.67-.58,9.16-1.91,13.48-3.47,4.23-1.78,8.29-3.85,11.89-6.5,7.3-5.19,12.96-11.88,17.88-18.57,2.41-3.39,4.7-6.78,6.85-10.17l1.61-2.52c.5-.86.95-1.76,1.42-2.63.47-.88.93-1.75,1.39-2.62.36-.91.71-1.82,1.07-2.73,2.8-7.24,4.43-14.53,5.54-21.5,2.32-13.96,3.02-26.75,3.63-37.94.56-11.2.81-20.86,1.08-28.74.25-7.89.53-14.01.75-18.16.13-2.04.22-3.61.29-4.72.06-1.06.06-1.61.06-1.61,0,0-.08.54-.18,1.6-.1,1.1-.24,2.67-.42,4.71-.3,4.15-.66,10.27-.98,18.15-.35,7.89-.67,17.54-1.3,28.73-.68,11.18-1.44,23.94-3.8,37.83-1.13,6.94-2.78,14.17-5.56,21.29-.35.89-.7,1.78-1.06,2.68-.45.85-.91,1.7-1.37,2.55-.47.85-.9,1.72-1.4,2.57l-1.61,2.51c-2.15,3.37-4.44,6.74-6.84,10.1-4.9,6.63-10.51,13.22-17.68,18.28-3.54,2.59-7.52,4.61-11.66,6.35-4.23,1.52-8.63,2.82-13.23,3.38-9.17,1.43-18.73.51-28.5.25-9.77-.33-19.74-.6-29.89-.83-20.31-.46-41.34-.79-62.88-1.06-5.16-.06-10.3-.12-15.07-.17l.62.59c-.98-15.11-1.95-29.94-2.87-44.04l-.49.64c46.06-9.66,88.39-18.54,123.89-25.98l.39-.08v-.4c1.06-38.41,1.92-69.92,2.52-91.88.16-5.48.18-10.36.54-14.57.34-4.22.85-7.77,1.37-10.63.51-2.86,1.01-5.03,1.36-6.48.17-.7.3-1.24.4-1.65.09-.37.13-.56.11-.56Z"/>
    </g>
    <g>
      <polygon class="st13" points="151.83 664.84 170.23 800.39 122.1 808.28 87.86 688.01 151.83 664.84"/>
      <path class="st1" d="M297.77,456.58s-175.92-11.57-212.44-5.75c-22.08,3.52-41.1,38.01-29.07,58.74,5.69,9.81,14.66,40.37,14.66,40.37l94.55-21.56,132.3-71.8Z"/>
      <polygon class="st13" points="165.47 549.94 203.56 608.05 158.73 637.1 110.11 562.56 165.47 549.94"/>
      <path class="st1" d="M420.97,445.94s17.76,81.17-11.41,114.15c-29.17,32.98-72.29,32.98-116.68,26.63-44.39-6.34-149.77-8.55-149.77-8.55,0,0,4.7,28.81,8.14,61.61,3.45,32.88,4.15,53.52,4.15,53.52l-65.97,5.5s-36.76-111.88-42.41-134.03c-5.65-22.12-3.74-51.92,15.81-62.96,16.56-9.36,147.24-45.59,209.79-50.98l6.79-5.84,141.57.93Z"/>
      <path class="st7" d="M110.82,551.23c-.04.23,2.55.59,6.47,1.99,1.96.68,4.21,1.72,6.6,3.06,2.36,1.39,4.83,3.12,7.19,5.22,2.33,2.13,4.31,4.42,5.94,6.62,1.58,2.23,2.85,4.37,3.73,6.25,1.8,3.75,2.42,6.29,2.65,6.23.08-.02-.01-.67-.27-1.82-.23-1.16-.76-2.81-1.57-4.77-.8-1.97-2.01-4.21-3.59-6.55-1.62-2.3-3.63-4.68-6.04-6.88-2.43-2.17-5.01-3.92-7.47-5.3-2.49-1.33-4.84-2.31-6.88-2.9-2.04-.61-3.72-.96-4.91-1.07-1.18-.13-1.83-.17-1.84-.08Z"/>
      <path class="st7" d="M118.66,483.67c.3-.16-1.08-3.32-3.48-6.83-2.38-3.51-4.82-5.96-5.08-5.74-.27.23,1.7,2.99,4.04,6.44,2.35,3.44,4.2,6.29,4.51,6.12Z"/>
      <path class="st7" d="M44.23,533.63s.09-.21.19-.63c.12-.49.26-1.11.45-1.88.39-1.65,1-4.07,1.99-7.13.99-3.05,2.4-6.74,4.69-10.66,2.29-3.85,5.56-8.16,10.64-10.71,10.43-4.74,23.42-9.26,38.02-13.51,14.59-4.36,30.68-8.99,47.66-13.48,33.97-9.02,65.16-15.48,87.87-19.25,11.35-1.92,20.58-3.23,26.96-4.12,3.12-.42,5.58-.76,7.35-1,.78-.12,1.41-.21,1.91-.29.43-.07.65-.12.65-.14,0-.02-.23-.02-.66.01-.5.04-1.14.1-1.92.17-1.78.18-4.25.44-7.38.76-6.4.74-15.66,1.92-27.04,3.73-22.78,3.55-54.04,9.88-88.05,18.91-17,4.5-33.1,9.16-47.68,13.59-14.62,4.33-27.59,8.93-38.09,13.83-5.3,2.72-8.57,7.2-10.85,11.15-2.27,4.03-3.62,7.78-4.55,10.87-.92,3.1-1.45,5.55-1.77,7.22-.13.78-.24,1.4-.33,1.9-.07.43-.09.65-.07.66Z"/>
      <g>
        <g>
          <path class="st7" d="M118.36,804.76l-1.6-5.88c20.43-2.14,38.66-9.71,53.12-22.89l16.31,35.25-108.75,48.35c-4.11-10.4,40.93-54.84,40.93-54.84Z"/>
          <path class="st5" d="M186.19,811.25l-3.98-8.61-103,49.68s-3.88,4.2-1.78,7.28l108.75-48.35Z"/>
          <path class="st1" d="M119.81,804.08c.26.51,3.03-.44,6.42.06,3.41.41,5.8,2.06,6.2,1.63.44-.32-1.8-3.06-5.92-3.59-4.11-.57-7.03,1.47-6.7,1.9Z"/>
          <path class="st5" d="M162.14,800.3c.75,1.52,2.62,2.17,4.18,1.44,1.56-.73,2.23-2.55,1.48-4.08-.75-1.52-2.62-2.17-4.19-1.44-1.56.73-2.22,2.55-1.48,4.08Z"/>
          <path class="st1" d="M120.47,803.36c.03.1.91-.03,2.46-.45,1.51-.45,3.93-1.09,6.1-3.25.53-.53,1.02-1.17,1.42-1.87.41-.7.83-1.48.91-2.5.14-1.03-.61-2.3-1.7-2.69-1.06-.47-2.33-.29-3.3.15-3.75,1.79-6.63,5.88-6.73,10.61l1.6-.23c-.26-.81-.62-1.64-1.07-2.44-2.45-4.42-7.42-6.79-11.79-6.67-.55.01-1.18.04-1.83.36-.65.31-1.12.98-1.23,1.61-.23,1.26.23,2.31.78,3.14,1.11,1.65,2.69,2.68,4.17,3.35,3.04,1.35,5.76,1.09,7.47,1.12,1.76-.05,2.72-.12,2.73-.23,0-.11-.96-.26-2.71-.4-1.72-.21-4.32-.16-6.98-1.51-1.31-.66-2.65-1.64-3.52-3.04-.43-.65-.67-1.48-.53-2.12.14-.61.65-.81,1.66-.8,3.88-.03,8.19,2.09,10.34,5.97.4.7.71,1.43.95,2.14.13.42.59.66,1.03.53.35-.1.57-.42.58-.76.02-4.07,2.61-7.76,5.7-9.32,1.47-.79,3.19-.11,3.06,1.17-.11,1.32-1.02,2.74-1.85,3.7-1.8,2-4.04,2.81-5.47,3.42-1.47.58-2.3.91-2.26,1.01Z"/>
        </g>
        <path class="st1" d="M111.47,811.63c.09.36,3.34-.49,7.19.5,3.87.92,6.34,3.2,6.59,2.92.28-.17-2.02-3.11-6.29-4.14-4.25-1.08-7.67.43-7.5.71Z"/>
        <path class="st1" d="M105.41,818.53c.03.37,2.98.28,6.37,1.31,3.41.98,5.83,2.67,6.06,2.37.23-.23-2.01-2.5-5.7-3.58-3.68-1.11-6.8-.42-6.73-.11Z"/>
      </g>
      <g>
        <g>
          <path class="st7" d="M150.2,630.55l-2.57-5.52c19.78-5.55,36.47-16.08,48.51-31.51l22.01,32.01-99.06,65.97c-5.8-9.56,31.11-60.95,31.11-60.95Z"/>
          <path class="st5" d="M218.15,625.52l-5.38-7.82-93.16,66.32s-3.12,4.8-.52,7.48l99.06-65.97Z"/>
          <path class="st1" d="M151.52,629.63c.34.46,2.91-.94,6.34-1.02,3.43-.16,6.07,1.05,6.38.57.38-.39-2.29-2.71-6.44-2.55-4.15.13-6.69,2.64-6.28,3Z"/>
          <path class="st5" d="M192.6,618.79c.99,1.37,2.95,1.69,4.37.71,1.42-.98,1.76-2.89.77-4.27-.99-1.38-2.95-1.69-4.37-.71-1.42.98-1.76,2.89-.77,4.27Z"/>
          <path class="st1" d="M152.04,628.81c.05.09.89-.19,2.35-.86,1.41-.7,3.69-1.74,5.47-4.23.43-.62.8-1.32,1.09-2.09.29-.75.57-1.6.48-2.62-.03-1.04-.99-2.17-2.13-2.36-1.13-.28-2.35.1-3.22.7-3.39,2.4-5.55,6.91-4.84,11.59l1.54-.5c-.39-.75-.89-1.52-1.47-2.22-3.16-3.94-8.46-5.45-12.74-4.59-.54.1-1.16.24-1.74.66-.59.42-.94,1.16-.94,1.8-.02,1.28.61,2.24,1.3,2.96,1.38,1.44,3.1,2.19,4.67,2.6,3.23.82,5.86.1,7.55-.16,1.72-.35,2.66-.57,2.65-.68-.01-.11-.99-.09-2.73.06-1.73.08-4.29.57-7.13-.32-1.41-.43-2.89-1.17-3.98-2.4-.54-.57-.91-1.35-.87-2,.03-.62.51-.91,1.5-1.07,3.82-.68,8.42.68,11.2,4.14.51.62.95,1.29,1.29,1.95.2.39.7.55,1.1.35.33-.16.49-.51.44-.84-.66-4.01,1.26-8.09,4.05-10.14,1.32-1.02,3.13-.65,3.22.64.11,1.32-.54,2.87-1.2,3.96-1.43,2.28-3.51,3.45-4.82,4.29-1.35.82-2.11,1.28-2.06,1.38Z"/>
        </g>
        <path class="st1" d="M144.57,638.48c.15.34,3.21-1.05,7.18-.71,3.97.26,6.79,2.09,6.99,1.77.25-.21-2.52-2.72-6.9-3.02-4.37-.35-7.49,1.72-7.27,1.97Z"/>
        <path class="st1" d="M139.75,646.3c.09.36,2.98-.23,6.5.22,3.53.4,6.2,1.65,6.37,1.32.19-.26-2.41-2.13-6.22-2.56-3.81-.47-6.77.73-6.65,1.03Z"/>
      </g>
    </g>
  </g>
</svg>